<svg width="38" height="38" viewBox="0 0 38 38" fill="none" xmlns="http://www.w3.org/2000/svg">
<circle cx="19" cy="19" r="19" fill="white"/>
<path d="M13.3181 11.4462C12.8012 10.9293 11.9632 10.9293 11.4462 11.4462C10.9294 11.9631 10.9294 12.8011 11.4462 13.318L17.1282 19L11.4462 24.6819C10.9294 25.1989 10.9294 26.0369 11.4462 26.5537C11.9632 27.0707 12.8012 27.0707 13.3181 26.5537L19 20.8718L24.682 26.5537C25.1989 27.0707 26.0369 27.0707 26.5539 26.5537C27.0707 26.0369 27.0707 25.1989 26.5539 24.6819L20.8719 19L26.5539 13.318C27.0707 12.8011 27.0707 11.9631 26.5539 11.4462C26.0369 10.9293 25.1989 10.9293 24.682 11.4462L19 17.1282L13.3181 11.4462Z" fill="#1E0F34"/>
</svg>
