<svg width="81" height="81" viewBox="0 0 81 81" fill="none" xmlns="http://www.w3.org/2000/svg">
<g filter="url(#filter0_b_264_85577)">
<path d="M0.34082 40.2344C0.34082 29.9998 0.34082 24.8825 1.61821 20.7222C4.44071 11.5298 11.6363 4.33427 20.8287 1.51176C24.9889 0.234375 30.1062 0.234375 40.3408 0.234375C50.5754 0.234375 55.6927 0.234375 59.853 1.51176C69.0454 4.33427 76.2409 11.5298 79.0634 20.7222C80.3408 24.8825 80.3408 29.9998 80.3408 40.2344C80.3408 50.469 80.3408 55.5863 79.0634 59.7465C76.2409 68.9389 69.0454 76.1345 59.853 78.957C55.6927 80.2344 50.5754 80.2344 40.3408 80.2344C30.1062 80.2344 24.9889 80.2344 20.8287 78.957C11.6363 76.1345 4.44071 68.9389 1.61821 59.7465C0.34082 55.5863 0.34082 50.469 0.34082 40.2344Z" fill="url(#paint0_linear_264_85577)" fill-opacity="0.32"/>
<path d="M1.34253 40.2344C1.34253 29.926 1.35365 24.9966 2.57579 21.0162C5.3008 12.1414 12.2478 5.19436 21.1227 2.46935C25.103 1.2472 30.0325 1.23608 40.3408 1.23608C50.6492 1.23608 55.5786 1.2472 59.5589 2.46935C68.4338 5.19436 75.3808 12.1414 78.1059 21.0162C79.328 24.9966 79.3391 29.926 79.3391 40.2344C79.3391 50.5427 79.328 55.4722 78.1059 59.4525C75.3808 68.3274 68.4338 75.2744 59.559 77.9994C55.5786 79.2215 50.6492 79.2327 40.3408 79.2327C30.0325 79.2327 25.103 79.2215 21.1227 77.9994C12.2478 75.2744 5.3008 68.3274 2.57579 59.4525C1.35365 55.4722 1.34253 50.5427 1.34253 40.2344Z" stroke="url(#paint1_linear_264_85577)" stroke-width="2.00341"/>
</g>
<g clip-path="url(#clip0_264_85577)">
<path d="M53.5304 27.9284C51.0706 26.7775 48.4405 25.9411 45.6907 25.4648C45.353 26.0754 44.9585 26.8966 44.6865 27.5499C41.7634 27.1103 38.8673 27.1103 35.998 27.5499C35.726 26.8966 35.3225 26.0754 34.9818 25.4648C32.2291 25.9411 29.5959 26.7806 27.1361 27.9345C22.1747 35.4319 20.8297 42.7431 21.5022 49.9505C24.7929 52.4079 27.982 53.9007 31.1172 54.8775C31.8913 53.8121 32.5817 52.6796 33.1765 51.486C32.0438 51.0555 30.9588 50.5244 29.9337 49.9077C30.2057 49.7063 30.4717 49.4956 30.7287 49.2789C36.9813 52.2034 43.7749 52.2034 49.9528 49.2789C50.2129 49.4956 50.4788 49.7063 50.7478 49.9077C49.7197 50.5274 48.6318 51.0586 47.499 51.489C48.0938 52.6796 48.7812 53.8152 49.5583 54.8805C52.6966 53.9037 55.8886 52.4109 59.1793 49.9505C59.9684 41.5953 57.8314 34.3512 53.5304 27.9284ZM34.0283 45.518C32.1514 45.518 30.6121 43.7657 30.6121 41.6319C30.6121 39.4981 32.1185 37.7428 34.0283 37.7428C35.9382 37.7428 37.4775 39.495 37.4446 41.6319C37.4476 43.7657 35.9382 45.518 34.0283 45.518ZM46.6532 45.518C44.7762 45.518 43.2369 43.7657 43.2369 41.6319C43.2369 39.4981 44.7433 37.7428 46.6532 37.7428C48.563 37.7428 50.1023 39.495 50.0694 41.6319C50.0694 43.7657 48.563 45.518 46.6532 45.518Z" fill="white"/>
</g>
<defs>
<filter id="filter0_b_264_85577" x="-5.65918" y="-5.76562" width="92" height="92" filterUnits="userSpaceOnUse" color-interpolation-filters="sRGB">
<feFlood flood-opacity="0" result="BackgroundImageFix"/>
<feGaussianBlur in="BackgroundImageFix" stdDeviation="3"/>
<feComposite in2="SourceAlpha" operator="in" result="effect1_backgroundBlur_264_85577"/>
<feBlend mode="normal" in="SourceGraphic" in2="effect1_backgroundBlur_264_85577" result="shape"/>
</filter>
<linearGradient id="paint0_linear_264_85577" x1="60.5187" y1="0.234375" x2="60.5187" y2="80.2344" gradientUnits="userSpaceOnUse">
<stop stop-color="#53196E"/>
<stop offset="1" stop-color="#9F30D4" stop-opacity="0.2"/>
</linearGradient>
<linearGradient id="paint1_linear_264_85577" x1="44.8133" y1="0.234377" x2="44.8133" y2="67.0302" gradientUnits="userSpaceOnUse">
<stop stop-color="#6041FF" stop-opacity="0.5"/>
<stop offset="1" stop-color="#6041FF" stop-opacity="0.15"/>
</linearGradient>
<clipPath id="clip0_264_85577">
<rect width="38" height="38" fill="white" transform="translate(21.3408 21.2344)"/>
</clipPath>
</defs>
</svg>
