<svg width="23" height="24" viewBox="0 0 23 24" fill="none" xmlns="http://www.w3.org/2000/svg">
<path d="M14.9532 1.39611C14.2656 0.714577 13.1556 0.719533 12.474 1.40717C11.7925 2.0948 11.7975 3.20472 12.485 3.88623L15.7815 7.15343C17.1253 8.4852 18.0261 9.38163 18.6317 10.1357C18.6595 10.1703 18.6861 10.2042 18.7121 10.2374H2.50005C1.53191 10.2374 0.74707 11.0222 0.74707 11.9904C0.74707 12.9585 1.53191 13.7434 2.50005 13.7434H18.7121C18.6861 13.7766 18.6595 13.8104 18.6317 13.845C18.0261 14.599 17.1253 15.4956 15.7815 16.8274L12.485 20.0945C11.7975 20.7761 11.7925 21.8861 12.474 22.5737C13.1556 23.2613 14.2656 23.2662 14.9532 22.5847L18.3215 19.2461C19.5748 18.0043 20.62 16.9684 21.3651 16.0405C22.1467 15.067 22.7413 14.0442 22.9003 12.7979C22.9344 12.5298 22.9515 12.2601 22.9515 11.9904C22.9515 11.7207 22.9344 11.451 22.9003 11.1829C22.7413 9.93662 22.1467 8.91372 21.3651 7.9404C20.62 7.01246 19.5748 5.97662 18.3215 4.73465L14.9532 1.39611Z" fill="#6E073F"/>
</svg>
