<svg width="98" height="101" viewBox="0 0 98 101" fill="none" xmlns="http://www.w3.org/2000/svg">
<path d="M16.9056 91.7599C16.9056 91.7599 12.9578 88.6673 6.98898 96.7374C6.70974 97.1179 6.84587 97.6554 7.27171 97.8544C9.57197 98.9155 16.1516 101.488 18.3367 97.4111L16.9056 91.7599Z" fill="#E81818"/>
<path d="M17.1289 92.5698C17.1289 92.5698 14.3295 90.3743 10.0955 96.1197C9.91051 96.371 10.0013 96.7305 10.284 96.8597C11.8757 97.5997 16.5844 99.4671 18.1447 96.563L17.1289 92.5698Z" fill="#E7A900"/>
<path d="M17.5059 93.1702C17.5059 93.1702 15.6176 91.6902 12.7588 95.5647C12.6332 95.7357 12.696 95.9766 12.888 96.0638C13.963 96.563 17.1394 97.823 18.1901 95.8649L17.5059 93.1702Z" fill="#FFFD01"/>
<path d="M14.0538 100.113C15.9736 100.113 17.7502 99.495 18.752 97.6311C18.8079 97.5264 18.8218 97.4077 18.7939 97.296L17.3593 91.6448C17.3349 91.5436 17.2755 91.4564 17.1952 91.39C17.1499 91.3551 16.0329 90.5 14.1271 90.7583C11.6977 91.0864 9.16704 93.0061 6.61197 96.4583C6.39207 96.755 6.31877 97.125 6.41301 97.481C6.50377 97.8335 6.7481 98.1267 7.0797 98.2803C8.63996 98.9994 11.4778 100.113 14.0538 100.113ZM17.8375 97.3414C15.7257 100.877 9.38345 98.3083 7.46715 97.4251C7.36592 97.3763 7.33102 97.2925 7.31706 97.2471C7.30309 97.1983 7.29611 97.1075 7.36243 97.0133C10.3329 93.0027 12.7239 91.9031 14.2108 91.6902C15.4151 91.5157 16.2039 91.8787 16.4936 92.0497L17.8375 97.3414Z" fill="#381A46"/>
<path d="M21.7783 95.9976C20.6753 97.3589 19.0278 97.8057 19.0278 97.8057C19.0278 97.8057 18.0295 96.8004 17.3593 94.3151C16.6891 91.8299 17.0452 90.4616 17.0452 90.4616C17.0452 90.4616 18.6892 90.0183 20.3298 90.6396" fill="#E2E8E8"/>
<path d="M19.0278 98.2733C19.0697 98.2733 19.108 98.2663 19.1499 98.2558C19.2232 98.2349 20.9545 97.7532 22.1413 96.2907C22.3054 96.0882 22.274 95.795 22.0715 95.631C21.8691 95.4669 21.5759 95.4983 21.4118 95.7008C20.6788 96.6048 19.6665 97.0726 19.1814 97.2576C18.8847 96.8562 18.2668 95.8858 17.8096 94.1929C17.3488 92.4825 17.3907 91.3481 17.4501 90.8559C17.9597 90.7722 19.0731 90.664 20.1622 91.0758C20.403 91.1666 20.6753 91.0444 20.7661 90.8036C20.8568 90.5627 20.7346 90.2905 20.4938 90.1997C18.7311 89.533 16.9928 89.9903 16.9195 90.0077C16.7554 90.0531 16.6298 90.1788 16.5879 90.3428C16.5739 90.4022 16.2109 91.8647 16.9055 94.4372C17.6001 97.0132 18.6508 98.0883 18.6927 98.1337C18.7834 98.2244 18.9056 98.2733 19.0278 98.2733Z" fill="#381A46"/>
<path d="M23.2932 97.7253C20.3437 97.8544 19.5409 94.5559 19.3315 93.7845C19.122 93.0131 18.1552 89.7599 20.7661 88.3811C23.4084 86.9919 35.723 84.6602 36.9063 89.0339C38.0895 93.404 26.2776 97.5961 23.2932 97.7253Z" fill="#E81818"/>
<g opacity="0.7">
<path d="M19.1534 93.0515C19.1255 91.8613 19.4571 90.479 20.9336 89.7006C23.5096 88.3463 35.2726 86.0984 36.962 90.0322C37.0144 89.7006 37.0004 89.3655 36.9097 89.0305C35.7264 84.6603 23.4118 86.9885 20.7695 88.3777C18.6822 89.4807 18.8811 91.781 19.1534 93.0515Z" fill="white"/>
</g>
<g opacity="0.3">
<path d="M23.0244 96.6188C20.6997 96.72 19.7084 94.692 19.2895 93.4494C19.7712 93.7321 20.3576 93.8997 21.0662 93.8683C23.6387 93.7566 32.7839 90.6221 34.4873 86.957C35.5274 87.2782 36.3233 87.7913 36.7212 88.5522C36.7037 92.6885 25.8622 96.4966 23.0244 96.6188Z" fill="#371A45"/>
</g>
<path d="M23.1326 98.1965C23.1955 98.1965 23.2548 98.1965 23.3176 98.193C25.9146 98.0813 34.1766 95.2086 36.6689 91.8054C37.3844 90.828 37.6183 89.8507 37.3635 88.9082C37.1087 87.9658 36.4176 87.2433 35.3041 86.7581C31.4401 85.0722 22.8569 86.7546 20.5531 87.9658C19.2407 88.6569 17.8829 90.2381 18.8672 93.8404L18.9021 93.966C19.8236 97.4286 21.6736 98.1965 23.1326 98.1965ZM30.8118 86.978C32.4069 86.978 33.873 87.1595 34.9271 87.6202C35.7753 87.9902 36.2779 88.4929 36.4559 89.1561C36.634 89.8193 36.456 90.5069 35.9079 91.2539C33.6112 94.3884 25.6737 97.1529 23.2722 97.2576C21.5968 97.3309 20.4554 96.1755 19.8027 93.7252L19.7678 93.596C19.1011 91.1492 19.499 89.5819 20.986 88.7966C22.4834 88.0077 27.0176 86.978 30.8118 86.978Z" fill="#381A46"/>
<path d="M27.761 96.9958C27.8308 96.9958 27.9006 96.9783 27.9635 96.9364C28.138 96.8247 28.1903 96.5944 28.0786 96.4199C26.295 93.6309 25.4224 90.4092 25.562 87.1036C25.569 86.8977 25.4084 86.7232 25.2025 86.7127C24.993 86.7092 24.822 86.8663 24.8115 87.0722C24.6684 90.5348 25.5794 93.9067 27.4469 96.8247C27.5167 96.9364 27.6388 96.9958 27.761 96.9958Z" fill="#381A46"/>
<path d="M11.6034 70.9495C11.6034 70.9495 7.65565 67.8569 1.68685 75.927C1.40761 76.3075 1.54374 76.845 1.96959 77.044C4.26984 78.1051 10.8495 80.6776 13.0345 76.6007L11.6034 70.9495Z" fill="#E81818"/>
<path d="M11.8268 71.7628C11.8268 71.7628 9.02738 69.5673 4.79338 75.3127C4.60838 75.564 4.69914 75.9236 4.98187 76.0527C6.57355 76.7927 11.2823 78.6601 12.8425 75.756L11.8268 71.7628Z" fill="#E7A900"/>
<path d="M12.2038 72.3596C12.2038 72.3596 10.3154 70.8796 7.45668 74.7541C7.33102 74.9252 7.39385 75.166 7.58583 75.2533C8.66091 75.7524 11.8373 77.0125 12.8879 75.0543L12.2038 72.3596Z" fill="#FFFD01"/>
<path d="M8.75164 79.3058C10.6714 79.3058 12.4481 78.688 13.4499 76.8241C13.5057 76.7194 13.5197 76.6007 13.4918 76.489L12.0572 70.8378C12.0327 70.7366 11.9734 70.6493 11.8931 70.583C11.8477 70.5481 10.7308 69.6929 8.82494 69.9512C6.39554 70.2794 3.86491 72.1991 1.30985 75.6513C1.08995 75.948 1.01664 76.318 1.11088 76.674C1.20164 77.0265 1.44598 77.3197 1.77758 77.4733C3.33784 78.1889 6.17564 79.3058 8.75164 79.3058ZM12.5354 76.5344C10.4236 80.0703 4.08132 77.5012 2.16503 76.6181C2.0638 76.5693 2.0289 76.4855 2.01493 76.4401C2.00097 76.3913 1.99399 76.3005 2.06031 76.2063C5.0482 72.1677 7.45316 71.0787 8.94711 70.8797C10.1199 70.7226 10.9053 71.0822 11.1915 71.2462L12.5354 76.5344Z" fill="#381A46"/>
<path d="M16.4762 75.1906C15.3732 76.5519 13.7257 76.9986 13.7257 76.9986C13.7257 76.9986 12.7274 75.9934 12.0572 73.5081C11.387 71.0229 11.743 69.6546 11.743 69.6546C11.743 69.6546 13.3871 69.2113 15.0276 69.8326" fill="#E2E8E8"/>
<path d="M13.7256 77.4664C13.7675 77.4664 13.8059 77.4594 13.8478 77.4489C13.9211 77.428 15.6524 76.9463 16.8392 75.4838C17.0032 75.2813 16.9718 74.9881 16.7694 74.824C16.5669 74.66 16.2737 74.6914 16.1097 74.8938C15.3767 75.7979 14.3644 76.2656 13.8792 76.4471C13.5825 76.0457 12.9647 75.0754 12.5074 73.3825C12.0467 71.6721 12.0886 70.5377 12.1479 70.0455C12.6575 69.9617 13.771 69.8535 14.8601 70.2654C15.1009 70.3562 15.3732 70.234 15.4639 69.9932C15.5547 69.7523 15.4325 69.48 15.1917 69.3893C13.4289 68.7226 11.6907 69.1799 11.6174 69.1973C11.4533 69.2427 11.3276 69.3684 11.2858 69.5324C11.2718 69.5917 10.9088 71.0543 11.6034 73.6268C12.298 76.2028 13.3487 77.2779 13.3906 77.3233C13.4813 77.4175 13.6035 77.4664 13.7256 77.4664Z" fill="#381A46"/>
<path d="M17.9911 76.9183C15.0416 77.0474 14.2388 73.7489 14.0294 72.9775C13.8199 72.2061 12.853 68.9529 15.464 67.5741C18.1063 66.1849 30.4209 63.8532 31.6041 68.2269C32.7874 72.597 20.9755 76.7891 17.9911 76.9183Z" fill="#E81818"/>
<g opacity="0.7">
<path d="M13.8514 72.2445C13.8235 71.0543 14.1551 69.672 15.6316 68.8936C18.2076 67.5393 29.9706 65.2914 31.66 69.2252C31.7124 68.8936 31.6984 68.5585 31.6077 68.2235C30.4244 63.8533 18.1098 66.1815 15.4675 67.5707C13.3802 68.6737 13.5791 70.974 13.8514 72.2445Z" fill="white"/>
</g>
<g opacity="0.3">
<path d="M17.7188 75.8084C15.3941 75.9096 14.4028 73.8816 13.984 72.639C14.4657 72.9217 15.0521 73.0893 15.7607 73.0578C18.3332 72.9461 27.4783 69.8117 29.1817 66.1466C30.2219 66.4677 31.0177 66.9808 31.4156 67.7418C31.4017 71.8815 20.5601 75.6862 17.7188 75.8084Z" fill="#371A45"/>
</g>
<path d="M17.8271 77.3895C17.8899 77.3895 17.9493 77.3895 18.0121 77.386C20.609 77.2743 28.8711 74.4016 31.3633 70.9984C32.0789 70.021 32.3128 69.0437 32.0579 68.1012C31.8031 67.1588 31.112 66.4363 29.9985 65.9511C26.1345 64.2652 17.5513 65.9476 15.2476 67.1588C13.9351 67.8499 12.5773 69.4311 13.5617 73.0334L13.5966 73.159C14.5216 76.6216 16.3715 77.3895 17.8271 77.3895ZM25.5097 66.1675C27.1049 66.1675 28.5709 66.349 29.625 66.8098C30.4732 67.1797 30.9759 67.6824 31.1539 68.3456C31.3319 69.0088 31.1539 69.6964 30.6059 70.4434C28.3091 73.5779 20.3717 76.3424 17.9702 76.4471C16.2912 76.5239 15.1533 75.365 14.5006 72.9147L14.4657 72.7855C13.799 70.3387 14.1969 68.7714 15.6839 67.9861C17.1813 67.2007 21.7155 66.1675 25.5097 66.1675Z" fill="#381A46"/>
<path d="M22.459 76.1888C22.5288 76.1888 22.5986 76.1713 22.6615 76.1294C22.836 76.0177 22.8883 75.7874 22.7766 75.6128C20.993 72.8239 20.1204 69.6022 20.26 66.2966C20.267 66.0907 20.1064 65.9162 19.9004 65.9057C19.6875 65.9022 19.52 66.0593 19.5095 66.2652C19.3664 69.7278 20.2774 73.0997 22.1449 76.0177C22.2147 76.126 22.3368 76.1888 22.459 76.1888Z" fill="#381A46"/>
<path d="M28.2462 91.6309L24.8255 91.8124C23.2792 91.8962 21.8097 91.1213 21.0034 89.7984C18.6019 85.8576 17.3244 81.3374 17.3104 76.7264C17.3069 75.1766 18.1516 73.749 19.5129 73.0125L22.5218 71.3789L28.2462 91.6309Z" fill="#E2E8E8"/>
<path d="M17.3838 78.5554C17.5373 80.5799 17.9353 82.573 18.5635 84.4928C19.1674 86.3428 19.9842 88.1229 21.0069 89.7984C21.8132 91.1213 23.2827 91.8962 24.829 91.8124L28.2498 91.6309L25.6668 82.4788L22.5288 71.3789L19.52 73.0125C18.8393 73.3825 18.2878 73.9235 17.9073 74.5658C17.5269 75.208 17.3174 75.9515 17.3209 76.7264C17.3139 77.3372 17.3384 77.9481 17.3838 78.5554Z" fill="#E2E8E8"/>
<g opacity="0.3">
<path d="M18.0924 82.8766C18.1552 83.128 18.225 83.3793 18.2948 83.6271C17.9074 81.8714 17.7084 80.0737 17.7014 78.2622C17.6979 77.4873 17.9074 76.7438 18.2913 76.098C18.6718 75.4558 19.2233 74.9148 19.9074 74.5448L22.9163 72.9112L22.7033 72.1642L22.5253 71.3754L19.5165 73.0089C18.8358 73.3789 18.2843 73.92 17.9004 74.5622C17.5199 75.2045 17.3105 75.948 17.3105 76.7229C17.3175 78.8102 17.5827 80.8731 18.0924 82.8766Z" fill="white"/>
</g>
<path d="M96.4161 63.1936C95.2747 66.0174 92.5172 71.5255 86.7055 77.1976C81.9305 81.8574 75.0925 86.6255 65.3959 90.1021C59.1059 92.3569 53.4478 93.4774 48.5576 93.9207C35.7997 95.0795 28.2462 91.6274 28.2462 91.6274C28.1345 91.4738 28.0228 91.3203 27.9181 91.1632C25.8343 88.1962 24.3194 84.9012 23.4153 81.4421C22.9197 79.5467 22.609 77.606 22.4869 75.6408C22.4834 75.585 22.4799 75.5326 22.4799 75.4803C22.4031 74.1189 22.417 72.7472 22.5287 71.3789C22.5287 71.3789 24.1518 68.9669 27.8553 65.815C28.4626 65.2984 29.1223 64.7643 29.8414 64.2163C30.6931 63.5671 31.632 62.9004 32.6513 62.2267C32.749 62.1639 32.8432 62.1011 32.941 62.0348C34.2499 61.1831 35.695 60.3244 37.2832 59.4867C37.7195 59.2563 38.1698 59.0259 38.6305 58.799C43.0321 56.6175 48.4424 54.6104 54.9871 53.2386C55.3955 53.1549 55.8004 53.0711 56.2053 52.9978C57.9226 52.6662 59.5876 52.4114 61.2002 52.2264C63.4377 51.9681 65.5739 51.8389 67.6088 51.818C70.8097 51.7831 73.7557 52.017 76.4434 52.4288C76.9739 52.5091 77.494 52.5999 78.0071 52.6941C86.9847 54.3591 92.8593 57.9858 95.4981 59.9335C96.5139 60.6839 96.8874 62.0243 96.4161 63.1936Z" fill="white"/>
<path d="M41.2275 64.1954C41.2938 64.1186 41.3567 64.0453 41.416 63.9685C41.3078 64.0907 41.2485 64.1675 41.2275 64.1954Z" fill="#E5E5E5"/>
<path d="M81.7385 81.4455C84.7509 79.1802 87.2047 76.8346 89.1908 74.5832C89.2152 74.5552 89.2397 74.5273 89.2641 74.4994C89.5433 74.1853 89.8121 73.8676 90.0704 73.557C90.0774 73.5465 90.0844 73.5395 90.0914 73.529C90.1786 73.4208 90.2694 73.3161 90.3531 73.2114C90.4404 73.1032 90.5242 72.9985 90.6114 72.8938C90.7022 72.7786 90.7929 72.6634 90.8837 72.5482C91.0408 72.3492 91.1944 72.1468 91.3445 71.9478C91.5818 71.6372 91.8052 71.3265 92.0251 71.0228C92.0984 70.9216 92.1717 70.8204 92.2415 70.7192C92.5242 70.3143 92.793 69.9198 93.0478 69.5359C93.1107 69.4381 93.1735 69.3404 93.2363 69.2462C93.7913 68.384 94.273 67.5672 94.6919 66.8063C94.7617 66.6806 94.828 66.555 94.8943 66.4328C94.9641 66.3036 95.0304 66.171 95.0968 66.0454C95.1631 65.9197 95.2259 65.794 95.2887 65.6719C95.3411 65.5671 95.3935 65.4659 95.4423 65.3647C95.5156 65.2111 95.5889 65.0645 95.6587 64.9214C95.9519 64.3036 96.1928 63.7521 96.3848 63.2704C96.0916 63.5706 95.7914 63.8673 95.4842 64.1674C91.7005 67.8569 86.9569 71.5988 81.0334 75.0055C81.3616 77.1347 81.5989 79.2849 81.7385 81.4455Z" fill="#C93535"/>
<path d="M81.7385 81.4455C84.7858 79.1522 87.2606 76.7786 89.2606 74.5028C89.4526 74.2864 89.6376 74.07 89.8191 73.8536C89.9099 73.7454 90.0006 73.6372 90.0914 73.5324L90.0949 73.529C90.1821 73.4242 90.2659 73.3195 90.3532 73.2148C90.5277 73.0019 90.6952 72.789 90.8628 72.5795C91.0129 72.3876 91.1595 72.1991 91.3026 72.0106C91.711 71.473 92.0949 70.9425 92.4545 70.4224C92.5138 70.3351 92.5731 70.2479 92.6325 70.1606C93.3306 69.1344 93.9309 68.1605 94.4406 67.26C94.479 67.1937 94.5174 67.1308 94.5523 67.0645C94.6116 66.9598 94.6674 66.8586 94.7233 66.7573C94.8699 66.4886 95.0095 66.2233 95.1387 65.972C95.1736 65.9092 95.205 65.8463 95.2364 65.7835C95.2992 65.6578 95.3621 65.5357 95.4214 65.4135C95.4493 65.3542 95.4807 65.2913 95.5087 65.232C95.568 65.1133 95.6238 64.9946 95.6762 64.8829C95.7844 64.6526 95.8856 64.4327 95.9799 64.2197C96.1439 63.8497 96.2905 63.5077 96.4127 63.2005C96.4651 63.0714 96.507 62.9422 96.5384 62.8061C96.5628 62.7048 96.5803 62.6071 96.5907 62.5059C96.5942 62.4745 96.5977 62.4396 96.6012 62.4047C93.3829 64.5234 87.8016 67.9337 80.3877 71.4626C81.0719 74.7437 81.5221 78.0806 81.7385 81.4455Z" fill="#D1D1D1"/>
<path d="M73.4381 52.0623C75.3649 55.7133 76.9775 59.511 78.255 63.4134C80.1644 69.2391 81.3407 75.2952 81.7386 81.4455C91.0304 74.454 94.9886 66.7294 96.4162 63.197C96.8875 62.0277 96.5105 60.6838 95.4947 59.9334C95.4179 59.8775 95.3377 59.8182 95.2539 59.7589C92.0531 57.4446 84.723 53.1269 73.4381 52.0623Z" fill="#E81818"/>
<g opacity="0.3">
<path d="M94.7338 64.6875C94.7303 64.6875 94.7303 64.6875 94.7338 64.6875C93.177 67.6579 90.5766 71.6476 86.4054 75.7176C81.6303 80.3739 74.7924 85.1455 65.0922 88.6185C58.8023 90.8734 53.1477 91.9939 48.254 92.4372C35.4961 93.596 27.9426 90.1474 27.9426 90.1474V90.1509L24.5219 90.3324C22.9756 90.4161 21.5096 89.6413 20.6998 88.3183C19.9109 87.0234 19.2442 85.6655 18.7032 84.2624L23.8447 82.8033C23.7924 82.6393 23.74 82.4752 23.6911 82.3077L31.3668 79.0964C31.3668 79.0964 33.4262 82.9953 28.33 86.2415C32.571 86.793 37.8906 87.0478 44.1386 86.4823C47.685 86.1612 51.535 85.5713 55.6504 84.6219C52.3798 83.1698 49.9922 80.0144 49.7025 76.1992C49.2837 70.6703 53.4269 65.8464 58.9559 65.424C64.4849 65.0051 69.3088 69.1484 69.7311 74.6774C69.9022 76.9288 69.3158 79.0615 68.1918 80.8277C80.0212 76.3842 88.5835 70.5027 94.7338 64.6875Z" fill="#371A45"/>
</g>
<g opacity="0.5">
<path d="M95.568 64.3873C96.0392 63.218 95.6622 61.8741 94.6465 61.1237C94.5697 61.0678 94.4894 61.0085 94.4056 60.9491C91.3549 58.7431 84.5449 54.722 74.1396 53.427C73.9093 52.9698 73.6754 52.516 73.438 52.0623C84.7229 53.1269 92.0565 57.4446 95.2573 59.7589C95.3411 59.8182 95.4214 59.8775 95.4982 59.9334C96.5139 60.6838 96.8909 62.0277 96.4196 63.197C95.6727 65.047 94.2276 68.0489 91.6865 71.494C93.704 68.5515 94.9083 66.0209 95.568 64.3873Z" fill="white"/>
</g>
<path d="M81.7385 82.0075C81.8572 82.0075 81.9759 81.9691 82.0771 81.8958C91.2223 75.0159 95.2713 67.4625 96.8699 63.5705C97.4913 62.0626 97.0026 60.3383 95.6867 59.3784C92.2869 56.9001 84.8835 52.5789 73.4904 51.5038C73.2845 51.4828 73.0855 51.5806 72.9703 51.7516C72.8551 51.9226 72.8447 52.1425 72.9389 52.3275C77.7384 61.4169 80.5099 71.2287 81.1765 81.4839C81.1905 81.6898 81.3162 81.8713 81.5047 81.9586C81.578 81.99 81.6582 82.0075 81.7385 82.0075ZM74.4189 52.729C84.9603 53.9332 91.8226 57.9508 95.0269 60.2859C95.924 60.9422 96.2556 62.115 95.8333 63.1412C94.3253 66.8062 90.58 73.8187 82.2272 80.3634C81.4593 70.6737 78.8379 61.3889 74.4189 52.729Z" fill="#381A46"/>
<path d="M43.3078 94.7165C49.0672 94.7165 56.687 93.8194 65.5843 90.6291C71.78 88.4091 77.3299 85.4701 82.0805 81.8958C82.2411 81.7771 82.3214 81.5817 82.3004 81.3897C81.6233 70.981 78.8064 61.026 73.9371 51.8005C73.8499 51.633 73.6823 51.5213 73.4938 51.5038C67.5774 50.9454 61.3119 51.3433 54.8684 52.6941C42.5783 55.2701 34.3267 60.1115 29.5691 63.7172C24.3892 67.644 22.1552 70.9251 22.061 71.0647C22.0086 71.145 21.9737 71.2358 21.9667 71.3335C21.6735 74.9916 22.0331 78.6357 23.0313 82.1681C24.0296 85.7005 25.6318 88.9955 27.7959 91.959C27.8518 92.0358 27.9286 92.0986 28.0158 92.1405C28.1659 92.2103 31.7891 93.8369 38.257 94.4722C39.723 94.6188 41.4124 94.7165 43.3078 94.7165ZM81.159 81.1803C76.555 84.6045 71.1866 87.4248 65.2039 89.5715C53.5804 93.7392 44.1909 93.9277 38.3652 93.3552C32.7525 92.8037 29.3073 91.4668 28.6092 91.1736C26.5707 88.3463 25.0559 85.2153 24.1099 81.8609C23.164 78.5065 22.8149 75.0474 23.0732 71.5743C23.5165 70.96 25.7784 67.9896 30.2916 64.5758C34.9515 61.0504 43.039 56.3208 55.0953 53.7936C61.3189 52.4882 67.368 52.0867 73.082 52.5929C77.7488 61.5181 80.4644 71.1345 81.159 81.1803Z" fill="#381A46"/>
<path d="M24.5986 92.3919C24.6859 92.3919 24.7697 92.3884 24.8569 92.3849L28.2777 92.2034C28.5953 92.1859 28.8361 91.9172 28.8222 91.5995C28.8047 91.2819 28.5325 91.034 28.2183 91.055L24.7976 91.2365C23.4607 91.3063 22.1937 90.6431 21.4991 89.4982C19.1534 85.6482 17.9038 81.2292 17.8899 76.7229C17.8864 75.3825 18.6159 74.1539 19.7922 73.5151L22.801 71.8816C23.0803 71.7315 23.1815 71.3824 23.0314 71.1032C22.8813 70.8239 22.5323 70.7227 22.253 70.8728L19.2442 72.5064C17.6944 73.3476 16.7345 74.9637 16.7415 76.7264C16.7554 81.4456 18.0644 86.067 20.5182 90.0986C21.3874 91.5297 22.9337 92.3919 24.5986 92.3919Z" fill="#381A46"/>
<g opacity="0.3">
<path d="M92.0217 61.0225C89.8994 58.9212 82.2761 56.1044 80.6286 58.1742C79.0648 60.1464 94.1439 63.1238 92.0217 61.0225Z" fill="white"/>
</g>
<path d="M51.7616 79.765C47.8945 75.8978 47.8945 69.6279 51.7617 65.7607C55.6288 61.8935 61.8988 61.8935 65.7659 65.7607C69.6331 69.6279 69.6331 75.8978 65.7659 79.765C61.8988 83.6321 55.6288 83.6321 51.7616 79.765Z" fill="#E81818"/>
<g opacity="0.7">
<path d="M48.8578 73.0577C48.8787 73.3474 48.9136 73.6371 48.959 73.9199C49.0114 68.8377 52.9487 64.5513 58.1112 64.1604C63.2736 63.7694 67.8148 67.4101 68.6351 72.4259C68.6386 72.1397 68.6281 71.85 68.6072 71.5603C68.1918 66.1046 63.4377 62.0207 57.982 62.4361C52.5263 62.8444 48.4424 67.602 48.8578 73.0577Z" fill="white"/>
</g>
<g opacity="0.25">
<path d="M48.8892 73.5116C49.3046 78.9673 54.0587 83.0512 59.5109 82.6393C64.9666 82.2239 69.0505 77.4698 68.6351 72.0141C68.6107 71.7105 68.5758 71.4138 68.5269 71.1171C68.4536 76.1818 64.5233 80.4472 59.3713 80.8382C54.2227 81.2291 49.692 77.6059 48.8578 72.611C48.8578 72.9077 48.8683 73.2079 48.8892 73.5116Z" fill="#000072"/>
</g>
<path d="M58.7569 83.1384C59.0187 83.1384 59.284 83.128 59.5492 83.107C62.3137 82.8976 64.8269 81.6236 66.635 79.5223C68.4396 77.421 69.3192 74.7402 69.1098 71.9792C68.9004 69.2147 67.6263 66.7016 65.525 64.8935C63.4237 63.0889 60.743 62.2127 57.982 62.4187C55.2175 62.6281 52.7043 63.9022 50.8962 66.0035C49.0916 68.1048 48.212 70.7855 48.4215 73.5465C48.8333 78.9847 53.392 83.1384 58.7569 83.1384ZM58.7813 63.3297C61.0327 63.3297 63.1864 64.1256 64.9107 65.609C66.8235 67.2496 67.9789 69.5394 68.1708 72.049C68.3628 74.5622 67.5635 76.9986 65.9194 78.9079C64.2789 80.8207 61.9891 81.9761 59.4794 82.1681C54.2925 82.5625 49.7548 78.6636 49.3604 73.4767C49.1684 70.9635 49.9678 68.5271 51.6118 66.6178C53.2523 64.705 55.5421 63.5496 58.0553 63.3576C58.2961 63.3402 58.537 63.3297 58.7813 63.3297Z" fill="#381A46"/>
<path d="M52.6031 73.2323C52.7567 75.2708 53.8876 77.0056 55.5002 78.0109C56.4008 78.5728 57.4514 78.9079 58.5684 78.9428C58.7883 78.9498 59.0082 78.9463 59.2316 78.9289C59.5806 78.9009 59.9192 78.8486 60.2473 78.7648C61.3573 78.4925 62.3451 77.9201 63.1235 77.1487C64.3592 75.92 65.0712 74.1748 64.9281 72.3004C64.785 70.426 63.8181 68.8063 62.4115 67.7766C61.5249 67.1309 60.4637 66.7155 59.3258 66.6143C58.9907 66.5829 58.6452 66.5794 58.2996 66.6073C58.0762 66.6248 57.8563 66.6527 57.6399 66.6911C56.5404 66.8935 55.5526 67.3822 54.7463 68.0733C53.3047 69.3055 52.4495 71.1904 52.6031 73.2323Z" fill="#22A7F0"/>
<path opacity="0.7" d="M54.8719 68.1396L64.1183 76.0805C64.7117 75.1031 65.0049 74.0001 65.0084 72.9041L57.8773 66.7817C56.7917 66.9493 55.7481 67.4065 54.8719 68.1396Z" fill="url(#paint0_linear_264_84946)"/>
<path opacity="0.7" d="M52.666 72.4085L60.2299 78.9044C61.2631 78.667 62.244 78.1574 63.0573 77.393L53.7341 69.3857C53.0988 70.3072 52.7462 71.3509 52.666 72.4085Z" fill="url(#paint1_linear_264_84946)"/>
<path d="M58.7604 79.414C58.928 79.414 59.099 79.407 59.27 79.393C61.0432 79.2569 62.6558 78.4436 63.8112 77.0963C64.97 75.7489 65.532 74.0316 65.3959 72.2584C65.2598 70.4887 64.4465 68.8726 63.0991 67.7172C61.7518 66.5584 60.0344 65.9929 58.2613 66.1325C56.4916 66.2687 54.8755 67.082 53.7201 68.4293C52.5612 69.7766 51.9993 71.494 52.1354 73.2672C52.3972 76.7542 55.3188 79.414 58.7604 79.414ZM58.7744 67.054C60.1357 67.054 61.4411 67.5357 62.4848 68.4328C63.6402 69.4276 64.3418 70.8098 64.4569 72.3317C64.5721 73.8536 64.0904 75.3266 63.0956 76.4854C62.1008 77.6408 60.7186 78.3424 59.1967 78.4576C59.0501 78.468 58.9035 78.475 58.7604 78.475C55.8074 78.475 53.2977 76.1922 53.0709 73.1974C52.9557 71.6755 53.4374 70.2025 54.4322 69.0436C55.427 67.8883 56.8092 67.1867 58.3311 67.0715C58.4812 67.0575 58.6278 67.054 58.7744 67.054Z" fill="#381A46"/>
<path d="M11.0763 81.9202C11.0763 81.9202 7.12856 78.8276 1.15976 86.8977C0.880519 87.2782 1.01664 87.8157 1.44249 88.0147C3.74274 89.0758 10.3224 91.6483 12.5074 87.5714L11.0763 81.9202Z" fill="#E81818"/>
<path d="M11.2998 82.7335C11.2998 82.7335 8.50042 80.538 4.26641 86.2834C4.08141 86.5347 4.17216 86.8942 4.4549 87.0234C6.04657 87.7634 10.7553 89.6308 12.3156 86.7267L11.2998 82.7335Z" fill="#E7A900"/>
<path d="M11.6767 83.3303C11.6767 83.3303 9.78833 81.8504 6.92959 85.7248C6.80393 85.8959 6.86676 86.1367 7.05874 86.224C8.13382 86.7231 11.3102 87.9832 12.3608 86.025L11.6767 83.3303Z" fill="#FFFD01"/>
<path d="M8.22467 90.273C10.1445 90.273 11.9211 89.6552 12.9229 87.7912C12.9788 87.6865 12.9927 87.5679 12.9648 87.4562L11.5302 81.805C11.5058 81.7038 11.4464 81.6165 11.3661 81.5502C11.3208 81.5153 10.2038 80.6601 8.29797 80.9184C5.86857 81.2465 3.33793 83.1663 0.78287 86.6184C0.562967 86.9151 0.489669 87.2851 0.583913 87.6412C0.674666 87.9937 0.918998 88.2869 1.2506 88.4405C2.81086 89.1595 5.64866 90.273 8.22467 90.273ZM12.0084 87.5015C9.89663 91.0374 3.55435 88.4684 1.63805 87.5853C1.53682 87.5364 1.50192 87.4527 1.48796 87.4073C1.47399 87.3584 1.46701 87.2677 1.53333 87.1734C4.52122 83.1349 6.92619 82.0458 8.42014 81.8469C9.59295 81.6898 10.3783 82.0493 10.6645 82.2134L12.0084 87.5015Z" fill="#381A46"/>
<path d="M15.9491 86.1577C14.8461 87.519 13.1986 87.9658 13.1986 87.9658C13.1986 87.9658 12.2003 86.9605 11.5301 84.4753C10.8599 81.99 11.2159 80.6218 11.2159 80.6218C11.2159 80.6218 12.86 80.1785 14.5005 80.7998" fill="#E2E8E8"/>
<path d="M13.1985 88.4335C13.2404 88.4335 13.2788 88.4266 13.3207 88.4161C13.394 88.3951 15.1253 87.9134 16.3121 86.4509C16.4761 86.2485 16.4447 85.9553 16.2423 85.7912C16.0398 85.6272 15.7466 85.6586 15.5826 85.861C14.8496 86.7651 13.8373 87.2328 13.3521 87.4143C13.0519 87.0129 12.4376 86.0425 11.9804 84.3496C11.5196 82.6393 11.5615 81.5048 11.6208 81.0127C12.1304 80.9289 13.2439 80.8207 14.333 81.2326C14.5738 81.3233 14.8461 81.2012 14.9368 80.9603C15.0276 80.7195 14.9054 80.4472 14.6646 80.3565C12.9018 79.6898 11.1636 80.147 11.0903 80.1645C10.9262 80.2099 10.8006 80.3355 10.7587 80.4996C10.7447 80.5589 10.3817 82.0214 11.0763 84.594C11.7709 87.17 12.8216 88.245 12.8635 88.2904C12.9542 88.3847 13.0764 88.4335 13.1985 88.4335Z" fill="#381A46"/>
<path d="M17.4675 87.8856C14.518 88.0147 13.7152 84.7162 13.5058 83.9447C13.2963 83.1733 12.3295 79.9202 14.9404 78.5414C17.5827 77.1522 29.8973 74.8205 31.0806 79.1942C32.2604 83.5643 20.4484 87.7564 17.4675 87.8856Z" fill="#E81818"/>
<g opacity="0.7">
<path d="M13.3243 83.2152C13.2964 82.025 13.628 80.6427 15.1045 79.8643C17.6805 78.51 29.4435 76.2621 31.1329 80.1959C31.1853 79.8643 31.1713 79.5292 31.0806 79.1942C29.8973 74.824 17.5827 77.1522 14.9404 78.5414C12.8531 79.6409 13.052 81.9412 13.3243 83.2152Z" fill="white"/>
</g>
<g opacity="0.3">
<path d="M17.1953 86.7791C14.8706 86.8803 13.8793 84.8523 13.4604 83.6097C13.9421 83.8924 14.5285 84.06 15.2371 84.0285C17.8096 83.9168 26.9548 80.7824 28.6582 77.1173C29.6983 77.4384 30.4942 77.9515 30.8921 78.7125C30.8781 82.8522 20.0331 86.6569 17.1953 86.7791Z" fill="#371A45"/>
</g>
<path d="M17.3034 88.3568C17.3662 88.3568 17.4256 88.3568 17.4884 88.3533C20.0853 88.2416 28.3474 85.3689 30.8396 81.9657C31.5552 80.9883 31.7891 80.011 31.5343 79.0685C31.2795 78.1261 30.5883 77.4035 29.4749 76.9184C25.6108 75.2324 17.0276 76.9149 14.7239 78.1261C13.4115 78.8172 12.0537 80.3984 13.038 84.0006L13.0729 84.1263C13.9944 87.5889 15.8444 88.3568 17.3034 88.3568ZM24.9826 77.1383C26.5777 77.1383 28.0437 77.3198 29.0979 77.7805C29.9461 78.1505 30.4487 78.6532 30.6267 79.3164C30.8047 79.9796 30.6267 80.6672 30.0787 81.4142C27.7819 84.5487 19.8445 87.3131 17.443 87.4179C15.7606 87.4947 14.6262 86.3358 13.9734 83.8855L13.9385 83.7563C13.2718 81.3095 13.6698 79.7422 15.1567 78.9568C16.6542 78.168 21.1884 77.1383 24.9826 77.1383Z" fill="#381A46"/>
<path d="M21.9319 87.156C22.0017 87.156 22.0715 87.1386 22.1344 87.0967C22.3089 86.985 22.3612 86.7546 22.2495 86.5801C20.4659 83.7946 19.5933 80.5764 19.7294 77.2709C19.7399 77.1033 19.6386 76.9462 19.4746 76.8904C19.2791 76.8241 19.0662 76.9323 18.9999 77.1277C18.9894 77.1627 18.9824 77.1976 18.9824 77.2325C18.8393 80.6951 19.7503 84.0669 21.6178 86.985C21.6876 87.0967 21.8097 87.156 21.9319 87.156Z" fill="#381A46"/>
<path fill-rule="evenodd" clip-rule="evenodd" d="M27.0944 37.2345C26.679 48.303 27.8553 55.0955 30.6163 57.6192C25.0175 61.5216 21.6073 62.0696 20.3856 59.2632C12.4621 45.3465 11.8757 38.2293 17.6421 35.4404C20.623 33.9988 23.2793 33.8522 27.0944 37.2345Z" fill="white"/>
<path d="M23.0663 61.5844C24.9756 61.5844 27.5656 60.4291 30.9374 58.0765C31.077 57.9787 31.1643 57.8216 31.1782 57.6506C31.1887 57.4796 31.1224 57.312 30.9967 57.1968C28.3754 54.8023 27.2514 48.0936 27.6563 37.2485C27.6633 37.081 27.5935 36.9169 27.4678 36.8052C23.3804 33.182 20.4868 33.4334 17.3977 34.9273C15.4674 35.8593 14.1968 37.2764 13.6174 39.1369C12.3329 43.2662 14.326 49.7411 19.8829 59.5076C20.3297 60.5198 21.0418 61.1691 21.9947 61.4378C22.3263 61.5391 22.6823 61.5844 23.0663 61.5844ZM29.7506 57.5319C25.5027 60.3977 23.3595 60.6629 22.3018 60.3662C21.6701 60.1882 21.2128 59.7519 20.9021 59.0398C20.8952 59.0224 20.8847 59.0049 20.8742 58.984C15.5442 49.6224 13.5197 43.2417 14.689 39.479C15.1777 37.9047 16.2248 36.7494 17.8863 35.9465C20.595 34.6376 22.993 34.4386 26.5219 37.4824C26.1484 48.0168 27.206 54.5929 29.7506 57.5319Z" fill="#381A46"/>
<path fill-rule="evenodd" clip-rule="evenodd" d="M62.4045 51.7936C56.5719 52.8372 51.5141 54.3347 47.2312 56.2894C48.6309 62.513 46.7844 67.4241 41.7022 71.0229C43.2799 71.9234 44.2049 73.6477 44.0758 75.4628C43.9501 77.2744 42.7948 78.8556 41.1088 79.5293C39.4194 80.2029 37.4961 79.8504 36.1558 78.6217C29.5761 72.0595 28.8013 68.6004 32.393 65.8778C36.4629 62.7922 36.25 59.9579 33.6182 59.4273C29.2306 58.094 27.1851 53.2456 27.4818 44.8858C24.7173 46.7707 23.3875 49.2874 23.4922 52.4393C26.1834 55.8391 25.8552 57.1515 22.5043 56.3731C20.609 62.1115 13.3836 60.4675 14.4273 53.291C15.9875 42.5716 21.0732 37.3184 27.8309 37.1997C38.2641 37.5801 45.1055 35.2171 48.3482 30.1069C55.8284 27.2377 61.8356 22.0264 67.1063 15.0139C67.6019 14.3577 68.7189 14.7207 69.2669 15.335C69.8149 15.9459 69.7276 16.7871 69.3507 17.5166C68.7887 18.6022 68.1325 19.8064 66.9841 20.9513C72.3002 24.0264 73.0681 26.5117 68.9597 27.9498C69.6125 30.6061 65.3645 34.5155 53.6608 37.2032C54.694 38.6657 55.8109 40.4668 56.8371 42.61C57.6853 44.3832 58.3066 46.0516 58.7674 47.5316C60.6872 48.6207 61.9019 50.0413 62.4045 51.7936Z" fill="white"/>
<path d="M39.3635 80.4228C40.0233 80.4228 40.683 80.3006 41.3147 80.0493C43.1926 79.3023 44.4946 77.5152 44.6342 75.5011C44.7564 73.7664 43.999 72.0804 42.6691 71.0054C47.3289 67.4136 49.0777 62.5792 47.8734 56.6174C52.0097 54.7814 56.9313 53.3433 62.5022 52.3485C62.6593 52.3206 62.7954 52.2263 62.8792 52.0937C62.963 51.9576 62.9874 51.7935 62.942 51.6399C62.408 49.783 61.1304 48.2576 59.1409 47.1022C58.2892 45.9678 57.5282 44.7427 56.8825 43.4546C56.7498 43.1929 56.5474 42.774 56.146 41.856C55.5456 40.4912 54.9627 39.0636 54.4112 37.608C62.0834 35.7755 67.2493 33.2309 68.9876 30.4106C69.4204 29.709 69.6194 28.9969 69.581 28.3197C71.1762 27.6775 72.0348 26.8223 72.1326 25.7682C72.2722 24.2777 70.876 22.6581 67.8706 20.8256C68.7572 19.8133 69.3332 18.7697 69.8463 17.7784C70.3873 16.7347 70.3245 15.6806 69.6822 14.9615C69.197 14.4205 68.4326 14.0784 67.7799 14.1063C67.3157 14.1273 66.9142 14.3297 66.6525 14.6788C61.1025 22.0612 55.0465 26.9375 48.1422 29.5833C48.0305 29.6252 47.9328 29.7055 47.8699 29.8067C44.7564 34.7109 38.0197 37.0111 27.8483 36.6377C27.8378 36.6377 27.8274 36.6377 27.8169 36.6377C24.2496 36.7005 21.1151 38.1735 18.752 40.8996C16.2877 43.7479 14.6437 47.8876 13.8688 53.2072C13.2649 57.3644 15.2405 59.7589 17.471 60.2825C19.307 60.7153 21.7155 59.8601 22.8638 57.0188C23.911 57.2178 25.1397 57.2806 25.6528 56.4743C26.1798 55.6401 25.6877 54.3311 24.0506 52.2333C24.0157 49.7097 24.9477 47.6677 26.8954 46.0272C26.8256 53.9297 29.0281 58.614 33.4541 59.9578C33.4715 59.9648 33.489 59.9683 33.5064 59.9718C34.0684 60.0835 34.77 60.3732 34.9376 61.0992C35.14 61.9823 34.4873 63.581 32.0544 65.424C30.5779 66.5445 29.8135 67.7766 29.7157 69.1938C29.5482 71.6511 31.4121 74.6809 35.7578 79.0126C35.7648 79.0196 35.7683 79.0231 35.7753 79.0301C36.7631 79.9411 38.0581 80.4228 39.3635 80.4228ZM61.6575 51.3572C56.0727 52.4009 51.1441 53.8843 46.9973 55.7797C46.7565 55.8914 46.6238 56.1567 46.6832 56.415C48.041 62.4501 46.3027 67.0785 41.3776 70.5655C41.2205 70.6772 41.1297 70.8587 41.1402 71.0507C41.1507 71.2427 41.2554 71.4172 41.423 71.5115C42.8052 72.3003 43.6255 73.8362 43.5138 75.4209C43.4021 77.0091 42.3794 78.4157 40.8994 79.0021C39.4264 79.5886 37.716 79.2779 36.5432 78.2098C32.5082 74.1852 30.6966 71.3439 30.8362 69.2706C30.9095 68.1815 31.5134 67.2461 32.7315 66.3211C35.1959 64.4536 36.4001 62.4571 36.0301 60.8479C35.7997 59.8461 34.9725 59.1306 33.7543 58.8758C29.6808 57.6192 27.7575 52.9175 28.0403 44.8997C28.0473 44.6868 27.9356 44.4913 27.7506 44.3866C27.5656 44.2854 27.3387 44.2959 27.1607 44.4145C24.2426 46.4041 22.815 49.1093 22.9232 52.4532C22.9267 52.5719 22.9686 52.6906 23.0453 52.7848C25.028 55.2875 24.7103 55.853 24.6964 55.8739C24.6929 55.8774 24.4381 56.2404 22.6265 55.8216C22.3438 55.7553 22.0575 55.9158 21.9668 56.1916C21.1221 58.7536 19.2267 59.5425 17.7258 59.1864C15.998 58.778 14.4761 56.8199 14.9787 53.3677C16.4273 43.4267 20.9859 37.8873 27.8204 37.7581C38.3094 38.1386 45.3323 35.7197 48.7181 30.5641C55.7585 27.8241 61.9193 22.8466 67.553 15.3524C67.5949 15.3001 67.6612 15.2373 67.8288 15.2303C68.1499 15.2128 68.5862 15.4223 68.8445 15.712C69.2878 16.2076 69.0365 16.8953 68.848 17.2618C68.2616 18.3927 67.6473 19.4957 66.5861 20.5533C66.464 20.6755 66.4011 20.85 66.4256 21.0245C66.4465 21.1991 66.5512 21.3527 66.7013 21.4399C70.5863 23.6878 71.0715 25.0526 71.0121 25.6635C70.9353 26.4942 69.752 27.0771 68.7712 27.4227C68.4989 27.5169 68.3419 27.8066 68.4117 28.0859C68.5408 28.6129 68.4117 29.1959 68.0277 29.8172C67.2703 31.0458 64.3417 34.1733 53.5316 36.6551C53.3745 36.69 53.2384 36.7947 53.1616 36.9378C53.0848 37.081 53.0743 37.2485 53.1302 37.4021C53.7585 39.088 54.4252 40.739 55.1163 42.3098C55.5282 43.2522 55.7411 43.685 55.8772 43.9608C56.5718 45.3465 57.3921 46.6624 58.3136 47.8737C58.359 47.933 58.4183 47.9853 58.4846 48.0237C60.0449 48.9034 61.106 50.0238 61.6575 51.3572Z" fill="#381A46"/>
<path d="M52.1982 37.8978C52.3239 37.8978 52.4495 37.8559 52.5543 37.7721C52.7951 37.5767 52.83 37.2206 52.6345 36.9798C50.7566 34.683 48.7461 32.9901 46.6623 31.9465C46.383 31.8068 46.0479 31.9185 45.9083 32.1978C45.7687 32.477 45.8804 32.8121 46.1596 32.9517C48.1004 33.9256 49.9852 35.5208 51.7654 37.6919C51.8736 37.828 52.0342 37.8978 52.1982 37.8978Z" fill="#381A46"/>
<path d="M21.8865 39.4824C21.9598 39.4824 22.0366 39.4685 22.1099 39.4336C22.3961 39.3079 22.5252 38.9763 22.3996 38.6936C21.7852 37.2834 20.9091 36.3619 19.7991 35.9535C18.5321 35.4858 16.9648 35.6987 15.1463 36.5853C14.867 36.7214 14.7518 37.0565 14.888 37.3357C15.0241 37.615 15.3592 37.7302 15.6384 37.594C17.1708 36.8471 18.4413 36.6481 19.4117 37.0076C20.225 37.3078 20.8847 38.0269 21.3699 39.1438C21.4641 39.3568 21.6701 39.4824 21.8865 39.4824Z" fill="#381A46"/>
<path d="M27.9042 59.9056C27.9635 59.9056 28.0264 59.8951 28.0892 59.8741C28.3824 59.7729 28.5395 59.4518 28.4383 59.1586C27.8902 57.5704 26.7837 55.7763 25.1502 53.8216C24.9512 53.5842 24.5952 53.5528 24.3578 53.7518C24.1205 53.9507 24.0891 54.3068 24.288 54.5441C25.8308 56.3941 26.871 58.0695 27.3771 59.5286C27.4539 59.759 27.6738 59.9056 27.9042 59.9056Z" fill="#381A46"/>
<path d="M56.3939 50.174L42.8646 55.134C41.2625 55.7204 39.4718 54.8932 38.8854 53.2875L36.2466 46.0901C35.7335 44.6869 36.3059 43.1406 37.5311 42.3831C37.7056 42.2749 37.8906 42.1842 38.0931 42.1109L51.6154 37.1473C53.2175 36.5574 55.0116 37.3882 55.5946 38.9938L57.6854 44.6938L58.2334 46.1913C58.8268 47.7969 57.9925 49.5841 56.3939 50.174Z" fill="white"/>
<path d="M56.3939 50.174L42.8646 55.134C41.2625 55.7204 39.4718 54.8932 38.8854 53.2875L36.2466 46.0901C35.7335 44.6869 36.3059 43.1406 37.5311 42.3831C37.7056 42.2749 37.8906 42.1842 38.0931 42.1109L51.6154 37.1473C53.2175 36.5574 55.0116 37.3882 55.5946 38.9938L57.6854 44.6938L58.2334 46.1913C58.8268 47.7969 57.9925 49.5841 56.3939 50.174Z" fill="white"/>
<path d="M51.5908 51.8773L51.5838 51.9401L42.868 55.1374C41.6952 55.5667 40.4211 55.2386 39.5904 54.3974C39.2867 54.0937 39.0459 53.7203 38.8888 53.2909L37.716 50.0936L37.3285 49.0395L36.6514 47.186L36.25 46.0935C35.6636 44.4913 36.4943 42.7007 38.093 42.1108L41.0145 41.0392C39.7614 41.7862 39.1715 43.3499 39.6881 44.7671L40.47 46.9033L41.1123 48.6555L42.327 51.968C42.9134 53.5667 44.7075 54.3974 46.3097 53.811L51.5908 51.8773Z" fill="white"/>
<path d="M46.362 46.4705C46.4597 46.7358 46.8577 49.0256 46.8577 49.0256C46.8577 49.0256 46.177 49.2699 45.3393 49.5736C44.2921 49.9506 43.053 49.1722 42.5713 47.8353C42.0896 46.4984 42.5469 45.1092 43.594 44.7322C44.2991 44.4774 45.1124 44.1842 45.1124 44.1842C45.1124 44.1842 46.2049 46.0342 46.362 46.4705Z" fill="#22A7F0"/>
<path d="M24.9757 47.7376C25.035 47.7376 25.0979 47.7271 25.1572 47.6992C25.3946 47.598 25.5062 47.3222 25.405 47.0849C24.1903 44.2226 21.7679 42.5576 18.2006 42.1423C17.9388 42.1109 17.7119 42.2959 17.6805 42.5542C17.6491 42.8125 17.8341 43.0428 18.0924 43.0742C21.3421 43.4547 23.4538 44.8858 24.5429 47.4548C24.6197 47.6294 24.7942 47.7376 24.9757 47.7376Z" fill="#381A46"/>
<path d="M58.7185 36.3654C58.9453 36.3654 59.1478 36.1979 59.1827 35.9675C59.2211 35.7127 59.0466 35.4719 58.7883 35.4335C55.1162 34.8785 53.5106 32.3583 53.8771 27.7264C53.898 27.4681 53.7061 27.2412 53.4478 27.2237C53.193 27.1993 52.9626 27.3948 52.9451 27.6531C52.5367 32.7981 54.4565 35.7301 58.6521 36.3619C58.6731 36.3654 58.6975 36.3654 58.7185 36.3654Z" fill="#381A46"/>
<path d="M61.4969 26.7141C62.1601 26.5221 62.8198 26.3162 63.4726 26.0788C64.1253 25.838 64.7745 25.5762 65.3924 25.2097C65.6995 25.0212 66.0102 24.8153 66.272 24.4872C66.3976 24.3231 66.5198 24.1172 66.5477 23.8554C66.5791 23.5971 66.4884 23.3318 66.3592 23.1398C66.0974 22.7628 65.7658 22.5534 65.4447 22.3649C65.1201 22.1799 64.7885 22.0333 64.4569 21.9007L64.4325 22.7349C64.963 22.6023 65.5041 22.4592 66.0451 22.2358C66.3173 22.1241 66.5896 21.9914 66.8514 21.8134C67.1132 21.6389 67.368 21.4155 67.5739 21.1363C67.7589 20.8884 67.7066 20.5359 67.4587 20.3509C67.2179 20.1729 66.8828 20.2148 66.6943 20.4381L66.6489 20.494C66.5233 20.6441 66.3627 20.7663 66.1847 20.8884C66.0032 21.0071 65.7938 21.1083 65.5739 21.1991C65.3505 21.2898 65.1131 21.3631 64.8723 21.4434C64.6279 21.5202 64.3801 21.5935 64.1253 21.6598C63.7658 21.7576 63.5528 22.1276 63.6506 22.4871C63.7099 22.7035 63.867 22.8641 64.059 22.9409L64.0904 22.9513C64.3906 23.0665 64.6873 23.1817 64.9456 23.3178C65.0782 23.3842 65.1934 23.4575 65.2981 23.5308C65.3924 23.6041 65.4761 23.6774 65.5145 23.7297C65.5494 23.7821 65.5424 23.7786 65.5459 23.7751C65.5494 23.7751 65.539 23.8309 65.4831 23.9077C65.3749 24.0648 65.148 24.2673 64.9002 24.4383C64.6489 24.6128 64.3731 24.7769 64.0799 24.927L63.1968 25.3877C62.6034 25.7053 62.0031 26.0404 61.4271 26.4837L61.3992 26.5047C61.3468 26.5431 61.3399 26.6164 61.3783 26.6687C61.4027 26.7141 61.455 26.7281 61.4969 26.7141Z" fill="#381A46"/>
<path d="M68.4606 28.3616C69.068 28.3616 69.6963 28.2289 70.342 27.9672C70.6282 27.8485 70.7678 27.5204 70.6492 27.2341C70.5305 26.9479 70.2024 26.8083 69.9162 26.927C68.1046 27.667 66.5024 27.0457 65.0224 25.0351C64.8374 24.7838 64.4849 24.7314 64.2371 24.9164C63.9858 25.1014 63.9334 25.454 64.1184 25.7018C65.4204 27.4715 66.8759 28.3616 68.4606 28.3616Z" fill="#381A46"/>
<path d="M27.6389 42.226C27.1293 43.7688 26.8466 45.4094 26.8989 47.0883C26.9094 47.3955 27.1677 47.6363 27.4749 47.6258C27.7646 47.6154 27.995 47.3885 28.0124 47.1058L28.0194 46.9801C28.0438 46.5996 28.0578 46.2192 28.0718 45.8422L28.1136 44.7043C28.1346 44.3238 28.1485 43.9433 28.1625 43.5559C28.166 43.165 28.1765 42.774 28.1346 42.3586L28.1276 42.2819C28.1136 42.1422 27.9915 42.0445 27.8519 42.055C27.7506 42.0654 27.6669 42.1352 27.6389 42.226Z" fill="#381A46"/>
<g opacity="0.3">
<path fill-rule="evenodd" clip-rule="evenodd" d="M26.3858 37.0182C25.6423 37.1159 25.0315 37.2102 24.6405 37.273C29.454 39.5732 35.0423 39.9642 40.1594 38.3551C45.2765 36.7459 49.5001 33.2763 51.8876 28.7142C49.9852 29.2343 49.0323 29.4961 49.0323 29.4961C45.4196 34.3828 42.0478 35.8698 39.6254 36.3131C36.5921 36.8681 33.51 36.0792 26.3858 37.0182Z" fill="#371A45"/>
</g>
<g opacity="0.3">
<path fill-rule="evenodd" clip-rule="evenodd" d="M27.4399 45.1511C28.1346 43.5943 28.3196 42.439 27.9915 41.6815C24.1554 44.4076 21.8307 48.317 21.9703 52.1775C21.8726 52.8791 22.6614 53.8669 23.7016 54.7849C24.8046 55.9194 24.4381 56.4499 22.5951 56.3731C18.7311 59.1586 15.8095 58.6385 13.8269 54.8164C15.9387 60.4396 18.6753 61.3541 22.0436 57.5599C22.5113 57.0468 23.4957 56.6873 24.9931 56.4813C25.9809 55.7832 25.5271 54.4359 23.6318 52.4393C23.6423 49.2315 24.9093 46.8056 27.4399 45.1511Z" fill="#371A45"/>
</g>
<g opacity="0.3">
<path fill-rule="evenodd" clip-rule="evenodd" d="M53.4723 37.2415C52.7602 37.1961 52.2506 36.8611 52.2506 36.8611C51.9504 36.6621 51.755 36.4247 51.6363 36.2607C60.209 34.107 65.0608 31.5345 66.1987 28.5431C65.2249 28.1697 64.5896 27.6182 64.2929 26.8921C64.1219 26.9933 63.5041 27.3389 62.6943 27.2063C62.045 27.1016 61.6227 26.749 61.4621 26.6024C62.1532 26.4733 63.1445 26.201 64.1952 25.5832C64.8549 25.1922 65.3715 24.7664 65.7589 24.3964C67.3646 26.1312 69.4275 26.5605 70.5375 25.7752C70.7294 25.639 71.2426 25.2237 71.4485 24.2009C71.7871 26.0439 70.9633 27.3005 68.9772 27.9707C68.9563 28.7037 68.8236 29.7578 68.2582 30.8329C67.4484 32.3757 66.4186 32.6759 60.572 35.395C60.5685 35.395 56.2158 37.416 53.4723 37.2415Z" fill="#371A45"/>
</g>
<g opacity="0.3">
<path fill-rule="evenodd" clip-rule="evenodd" d="M35.3041 62.6699C36.0546 60.9805 35.8486 59.8636 34.6828 59.326C31.6076 58.4883 29.6215 56.5755 28.7314 53.5911C31.6007 53.4515 34.4838 52.7778 37.381 51.5736C38.3094 50.7533 39.5486 51.3013 41.1088 53.2106C42.8855 54.8686 45.2067 55.1339 48.0759 54.0169C47.9956 54.0274 47.9189 54.0344 47.8421 54.0414C43.4475 51.8249 41.0076 48.0028 40.5294 42.5715C41.9605 41.6256 41.6045 41.8629 41.6045 41.8629C44.5226 51.7167 50.617 52.4741 59.2072 47.2593C58.2578 48.1179 57.3502 48.8928 56.4811 49.5875C58.6138 50.1948 59.64 51.1093 59.5493 52.331C54.3798 53.5283 50.6868 54.6731 48.4669 55.7692C48.3063 56.1566 48.0515 56.5685 47.699 57.0048C44.0269 58.1497 41.0844 57.0432 38.8749 53.6888C38.4142 53.0082 37.9988 52.7254 37.6218 52.8441C36.8434 53.2455 35.9149 53.5841 34.8329 53.8633C32.7316 54.4358 32.5396 55.6575 34.9865 56.8617C35.2099 56.9734 35.4542 57.0781 35.7195 57.1724C39.0006 58.3173 40.135 61.19 38.1908 63.2389C34.4873 67.1413 33.1121 69.3229 34.2535 71.2531C36.9377 76.5483 40.2292 78.1853 44.1316 76.1713C40.9762 81.0685 37.3042 80.5519 33.1155 74.6215C30.6198 71.8186 29.9636 69.2984 31.1469 67.061C32.1522 66.0278 33.5414 64.5688 35.3041 62.6699Z" fill="#371A45"/>
</g>
<g opacity="0.3">
<path fill-rule="evenodd" clip-rule="evenodd" d="M24.7522 53.2246C26.3055 54.0972 27.6109 54.2962 28.672 53.8215C29.0804 55.5842 29.8518 56.8478 30.9897 57.6122C29.227 58.8374 27.7331 59.7135 26.5079 60.2371C25.3456 58.4744 24.1797 57.4167 23.0139 57.0677C25.7749 57.0014 26.3543 55.7203 24.7522 53.2246Z" fill="#371A45"/>
</g>
<g opacity="0.3">
<path fill-rule="evenodd" clip-rule="evenodd" d="M26.6371 36.8924C25.2095 37.245 22.3019 38.177 19.7224 40.7565C18.2284 42.2504 17.3383 43.8002 16.8182 44.9241C17.4081 39.4964 16.4971 37.7092 14.0782 39.5697C14.3295 38.9693 15.3278 36.7982 17.8235 35.5172C20.1238 34.3374 22.2704 34.6445 22.9476 34.7667C23.5619 34.9831 24.2949 35.2973 25.0733 35.765C25.6981 36.142 26.2147 36.5329 26.6371 36.8924Z" fill="#381A46"/>
</g>
<path d="M43.1159 67.6649C44.0723 67.6649 45.0392 67.5183 45.9851 67.2182L45.6989 66.3246C41.8803 67.5463 37.6497 65.9127 35.6462 62.4431L34.8329 62.9108C36.5607 65.9022 39.779 67.6649 43.1159 67.6649Z" fill="#381A46"/>
<path d="M43.1682 69.1065C42.8715 69.302 42.5958 69.5149 42.3235 69.7278L41.9151 70.0524C41.7825 70.1641 41.6464 70.2758 41.5102 70.3806C41.245 70.6074 40.9692 70.8169 40.7109 71.0542C40.4526 71.2951 40.2048 71.5534 39.9884 71.8885L39.9465 71.9548C39.8906 72.0386 39.9151 72.1537 39.9988 72.2096C40.0547 72.2445 40.121 72.248 40.1734 72.2235C41.4998 71.6197 42.7459 70.8273 43.9187 69.9442C44.163 69.7592 44.2119 69.4102 44.0269 69.1659C43.8489 68.9285 43.5208 68.8761 43.2764 69.0367L43.1682 69.1065Z" fill="#381A46"/>
<g opacity="0.3">
<path fill-rule="evenodd" clip-rule="evenodd" d="M37.0563 48.9383C37.1262 46.5159 37.7824 44.3622 39.032 42.4773C37.4054 43.3674 36.4001 44.6729 36.0127 46.3902V46.3937C35.9638 46.6136 35.9219 46.8405 35.894 47.0744C35.716 47.7795 35.3983 48.2018 34.9376 48.3449L34.8119 48.3763H34.8084C33.2098 48.7777 31.8694 49.0151 30.7804 49.0919C29.639 48.9418 28.9583 48.488 28.7489 47.7341L28.6931 47.4513C28.3161 45.5036 28.1206 43.8421 28.1974 42.3517C25.4189 45.8841 23.9739 48.31 23.6772 49.8668C26.8745 51.3572 31.3354 51.0501 37.0563 48.9383Z" fill="#371A45"/>
</g>
<path d="M56.3939 50.174L42.8646 55.134C41.2625 55.7204 39.4718 54.8932 38.8854 53.2875L36.2466 46.0901C35.7335 44.6869 36.3059 43.1406 37.5311 42.3831C37.7056 42.2749 37.8906 42.1842 38.0931 42.1109L51.6154 37.1473C53.2175 36.5574 55.0116 37.3882 55.5946 38.9938L57.6854 44.6938L58.2334 46.1913C58.8268 47.7969 57.9925 49.5841 56.3939 50.174Z" fill="white"/>
<path d="M41.7546 55.9089C42.17 55.9089 42.5854 55.8356 42.9833 55.689L56.6591 50.6731C58.5161 49.9925 59.4725 47.9296 58.7919 46.0726L56.0972 38.725C55.7691 37.828 55.1093 37.1124 54.2367 36.7075C53.3641 36.3026 52.3902 36.2607 51.4967 36.5923L37.8208 41.6082C35.9638 42.2889 35.0074 44.3518 35.6881 46.2087L38.3828 53.5563C38.7109 54.4533 39.3706 55.1689 40.2432 55.5738C40.7284 55.7972 41.2415 55.9089 41.7546 55.9089ZM52.7253 37.4999C53.0779 37.4999 53.4304 37.5767 53.7655 37.7302C54.3659 38.006 54.8196 38.4982 55.043 39.1125L57.7377 46.46C58.2054 47.7341 57.5492 49.1512 56.2752 49.619L42.5993 54.6349C41.985 54.8617 41.3183 54.8303 40.7179 54.5546C40.1175 54.2788 39.6638 53.7867 39.4404 53.1723L36.7457 45.8248C36.278 44.5507 36.9342 43.1336 38.2082 42.6658L51.8841 37.65C52.1564 37.5487 52.4426 37.4999 52.7253 37.4999Z" fill="#371A45"/>
<g opacity="0.3">
<path d="M37.5484 42.3761C38.5048 42.603 39.1122 42.7531 39.1122 42.7531C41.8907 48.289 44.5923 50.5684 51.8107 48.0552C54.9278 46.9696 56.7079 45.7794 57.7097 44.6938L58.2577 46.1912C58.8476 47.7934 58.0134 49.584 56.4112 50.1704L42.882 55.1305H42.8785L42.861 55.1375C42.7668 55.1724 42.676 55.2003 42.5818 55.2247H42.5783C41.4858 55.5109 40.3478 55.1689 39.5834 54.3975C39.2797 54.0938 39.0389 53.7203 38.8818 53.291L37.709 50.0936L37.3216 49.0395L36.6444 47.186C36.6514 47.1825 36.6584 47.1791 36.6618 47.1756L36.2639 46.0865C35.7508 44.6798 36.3233 43.1335 37.5484 42.3761Z" fill="#371A45"/>
</g>
<path d="M41.8034 55.8879C42.2258 55.8879 42.6516 55.8146 43.06 55.6645L55.3048 51.1757L55.8284 50.9837L55.6434 50.4567C55.5072 50.0797 55.235 50.0552 54.9278 50.132L54.9243 50.1181L54.7219 50.1914C54.6625 50.2123 54.6032 50.2333 54.5473 50.2542L46.1177 53.2875C45.4825 53.5213 44.7913 53.4899 44.1735 53.2037C43.5557 52.9175 43.088 52.4113 42.8541 51.7761L40.2153 44.5751C39.7964 43.4302 40.2502 42.1457 41.3008 41.5209L40.8191 40.5087L37.8976 41.5803C36.983 41.9153 36.25 42.5925 35.8381 43.4826C35.4263 44.3727 35.3844 45.3675 35.7195 46.282L38.3583 53.4829C38.6934 54.3975 39.3706 55.1305 40.2606 55.5423C40.7528 55.7727 41.2764 55.8879 41.8034 55.8879ZM43.7093 54.2264L42.6726 54.6069C42.0408 54.8408 41.3497 54.8093 40.7319 54.5231C40.114 54.2369 39.6463 53.7308 39.4124 53.0955L36.7736 45.8945C36.5397 45.2593 36.5712 44.5716 36.8574 43.9538C37.1436 43.336 37.6497 42.8683 38.285 42.6344L39.2205 42.2923C38.8749 43.1196 38.8365 44.069 39.1611 44.9626L41.8 52.1635C42.135 53.078 42.8087 53.811 43.7023 54.2229C43.7023 54.2229 43.7058 54.2229 43.7093 54.2264Z" fill="#371A45"/>
<path d="M46.362 46.4705C46.4597 46.7358 46.8577 49.0256 46.8577 49.0256C46.8577 49.0256 46.177 49.2699 45.3393 49.5736C44.2921 49.9506 43.053 49.1722 42.5713 47.8353C42.0896 46.4984 42.5469 45.1092 43.594 44.7322C44.2991 44.4774 45.1124 44.1842 45.1124 44.1842C45.1124 44.1842 46.2049 46.0342 46.362 46.4705Z" fill="#1C7AEA"/>
<path d="M44.7983 50.0412C45.0252 50.0412 45.2485 50.0028 45.4685 49.926L46.5226 49.5456C46.9659 49.385 47.2242 48.9347 47.1439 48.474C46.8053 46.5891 46.739 46.4041 46.7181 46.3448C46.6273 46.0934 46.2817 45.4442 45.6884 44.4215C45.4545 44.0201 44.9693 43.8421 44.533 43.9991L43.4719 44.3831C42.8541 44.6065 42.3898 45.1126 42.1594 45.8107C41.9395 46.4774 41.964 47.2418 42.2258 47.9679C42.6725 49.221 43.7441 50.0412 44.7983 50.0412ZM46.0095 46.5961C46.0409 46.6903 46.1666 47.2732 46.4039 48.6066C46.4214 48.7078 46.3655 48.8056 46.2678 48.8405L45.2136 49.221C44.362 49.5281 43.3357 48.8475 42.9274 47.7096C42.7214 47.1406 42.7005 46.5507 42.868 46.0411C43.0251 45.5664 43.3288 45.2278 43.7232 45.0847L44.7843 44.7007C44.8786 44.6658 44.9868 44.7042 45.0391 44.795C45.5767 45.7269 45.9397 46.3971 46.0095 46.5961Z" fill="#371A45"/>
<path d="M44.0924 47.2918C43.6109 45.9552 44.0689 44.566 45.1153 44.189C46.1618 43.8121 47.4005 44.59 47.882 45.9267C48.3635 47.2634 47.9055 48.6525 46.859 49.0295C45.8125 49.4064 44.5739 48.6285 44.0924 47.2918Z" fill="#22A7F0"/>
<g opacity="0.7">
<path d="M44.0933 47.2872C44.1282 47.3884 44.17 47.4827 44.2119 47.5769C44.0304 46.4425 44.4947 45.3849 45.3882 45.0637C46.3586 44.7147 47.4895 45.357 48.0341 46.5123C48.0026 46.3168 47.9538 46.1179 47.8805 45.9224C47.3988 44.5855 46.1596 43.8072 45.1125 44.1841C44.0688 44.5611 43.6116 45.9503 44.0933 47.2872Z" fill="white"/>
</g>
<path d="M44.0933 47.2872C44.575 48.6241 45.8141 49.4025 46.8613 49.0255C47.9084 48.6485 48.3657 47.2593 47.884 45.9224C47.8072 45.713 47.713 45.514 47.6047 45.3325C47.6536 46.3343 47.1964 47.2174 46.3935 47.5071C45.5139 47.8248 44.4947 47.3256 43.9083 46.3587C43.9222 46.6624 43.9816 46.9766 44.0933 47.2872Z" fill="#1C7AEA"/>
<path d="M46.3167 49.4932C46.5436 49.4932 46.7669 49.4548 46.9868 49.378C48.226 48.9313 48.788 47.3256 48.2365 45.7968C47.685 44.2679 46.2294 43.3883 44.9903 43.8351C43.7511 44.2819 43.1892 45.8875 43.7407 47.4164C44.1944 48.673 45.2625 49.4932 46.3167 49.4932ZM47.5314 46.0481C47.9433 47.1895 47.5837 48.3658 46.7355 48.673C45.8873 48.9801 44.8576 48.2995 44.4492 47.1616C44.0374 46.0202 44.3969 44.8438 45.2451 44.5367C46.0933 44.2295 47.1195 44.9102 47.5314 46.0481Z" fill="#371A45"/>
<path d="M52.1669 52.1286C52.2157 52.1286 52.2681 52.1216 52.317 52.1042C52.5578 52.0204 52.6904 51.7586 52.6067 51.5143L51.3571 47.8422C51.1162 47.1372 51.2454 46.3623 51.7026 45.7724C52.3658 44.9137 52.5403 43.7967 52.1704 42.7775L50.3064 37.636C50.2192 37.3951 49.9539 37.2694 49.713 37.3567C49.4722 37.444 49.3465 37.7093 49.4338 37.9501L51.2977 43.0916C51.5595 43.8107 51.4339 44.5995 50.9661 45.2034C50.3204 46.0411 50.1354 47.1372 50.4774 48.1389L51.7271 51.811C51.7934 52.0064 51.9749 52.1286 52.1669 52.1286Z" fill="#371A45"/>
<path fill-rule="evenodd" clip-rule="evenodd" d="M23.4886 52.4357C23.4886 51.4025 23.5584 50.6242 23.698 50.1041C28.5429 51.1931 33.2446 50.7079 37.7998 48.6485C38.2675 48.3728 38.8574 48.3972 39.3007 48.7114C39.744 49.0255 39.9604 49.5735 39.8557 50.1076C39.7475 50.6416 39.3391 51.0605 38.8085 51.1826C33.3144 53.8599 28.3823 54.5056 24.0052 53.1129C23.6631 52.6626 23.4886 52.4357 23.4886 52.4357Z" fill="white"/>
<path d="M28.6756 54.3834C31.8869 54.3834 35.3425 53.4934 39.0041 51.7132C39.7162 51.5247 40.2642 50.9453 40.4108 50.2192C40.5609 49.4688 40.2537 48.6974 39.6289 48.2541C39.0146 47.8178 38.2013 47.7794 37.5485 48.1494C33.133 50.1355 28.5151 50.6102 23.8238 49.556C23.5306 49.4897 23.2374 49.6677 23.1571 49.9575C23.0035 50.5299 22.9267 51.3432 22.9267 52.4357C22.9267 52.5579 22.9686 52.6801 23.0419 52.7778L23.5585 53.455C23.6283 53.5457 23.7261 53.6155 23.8343 53.6504C25.3771 54.1391 26.9932 54.3834 28.6756 54.3834ZM38.5049 49.022C38.6725 49.022 38.8365 49.0709 38.9762 49.1721C39.238 49.3571 39.3671 49.6817 39.3043 49.9993C39.2414 50.3135 38.9971 50.5648 38.683 50.6346C38.6411 50.6451 38.5992 50.659 38.5608 50.6765C33.2971 53.242 28.5151 53.8983 24.3439 52.6277L24.0507 52.2437C24.0542 51.6573 24.0856 51.1652 24.138 50.7707C28.8886 51.7202 33.5589 51.1791 38.0302 49.1616C38.0477 49.1546 38.0686 49.1442 38.0861 49.1337C38.2187 49.0604 38.3618 49.022 38.5049 49.022Z" fill="#381A46"/>
<g opacity="0.3">
<path fill-rule="evenodd" clip-rule="evenodd" d="M37.0249 52.1425C29.5726 54.0553 25.1885 53.9681 23.8726 51.8842C29.234 53.1653 34.6653 52.3136 40.1628 49.3257C39.9394 50.5578 38.8923 51.4968 37.0249 52.1425Z" fill="#371A45"/>
</g>
<path d="M51.0429 24.4348C43.0391 48.0587 9.84074 38.1142 15.0556 14.6683C22.6789 -9.70947 56.9838 0.601537 51.0429 24.4348Z" fill="white"/>
<path d="M51.0429 24.4348C43.0391 48.0587 9.84074 38.1142 15.0556 14.6683C22.6789 -9.70947 56.9838 0.601537 51.0429 24.4348Z" fill="white"/>
<path d="M51.0429 24.4348C43.0391 48.0587 9.84074 38.1142 15.0556 14.6683C22.6789 -9.70947 56.9838 0.601537 51.0429 24.4348Z" fill="white"/>
<path d="M33.4367 38.383C36.2675 38.383 39.0355 37.7617 41.5382 36.533C46.1282 34.2816 49.5524 30.1454 51.4408 24.571L51.4513 24.5361C52.8649 18.864 52.1284 13.5444 49.3256 9.15683C46.8228 5.24047 42.8576 2.35729 38.1559 1.03788C33.4646 -0.278051 28.6128 0.13383 24.494 2.20022C19.8481 4.5284 16.4448 8.79731 14.6507 14.5392L14.6402 14.5741C13.3976 20.1625 14.2214 25.3843 17.0208 29.6776C19.527 33.5172 23.4468 36.3445 28.0648 37.6325C29.8484 38.1352 31.6565 38.383 33.4367 38.383ZM50.638 24.3162C46.6204 36.1456 36.5258 39.123 28.2986 36.8227C20.26 34.5748 12.8217 26.7177 15.4675 14.7801C19.2721 2.64003 29.7786 -0.431634 37.9325 1.85815C46.1666 4.16539 53.6503 12.1796 50.638 24.3162Z" fill="#371A45"/>
<g opacity="0.25">
<path d="M51.0429 24.4348C44.4842 44.959 15.9213 40.903 14.4866 20.2426C17.0801 26.4767 19.3804 26.2603 23.5096 28.8328C36.3373 37.437 51.1336 25.9427 50.4146 12.375C51.9853 16.2739 52.1564 20.5219 51.0429 24.4348Z" fill="#371A45"/>
</g>
<path d="M33.4367 38.554C36.2919 38.554 39.0879 37.9257 41.615 36.6865C46.2469 34.4142 49.7025 30.243 51.6049 24.6268L51.6188 24.5814C53.043 18.8639 52.303 13.499 49.4722 9.06952C46.9485 5.11824 42.9484 2.21064 38.2047 0.877259C33.4716 -0.44914 28.5779 -0.0337677 24.4207 2.05007C19.7329 4.3992 16.2982 8.70301 14.4901 14.4938L14.4762 14.5427C13.2231 20.1764 14.0538 25.4436 16.8811 29.7788C19.4083 33.6533 23.3665 36.505 28.0229 37.807C29.8205 38.3027 31.6391 38.554 33.4367 38.554ZM50.4739 24.2673C46.4912 35.9884 36.4909 38.9344 28.344 36.6551C20.3821 34.4282 13.0136 26.6478 15.6315 14.8184C19.4048 2.79356 29.81 -0.24669 37.8836 2.01866C46.041 4.30844 53.4548 12.2459 50.4739 24.2673Z" fill="#293856"/>
<path d="M33.4366 38.519C36.2884 38.519 39.0773 37.8907 41.601 36.6551C46.2259 34.3863 49.6746 30.2221 51.5734 24.6128L51.5874 24.5674C53.0115 18.8569 52.268 13.5025 49.4442 9.07997C46.924 5.13568 42.9309 2.23156 38.1942 0.901673C33.4681 -0.424726 28.5813 -0.00935361 24.4311 2.07449C19.7503 4.42012 16.3226 8.71695 14.518 14.4973L14.5041 14.5426C13.2544 20.1694 14.0817 25.4296 16.9055 29.7543C19.4292 33.6218 23.3804 36.4666 28.0298 37.7686C29.824 38.2712 31.6425 38.519 33.4366 38.519ZM50.5018 24.2777C46.5121 36.0198 36.4978 38.9728 28.3335 36.69C20.3577 34.4596 12.9752 26.6617 15.6001 14.8149C19.3803 2.76212 29.803 -0.281614 37.894 1.98723C46.0654 4.2805 53.4932 12.2319 50.5018 24.2777Z" fill="#371A45"/>
<path d="M49.1579 28.8259C33.9008 44.5367 12.6505 27.5309 23.0837 11.4431C35.8625 -5.86642 59.633 9.16377 49.1579 28.8259Z" fill="#371A45"/>
<path d="M50.5995 14.986C55.9016 34.0547 29.0316 43.1126 21.3245 26.4733C32.8851 34.3584 48.0095 25.6251 50.5995 14.986Z" fill="#21102B"/>
<path d="M35.4506 37.4649C38.2815 37.4649 41.0285 36.7529 43.423 35.3741C47.1788 33.2065 49.9712 29.4716 51.4896 24.5744V24.571C53.9434 16.4485 50.1039 5.34864 40.4735 1.77784L40.3967 1.75689C35.4506 0.828413 30.1171 2.13387 25.7609 5.33468C21.4222 8.52502 18.5984 13.1988 18.0155 18.1589C17.5722 22.9723 18.8497 27.3773 21.705 30.9063C24.2914 34.1071 27.9774 36.3166 32.0823 37.1333C33.2097 37.3533 34.3372 37.4649 35.4506 37.4649ZM50.596 24.2987C47.2381 35.1123 38.6235 37.4754 32.2673 36.2118C24.9651 34.7598 18.0434 28.1243 18.9474 18.2566C19.4989 13.5688 22.1867 9.12888 26.3194 6.09212C30.4522 3.05188 35.5065 1.80576 40.1873 2.67141C49.2975 6.07118 52.9242 16.5916 50.596 24.2987Z" fill="#371A45"/>
<path d="M35.7335 35.5346C36.1 35.5346 36.4665 35.5207 36.833 35.4962C41.3846 35.1891 45.7617 32.9935 49.4966 29.1505L49.542 29.1016L49.5734 29.0423C52.0866 24.3231 52.83 19.5201 51.727 15.15C50.7392 11.2406 48.3203 7.90365 44.9135 5.75348C41.5836 3.65568 37.6463 2.90522 33.8241 3.64521C29.5727 4.46897 25.7296 7.06592 22.7068 11.1568L22.6894 11.1812C20.26 14.9301 19.3559 18.9756 20.082 22.885C20.7382 26.4244 22.7103 29.6601 25.6389 31.9917C28.522 34.299 32.0719 35.5346 35.7335 35.5346ZM48.7775 28.5466C40.9274 36.5888 31.7996 35.7126 26.2253 31.2692C21.164 27.2342 18.3507 19.6213 23.4713 11.7118C29.8659 3.0588 38.5992 2.88427 44.4144 6.55281C50.1982 10.2004 54.0238 18.637 48.7775 28.5466Z" fill="#371A45"/>
<path d="M13.7326 28.5955C17.1813 36.6865 25.5795 33.9115 23.0663 25.8554C19.7608 17.2443 10.7831 20.2077 13.7326 28.5955Z" fill="white"/>
<g opacity="0.35">
<path d="M20.7311 33.2798C23.2548 32.4665 24.2949 28.8538 22.9127 25.4401C22.2774 29.5659 16.7798 24.4802 16.0468 22.8013C9.90701 26.1906 16.1271 34.8715 20.7311 33.2798Z" fill="#371A45"/>
</g>
<path d="M19.4816 33.9186C20.0086 33.9186 20.5148 33.8278 20.979 33.6568C23.2164 32.833 24.8709 30.0581 23.5131 25.7124L23.5027 25.6844C21.719 21.0351 18.2355 19.5411 15.7118 20.4696C13.436 21.3038 11.7082 24.2533 13.2894 28.7491L13.2999 28.777C14.8636 32.4456 17.3524 33.9186 19.4816 33.9186ZM22.623 26.0091C23.7854 29.7579 22.473 32.1105 20.6544 32.7772C18.7276 33.4858 15.8794 32.4246 14.169 28.4245C12.8077 24.5361 14.183 22.0334 16.0364 21.3492C18.1238 20.5848 21.0558 21.9391 22.623 26.0091Z" fill="#371A45"/>
<path d="M13.5232 29.1505C16.3226 35.7057 22.651 33.7335 20.6195 27.2167C17.9457 20.1449 11.0729 22.2986 13.5232 29.1505Z" fill="white"/>
<path d="M18.1168 33.6603C18.5077 33.6603 18.8777 33.5939 19.2198 33.4683C20.9336 32.8365 22.1693 30.6165 21.0663 27.0771L21.0558 27.0492C19.5793 23.1503 16.7974 21.8483 14.8147 22.5778C13.052 23.2271 11.7571 25.6076 13.08 29.3076L13.0904 29.3355C14.4099 32.4176 16.4309 33.6603 18.1168 33.6603ZM20.1762 27.3703C21.0907 30.3128 20.1902 32.1105 18.8952 32.5887C17.485 33.1088 15.3383 32.2012 13.9596 28.9795C12.8601 25.8904 13.799 23.9496 15.1394 23.4575C16.6927 22.8885 18.9161 24.0508 20.1762 27.3703Z" fill="#371A45"/>
<g opacity="0.5">
<path d="M23.904 22.4766C25.6598 25.468 29.0909 23.5273 28.0089 20.686C26.4416 17.178 22.3612 19.4015 23.904 22.4766Z" fill="white"/>
</g>
<g opacity="0.5">
<path d="M27.1887 27.0352C27.9252 28.1417 29.4436 27.3215 28.7524 26.0439C28.0159 24.9374 26.501 25.7577 27.1887 27.0352Z" fill="white"/>
</g>
<g opacity="0.5">
<path d="M48.4319 16.5916C47.3743 3.42539 33.8694 5.09735 30.5813 8.78335C39.1122 7.23355 44.1385 11.4745 48.4319 16.5916Z" fill="white"/>
</g>
<g opacity="0.25">
<path d="M21.3559 28.6758C21.2337 27.681 20.8393 26.7141 20.2704 25.8868C20.225 30.812 15.0625 29.9533 13.1427 26.9131C13.8513 34.0023 21.6003 35.4334 21.3559 28.6758Z" fill="#371A45"/>
</g>
<defs>
<linearGradient id="paint0_linear_264_84946" x1="58.4234" y1="69.2353" x2="62.999" y2="73.1376" gradientUnits="userSpaceOnUse">
<stop stop-color="white"/>
<stop offset="1" stop-color="white"/>
</linearGradient>
<linearGradient id="paint1_linear_264_84946" x1="55.3707" y1="72.7712" x2="59.9844" y2="76.7062" gradientUnits="userSpaceOnUse">
<stop stop-color="white"/>
<stop offset="1" stop-color="white"/>
</linearGradient>
</defs>
</svg>
