<svg width="82" height="173" viewBox="0 0 82 173" fill="none" xmlns="http://www.w3.org/2000/svg">
<mask id="mask0_431_7" style="mask-type:alpha" maskUnits="userSpaceOnUse" x="0" y="0" width="82" height="80">
<path d="M53.3847 8.17362L80.0959 58.9249C86.4453 70.9668 73.6151 84.0597 61.4418 77.973L47.2543 70.8793C43.3133 68.9088 38.6716 68.9088 34.7306 70.8793L20.5431 77.973C8.36975 84.0597 -4.41659 70.9668 1.88901 58.9249L28.6002 8.17362C33.8549 -1.81024 48.13 -1.81024 53.3847 8.17362Z" fill="#FEB232"/>
</mask>
<g mask="url(#mask0_431_7)">
<path d="M53.3847 8.17362L80.0959 58.9249C86.4453 70.9668 73.6151 84.0597 61.4418 77.973L47.2543 70.8793C43.3133 68.9088 38.6716 68.9088 34.7306 70.8793L20.5431 77.973C8.36975 84.0597 -4.41659 70.9668 1.88901 58.9249L28.6002 8.17362C33.8549 -1.81024 48.13 -1.81024 53.3847 8.17362Z" fill="url(#paint0_linear_431_7)"/>
<g opacity="0.5">
<path d="M51.8308 18.8559L75.9825 62.0079C81.7235 72.2467 70.1227 83.3791 59.1159 78.2038L46.2877 72.1722C42.7244 70.4968 38.5275 70.4968 34.9641 72.1722L22.136 78.2038C11.1291 83.3791 -0.432042 72.2467 5.26935 62.0079L29.4211 18.8559C34.1723 10.367 47.0796 10.367 51.8308 18.8559Z" fill="url(#paint1_linear_431_7)"/>
<path d="M75.5462 62.2521L75.5464 62.2524C78.2899 67.1455 76.9016 72.244 73.4834 75.5255C70.0612 78.8107 64.6288 80.2434 59.3286 77.7514L46.5005 71.7198C42.8023 69.981 38.4495 69.981 34.7514 71.7198L21.9232 77.7514C16.6231 80.2434 11.2007 78.8106 7.78358 75.5257C4.37002 72.2441 2.98125 67.1447 5.7062 62.2511L29.8574 19.1001C34.4177 10.9523 46.8342 10.9523 51.3944 19.1001L75.5462 62.2521Z" stroke="black" stroke-opacity="0.14" stroke-linecap="round" stroke-linejoin="round"/>
</g>
<g opacity="0.5">
<path d="M49.2636 22.6744L67.0545 61.4316C71.2836 70.6276 62.738 80.6263 54.63 75.9781L45.1804 70.5608C42.5555 69.056 39.4639 69.056 36.839 70.5608L27.3894 75.9781C19.2814 80.6263 10.765 70.6276 14.9649 61.4316L32.7559 22.6743C36.2557 15.05 45.7637 15.05 49.2636 22.6744Z" fill="url(#paint2_linear_431_7)"/>
<path d="M66.6001 61.6402L66.6003 61.6405C68.6284 66.0506 67.591 70.6425 65.0885 73.5716C62.593 76.4926 58.686 77.727 54.8787 75.5443L45.4291 70.127C42.6501 68.5339 39.3693 68.5339 36.5903 70.127L27.1407 75.5443C23.3335 77.7269 19.4339 76.4927 16.9421 73.5719C14.4429 70.6426 13.4053 66.05 15.4197 61.6393L33.2103 22.8829C34.8837 19.2374 37.9649 17.4561 41.0097 17.4561C44.0545 17.4561 47.1357 19.2374 48.8091 22.8829L66.6001 61.6402Z" stroke="black" stroke-opacity="0.14" stroke-linecap="round" stroke-linejoin="round"/>
</g>
</g>
<path d="M42.5617 100.686C42.6314 100.527 42.6314 100.349 42.6314 100.19C42.7011 99.8728 42.9103 99.5557 43.0497 99.2583C43.2589 98.743 44.0257 96.1067 44.1652 95.3138C44.3743 94.2831 44.7926 93.2722 45.1412 92.2414C45.2806 91.8053 46.0475 89.8033 46.0475 89.8232C46.4658 90.5566 46.0475 91.3098 46.1869 92.063C46.2566 91.9639 46.3263 91.8648 46.3263 91.7855C47.2326 89.7042 47.0932 87.5635 47.7904 85.4822C47.7904 85.4426 48.0692 86.4733 48.1389 86.9887C48.2784 86.5922 48.4875 86.176 48.4875 85.7597C48.5572 85.3633 48.9058 84.5506 48.9058 84.5902C48.8361 85.3434 48.7664 86.1165 48.7664 86.8697C49.0452 86.2156 49.3241 85.5813 49.5332 84.9272C49.9515 83.7181 50.579 82.5089 51.067 81.2998C51.4156 80.3087 51.7641 79.2582 51.2064 78.2869C50.7184 77.2958 49.2544 76.5029 47.0235 76.0668C41.2371 74.8974 32.8016 75.9876 31.0587 78.5247C30.501 79.3573 30.3615 81.161 30.6404 82.0134C30.9193 82.7468 31.965 84.4911 32.3833 85.2047C32.5227 85.502 32.6621 85.7795 32.8713 86.057C33.5684 86.9688 34.1262 87.9005 35.1022 88.7726C34.8233 87.8212 34.0565 85.8786 34.1262 85.9183C34.5445 86.3147 34.7536 86.731 34.9628 87.1472C35.1719 87.6229 35.5205 88.0788 35.869 88.5348C36.1479 88.9708 36.4268 89.3871 36.7056 89.8232C36.9148 90.2196 37.1239 90.616 37.4028 90.9927C37.4028 89.9619 37.0542 87.2067 37.0542 87.2463C37.1239 87.4644 37.1936 87.6824 37.2634 87.9005C37.5422 88.6537 37.7514 89.4069 38.0302 90.1601C38.3788 91.1116 38.9365 92.0432 39.3548 92.9947C39.9822 94.402 40.54 95.8292 41.2371 97.2365C41.028 95.8292 40.8188 92.955 40.8188 92.9947C41.3766 94.6993 42.1434 96.404 42.3526 98.1285C42.2829 98.9808 42.3526 99.8332 42.5617 100.686Z" fill="#ED1C24"/>
<path opacity="0.6" d="M48.4175 82.7958C48.4873 82.9893 48.4873 83.2043 48.557 83.3978C48.6267 83.8708 48.4175 84.3652 48.557 84.8382C48.7661 84.5372 49.045 84.2362 49.2541 83.9353C49.8118 82.2369 50.5787 80.56 50.0907 78.8402C49.8118 77.9587 49.1844 77.0773 47.7204 76.4754C46.2564 75.8949 44.5832 75.6799 42.7009 75.6154C39.0757 75.4649 35.5899 76.2604 33.4288 77.5503C32.383 78.1952 31.6162 79.1411 31.407 79.9366C31.2676 80.3665 31.1979 80.8395 31.2676 81.334C31.2676 81.8284 31.407 82.3229 31.6859 82.7528C31.7556 82.8388 32.0344 82.7314 32.0344 82.6884C32.2436 82.2799 32.3133 81.8499 32.5225 81.42C32.7316 81.076 33.0105 80.7105 33.2893 80.3665C33.1499 80.603 32.9407 80.8395 32.871 81.0975C32.7316 81.5059 32.6619 81.9359 32.6619 82.3444C32.5922 83.1398 32.6619 84.0427 33.2196 84.8167C33.2893 84.8812 33.5682 84.7737 33.5682 84.7307C33.847 84.4082 33.7076 83.9568 33.847 83.6128C33.9865 83.2473 34.1259 82.8173 34.4048 82.4304C34.2653 82.8818 34.1956 83.3118 34.1956 83.7633C34.1956 84.3867 34.4048 85.0102 34.6139 85.6336C34.8231 86.2786 35.1019 86.902 35.3808 87.5255C35.5202 87.8909 35.5899 88.4069 36.1476 88.6864C36.2174 88.7509 36.4265 88.6649 36.4962 88.6219C36.7751 88.2994 36.6357 87.8049 36.7054 87.461C36.7751 86.7945 37.0539 86.1496 37.4025 85.5046C37.4025 85.4401 37.4722 85.3971 37.4722 85.3326C37.4722 85.4186 37.4722 85.5046 37.542 85.5906C37.7511 86.4721 38.1694 87.332 38.518 88.1919C38.9363 89.1808 39.4243 90.1913 39.9123 91.1587C40.1911 91.6316 40.4003 92.1261 40.7489 92.5991C40.8883 92.857 41.0277 93.2225 41.3763 93.4375C41.5157 93.502 41.7249 93.3945 41.7249 93.3515C41.934 93.115 41.934 92.9 41.934 92.6636C41.934 92.2981 42.0734 91.9326 42.2129 91.5886C42.422 90.7717 42.7706 89.9763 42.91 89.1593C42.9797 88.8369 42.9797 88.5144 42.9797 88.2134C43.0495 88.4714 43.1192 88.7294 43.1192 88.9874C43.1889 89.3528 43.0495 89.8473 43.398 90.1698C43.4678 90.2128 43.5375 90.1913 43.6072 90.1698C44.0952 90.0193 44.0255 89.6108 44.0255 89.3958C44.0952 88.9874 44.2346 88.5574 44.4438 88.1489C44.4438 88.8799 44.5135 89.6323 44.6529 90.3632C44.7923 90.0623 45.0015 89.7613 45.2106 89.4603C45.2803 89.0303 45.3501 88.6004 45.4895 88.1919C45.6289 87.8049 45.7684 87.4395 45.9078 87.074C45.9078 87.3965 45.9078 87.6975 45.9078 88.0199C45.9078 88.3854 45.8381 88.7939 45.9775 89.1808C46.3958 88.4284 46.6747 87.6545 47.0929 86.902C47.3021 86.3001 47.6507 85.7196 47.9295 85.1177C48.2781 84.3652 48.4175 83.6773 48.4873 82.9248C48.4175 82.8818 48.4175 82.8388 48.4175 82.7958Z" fill="#F3E235"/>
<path d="M48.7664 80.0431C48.5572 79.1114 47.3721 78.4025 45.5595 77.8962C45.0715 77.7746 44.5835 77.6734 44.0258 77.6126C44.1652 77.6126 44.2349 77.6126 44.3743 77.6126L44.444 77.5721C43.8166 77.5518 43.3286 77.4506 42.7012 77.4708C41.8646 77.4911 40.9583 77.5316 40.1217 77.5924C39.564 77.6329 39.0063 77.6936 38.5182 77.7544C38.0302 77.8151 37.5422 77.8962 37.0542 78.0177C35.4508 78.5848 34.0565 79.2532 33.2896 80.0431C33.1502 80.3469 33.0107 80.6507 33.0107 80.9748C33.4987 80.4482 34.6142 79.9013 35.7296 79.5367C35.0325 79.9013 34.4748 80.3469 34.0565 80.7722C33.9868 80.8127 33.9868 80.8532 33.9868 80.8937C33.5685 81.5419 33.6382 82.2508 34.0565 82.9191C34.3353 82.4736 34.6142 82.0482 35.1022 81.6026C35.6599 81.0963 36.4268 80.4279 37.4028 80.0228C37.2634 80.1646 37.0542 80.2861 36.9148 80.4077C36.6359 80.6507 36.4268 80.914 36.2176 81.157C35.7296 81.7849 35.7296 82.4128 35.7296 83.0609C35.7296 83.1014 35.7296 83.1217 35.7296 83.1622C36.1479 84.1749 36.7056 85.1673 37.6817 86.1193C37.6817 86.099 37.7514 86.0788 37.7514 86.0788C37.8211 85.6534 37.7514 85.2686 37.9605 84.8635C38.1 84.5192 38.4485 84.1141 38.5182 83.7496C38.5182 83.6685 38.6577 83.5268 38.6577 83.4863C38.6577 83.6888 38.588 83.9318 38.5182 84.1344C38.4485 84.5597 38.5182 85.0053 38.588 85.4509C38.7274 86.2408 39.1457 87.0509 39.7034 87.8206C39.8428 88.0231 40.1914 88.9953 40.8188 89.0763C40.8886 89.0763 40.9583 89.0763 41.028 89.0561C41.516 88.8535 41.5857 88.3877 41.7251 88.1244C42.1434 87.4358 42.6314 86.7471 43.0497 86.0585C43.3286 85.6332 43.5377 85.2078 43.7469 84.7622C43.7469 84.7825 43.7469 84.823 43.7469 84.8433C43.7469 85.1268 43.8863 85.4306 43.956 85.7142C44.0258 86.018 44.0258 86.3421 44.2349 86.6459C44.2349 86.6864 44.3046 86.6864 44.3743 86.6864C44.6532 86.5041 44.8623 86.3218 45.0018 86.1193C45.1412 85.8357 45.2109 85.5522 45.3503 85.2889C45.6989 84.6407 46.0475 83.9926 46.2566 83.3242C46.4658 82.7976 46.4658 82.2913 46.4658 81.7647C46.8144 82.2103 47.0932 82.6356 47.5115 83.0609C47.7207 82.8989 47.9298 82.7166 48.139 82.5546C48.2784 82.3318 48.4178 82.0887 48.5572 81.8659C48.8361 81.2786 48.9058 80.6507 48.7664 80.0431Z" fill="#EAC076"/>
<path d="M46.0581 80.4322C45.9212 79.7963 45.1454 79.3125 43.9588 78.9669C43.6393 78.8839 43.3199 78.8148 42.9548 78.7733C43.0461 78.7733 43.0917 78.7733 43.183 78.7733L43.2286 78.7457C42.8179 78.7319 42.4984 78.6627 42.0877 78.6766C41.54 78.6904 40.9468 78.718 40.3991 78.7595C40.034 78.7872 39.6689 78.8286 39.3495 78.8701C39.03 78.9116 38.7105 78.9669 38.3911 79.0498C37.3414 79.4369 36.4287 79.8931 35.9267 80.4322C35.8354 80.6395 35.7441 80.8469 35.7441 81.0681C36.0636 80.7087 36.7938 80.3354 37.524 80.0866C37.0676 80.3354 36.7025 80.6395 36.4287 80.9298C36.3831 80.9575 36.3831 80.9851 36.3831 81.0128C36.1092 81.4551 36.1549 81.939 36.4287 82.3952C36.6112 82.091 36.7938 81.8007 37.1132 81.4966C37.4783 81.151 37.9804 80.6948 38.6193 80.4184C38.528 80.5151 38.3911 80.5981 38.2998 80.681C38.1173 80.8469 37.9804 81.0266 37.8434 81.1925C37.524 81.621 37.524 82.0496 37.524 82.4919C37.524 82.5196 37.524 82.5334 37.524 82.561C37.7978 83.2522 38.1629 83.9296 38.8018 84.5793C38.8018 84.5655 38.8475 84.5517 38.8475 84.5517C38.8931 84.2614 38.8475 83.9987 38.9844 83.7222C39.0756 83.4872 39.3038 83.2108 39.3495 82.9619C39.3495 82.9066 39.4407 82.8099 39.4407 82.7822C39.4407 82.9205 39.3951 83.0864 39.3495 83.2246C39.3038 83.5149 39.3495 83.819 39.3951 84.1231C39.4864 84.6623 39.7602 85.2152 40.1253 85.7405C40.2166 85.8788 40.4447 86.5423 40.8555 86.5976C40.9011 86.5976 40.9467 86.5976 40.9924 86.5838C41.3118 86.4455 41.3575 86.1276 41.4488 85.9479C41.7226 85.4779 42.042 85.0079 42.3159 84.5378C42.4984 84.2475 42.6353 83.9572 42.7722 83.6531C42.7722 83.6669 42.7722 83.6946 42.7722 83.7084C42.7722 83.902 42.8635 84.1093 42.9091 84.3028C42.9548 84.5102 42.9548 84.7314 43.0917 84.9387C43.0917 84.9664 43.1373 84.9664 43.183 84.9664C43.3655 84.842 43.5024 84.7176 43.5937 84.5793C43.685 84.3858 43.7306 84.1923 43.8219 84.0125C44.0501 83.5702 44.2782 83.1278 44.4152 82.6716C44.5521 82.3122 44.5521 81.9666 44.5521 81.6072C44.7803 81.9113 44.9628 82.2016 45.2366 82.4919C45.3735 82.3813 45.5104 82.2569 45.6474 82.1463C45.7386 81.9943 45.8299 81.8284 45.9212 81.6763C46.1037 81.2754 46.1494 80.8469 46.0581 80.4322Z" fill="black"/>
<g clip-path="url(#clip0_431_7)">
<path d="M61.5179 69.6668V78.9961L52.1162 71.9358C53.4924 68.2713 54.3495 64.4325 54.6628 60.5306L61.5179 69.6668Z" fill="#D65769"/>
<path d="M29.8851 71.9358L20.4834 78.9961V69.6668L27.3386 60.5306C27.6549 64.432 28.512 68.2704 29.8851 71.9358Z" fill="#D65769"/>
<path d="M29.4623 70.741L28.4968 71.4651C27.8653 71.9415 27.1134 72.2322 26.3257 72.3043C25.538 72.3765 24.7458 72.2273 24.0383 71.8735C23.3308 71.5198 22.7361 70.9755 22.3212 70.3021C21.9063 69.6286 21.6877 68.8527 21.6899 68.0617C21.6899 67.941 21.014 68.9668 27.3382 60.5306C27.6174 64.0094 28.331 67.4395 29.4623 70.741Z" fill="#F27683"/>
<path d="M52.5381 70.741L53.5036 71.4651C54.1351 71.9415 54.887 72.2322 55.6747 72.3043C56.4624 72.3765 57.2546 72.2273 57.9621 71.8735C58.6696 71.5198 59.2643 70.9755 59.6792 70.3021C60.0941 69.6286 60.3127 68.8527 60.3105 68.0617C60.3105 67.941 60.9864 68.9668 54.6622 60.5306C54.383 64.0094 53.6694 67.4395 52.5381 70.741Z" fill="#F27683"/>
<path d="M51.3196 40.3755H30.6816C33.0617 34.8743 36.5783 29.9387 41.0006 25.8927C45.4232 29.9385 48.9398 34.8741 51.3196 40.3755Z" fill="#D65769"/>
<path d="M50.1844 37.9617H46.7448C45.4198 37.9613 44.1233 37.5769 43.0121 36.8551C41.901 36.1332 41.0229 35.1048 40.4841 33.8943C39.9452 32.6838 39.7687 31.3431 39.976 30.0344C40.1832 28.7257 40.7652 27.5051 41.6517 26.5203C45.1354 29.8126 48.0224 33.6837 50.1844 37.9617Z" fill="#F27683"/>
<path d="M50.6561 75.3755H31.3457C28.7398 69.928 27.3321 63.9851 27.2176 57.9475C27.103 51.9098 28.2844 45.9178 30.6819 40.3755H51.3199C53.7174 45.9178 54.8987 51.9098 54.7842 57.9475C54.6697 63.9851 53.262 69.928 50.6561 75.3755Z" fill="#DAD7E5"/>
<path d="M51.7178 72.9617C51.5971 73.0461 38.4419 72.9617 38.5385 72.9617C37.4491 72.9694 36.3833 72.6441 35.4839 72.0293C34.5844 71.4146 33.8943 70.5398 33.5057 69.522C29.9865 60.1348 29.9308 49.8001 33.3488 40.3755H51.3195C53.545 45.5089 54.7263 51.0339 54.7947 56.6285C54.8631 62.2231 53.8171 67.7754 51.7178 72.9617Z" fill="url(#paint3_linear_431_7)"/>
<path d="M39.7939 75.3755V70.5479C39.7939 70.2278 39.9211 69.9208 40.1474 69.6945C40.3738 69.4681 40.6808 69.341 41.0008 69.341C41.3209 69.341 41.6279 69.4681 41.8542 69.6945C42.0806 69.9208 42.2077 70.2278 42.2077 70.5479V75.3755C42.2077 75.6955 42.0806 76.0025 41.8542 76.2289C41.6279 76.4552 41.3209 76.5823 41.0008 76.5823C40.6808 76.5823 40.3738 76.4552 40.1474 76.2289C39.9211 76.0025 39.7939 75.6955 39.7939 75.3755Z" fill="#425B72"/>
<path d="M47.0348 56.0651C47.0352 57.1309 46.7533 58.1778 46.2177 59.0993C45.6822 60.0209 44.9122 60.7841 43.9859 61.3114C43.0597 61.8387 42.0104 62.1114 40.9446 62.1015C39.8788 62.0917 38.8347 61.7997 37.9183 61.2554C37.002 60.711 36.2462 59.9337 35.7278 59.0025C35.2094 58.0712 34.9468 57.0193 34.9669 55.9537C34.987 54.8881 35.2889 53.8468 35.842 52.9357C36.3951 52.0246 37.1796 51.2763 38.1158 50.7668C39.0347 50.2668 40.0679 50.0142 41.1139 50.0339C42.1599 50.0536 43.1828 50.3449 44.0823 50.8792C44.9817 51.4135 45.7268 52.1725 46.2444 53.0816C46.762 53.9908 47.0344 55.0189 47.0348 56.0651Z" fill="url(#paint4_radial_431_7)"/>
<path opacity="0.4" d="M46.299 58.9496C45.1553 59.5707 43.8415 59.8053 42.5535 59.6186C41.2656 59.4319 40.0725 58.8338 39.1522 57.9136C38.232 56.9933 37.6339 55.8003 37.4472 54.5123C37.2605 53.2243 37.4952 51.9105 38.1162 50.7668C39.2599 50.1458 40.5737 49.9111 41.8617 50.0978C43.1496 50.2845 44.3427 50.8826 45.263 51.8029C46.1832 52.7231 46.7813 53.9162 46.968 55.2041C47.1547 56.4921 46.92 57.8059 46.299 58.9496Z" fill="#8BBDEB"/>
<path d="M48.2415 75.3755C47.0346 79.5392 47.2519 78.6703 46.4312 81.4099H35.5691L33.7588 75.3755H48.2415Z" fill="#008ED0"/>
<path d="M48.2414 75.3755L47.1552 78.9961H42.9672C41.8808 78.9897 40.8251 78.6343 39.956 77.9824C39.0868 77.3305 38.4501 76.4166 38.1396 75.3755H48.2414Z" fill="#07618B"/>
<path d="M41.0002 48.8237C39.568 48.8237 38.1679 49.2484 36.9771 50.0441C35.7862 50.8398 34.8581 51.9708 34.31 53.294C33.7619 54.6171 33.6185 56.0731 33.8979 57.4778C34.1773 58.8825 34.867 60.1728 35.8797 61.1855C36.8925 62.1983 38.1828 62.8879 39.5874 63.1674C40.9921 63.4468 42.4481 63.3034 43.7713 62.7553C45.0945 62.2072 46.2255 61.279 47.0212 60.0882C47.8168 58.8974 48.2415 57.4973 48.2415 56.0651C48.2415 54.1446 47.4786 52.3027 46.1206 50.9447C44.7626 49.5867 42.9207 48.8237 41.0002 48.8237ZM41.0002 60.8927C40.0454 60.8927 39.112 60.6096 38.3181 60.0791C37.5242 59.5486 36.9055 58.7947 36.5401 57.9125C36.1747 57.0304 36.0791 56.0598 36.2653 55.1233C36.4516 54.1868 36.9114 53.3266 37.5866 52.6515C38.2617 51.9763 39.1219 51.5166 40.0584 51.3303C40.9948 51.144 41.9655 51.2396 42.8476 51.605C43.7297 51.9704 44.4837 52.5892 45.0142 53.3831C45.5446 54.1769 45.8278 55.1103 45.8278 56.0651C45.8278 57.3455 45.3191 58.5734 44.4138 59.4787C43.5084 60.3841 42.2805 60.8927 41.0002 60.8927Z" fill="black"/>
<path d="M62.4831 68.9427L55.8935 60.1565C56.7625 47.4479 52.3814 35.1375 41.8332 25.0237C41.6087 24.8098 41.3105 24.6904 41.0004 24.6904C40.6903 24.6904 40.3921 24.8098 40.1676 25.0237C29.6314 35.1134 25.2383 47.4479 26.1073 60.1565C18.9866 69.6548 19.2763 69.0875 19.2763 69.6668C19.2763 79.5875 19.0349 79.6237 19.9401 80.0703C20.8452 80.5168 20.4832 80.5048 29.3539 73.8427C30.5608 76.872 30.3314 76.5824 32.8659 76.5824C34.459 81.9048 34.3866 82.6168 35.5694 82.6168H46.4314C47.6383 82.6168 47.5659 81.8323 49.1349 76.5824C51.6573 76.5824 51.3918 76.8961 52.6469 73.8427C61.5176 80.4565 60.9504 80.203 61.5176 80.203C61.8377 80.203 62.1447 80.0759 62.371 79.8495C62.5974 79.6232 62.7245 79.3162 62.7245 78.9961C62.7245 68.9306 62.8211 69.4013 62.4831 68.9427ZM41.0004 27.5582C44.4756 30.9029 47.3353 34.8329 49.4487 39.1686H32.5521C34.6655 34.8329 37.5252 30.9029 41.0004 27.5582ZM21.6901 70.0651L26.5176 63.6686C26.9263 66.3315 27.585 68.9499 28.4849 71.4892L21.6901 76.5824V70.0651ZM45.5383 80.203H36.4625L35.3763 76.5824H46.6245L45.5383 80.203ZM49.8832 74.1686H42.2073V70.5479C42.2073 70.2278 42.0801 69.9208 41.8538 69.6945C41.6275 69.4681 41.3205 69.341 41.0004 69.341C40.6803 69.341 40.3733 69.4681 40.147 69.6945C39.9207 69.9208 39.7935 70.2278 39.7935 70.5479V74.1686H32.1176C29.7909 69.0687 28.5338 63.5462 28.4238 57.9417C28.3138 52.3372 29.3532 46.7696 31.478 41.5824H50.5228C52.6476 46.7696 53.687 52.3372 53.577 57.9417C53.467 63.5462 52.2099 69.0687 49.8832 74.1686ZM60.3107 76.5824L53.54 71.4892C54.4317 68.9491 55.0823 66.3307 55.4832 63.6686L60.3107 70.0651V76.5824Z" fill="black"/>
<path opacity="0.75" d="M37.9496 56.7582C37.7347 56.6866 37.4483 56.6866 37.2334 56.615C37.3766 57.7609 38.0212 58.7635 38.8806 59.3365C38.3077 58.6203 37.9496 57.7609 37.9496 56.7582Z" fill="url(#paint5_radial_431_7)"/>
<path opacity="0.75" d="M41.1002 52.1037C39.0232 52.1037 37.3044 53.6793 37.1611 55.7563C37.4476 55.8279 37.7341 55.8279 38.0206 55.8995C38.3787 54.1091 39.9543 52.8199 41.888 52.8199C42.6758 52.8199 43.4637 53.1064 44.1082 53.5361C43.392 52.6767 42.3177 52.1037 41.1002 52.1037Z" fill="url(#paint6_radial_431_7)"/>
</g>
<line x1="42.2" y1="115.089" x2="42.2" y2="171.497" stroke="url(#paint7_linear_431_7)" stroke-width="2.4" stroke-linecap="round"/>
<defs>
<linearGradient id="paint0_linear_431_7" x1="41.0005" y1="0.685727" x2="41.0005" y2="79.5148" gradientUnits="userSpaceOnUse">
<stop stop-color="#FEB232"/>
<stop offset="0.49" stop-color="#F88A26"/>
<stop offset="1" stop-color="#E63E18"/>
</linearGradient>
<linearGradient id="paint1_linear_431_7" x1="40.6332" y1="12.4892" x2="40.6332" y2="79.5148" gradientUnits="userSpaceOnUse">
<stop stop-color="#D25507"/>
</linearGradient>
<linearGradient id="paint2_linear_431_7" x1="41.015" y1="16.9561" x2="41.015" y2="77.1555" gradientUnits="userSpaceOnUse">
<stop stop-color="#984009"/>
</linearGradient>
<linearGradient id="paint3_linear_431_7" x1="63.7848" y1="62.3416" x2="27.9003" y2="24.943" gradientUnits="userSpaceOnUse">
<stop stop-color="#F9FBFC"/>
<stop offset="0.1256" stop-color="#EFEDEC"/>
<stop offset="0.3697" stop-color="#D6C7C3"/>
<stop offset="0.7047" stop-color="#AD8B82"/>
<stop offset="1" stop-color="#865143"/>
</linearGradient>
<radialGradient id="paint4_radial_431_7" cx="0" cy="0" r="1" gradientUnits="userSpaceOnUse" gradientTransform="translate(37.2394 52.9834) scale(10.1945)">
<stop offset="0.1486" stop-color="#21687E"/>
<stop offset="0.491" stop-color="#023F5F"/>
<stop offset="0.9801"/>
</radialGradient>
<radialGradient id="paint5_radial_431_7" cx="0" cy="0" r="1" gradientUnits="userSpaceOnUse" gradientTransform="translate(36.1739 53.8114) scale(6.99815 6.99816)">
<stop offset="0.2851" stop-color="white"/>
<stop offset="0.6912" stop-color="#6C6C6C"/>
<stop offset="1"/>
</radialGradient>
<radialGradient id="paint6_radial_431_7" cx="0" cy="0" r="1" gradientUnits="userSpaceOnUse" gradientTransform="translate(36.1744 53.8119) scale(7.00024 7.00023)">
<stop offset="0.2851" stop-color="white"/>
<stop offset="0.6912" stop-color="#6C6C6C"/>
<stop offset="1"/>
</radialGradient>
<linearGradient id="paint7_linear_431_7" x1="40.5" y1="113.889" x2="40.5" y2="172.697" gradientUnits="userSpaceOnUse">
<stop stop-color="#EE3A26"/>
<stop offset="1" stop-color="#EAC076"/>
</linearGradient>
<clipPath id="clip0_431_7">
<rect width="57.931" height="57.931" fill="white" transform="translate(12.0352 24.6858)"/>
</clipPath>
</defs>
</svg>
