<svg width="94" height="101" viewBox="0 0 94 101" fill="none" xmlns="http://www.w3.org/2000/svg">
<path d="M70.6815 58.8393C70.6815 60.986 61.2194 62.7537 49.1213 62.9501C48.3701 62.9639 47.6086 62.9707 46.8367 62.9707C36.9095 62.9707 28.3984 61.9198 24.8113 60.4243C24.5357 60.3106 24.291 60.1934 24.0739 60.0728C23.371 59.6835 22.9919 59.27 22.9919 58.8393C22.9919 58.7462 23.0092 58.6566 23.0436 58.5636C23.0815 58.4878 23.1229 58.412 23.1677 58.3362L23.1711 58.3327C23.2883 58.1673 23.4571 58.0088 23.6811 57.8503C23.8982 57.6987 24.1704 57.5471 24.484 57.3989C27.8608 55.8276 36.5924 54.7078 46.8333 54.7078H46.9642C56.6744 54.7181 65.0098 55.7312 68.6796 57.1818C69.3584 57.4506 69.8787 57.7332 70.2198 58.0295C70.368 58.157 70.4817 58.2914 70.5575 58.4223C70.5575 58.4223 70.5609 58.4258 70.5609 58.4292C70.6436 58.5636 70.6815 58.7014 70.6815 58.8393Z" fill="#5B5B5B"/>
<path d="M70.6815 58.8392C70.6815 59.8006 68.7829 60.6862 65.6025 61.3891C61.6812 62.254 55.8027 62.8432 49.1213 62.9535C48.3701 62.9673 47.6086 62.9742 46.8367 62.9742C39.2216 62.9742 32.4368 62.3574 28.071 61.3926C26.7478 61.0997 25.6452 60.7758 24.8113 60.4277C24.5357 60.314 24.291 60.1969 24.0739 60.0763C23.371 59.6869 22.9919 59.2734 22.9919 58.8427C22.9919 58.7496 23.0092 58.66 23.0436 58.567C23.0815 58.4912 23.1229 58.4154 23.1677 58.3396L23.1711 58.3361C23.2883 58.1707 23.4571 58.0122 23.6811 57.8537C23.8982 57.7021 24.1704 57.5505 24.484 57.4023C27.8608 55.8311 36.5924 54.7112 46.8333 54.7112H46.9642C56.6744 54.7215 65.0098 55.7346 68.6796 57.1853C69.3584 57.454 69.8787 57.7366 70.2198 58.0329C70.368 58.1604 70.4817 58.2948 70.5575 58.4257C70.5575 58.4257 70.5609 58.4292 70.5609 58.4326C70.6436 58.5636 70.6815 58.7014 70.6815 58.8392Z" fill="#FFCB4A"/>
<g opacity="0.7">
<path d="M70.3783 58.1776C70.3542 58.1673 70.3266 58.157 70.3025 58.1466C66.6328 56.6994 58.2974 55.6829 48.5872 55.676H48.4563C38.2154 55.676 29.4838 56.7959 26.1069 58.3672C25.7899 58.5119 25.5211 58.6635 25.3006 58.8186C25.0766 58.9771 24.9078 59.1356 24.7906 59.301C24.7906 59.301 24.7906 59.3044 24.7872 59.3044C24.7424 59.3802 24.7011 59.456 24.6631 59.5353C24.6287 59.6249 24.6115 59.7179 24.6115 59.8075C24.6115 60.0349 24.7148 60.2554 24.9147 60.4725C24.8802 60.4587 24.8423 60.445 24.8079 60.4312C24.5322 60.3175 24.2876 60.2003 24.0739 60.0797C23.371 59.6903 22.9919 59.2768 22.9919 58.8461C22.9919 58.7531 23.0092 58.6635 23.0436 58.5705C23.0815 58.4946 23.1229 58.4188 23.1677 58.3396L23.1711 58.3361C23.2883 58.1707 23.4571 58.0122 23.6811 57.8537C23.8982 57.6987 24.167 57.5471 24.484 57.4023C27.8608 55.8276 36.5924 54.7112 46.8333 54.7112H46.9642C56.6744 54.7215 65.0063 55.7346 68.6795 57.1853C69.3618 57.454 69.8787 57.7366 70.2198 58.0329C70.2818 58.0777 70.3301 58.1294 70.3783 58.1776Z" fill="white"/>
</g>
<path d="M65.606 61.7991C61.6847 62.664 55.8062 63.2532 49.1249 63.3635C48.3737 63.3773 47.6122 63.3842 46.8403 63.3842C39.2251 63.3842 32.4404 62.7674 28.0746 61.8026C32.4404 60.8377 39.2217 60.2209 46.8403 60.2209H46.9712C54.5347 60.2244 61.2643 60.8412 65.606 61.7991Z" fill="#3A3A3A"/>
<path d="M46.8368 63.9838C39.418 63.9838 32.5299 63.4014 27.9401 62.3849C27.6644 62.3229 27.468 62.0783 27.468 61.7957C27.468 61.5132 27.6644 61.2685 27.9401 61.2099C32.5368 60.1934 39.4249 59.6111 46.8368 59.6111H46.9677C54.3348 59.618 61.1746 60.2003 65.7334 61.2099C66.0091 61.272 66.2055 61.5166 66.2055 61.7992C66.2055 62.0817 66.0091 62.3264 65.7334 62.3849C61.6777 63.2808 55.6235 63.8563 49.1316 63.9631C48.3839 63.9803 47.6121 63.9838 46.8368 63.9838ZM31.4444 61.8026C35.6862 62.4332 41.0961 62.7847 46.8368 62.7847C47.6052 62.7847 48.3701 62.7778 49.111 62.7674C53.9592 62.6882 58.549 62.3436 62.2187 61.8026C58.0114 61.1789 52.6532 60.8274 46.9677 60.824H46.8368C41.0995 60.8206 35.6897 61.1686 31.4444 61.8026Z" fill="#371A45"/>
<path d="M46.8369 63.5737C37.0956 63.5737 28.3571 62.5572 24.5771 60.9825C24.2704 60.855 24.0086 60.731 23.7777 60.6C22.8577 60.0901 22.389 59.5008 22.389 58.8427C22.389 58.6738 22.4201 58.5084 22.4821 58.3499C22.489 58.3327 22.4959 58.3189 22.5028 58.3017C22.5544 58.1983 22.5992 58.1122 22.6509 58.0295C22.6613 58.0123 22.6716 57.995 22.6854 57.9778C22.8404 57.7607 23.0575 57.554 23.3366 57.3576C23.5813 57.1853 23.8845 57.013 24.236 56.851C27.8161 55.1833 36.689 54.1047 46.8369 54.1047C56.3748 54.1047 65.034 55.0937 68.9036 56.6202C69.6651 56.9234 70.2268 57.2335 70.6162 57.5712C70.8126 57.74 70.9677 57.9227 71.0745 58.1087C71.0779 58.1156 71.0814 58.1225 71.0848 58.126C71.2158 58.3534 71.2812 58.5911 71.2812 58.8392C71.2847 62.5848 55.2928 63.5737 46.8369 63.5737ZM23.602 58.8013C23.5985 58.8151 23.5951 58.8289 23.5951 58.8427C23.5951 58.9461 23.757 59.2114 24.3669 59.5491C24.5599 59.6559 24.7839 59.7662 25.0423 59.873C28.6879 61.3926 37.2404 62.3746 46.8369 62.3746C53.1736 62.3746 59.1245 61.9473 63.5937 61.172C68.914 60.252 70.0786 59.1769 70.0786 58.8427C70.0786 58.8323 70.0786 58.7979 70.0476 58.7428C70.0442 58.7359 70.0407 58.729 70.0373 58.7221C70.0097 58.6738 69.9512 58.5911 69.8271 58.4843C69.548 58.2397 69.0863 57.9916 68.4626 57.7435C64.7239 56.2652 56.2369 55.3142 46.8403 55.3142C37.0095 55.3142 28.1297 56.3721 24.746 57.9468C24.46 58.0777 24.2187 58.2121 24.0327 58.343C23.8363 58.4809 23.7329 58.5946 23.6778 58.667C23.6502 58.7117 23.6261 58.7565 23.602 58.8013Z" fill="#371A45"/>
<path d="M62.491 44.8804V65.7928C62.491 68.3255 60.4408 70.3757 57.9116 70.3757H35.8965C33.3673 70.3757 31.317 68.3255 31.317 65.7928V44.8804C31.317 43.5158 31.9131 42.2891 32.8607 41.4484C33.6705 40.7351 34.7352 40.2975 35.8965 40.2975H57.9116C59.0797 40.2975 60.1479 40.7351 60.9576 41.4553C61.8983 42.296 62.491 43.5193 62.491 44.8804Z" fill="white"/>
<path d="M57.2844 70.9752H36.5201C33.319 70.9752 30.714 68.3702 30.714 65.1691V45.504C30.714 42.3029 33.319 39.6979 36.5201 39.6979H57.2844C60.4855 39.6979 63.0905 42.3029 63.0905 45.504V65.1691C63.094 68.3702 60.489 70.9752 57.2844 70.9752ZM36.5201 40.9004C33.9806 40.9004 31.9166 42.9645 31.9166 45.504V65.1691C31.9166 67.7086 33.9806 69.7726 36.5201 69.7726H57.2844C59.8239 69.7726 61.888 67.7086 61.888 65.1691V45.504C61.888 42.9645 59.8239 40.9004 57.2844 40.9004H36.5201Z" fill="#371A45"/>
<path d="M41.3718 40.0734L41.0376 41.4276L39.9832 45.728L39.773 46.586L38.2052 52.9641C38.2052 52.9641 37.995 53.0571 37.6056 53.1984C36.5477 53.574 34.1702 54.2804 31.162 54.2838C28.712 54.2838 25.8383 53.8221 22.9266 52.3301C16.4451 49.0152 14.5706 39.1017 14.5706 39.1017L20.0873 36.7069L24.0947 34.9668C24.9424 39.6875 28.9119 41.0658 32.8366 41.2174C33.5396 41.245 34.2425 41.2347 34.9248 41.1933C38.405 40.99 41.3718 40.0734 41.3718 40.0734Z" fill="white"/>
<path d="M41.3718 40.0735L41.0375 41.4277L39.9831 45.728C36.7234 44.7735 34.1598 43.1678 32.8331 41.214C33.5361 41.2416 34.239 41.2313 34.9213 41.1899C38.405 40.9901 41.3718 40.0735 41.3718 40.0735Z" fill="#D2D2D2"/>
<path d="M60.9955 41.214C59.6688 43.1644 57.1052 44.7735 53.8455 45.728L52.7876 41.4277L52.4534 40.0735C52.4534 40.0735 55.4202 40.9901 58.9039 41.1934C59.5896 41.2313 60.2925 41.2451 60.9955 41.214Z" fill="#D2D2D2"/>
<path d="M57.5394 44.205C54.8137 45.7349 51.0578 46.6791 46.9126 46.6791C42.8948 46.6791 39.2457 45.7935 36.5408 44.3463C37.0645 42.4649 39.6902 35.0048 48.6182 34.612C56.8709 34.2501 57.5738 41.4243 57.5394 44.205Z" fill="#D2D2D2"/>
<path d="M37.6021 53.195C35.6793 53.8807 29.4115 55.6415 22.9231 52.3266C16.4415 49.0152 14.5636 39.1017 14.5636 39.1017L20.0803 36.7069C22.165 37.7441 23.7914 38.5607 23.7914 38.5607C23.7914 38.5607 21.7033 43.6984 24.2394 47.6163C27.9642 53.3707 35.4933 48.3089 35.4933 48.3089L37.6021 53.195Z" fill="#D2D2D2"/>
<path d="M31.1585 54.8937C28.6327 54.8937 25.6728 54.4079 22.6474 52.8607C15.9798 49.4529 14.0502 39.6255 13.9744 39.2085L13.8848 38.7365L24.5495 34.1053L24.6838 34.8531C25.0353 36.8206 26.0105 38.3023 27.5783 39.2602C32.3507 42.1685 41.1064 39.5221 41.1926 39.4945L42.2091 39.181L38.7151 53.3879L38.4463 53.5085C38.2499 53.6016 35.2831 54.8937 31.1585 54.8937ZM15.2596 39.4532C15.7248 41.4207 17.8405 49.0531 23.1953 51.7891C29.8284 55.1797 36.3168 53.0399 37.6882 52.5162L40.5379 40.9211C37.988 41.562 31.2239 42.8921 26.9512 40.2905C25.2765 39.2706 24.1739 37.7648 23.657 35.8041L15.2596 39.4532Z" fill="#371A45"/>
<path d="M22.9196 52.9297C22.6302 52.9297 22.3752 52.7195 22.327 52.4232C22.2753 52.0958 22.4958 51.7857 22.8266 51.734C28.7775 50.7761 29.6734 40.966 29.6837 40.8695C29.7113 40.5387 30.0042 40.2906 30.335 40.3216C30.6658 40.3492 30.9104 40.6386 30.8828 40.9728C30.8449 41.4139 29.8973 51.8202 23.0196 52.9263C22.9851 52.9263 22.9541 52.9297 22.9196 52.9297Z" fill="#371A45"/>
<path d="M26.0209 34.7221C24.5082 40.9934 18.1817 40.4111 16.4416 39.9872C12.8098 39.1017 11.5624 35.68 11.5624 35.68L14.4913 31.807L15.7938 29.7119L17.3513 29.2433C18.5745 27.0139 21.1796 24.4881 22.675 25.3806C22.675 25.3771 27.3234 29.3157 26.0209 34.7221Z" fill="white"/>
<path d="M11.0214 33.6539C11.0214 35.6077 13.5816 37.3823 19.0914 36.7379C21.0314 36.5105 22.6302 35.1529 22.6302 33.1991C22.6302 31.2453 21.0451 29.6603 19.0914 29.6603C17.1376 29.6603 11.0214 31.7002 11.0214 33.6539Z" fill="#D2D2D2"/>
<path d="M20.7315 27.3137L17.9922 34.0054L13.9296 29.8498C13.9296 29.8498 12.6891 28.8023 11.2625 27.3723C8.87806 24.9878 5.96638 21.5351 7.44806 20.1327C9.96348 17.7551 16.2417 26.1249 16.2417 26.1249C16.2417 26.1249 13.6401 15.7669 17.5718 15.5222C19.7357 15.3879 20.418 20.5255 20.6316 24.0609C20.7453 25.9078 20.7315 27.3137 20.7315 27.3137Z" fill="white"/>
<path d="M20.7316 27.3137L17.9922 34.0054L13.9296 29.8498C13.9296 29.8498 12.6891 28.8023 11.2626 27.3723C13.1061 27.7548 15.5319 28.0649 16.9309 27.4653C18.2196 26.9175 19.0294 24.5985 20.6316 24.0609C20.7454 25.9079 20.7316 27.3137 20.7316 27.3137Z" fill="#D2D2D2"/>
<path d="M17.9922 34.6084C17.8302 34.6084 17.6751 34.543 17.5614 34.4258L13.5195 30.2909C12.7063 29.6017 6.53149 24.2677 6.44535 21.194C6.42812 20.5945 6.63142 20.0776 7.03458 19.6986C7.49631 19.2609 8.09588 19.0611 8.7678 19.1197C10.8353 19.2954 13.4885 21.9349 15.1597 23.8507C14.7462 21.3663 14.4189 17.6828 15.6904 15.9427C16.1418 15.3224 16.7827 14.9709 17.5373 14.9227C18.0817 14.8882 18.6021 15.0915 19.0397 15.505C21.3725 17.7241 21.3449 26.3455 21.3346 27.3206C21.3346 27.3964 21.3173 27.4722 21.2898 27.5412L18.5504 34.2329C18.4746 34.4189 18.3092 34.5568 18.1093 34.5947C18.068 34.605 18.0301 34.6084 17.9922 34.6084ZM8.54038 20.3119C8.26472 20.3119 8.04763 20.3946 7.86156 20.5738C7.76508 20.6634 7.63759 20.8253 7.64792 21.163C7.70995 23.3407 12.4824 27.8444 14.319 29.395C14.3327 29.4088 14.3465 29.4191 14.3603 29.4329L17.782 32.9338L20.132 27.1966C20.1492 24.6019 19.8425 17.9309 18.2127 16.3803C17.9543 16.1356 17.7475 16.1184 17.6166 16.1287C17.2134 16.1528 16.9136 16.3217 16.669 16.6559C15.3389 18.4753 16.3382 24.0058 16.8344 25.9871C16.9033 26.2662 16.7689 26.5522 16.5105 26.6763C16.252 26.8003 15.9419 26.7245 15.7696 26.4936C14.5291 24.8397 10.8318 20.5049 8.67477 20.3188C8.62308 20.3119 8.58173 20.3119 8.54038 20.3119Z" fill="#371A45"/>
<path d="M10.818 34.953C11.7828 36.5208 15.873 37.2513 17.3891 36.0728C18.6813 35.0701 17.3926 33.7917 17.0239 33.4678C16.9653 33.4161 16.9308 33.3886 16.9308 33.3886C16.9308 33.3886 18.5021 32.9062 18.7778 31.583C18.795 31.4968 18.8088 31.4073 18.8122 31.3142C18.9087 29.7877 14.8323 28.468 12.9785 28.7678C11.5933 28.9918 11.0661 29.5534 10.9352 30.1564C10.7973 30.7974 11.1075 31.4865 11.3176 31.8518C11.4141 32.0206 11.4865 32.1205 11.4865 32.1205C11.4865 32.1205 10.0462 33.6987 10.818 34.953Z" fill="white"/>
<g opacity="0.35">
<path d="M11.3212 31.8552C12.4135 32.4169 14.6085 33.3679 17.0274 33.4713C16.9688 33.4196 16.9344 33.3921 16.9344 33.3921C16.9344 33.3921 18.5056 32.9096 18.7813 31.5865C17.3306 31.9035 13.3232 32.5099 10.9421 30.1599C10.8009 30.8008 11.111 31.4865 11.3212 31.8552Z" fill="#371A45"/>
</g>
<g opacity="0.35">
<path d="M10.8181 34.953C11.7829 36.5209 15.873 37.2514 17.3892 36.0729C18.0232 35.5802 18.0335 35.0219 17.8371 34.543C17.7682 34.6188 17.6855 34.698 17.589 34.7704C16.0729 35.9489 11.9827 35.2149 11.0179 33.6505C10.918 33.4886 10.8525 33.3197 10.8215 33.1509C10.5872 33.6919 10.4528 34.3569 10.8181 34.953Z" fill="#371A45"/>
</g>
<path d="M15.1701 37.2583C14.7153 37.2583 14.2294 37.2135 13.7298 37.1239C12.1206 36.831 10.8422 36.1384 10.3047 35.27C9.55694 34.0571 10.3012 32.7133 10.7561 32.0827C10.4666 31.5555 10.0841 30.601 10.4528 29.6982C10.7836 28.8954 11.6003 28.3819 12.8856 28.1752C14.4052 27.9305 17.3375 28.63 18.6951 29.8636C19.3326 30.4425 19.4394 30.9938 19.4153 31.3556C19.343 32.4893 18.5814 33.1854 17.9543 33.5713C18.261 33.9572 18.5573 34.4844 18.5573 35.0736C18.5573 35.4665 18.4195 36.0419 17.7613 36.5519C17.1583 37.0136 16.2418 37.2583 15.1701 37.2583ZM13.0751 29.364C12.4962 29.457 11.7657 29.6707 11.5658 30.1531C11.3384 30.6975 11.7967 31.5245 11.9759 31.7691C12.1413 32 12.124 32.3205 11.9345 32.5307C11.9242 32.541 10.8181 33.8021 11.3315 34.6395C11.6795 35.2046 12.7064 35.7146 13.9469 35.942C15.2459 36.1763 16.4519 36.0419 17.0239 35.6008C17.3203 35.3734 17.3547 35.1908 17.3547 35.0702C17.3547 34.6257 16.8241 34.0675 16.5657 33.8642C16.3899 33.7263 16.3038 33.5024 16.3451 33.2818C16.3865 33.0613 16.545 32.8821 16.7621 32.8167C16.7724 32.8132 18.1507 32.3653 18.2196 31.2798C18.23 31.142 18.1094 30.9525 17.8923 30.7526C16.8413 29.805 14.2914 29.1676 13.0751 29.364Z" fill="#371A45"/>
<path d="M16.4209 34.0088C13.5368 34.0088 11.2867 32.7029 11.1867 32.6443C10.9007 32.4755 10.8043 32.1068 10.9731 31.8208C11.1419 31.5348 11.5106 31.4383 11.7966 31.6071C11.838 31.6313 14.1432 32.9544 16.8964 32.7925C17.2272 32.7684 17.5132 33.0268 17.5339 33.3576C17.5545 33.6884 17.2996 33.9744 16.9688 33.9951C16.7827 34.002 16.6001 34.0088 16.4209 34.0088Z" fill="#371A45"/>
<path d="M22.675 25.3807C20.6902 24.1953 16.7551 29.0332 16.6827 31.204C16.6276 32.8615 18.9087 33.4714 20.8418 31.2936C22.961 28.8954 25.7899 27.238 22.675 25.3807Z" fill="white"/>
<path d="M11.5624 35.6801C11.5624 35.6801 12.8098 39.1018 16.4416 39.9873C18.1852 40.4112 24.5116 40.997 26.0243 34.7222C27.3268 29.3158 22.675 25.3807 22.675 25.3807C20.6903 24.1953 16.7552 29.0332 16.6828 31.204C16.6277 32.8615 19.088 33.7987 21.152 30.8836C21.152 30.8836 20.0666 33.5299 22.3856 35.339L16.9206 38.4884L12.7856 37.6821L11.5624 35.6801Z" fill="white"/>
<path d="M21.3036 34.0675L21.4138 34.0055C21.3311 33.94 21.2553 33.878 21.1864 33.8125C21.2209 33.8952 21.2588 33.9813 21.3036 34.0675Z" fill="white"/>
<g opacity="0.35">
<path d="M21.0624 30.3908C21.3518 29.3191 18.2782 32.0447 16.6793 31.3453C16.7551 32.6891 18.5263 33.4713 20.2939 31.8621C20.4008 31.0007 21.0624 30.3908 21.0624 30.3908Z" fill="#371A45"/>
</g>
<path d="M13.4816 37.8131L12.7855 37.6787C13.5574 38.5953 14.7358 39.5704 16.4415 39.9874C18.1851 40.4112 24.5115 40.9935 26.0242 34.7222C26.9098 31.0456 25.0387 28.0443 23.7534 26.504C24.801 28.1752 25.7313 30.5838 25.0525 33.3921C23.5433 39.6635 17.2134 39.0811 15.4698 38.6573C14.7048 38.4678 14.0432 38.1714 13.4816 37.8131Z" fill="#D2D2D2"/>
<path d="M11.5624 35.6835C11.5762 35.7179 11.6761 35.9798 11.8828 36.3623L11.9897 36.383L11.5624 35.6835Z" fill="white"/>
<path d="M11.8138 36.3485C11.8724 36.4174 11.931 36.4863 11.993 36.5553C11.9551 36.4898 11.9207 36.4243 11.8862 36.3657L11.8138 36.3485Z" fill="white"/>
<path d="M23.1849 38.6503C23.6156 38.1989 23.9947 37.7337 24.3151 37.2341C24.6356 36.7345 24.8906 36.2004 25.1042 35.6421C25.5212 34.5154 25.6934 33.3059 25.5797 32.124C25.5246 31.5313 25.3937 30.9455 25.2145 30.3735C25.0284 29.8015 24.7838 29.2468 24.4943 28.7161C24.2014 28.1855 23.8637 27.6721 23.4847 27.1931C23.2986 26.9519 23.1022 26.7176 22.8955 26.4902C22.7921 26.3764 22.6887 26.2662 22.5819 26.1594C22.4785 26.056 22.3614 25.9423 22.2683 25.8596L22.351 25.9182C22.2132 25.8355 22.0478 25.8044 21.8342 25.832C21.6205 25.8561 21.3793 25.9423 21.1381 26.0629C20.8969 26.1835 20.6592 26.342 20.4283 26.5143C20.1974 26.6866 19.9735 26.883 19.7598 27.0897C18.9087 27.9167 18.161 28.916 17.6544 29.9704C17.5304 30.2323 17.427 30.501 17.3581 30.7595C17.3236 30.887 17.2995 31.0145 17.2892 31.1282C17.272 31.2488 17.2823 31.3349 17.2995 31.4314C17.3305 31.6209 17.4305 31.7794 17.5683 31.9069C17.713 32.0275 17.8991 32.1171 18.1127 32.1412C18.54 32.2033 19.0431 32.0379 19.4842 31.7346C19.9287 31.4349 20.318 31.0041 20.6592 30.5321L20.7109 30.4666C20.9142 30.2082 21.2897 30.1634 21.5482 30.3667C21.7756 30.5458 21.8376 30.8594 21.7101 31.1075C21.686 31.1557 21.6481 31.2488 21.6205 31.328C21.5895 31.4107 21.5654 31.4969 21.5413 31.5865C21.493 31.7622 21.4586 31.9414 21.4345 32.1206C21.3862 32.4824 21.3966 32.8476 21.462 33.2025C21.4862 33.3852 21.5516 33.554 21.6033 33.7297C21.6791 33.8951 21.7411 34.0709 21.848 34.2225C21.9341 34.3879 22.0581 34.5326 22.1719 34.6808C22.227 34.76 22.2994 34.8221 22.3648 34.891L22.5681 35.0943L22.5957 35.1218C22.7128 35.239 22.7128 35.4285 22.5957 35.5457C22.4889 35.6525 22.3166 35.6628 22.1994 35.5698L21.9375 35.3665C21.8514 35.2976 21.7584 35.2355 21.6826 35.1494C21.5241 34.9909 21.3587 34.8358 21.2277 34.6463C21.0795 34.4706 20.9693 34.2707 20.8521 34.0709C20.7556 33.8641 20.6488 33.6539 20.5868 33.43C20.4455 32.9889 20.3766 32.5203 20.3801 32.0585C20.3835 31.8277 20.3973 31.5968 20.4317 31.3659C20.449 31.2522 20.4696 31.1351 20.4938 31.0214C20.5213 30.9008 20.5455 30.8008 20.5937 30.6527L21.6412 31.2281C21.2415 31.7829 20.7729 32.317 20.163 32.7305C19.8597 32.9372 19.5255 33.1164 19.1499 33.2267C18.7778 33.3369 18.3677 33.3955 17.9508 33.3335C17.5338 33.2818 17.1135 33.1026 16.7792 32.8097C16.445 32.5134 16.2003 32.0999 16.1211 31.6588C16.0797 31.4452 16.0694 31.2109 16.0935 31.0145C16.1107 30.8112 16.1486 30.6285 16.1969 30.4494C16.2899 30.0944 16.4209 29.7705 16.5656 29.457C16.855 28.8333 17.2099 28.2647 17.6028 27.7237C17.999 27.1862 18.4297 26.6728 18.9156 26.2042C19.1568 25.9698 19.4118 25.7424 19.6875 25.5322C19.9631 25.322 20.2526 25.1222 20.5799 24.9568C20.9038 24.7914 21.2656 24.6467 21.6826 24.5881C21.7825 24.5709 21.8962 24.5674 22.0065 24.5674C22.1133 24.5605 22.2304 24.5812 22.3441 24.595C22.4579 24.6053 22.5716 24.6501 22.6853 24.6811C22.7955 24.7225 22.9024 24.7776 23.0057 24.8293C23.0299 24.8396 23.0505 24.8534 23.0678 24.8706L23.0884 24.8879C23.2401 25.0188 23.3538 25.1291 23.4813 25.2497C23.6053 25.3703 23.7225 25.4909 23.8362 25.6184C24.067 25.8665 24.2876 26.1249 24.4978 26.3902C24.9181 26.9209 25.2972 27.4894 25.6245 28.0856C25.9519 28.6851 26.2344 29.3122 26.4481 29.9669C26.6617 30.6216 26.7995 31.3074 26.8581 32C26.9822 33.3886 26.7444 34.7945 26.2379 36.0694C26.1104 36.3933 25.9553 36.7034 25.783 37.0067C25.6039 37.3065 25.4006 37.5925 25.1731 37.8612C24.7183 38.3919 24.1601 38.8398 23.5398 39.1327C23.3882 39.2051 23.2056 39.1396 23.1332 38.988C23.0781 38.8708 23.1022 38.7365 23.1884 38.6469L23.1849 38.6503Z" fill="#371A45"/>
<path d="M12.1274 35.4733C12.1722 35.5595 12.2342 35.6835 12.2928 35.7938C12.3514 35.9075 12.4169 36.0178 12.4823 36.128C12.5443 36.2417 12.6202 36.3486 12.6856 36.4588L12.8993 36.7827C13.1922 37.21 13.5264 37.6097 13.8882 37.9784C14.0639 38.1714 14.2672 38.3299 14.4602 38.5056L14.7738 38.7399C14.8737 38.8261 14.9874 38.8915 15.0977 38.9605C15.5318 39.2602 16.0142 39.4739 16.5139 39.6944L16.538 39.7048C16.6896 39.7702 16.7585 39.9494 16.6931 40.101C16.6379 40.2285 16.5035 40.2974 16.3726 40.2768C15.7903 40.1872 15.1976 40.0562 14.6497 39.7978C14.3672 39.6875 14.1087 39.5256 13.8434 39.3774C13.5919 39.2086 13.3369 39.0432 13.106 38.8399C12.6339 38.4539 12.2136 38.0094 11.8586 37.5167L11.6036 37.1376C11.5244 37.0067 11.4486 36.8792 11.3762 36.7448C11.3039 36.6104 11.2349 36.4726 11.1729 36.3348C11.1075 36.1901 11.0558 36.0591 10.9972 35.8834C10.8938 35.5698 11.0661 35.2287 11.3797 35.1253C11.6622 35.0323 11.9689 35.1598 12.0998 35.4182L12.1274 35.4733Z" fill="#371A45"/>
<path d="M52.4534 40.0735L52.7876 41.4277L54.0557 46.5826L55.6235 52.9607C55.6235 52.9607 55.8337 53.0537 56.2231 53.195C57.2809 53.5706 59.6585 54.277 62.6667 54.2804C65.1166 54.2804 67.9869 53.8187 70.9021 52.3267C77.3836 49.0118 79.2581 39.0983 79.2581 39.0983L73.7414 36.7035L69.734 34.9634C68.7347 40.5318 63.3903 41.4518 58.9039 41.1899C55.4202 40.99 52.4534 40.0735 52.4534 40.0735Z" fill="white"/>
<path d="M60.9955 41.214C59.6688 43.1644 57.1052 44.7735 53.8455 45.728L52.7876 41.4277L52.4534 40.0735C52.4534 40.0735 55.4202 40.9901 58.9039 41.1934C59.5896 41.2313 60.2925 41.2451 60.9955 41.214Z" fill="#D2D2D2"/>
<path d="M56.2231 53.195C58.1459 53.8807 64.4138 55.6415 70.9022 52.3267C77.3837 49.0118 79.2582 39.0983 79.2582 39.0983L73.7415 36.7035C71.6568 37.7407 70.0304 38.5573 70.0304 38.5573C70.0304 38.5573 72.1185 43.695 69.5824 47.6128C65.8575 53.3673 58.3285 48.3054 58.3285 48.3054L56.2231 53.195Z" fill="#D2D2D2"/>
<path d="M62.6667 54.8938C58.5421 54.8938 55.5753 53.5982 55.3789 53.5121L55.1101 53.3915L51.6161 39.1845L52.6326 39.4981C52.7222 39.5257 61.4745 42.172 66.2469 39.2638C67.8147 38.3093 68.7899 36.8242 69.1448 34.8566L69.2792 34.1089L79.9438 38.74L79.8543 39.2121C79.775 39.629 77.8488 49.4564 71.1812 52.8643C68.1524 54.408 65.1925 54.8938 62.6667 54.8938ZM56.1335 52.5197C57.5049 53.0435 63.9933 55.1833 70.6265 51.7926C75.9915 49.0498 78.1004 41.4208 78.5621 39.4567L70.1613 35.8111C69.6444 37.7718 68.5383 39.2776 66.8671 40.2975C62.5943 42.8991 55.8303 41.569 53.2804 40.9281L56.1335 52.5197Z" fill="#371A45"/>
<path d="M70.9021 52.9297C70.871 52.9297 70.8366 52.9263 70.8056 52.9228C63.9278 51.8167 62.9802 41.4105 62.9423 40.9694C62.9147 40.6386 63.1594 40.3492 63.4902 40.3182C63.821 40.2872 64.1104 40.5353 64.1414 40.866C64.1483 40.966 65.0477 50.7761 70.9985 51.7306C71.3259 51.7823 71.5499 52.0924 71.4982 52.4198C71.4499 52.7195 71.1949 52.9297 70.9021 52.9297Z" fill="#371A45"/>
<path d="M67.8044 34.7222C69.3171 40.9935 75.6435 40.4112 77.3836 39.9874C81.0155 39.1018 82.2628 35.6801 82.2628 35.6801L79.3339 31.8071L78.0314 29.7121L76.4739 29.2434C75.2507 27.014 72.6457 24.4882 71.1502 25.3807C71.1502 25.3773 66.5018 29.3158 67.8044 34.7222Z" fill="white"/>
<path d="M82.8039 33.6541C82.8039 35.6078 80.2437 37.3824 74.7339 36.738C72.7939 36.5106 71.1951 35.153 71.1951 33.1992C71.1951 31.2455 72.7801 29.6604 74.7339 29.6604C76.6876 29.6604 82.8039 31.7003 82.8039 33.6541Z" fill="#D2D2D2"/>
<path d="M73.0937 27.3138L75.8331 34.0055L79.8956 29.8499C79.8956 29.8499 81.1361 28.8024 82.5627 27.3724C84.9471 24.9845 87.8588 21.5318 86.3771 20.1328C83.8617 17.7552 77.5835 26.125 77.5835 26.125C77.5835 26.125 80.1851 15.767 76.2534 15.5224C74.0895 15.388 73.4072 20.5256 73.1936 24.061C73.0799 25.9079 73.0937 27.3138 73.0937 27.3138Z" fill="white"/>
<path d="M73.0937 27.3139L75.8331 34.0056L79.8956 29.8499C79.8956 29.8499 81.1361 28.8024 82.5627 27.3724C80.7192 27.7549 78.2933 28.065 76.8944 27.4655C75.6056 26.9176 74.7959 24.5986 73.1936 24.061C73.0799 25.908 73.0937 27.3139 73.0937 27.3139Z" fill="#D2D2D2"/>
<path d="M75.8331 34.6085C75.7952 34.6085 75.7573 34.6051 75.7194 34.5982C75.5195 34.5603 75.3541 34.4225 75.2783 34.2364L72.5389 27.5447C72.5113 27.4758 72.4941 27.4 72.4941 27.3241C72.4838 26.349 72.4528 17.7276 74.789 15.5086C75.2266 15.0951 75.7435 14.8952 76.2913 14.9262C77.046 14.9745 77.6834 15.3259 78.1383 15.9462C79.4098 17.6863 79.0824 21.3698 78.6689 23.8542C80.3401 21.9384 82.9934 19.2989 85.0609 19.1232C85.7328 19.0646 86.3324 19.2679 86.7941 19.7021C87.1972 20.0811 87.4005 20.6014 87.3833 21.1975C87.2972 24.2746 81.1258 29.6053 80.3091 30.2944L76.2672 34.4293C76.1501 34.5465 75.995 34.6085 75.8331 34.6085ZM73.6967 27.1932L76.0467 32.9304L79.4684 29.4295C79.4821 29.4157 79.4959 29.4019 79.5097 29.3916C81.3429 27.841 86.1187 23.3374 86.1807 21.1596C86.1911 20.822 86.0636 20.6635 85.9671 20.5704C85.7535 20.3671 85.4985 20.2879 85.1608 20.3154C83.0037 20.4981 79.3064 24.8328 78.0659 26.4903C77.8936 26.7177 77.5835 26.7969 77.3251 26.6729C77.0666 26.5488 76.9323 26.2594 77.0012 25.9837C77.4974 24.0059 78.4967 18.4719 77.1666 16.6526C76.9219 16.3183 76.6221 16.1495 76.219 16.1254C76.0846 16.115 75.8779 16.1357 75.6229 16.3769C73.9827 17.9309 73.676 24.5985 73.6967 27.1932Z" fill="#371A45"/>
<path d="M83.0071 34.9531C82.0423 36.5209 77.9522 37.2514 76.436 36.073C75.1439 35.0702 76.4326 33.7919 76.8013 33.468C76.8598 33.4163 76.8943 33.3887 76.8943 33.3887C76.8943 33.3887 75.323 32.9063 75.0474 31.5831C75.0301 31.497 75.0164 31.4074 75.0129 31.3143C74.9164 29.7879 78.9962 28.4681 80.8466 28.7679C82.2318 28.9919 82.759 29.5536 82.89 30.1566C83.0278 30.7975 82.7177 31.4866 82.5075 31.8519C82.411 32.0207 82.3386 32.1207 82.3386 32.1207C82.3386 32.1207 83.779 33.6988 83.0071 34.9531Z" fill="white"/>
<g opacity="0.35">
<path d="M82.5041 31.8554C81.4117 32.417 79.2168 33.3681 76.7979 33.4714C76.8564 33.4197 76.8909 33.3922 76.8909 33.3922C76.8909 33.3922 75.3196 32.9098 75.0439 31.5866C76.4946 31.9036 80.5021 32.5101 82.8831 30.16C83.0244 30.8009 82.7143 31.4867 82.5041 31.8554Z" fill="#371A45"/>
</g>
<g opacity="0.35">
<path d="M83.0072 34.9531C82.0423 36.521 77.9522 37.2515 76.4361 36.073C75.802 35.5803 75.7917 35.0221 75.9881 34.5431C76.057 34.6189 76.1397 34.6982 76.2362 34.7705C77.7523 35.949 81.8425 35.215 82.8073 33.6506C82.9072 33.4887 82.9727 33.3198 83.0037 33.151C83.238 33.692 83.3724 34.357 83.0072 34.9531Z" fill="#371A45"/>
</g>
<path d="M78.6551 37.2583C77.5835 37.2583 76.6635 37.0136 76.0639 36.5485C75.4092 36.0385 75.2679 35.463 75.2679 35.0702C75.2679 34.4844 75.5643 33.9572 75.8709 33.5679C75.2438 33.1819 74.4823 32.4859 74.4099 31.3522C74.3858 30.9904 74.4926 30.4356 75.1301 29.8602C76.4877 28.6266 79.4201 27.9271 80.9397 28.1718C82.2215 28.3785 83.0416 28.8919 83.3724 29.6948C83.7445 30.5976 83.3586 31.5521 83.0692 32.0793C83.5206 32.7099 84.2683 34.0537 83.5206 35.2666C82.9865 36.135 81.7047 36.8276 80.0955 37.1205C79.5958 37.2135 79.1134 37.2583 78.6551 37.2583ZM80.2505 29.3296C78.9342 29.3296 76.8564 29.9222 75.9399 30.7561C75.7228 30.9525 75.6022 31.1455 75.6125 31.2833C75.6814 32.3687 77.0563 32.8167 77.0701 32.8201C77.2837 32.889 77.4422 33.0682 77.4836 33.2888C77.5249 33.5093 77.4388 33.7333 77.263 33.8711C77.0597 34.033 76.4705 34.605 76.474 35.0771C76.474 35.1943 76.5084 35.3769 76.8047 35.6043C77.3767 36.0454 78.5828 36.1798 79.8818 35.9455C81.1223 35.7215 82.1492 35.2081 82.4972 34.6429C83.0106 33.8056 81.9045 32.5445 81.8942 32.5341C81.7012 32.3239 81.684 32.0035 81.8528 31.7726C82.0286 31.528 82.4868 30.701 82.2594 30.1565C82.0596 29.6741 81.3291 29.4605 80.7502 29.3675C80.602 29.3399 80.4332 29.3296 80.2505 29.3296Z" fill="#371A45"/>
<path d="M77.4043 34.009C77.2251 34.009 77.0425 34.0055 76.8564 33.9918C76.5257 33.9711 76.2707 33.6885 76.2913 33.3543C76.312 33.0201 76.598 32.7651 76.9288 32.7892C79.7095 32.9511 82.0079 31.6176 82.0286 31.6038C82.3146 31.435 82.6833 31.5315 82.8521 31.8175C83.0209 32.1035 82.9245 32.4722 82.6385 32.641C82.542 32.6996 80.2884 34.009 77.4043 34.009Z" fill="#371A45"/>
<path d="M71.1503 25.3807C73.135 24.1953 77.0701 29.0332 77.1425 31.204C77.1976 32.8615 74.9165 33.4714 72.9834 31.2936C70.8643 28.8954 68.0353 27.238 71.1503 25.3807Z" fill="white"/>
<path d="M82.2629 35.6801C82.2629 35.6801 81.0155 39.1018 77.3836 39.9873C75.6401 40.4112 69.3136 40.997 67.8009 34.7222C66.4984 29.3158 71.1502 25.3807 71.1502 25.3807C73.135 24.1953 77.0701 29.0332 77.1424 31.204C77.1976 32.8615 74.7373 33.7987 72.6732 30.8836C72.6732 30.8836 73.7587 33.5299 71.4397 35.339L76.9047 38.4884L81.0396 37.6821L82.2629 35.6801Z" fill="white"/>
<path d="M72.5216 34.0675L72.4114 34.0055C72.4941 33.94 72.5699 33.878 72.6388 33.8125C72.6043 33.8952 72.5664 33.9813 72.5216 34.0675Z" fill="white"/>
<g opacity="0.35">
<path d="M72.7594 30.3909C72.47 29.3193 75.5436 32.0449 77.1425 31.3454C77.0667 32.6892 75.2955 33.4714 73.5279 31.8622C73.4245 31.0008 72.7594 30.3909 72.7594 30.3909Z" fill="#371A45"/>
</g>
<path d="M80.3436 37.8131L81.0396 37.6787C80.2678 38.5953 79.0893 39.5704 77.3836 39.9874C75.6401 40.4112 69.3136 40.9935 67.8009 34.7222C66.9154 31.0456 68.7864 28.0443 70.0717 26.504C69.0242 28.1752 68.0938 30.5838 68.7726 33.3921C70.2819 39.6635 76.6118 39.0811 78.3553 38.6573C79.1203 38.4678 79.7819 38.1714 80.3436 37.8131Z" fill="#D2D2D2"/>
<path d="M82.2628 35.6836C82.2491 35.7181 82.1491 35.9799 81.9424 36.3624L81.8356 36.3831L82.2628 35.6836Z" fill="white"/>
<path d="M82.0113 36.3486C81.9528 36.4175 81.8942 36.4865 81.8322 36.5554C81.8701 36.4899 81.9045 36.4244 81.939 36.3659L82.0113 36.3486Z" fill="white"/>
<path d="M70.2922 39.1432C69.672 38.8503 69.1138 38.4058 68.6589 37.8717C68.4315 37.6064 68.2282 37.317 68.049 37.0172C67.8767 36.7139 67.7182 36.4004 67.5942 36.0799C67.0876 34.8015 66.8464 33.3991 66.9739 32.0105C67.0325 31.3179 67.1703 30.6356 67.384 29.9774C67.5976 29.3227 67.8802 28.6922 68.2075 28.096C68.5383 27.4999 68.9139 26.9314 69.3343 26.4007C69.5445 26.1354 69.765 25.877 69.9959 25.6289C70.113 25.5048 70.2302 25.3808 70.3508 25.2602C70.4748 25.1361 70.592 25.0259 70.7436 24.8984L70.7643 24.8811C70.785 24.8639 70.8056 24.8501 70.8263 24.8398C70.9331 24.7881 71.0365 24.7295 71.1468 24.6916C71.2605 24.6606 71.3742 24.6158 71.4879 24.6055C71.6016 24.5917 71.7188 24.571 71.8256 24.5779C71.9359 24.5779 72.0461 24.5814 72.1495 24.5986C72.5664 24.6572 72.9248 24.7984 73.2521 24.9673C73.5795 25.1327 73.8689 25.336 74.1446 25.5427C74.4203 25.7529 74.6752 25.9769 74.9165 26.2147C75.4023 26.6833 75.833 27.1967 76.2293 27.7342C76.6187 28.2752 76.9736 28.8472 77.2665 29.4675C77.4077 29.781 77.5387 30.1049 77.6352 30.4599C77.6834 30.639 77.7213 30.8217 77.7385 31.025C77.7627 31.2179 77.7523 31.4522 77.711 31.6693C77.6317 32.1069 77.3871 32.5239 77.0563 32.8202C76.7186 33.1131 76.2982 33.2923 75.8847 33.344C75.4678 33.406 75.0577 33.3474 74.6856 33.2372C74.31 33.1234 73.9758 32.9443 73.6725 32.741C73.0626 32.3275 72.594 31.7934 72.1943 31.2386L73.2418 30.6632C73.29 30.8079 73.3142 30.9113 73.3417 31.0319C73.3659 31.149 73.3865 31.2627 73.4038 31.3764C73.4382 31.6073 73.452 31.8382 73.4554 32.069C73.4589 32.5308 73.39 32.9994 73.2487 33.4405C73.1867 33.6644 73.0833 33.8746 72.9834 34.0814C72.8662 34.2812 72.7559 34.4845 72.6078 34.6568C72.4768 34.8429 72.3114 34.9979 72.1529 35.1599C72.0771 35.2426 71.9841 35.3046 71.8979 35.377L71.6361 35.5803C71.5051 35.6837 71.3156 35.6595 71.2157 35.5286C71.1227 35.408 71.133 35.2392 71.2398 35.1323L71.2674 35.1048L71.4707 34.9015C71.5361 34.8325 71.612 34.7705 71.6636 34.6913C71.7808 34.5397 71.9014 34.3984 71.9875 34.233C72.0909 34.0779 72.1564 33.9056 72.2322 33.7402C72.2873 33.5645 72.3493 33.3957 72.3735 33.213C72.4424 32.8581 72.4493 32.4894 72.401 32.1311C72.3735 31.9519 72.3425 31.7727 72.2942 31.597C72.2701 31.5108 72.246 31.4247 72.215 31.3385C72.1874 31.2593 72.1495 31.1628 72.1254 31.118C71.9738 30.8251 72.0909 30.4667 72.3838 30.3151C72.6422 30.1842 72.9524 30.2566 73.1246 30.4771L73.1763 30.5426C73.514 31.0146 73.9034 31.4453 74.3513 31.7451C74.789 32.0484 75.292 32.2138 75.7228 32.1517C75.9364 32.1242 76.1225 32.038 76.2672 31.9174C76.405 31.7899 76.505 31.6314 76.536 31.4419C76.5532 31.3454 76.5635 31.2593 76.5463 31.1387C76.536 31.025 76.5118 30.8975 76.4774 30.77C76.4085 30.5115 76.3051 30.2428 76.1811 29.9809C75.6745 28.9265 74.9268 27.9272 74.0757 27.1002C73.862 26.8935 73.6381 26.7005 73.4072 26.5248C73.1763 26.349 72.9386 26.1905 72.6974 26.0734C72.4596 25.9528 72.215 25.8666 72.0013 25.8425C71.7877 25.8184 71.6223 25.8494 71.4845 25.9287L71.5672 25.8701C71.4741 25.9528 71.357 26.063 71.2536 26.1699C71.1468 26.2767 71.0434 26.3869 70.94 26.5007C70.7333 26.7246 70.5369 26.9624 70.3508 27.2036C69.9718 27.686 69.6341 28.196 69.3412 28.7266C69.0517 29.2607 68.8036 29.8155 68.621 30.384C68.4418 30.956 68.3109 31.5418 68.2558 32.1345C68.142 33.3164 68.3143 34.5259 68.7313 35.6526C68.9449 36.2109 69.1999 36.745 69.5204 37.2446C69.8408 37.7442 70.2199 38.206 70.6506 38.6608L70.654 38.6677C70.7712 38.7883 70.7643 38.9847 70.6437 39.0984C70.5403 39.1777 70.4025 39.1949 70.2922 39.1432Z" fill="#371A45"/>
<path d="M82.828 35.8869C82.7694 36.0627 82.7177 36.1936 82.6523 36.3383C82.5902 36.4796 82.5213 36.614 82.449 36.7484C82.3766 36.8828 82.2973 37.0137 82.2215 37.1412L81.9666 37.5202C81.6116 38.013 81.1912 38.4575 80.7192 38.8434C80.4918 39.0433 80.2333 39.2087 79.9818 39.381C79.7165 39.5291 79.458 39.6911 79.1755 39.8014C78.6276 40.0598 78.0349 40.1907 77.4526 40.2803C77.2872 40.3044 77.1356 40.1907 77.108 40.0288C77.0873 39.8909 77.1631 39.76 77.2837 39.7083L77.3079 39.698C77.8075 39.4809 78.2899 39.2638 78.7241 38.964C78.8343 38.8951 78.9446 38.8262 79.048 38.7435L79.3615 38.5092C79.5545 38.3335 79.7578 38.1749 79.9335 37.982C80.2954 37.6133 80.6296 37.217 80.9225 36.7863L81.1361 36.4624C81.2016 36.3521 81.2739 36.2453 81.3394 36.1316C81.4049 36.0213 81.4704 35.9076 81.5289 35.7974C81.5875 35.6905 81.6495 35.563 81.6943 35.4769L81.7219 35.4252C81.8735 35.1323 82.2388 35.0152 82.5317 35.1702C82.8004 35.3012 82.921 35.6113 82.828 35.8869Z" fill="#371A45"/>
<path d="M42.3882 87.5081C42.278 87.5081 42.1677 87.4771 42.0678 87.4151C39.4972 85.799 35.7103 86.5157 35.6724 86.5226C35.3451 86.5881 35.0315 86.3745 34.966 86.0471C34.9006 85.7198 35.1142 85.4062 35.4381 85.3407C35.6104 85.3063 39.7247 84.5241 42.7053 86.3951C42.9878 86.5709 43.0705 86.943 42.8948 87.2256C42.7845 87.4082 42.5881 87.5081 42.3882 87.5081Z" fill="#371A45"/>
<path d="M57.4809 45.2869C58.9798 52.4197 61.2953 62.1023 60.2754 71.6954C59.6207 77.8461 58.2493 85.9333 58.2493 85.9333C58.2493 85.9333 62.3256 87.2772 62.0362 90.1716C62.0293 90.2509 62.2085 93.2763 54.135 92.9731C50.7133 92.8456 48.384 92.1909 47.5501 90.3887C46.8024 88.7761 46.9092 81.5985 46.9092 81.5985V71.4473H46.8989V81.5985C46.8989 81.5985 47.0057 88.7761 46.2579 90.3887C45.4241 92.1909 43.4772 92.8456 40.0555 92.9731C31.9821 93.2763 31.7822 90.2509 31.7719 90.1716C31.479 87.2772 35.5588 85.9333 35.5588 85.9333C35.5588 85.9333 34.1874 77.8461 33.5327 71.6954C32.4886 61.8714 34.9041 51.92 36.434 44.7769C36.434 44.7769 38.3947 35.0633 48.6183 34.6119C58.8419 34.1605 57.4809 45.2869 57.4809 45.2869Z" fill="white"/>
<path d="M57.5394 44.205C54.8137 45.7349 51.0578 46.6791 46.9126 46.6791C42.8948 46.6791 39.2457 45.7935 36.5408 44.3463C37.0645 42.4649 39.6902 35.0048 48.6182 34.612C56.8709 34.2501 57.5738 41.4243 57.5394 44.205Z" fill="#D2D2D2"/>
<path d="M57.7738 45.2249C58.8936 48.4812 59.4863 51.865 60.0962 55.2522C60.6751 58.6428 61.0886 62.0817 61.1816 65.5447C61.2023 66.4096 61.1954 67.2779 61.1782 68.1428C61.1506 69.0112 61.1058 69.8761 61.0335 70.7409C60.9577 71.6093 60.8612 72.4638 60.7612 73.3149C60.6613 74.1695 60.5511 75.0206 60.4373 75.8717C60.2134 77.5739 59.9515 79.2693 59.6862 80.9611C59.4208 82.6565 59.1417 84.3449 58.8385 86.0333L58.4319 85.3614C58.6765 85.4475 58.8764 85.5302 59.0935 85.6267C59.3037 85.7198 59.5104 85.8231 59.7172 85.9334C60.1238 86.1539 60.52 86.4055 60.8922 86.6984C61.2643 86.9947 61.6158 87.3358 61.9121 87.739C62.2085 88.1421 62.4462 88.6142 62.5634 89.1311C62.622 89.3895 62.6495 89.6514 62.6461 89.9167C62.6426 89.9822 62.6426 90.0477 62.6392 90.1131L62.6323 90.2096V90.2303L62.6357 90.2096C62.6357 90.1993 62.6357 90.1993 62.6357 90.2062L62.6323 90.2682C62.622 90.4336 62.5944 90.5818 62.553 90.723C62.3842 91.2916 62.0258 91.7361 61.633 92.0669C61.2368 92.3977 60.7991 92.6354 60.3581 92.8181C59.917 93.0007 59.4691 93.1351 59.0211 93.235C58.1252 93.4383 57.2293 93.5279 56.3369 93.5727C55.4444 93.614 54.5623 93.5968 53.6802 93.5589C52.7946 93.5107 51.9056 93.428 51.0097 93.2488C50.1207 93.0627 49.2075 92.7939 48.3771 92.2357C47.9636 91.9601 47.588 91.5983 47.2951 91.1675C47.2228 91.0607 47.1573 90.9504 47.0953 90.8367L47.0091 90.6644C46.9816 90.6024 46.954 90.5335 46.9299 90.4715C46.8403 90.2199 46.7783 89.9856 46.7335 89.7548C46.5508 88.8416 46.4854 87.9698 46.4268 87.0912C46.32 85.3373 46.2959 83.5972 46.3027 81.8501L46.3062 71.4542L46.9092 72.0572H46.8989L47.5019 71.4542L47.5053 81.8364C47.5157 83.5799 47.4915 85.32 47.3847 87.0705C47.3261 87.9492 47.2607 88.821 47.0815 89.7306C47.0367 89.9581 46.9781 90.1924 46.892 90.4405L46.8127 90.6369L46.73 90.8057C46.6714 90.916 46.6129 91.0263 46.544 91.1331C46.2752 91.5638 45.9168 91.9463 45.5137 92.2426C44.697 92.8387 43.7667 93.1178 42.8776 93.2936C41.9783 93.4693 41.0893 93.5382 40.2072 93.5761C39.325 93.6106 38.4395 93.614 37.5505 93.5624C36.6615 93.5107 35.7655 93.4039 34.8765 93.1868C33.991 92.9628 33.0882 92.6492 32.2888 92.0221C31.8959 91.7051 31.5307 91.3019 31.3136 90.7678C31.2585 90.6334 31.2171 90.4922 31.1896 90.3233L31.1792 90.2544L31.1758 90.2062L31.1689 90.1097C31.1654 90.0442 31.162 89.9787 31.162 89.9133C31.162 89.6514 31.1896 89.3861 31.2481 89.1311C31.3653 88.6177 31.603 88.1456 31.8994 87.7424C32.1957 87.3393 32.5472 87.0016 32.9193 86.7052C33.2915 86.4124 33.6877 86.1608 34.0943 85.9403C34.2976 85.83 34.5044 85.7301 34.7146 85.6336C34.9282 85.5371 35.1281 85.4544 35.3762 85.3683L34.9696 86.0402C34.6629 84.3277 34.3803 82.6186 34.1116 80.9026C33.8462 79.1866 33.5809 77.4706 33.3535 75.7477C33.2398 74.8862 33.1295 74.0248 33.0262 73.1599L32.878 71.8608C32.8366 71.4267 32.7884 70.9856 32.7574 70.548C32.6161 68.7941 32.5851 67.0367 32.6264 65.2828C32.7333 61.775 33.164 58.2982 33.7567 54.8662C34.053 53.1502 34.3941 51.4411 34.7559 49.7424C35.1212 48.0436 35.545 46.362 36.1446 44.7184C36.2032 44.5599 36.3755 44.4807 36.534 44.5358C36.6649 44.584 36.7442 44.7115 36.7338 44.8425C36.6029 46.5895 36.279 48.2917 35.9413 49.9836C35.6002 51.6754 35.2762 53.3708 35.0006 55.0695C34.4424 58.4671 34.0564 61.8887 33.9806 65.3138C33.9358 67.0264 33.9669 68.7355 34.1012 70.4377C34.1288 70.865 34.177 71.2854 34.2184 71.7127L34.3631 72.9979C34.463 73.8559 34.5699 74.7105 34.6836 75.5685C34.911 77.281 35.1384 78.9936 35.39 80.7061L35.7724 83.2732L36.1653 85.8369L36.2445 86.3503L35.7621 86.5088C35.5967 86.564 35.3969 86.6467 35.2177 86.7294C35.035 86.8121 34.8524 86.9017 34.6732 86.9981C34.3183 87.1911 33.9806 87.4047 33.674 87.646C33.0606 88.1284 32.5748 88.7314 32.43 89.3964C32.3921 89.5618 32.3749 89.7306 32.3749 89.9029C32.3783 89.9443 32.3749 89.9891 32.3783 90.0304L32.3852 90.0959L32.3887 90.1269V90.1407C32.3956 90.1855 32.4163 90.2544 32.4404 90.3199C32.5472 90.5886 32.7712 90.8609 33.0503 91.0814C33.6188 91.5328 34.3838 91.8222 35.1694 92.0152C35.962 92.2082 36.7924 92.3115 37.6297 92.3563C38.467 92.4046 39.3147 92.4011 40.1658 92.3701C41.01 92.3322 41.8542 92.2667 42.6537 92.1082C43.4531 91.9532 44.2215 91.7016 44.8073 91.2675C45.1002 91.0504 45.3448 90.7919 45.5343 90.4853C45.5826 90.4095 45.6274 90.3302 45.6687 90.251L45.7273 90.1304L45.7687 90.027C45.8238 89.865 45.872 89.679 45.9099 89.4826C46.065 88.6935 46.1339 87.8355 46.1925 86.9878C46.2959 85.2821 46.32 83.5593 46.3096 81.8398L46.3062 71.4473V70.8443H46.9092H46.9195H47.5226V71.4473L47.5191 81.8536C47.5088 83.573 47.5329 85.3028 47.6397 87.0085C47.6983 87.8561 47.7672 88.7176 47.9257 89.5067C47.9636 89.7031 48.0153 89.8891 48.0704 90.0442C48.0842 90.0787 48.098 90.1131 48.1152 90.151L48.1738 90.2682C48.2152 90.344 48.26 90.4198 48.3082 90.4922C48.5046 90.7816 48.7596 91.0331 49.0697 91.2365C49.6831 91.6534 50.4653 91.9015 51.2647 92.0634C52.071 92.2288 52.9118 92.3081 53.756 92.3529C55.4478 92.4321 57.1673 92.4149 58.7661 92.06C59.1658 91.9704 59.5483 91.8532 59.9101 91.7051C60.2719 91.5569 60.6027 91.3708 60.8715 91.1469C61.1368 90.9229 61.3367 90.6541 61.4125 90.3888C61.4332 90.3233 61.4435 90.2579 61.447 90.2062L61.4538 90.1028L61.4573 90.0373C61.4607 89.9925 61.4607 89.9512 61.4642 89.9064C61.4642 89.7341 61.447 89.5652 61.4125 89.3998C61.2678 88.7348 60.7819 88.1284 60.1686 87.646C59.8619 87.4047 59.5242 87.1877 59.1693 86.9947C58.9901 86.8982 58.8109 86.8086 58.6249 86.7259C58.4457 86.6432 58.2424 86.564 58.0804 86.5054L57.6738 85.8335L58.0598 83.3043L58.4388 80.7716C58.6869 79.0832 58.9109 77.3913 59.1383 75.6994C59.252 74.8552 59.3554 74.0075 59.4553 73.1633C59.5552 72.3157 59.6483 71.4715 59.7206 70.6341C59.7895 69.7934 59.8309 68.9526 59.855 68.1084C59.8722 67.2642 59.8757 66.4199 59.8584 65.5757C59.7964 62.1954 59.4243 58.8151 58.8833 55.4589C58.6145 53.7808 58.301 52.1062 57.9702 50.4315C57.8117 49.5942 57.6531 48.7534 57.5222 47.9092C57.3878 47.065 57.2707 46.2139 57.2086 45.3524V45.349C57.1949 45.1836 57.3224 45.0354 57.4877 45.0251C57.6049 45.0113 57.7324 45.0974 57.7738 45.2249Z" fill="#371A45"/>
<path d="M58.1321 86.5225C57.8805 86.4984 57.5911 86.4674 57.3154 86.4467C57.0363 86.4261 56.7572 86.4088 56.4781 86.3985C55.9199 86.3744 55.3617 86.3778 54.8034 86.4054C54.2487 86.4399 53.7008 86.5191 53.1564 86.6328C52.6154 86.7534 52.0916 86.936 51.5747 87.16L51.5575 87.1669C51.4059 87.2324 51.2267 87.1635 51.1612 87.0084C51.1061 86.8775 51.1475 86.7293 51.2543 86.65C51.747 86.2745 52.2949 85.9609 52.8772 85.7369C53.022 85.6749 53.1701 85.6335 53.3183 85.5818C53.4665 85.5302 53.6146 85.4854 53.7663 85.4509C53.9179 85.413 54.066 85.3717 54.2177 85.3406L54.6759 85.2579C55.2858 85.158 55.9026 85.1201 56.516 85.127C56.8227 85.1339 57.1293 85.1511 57.436 85.1856C57.7461 85.22 58.039 85.2648 58.3629 85.3441C58.6868 85.4233 58.8832 85.7473 58.8074 86.0712C58.7351 86.3675 58.4594 86.557 58.1665 86.5294L58.1321 86.5225Z" fill="#371A45"/>
<path d="M35.5037 85.3441C35.831 85.2648 36.1205 85.22 36.4306 85.1856C36.7373 85.1511 37.0439 85.1305 37.3506 85.1236C37.964 85.1098 38.5808 85.1511 39.1941 85.2407C39.8075 85.3338 40.4105 85.4992 40.9928 85.7197C41.5751 85.9471 42.123 86.2641 42.6089 86.65C42.7398 86.7534 42.7605 86.9429 42.6571 87.0739C42.571 87.1807 42.4297 87.2152 42.3091 87.1669L42.2884 87.16C41.7647 86.9498 41.2443 86.7672 40.7034 86.65C40.1589 86.5398 39.6145 86.4536 39.0597 86.4226C38.5049 86.3882 37.9467 86.3847 37.3885 86.4019C37.1094 86.4123 36.8303 86.4261 36.5512 86.4502C36.2755 86.4674 35.9861 86.4984 35.7345 86.5226L35.7001 86.526C35.3693 86.557 35.0764 86.3124 35.0454 85.9816C35.0178 85.6818 35.2177 85.413 35.5037 85.3441Z" fill="#371A45"/>
<g opacity="0.25">
<path d="M61.1299 64.3076C60.8921 64.4524 60.6268 64.5523 60.3374 64.5867C58.6627 64.7969 56.3023 64.9451 54.5278 64.4627V65.3517C54.5278 66.5819 53.5595 67.588 52.3776 67.588H40.624C39.4387 67.588 38.4739 66.5819 38.4739 65.3517V64.6419C36.844 64.9003 34.9351 64.7659 33.5154 64.5867C33.2087 64.5488 32.9262 64.442 32.6815 64.2801C32.6953 63.043 32.7401 61.8094 32.8125 60.5931C33.0985 60.4346 33.4224 60.3484 33.7635 60.3484C33.7945 60.3484 33.8255 60.3484 33.86 60.3519C35.1659 60.4174 36.9508 60.4553 38.4773 60.3174V58.722C38.4773 57.4919 39.4456 56.4857 40.6275 56.4857H52.381C53.3252 56.4857 54.1349 57.1266 54.4209 58.0122C54.4933 58.2327 54.5312 58.4705 54.5312 58.7186V60.2106C56.2024 60.4621 58.4422 60.4208 59.9997 60.345C60.0307 60.345 60.0617 60.3415 60.0962 60.3415C60.4201 60.3415 60.7267 60.4208 61.0024 60.5621C61.0713 61.8026 61.1161 63.0534 61.1299 64.3076Z" fill="#371A45"/>
</g>
<path d="M40.021 62.2988C38.2154 63.0568 35.4209 62.8983 33.5154 62.6606C32.3714 62.5158 31.572 61.4201 31.7374 60.2382C31.8924 59.1597 32.8056 58.374 33.8565 58.4257C35.638 58.5118 38.3119 58.5532 40.0038 58.1638" fill="white"/>
<path d="M40.0211 62.2988C38.2155 63.0568 35.421 62.9018 33.5154 62.6606C32.3749 62.5193 31.572 61.4235 31.7374 60.2382C31.7719 59.9866 31.8511 59.7523 31.9614 59.5387C32.2646 60.1245 32.8297 60.5518 33.512 60.6379C35.4141 60.8757 38.2051 61.0376 40.0107 60.2795L40.0211 62.2988Z" fill="#D2D2D2"/>
<path d="M36.4271 63.4601C35.3761 63.4601 34.3321 63.3705 33.4396 63.2568C32.7401 63.1672 32.1164 62.8054 31.6823 62.2368C31.2343 61.651 31.0379 60.893 31.1447 60.1521C31.3446 58.7566 32.523 57.7539 33.8876 57.8228C36.4995 57.9503 38.6255 57.8607 39.8729 57.5747C40.152 57.5092 40.8446 57.4954 41.2478 58.7462C41.6888 60.1073 41.5889 62.292 40.2588 62.8502C39.1734 63.3085 37.7951 63.4601 36.4271 63.4601ZM33.7566 59.0254C33.0433 59.0254 32.4403 59.5732 32.3335 60.3244C32.2715 60.7517 32.3818 61.1721 32.6367 61.5063C32.8745 61.8164 33.2122 62.0163 33.5878 62.0611C36.2893 62.3988 38.4911 62.2885 39.7867 61.7441C39.99 61.6579 40.152 61.3547 40.2278 60.9102C40.3725 60.066 40.1554 59.1046 39.9625 58.7876C38.2292 59.146 35.6863 59.1184 33.8255 59.0254C33.8014 59.0254 33.7807 59.0254 33.7566 59.0254Z" fill="#371A45"/>
<path d="M53.8318 62.2988C55.6374 63.0568 58.4319 62.8983 60.3374 62.6606C61.4814 62.5158 62.2808 61.4201 62.1154 60.2382C61.9604 59.1597 61.0473 58.374 59.9963 58.4257C58.2148 58.5118 55.5409 58.5532 53.849 58.1638" fill="white"/>
<path d="M60.3374 62.6606C58.4319 62.9018 55.6374 63.0603 53.8318 62.2988L53.8387 60.283C55.6443 61.0411 58.4354 60.8791 60.3374 60.6413C61.0231 60.5552 61.5882 60.1245 61.8915 59.5387C62.0017 59.7489 62.0775 59.9866 62.1154 60.2382C62.2843 61.4235 61.4814 62.5158 60.3374 62.6606Z" fill="#D2D2D2"/>
<path d="M57.4257 63.46C56.0577 63.46 54.676 63.3084 53.6009 62.8536C52.2708 62.2954 52.1709 60.1107 52.6119 58.7497C53.0151 57.4988 53.7077 57.5126 53.9868 57.5781C55.2342 57.8641 57.3568 57.9537 59.9721 57.8262C61.3366 57.7573 62.5151 58.76 62.715 60.1555C62.8183 60.8929 62.6219 61.6545 62.1774 62.2402C61.7432 62.8088 61.1196 63.1706 60.4201 63.2602C59.5207 63.3705 58.4766 63.46 57.4257 63.46ZM53.8903 58.7876C53.6974 59.1046 53.4803 60.066 53.625 60.9102C53.7008 61.3547 53.8627 61.6579 54.0661 61.744C55.3617 62.2885 57.5635 62.4022 60.265 62.0611C60.6406 62.0128 60.9783 61.8164 61.216 61.5063C61.4745 61.1686 61.5813 60.7482 61.5193 60.3244C61.409 59.5491 60.7681 58.9943 60.0273 59.0288C58.1665 59.1184 55.6235 59.1459 53.8903 58.7876Z" fill="#371A45"/>
<path d="M54.5312 56.7959V63.4256C54.5312 64.6557 53.563 65.6619 52.3776 65.6619H40.6241C39.4387 65.6619 38.4705 64.6557 38.4705 63.4256V56.7959C38.4705 55.5657 39.4387 54.5596 40.6241 54.5596H52.3776C53.3218 54.5596 54.1315 55.2005 54.4175 56.0861C54.4899 56.3135 54.5312 56.5478 54.5312 56.7959Z" fill="white"/>
<path d="M54.5312 56.7959V63.4255C54.5312 64.6557 53.563 65.6619 52.3776 65.6619H40.6241C39.4387 65.6619 38.4705 64.6557 38.4705 63.4255V61.1961C40.5 62.3608 44.5144 64.1113 48.5494 62.6675C50.5204 61.9611 52.7773 59.5421 52.7773 59.5421C52.7773 59.5421 52.8635 62.0817 53.2287 62.0403C54.2383 61.9301 54.2315 56.7924 54.421 56.0895C54.4899 56.3135 54.5312 56.5478 54.5312 56.7959Z" fill="#D2D2D2"/>
<path d="M52.2398 66.2614H40.7653C39.1699 66.2614 37.8708 64.9624 37.8708 63.367V56.851C37.8708 55.2556 39.1699 53.9565 40.7653 53.9565H52.2398C53.8352 53.9565 55.1342 55.2556 55.1342 56.851V63.367C55.1308 64.9658 53.8352 66.2614 52.2398 66.2614ZM40.7619 55.1626C39.8315 55.1626 39.0734 55.9206 39.0734 56.851V63.367C39.0734 64.2973 39.8315 65.0554 40.7619 65.0554H52.2363C53.1667 65.0554 53.9247 64.2973 53.9247 63.367V56.851C53.9247 55.9206 53.1667 55.1626 52.2363 55.1626H40.7619Z" fill="#371A45"/>
<path d="M50.665 62.037C51.6908 62.037 52.5223 61.1746 52.5223 60.1108C52.5223 59.047 51.6908 58.1846 50.665 58.1846C49.6393 58.1846 48.8077 59.047 48.8077 60.1108C48.8077 61.1746 49.6393 62.037 50.665 62.037Z" fill="#22A7F0"/>
<path d="M52.5223 60.1108C52.5223 60.2417 52.5085 60.3692 52.4844 60.4933C52.3121 59.6112 51.5644 58.9461 50.665 58.9461C49.7657 58.9461 49.0145 59.6112 48.8456 60.4933C48.8215 60.3692 48.8077 60.2417 48.8077 60.1108C48.8077 59.046 49.6382 58.1812 50.665 58.1812C51.6884 58.1846 52.5223 59.046 52.5223 60.1108Z" fill="white"/>
<path d="M52.5223 60.1107C52.5223 61.1755 51.6919 62.0369 50.665 62.0369C49.6416 62.0369 48.8077 61.1755 48.8077 60.1107C48.8077 59.9316 48.8319 59.7593 48.8767 59.5939C49.0937 60.4071 49.8139 61.0032 50.665 61.0032C51.5161 61.0032 52.2363 60.4071 52.4534 59.5939C52.4982 59.7593 52.5223 59.9316 52.5223 60.1107Z" fill="#197BDD"/>
<path d="M50.6651 62.4917C49.3936 62.4917 48.3564 61.4236 48.3564 60.1142C48.3564 58.8048 49.3902 57.7366 50.6651 57.7366C51.9366 57.7366 52.9738 58.8048 52.9738 60.1142C52.9738 61.4236 51.9366 62.4917 50.6651 62.4917ZM50.6651 58.6359C49.8898 58.6359 49.2592 59.2975 49.2592 60.1107C49.2592 60.9239 49.8898 61.5855 50.6651 61.5855C51.4404 61.5855 52.071 60.9239 52.071 60.1107C52.071 59.2975 51.4404 58.6359 50.6651 58.6359Z" fill="#371A45"/>
<path d="M45.4034 66.2615C45.0726 66.2615 44.8004 65.9927 44.8004 65.6584V62.2643C44.8004 61.6131 44.504 60.9929 44.0044 60.6035L43.7046 60.3692C42.9155 59.7524 42.4469 58.7772 42.4469 57.7573V54.5561C42.4469 54.2253 42.7157 53.9531 43.0499 53.9531C43.3807 53.9531 43.6529 54.2219 43.6529 54.5561V57.7573C43.6529 58.4085 43.9493 59.0288 44.4489 59.4181L44.7487 59.6524C45.5378 60.2692 46.0064 61.2444 46.0064 62.2643V65.6584C46.0064 65.9927 45.7376 66.2615 45.4034 66.2615Z" fill="#371A45"/>
<path d="M40.4104 77.4223C38.2878 77.4223 35.9136 77.0398 33.6842 75.8441C33.3913 75.6856 33.281 75.3238 33.4396 75.0309C33.5981 74.738 33.9599 74.6277 34.2528 74.7862C39.8039 77.7634 46.6197 75.1377 46.6886 75.1101C46.9987 74.9895 47.3467 75.1412 47.4708 75.4478C47.5914 75.7579 47.4432 76.106 47.1331 76.23C46.9401 76.3024 44.0457 77.4223 40.4104 77.4223Z" fill="#371A45"/>
<path d="M53.3976 77.4223C49.7657 77.4223 46.8713 76.3024 46.6818 76.2266C46.3717 76.106 46.22 75.7545 46.3441 75.4444C46.4647 75.1343 46.8162 74.9827 47.1263 75.1067C47.1952 75.1343 54.0041 77.76 59.5552 74.7828C59.8481 74.6243 60.2134 74.7346 60.3684 75.0275C60.5269 75.3204 60.4167 75.6856 60.1238 75.8407C57.8943 77.0398 55.5202 77.4223 53.3976 77.4223Z" fill="#371A45"/>
<path d="M41.7301 71.1889C41.7301 71.1889 43.8286 72.1262 46.9022 72.1262C49.9759 72.1262 52.0847 71.1889 52.0847 71.1889C52.0847 71.1889 50.6926 70.0897 46.9022 70.0897C43.1153 70.0863 41.7301 71.1889 41.7301 71.1889Z" fill="white"/>
<path d="M41.0789 70.8305C41.5475 70.9545 42.0472 71.0717 42.5365 71.1647C43.0292 71.2612 43.522 71.3405 44.0182 71.4059C44.5144 71.4611 45.0106 71.5265 45.5067 71.5472C45.7548 71.5645 46.0029 71.5748 46.251 71.5851C46.4991 71.5955 46.7472 71.592 46.9988 71.5955C47.495 71.592 47.9946 71.5817 48.4908 71.5403C48.9904 71.5196 49.4832 71.4507 49.9794 71.3956C50.2275 71.3646 50.4756 71.3267 50.7202 71.2853C50.9683 71.2474 51.2164 71.2061 51.4611 71.1544C51.9504 71.0648 52.4534 70.9477 52.9221 70.8236L52.9393 70.8202C53.1012 70.7788 53.2666 70.8753 53.308 71.0372C53.3424 71.1716 53.2804 71.3095 53.1667 71.3749C52.6843 71.6506 52.2019 71.8436 51.6988 72.0227C51.1957 72.195 50.6858 72.3432 50.1654 72.4535C49.6486 72.5706 49.1214 72.6499 48.5907 72.7084C48.0601 72.7636 47.5294 72.7877 46.9953 72.7946C45.9306 72.7843 44.8658 72.6809 43.8286 72.45C43.3083 72.3398 42.7984 72.1916 42.2953 72.0193C41.7922 71.8401 41.3063 71.6471 40.8274 71.3715C40.6826 71.2888 40.631 71.1062 40.7137 70.9614C40.7826 70.8408 40.9239 70.7823 41.0548 70.8202L41.0789 70.8305Z" fill="#371A45"/>
<g opacity="0.3">
<path d="M62.0327 90.1717C62.0258 90.2509 61.826 93.2729 53.7491 92.9731C50.3274 92.8456 48.3805 92.1875 47.5467 90.3888C47.2538 89.7547 47.0918 88.4005 47.0057 86.9878L46.9299 81.5641L46.8024 86.9878C46.7128 88.4005 46.5508 89.7582 46.2614 90.3888C45.4275 92.1909 43.4806 92.8456 40.059 92.9731C31.9855 93.2763 31.7857 90.2509 31.7753 90.1717C31.734 89.7513 31.7822 89.3654 31.8994 89.0104C32.1923 89.4894 33.064 90.182 35.6243 90.5335C39.7799 91.102 44.2422 90.5955 44.9968 87.832C45.5653 85.7542 46.506 74.5795 43.3463 73.2322C38.4636 71.1441 36.6718 69.4694 38.0294 69.1972C38.7186 69.0594 40.5379 69.6314 46.9057 69.6314C53.2735 69.6314 55.0929 69.0594 55.7821 69.1972C57.1397 69.466 55.3479 71.1441 50.4652 73.2322C47.3089 74.5795 48.2462 85.7542 48.8147 87.832C49.5728 90.5955 54.0351 91.102 58.1872 90.5335C60.7474 90.182 61.6192 89.4894 61.9121 89.0104C62.0258 89.3654 62.0741 89.7513 62.0327 90.1717Z" fill="#371A45"/>
</g>
<path d="M68.3213 30.8456L67.5219 30.7939C67.3151 30.7801 67.1566 30.6009 67.1704 30.3942L67.9836 17.4622C67.9974 17.2554 68.1766 17.0969 68.3833 17.1107L69.1827 17.1624C71.3536 17.3002 73.0007 19.1678 72.8663 21.3387L72.501 27.1586C72.3597 29.3363 70.4921 30.9834 68.3213 30.8456Z" fill="white"/>
<path d="M68.5728 30.9766C68.4867 30.9766 68.4005 30.9731 68.311 30.9697L67.5115 30.918C67.3806 30.9111 67.2565 30.8491 67.1704 30.7526C67.0842 30.6527 67.0395 30.5252 67.0463 30.3942L67.8595 17.4622C67.8664 17.3313 67.9285 17.2072 68.0284 17.1211C68.1283 17.0349 68.2558 16.9901 68.3868 16.997L69.1862 17.0487C70.2682 17.1176 71.2571 17.6035 71.9738 18.4167C72.6905 19.2299 73.0489 20.274 72.98 21.3559L72.6147 27.1759C72.5458 28.2578 72.06 29.2468 71.2468 29.9635C70.5025 30.6216 69.5618 30.9766 68.5728 30.9766ZM68.3282 30.725C69.3447 30.7905 70.3267 30.4528 71.0917 29.7774C71.8567 29.1021 72.3115 28.1717 72.377 27.1552L72.7422 21.3353C72.8077 20.3188 72.47 19.3367 71.7946 18.5718C71.1193 17.8068 70.1889 17.3519 69.1724 17.2865L68.373 17.2348C68.3041 17.2313 68.2386 17.252 68.1903 17.2968C68.1387 17.3416 68.1076 17.4036 68.1042 17.4725L67.291 30.4046C67.2876 30.4735 67.3082 30.5389 67.353 30.5872C67.3978 30.6354 67.4598 30.6699 67.5288 30.6733L68.3282 30.725Z" fill="#371A45"/>
<path d="M72.6732 24.3883L72.5458 26.4351C72.3838 29.0057 70.1682 30.9629 67.5942 30.8009C67.3495 30.7871 67.1634 30.5735 67.1772 30.3288L67.3909 26.9278C67.4494 27.0864 67.5976 27.2035 67.7768 27.2173L68.08 27.2345C70.113 27.362 71.9221 26.1698 72.6732 24.3883Z" fill="#D2D2D2"/>
<path d="M68.5728 31.5279C68.4728 31.5279 68.3763 31.5244 68.2764 31.5176L67.477 31.4659C67.1979 31.4486 66.9429 31.3246 66.7568 31.1144C66.5708 30.9042 66.4777 30.6354 66.4949 30.3563L67.3082 17.4243C67.3254 17.1452 67.4529 16.8868 67.6596 16.7041C67.8698 16.5181 68.1386 16.425 68.4211 16.4457L69.2206 16.4974C70.4507 16.5732 71.574 17.1245 72.3907 18.0514C73.2039 18.9749 73.6105 20.1603 73.5347 21.3904L73.1694 27.2103C73.0936 28.4405 72.5423 29.5638 71.6154 30.3804C70.7677 31.1247 69.6961 31.5279 68.5728 31.5279ZM68.3626 30.1737C69.2343 30.2288 70.0717 29.9428 70.7264 29.3639C71.3811 28.7885 71.7704 27.9925 71.8256 27.1207L72.1908 21.3008C72.246 20.4325 71.96 19.5917 71.3811 18.937C70.8056 18.2823 70.0096 17.8929 69.1379 17.8378L68.6382 17.8068L67.8629 30.1427L68.3626 30.1737Z" fill="#371A45"/>
<path d="M25.4971 14.4197L26.2965 14.4714C26.5033 14.4851 26.6618 14.6643 26.648 14.8711L25.8348 27.8031C25.821 28.0098 25.6418 28.1683 25.4351 28.1546L24.6357 28.1029C22.4648 27.965 20.8177 26.0974 20.9521 23.9266L21.3208 18.0998C21.4587 15.9289 23.3263 14.2818 25.4971 14.4197Z" fill="white"/>
<path d="M25.4592 28.2717C25.4489 28.2717 25.4385 28.2717 25.4282 28.2717L24.6288 28.22C22.3959 28.0787 20.6937 26.1491 20.835 23.9162L21.2002 18.0963C21.3415 15.8635 23.2711 14.1612 25.504 14.2991L26.3034 14.3508C26.5756 14.368 26.7858 14.6057 26.7686 14.878L25.9554 27.81C25.9382 28.0684 25.7211 28.2717 25.4592 28.2717ZM25.249 14.5299C23.2539 14.5299 21.5689 16.0874 21.4414 18.1067L21.0762 23.93C20.9452 26.0285 22.5441 27.8444 24.646 27.9788L25.4454 28.0305C25.5867 28.0408 25.7073 27.934 25.7142 27.7927L26.5274 14.8607C26.5377 14.7195 26.4309 14.5989 26.2896 14.592L25.4902 14.5403C25.4075 14.5334 25.3283 14.5299 25.249 14.5299Z" fill="#371A45"/>
<path d="M26.0622 24.1781L25.8382 27.7272C25.8245 27.9719 25.6108 28.1579 25.3662 28.1441C24.0154 28.058 22.8335 27.4067 22.041 26.435C21.3243 25.5564 20.9245 24.4158 21.0004 23.1926L21.1175 21.356C21.7481 23.0134 23.3021 24.2401 25.1904 24.3607L25.6556 24.3882C25.8279 24.3986 25.9761 24.3124 26.0622 24.1781Z" fill="#D2D2D2"/>
<path d="M25.4592 28.823C25.4385 28.823 25.4144 28.823 25.3937 28.8196L24.5943 28.7679C22.0582 28.6094 20.1217 26.4144 20.2836 23.8783L20.6489 18.0584C20.8074 15.5223 22.9989 13.5858 25.5419 13.7443L26.3413 13.796C26.9202 13.8339 27.3578 14.3335 27.3234 14.909L26.5102 27.841C26.4723 28.3958 26.0105 28.823 25.4592 28.823ZM25.249 15.0847C23.5433 15.0847 22.103 16.4182 21.9927 18.1446L21.6275 23.9645C21.5138 25.7597 22.8852 27.3138 24.6804 27.4275L25.1835 27.4585L25.9588 15.1226L25.4557 15.0916C25.3868 15.0847 25.3179 15.0847 25.249 15.0847Z" fill="#371A45"/>
<path d="M46.9126 44.4772C58.9761 44.4772 68.7554 34.6979 68.7554 22.6344C68.7554 10.571 58.9761 0.791626 46.9126 0.791626C34.8492 0.791626 25.0698 10.571 25.0698 22.6344C25.0698 34.6979 34.8492 44.4772 46.9126 44.4772Z" fill="white"/>
<path d="M46.9263 44.5978C45.9546 44.5978 44.9691 44.5323 43.9802 44.4014C38.1672 43.6192 33.0054 40.6179 29.4459 35.9523C25.8899 31.2867 24.3634 25.515 25.1456 19.702C25.9278 13.889 28.929 8.7272 33.5912 5.16771C38.2568 1.61166 44.0285 0.0851808 49.8415 0.867373C61.8431 2.48344 70.2922 13.5616 68.6796 25.5633C67.1944 36.576 57.7461 44.5978 46.9263 44.5978ZM46.8678 0.908722C42.1402 0.908722 37.5642 2.44554 33.7393 5.36412C29.1254 8.87881 26.1586 13.9855 25.3833 19.7365C24.608 25.4875 26.1207 31.1937 29.6389 35.8076C33.157 40.4215 38.2602 43.3883 44.0112 44.1636C55.8819 45.7625 66.8395 37.403 68.4349 25.5357C70.0338 13.665 61.6777 2.70742 49.807 1.11202C48.825 0.974192 47.8429 0.908722 46.8678 0.908722Z" fill="#371A45"/>
<path d="M68.7554 22.5241C68.7623 23.5199 68.6968 24.5295 68.559 25.5495C66.9464 37.5029 55.9509 45.8899 43.9975 44.2842C32.0441 42.6681 23.6571 31.6726 25.2628 19.7192C25.3076 19.3746 25.3627 19.0335 25.4247 18.6958C25.4661 29.4294 33.4155 38.7606 44.3524 40.2319C55.9647 41.7929 66.6707 33.9296 68.7554 22.5241Z" fill="#D2D2D2"/>
<path d="M46.9264 45.1491C45.9305 45.1491 44.9209 45.0836 43.9079 44.9458C37.9467 44.1429 32.6574 41.0693 29.0083 36.2866C25.3627 31.5038 23.7948 25.5874 24.5977 19.6297C25.4006 13.6685 28.4742 8.37919 33.257 4.73011C38.0397 1.08103 43.9561 -0.486803 49.9173 0.31951C62.2187 1.97348 70.8814 13.3342 69.2275 25.6357C67.7079 36.9275 58.0183 45.1491 46.9264 45.1491ZM46.8678 1.46006C42.2608 1.46006 37.8019 2.95898 34.0736 5.80175C29.5769 9.2303 26.6858 14.206 25.9312 19.8088C25.1766 25.4117 26.6514 30.9732 30.0799 35.4699C33.5085 39.9667 38.4842 42.8577 44.087 43.6123C55.6545 45.1698 66.333 37.024 67.8905 25.4565C69.448 13.889 61.3022 3.21052 49.7347 1.65303C48.7767 1.52553 47.8188 1.46006 46.8678 1.46006Z" fill="#371A45"/>
<path d="M68.4143 26.0939C67.9078 30.3391 66.0609 34.1122 63.3146 37.0928C61.2574 39.3257 53.4838 42.737 44.5075 41.7481C36.1859 40.8315 29.1497 35.4974 27.6749 32.8407C25.7073 29.2985 24.8011 25.1945 25.3076 20.9493C26.648 9.71954 36.851 6.21174 48.7562 7.63485C60.6613 9.05451 69.7547 14.8641 68.4143 26.0939Z" fill="#371A45"/>
<path d="M47.7947 42.6027C46.7058 42.6027 45.586 42.5442 44.4385 42.4201C35.7793 41.4656 28.6499 35.9765 27.089 33.1716C24.9802 29.3744 24.1325 25.1223 24.6391 20.8736C25.3006 15.3259 28.0366 11.315 32.7676 8.9478C36.8854 6.89067 42.44 6.20496 48.8353 6.96647C55.2272 7.72799 60.4683 9.70242 63.9864 12.6692C68.0318 16.0806 69.7443 20.6255 69.0827 26.1733C68.5762 30.4219 66.7534 34.357 63.8107 37.5478C62.012 39.5015 55.7717 42.6027 47.7947 42.6027ZM43.9285 8.01054C39.8039 8.01054 36.21 8.73416 33.3741 10.1538C29.0703 12.304 26.5825 15.9634 25.976 21.0321C25.5039 24.9982 26.293 28.9678 28.264 32.5135C29.663 35.0289 36.496 40.1872 44.5832 41.0763C45.6652 41.1969 46.7299 41.2485 47.7637 41.2485C55.2686 41.2485 61.2195 38.3713 62.8217 36.6312C65.5715 33.6472 67.2737 29.974 67.7458 26.0079C68.3488 20.9391 66.7947 16.7973 63.1181 13.6961C59.8032 10.8981 54.8069 9.0305 48.6768 8.29999C47.0297 8.10703 45.4412 8.01054 43.9285 8.01054Z" fill="#371A45"/>
<g opacity="0.7">
<path d="M64.271 24.5576C64.8979 22.5165 64.2072 20.4937 62.7282 20.0394C61.2493 19.5852 59.5422 20.8715 58.9153 22.9126C58.2884 24.9537 58.9791 26.9765 60.458 27.4308C61.937 27.885 63.6441 26.5987 64.271 24.5576Z" fill="white"/>
</g>
<g opacity="0.7">
<path d="M58.66 31.5743C59.0745 30.6862 58.7925 29.6779 58.0303 29.3221C57.268 28.9664 56.3141 29.398 55.8996 30.2862C55.4852 31.1743 55.7671 32.1827 56.5293 32.5384C57.2916 32.8941 58.2455 32.4625 58.66 31.5743Z" fill="white"/>
</g>
<g opacity="0.35">
<path d="M65.4716 15.1157C67.8078 17.9447 68.9518 21.5835 68.4143 26.094C67.9077 30.3392 66.0608 34.1158 63.3145 37.0929C61.2574 39.3258 53.4837 42.7371 44.5074 41.7482C41.3373 41.4001 38.3567 40.4112 35.7965 39.1707C46.8575 40.1493 56.3265 35.9558 58.8798 33.1854C62.3635 29.4054 64.7101 24.6123 65.351 19.2265C65.5233 17.7862 65.5577 16.4182 65.4716 15.1157Z" fill="#111A28"/>
</g>
<path d="M67.7355 16.6973C67.5632 16.6973 67.3909 16.6318 67.2599 16.5009C67.2496 16.4906 67.2393 16.4802 67.2289 16.4699L67.1772 16.4113L67.1393 16.3458C64.1139 10.8222 57.4395 7.0629 48.8216 6.03606C40.1589 5.00232 32.7815 7.18006 28.5811 12.011L28.5328 12.0593C28.2606 12.3143 27.8333 12.3039 27.5783 12.0317C27.3337 11.7698 27.3337 11.3701 27.5749 11.1117C32.0716 5.94991 39.8729 3.61023 48.9766 4.69909C58.0149 5.77762 65.0581 9.77473 68.3006 15.6705C68.4625 15.9289 68.4315 16.2769 68.2041 16.5043C68.08 16.6318 67.9077 16.6973 67.7355 16.6973Z" fill="#371A45"/>
<g opacity="0.7">
<path d="M29.3495 28.2097C29.3495 28.2097 27.1924 16.7145 33.6912 13.0138C40.1899 9.31301 48.7768 10.3536 48.5115 10.8808C48.5115 10.8808 38.7254 12.049 34.1081 19.1231C30.5486 24.5778 29.3495 28.2097 29.3495 28.2097Z" fill="white"/>
</g>
<g opacity="0.35">
<path d="M21.4448 84.0761L20.7557 85.6163C20.3973 85.5646 20.0458 85.5129 19.6978 85.4578L20.3181 84.0795L18.4194 83.3938L18.5504 83.032L21.4448 84.0761Z" fill="#371A45"/>
</g>
<path d="M65.7369 89.2517L61.7605 95.0062L60.9059 96.2398C60.3684 97.0185 59.5793 97.5836 58.6696 97.8455C50.9373 100.065 42.7329 100.065 35.0005 97.8455C34.5457 97.7146 34.1218 97.5078 33.7428 97.2356C33.3638 96.9634 33.033 96.6291 32.7642 96.2398L31.9097 95.0062L27.9332 89.2517H65.7369Z" fill="#FFCB4A"/>
<g opacity="0.35">
<path d="M65.7369 89.2517L61.7604 95.0062C51.9434 97.2976 41.7301 97.2976 31.9131 95.0062L27.9366 89.2517H65.7369Z" fill="#371A45"/>
</g>
<g opacity="0.35">
<path d="M65.7369 89.2517L61.7605 95.0062L60.9059 96.2398C60.3684 97.0185 59.5793 97.5836 58.6696 97.8455C50.9373 100.065 42.7329 100.065 35.0005 97.8455C34.5457 97.7146 34.1218 97.5078 33.7428 97.2356C33.3638 96.9634 33.033 96.6291 32.7642 96.2398L31.9097 95.0062L27.9332 89.2517H28.6258L31.9062 94L32.7608 95.2336C33.0295 95.623 33.3603 95.9572 33.7394 96.2294C34.1184 96.5016 34.5422 96.7084 34.9971 96.8393C42.7294 99.0584 50.9338 99.0584 58.6661 96.8393C59.5758 96.5774 60.3649 96.0123 60.9025 95.2336L61.757 94L65.0374 89.2517H65.7369Z" fill="white"/>
</g>
<path d="M46.8369 100.113C42.7984 100.113 38.7634 99.5477 34.8352 98.4209C33.7946 98.1212 32.8849 97.4665 32.2716 96.5774L27.444 89.5894C27.3165 89.4068 27.3027 89.1656 27.4061 88.9692C27.5095 88.7693 27.7162 88.6453 27.9402 88.6453H65.7404C65.9644 88.6453 66.1677 88.7693 66.2745 88.9692C66.3779 89.1656 66.3641 89.4068 66.2366 89.5894L61.4091 96.5774C60.7957 97.4665 59.8826 98.1212 58.8454 98.4209C54.9103 99.5512 50.8753 100.113 46.8369 100.113ZM29.0842 89.8547L33.2605 95.8986C33.7188 96.5602 34.3942 97.0461 35.166 97.2666C42.7984 99.4581 50.8684 99.4581 58.5043 97.2666C59.2761 97.0461 59.955 96.5602 60.4098 95.8986L64.5861 89.8547H29.0842Z" fill="#371A45"/>
<path d="M64.972 92.5251C53.1219 95.9296 40.5517 95.9296 28.6982 92.5251C27.3061 92.1254 26.0967 91.2571 25.2731 90.0648L17.8716 79.3553H75.7986L68.3971 90.0648C67.577 91.2536 66.3641 92.1254 64.972 92.5251Z" fill="#B65CE0"/>
<path d="M75.7986 79.3553L70.406 87.1566L68.3971 90.0614C67.5735 91.2536 66.3641 92.122 64.972 92.5217C53.1219 95.9261 40.5517 95.9261 28.6982 92.5217C28.0022 92.3218 27.3509 92.0048 26.772 91.5879C26.1931 91.1709 25.6832 90.6541 25.2731 90.0614L23.2642 87.1566L17.8716 79.3553H75.7986Z" fill="#FFCB4A"/>
<g opacity="0.35">
<path d="M75.7986 79.3553L70.406 87.1566L68.3971 90.0614C67.5735 91.2536 66.3641 92.122 64.972 92.5217C53.1219 95.9261 40.5517 95.9261 28.6982 92.5217C28.0022 92.3218 27.3509 92.0048 26.772 91.5879C26.1931 91.1709 25.6832 90.6541 25.2731 90.0614L23.2642 87.1566L17.8716 79.3553H18.6469L23.2642 86.0367L25.2731 88.9415C25.6832 89.5376 26.1931 90.0511 26.772 90.468C27.3544 90.8849 28.0022 91.2019 28.6982 91.4018C40.5483 94.8062 53.1185 94.8062 64.972 91.4018C66.3641 91.0021 67.5735 90.1337 68.3971 88.9415L70.406 86.0367L75.0233 79.3553H75.7986Z" fill="white"/>
</g>
<g opacity="0.35">
<path d="M75.7986 79.3553L70.406 87.1566C69.6617 87.6907 68.8002 88.0904 67.8699 88.3282C54.1246 91.8566 39.5455 91.8566 25.8003 88.3282C24.994 88.1214 24.2394 87.7906 23.564 87.3599C23.4606 87.2944 23.3607 87.2255 23.2642 87.1566L17.8716 79.3553H75.7986Z" fill="#371A45"/>
</g>
<path d="M46.8368 95.6814C40.6792 95.6814 34.5216 94.8234 28.5363 93.104C27.0132 92.6664 25.6797 91.7085 24.7804 90.4059L17.3788 79.6965C17.2513 79.5138 17.2376 79.2726 17.3409 79.0762C17.4443 78.8764 17.651 78.7523 17.875 78.7523H75.802C76.026 78.7523 76.2293 78.8764 76.3361 79.0762C76.4395 79.2726 76.4257 79.5138 76.2982 79.6965L68.8967 90.4059C67.9973 91.7085 66.6638 92.6664 65.1408 93.104C59.152 94.82 52.9944 95.6814 46.8368 95.6814ZM19.0225 79.9549L25.7693 89.7202C26.5101 90.7953 27.6128 91.5844 28.8671 91.9462C40.6241 95.3231 53.0495 95.3231 64.8065 91.9462C66.0608 91.5844 67.16 90.7953 67.9043 89.7202L74.6511 79.9549H19.0225Z" fill="#371A45"/>
<g opacity="0.35">
<path d="M48.4632 86.4088L48.4287 87.3116C48.1083 87.3151 47.7844 87.3151 47.4604 87.3151L47.4984 86.4054H48.4632V86.4088Z" fill="#371A45"/>
</g>
<g opacity="0.5">
<path d="M32.6092 53.3122C32.6161 53.3191 32.6195 53.3259 32.6264 53.3328L32.6057 53.3087L32.6092 53.3122Z" fill="white"/>
<path d="M32.6263 53.3329L33.0261 53.7808C32.8882 53.6361 32.7538 53.4879 32.6263 53.3329Z" fill="white"/>
</g>
<g opacity="0.3">
<path d="M32.6161 52.082L33.0365 52.5541C32.8883 52.4025 32.747 52.244 32.6161 52.082Z" fill="#0F2675"/>
<path d="M60.582 52.5541L60.9921 52.0958C60.8611 52.2543 60.7233 52.4059 60.582 52.5541Z" fill="#0F2675"/>
<path d="M61.0093 52.0751L61.0127 52.0717L60.9921 52.0958C60.999 52.0889 61.0024 52.082 61.0093 52.0751Z" fill="#0F2675"/>
</g>
<path d="M91.6802 80.3168C91.6802 80.3202 91.6767 80.3202 91.6767 80.3202C87.8588 84.786 69.2034 88.1766 46.7713 88.1766C23.0402 88.1766 3.53711 84.3828 1.35593 79.5346C0.694344 78.4457 0.694344 74.7863 1.35593 73.7009C1.22155 74.0007 1.15263 74.3039 1.15263 74.6106C1.15263 75.8924 2.35866 77.1157 4.55017 78.2321C5.08771 78.5078 5.68039 78.7731 6.33164 79.035C13.9537 82.081 29.2047 84.1623 46.7748 84.1623C64.4206 84.1623 79.7302 82.0638 87.3178 78.9936C87.9312 78.749 88.4928 78.494 88.9994 78.2321C91.1874 77.1157 92.3969 75.8924 92.3969 74.6106C92.3969 74.0351 92.1523 73.4666 91.6836 72.9187C93.6271 74.7002 92.6829 79.3485 91.6802 80.3168Z" fill="#009EFF"/>
<g opacity="0.35">
<path d="M92.3383 75.0861C92.3762 75.2446 92.3934 75.4031 92.3934 75.5616C92.3934 76.8434 91.1874 78.0667 88.9959 79.1831C88.4894 79.445 87.9277 79.6965 87.3144 79.9446C79.7268 83.0148 64.4206 85.1133 46.7713 85.1133C29.2013 85.1133 13.9502 83.032 6.32818 79.986C5.67693 79.7241 5.08425 79.4588 4.54671 79.1831C2.35864 78.0667 1.14917 76.8434 1.14917 75.5616C1.14917 75.4031 1.1664 75.2446 1.2043 75.0861C1.46618 76.1956 2.62741 77.2535 4.54326 78.2286C5.08081 78.5043 5.67693 78.7696 6.32473 79.0315C13.9468 82.0775 29.1978 84.1588 46.7679 84.1588C64.4171 84.1588 79.7233 82.0603 87.3109 78.9901C87.9243 78.742 88.4859 78.4905 88.9925 78.2286C90.9118 77.2535 92.0764 76.1956 92.3383 75.0861Z" fill="white"/>
</g>
<path d="M91.6803 80.3167C91.6768 80.3202 91.6768 80.3202 91.6768 80.3202C87.8589 84.7859 69.2034 88.1766 46.7714 88.1766C23.0403 88.1766 3.53718 84.3828 1.356 79.5345C0.945953 78.8557 0.790893 77.1776 0.890821 75.7442C0.952845 76.6022 1.10791 77.374 1.356 77.7807C3.53718 82.6323 23.0403 86.4227 46.7714 86.4227C69.2034 86.4227 87.8554 83.032 91.6768 78.5663C91.6768 78.5663 91.6803 78.5663 91.6803 78.5628C92.1558 78.1011 92.6209 76.8089 92.7657 75.3893C92.9965 77.3706 92.3522 79.6689 91.6803 80.3167Z" fill="#197BDD"/>
<path d="M92.459 74.607C92.459 75.8889 91.253 77.1121 89.0649 78.2286C88.5549 78.4904 87.9933 78.7454 87.3799 78.9901C80.0197 81.9672 65.3958 84.0313 48.4219 84.1519C47.8982 84.1553 47.3675 84.1553 46.8369 84.1553C46.289 84.1553 45.7411 84.1553 45.1967 84.1519C28.3192 84.0278 13.7746 81.981 6.39373 79.028C5.74248 78.7661 5.1498 78.5008 4.61226 78.2251C2.42419 77.1087 1.21472 75.8889 1.21472 74.6036C1.21472 74.2969 1.41802 73.6939 1.41802 73.6939L20.7592 62.8328L20.9832 62.7088L22.8473 61.6612L23.4124 61.3442L24.5358 60.7171C24.6254 60.7585 24.7184 60.7964 24.8149 60.8377C28.4019 62.3332 36.913 63.3841 46.8403 63.3841C57.281 63.3841 66.1573 62.2229 69.3826 60.6034L69.6686 60.7585L70.5576 61.2443L70.8023 61.3787L72.8491 62.5055L73.39 62.8018L91.7492 72.9083C91.7492 72.9083 91.7526 72.9083 91.7526 72.9117C91.887 73.0702 92.0042 73.2287 92.0972 73.3907C92.1006 73.3976 92.1075 73.401 92.1075 73.4079C92.3384 73.8042 92.459 74.2039 92.459 74.607Z" fill="#009EFF"/>
<g opacity="0.35">
<path d="M73.3831 62.8053C71.1881 65.6826 60.2374 67.8706 47.0608 67.8706C33.9289 67.8706 23.0127 65.6998 20.7626 62.8364L20.9865 62.7123L22.8507 61.6648L23.4158 61.3478L24.5391 60.7206C24.6287 60.762 24.7218 60.7999 24.8183 60.8412C28.4053 62.3367 36.9164 63.3877 46.8437 63.3877C57.2844 63.3877 66.1607 62.2265 69.386 60.6069L69.672 60.762L70.561 61.2478L70.8056 61.3822L72.8524 62.509L73.3831 62.8053Z" fill="white"/>
</g>
<g opacity="0.35">
<path d="M92.104 73.4114C92.1006 73.4045 92.0972 73.401 92.0937 73.3941C92.0834 73.3769 92.073 73.3597 92.0627 73.3459C91.9731 73.2012 91.8697 73.0599 91.7491 72.9186C91.7491 72.9152 91.7457 72.9152 91.7457 72.9152L70.8022 61.3821L69.672 60.7585L69.386 60.6034C66.1608 62.2229 57.2844 63.3841 46.8437 63.3841C36.9164 63.3841 28.4053 62.3332 24.8183 60.8377C24.7218 60.7964 24.6288 60.7585 24.5392 60.7171L22.8542 61.6647L1.73501 73.5216L1.42144 73.6974C1.42144 73.6974 1.21814 74.3004 1.21814 74.607C1.21814 74.6518 1.21814 74.6966 1.22159 74.7414C1.22503 74.7759 1.22848 74.8103 1.23192 74.8448C1.23537 74.8862 1.24226 74.9241 1.24915 74.9654C1.25604 75.0102 1.26638 75.0516 1.27672 75.0964C1.2905 75.1618 1.31118 75.2307 1.3353 75.2996C1.68677 76.3299 2.82387 77.3154 4.61223 78.2286C5.14978 78.5042 5.7459 78.7696 6.39715 79.0314C13.778 81.9845 28.3227 84.0278 45.2001 84.1519C45.7445 84.1553 46.2924 84.1588 46.8403 84.1588C47.3709 84.1588 47.8981 84.1553 48.4253 84.1519C65.4027 84.0313 80.0231 81.9672 87.3833 78.9901C87.9967 78.742 88.5583 78.4904 89.0683 78.2286C90.8773 77.3051 92.0179 76.3093 92.3556 75.2686C92.3659 75.2411 92.3728 75.2135 92.3832 75.1859C92.3969 75.1446 92.4038 75.1032 92.4142 75.0653C92.4211 75.0378 92.428 75.0102 92.4314 74.9792C92.4348 74.9723 92.4348 74.9654 92.4348 74.9585C92.4417 74.9241 92.4452 74.8896 92.4486 74.8551C92.4555 74.8104 92.459 74.7656 92.459 74.7208C92.4624 74.6829 92.4624 74.6449 92.4624 74.607C92.459 74.2039 92.3384 73.8042 92.104 73.4114ZM89.0614 75.6994C88.5515 75.9612 87.9898 76.2128 87.3764 76.4609C80.0163 79.438 65.3924 81.5021 48.4184 81.6227C47.8947 81.6261 47.364 81.6295 46.8334 81.6295C46.2855 81.6295 45.7376 81.6261 45.1932 81.6227C28.3158 81.4986 13.7711 79.4518 6.39026 76.5022C5.739 76.2403 5.14288 75.975 4.60534 75.6994C4.59845 75.6959 4.58811 75.6925 4.58122 75.6856C3.60951 75.1859 3.58884 73.8007 4.54332 73.2666L22.8439 62.9879L24.5288 62.0403C24.6184 62.0816 24.7115 62.123 24.808 62.1609C28.395 63.6564 36.9061 64.7073 46.8334 64.7073C57.2741 64.7073 66.1504 63.5461 69.3757 61.9266L69.6617 62.0816L70.7919 62.7053L89.5438 73.0289C90.4845 73.5492 90.5018 74.9068 89.5611 75.4306C89.4026 75.5202 89.2372 75.6098 89.0614 75.6994Z" fill="white"/>
</g>
<path d="M46.7713 88.7762C35.3038 88.7762 24.329 87.8837 15.8696 86.2642C9.82568 85.1064 2.32077 83.0493 0.821853 79.8137C0.0741185 78.5112 0.0775643 74.645 0.842528 73.3873C1.00793 73.1151 1.35595 73.0186 1.6385 73.1668C1.92106 73.315 2.03821 73.6561 1.90727 73.949C1.80735 74.173 1.75566 74.39 1.75566 74.6106C1.75566 75.6064 2.81696 76.6711 4.8224 77.698C5.33583 77.9599 5.91816 78.2217 6.55563 78.4767C14.3982 81.6124 29.8112 83.5593 46.7748 83.5593C63.8314 83.5593 79.2823 81.5952 87.0904 78.4354C87.6831 78.1976 88.2344 77.9495 88.7237 77.698C90.7326 76.6746 91.7939 75.6064 91.7939 74.6106C91.7939 74.1902 91.6044 73.7526 91.2254 73.3115C91.0186 73.0703 91.0358 72.7085 91.2667 72.488C91.4941 72.2674 91.8559 72.264 92.0902 72.4776C93.1584 73.4562 93.4031 75.0034 93.4169 76.1267C93.441 77.9668 92.8724 79.9825 92.1213 80.7337C89.6024 83.6488 82.1388 85.4855 76.312 86.5192C68.0628 87.9733 57.5739 88.7762 46.7713 88.7762ZM1.45932 76.747C1.46966 77.7807 1.60749 78.7903 1.86937 79.221C1.88315 79.2417 1.89349 79.2624 1.90383 79.2865C2.86865 81.4263 8.04076 83.5386 16.097 85.0823C24.4875 86.688 35.3796 87.5736 46.7748 87.5736C68.3867 87.5736 87.4936 84.2863 91.2219 79.9274C91.2322 79.9136 91.2426 79.9033 91.2564 79.8895C91.2598 79.8861 91.2633 79.8826 91.2667 79.8792C91.6423 79.5174 92.1385 78.1459 92.2074 76.6022C91.5906 77.3569 90.6086 78.0805 89.275 78.7593C88.7513 79.0281 88.1689 79.2899 87.5418 79.5415C79.5993 82.7564 63.9761 84.7549 46.7748 84.7549C29.6699 84.7549 14.0847 82.7736 6.10768 79.5863C5.43575 79.3175 4.81896 79.0384 4.27453 78.7593C3.02026 78.1253 2.08301 77.4533 1.45932 76.747Z" fill="#371A45"/>
<path d="M46.8368 84.7618C46.2855 84.7618 45.7376 84.7583 45.1932 84.7549C28.7878 84.6343 13.8366 82.6564 6.16974 79.5897C5.49437 79.3209 4.87757 79.0418 4.33658 78.7627C1.86596 77.5015 0.611694 76.1025 0.611694 74.6036C0.611694 74.228 0.794321 73.6664 0.849453 73.501C0.897694 73.3597 0.994176 73.2425 1.12512 73.1702L24.2394 60.1865C24.4083 60.0934 24.6116 60.0831 24.7838 60.1658C24.8665 60.2037 24.9527 60.2416 25.0423 60.2761C28.6845 61.7956 37.2403 62.7777 46.8368 62.7777C56.9192 62.7777 65.8713 61.6854 69.1104 60.059C69.2861 59.9694 69.4963 59.9728 69.6686 60.0693L71.0848 60.8481L92.0283 72.3811C92.0937 72.4155 92.1523 72.4638 92.2005 72.5189C92.3522 72.6981 92.4865 72.8773 92.5968 73.0599C92.6037 73.0702 92.614 73.084 92.6209 73.0978C92.9138 73.5871 93.062 74.0936 93.062 74.6036C93.062 76.1025 91.8077 77.5015 89.3371 78.7627C88.8168 79.028 88.2344 79.2933 87.6039 79.5449C79.9611 82.6392 64.9479 84.6343 48.4253 84.7514C47.8981 84.7583 47.3675 84.7618 46.8368 84.7618ZM1.92454 74.1074C1.86596 74.3107 1.81772 74.5209 1.81772 74.607C1.81772 75.6029 2.87902 76.6676 4.88446 77.6945C5.39444 77.9564 5.98022 78.2182 6.61769 78.4732C14.1502 81.4848 28.936 83.4317 45.2001 83.5523C46.2648 83.5592 47.3468 83.5592 48.415 83.5523C64.7962 83.4351 79.6407 81.4745 87.1525 78.4353C87.7486 78.1941 88.2999 77.946 88.7858 77.6945C90.7947 76.6711 91.856 75.6029 91.856 74.607C91.856 74.321 91.7664 74.0247 91.5941 73.7318C91.5872 73.7215 91.5803 73.7112 91.5734 73.7008C91.5114 73.5974 91.439 73.4906 91.3529 73.3872L69.3619 61.2753C65.7611 62.9017 56.8124 63.9837 46.8368 63.9837C37.0922 63.9837 28.3571 62.9672 24.5805 61.3925C24.5771 61.3925 24.5737 61.389 24.5668 61.3856L1.92454 74.1074Z" fill="#371A45"/>
<path d="M70.7953 60.7791C70.7437 61.2994 70.6816 61.7164 70.6816 61.8198C70.6816 64.1009 60.0066 65.9513 46.8368 65.9513C33.6705 65.9513 22.9955 64.1009 22.9955 61.8198C22.9955 61.7095 22.9197 61.4338 22.8473 61.0651C22.7095 60.3622 22.5923 59.3147 23.0472 58.3774C23.0127 58.4705 22.9955 58.5601 22.9955 58.6531C22.9955 59.0838 23.3745 59.4973 24.0775 59.8867C24.2153 59.9659 24.3703 60.0417 24.5357 60.1175C24.6253 60.1589 24.7184 60.2002 24.8148 60.2381C28.4019 61.7336 36.913 62.7846 46.8403 62.7846C57.281 62.7846 66.1573 61.6234 69.3826 60.0038C70.2268 59.5834 70.6816 59.1286 70.6816 58.6565C70.6816 58.5153 70.6437 58.3774 70.5645 58.243C70.9263 58.7392 70.8815 59.9074 70.7953 60.7791Z" fill="#FFCB4A"/>
<g opacity="0.35">
<path d="M70.7954 60.7792C70.7437 61.2995 70.6782 61.7164 70.6782 61.8198C70.6782 64.1009 60.0032 65.9513 46.8368 65.9513C33.6705 65.9513 22.9955 64.1009 22.9955 61.8198C22.9955 61.7095 22.9197 61.4339 22.8473 61.0617C22.7508 60.5724 22.6647 59.9143 22.775 59.2424C22.7956 59.394 22.8197 59.5387 22.8473 59.6696C22.9197 60.0418 22.9955 60.314 22.9955 60.4277C22.9955 62.7088 33.6705 64.5592 46.8368 64.5592C60.0066 64.5592 70.6782 62.7088 70.6782 60.4277C70.6782 60.3243 70.7437 59.9074 70.7954 59.3871C70.8057 59.2837 70.816 59.1803 70.8229 59.0701C70.8849 59.6042 70.847 60.2451 70.7954 60.7792Z" fill="#371A45"/>
</g>
<path d="M46.8368 66.5508C38.3947 66.5508 22.4372 65.5654 22.3924 61.8336C22.3856 61.7888 22.3614 61.6716 22.3408 61.5786C22.3166 61.4614 22.2856 61.327 22.2546 61.1789C22.0169 59.9522 22.0996 58.9495 22.5027 58.1156C22.644 57.8261 22.9886 57.6986 23.2849 57.8261C23.5812 57.9536 23.7225 58.2913 23.6088 58.5945C23.6019 58.6152 23.5985 58.6359 23.5985 58.6566C23.5985 58.7599 23.7604 59.0253 24.3669 59.363C24.4978 59.4353 24.6356 59.5077 24.7838 59.5731C24.87 59.6145 24.9561 59.649 25.0457 59.6869C28.6879 61.2064 37.2438 62.1885 46.8403 62.1885C56.9226 62.1885 65.8748 61.0962 69.1138 59.4698C69.8787 59.0873 70.0821 58.7806 70.0821 58.66C70.0821 58.6462 70.0821 58.6118 70.0441 58.5463C69.8856 58.2672 69.9718 57.9157 70.2406 57.74C70.5093 57.5677 70.8677 57.6332 71.0538 57.895C71.4328 58.4188 71.5396 59.3561 71.3949 60.8446C71.3673 61.1169 71.3398 61.3581 71.3156 61.5476C71.3019 61.6647 71.2846 61.7991 71.2812 61.837C71.2846 65.5619 55.2928 66.5508 46.8368 66.5508ZM23.3331 60.1279C23.3469 60.3829 23.3814 60.6551 23.4365 60.9446C23.4641 61.0824 23.4916 61.2064 23.5158 61.3133C23.564 61.5338 23.5985 61.6785 23.5985 61.8129C23.5985 62.1471 24.7631 63.2188 30.0834 64.1422C34.5526 64.9175 40.5035 65.3448 46.8403 65.3448C53.177 65.3448 59.1279 64.9175 63.5971 64.1422C68.9174 63.2222 70.0821 62.1471 70.0821 61.8129C70.0821 61.7268 70.0958 61.6268 70.1234 61.3856C70.1441 61.2064 70.1751 60.9756 70.1992 60.7137C70.2164 60.5242 70.2302 60.3519 70.2406 60.1934C70.0683 60.3071 69.8719 60.4208 69.6513 60.5276C66.2607 62.2298 57.0915 63.3738 46.8368 63.3738C37.0921 63.3738 28.3571 62.3573 24.5805 60.7826C24.4771 60.7413 24.3772 60.6965 24.2807 60.6517C24.105 60.5724 23.9327 60.4863 23.7777 60.3967C23.6157 60.3174 23.4675 60.2244 23.3331 60.1279ZM22.3924 61.8163V61.8198C22.3924 61.8198 22.3924 61.8198 22.3924 61.8163Z" fill="#371A45"/>
<path d="M51.1095 73.6629C51.6712 76.3679 49.9104 79.1693 47.0228 79.1693C44.1353 79.1693 42.3745 76.3644 42.9361 73.6629C43.3772 71.5403 45.1724 70.1276 47.0228 70.1276C48.8732 70.1276 50.6685 71.5403 51.1095 73.6629Z" fill="#FFCB4A"/>
<g opacity="0.35">
<path d="M47.0194 79.1693C44.1939 79.1693 42.4469 76.485 42.8983 73.8352C43.2394 75.8338 44.7935 77.4981 47.0194 77.4981C49.2454 77.4981 50.7995 75.8338 51.1406 73.8352C51.592 76.485 49.845 79.1693 47.0194 79.1693Z" fill="#371A45"/>
</g>
<g opacity="0.7">
<path d="M51.175 75.4478C51.1578 75.3169 51.1371 75.1859 51.1095 75.0515C50.6685 72.9289 48.8732 71.5162 47.0194 71.5162C45.1656 71.5162 43.3703 72.9289 42.9293 75.0515C42.9017 75.1825 42.881 75.3134 42.8638 75.4478C42.7983 74.924 42.819 74.3762 42.9293 73.8352C43.3703 71.7126 45.1656 70.2998 47.0194 70.2998C48.8732 70.2998 50.6685 71.7126 51.1095 73.8352C51.2198 74.3762 51.2405 74.924 51.175 75.4478Z" fill="white"/>
</g>
<path d="M47.0194 79.7724C45.586 79.7724 44.3007 79.1625 43.4013 78.0564C42.4055 76.8331 42.0092 75.1481 42.3435 73.5424C42.8259 71.2165 44.7934 69.5281 47.0194 69.5281C49.2488 69.5281 51.2164 71.2165 51.6953 73.5424C52.0261 75.1481 51.6333 76.8331 50.6375 78.0564C49.7381 79.1625 48.4529 79.7724 47.0194 79.7724ZM47.0194 70.7272C45.3585 70.7272 43.8872 72.0125 43.5219 73.7836C43.2635 75.0379 43.5667 76.3507 44.3352 77.2949C45.0036 78.115 45.9581 78.5698 47.0194 78.5698C48.0807 78.5698 49.0352 78.1184 49.7037 77.2949C50.4721 76.3507 50.7753 75.0379 50.5169 73.7836C50.1516 72.0125 48.6803 70.7272 47.0194 70.7272Z" fill="#371A45"/>
<path d="M77.9488 68.3495C80.6847 69.5762 82.4903 72.4431 81.2188 74.4107C79.9473 76.3782 76.5911 75.9096 74.3479 73.9214C72.5871 72.3604 72.0772 70.2964 72.8938 69.0318C73.7139 67.7707 75.802 67.3882 77.9488 68.3495Z" fill="#FFCB4A"/>
<g opacity="0.7">
<path d="M81.5875 72.6189C81.0017 71.3784 79.7819 70.2138 78.2829 69.5418C76.1362 68.5805 74.0446 68.9629 73.228 70.2275C72.8765 70.772 72.7697 71.468 72.9075 72.2054C72.3941 71.1062 72.3872 70.0001 72.8972 69.2076C73.7138 67.9464 75.8054 67.5605 77.9522 68.5219C79.8577 69.3764 81.3118 71.0304 81.5875 72.6189Z" fill="white"/>
</g>
<g opacity="0.35">
<path d="M81.2188 74.4107C79.9473 76.3782 76.5911 75.9131 74.3479 73.9214C73.3314 73.0186 72.7318 71.9504 72.563 70.9649C72.8421 71.3887 73.2005 71.8057 73.6312 72.1882C75.8744 74.1798 79.2271 74.645 80.5021 72.6775C80.8742 72.0986 80.9845 71.4439 80.8811 70.7754C81.6874 71.978 81.9183 73.3287 81.2188 74.4107Z" fill="#371A45"/>
</g>
<path d="M78.5897 76.2748C77.0322 76.2748 75.3128 75.5788 73.9517 74.3727C72.029 72.6671 71.3743 70.286 72.3908 68.7079C73.4073 67.1297 75.8503 66.7507 78.1969 67.8016C80.0955 68.6527 81.5772 70.2102 82.07 71.8676C82.3801 72.9152 82.2629 73.911 81.7254 74.738C81.1913 75.5684 80.3333 76.0818 79.2513 76.23C79.0342 76.261 78.8137 76.2748 78.5897 76.2748ZM75.5678 68.415C74.6098 68.415 73.807 68.7389 73.4038 69.3626C72.7216 70.4204 73.3005 72.1881 74.7511 73.4734C76.033 74.6105 77.7352 75.2273 79.0894 75.0412C79.8268 74.9413 80.3712 74.6208 80.7158 74.0867C81.0604 73.5526 81.1258 72.922 80.9156 72.2122C80.5263 70.9028 79.2685 69.6038 77.7042 68.9043C76.9771 68.5735 76.2328 68.415 75.5678 68.415Z" fill="#371A45"/>
<path d="M16.1591 68.3495C13.4231 69.5762 11.6175 72.4431 12.889 74.4107C14.1605 76.3782 17.5167 75.9096 19.7599 73.9214C21.5207 72.3604 22.0307 70.2964 21.214 69.0318C20.3974 67.7707 18.3058 67.3882 16.1591 68.3495Z" fill="#FFCB4A"/>
<g opacity="0.7">
<path d="M12.5203 72.6189C13.106 71.3784 14.3259 70.2138 15.8248 69.5418C17.9715 68.5805 20.0631 68.9629 20.8797 70.2275C21.2312 70.772 21.338 71.468 21.2002 72.2054C21.7136 71.1062 21.7205 70.0001 21.2105 69.2076C20.3939 67.9464 18.3023 67.5605 16.1556 68.5219C14.2535 69.3764 12.7959 71.0304 12.5203 72.6189Z" fill="white"/>
</g>
<g opacity="0.35">
<path d="M12.8889 74.4107C14.1604 76.3782 17.5166 75.9131 19.7598 73.9214C20.7763 73.0186 21.3759 71.9504 21.5447 70.9649C21.2656 71.3887 20.9073 71.8057 20.4765 72.1882C18.2333 74.1798 14.8806 74.645 13.6057 72.6775C13.2335 72.0986 13.1233 71.4439 13.2266 70.7754C12.4203 71.978 12.1894 73.3287 12.8889 74.4107Z" fill="#371A45"/>
</g>
<path d="M15.5181 76.2749C15.2942 76.2749 15.0736 76.2611 14.8566 76.2301C13.7711 76.0819 12.9166 75.565 12.3825 74.738C11.8484 73.9076 11.7278 72.9152 12.0379 71.8677C12.5272 70.2103 14.0123 68.6528 15.911 67.8017C18.2575 66.7507 20.6972 67.1332 21.7171 68.7079C22.7371 70.2861 22.0789 72.6671 20.1562 74.3728C18.7985 75.5788 17.0756 76.2749 15.5181 76.2749ZM18.5435 68.415C17.8751 68.415 17.1342 68.5735 16.4072 68.9009C14.8462 69.6004 13.5851 70.8994 13.1957 72.2088C12.9855 72.9221 13.051 73.5527 13.3955 74.0833C13.7401 74.6174 14.288 74.9379 15.022 75.0378C16.3761 75.2204 18.0784 74.6071 19.3602 73.47C20.8109 72.1813 21.3898 70.4136 20.7075 69.3592C20.3043 68.7389 19.498 68.415 18.5435 68.415Z" fill="#371A45"/>
<g opacity="0.35">
<path d="M32.4713 68.4047C32.5575 68.7321 32.5988 69.0387 32.6229 69.3351C32.6402 69.4867 32.6436 69.6314 32.6505 69.7796L32.6574 70.2103C32.6505 70.7788 32.5919 71.3198 32.4954 71.847C32.299 72.8946 31.9544 73.8697 31.4927 74.7863C31.031 75.7029 30.4624 76.5712 29.756 77.3672C29.4011 77.7669 29.0118 78.1459 28.5741 78.5043C28.3536 78.6835 28.1262 78.8558 27.8781 79.0211C27.63 79.1865 27.3716 79.3451 27.0718 79.4863L26.6893 79.3003C26.6135 78.9764 26.579 78.6766 26.5584 78.3802C26.5342 78.0839 26.5308 77.7944 26.5377 77.5119C26.548 76.9468 26.61 76.4058 26.7065 75.8786C26.8995 74.8276 27.2337 73.849 27.6713 72.9187C28.109 71.9883 28.6637 71.1165 29.3701 70.3171C29.725 69.9174 30.1144 69.5384 30.5589 69.1834L30.9035 68.9216C31.0275 68.8389 31.1412 68.7527 31.2722 68.6735C31.5237 68.5115 31.7891 68.3565 32.0992 68.2186L32.4713 68.4047Z" fill="white"/>
</g>
<g opacity="0.35">
<path d="M61.8604 68.2152C62.1671 68.353 62.429 68.5081 62.6805 68.6735C62.9321 68.8354 63.1629 69.0112 63.3835 69.1869C63.8245 69.5453 64.2174 69.9243 64.5688 70.324C65.2752 71.1234 65.8369 71.9918 66.2883 72.9153C66.7362 73.8387 67.0774 74.8173 67.2669 75.8683C67.3634 76.392 67.4219 76.9365 67.4323 77.5016C67.4357 77.7876 67.4323 78.0736 67.4047 78.3734C67.3806 78.6697 67.3427 78.9764 67.2634 79.3003L66.8809 79.4864C66.5777 79.3485 66.3124 79.19 66.0643 79.0281C65.8127 78.8661 65.5853 78.6904 65.3614 78.5146C64.9203 78.1563 64.5275 77.7773 64.176 77.3775C63.4662 76.5816 62.908 75.7098 62.4531 74.7898C62.0017 73.8663 61.664 72.8877 61.4676 71.8402C61.3711 71.3164 61.3126 70.772 61.3022 70.2069C61.2988 69.9209 61.3057 69.6349 61.3298 69.3351C61.3539 69.0388 61.3918 68.7321 61.4711 68.4082L61.8604 68.2152Z" fill="white"/>
</g>
</svg>
