<svg width="184" height="101" viewBox="0 0 184 101" fill="none" xmlns="http://www.w3.org/2000/svg">
<g clip-path="url(#clip0_402_67564)">
<path d="M36.6909 62.3807C36.6909 62.3807 26.9636 49.5897 1.89581 69.7578C0.717903 70.7034 0.701313 72.4952 1.86815 73.4519C8.13924 78.6059 26.4548 91.9333 36.5471 81.0668L36.6909 62.3807Z" fill="#E81818"/>
<path d="M36.7241 65.0795C36.7241 65.0795 29.8226 55.9992 12.0269 70.3773C11.2472 71.0077 11.2361 72.1912 12.0103 72.8327C16.3514 76.4161 29.4355 86.0329 36.6246 78.2964L36.7241 65.0795Z" fill="#E7A900"/>
<path d="M37.4102 67.2416C37.4102 67.2416 32.7538 61.1143 20.7426 70.814C20.2172 71.2398 20.2117 72.0417 20.7315 72.4675C23.6624 74.8841 32.4884 81.3764 37.3383 76.1561L37.4102 67.2416Z" fill="#FFFD01"/>
<path d="M26.7757 86.1601C27.1241 86.1601 27.4725 86.1491 27.8098 86.1269C31.5537 85.8947 34.7279 84.4126 37.2386 81.7084C37.3989 81.537 37.4874 81.3103 37.4929 81.0725L37.6367 62.3864C37.6367 62.1763 37.5704 61.9717 37.4432 61.8057C37.3326 61.662 34.7058 58.2831 28.8163 57.5642C25.4319 57.1494 21.6549 57.7024 17.5847 59.2011C12.58 61.0481 7.09975 64.3496 1.29872 69.0169C0.513454 69.6474 0.0599899 70.5875 0.0544586 71.5995C0.0489273 72.6004 0.491329 73.5461 1.26554 74.182C4.39555 76.7535 10.6611 81.4762 17.4244 84.1472C20.8143 85.4855 23.9554 86.1601 26.7757 86.1601ZM35.6072 80.6854C31.5702 84.8053 25.6863 85.3748 18.1267 82.3886C11.6012 79.8116 5.51815 75.2272 2.47109 72.7221C2.13929 72.4456 1.94574 72.0419 1.95127 71.6105C1.95127 71.1737 2.15034 70.77 2.49321 70.4935C15.1902 60.2739 23.6955 58.8472 28.5896 59.4444C32.8477 59.9642 35.0984 62.038 35.7454 62.7293L35.6072 80.6854Z" fill="#371A45"/>
<path d="M35.5465 45.3652C37.8525 46.7587 48.7467 53.2123 48.5587 60.0917L60.0723 54.9322C60.0391 54.5948 59.9782 54.2464 59.9008 53.887C58.7727 48.7274 53.027 41.4831 36.0165 44.79C35.8893 44.8122 35.7621 44.8398 35.6349 44.8675C35.3916 44.9117 35.3363 45.238 35.5465 45.3652Z" fill="#E81818"/>
<g opacity="0.5">
<path d="M35.5466 45.3652C35.8508 45.5477 36.3042 45.8187 36.8628 46.1726C52.4244 43.6564 57.8936 50.4031 59.0715 55.3801L60.0669 54.9322C60.0337 54.5949 59.9729 54.2465 59.8955 53.887C58.7673 48.7275 53.0216 41.4776 36.0112 44.7901C35.884 44.8122 35.7568 44.8398 35.6296 44.8675C35.3918 44.9117 35.3365 45.238 35.5466 45.3652Z" fill="white"/>
</g>
<g opacity="0.25">
<path d="M35.8228 44.8121C38.1289 46.2057 49.0231 52.6593 48.835 59.5386L60.3486 54.3791C60.3155 54.0418 60.2546 53.6934 60.1772 53.3339L60.321 53.815C59.4804 53.4279 58.1366 53.0076 56.8481 53.1404C52.1144 53.627 49.6314 53.5385 47.3309 51.0887C44.4442 48.0195 39.0081 44.7734 36.2929 44.2314C36.1657 44.2536 36.0385 44.2812 35.9113 44.3089C35.668 44.3586 35.6127 44.6849 35.8228 44.8121Z" fill="#371A45"/>
</g>
<path d="M48.5588 60.9818C49.04 60.9818 49.4326 60.6002 49.4492 60.1191C49.5377 56.9725 47.6077 53.6157 43.72 50.1263C41.4583 48.0967 38.9974 46.4543 37.3826 45.4423C44.9643 44.1538 50.981 44.9667 54.8631 47.8092C58.347 50.3641 59.0494 53.7042 59.1876 55.0204C59.2374 55.507 59.6798 55.8609 60.1664 55.8112C60.6531 55.7614 61.007 55.319 60.9572 54.8324C60.7913 53.2784 59.9729 49.3521 55.9138 46.3714C53.7903 44.8174 51.1303 43.7944 48.0003 43.3354C44.4168 42.81 40.1974 43.0312 35.4582 43.9879C34.9826 44.0819 34.6286 44.4524 34.5457 44.928C34.4627 45.4036 34.6784 45.8737 35.0876 46.1225L35.1982 46.1889C36.4204 46.9244 39.661 48.8765 42.5311 51.448C46.015 54.5669 47.7404 57.4647 47.6685 60.0638C47.6575 60.556 48.0446 60.9652 48.5312 60.9763C48.5423 60.9818 48.5533 60.9818 48.5588 60.9818Z" fill="#371A45"/>
<path d="M49.3994 87.0891L43.3551 85.9941C40.6232 85.5019 38.4388 83.7544 37.6702 81.4484C35.3807 74.5801 35.3309 67.2915 37.5209 60.3678C38.2563 58.0452 40.4131 56.2424 43.1394 55.6783L49.1671 54.4341L49.3994 87.0891Z" fill="#22A7F0"/>
<g opacity="0.5">
<path d="M37.5207 60.3625C38.2562 58.0398 40.4129 56.237 43.1392 55.673L49.167 54.4287L49.1836 56.5246L43.919 57.614C41.1927 58.1781 39.0359 59.9809 38.3004 62.3035C36.1935 68.9728 36.1658 75.9738 38.212 82.6154C37.9908 82.2449 37.8083 81.8578 37.6756 81.4486C35.3806 74.5802 35.3253 67.2861 37.5207 60.3625Z" fill="white"/>
</g>
<g opacity="0.3">
<path d="M43.9025 83.782C41.1707 83.2898 38.9808 81.5423 38.2176 79.2363C37.3107 76.5155 36.7577 73.7284 36.5531 70.9191C36.5476 70.9191 36.5476 70.9136 36.542 70.9136C38.1734 72.0528 40.4794 72.8657 43.1283 73.1698L49.3054 73.8832L49.3828 84.7774L43.9025 83.782Z" fill="#371A45"/>
</g>
<path d="M60.3984 87.465C59.9505 92.6522 54.7578 101.677 36.1713 98.3095C35.9279 98.2652 35.8616 97.9445 36.0717 97.8118C38.3501 96.3739 49.1116 89.3895 48.7853 82.5156" fill="#D25658"/>
<path d="M36.1711 98.3153C35.9278 98.2711 35.8669 97.9503 36.0771 97.8176C37.2439 97.0821 40.6394 94.8922 43.6256 92C46.4515 89.2737 48.9124 85.9225 48.7907 82.5934C48.7907 82.5713 48.7907 82.5436 48.7907 82.5215L48.8626 82.5491L60.4038 87.4654C60.2766 88.9198 59.7789 90.6783 58.7116 92.3816C55.9798 96.7448 49.5428 100.732 36.1711 98.3153Z" fill="#E81818"/>
<g opacity="0.35">
<path d="M43.6204 91.9997C46.4463 89.2734 48.9071 85.9222 48.7855 82.5931C48.8076 82.5765 48.8297 82.5654 48.8518 82.5488L60.3931 87.465C60.2659 88.9195 59.7682 90.678 58.7009 92.3813C55.0068 93.6808 50.0574 93.9186 43.6204 91.9997Z" fill="#371A45"/>
</g>
<path d="M43.6977 99.9358C45.3844 99.9358 46.966 99.8086 48.4425 99.5597C51.5394 99.0288 54.1717 97.9505 56.2731 96.3412C57.8491 95.1357 59.0934 93.6592 59.9782 91.9559C60.9017 90.1752 61.2004 88.577 61.2888 87.5429C61.3331 87.0508 60.9681 86.6249 60.4759 86.5807C59.9837 86.5365 59.5579 86.9014 59.5137 87.3936C59.4252 88.4554 58.839 92.1384 55.1947 94.9311C51.3569 97.8675 45.3955 98.8132 37.8912 97.6961C39.7161 96.474 41.9613 94.8094 44.024 92.8518C47.9282 89.1466 49.8306 85.6572 49.6757 82.4774C49.6536 81.9852 49.2333 81.6092 48.7467 81.6313C48.2545 81.6534 47.8785 82.0737 47.9006 82.5603C48.0222 85.1595 46.2637 88.2729 42.8019 91.5577C40.3023 93.9301 37.5096 95.8601 35.6073 97.0602C35.198 97.3201 34.9934 97.7901 35.0874 98.2657C35.1814 98.7413 35.5464 99.1007 36.022 99.1892C38.7594 99.6869 41.3253 99.9358 43.6977 99.9358Z" fill="#371A45"/>
<path d="M47.1097 60.5616C44.8922 69.3876 45.6553 78.6007 49.3992 87.0893C49.3992 87.0893 71.3978 102.773 114.836 99.6591C165.835 96.0037 183.94 69.0724 183.94 69.0724C183.94 69.0724 168.207 46.554 125.72 41.1898C122.142 40.7364 118.376 40.4101 114.411 40.2221C101.094 39.6027 89.8129 40.6921 80.5721 42.5115C59.6409 46.6203 49.1614 54.4288 49.1614 54.4288C48.3153 56.4417 47.6296 58.4878 47.1097 60.5616Z" fill="white"/>
<g opacity="0.3">
<path d="M114.842 99.6592C71.4035 102.773 49.3994 87.0894 49.3994 87.0894C47.6077 83.0304 46.5017 78.7999 46.0758 74.5251C45.4012 67.7785 46.4298 60.9157 49.1671 54.4289C49.1671 54.4289 54.747 50.2703 65.9011 46.4214C62.2236 48.3182 55.3 51.8906 52.0096 55.7174C48.1717 60.1746 48.7082 66.2079 57.2908 69.7859C57.3295 69.8025 60.1332 71.0688 60.1056 71.102C54.0834 79.2754 62.4061 85.917 71.7961 89.4286C88.7955 95.7882 108.577 96.8168 125.233 92.354C130.37 90.977 141.27 87.1779 144.068 80.4202C149.991 66.1029 145.65 51.5809 148.752 51.4924C153.541 51.3542 155.825 89.506 159.37 88.2563C148.697 93.5706 134.12 98.2767 114.842 99.6592Z" fill="#371A45"/>
</g>
<path d="M147.469 93.222C151.241 77.5554 151.125 61.4076 147.132 45.835C166.194 51.9236 176.884 61.2804 181.38 66.0473C182.989 67.7506 183.011 70.3995 181.44 72.1359C177.016 77.0134 166.459 86.6523 147.469 93.222Z" fill="#E81818"/>
<g opacity="0.5">
<path d="M179.72 67.9884C175.413 63.415 165.403 54.6278 147.784 48.5447C147.58 47.6378 147.364 46.7364 147.132 45.835C166.194 51.9236 176.884 61.2804 181.38 66.0473C182.989 67.7506 183.011 70.3995 181.44 72.1359C181.109 72.5064 180.732 72.9046 180.329 73.3193C181.313 71.6382 181.109 69.4649 179.72 67.9884Z" fill="white"/>
</g>
<g opacity="0.3">
<path d="M147.464 93.222C151.241 77.5554 151.125 61.4076 147.127 45.835C147.613 45.9898 153.082 61.4629 151.932 80.9287C151.689 85.0209 160.847 81.9518 164.972 79.8559C172.736 75.9185 178.947 71.5774 183.066 67.9441C183.072 67.9497 183.077 67.9607 183.083 67.9662C183.614 68.6077 183.619 69.5368 183.1 70.1893C180.191 73.8392 169.512 85.5961 147.464 93.222Z" fill="#371A45"/>
</g>
<path d="M146.22 94.5934L147.757 94.0625C156.251 91.126 163.949 87.2716 170.651 82.6208C176.325 78.6779 180.102 74.9617 182.275 72.5395C183.155 71.5551 183.636 70.3275 183.625 69.0832C183.614 67.8334 183.116 66.6168 182.22 65.6546C180.014 63.2877 176.181 59.6655 170.452 55.8608C163.689 51.3704 155.93 47.7151 147.397 44.9888L145.866 44.4966L146.264 46.0561C150.251 61.59 150.362 77.3838 146.601 93.0118L146.22 94.5934ZM148.382 47.1842C166.338 53.223 176.441 62.0545 180.921 66.8657C182.154 68.1929 182.165 69.9901 180.948 71.3505C176.541 76.2723 166.565 85.3526 148.703 91.8394C150.35 84.4789 151.158 76.9691 151.103 69.4869C151.047 62.0047 150.135 54.506 148.382 47.1842Z" fill="#371A45"/>
<path d="M103.611 100.953C107.321 100.953 111.087 100.815 114.903 100.544C126.737 99.6977 137.792 97.5133 147.763 94.0625C148.067 93.9575 148.282 93.6976 148.343 93.3934C150.234 85.5407 151.163 77.4945 151.103 69.487C151.047 61.4684 149.997 53.4332 147.989 45.6137C147.912 45.3151 147.691 45.0828 147.398 44.9888C137.383 41.7869 126.295 39.8846 114.449 39.3316C104.473 38.8671 94.8178 39.326 85.7429 40.703C78.4764 41.8035 71.5583 43.4957 65.1932 45.7188C54.3101 49.5235 48.863 53.5383 48.6363 53.7097C48.5091 53.8037 48.4095 53.9309 48.3487 54.0747C46.0758 59.4555 44.9477 65.085 44.9864 70.7976C45.0251 76.5101 46.2362 82.1121 48.5865 87.4375C48.6528 87.5813 48.7524 87.7085 48.8851 87.8025C49.1118 87.9684 54.6253 91.845 65.5582 95.3787C71.9565 97.4469 78.8967 98.9622 86.1798 99.8802C91.7928 100.599 97.6215 100.953 103.611 100.953ZM146.717 92.5418C137.018 95.8487 126.273 97.9446 114.776 98.7686C92.4841 100.367 76.0045 96.8884 66.1057 93.692C56.5553 90.6063 51.1746 87.2053 50.1128 86.4919C47.9284 81.454 46.8003 76.1728 46.7616 70.7865C46.7229 65.4003 47.7736 60.0859 49.886 54.9982C50.9368 54.2627 56.3175 50.6958 65.8679 47.3667C75.7059 43.9381 92.1025 40.0671 114.367 41.1067C125.875 41.6431 136.642 43.4681 146.386 46.5317C150.218 61.756 150.328 77.229 146.717 92.5418Z" fill="#371A45"/>
<path d="M49.3992 87.9797C49.8195 87.9797 50.1955 87.6755 50.2729 87.2497C50.3614 86.7686 50.0407 86.3041 49.554 86.2156L43.5097 85.1206C41.093 84.6838 39.1741 83.1685 38.5105 81.1666C36.2819 74.4753 36.2321 67.3802 38.3612 60.6335C39.0027 58.6095 40.8995 57.0445 43.3161 56.5468L49.3439 55.3026C49.825 55.203 50.1347 54.733 50.0351 54.2519C49.9356 53.7707 49.4655 53.4611 48.9844 53.5606L42.9567 54.8049C39.9096 55.4353 37.4985 57.4593 36.669 60.0971C34.4238 67.2033 34.4736 74.6799 36.8238 81.7307C37.6976 84.3464 40.1363 86.3207 43.1945 86.8737L49.2388 87.9686C49.2941 87.9741 49.3494 87.9797 49.3992 87.9797Z" fill="#371A45"/>
<path d="M48.8132 76.4713C42.3375 76.5321 35.906 71.4721 35.906 71.4721C35.906 71.4721 35.9281 71.45 35.9724 71.4168C36.6747 70.8583 42.625 66.2739 48.7081 66.2131C54.5479 66.1522 59.2816 70.3274 60.1111 71.1072C60.194 71.1846 60.2383 71.2288 60.2383 71.2288C60.2383 71.2288 55.2446 76.405 48.8132 76.4713Z" fill="#E81818"/>
<g opacity="0.5">
<path d="M35.9057 71.4669C35.9057 71.4669 36.1767 71.6826 36.6688 72.0199C39.4947 70.2558 44.057 67.9498 48.6857 67.9056C53.2645 67.8558 57.2572 70.0568 59.6628 71.76C60.0333 71.4282 60.2324 71.2181 60.2324 71.2181C60.2324 71.2181 60.1882 71.1738 60.1052 71.0964C59.2757 70.3167 54.542 66.1415 48.7023 66.2023C42.6192 66.2687 36.6688 70.8531 35.9665 71.4061C35.9278 71.4503 35.9057 71.4669 35.9057 71.4669Z" fill="white"/>
</g>
<g opacity="0.3">
<path d="M48.8129 76.4717C42.3372 76.5326 35.9057 71.4726 35.9057 71.4726C35.9057 71.4726 35.9278 71.4504 35.9721 71.4173L60.1052 71.1021C60.1882 71.1795 60.2324 71.2237 60.2324 71.2237C60.2324 71.2237 55.2443 76.4054 48.8129 76.4717Z" fill="#6B184E"/>
</g>
<path d="M48.6857 77.3618C48.7299 77.3618 48.7742 77.3618 48.8184 77.3618C51.6166 77.3342 54.5863 76.3719 57.4121 74.5747C59.5301 73.2309 60.8187 71.8981 60.874 71.8428C61.2113 71.4944 61.2058 70.9414 60.8629 70.5986C60.8076 70.5433 59.4914 69.2382 57.3458 67.9331C54.4867 66.1966 51.495 65.2952 48.6968 65.3229C45.8654 65.3505 42.752 66.2796 39.445 68.0879C37.0062 69.4207 35.4025 70.7313 35.3362 70.7866C35.126 70.958 35.0099 71.2124 35.0099 71.4834C35.0099 71.7543 35.1371 72.0087 35.3472 72.1746C35.4136 72.2299 37.0505 73.5074 39.5113 74.7903C42.8017 76.4936 45.8875 77.3618 48.6857 77.3618ZM58.9163 71.2345C58.3688 71.7156 57.5062 72.4069 56.4223 73.0926C54.6582 74.2097 51.9042 75.5424 48.8018 75.5756C44.1234 75.6254 39.3842 72.7885 37.4099 71.4502C39.362 70.0732 44.046 67.1423 48.7189 67.0925C51.8157 67.0593 54.5973 68.3423 56.3835 69.4207C57.484 70.0953 58.3578 70.77 58.9163 71.2345Z" fill="#371A45"/>
<path d="M144.14 50.049C144.14 49.9053 144.14 49.7615 144.135 49.6177C143.327 20.3305 124.121 1.22417 101.1 1.86013C78.0726 2.49609 59.9506 22.631 60.7579 51.9182C60.7635 52.062 60.769 52.2058 60.7801 52.3495L144.14 50.049Z" fill="#27BDFF"/>
<g opacity="0.5">
<path d="M101.1 1.85993C105.208 1.74933 109.19 2.26363 112.973 3.35305C118.597 4.97335 123.773 7.86004 128.219 11.8417C137.543 20.1865 143.687 33.3259 144.14 49.6175C144.146 49.7613 144.146 49.905 144.146 50.0488L142.426 50.0986C141.646 34.172 135.369 21.381 126.029 13.3071C123.9 13.7274 120.781 12.8094 117.922 10.7191C116.02 9.32551 114.576 7.66649 113.752 6.07383C109.262 4.448 104.445 3.65167 99.4461 3.78992C88.5684 4.08854 78.7913 8.74485 71.5801 16.6528C78.9074 7.57248 89.3648 2.18067 101.1 1.85993Z" fill="white"/>
</g>
<g opacity="0.35">
<path d="M80.3898 11.0122C79.6156 12.6823 78.9354 14.286 78.3382 15.8012C74.2127 26.3305 81.811 37.7666 93.12 37.9491C110.639 38.2311 135.574 40.3492 144.14 49.612C144.24 49.7171 144.146 49.8996 144.146 50.0433L62.6881 52.2885C62.3729 34.0836 69.4182 19.4787 80.3898 11.0122Z" fill="#371A45"/>
</g>
<path d="M60.7802 53.2398C60.8023 53.2398 60.8244 53.2398 60.8466 53.2398C61.3387 53.2066 61.7037 52.7752 61.6705 52.2886C61.6595 52.1448 61.6539 52.0121 61.6484 51.896C61.2724 38.2035 65.1876 25.7056 72.6753 16.7137C79.9197 8.01496 90.0231 3.0545 101.122 2.75034C112.221 2.44619 122.584 6.83706 130.299 15.1266C138.273 23.6871 142.868 35.9473 143.25 49.6397C143.255 49.789 143.255 49.9162 143.255 50.0323C143.244 50.5245 143.637 50.9282 144.129 50.9393C144.621 50.9503 145.025 50.5577 145.036 50.0655C145.036 49.9217 145.036 49.7669 145.031 49.5954C144.832 42.3621 143.521 35.5657 141.143 29.3942C138.859 23.4715 135.652 18.2621 131.604 13.9155C123.535 5.24993 112.696 0.654453 101.078 0.975197C89.4591 1.29594 78.8856 6.48313 71.3094 15.5801C67.5103 20.1424 64.5904 25.5176 62.6383 31.5619C60.6032 37.8607 59.6742 44.7179 59.8733 51.9457C59.8788 52.0895 59.8843 52.2443 59.8954 52.4158C59.9286 52.8803 60.3212 53.2398 60.7802 53.2398Z" fill="#371A45"/>
<path d="M60.7801 52.3492C60.7966 52.6257 60.8354 52.9022 60.8851 53.1732C62.4446 57.9733 80.6274 61.2968 102.726 60.6885C124.818 60.0802 142.791 55.7557 144.085 50.8782C144.112 50.6072 144.135 50.3307 144.14 50.0487C143.499 45.0385 124.918 41.5103 102.211 42.1352C79.5048 42.7601 61.145 47.3113 60.7801 52.3492Z" fill="#371A45"/>
<path d="M97.5496 61.6512C99.2639 61.6512 101 61.629 102.748 61.5793C113.46 61.2862 123.64 60.1027 131.41 58.2502C135.226 57.3432 138.312 56.3091 140.579 55.181C143.123 53.9146 144.555 52.5819 144.942 51.1109L144.959 51.05L144.964 50.9837C145.003 50.6629 145.02 50.3588 145.025 50.0712C145.036 49.579 144.644 49.1754 144.151 49.1643C143.659 49.1532 143.256 49.5459 143.244 50.038C143.239 50.2482 143.228 50.4749 143.2 50.7127C142.924 51.6086 141.713 52.6316 139.777 53.5939C137.631 54.6612 134.673 55.6455 130.99 56.5248C123.336 58.3497 113.283 59.511 102.693 59.8041C92.097 60.0972 81.9991 59.4889 74.257 58.0898C70.5298 57.4151 67.5214 56.5967 65.3205 55.6455C63.3352 54.7939 62.0688 53.8372 61.7425 52.9579C61.7038 52.7201 61.6762 52.4934 61.6596 52.2888C61.6208 51.7966 61.195 51.4316 60.7084 51.4648C60.2162 51.5035 59.8512 51.9293 59.8844 52.416C59.9065 52.7035 59.9452 53.0077 59.995 53.3229L60.0061 53.3893L60.0282 53.4501C60.4983 54.899 61.9969 56.1488 64.6126 57.2769C66.9352 58.2778 70.0763 59.1405 73.9363 59.8373C80.5226 61.0207 88.7568 61.6512 97.5496 61.6512Z" fill="#181558"/>
<path d="M97.5386 61.6512C98.3238 61.6512 99.1091 61.6456 99.8999 61.6346C100.834 61.6235 101.797 61.6014 102.748 61.5793C107.769 61.441 112.674 61.1092 117.331 60.5949C124.829 59.7654 131.349 58.499 136.183 56.9285C141.42 55.2252 144.367 53.2676 144.937 51.1109L144.953 51.05L144.959 50.9892C144.998 50.674 145.02 50.3643 145.025 50.0712C145.036 49.579 144.644 49.1754 144.151 49.1643C143.659 49.1532 143.256 49.5459 143.244 50.038C143.239 50.2537 143.228 50.4749 143.2 50.7127C142.398 53.334 133.937 56.9727 117.132 58.8308C112.519 59.3396 107.664 59.6714 102.693 59.8041C101.747 59.8318 100.801 59.8484 99.8723 59.8594C96.1008 59.9092 92.3846 59.8373 88.8287 59.6603C87.7725 59.605 86.7494 59.5442 85.7817 59.4723C78.9852 58.9857 73.1123 58.0787 68.7933 56.8511C63.1969 55.2584 61.9969 53.6326 61.748 52.9579C61.7093 52.7422 61.6872 52.5155 61.6651 52.2832C61.6264 51.7911 61.2006 51.4261 60.7084 51.4648C60.2162 51.5035 59.8512 51.9348 59.89 52.4215C59.9121 52.7312 59.9508 53.0353 60.0061 53.3284L60.0172 53.3893L60.0393 53.4501C60.3877 54.5174 61.3333 55.5128 62.8541 56.3976C64.2089 57.1884 66.0449 57.9128 68.3067 58.5599C72.7418 59.8207 78.7364 60.7498 85.6545 61.2475C86.6333 61.3194 87.6674 61.3802 88.7347 61.4355C91.5882 61.5737 94.5357 61.6512 97.5386 61.6512Z" fill="#371A45"/>
<path d="M114.643 54.799C114.693 55.5456 114.941 56.0709 115.284 56.6571C115.942 57.8184 116.805 58.7972 117.823 59.6212C120.908 59.2673 124.105 58.8028 127.036 58.2498C119.681 50.5298 117.353 46.7583 115.013 42.2568C114.748 46.2551 114.35 50.8671 114.643 54.799Z" fill="white"/>
<g opacity="0.35">
<path d="M114.643 54.7993C114.692 55.5459 114.941 56.0712 115.284 56.6574C115.566 57.1607 115.876 57.6086 116.219 58.0234C116.7 58.6206 117.236 59.146 117.817 59.6215C119.177 59.4667 120.504 59.2953 121.793 59.1128C117.164 55.192 116.628 47.7817 115.013 42.2682V42.2627C115.013 42.2627 115.008 42.3235 115.002 42.4397C114.737 46.3771 114.35 50.9283 114.643 54.7993Z" fill="#371A45"/>
</g>
<path d="M117.817 60.512C117.85 60.512 117.884 60.512 117.917 60.5065C121.163 60.136 124.37 59.6604 127.196 59.124C127.517 59.0631 127.777 58.8309 127.876 58.5212C127.976 58.2115 127.898 57.8686 127.672 57.6364C120.184 49.7782 118.027 46.1339 115.799 41.8481C115.616 41.4941 115.218 41.3061 114.825 41.3891C114.433 41.472 114.145 41.8038 114.118 42.202C114.084 42.672 114.051 43.1532 114.018 43.6398C113.764 47.2454 113.482 51.3321 113.741 54.8658C113.808 55.8502 114.167 56.5414 114.499 57.1055C115.185 58.311 116.108 59.3894 117.248 60.3184C117.419 60.4401 117.618 60.512 117.817 60.512ZM125.261 57.6695C123.01 58.0567 120.571 58.4106 118.099 58.6981C117.259 57.9682 116.573 57.1331 116.059 56.2207C116.059 56.2151 116.053 56.2151 116.053 56.2096C115.743 55.6787 115.566 55.2916 115.533 54.7442C115.533 54.7386 115.533 54.7386 115.533 54.7331C115.318 51.8353 115.489 48.4897 115.699 45.3707C117.53 48.556 120.018 52.0565 125.261 57.6695Z" fill="#371A45"/>
<path d="M85.7539 42.279L86.2517 60.3788C91.3061 60.7162 96.3385 60.8157 101.459 60.7051C101.47 60.7107 101.476 60.7162 101.492 60.7272L104.506 60.6443C104.49 60.6388 104.479 60.6332 104.462 60.6222C108.035 60.4894 111.469 60.2627 114.969 59.9309L114.46 41.4882C114.411 39.3149 112.553 37.5176 110.341 37.5895C109.329 37.8107 87.5457 37.6614 87.5402 38.8393C86.4286 39.5748 85.7152 40.8577 85.7539 42.279Z" fill="white"/>
<g opacity="0.35">
<path d="M114.953 59.3838C114.676 59.6382 114.361 59.8483 114.024 60.0142C114.344 59.9866 114.654 59.9589 114.969 59.9257L114.953 59.3838Z" fill="#371A45"/>
</g>
<g opacity="0.35">
<path d="M85.7537 42.2789L86.2514 60.3788C87.3684 60.4507 88.5298 60.5226 89.6689 60.5724C89.3537 60.3899 89.0717 60.1465 88.8228 59.8258C88.8228 59.8258 88.8228 59.8258 88.8228 59.8203C86.4394 56.3308 86.6385 47.7316 85.7592 42.2236C85.7537 42.2402 85.7537 42.2568 85.7537 42.2789Z" fill="#371A45"/>
</g>
<path d="M97.4609 61.4132C98.7218 61.4132 99.9937 61.4021 101.288 61.3745L101.315 61.3911H101.492C101.514 61.3911 104.495 61.3081 104.528 61.3081L107.774 61.2197L107.592 61.1478C110.086 61.015 112.541 60.8325 115.035 60.5948L115.655 60.5339L115.129 41.4718C115.102 40.2386 114.582 39.0773 113.664 38.2091C112.746 37.3409 111.563 36.8874 110.324 36.9261H110.263L110.208 36.9372C109.876 36.9925 107.564 37.0257 105.12 37.0644C101.658 37.1197 97.3448 37.186 93.7834 37.3464C91.8037 37.4349 90.3271 37.54 89.2709 37.6671C88.2036 37.7943 87.3354 37.9381 87.0146 38.3971C85.787 39.293 85.0515 40.7695 85.0902 42.3013L85.6045 61.0095L86.2128 61.0482C89.9124 61.2915 93.6286 61.4132 97.4609 61.4132ZM101.669 60.0307L101.443 60.0362C96.4047 60.1413 91.6433 60.0528 86.8985 59.7542L86.4174 42.2626C86.3897 41.1843 86.8985 40.1446 87.7557 39.4976L88.1981 39.4865V39.1934C88.6847 39.0607 90.1446 38.8285 94.53 38.6515C97.9365 38.5132 101.929 38.4524 105.131 38.4026C108.576 38.3473 109.959 38.3197 110.396 38.2589C111.264 38.2423 112.093 38.5685 112.74 39.1768C113.399 39.7962 113.769 40.6257 113.791 41.505L114.283 59.3228C111.004 59.6215 107.774 59.8261 104.434 59.9533L102.112 60.0417C101.946 60.0473 101.802 60.0528 101.691 60.0528L101.669 60.0307ZM88.2091 38.834C88.2091 38.8395 88.2091 38.8395 88.2091 38.834V38.834Z" fill="#371A45"/>
<path d="M71.3259 31.0147C71.5305 35.8811 74.6494 40.1448 78.2937 43.402C81.7224 46.4546 85.8201 48.7717 90.0672 50.5303C90.0672 50.5303 90.0672 50.5303 90.0672 50.5358C90.0672 50.5358 90.0672 50.5468 90.0562 50.5579C89.5474 52.2833 89.1769 54.0971 88.9723 55.8999C88.7953 57.4262 88.7345 58.9912 88.8561 60.5286C93.0313 60.7387 97.2121 60.7885 101.459 60.7C101.47 60.7056 101.476 60.7111 101.492 60.7222L104.506 60.6392C104.49 60.6337 104.479 60.6281 104.462 60.6171C108.853 60.4457 113.089 60.1581 117.408 59.6714C118.005 54.5285 117.336 49.0427 115.622 44.1541C115.489 43.8002 115.362 43.4628 115.212 43.1255C114.223 40.9024 112.558 37.6673 109.671 38.1263C104.821 39.2102 99.8333 40.3328 95.0111 41.5882C94.5853 41.7319 94.1871 41.826 93.7558 41.649C93.518 41.5937 93.2857 41.5218 93.0479 41.4554C91.1013 40.8693 89.6856 39.2268 88.0045 38.0655L87.2414 37.3521C84.9353 35.2673 84.0671 34.2442 82.7841 31.9714C83.1602 30.3843 82.9777 29.7815 82.8007 28.128C82.5961 27.0386 81.3685 26.4524 80.5445 26.8671C79.8975 27.1879 79.7758 28.5759 79.4938 29.3889C79.4938 29.3889 79.4772 29.328 79.4385 29.223C77.5251 23.1288 71.1987 25.2247 71.3259 31.0147Z" fill="white"/>
<g opacity="0.35">
<path d="M88.8062 59.4999C88.8172 59.8428 88.8338 60.1857 88.8615 60.5285C90.432 60.606 91.9804 60.6613 93.5952 60.7C95.7464 59.1737 99.0257 60.2244 101.829 59.2622C102.416 58.5986 102.775 55.9994 100.851 55.2197C97.5934 56.1874 92.7491 56.746 89.4477 54.2188C89.0274 54.4953 89.055 55.4077 88.9776 55.8999C88.8338 57.0944 88.773 58.2999 88.8062 59.4999Z" fill="#371A45"/>
</g>
<g opacity="0.35">
<path d="M92.4286 52.7642C92.2461 53.6214 92.0802 54.5505 91.942 55.5127C91.0627 55.2306 90.2111 54.8159 89.4479 54.2187C89.4479 54.2187 89.3152 54.3403 89.1604 54.5615C89.376 53.2067 89.6747 51.8407 90.0673 50.5356V50.5301C85.7981 48.7605 81.739 46.46 78.2938 43.4019C74.7103 40.3327 71.2872 35.328 71.3259 30.8486C78.1058 47.3614 94.1761 45.083 92.4286 52.7642Z" fill="#371A45"/>
</g>
<path d="M88.8616 61.1977C88.8782 61.1977 88.8948 61.1977 88.9169 61.1977C89.2819 61.17 89.5584 60.8493 89.5308 60.4788C89.3593 58.3663 89.5252 56.0658 90.0395 53.4556C90.0838 53.251 90.1335 53.0519 90.1833 52.8584C90.3713 52.0952 90.5538 51.3708 90.3713 50.7072C90.1003 49.7007 89.1547 49.3025 88.4413 49.0924C80.0135 45.1273 74.9978 40.4655 72.6585 34.4267L72.642 34.388C71.4309 31.7944 72.006 29.0791 73.1175 27.5362C73.842 26.5242 74.7766 26.0044 75.6724 26.1039C76.8503 26.2367 77.9729 27.4312 78.8301 29.4662C78.9407 29.7427 79.2172 29.9252 79.5214 29.9142C79.82 29.9086 80.0854 29.7151 80.185 29.4386C80.3177 29.0957 80.373 28.7418 80.4172 28.4321C80.5112 27.8293 80.5721 27.586 80.8375 27.4588L80.8486 27.4533C81.0532 27.3482 81.2301 27.3316 81.4071 27.4035C81.7057 27.5196 81.9933 27.8791 82.1758 28.3602C82.3749 28.8856 82.491 30.3013 82.1371 31.811L82.0762 32.0653L82.2034 32.2921C83.4919 34.576 85.1399 36.318 87.551 38.5521L87.5842 38.5853L87.6229 38.6129C87.9768 38.8563 88.3307 39.1106 88.7012 39.3761C90.6478 40.7697 92.6608 42.2075 94.9723 42.5835C95.3373 42.6443 95.6802 42.3955 95.7355 42.0305C95.7963 41.6655 95.5475 41.3227 95.1825 41.2674C93.1861 40.9411 91.3004 39.5973 89.4755 38.2922C89.1271 38.0433 88.7676 37.789 88.4192 37.5456C86.2072 35.494 84.6698 33.8792 83.4864 31.8607C83.8182 30.246 83.7131 28.6644 83.42 27.8902C83.0938 27.0385 82.5518 26.4247 81.8827 26.1648C81.3518 25.9602 80.7877 25.9933 80.2458 26.2643C79.6873 26.5353 79.4163 26.9666 79.267 27.409C78.0835 25.468 76.7784 24.8929 75.8107 24.7878C74.4226 24.633 73.0401 25.3519 72.0226 26.7676C71.2871 27.7961 70.8005 29.1178 70.6622 30.4948C70.5074 32.01 70.7673 33.5474 71.4143 34.941C72.747 38.3696 74.8485 41.3282 77.8347 43.9771C80.4449 46.2942 83.7408 48.3735 87.916 50.3311L87.9657 50.3532L88.0155 50.3698C88.9612 50.6408 89.0441 50.9505 89.0773 51.0666C89.1658 51.3984 89.033 51.9293 88.8782 52.5487C88.8284 52.7533 88.7731 52.9634 88.7234 53.1846L88.7178 53.2012C88.1814 55.9386 88.01 58.3552 88.1869 60.5949C88.2257 60.9322 88.5187 61.1977 88.8616 61.1977Z" fill="#371A45"/>
<path d="M98.0747 53.8979C99.1752 56.1044 100.392 58.5211 101.492 60.722L104.506 60.6391C104.49 60.6336 104.479 60.628 104.462 60.617C108.803 60.4511 112.984 60.1635 117.253 59.6879C116.589 58.1727 115.799 56.3422 115.135 54.827C109.494 54.5173 103.71 54.2076 98.0747 53.8979Z" fill="white"/>
<path d="M117.601 60.3126C117.944 60.3126 118.232 60.0526 118.265 59.7042C118.685 55.1143 118.027 49.4902 116.54 44.7897H116.545L116.473 44.5795C116.407 44.3805 116.34 44.1814 116.274 43.9878L116.252 43.927C116.069 43.374 115.865 42.8155 115.649 42.268L115.616 42.185C115.328 41.4495 115.008 40.703 114.665 39.9564C114.51 39.6246 114.112 39.4753 113.78 39.6301C113.448 39.785 113.299 40.1832 113.454 40.515C113.769 41.2007 114.068 41.8864 114.333 42.5611L114.377 42.6717C114.565 43.1528 114.748 43.6394 114.914 44.1205L114.842 44.3141L115.046 44.5077C116.617 49.1087 117.358 54.9982 116.938 59.5715C116.904 59.9365 117.175 60.2628 117.54 60.296C117.557 60.3125 117.579 60.3126 117.601 60.3126Z" fill="#371A45"/>
<g opacity="0.35">
<path d="M116.39 46.5926C112.265 48.954 108.344 49.7614 102.388 48.6498C96.2884 47.0738 92.9538 44.6074 90.2164 40.3603C91.9418 41.1732 93.4459 41.5824 94.3086 41.7704C99.0755 40.4543 109.848 38.0764 109.848 38.0764C112.707 37.7058 115.046 41.5658 116.39 46.5926Z" fill="#371A45"/>
</g>
<path d="M117.629 50.3032C118.868 51.0996 119.028 54.5945 118.221 55.2139C118.221 55.2139 115.854 57.4757 110.058 56.5245C110.058 56.5245 108.825 53.6213 110.451 51.8516C110.451 51.8516 114.953 52.8692 117.629 50.3032Z" fill="white"/>
<g opacity="0.35">
<path d="M118.221 55.2197C118.221 55.2197 115.854 57.4815 110.058 56.5303C110.058 56.5303 109.809 55.9386 109.682 55.1257C116.628 55.7948 118.691 54.1468 118.099 50.873C119.122 52.0067 118.646 55.1422 118.221 55.2197Z" fill="#371A45"/>
</g>
<path d="M112.762 57.3096C114.416 57.3096 115.649 57.0387 116.49 56.7511C117.64 56.3585 118.304 55.8774 118.558 55.6506C119.271 55.0976 119.288 53.6764 119.266 53.0902C119.216 51.8957 118.834 50.4137 117.933 49.833L117.568 49.5952L117.253 49.8994C114.825 52.222 110.622 51.3151 110.578 51.3095L110.268 51.2376L110.053 51.4754C108.206 53.4828 109.5 56.6073 109.555 56.74L109.677 57.0221L109.975 57.0719C111.004 57.2433 111.933 57.3096 112.762 57.3096ZM117.59 55.0036C117.314 55.1916 116.81 55.4847 116.047 55.7336C114.958 56.0875 113.122 56.4193 110.462 56.0322C110.246 55.3631 109.815 53.6543 110.667 52.4598C111.756 52.6423 115.162 53.0073 117.601 51.0607C117.894 51.492 118.11 52.2662 118.149 53.1179C118.198 54.1022 117.994 54.6884 117.872 54.7824L117.59 55.0036Z" fill="#371A45"/>
<path d="M77.6632 43.2358C77.6908 43.2358 77.7185 43.2358 77.7461 43.2303C79.7314 42.8432 81.6227 41.3667 83.3813 38.845C84.6642 36.9979 85.3776 35.2891 85.4053 35.2172C85.4937 35.0071 85.3942 34.7638 85.1785 34.6753C84.9684 34.5868 84.7251 34.6864 84.6366 34.902C84.6089 34.9684 81.8329 41.5823 77.5858 42.4174C77.359 42.4616 77.2153 42.6773 77.2595 42.904C77.2927 43.1031 77.4641 43.2358 77.6632 43.2358Z" fill="#371A45"/>
<path d="M87.6785 31.4455C87.8831 31.4787 88.0712 31.3404 88.1043 31.1358L89.8242 20.5734C89.8574 20.3688 89.7191 20.1808 89.5145 20.1476C87.391 19.7992 85.3891 21.2425 85.0407 23.3661C84.4545 26.5127 83.4149 30.5496 87.6785 31.4455Z" fill="white"/>
<path d="M87.7393 31.6115C87.9937 31.6115 88.2204 31.4235 88.2647 31.1635L89.9845 20.6011C90.0066 20.4629 89.9735 20.3191 89.8905 20.203C89.8076 20.0868 89.6859 20.0094 89.5421 19.9873C88.4748 19.8159 87.3965 20.0647 86.5172 20.7007C85.6379 21.3366 85.0573 22.2712 84.8858 23.344C84.8526 23.5099 84.8195 23.6814 84.7863 23.8583C84.1946 26.9165 83.4591 30.7211 87.6453 31.6004H87.6508C87.684 31.6115 87.7117 31.6115 87.7393 31.6115ZM88.884 20.2583C89.0887 20.2583 89.2877 20.2749 89.4924 20.308C89.6085 20.3246 89.6859 20.4352 89.6693 20.5514L87.9495 31.1138C87.9384 31.1691 87.9108 31.2188 87.8665 31.252C87.8223 31.2852 87.767 31.2963 87.7117 31.2907C83.8406 30.4723 84.5098 26.9939 85.107 23.9192C85.1402 23.7422 85.1734 23.5708 85.2066 23.3993C85.3669 22.4095 85.9034 21.5468 86.7107 20.9606C87.3522 20.5016 88.1098 20.2583 88.884 20.2583Z" fill="#371A45"/>
<g opacity="0.35">
<path d="M84.7365 25.2852C83.9734 27.9175 84.6093 30.9148 87.684 31.4512C87.8887 31.4843 88.0767 31.3461 88.1099 31.1415L88.5688 28.3322C86.9154 28.9461 84.919 26.8391 84.7365 25.2852Z" fill="#371A45"/>
</g>
<path d="M87.7391 32.1203C88.2368 32.1203 88.6792 31.7553 88.7622 31.2465L90.482 20.6841C90.576 20.1201 90.1889 19.5836 89.6249 19.4896C88.4193 19.2961 87.2138 19.5781 86.2239 20.2915C85.234 21.0049 84.587 22.0556 84.3879 23.2556C84.3547 23.4215 84.3215 23.5929 84.2884 23.7644C83.9842 25.3238 83.6469 27.0879 83.9234 28.6142C84.2607 30.4944 85.4828 31.6668 87.5456 32.1037L87.5732 32.1092C87.6285 32.1147 87.6838 32.1203 87.7391 32.1203ZM89.1161 20.7726L87.4958 30.7156C86.163 30.3562 85.4607 29.6262 85.234 28.3709C85.0017 27.0935 85.3169 25.4566 85.599 24.0132C85.6322 23.8363 85.6653 23.6648 85.6985 23.4934L85.704 23.4768C85.8423 22.6252 86.3068 21.8786 87.0036 21.3754C87.623 20.933 88.364 20.7228 89.1161 20.7726Z" fill="#371A45"/>
<path d="M124.387 25.8272C124.182 25.794 123.994 25.9323 123.961 26.1369L122.241 36.6993C122.208 36.9039 122.346 37.0919 122.551 37.1251C124.674 37.4735 126.676 36.0301 127.025 33.9066C127.616 30.7655 128.651 26.7231 124.387 25.8272Z" fill="white"/>
<path d="M123.181 37.3351C124.027 37.3351 124.846 37.0696 125.543 36.5719C126.422 35.936 127.003 35.0014 127.174 33.9286C127.207 33.7627 127.24 33.5912 127.274 33.4143C127.865 30.3561 128.601 26.5515 124.415 25.6722H124.409C124.121 25.6224 123.845 25.8215 123.801 26.1091L122.081 36.6715C122.059 36.8097 122.092 36.9535 122.175 37.0696C122.258 37.1858 122.38 37.2632 122.523 37.2853C122.745 37.3185 122.966 37.3351 123.181 37.3351ZM124.359 25.9819C128.23 26.8003 127.561 30.2787 126.964 33.3534C126.931 33.5304 126.898 33.7018 126.864 33.8733C126.704 34.8631 126.168 35.7258 125.36 36.312C124.547 36.8982 123.563 37.1305 122.573 36.9701C122.518 36.959 122.468 36.9314 122.435 36.8871C122.402 36.8429 122.391 36.7876 122.396 36.7268L124.116 26.1644C124.138 26.0427 124.243 25.9653 124.359 25.9819Z" fill="#371A45"/>
<g opacity="0.35">
<path d="M122.717 33.7683L122.242 36.6992C122.208 36.9038 122.347 37.0918 122.551 37.125C125.449 37.6282 127.224 35.007 127.274 32.3857C126.433 33.713 124.138 34.7581 122.717 33.7683Z" fill="#371A45"/>
</g>
<path d="M123.187 37.8439C124.138 37.8439 125.062 37.5453 125.847 36.9812C126.837 36.2678 127.484 35.2171 127.683 34.0171C127.716 33.8512 127.749 33.6798 127.782 33.5083C128.087 31.9489 128.424 30.1848 128.147 28.6585C127.81 26.7783 126.588 25.6059 124.525 25.169L124.498 25.1635C123.934 25.0695 123.397 25.4566 123.303 26.0206L121.583 36.5831C121.539 36.8596 121.605 37.1305 121.766 37.3573C121.926 37.584 122.169 37.7333 122.44 37.7775C122.689 37.8218 122.938 37.8439 123.187 37.8439ZM124.569 26.5571C125.902 26.9165 126.605 27.6465 126.831 28.9018C127.064 30.1793 126.748 31.8161 126.466 33.2595C126.433 33.4365 126.4 33.6079 126.367 33.7793L126.361 33.7959C126.223 34.6475 125.758 35.3941 125.062 35.8973C124.442 36.3453 123.701 36.5499 122.949 36.5001L124.569 26.5571Z" fill="#371A45"/>
<path d="M87.8662 26.9941C86.1132 50.9061 121.627 54.1246 124.193 30.2845C125.952 6.36702 90.4322 3.15406 87.8662 26.9941Z" fill="white"/>
<path d="M106.254 46.7862C107.918 46.7862 109.555 46.5816 111.148 46.1779C113.41 45.6028 115.478 44.6406 117.281 43.3189C121.307 40.3769 123.751 35.8754 124.354 30.3011C124.763 24.7047 123.17 19.8383 119.736 16.2216C118.199 14.5958 116.341 13.2796 114.217 12.3063C112.171 11.3662 109.964 10.7856 107.669 10.5754C105.369 10.3653 103.102 10.5422 100.917 11.1008C98.6554 11.6759 96.5872 12.6381 94.7844 13.9598C90.7585 16.9018 88.3142 21.4033 87.7114 26.9776V26.9831C87.3022 32.574 88.9004 37.4404 92.329 41.0571C93.8664 42.6829 95.7245 43.9991 97.848 44.9724C99.8941 45.9125 102.101 46.4931 104.396 46.7033C105.021 46.7586 105.64 46.7862 106.254 46.7862ZM105.844 10.8077C106.447 10.8077 107.045 10.8353 107.636 10.8906C116.164 11.6648 124.929 18.0576 124.033 30.2735C122.722 42.4451 112.951 47.1567 104.423 46.3881C95.8959 45.6139 87.1308 39.2211 88.0266 27.0107C89.2488 15.6797 97.7927 10.8077 105.844 10.8077Z" fill="#371A45"/>
<g opacity="0.35">
<path d="M88.2703 24.4946C83.0942 50.2039 122.341 55.568 124.254 29.4219C119.51 50.5744 87.1864 46.2443 88.2703 24.4946Z" fill="#371A45"/>
</g>
<path d="M106.254 47.2949C107.957 47.2949 109.638 47.0848 111.275 46.67C113.603 46.0783 115.727 45.0884 117.585 43.728C121.727 40.6976 124.243 36.0744 124.862 30.3563V30.3342C125.283 24.594 123.64 19.5949 120.107 15.8731C118.519 14.2031 116.612 12.8482 114.427 11.8473C112.326 10.885 110.069 10.2878 107.714 10.0721C105.358 9.85643 103.03 10.0389 100.79 10.614C98.4619 11.2058 96.3383 12.1956 94.4802 13.556C90.3382 16.5865 87.822 21.2096 87.2027 26.9277V26.9498C86.7824 32.69 88.4248 37.6892 91.9585 41.4109C93.5456 43.081 95.4535 44.4359 97.6379 45.4368C99.7393 46.399 101.996 46.9963 104.351 47.212C104.987 47.2673 105.623 47.2949 106.254 47.2949ZM123.53 30.2236C122.252 42.0524 112.752 46.6313 104.468 45.8792C96.1835 45.1271 87.6617 38.9169 88.5299 27.0494C89.8073 15.2206 99.308 10.6417 107.592 11.3938C115.876 12.1459 124.398 18.3561 123.53 30.2236Z" fill="#371A45"/>
<path d="M87.8832 27.4642C85.3505 43.8221 109.871 49.3632 119.797 40.5207C138.898 16.9626 90.6649 5.31634 87.8832 27.4642Z" fill="#371A45"/>
<g opacity="0.5">
<path d="M96.2113 27.1876C96.5044 31.4015 91.8757 31.7443 91.5439 27.5304C91.2508 23.3165 95.8795 22.9737 96.2113 27.1876Z" fill="white"/>
</g>
<g opacity="0.5">
<path d="M97.2951 33.7519C97.7209 35.6266 95.1937 36.1741 94.8121 34.2883C94.3808 32.4136 96.9135 31.8661 97.2951 33.7519Z" fill="white"/>
</g>
<path d="M123.425 23.6813C123.508 23.6813 123.591 23.6648 123.668 23.626C123.945 23.4933 124.055 23.1615 123.923 22.885C122.723 20.4241 120.527 18.2674 117.574 16.6471C114.859 15.154 111.579 14.1475 108.09 13.7272C104.501 13.2959 100.945 13.5116 97.8096 14.3521C94.4197 15.2646 91.6768 16.8849 89.885 19.0416C89.6915 19.2739 89.7191 19.6278 89.9569 19.8214C90.1892 20.0149 90.5431 19.9873 90.7367 19.7495C93.9552 15.884 100.713 13.9484 107.963 14.8222C115.047 15.6794 120.781 18.9531 122.933 23.3717C123.021 23.5652 123.22 23.6813 123.425 23.6813Z" fill="#371A45"/>
<g opacity="0.5">
<path d="M119.294 36.9923C124.26 25.7275 116.778 19.6168 106.912 19.3237C113.714 21.5026 118.503 28.581 119.294 36.9923Z" fill="white"/>
</g>
<path d="M113.034 59.3282L103.417 60.1688C102.278 60.2683 101.266 59.4167 101.166 58.2775L100.718 53.1622C100.63 52.1668 101.271 51.2654 102.2 50.9889C102.333 50.9502 102.466 50.9225 102.61 50.9115L112.221 50.0709C113.36 49.9714 114.372 50.823 114.472 51.9622L114.825 56.0157L114.919 57.0775C115.025 58.2167 114.173 59.2287 113.034 59.3282Z" fill="white"/>
<g opacity="0.35">
<path d="M113.033 59.3281L103.417 60.1687C102.277 60.2682 101.265 59.4166 101.166 58.2774L100.718 53.1621C100.63 52.1667 101.271 51.2653 102.2 50.9888C102.775 51.304 103.146 51.5031 103.146 51.5031C103.97 55.5677 105.319 57.5142 110.429 57.1548C112.635 56.9999 113.996 56.5409 114.831 56.0156L114.925 57.0774C115.024 58.2166 114.173 59.2286 113.033 59.3281Z" fill="#371A45"/>
</g>
<path d="M103.24 60.7273C103.317 60.7273 103.395 60.7218 103.472 60.7163L113.089 59.8757C114.532 59.7485 115.605 58.4711 115.483 57.0277L115.035 51.9124C114.975 51.2156 114.643 50.5797 114.106 50.1262C113.564 49.6727 112.884 49.4571 112.187 49.5179L102.571 50.3585C101.127 50.4857 100.054 51.7631 100.176 53.2064L100.624 58.3218C100.685 59.0185 101.017 59.6545 101.553 60.108C102.029 60.5116 102.62 60.7273 103.24 60.7273ZM112.409 50.6129C113.188 50.6129 113.857 51.2101 113.929 52.0064L114.377 57.1217C114.449 57.9623 113.83 58.7033 112.989 58.7752L103.372 59.6158C102.969 59.649 102.576 59.5273 102.261 59.2619C101.946 58.9964 101.758 58.6314 101.719 58.2277L101.271 53.1124C101.199 52.2719 101.819 51.5308 102.659 51.4589L112.276 50.6184C112.32 50.6184 112.364 50.6129 112.409 50.6129Z" fill="#371A45"/>
<path d="M113.42 59.2564C113.299 59.2951 113.172 59.3172 113.039 59.3282L103.422 60.1688C102.587 60.2407 101.824 59.8038 101.431 59.1181C101.287 58.8692 101.199 58.5872 101.171 58.2831L100.972 56.0102L100.906 55.2581L100.723 53.1622C100.624 52.023 101.475 51.011 102.615 50.9115L104.694 50.729C103.754 50.9944 103.096 51.9014 103.184 52.9078L103.422 55.6729L103.627 58.0287C103.726 59.1679 104.738 60.0195 105.877 59.92L113.42 59.2564Z" fill="white"/>
<g opacity="0.35">
<path d="M113.42 59.2562C113.299 59.2949 113.172 59.317 113.039 59.3281L103.422 60.1687C102.283 60.2682 101.271 59.4166 101.171 58.2774L100.906 55.2524C101.193 55.7667 101.686 56.3806 102.388 56.3916C102.775 56.3972 103.123 56.0875 103.422 55.6727L103.627 58.0285C103.726 59.1677 104.738 60.0194 105.877 59.9198L113.42 59.2562Z" fill="#371A45"/>
</g>
<path d="M103.234 60.7271C103.311 60.7271 103.389 60.7216 103.466 60.7161L113.083 59.8755C113.249 59.8644 113.415 59.8313 113.575 59.787L113.371 58.7031L105.828 59.3612C105.424 59.3944 105.031 59.2727 104.716 59.0073C104.401 58.7418 104.213 58.3769 104.174 57.9732L103.726 52.8579C103.66 52.1279 104.13 51.4532 104.832 51.2597L104.633 50.1758L102.554 50.3583C101.857 50.4191 101.221 50.7509 100.768 51.2873C100.314 51.8293 100.098 52.5095 100.159 53.2063L100.607 58.3216C100.668 59.0183 101 59.6543 101.536 60.1078C102.028 60.5115 102.62 60.7271 103.234 60.7271ZM103.726 59.5824L103.372 59.6156C102.969 59.6488 102.576 59.5271 102.261 59.2617C101.945 58.9962 101.757 58.6312 101.719 58.2275L101.271 53.1122C101.238 52.7085 101.359 52.3159 101.625 52.0007C101.89 51.6855 102.255 51.4975 102.659 51.4588L102.957 51.4311C102.703 51.879 102.576 52.4099 102.626 52.9519L103.074 58.0672C103.123 58.6423 103.356 59.1621 103.726 59.5824Z" fill="#371A45"/>
<path d="M107.199 55.1751C107.216 55.3631 107.072 56.9171 107.072 56.9171C107.072 56.9171 106.586 56.9558 105.994 57.0056C105.253 57.0664 104.584 56.3475 104.512 55.3963C104.434 54.4451 104.976 53.6322 105.717 53.5714C106.221 53.5327 106.796 53.4829 106.796 53.4829C106.796 53.4829 107.172 54.871 107.199 55.1751Z" fill="#22A7F0"/>
<g opacity="0.35">
<path d="M107.199 55.1751C107.216 55.3631 107.072 56.9171 107.072 56.9171C107.072 56.9171 106.586 56.9558 105.994 57.0056C105.253 57.0664 104.584 56.3475 104.512 55.3963C104.434 54.4451 104.976 53.6322 105.717 53.5714C106.221 53.5327 106.796 53.4829 106.796 53.4829C106.796 53.4829 107.172 54.871 107.199 55.1751Z" fill="#371A45"/>
</g>
<path d="M105.911 57.2823C105.949 57.2823 105.983 57.2823 106.021 57.2768L107.1 57.1883C107.232 57.1772 107.343 57.0722 107.354 56.9394C107.387 56.5689 107.498 55.3523 107.481 55.1532C107.454 54.827 107.105 53.5495 107.066 53.4057C107.033 53.2785 106.912 53.1901 106.779 53.2011L105.701 53.2896C105.253 53.3283 104.86 53.5772 104.583 53.9919C104.324 54.3901 104.202 54.8933 104.246 55.4132C104.318 56.4749 105.059 57.2823 105.911 57.2823ZM106.818 56.6574L105.972 56.7238C105.38 56.7735 104.849 56.1652 104.783 55.3689C104.749 54.9707 104.838 54.5892 105.031 54.2961C105.214 54.0251 105.463 53.8592 105.734 53.8371L106.585 53.7652C106.729 54.2961 106.906 55.0095 106.923 55.1864C106.928 55.3026 106.878 55.9883 106.818 56.6574Z" fill="#371A45"/>
<path d="M105.59 55.309C105.512 54.3592 106.052 53.5403 106.794 53.4798C107.537 53.4193 108.202 54.1401 108.279 55.0899C108.357 56.0396 107.817 56.8586 107.075 56.9191C106.332 56.9796 105.667 56.2587 105.59 55.309Z" fill="#22A7F0"/>
<path d="M108.09 55.3189C108.018 54.6276 107.481 54.0968 106.906 53.9972C106.22 53.8811 105.667 54.423 105.452 55.2636C105.43 55.0811 105.435 54.882 105.468 54.6885C105.629 53.7484 106.442 53.3225 107.177 53.4497C107.913 53.5769 108.283 54.2018 108.128 55.1419C108.117 55.1972 108.106 55.2581 108.09 55.3189Z" fill="white"/>
<g opacity="0.35">
<path d="M107.072 56.917C106.331 56.9778 105.668 56.2589 105.59 55.3077C105.574 55.1031 105.585 54.904 105.623 54.716C105.867 55.3575 106.398 55.7888 106.978 55.7391C107.559 55.6893 108.012 55.1805 108.151 54.5059C108.217 54.6828 108.261 54.8819 108.278 55.0865C108.355 56.0377 107.813 56.8561 107.072 56.917Z" fill="#371A45"/>
</g>
<path d="M106.984 57.1992C107.022 57.1992 107.056 57.1992 107.094 57.1936C107.542 57.1549 107.935 56.9061 108.211 56.4913C108.471 56.0932 108.593 55.5899 108.549 55.0701C108.46 53.9696 107.658 53.1346 106.768 53.2065C106.32 53.2452 105.927 53.494 105.651 53.9088C105.391 54.3069 105.269 54.8102 105.314 55.33C105.358 55.8498 105.557 56.3309 105.878 56.6793C106.187 57.0167 106.58 57.1992 106.984 57.1992ZM108.001 55.1143C108.034 55.5125 107.946 55.8941 107.752 56.1872C107.57 56.4581 107.321 56.624 107.05 56.6462C106.779 56.6683 106.503 56.5466 106.281 56.3088C106.044 56.0489 105.894 55.6895 105.861 55.2913C105.828 54.8931 105.916 54.5116 106.11 54.2185C106.292 53.9475 106.541 53.7816 106.812 53.7595C107.404 53.7097 107.935 54.318 108.001 55.1143Z" fill="#371A45"/>
<path d="M110.042 59.964C110.053 59.964 110.058 59.964 110.069 59.964C110.296 59.9474 110.473 59.7538 110.456 59.5216L110.291 56.928C110.263 56.4635 110.462 56.0211 110.832 55.739C111.441 55.28 111.762 54.5501 111.701 53.7925L111.397 50.1426C111.38 49.9159 111.175 49.7445 110.949 49.7666C110.722 49.7832 110.55 49.9878 110.573 50.2145L110.877 53.8643C110.915 54.3399 110.716 54.7934 110.335 55.081C109.743 55.5289 109.417 56.2423 109.461 56.9833L109.627 59.5769C109.644 59.7981 109.826 59.964 110.042 59.964Z" fill="#371A45"/>
<path d="M97.4942 61.6508C98.2905 61.6508 99.0923 61.6453 99.8942 61.6342H99.9053C100.42 61.6287 100.95 61.6177 101.476 61.6066H101.503C101.913 61.5955 102.322 61.59 102.742 61.5789H102.82C103.378 61.5624 103.942 61.5458 104.495 61.5236C106.563 61.4462 108.582 61.3356 110.506 61.2029C111.723 61.1199 112.934 61.0204 114.106 60.9153C114.416 60.8877 114.726 60.86 115.019 60.8324H115.024L115.063 60.8268C115.229 60.8103 115.395 60.7937 115.561 60.7771H115.566C116.108 60.7218 116.678 60.6665 117.308 60.5946C117.33 60.5946 117.358 60.5891 117.38 60.5835H117.391C117.424 60.578 117.469 60.578 117.518 60.5669C117.574 60.5614 117.635 60.5559 117.701 60.5448C117.778 60.5393 117.856 60.5282 117.928 60.5172C119.299 60.3623 120.643 60.1854 121.926 60.0029C123.751 59.743 125.532 59.4499 127.202 59.1347C132.123 58.2056 136.299 57.0388 139.279 55.7669C142.636 54.3346 144.489 52.8083 144.942 51.0995L144.959 51.0442L144.964 50.9834C145.003 50.6847 145.025 50.375 145.031 50.0654C145.042 49.5732 144.654 49.1695 144.162 49.1584C143.67 49.1474 143.266 49.5345 143.255 50.0267C143.25 50.2589 143.233 50.4856 143.211 50.7013C143.012 51.3539 142.133 52.6258 138.582 54.141C135.718 55.3632 131.67 56.4913 126.87 57.3927C125.222 57.7024 123.474 57.9899 121.672 58.2498C120.405 58.4323 119.078 58.6038 117.723 58.7586H117.718C117.651 58.7641 117.59 58.7752 117.524 58.7807L117.48 58.7863C117.436 58.7918 117.38 58.7973 117.325 58.8028L117.275 58.8084C117.259 58.8139 117.236 58.8139 117.22 58.8139C117.198 58.8139 117.176 58.8194 117.159 58.8194L117.054 58.8305C116.457 58.8969 115.92 58.9522 115.406 59.0019H115.4C115.235 59.0185 115.069 59.0351 114.897 59.0517H114.892C114.588 59.0794 114.272 59.1125 113.957 59.1347C112.79 59.2397 111.596 59.3337 110.39 59.4167C108.482 59.5494 106.481 59.66 104.434 59.7374C103.887 59.7596 103.328 59.7761 102.775 59.7927H102.698C102.283 59.8038 101.874 59.8149 101.465 59.8204H101.437C100.917 59.8314 100.392 59.8425 99.8887 59.848H99.8776C97.7485 59.8757 95.6416 59.8646 93.6176 59.8204C92.2959 59.7927 90.9853 59.7485 89.7134 59.6877C89.4424 59.6766 89.1714 59.6655 88.9115 59.649L88.8341 59.6434C87.8387 59.5881 87.0368 59.5439 86.3179 59.4941C86.2294 59.4886 86.141 59.4831 86.0525 59.4775C85.964 59.472 85.881 59.4665 85.7926 59.4609C78.9906 58.9743 73.1177 58.0674 68.8042 56.8397C63.2078 55.247 62.0078 53.6267 61.7534 52.9465C61.7147 52.7253 61.687 52.4986 61.6705 52.2719C61.6318 51.7797 61.2059 51.4147 60.7138 51.4534C60.2216 51.4921 59.8566 51.9179 59.8953 52.4101C59.9174 52.7143 59.9561 53.0184 60.0114 53.317L60.0225 53.3779L60.0446 53.4387C60.393 54.506 61.3387 55.5014 62.8594 56.3862C64.2143 57.177 66.0503 57.9015 68.3121 58.5485C72.7472 59.8093 78.7417 60.7384 85.6598 61.2361C85.7483 61.2416 85.8368 61.2471 85.9308 61.2527C86.0193 61.2582 86.1023 61.2637 86.1907 61.2693H86.1963C86.9262 61.319 87.7336 61.3633 88.7346 61.4186L88.8452 61.4241H88.8507C89.1051 61.4352 89.3705 61.4517 89.6304 61.4628C90.9079 61.5236 92.2406 61.5679 93.5734 61.5955C94.8563 61.6342 96.167 61.6508 97.4942 61.6508Z" fill="#371A45"/>
<path d="M89.4036 52.5098C86.4063 57.0223 92.0912 59.3836 101.785 57.5587C101.785 57.5587 103.428 54.9375 100.807 53.5107C100.801 53.5162 93.7115 55.8831 89.4036 52.5098Z" fill="white"/>
<g opacity="0.35">
<path d="M101.78 57.5588C92.6498 59.063 89.5142 57.6473 88.6847 55.1698C89.0055 55.5403 89.3041 55.7062 89.3041 55.7062C89.3041 55.7062 92.7659 57.7137 99.7946 56.5192C100.945 56.3256 101.785 55.2417 101.581 54.0859C103.046 55.5403 101.78 57.5588 101.78 57.5588Z" fill="#371A45"/>
</g>
<path d="M95.7685 58.7309C97.411 58.7309 99.258 58.5595 101.254 58.2166C101.879 58.106 102.399 57.6747 102.609 57.083C103.129 55.612 102.797 54.3179 101.68 53.4276C101.26 53.0958 100.69 52.9797 100.154 53.129C98.799 53.4995 94.1261 54.5613 90.703 52.7087C90.233 52.4543 89.68 52.4266 89.1878 52.6257C88.7122 52.8193 88.3527 53.2119 88.2034 53.6986C87.855 54.8378 88.0596 55.8774 88.7951 56.7069C89.9786 58.0397 92.4505 58.7309 95.7685 58.7309ZM100.624 54.1686C100.762 54.1686 100.889 54.2129 100.994 54.2958C101.735 54.882 101.924 55.6949 101.564 56.7124C101.487 56.9281 101.299 57.083 101.066 57.1217C98.2184 57.6138 95.6303 57.7466 93.5786 57.5032C91.6818 57.2765 90.3159 56.7456 89.6302 55.9714C89.1491 55.4295 89.0329 54.788 89.2707 54.0193C89.3426 53.787 89.5141 53.6875 89.6136 53.6433C89.7961 53.5658 90.0062 53.5769 90.1777 53.6764C91.798 54.5557 93.8109 54.9539 96.1556 54.8599C98.0359 54.788 99.6506 54.4119 100.447 54.1907C100.508 54.1797 100.563 54.1686 100.624 54.1686Z" fill="#371A45"/>
<g opacity="0.35">
<path d="M123.704 81.7623C119.506 77.564 119.506 70.7573 123.704 66.559C127.902 62.3608 134.709 62.3608 138.907 66.559C143.105 70.7573 143.105 77.564 138.907 81.7623C134.709 85.9605 127.902 85.9605 123.704 81.7623Z" fill="#371A45"/>
</g>
<path d="M131.797 82.5714C126.459 82.5714 122.131 78.2435 122.131 72.9048C122.131 67.5661 126.459 63.2383 131.797 63.2383C137.136 63.2383 141.464 67.5661 141.464 72.9048C141.464 78.2435 137.136 82.5714 131.797 82.5714Z" fill="#E81818"/>
<g opacity="0.3">
<path d="M140.502 72.4623C139.55 67.2088 134.524 63.7193 129.27 64.665C126.77 65.1184 124.674 66.4899 123.259 68.3701C124.603 65.8429 127.047 63.935 130.077 63.3875C135.331 62.4363 140.363 65.9313 141.309 71.1849C141.807 73.9444 141.082 76.6375 139.523 78.7113C140.507 76.8643 140.9 74.6854 140.502 72.4623Z" fill="white"/>
</g>
<g opacity="0.35">
<path d="M133.517 82.4165C128.263 83.3621 123.231 79.8782 122.285 74.6191C121.987 72.9656 122.13 71.3343 122.628 69.8467C122.595 70.5601 122.639 71.29 122.772 72.02C123.723 77.2735 128.75 80.7685 134.003 79.8174C137.604 79.1648 140.38 76.5933 141.458 73.3527C141.253 77.7602 138.035 81.6036 133.517 82.4165Z" fill="#371A45"/>
</g>
<path d="M131.775 83.268C132.395 83.268 133.014 83.2127 133.639 83.1021C136.36 82.6099 138.732 81.0891 140.308 78.8163C141.884 76.5434 142.487 73.7894 141.995 71.0687C141.503 68.3479 139.982 65.9755 137.709 64.3994C135.436 62.8233 132.682 62.2206 129.961 62.7127C127.241 63.2049 124.868 64.7257 123.292 66.9985C121.716 69.2714 121.113 72.0254 121.605 74.7461C122.098 77.4669 123.618 79.8393 125.891 81.4154C127.644 82.632 129.685 83.268 131.775 83.268ZM131.819 63.9238C133.633 63.9238 135.397 64.4713 136.918 65.5275C138.887 66.8935 140.209 68.9451 140.634 71.3064C141.06 73.6678 140.54 76.0512 139.174 78.0199C137.809 79.9886 135.757 81.3103 133.396 81.7361C131.034 82.1619 128.651 81.6421 126.682 80.2762C124.713 78.9103 123.392 76.8586 122.966 74.4973C122.54 72.136 123.06 69.7525 124.426 67.7838C125.792 65.8151 127.843 64.4934 130.205 64.0676C130.741 63.9736 131.283 63.9238 131.819 63.9238Z" fill="#371A45"/>
<path d="M127.542 77.1197C125.141 74.7183 125.141 70.8247 127.542 68.4232C129.944 66.0217 133.837 66.0218 136.239 68.4232C138.64 70.8247 138.64 74.7183 136.239 77.1197C133.837 79.5212 129.944 79.5212 127.542 77.1197Z" fill="#22A7F0"/>
<g opacity="0.3">
<path d="M132.981 78.822C129.635 79.4247 126.439 77.2016 125.836 73.8615C125.703 73.1371 125.709 72.4181 125.825 71.7324C125.836 71.7988 125.847 71.8651 125.858 71.937C126.461 75.2827 129.663 77.5003 133.003 76.8975C135.624 76.4274 137.554 74.3592 137.974 71.8817C138.456 75.15 136.26 78.2302 132.981 78.822Z" fill="white"/>
</g>
<g opacity="0.35">
<path d="M137.925 74.3035C137.908 74.1985 137.897 74.0934 137.875 73.9883C137.272 70.6426 134.07 68.4251 130.73 69.0279C128.214 69.4813 126.334 71.4058 125.814 73.756C125.399 70.5265 127.583 67.5071 130.824 66.9264C134.164 66.3237 137.366 68.5412 137.969 71.8869C138.118 72.7109 138.096 73.5293 137.925 74.3035Z" fill="#371A45"/>
</g>
<path d="M131.875 79.6128C132.284 79.6128 132.693 79.574 133.102 79.5022C136.813 78.833 139.29 75.2661 138.621 71.5555C138.295 69.7582 137.289 68.1932 135.79 67.148C134.291 66.1084 132.472 65.7102 130.675 66.0365C128.877 66.3627 127.312 67.3692 126.267 68.8679C125.228 70.3665 124.829 72.1859 125.156 73.9832C125.482 75.7804 126.488 77.3454 127.987 78.3906C129.148 79.198 130.492 79.6128 131.875 79.6128ZM132.859 78.1418C131.421 78.4017 129.972 78.0865 128.778 77.2514C127.578 76.4219 126.776 75.1721 126.516 73.7343C126.256 72.2965 126.571 70.8476 127.406 69.6531C128.236 68.4531 129.486 67.6512 130.923 67.3913C132.361 67.1314 133.81 67.4466 135.005 68.2817C136.205 69.1112 137.007 70.361 137.266 71.7988C137.797 74.7629 135.823 77.6109 132.859 78.1418Z" fill="#371A45"/>
<g opacity="0.35">
<path d="M75.7833 84.9105C69.846 84.9105 65.0328 80.0974 65.0328 74.1601C65.0328 68.2228 69.846 63.4097 75.7833 63.4097C81.7206 63.4097 86.5337 68.2228 86.5337 74.1601C86.5337 80.0974 81.7206 84.9105 75.7833 84.9105Z" fill="#371A45"/>
</g>
<path d="M76.2807 82.5714C70.942 82.5714 66.6142 78.2435 66.6142 72.9048C66.6142 67.5661 70.942 63.2383 76.2807 63.2383C81.6194 63.2383 85.9473 67.5661 85.9473 72.9048C85.9473 78.2435 81.6194 82.5714 76.2807 82.5714Z" fill="#E81818"/>
<g opacity="0.3">
<path d="M84.9795 72.4623C84.0284 67.2088 79.0016 63.7193 73.748 64.665C71.2484 65.1184 69.1525 66.4899 67.7368 68.3701C69.0806 65.8429 71.5249 63.935 74.5554 63.3875C79.8089 62.4363 84.8413 65.9313 85.7869 71.1849C86.2846 73.9444 85.5602 76.6375 84.0007 78.7113C84.9906 76.8643 85.3832 74.6854 84.9795 72.4623Z" fill="white"/>
</g>
<g opacity="0.35">
<path d="M77.9949 82.4165C72.7413 83.3621 67.709 79.8782 66.7633 74.6191C66.4647 72.9656 66.6085 71.3343 67.1062 69.8467C67.073 70.5601 67.1172 71.29 67.25 72.02C68.2011 77.2735 73.228 80.7685 78.4815 79.8174C82.0816 79.1648 84.8577 76.5933 85.936 73.3527C85.737 77.7602 82.5185 81.6036 77.9949 82.4165Z" fill="#371A45"/>
</g>
<path d="M76.2586 83.268C76.878 83.268 77.4974 83.2127 78.1223 83.1021C80.8431 82.6099 83.2154 81.0891 84.7915 78.8163C86.3676 76.5434 86.9704 73.7894 86.4782 71.0687C85.986 68.3479 84.4652 65.9755 82.1924 64.3994C79.9195 62.8233 77.1656 62.2206 74.4448 62.7127C71.724 63.2049 69.3516 64.7257 67.7755 66.9985C66.1995 69.2714 65.5967 72.0254 66.0889 74.7461C66.581 77.4669 68.1018 79.8393 70.3746 81.4154C72.1277 82.632 74.1627 83.268 76.2586 83.268ZM76.2973 63.9238C78.1112 63.9238 79.8753 64.4713 81.3961 65.5275C83.3648 66.8935 84.6864 68.9451 85.1123 71.3064C85.5381 73.6678 85.0182 76.0512 83.6523 78.0199C82.2864 79.9886 80.2347 81.3103 77.8734 81.7361C75.5121 82.1619 73.1286 81.6421 71.1599 80.2762C69.1912 78.9103 67.8695 76.8586 67.4437 74.4973C67.0179 72.136 67.5377 69.7525 68.9037 67.7838C70.2696 65.8151 72.3212 64.4934 74.6826 64.0676C75.2245 63.9736 75.7609 63.9238 76.2973 63.9238Z" fill="#371A45"/>
<path d="M72.0216 77.1183C69.6202 74.7168 69.6202 70.8232 72.0216 68.4218C74.4231 66.0203 78.3167 66.0203 80.7182 68.4218C83.1196 70.8232 83.1196 74.7168 80.7182 77.1183C78.3167 79.5198 74.4231 79.5198 72.0216 77.1183Z" fill="#22A7F0"/>
<g opacity="0.3">
<path d="M77.4643 78.822C74.1187 79.4247 70.9223 77.2016 70.3195 73.8615C70.1868 73.1371 70.1923 72.4181 70.3085 71.7324C70.3195 71.7988 70.3306 71.8651 70.3416 71.937C70.9444 75.2827 74.1463 77.5003 77.4865 76.8975C80.1077 76.4274 82.0377 74.3592 82.458 71.8817C82.9391 75.15 80.7381 78.2302 77.4643 78.822Z" fill="white"/>
</g>
<g opacity="0.35">
<path d="M82.4081 74.3035C82.3915 74.1985 82.3804 74.0934 82.3583 73.9883C81.7555 70.6426 78.5536 68.4251 75.2135 69.0279C72.6973 69.4813 70.8171 71.4058 70.2973 73.756C69.8825 70.5265 72.0669 67.5071 75.3075 66.9264C78.6476 66.3237 81.8495 68.5412 82.4523 71.8869C82.6016 72.7109 82.5795 73.5293 82.4081 74.3035Z" fill="#371A45"/>
</g>
<path d="M76.3581 79.6128C76.7673 79.6128 77.1765 79.574 77.5857 79.5022C81.2964 78.833 83.7739 75.2661 83.1047 71.5555C82.7785 69.7582 81.772 68.1932 80.2733 67.148C78.7747 66.1084 76.9553 65.7102 75.158 66.0365C71.4474 66.7056 68.9699 70.2725 69.639 73.9832C69.9653 75.7804 70.9718 77.3454 72.4704 78.3906C73.6262 79.198 74.9755 79.6128 76.3581 79.6128ZM77.3424 78.1418C75.9046 78.4017 74.4557 78.0865 73.2612 77.2514C72.0612 76.4219 71.2593 75.1721 70.9994 73.7343C70.463 70.7702 72.4373 67.9277 75.4014 67.3913C76.8336 67.1314 78.288 67.4466 79.4825 68.2817C80.6826 69.1112 81.4844 70.361 81.7443 71.7988C82.2807 74.7629 80.301 77.6109 77.3424 78.1418Z" fill="#371A45"/>
<g opacity="0.35">
<path d="M95.9441 85.7379C91.7459 81.5396 91.7459 74.7329 95.9441 70.5346C100.142 66.3363 106.949 66.3363 111.147 70.5346C115.346 74.7329 115.346 81.5396 111.147 85.7379C106.949 89.9361 100.142 89.9361 95.9441 85.7379Z" fill="#371A45"/>
</g>
<path d="M97.2029 83.7146C93.4279 79.9396 93.4279 73.8192 97.2029 70.0442C100.978 66.2692 107.098 66.2692 110.873 70.0442C114.648 73.8192 114.648 79.9396 110.873 83.7146C107.098 87.4896 100.978 87.4896 97.2029 83.7146Z" fill="#E81818"/>
<g opacity="0.3">
<path d="M112.74 76.4384C111.789 71.1849 106.762 67.6954 101.509 68.641C99.0092 69.0945 96.9133 70.466 95.4976 72.3462C96.8414 69.8189 99.2857 67.9111 102.316 67.3636C107.57 66.4124 112.602 69.9074 113.548 75.161C114.045 77.9205 113.321 80.6136 111.761 82.6874C112.746 80.8403 113.144 78.6615 112.74 76.4384Z" fill="white"/>
</g>
<g opacity="0.35">
<path d="M105.756 86.3926C100.503 87.3382 95.4702 83.8543 94.5246 78.5952C94.2259 76.9417 94.3697 75.3103 94.8674 73.8228C94.8342 74.5361 94.8785 75.2661 95.0112 75.9961C95.9624 81.2496 100.989 84.7446 106.243 83.7934C109.843 83.1409 112.619 80.5694 113.697 77.3288C113.493 81.7418 110.28 85.5797 105.756 86.3926Z" fill="#371A45"/>
</g>
<path d="M104.014 87.2438C104.634 87.2438 105.253 87.1885 105.878 87.0779C111.502 86.0604 115.246 80.663 114.234 75.0445C113.216 69.4204 107.819 65.6766 102.2 66.6886C96.5763 67.7061 92.8325 73.1035 93.8445 78.722C94.3366 81.4428 95.8574 83.8152 98.1303 85.3912C99.8833 86.6079 101.924 87.2438 104.014 87.2438ZM105.635 85.7175C103.273 86.1433 100.89 85.6235 98.921 84.2576C96.9523 82.8917 95.6307 80.84 95.2048 78.4787C94.3256 73.6067 97.5717 68.9283 102.444 68.049C104.805 67.6232 107.188 68.143 109.157 69.5089C111.126 70.8748 112.448 72.9265 112.873 75.2878C113.753 80.1543 110.507 84.8382 105.635 85.7175Z" fill="#371A45"/>
<path d="M99.7824 81.0953C97.3809 78.6939 97.3809 74.8003 99.7824 72.3988C102.184 69.9973 106.077 69.9973 108.479 72.3988C110.88 74.8003 110.88 78.6938 108.479 81.0953C106.077 83.4968 102.184 83.4968 99.7824 81.0953Z" fill="#22A7F0"/>
<g opacity="0.3">
<path d="M105.225 82.8034C101.88 83.4062 98.6833 81.1831 98.0805 77.8429C97.9478 77.1185 97.9533 76.3996 98.0695 75.7139C98.0805 75.7802 98.0916 75.8466 98.1027 75.9185C98.7054 79.2642 101.907 81.4817 105.247 80.8789C107.869 80.4089 109.799 78.3406 110.219 75.8632C110.695 79.1259 108.499 82.2117 105.225 82.8034Z" fill="white"/>
</g>
<g opacity="0.35">
<path d="M110.163 78.2796C110.147 78.1745 110.136 78.0695 110.114 77.9644C109.511 74.6187 106.309 72.4011 102.969 73.0039C100.453 73.4574 98.5725 75.3818 98.0526 77.7321C97.6379 74.5026 99.8222 71.4832 103.063 70.9025C106.403 70.2997 109.605 72.5173 110.208 75.863C110.357 76.6869 110.335 77.5054 110.163 78.2796Z" fill="#371A45"/>
</g>
<path d="M104.13 83.5887C104.534 83.5887 104.938 83.5556 105.347 83.4781C107.144 83.1519 108.709 82.1454 109.754 80.6468C110.794 79.1481 111.192 77.3287 110.866 75.5315C110.197 71.8208 106.63 69.3433 102.919 70.0125C101.122 70.3387 99.5569 71.3452 98.5117 72.8438C97.4721 74.3425 97.0739 76.1619 97.4002 77.9591C97.9919 81.2661 100.884 83.5887 104.13 83.5887ZM104.136 71.2844C106.724 71.2844 109.03 73.1369 109.505 75.7748C109.765 77.2126 109.45 78.6615 108.615 79.856C107.786 81.056 106.536 81.8578 105.098 82.1177C102.134 82.6542 99.2915 80.6799 98.7551 77.7158C98.4951 76.278 98.8103 74.8291 99.6454 73.6346C100.475 72.4346 101.725 71.6328 103.163 71.3729C103.489 71.3176 103.815 71.2844 104.136 71.2844Z" fill="#371A45"/>
</g>
<defs>
<clipPath id="clip0_402_67564">
<rect width="183.88" height="100" fill="white" transform="matrix(-1 0 0 1 183.94 0.953125)"/>
</clipPath>
</defs>
</svg>
