<svg width="237" height="42" viewBox="0 0 237 42" fill="none" xmlns="http://www.w3.org/2000/svg">
<line x1="1.81055" y1="20.7238" x2="151.851" y2="20.7237" stroke="url(#paint0_linear_320_3575)" stroke-width="3" stroke-linecap="round"/>
<g clip-path="url(#clip0_320_3575)">
<path d="M178.768 24.2607C173.413 27.934 165.084 27.1777 159.945 20.5875C165.084 13.9972 173.413 13.241 178.768 16.9142L178.768 24.2607Z" fill="url(#paint1_linear_320_3575)"/>
<path d="M178.768 22.8563C175.468 25.125 170.384 24.6389 167.247 20.5875C170.384 16.5361 175.468 16.0499 178.768 18.3187L178.768 22.8563Z" fill="url(#paint2_linear_320_3575)"/>
<path d="M187.8 24.7469C187.8 24.7469 186.61 27.0697 181.039 27.0697C181.039 27.0697 180.012 25.7192 180.012 20.5875C180.012 15.4557 181.039 14.1053 181.039 14.1053C186.61 14.1053 187.8 16.4281 187.8 16.4281L187.8 24.7469Z" fill="url(#paint3_linear_320_3575)"/>
<path d="M179.255 14.6455C178.66 14.8075 178.227 15.2397 178.011 15.7798C177.74 16.5901 177.524 18.0486 177.524 20.5875C177.524 23.1264 177.794 24.5849 178.011 25.3951C178.173 25.9353 178.66 26.3675 179.255 26.5295L181.094 27.0157C181.094 27.0157 180.066 25.6652 180.066 20.5335C180.066 15.4017 181.094 14.0513 181.094 14.0513L179.255 14.6455Z" fill="url(#paint4_linear_320_3575)"/>
<path d="M187.8 24.7469L187.692 24.909C187.692 24.909 186.394 23.8286 186.394 20.5875C186.394 17.4004 187.692 16.266 187.692 16.266L187.8 16.4281L187.8 24.7469Z" fill="#865143"/>
<path d="M180.553 26.9617C180.553 26.9617 179.525 25.7192 179.525 20.6415C179.525 15.5638 180.553 14.3213 180.553 14.3213L181.039 14.1593C181.039 14.1593 180.012 15.5097 180.012 20.6415C180.012 25.7733 181.039 27.1237 181.039 27.1237L180.553 26.9617Z" fill="#865143"/>
<path d="M181.148 27.0697C181.148 27.0697 180.12 25.7192 180.12 20.5875C180.12 15.4557 181.148 14.1053 181.148 14.1053L181.039 14.1053C181.039 14.1053 180.012 15.4557 180.012 20.5875C180.012 25.7192 181.039 27.0697 181.039 27.0697L181.148 27.0697Z" fill="#E1D9C4"/>
<path d="M179.254 26.5835L181.093 27.0697C186.664 27.0697 187.854 24.7469 187.854 24.7469L187.854 16.4821C187.854 16.4821 187.584 15.9419 186.719 15.4017C186.394 17.0223 183.311 20.5875 179.633 20.5875L177.578 20.5875C177.578 23.1804 177.848 24.5849 178.065 25.3951C178.227 25.9893 178.66 26.4215 179.254 26.5835Z" fill="url(#paint5_linear_320_3575)"/>
<path d="M230.8 24.6389C231.016 23.5045 231.124 22.154 231.124 20.6415C231.124 19.075 231.016 17.7785 230.8 16.6442C221.389 11.8365 204.622 8.91952 192.236 14.1593C191.749 15.6718 191.316 17.7785 191.316 20.6415C191.316 23.5045 191.749 25.6112 192.236 27.1237C204.622 32.3095 221.389 29.3925 230.8 24.6389Z" fill="url(#paint6_linear_320_3575)"/>
<path d="M192.235 14.1593C190.667 14.8075 189.207 15.5638 187.8 16.4821C187.8 16.4821 186.773 17.7245 186.773 20.5875C186.773 23.5045 187.8 24.6929 187.8 24.6929C189.207 25.6112 190.667 26.3675 192.235 27.0157C191.749 25.5032 191.316 23.3965 191.316 20.5335C191.262 17.7785 191.695 15.6178 192.235 14.1593Z" fill="url(#paint7_linear_320_3575)"/>
<path d="M230.8 24.6389C233.288 23.3965 235.289 21.992 236.533 20.6415C235.289 19.237 233.288 17.8866 230.8 16.6441C231.016 17.7785 231.124 19.129 231.124 20.6415C231.124 22.154 231.016 23.5045 230.8 24.6389Z" fill="url(#paint8_linear_320_3575)"/>
<path d="M192.235 27.0697C204.621 32.3095 221.389 29.3925 230.8 24.6389C233.288 23.3965 235.289 21.992 236.533 20.6415L186.773 20.6415C186.773 23.5585 187.8 24.7469 187.8 24.7469C189.207 25.6652 190.667 26.4215 192.235 27.0697Z" fill="url(#paint9_linear_320_3575)"/>
<path d="M230.8 24.6389C233.288 23.3965 235.289 21.992 236.533 20.6415C235.289 21.938 233.288 23.1804 230.8 24.3148C221.389 28.6363 205.811 32.1475 192.235 26.5836C190.721 25.9353 189.207 25.2871 187.8 24.4228C187.8 24.4228 186.773 23.2884 186.773 20.6415C186.773 23.5585 187.8 24.7469 187.8 24.7469C189.207 25.6652 190.667 26.4215 192.235 27.0697C204.621 32.3095 221.389 29.3925 230.8 24.6389Z" fill="#4C715F"/>
<path d="M236.533 20.6415C235.289 19.237 233.288 17.8866 230.8 16.6442C221.389 11.8365 204.621 8.91951 192.235 14.1593C190.667 14.8075 189.207 15.5638 187.8 16.4821C187.8 16.4821 187.259 17.1303 186.935 18.6428C208.678 10.486 228.636 15.9959 236.533 20.6415Z" fill="#E9B353"/>
<path d="M230.8 16.5901C233.288 17.8326 235.289 19.237 236.533 20.6415C235.289 19.3451 233.288 18.1027 230.8 16.9683C221.389 12.5928 205.757 9.08157 192.235 14.6995C190.721 15.3477 189.207 15.9959 187.8 16.8602C187.8 16.8602 186.773 17.9946 186.773 20.6415C186.773 17.7245 187.8 16.5361 187.8 16.5361C189.207 15.6178 190.667 14.8615 192.235 14.2133C204.621 8.91951 221.389 11.8365 230.8 16.5901Z" fill="#E1D9C4"/>
<path d="M214.082 25.776C216.931 26.4505 219.787 24.6911 220.463 21.8464C221.138 19.0016 219.376 16.1487 216.528 15.4742C213.68 14.7997 210.823 16.5591 210.148 19.4038C209.472 22.2486 211.234 25.1015 214.082 25.776Z" fill="#E1D9C4"/>
<path d="M214.107 25.6711C216.897 26.3319 219.695 24.6084 220.357 21.8217C221.018 19.035 219.293 16.2403 216.503 15.5796C213.712 14.9189 210.914 16.6423 210.253 19.429C209.591 22.2157 211.317 25.0104 214.107 25.6711Z" fill="#1D262D"/>
<path d="M214.107 25.6711C216.897 26.3319 219.695 24.6084 220.357 21.8217C221.018 19.035 219.293 16.2403 216.503 15.5796C213.712 14.9189 210.914 16.6423 210.253 19.429C209.591 22.2157 211.317 25.0104 214.107 25.6711Z" fill="#865143"/>
<path d="M210.193 20.6415C210.193 23.4459 212.469 25.7193 215.277 25.7193C218.085 25.7193 220.361 23.4459 220.361 20.6415C220.361 17.8372 218.085 15.5638 215.277 15.5638C212.469 15.5638 210.193 17.8372 210.193 20.6415Z" fill="url(#paint10_linear_320_3575)"/>
<path d="M210.625 20.6415C210.625 23.2072 212.708 25.2871 215.277 25.2871C217.846 25.2871 219.928 23.2072 219.928 20.6415C219.928 18.0758 217.846 15.9959 215.277 15.9959C212.708 15.9959 210.625 18.0758 210.625 20.6415Z" fill="url(#paint11_linear_320_3575)"/>
<path d="M215.277 24.4768C213.113 24.4768 211.382 22.7482 211.382 20.5875C211.382 18.4268 213.113 16.6982 215.277 16.6982C217.44 16.6982 219.171 18.4268 219.171 20.5875C219.171 22.7482 217.44 24.4768 215.277 24.4768Z" fill="#E9B353"/>
<path d="M215.277 24.3688C213.221 24.3688 211.545 22.6942 211.545 20.6415C211.545 18.5888 213.221 16.9142 215.277 16.9142C217.332 16.9142 219.009 18.5888 219.009 20.6415C219.009 22.6942 217.332 24.3688 215.277 24.3688Z" fill="url(#paint12_radial_320_3575)"/>
<path d="M230.637 16.5361C230.854 17.6705 230.962 19.075 230.962 20.6415C230.962 22.2081 230.854 23.6125 230.637 24.7469L230.8 24.6389C231.016 23.5045 231.124 22.154 231.124 20.6415C231.124 19.075 231.016 17.7785 230.8 16.6442L230.637 16.5361Z" fill="#865143"/>
<path d="M230.908 16.6441C231.124 17.7785 231.232 19.021 231.232 20.5875C231.232 22.154 231.124 23.3965 230.908 24.5308L230.8 24.5849C231.016 23.5045 231.124 22.154 231.124 20.6415C231.124 19.075 231.016 17.7785 230.8 16.6441L230.908 16.6441Z" fill="#E1D9C4"/>
<path d="M192.235 14.1593C191.749 15.6718 191.316 17.7785 191.316 20.6415C191.316 23.5045 191.749 25.6112 192.235 27.1237L192.073 27.0697C191.586 25.5572 191.154 23.5045 191.154 20.6955C191.154 17.8326 191.586 15.7799 192.073 14.3214L192.235 14.1593Z" fill="#E1D9C4"/>
<path d="M192.235 27.0697C191.749 25.5572 191.316 23.4505 191.316 20.5875C191.316 17.7245 191.749 15.6178 192.235 14.1053L192.344 14.0513C191.857 15.5638 191.424 17.7245 191.424 20.5875C191.424 23.4505 191.857 25.6112 192.344 27.1237L192.235 27.0697Z" fill="#865143"/>
<path d="M208.678 11.4044C208.624 11.4044 208.516 11.4044 208.462 11.4044C207.813 13.6191 207.326 16.5901 207.326 20.6415C207.326 24.6389 207.813 27.6639 208.516 29.8787C208.57 29.8787 208.678 29.8787 208.732 29.8787C208.083 27.6639 207.488 24.6389 207.488 20.6415C207.488 16.6441 208.029 13.6191 208.678 11.4044Z" fill="#E1D9C4"/>
<path d="M208.678 11.4044C208.029 13.6191 207.434 16.6441 207.434 20.6415C207.434 24.5849 207.975 27.6099 208.678 29.8787C208.732 29.8787 208.786 29.8787 208.84 29.8787C208.191 27.6639 207.596 24.5849 207.596 20.6415C207.596 16.7522 208.191 13.6731 208.84 11.4044C208.786 11.4044 208.732 11.4044 208.678 11.4044Z" fill="#865143"/>
<path d="M222.308 27.826C222.362 27.826 222.47 27.772 222.524 27.772C222.903 25.8813 223.173 23.5045 223.173 20.6415C223.173 17.7785 222.903 15.4557 222.524 13.5111C222.47 13.5111 222.362 13.4571 222.308 13.4571C222.741 15.4017 223.011 17.7785 223.011 20.6415C223.065 23.5045 222.741 25.8813 222.308 27.826Z" fill="#E1D9C4"/>
<path d="M223.065 20.5875C223.065 17.7245 222.795 15.3477 222.362 13.403C222.308 13.403 222.254 13.349 222.2 13.349C222.632 15.2937 222.957 17.7245 222.957 20.5875C222.957 23.4505 222.632 25.8813 222.2 27.826C222.254 27.826 222.308 27.772 222.362 27.772C222.741 25.8813 223.065 23.5045 223.065 20.5875Z" fill="#865143"/>
<path d="M230.8 16.5901C230.583 16.4821 230.367 16.3741 230.205 16.266C230.367 16.4281 230.583 16.5361 230.8 16.5901Z" fill="#2B372D"/>
<path d="M203.432 29.2845C200.511 28.6903 194.291 26.7456 189.964 24.3148C188.666 23.5585 187.8 22.2081 187.8 20.6955L187.8 20.6415L187.8 20.5875C187.8 19.075 188.666 17.7245 189.964 16.9683C194.237 14.4834 200.457 12.5388 203.432 11.9986L203.161 11.6204C199.213 11.9445 195.751 12.7548 192.235 14.2133C190.667 14.8615 189.207 15.6178 187.8 16.5361C187.8 16.5361 186.773 17.7785 186.773 20.6415C186.773 23.5585 187.8 24.7469 187.8 24.7469C189.207 25.6652 190.667 26.4215 192.235 27.0697C195.751 28.5282 199.213 29.3385 203.161 29.6626L203.432 29.2845Z" fill="#2B372D"/>
<path opacity="0.3" d="M200.944 28.0961C197.374 26.4215 190.829 22.6942 187.8 16.5361C187.8 16.5361 186.773 17.7785 186.773 20.6415C186.773 23.5585 187.8 24.7469 187.8 24.7469C189.207 25.6652 190.667 26.4215 192.235 27.0697C197.212 29.1764 202.891 29.9327 208.516 29.8247C207.65 29.8247 206.839 29.7166 205.865 29.5546C204.189 29.3385 202.512 28.7983 200.944 28.0961Z" fill="url(#paint13_linear_320_3575)"/>
<path d="M203.432 11.9445C198.78 4.92215 188.341 2.16721 188.341 2.16721L168.329 2.1672C174.603 2.1672 185.907 8.75746 189.369 16.6442C192.831 14.4834 199.375 12.5387 203.432 11.9445Z" fill="url(#paint14_linear_320_3575)"/>
<path d="M202.35 12.1066C197.698 5.0842 188.341 2.16721 188.341 2.16721C188.341 2.16721 198.78 4.92215 203.432 11.9445L202.35 12.1066Z" fill="#E1D9C4"/>
<path d="M168.329 2.1672C174.603 2.1672 185.907 8.75746 189.369 16.6442C189.369 16.6442 191.316 15.4557 193.426 14.6995C186.394 4.65205 174.603 2.1672 168.329 2.1672Z" fill="#865143"/>
<path d="M189.315 16.6442C185.853 8.75746 174.603 2.16721 168.329 2.1672C174.603 2.16721 186.448 8.43335 189.91 16.32L189.315 16.6442Z" fill="#2B372D"/>
<path d="M166.166 1.14085C166.166 0.546648 166.652 0.114501 167.193 0.114501L191.695 0.114502C191.695 0.114502 192.236 0.114502 192.236 1.14085C192.236 2.1672 191.695 2.1672 191.695 2.1672L167.193 2.1672C166.598 2.1672 166.166 1.73505 166.166 1.14085Z" fill="url(#paint15_linear_320_3575)"/>
<path d="M192.073 1.84309C191.911 2.1672 191.695 2.1672 191.695 2.1672L167.193 2.1672C166.923 2.1672 166.652 2.05917 166.436 1.84309L191.695 1.84309C191.695 1.84309 191.911 1.84309 192.073 1.51898L192.073 1.84309Z" fill="#E1D9C4"/>
<path d="M192.073 1.84309C191.911 1.62702 191.803 1.41095 191.803 1.14085C191.803 0.870761 191.911 0.600669 192.073 0.438614C192.127 0.600669 192.181 0.816743 192.181 1.14085C192.181 1.46496 192.127 1.73506 192.073 1.84309Z" fill="#2B372D"/>
<path d="M192.939 0.114502C192.344 0.114502 191.911 0.600668 191.911 1.14085C191.911 1.73506 192.398 2.1672 192.939 2.1672C193.534 2.1672 193.966 1.68104 193.966 1.14085C193.966 0.600668 193.534 0.114502 192.939 0.114502Z" fill="url(#paint16_linear_320_3575)"/>
<path d="M192.83 1.84309C193.425 1.84309 193.858 1.41094 193.966 0.870758C193.966 0.978795 194.02 1.03281 194.02 1.14085C194.02 1.73505 193.534 2.1672 192.993 2.1672C192.56 2.1672 192.181 1.89711 192.019 1.46496C192.181 1.73505 192.506 1.84309 192.83 1.84309Z" fill="#E1D9C4"/>
<path d="M193.858 0.70871C193.804 0.70871 193.696 0.870765 193.696 1.14086C193.696 1.41095 193.804 1.573 193.858 1.573C193.912 1.573 193.966 1.41095 193.966 1.14086C193.966 0.870765 193.912 0.70871 193.858 0.70871Z" fill="#2B372D"/>
<path d="M193.912 0.816741C193.912 0.816741 193.75 0.816741 193.75 1.14085C193.75 1.46496 193.912 1.46496 193.912 1.46496L204.946 1.46496L204.946 0.816742L193.912 0.816741Z" fill="url(#paint17_linear_320_3575)"/>
<path d="M204.946 1.3029L204.946 1.46496L193.912 1.46496C193.912 1.46496 193.804 1.46496 193.804 1.3029L204.946 1.3029Z" fill="#E1D9C4"/>
<path d="M203.432 29.2845C198.78 36.3069 188.341 39.0618 188.341 39.0618L168.329 39.0618C174.603 39.0618 185.907 32.4715 189.369 24.5849C192.831 26.7456 199.375 28.6903 203.432 29.2845Z" fill="url(#paint18_linear_320_3575)"/>
<path d="M202.35 29.1224C197.698 36.1448 188.341 39.0618 188.341 39.0618C188.341 39.0618 198.78 36.3069 203.432 29.2845L202.35 29.1224Z" fill="#E1D9C4"/>
<path d="M168.329 39.0618C174.603 39.0618 185.907 32.4715 189.369 24.5849C189.369 24.5849 191.316 25.7733 193.426 26.5295C186.394 36.577 174.603 39.0618 168.329 39.0618Z" fill="#865143"/>
<path d="M189.315 24.5849C185.853 32.4715 174.549 39.0618 168.275 39.0618C174.549 39.0618 186.394 32.7957 189.856 24.909L189.315 24.5849Z" fill="#2B372D"/>
<path d="M166.166 40.0881C166.166 40.6824 166.652 41.1145 167.193 41.1145L191.695 41.1145C191.695 41.1145 192.236 41.1145 192.236 40.0881C192.236 39.0618 191.695 39.0618 191.695 39.0618L167.193 39.0618C166.598 39.0618 166.166 39.4939 166.166 40.0881Z" fill="url(#paint19_linear_320_3575)"/>
<path d="M192.073 39.3859C191.911 39.0618 191.695 39.0618 191.695 39.0618L167.193 39.0618C166.923 39.0618 166.652 39.1698 166.436 39.3859L191.695 39.3859C191.695 39.3859 191.911 39.3859 192.073 39.71L192.073 39.3859Z" fill="#E1D9C4"/>
<path d="M192.073 39.3859C191.911 39.602 191.803 39.8181 191.803 40.0882C191.803 40.3582 191.911 40.6283 192.073 40.7904C192.127 40.6283 192.181 40.4123 192.181 40.0882C192.181 39.764 192.127 39.548 192.073 39.3859Z" fill="#2B372D"/>
<path d="M192.939 41.1145C192.344 41.1145 191.911 40.6283 191.911 40.0881C191.911 39.4939 192.398 39.0618 192.939 39.0618C193.534 39.0618 193.966 39.548 193.966 40.0881C193.966 40.6283 193.534 41.1145 192.939 41.1145Z" fill="url(#paint20_linear_320_3575)"/>
<path d="M192.83 39.3859C193.425 39.3859 193.858 39.8181 193.966 40.3582C193.966 40.2502 194.02 40.1962 194.02 40.0881C194.02 39.4939 193.534 39.0618 192.993 39.0618C192.56 39.0618 192.181 39.3319 192.019 39.764C192.181 39.4939 192.506 39.3859 192.83 39.3859Z" fill="#E1D9C4"/>
<path d="M193.858 40.5203C193.804 40.5203 193.696 40.3582 193.696 40.0881C193.696 39.8181 193.804 39.656 193.858 39.656C193.912 39.656 193.966 39.8181 193.966 40.0881C193.966 40.3582 193.912 40.5203 193.858 40.5203Z" fill="#2B372D"/>
<path d="M193.912 40.4123C193.912 40.4123 193.75 40.4123 193.75 40.0881C193.75 39.764 193.912 39.764 193.912 39.764L204.946 39.764L204.946 40.3582L193.912 40.3582L193.912 40.4123Z" fill="url(#paint21_linear_320_3575)"/>
<path d="M204.946 39.9261L204.946 39.764L193.912 39.764C193.912 39.764 193.804 39.764 193.804 39.9261L204.946 39.9261Z" fill="#E1D9C4"/>
<path d="M168.329 39.0618L172.007 39.0618C182.067 39.0618 197.428 30.6889 201.484 31.7153C202.188 30.959 202.891 30.1488 203.486 29.2845C199.483 28.6903 192.885 26.7456 189.423 24.5849C185.853 32.4715 174.603 39.0618 168.329 39.0618Z" fill="url(#paint22_linear_320_3575)"/>
</g>
<defs>
<linearGradient id="paint0_linear_320_3575" x1="0.310547" y1="22.7238" x2="153.351" y2="22.7237" gradientUnits="userSpaceOnUse">
<stop stop-color="#EE3A26"/>
<stop offset="1" stop-color="#EAC076"/>
</linearGradient>
<linearGradient id="paint1_linear_320_3575" x1="159.711" y1="20.6146" x2="186.138" y2="20.6146" gradientUnits="userSpaceOnUse">
<stop offset="0.2706" stop-color="#E1D9C4"/>
<stop offset="0.5447" stop-color="#E9B353"/>
<stop offset="0.8617" stop-color="#D5604F"/>
</linearGradient>
<linearGradient id="paint2_linear_320_3575" x1="158.97" y1="20.6146" x2="182.472" y2="20.6146" gradientUnits="userSpaceOnUse">
<stop offset="0.2706" stop-color="#E1D9C4"/>
<stop offset="0.5447" stop-color="#E9B353"/>
<stop offset="0.8617" stop-color="#D5604F"/>
</linearGradient>
<linearGradient id="paint3_linear_320_3575" x1="183.926" y1="25.6458" x2="183.926" y2="-0.186122" gradientUnits="userSpaceOnUse">
<stop stop-color="#865143"/>
<stop offset="0.0627891" stop-color="#985546"/>
<stop offset="0.1743" stop-color="#B35A4A"/>
<stop offset="0.2883" stop-color="#C65D4D"/>
<stop offset="0.4054" stop-color="#D15F4E"/>
<stop offset="0.53" stop-color="#D5604F"/>
</linearGradient>
<linearGradient id="paint4_linear_320_3575" x1="179.288" y1="0.299778" x2="179.288" y2="26.677" gradientUnits="userSpaceOnUse">
<stop stop-color="#D5604F"/>
<stop offset="0.3538" stop-color="#D3604F"/>
<stop offset="0.5479" stop-color="#CB5E4D"/>
<stop offset="0.7033" stop-color="#BD5B4B"/>
<stop offset="0.8382" stop-color="#A95848"/>
<stop offset="0.9586" stop-color="#905345"/>
<stop offset="1" stop-color="#865143"/>
</linearGradient>
<linearGradient id="paint5_linear_320_3575" x1="178.73" y1="16.6501" x2="188.349" y2="26.7836" gradientUnits="userSpaceOnUse">
<stop stop-color="#F9FBFC"/>
<stop offset="0.1256" stop-color="#EFEDEC"/>
<stop offset="0.3697" stop-color="#D6C7C3"/>
<stop offset="0.7047" stop-color="#AD8B82"/>
<stop offset="1" stop-color="#865143"/>
</linearGradient>
<linearGradient id="paint6_linear_320_3575" x1="211.204" y1="8.79435" x2="211.204" y2="31.793" gradientUnits="userSpaceOnUse">
<stop offset="0.074593" stop-color="#D5604F"/>
<stop offset="0.2546" stop-color="#CE5F4E"/>
<stop offset="0.5221" stop-color="#BA5B4B"/>
<stop offset="0.8425" stop-color="#995546"/>
<stop offset="1" stop-color="#865143"/>
</linearGradient>
<linearGradient id="paint7_linear_320_3575" x1="189.495" y1="8.40996" x2="189.495" y2="26.8988" gradientUnits="userSpaceOnUse">
<stop offset="0.3181" stop-color="#D5604F"/>
<stop offset="0.4506" stop-color="#CE5F4E"/>
<stop offset="0.6449" stop-color="#BA5B4B"/>
<stop offset="0.8761" stop-color="#9A5546"/>
<stop offset="1" stop-color="#865143"/>
</linearGradient>
<linearGradient id="paint8_linear_320_3575" x1="233.665" y1="7.08034" x2="233.665" y2="25.5692" gradientUnits="userSpaceOnUse">
<stop offset="0.3181" stop-color="#D5604F"/>
<stop offset="0.4506" stop-color="#CE5F4E"/>
<stop offset="0.6449" stop-color="#BA5B4B"/>
<stop offset="0.8761" stop-color="#9A5546"/>
<stop offset="1" stop-color="#865143"/>
</linearGradient>
<linearGradient id="paint9_linear_320_3575" x1="211.652" y1="43.3758" x2="211.652" y2="14.7877" gradientUnits="userSpaceOnUse">
<stop offset="0.3181" stop-color="#D5604F"/>
<stop offset="0.4506" stop-color="#CE5F4E"/>
<stop offset="0.6449" stop-color="#BA5B4B"/>
<stop offset="0.8761" stop-color="#9A5546"/>
<stop offset="1" stop-color="#865143"/>
</linearGradient>
<linearGradient id="paint10_linear_320_3575" x1="220.52" y1="20.6158" x2="209.378" y2="20.6158" gradientUnits="userSpaceOnUse">
<stop stop-color="#E1D9C4"/>
<stop offset="1" stop-color="#E9B353"/>
</linearGradient>
<linearGradient id="paint11_linear_320_3575" x1="210.487" y1="20.6159" x2="220.683" y2="20.6159" gradientUnits="userSpaceOnUse">
<stop stop-color="#E1D9C4"/>
<stop offset="1" stop-color="#E9B353"/>
</linearGradient>
<radialGradient id="paint12_radial_320_3575" cx="0" cy="0" r="1" gradientUnits="userSpaceOnUse" gradientTransform="translate(216.036 20.5823) rotate(90) scale(4.17536 4.18068)">
<stop stop-color="#4C715F"/>
<stop offset="1" stop-color="#2B372D"/>
</radialGradient>
<linearGradient id="paint13_linear_320_3575" x1="192.257" y1="14.3665" x2="199.349" y2="30.0897" gradientUnits="userSpaceOnUse">
<stop stop-color="#F9FBFC"/>
<stop offset="0.1256" stop-color="#EFEDEC"/>
<stop offset="0.3697" stop-color="#D6C7C3"/>
<stop offset="0.7047" stop-color="#AD8B82"/>
<stop offset="1" stop-color="#865143"/>
</linearGradient>
<linearGradient id="paint14_linear_320_3575" x1="185.857" y1="-3.23156" x2="185.857" y2="14.3075" gradientUnits="userSpaceOnUse">
<stop stop-color="#D5604F"/>
<stop offset="0.366" stop-color="#BB5B4B"/>
<stop offset="1" stop-color="#865143"/>
</linearGradient>
<linearGradient id="paint15_linear_320_3575" x1="179.168" y1="2.17195" x2="179.168" y2="0.114501" gradientUnits="userSpaceOnUse">
<stop stop-color="#4C715F"/>
<stop offset="1" stop-color="#2B372D"/>
</linearGradient>
<linearGradient id="paint16_linear_320_3575" x1="192.949" y1="2.17195" x2="192.949" y2="0.114502" gradientUnits="userSpaceOnUse">
<stop stop-color="#4C715F"/>
<stop offset="1" stop-color="#2B372D"/>
</linearGradient>
<linearGradient id="paint17_linear_320_3575" x1="199.362" y1="2.41747" x2="199.362" y2="-0.0902821" gradientUnits="userSpaceOnUse">
<stop stop-color="#4C715F"/>
<stop offset="1" stop-color="#2B372D"/>
</linearGradient>
<linearGradient id="paint18_linear_320_3575" x1="185.857" y1="44.4607" x2="185.857" y2="26.9216" gradientUnits="userSpaceOnUse">
<stop stop-color="#D5604F"/>
<stop offset="0.366" stop-color="#BB5B4B"/>
<stop offset="1" stop-color="#865143"/>
</linearGradient>
<linearGradient id="paint19_linear_320_3575" x1="179.168" y1="39.0572" x2="179.168" y2="41.1146" gradientUnits="userSpaceOnUse">
<stop stop-color="#4C715F"/>
<stop offset="1" stop-color="#2B372D"/>
</linearGradient>
<linearGradient id="paint20_linear_320_3575" x1="192.949" y1="39.0572" x2="192.949" y2="41.1146" gradientUnits="userSpaceOnUse">
<stop stop-color="#4C715F"/>
<stop offset="1" stop-color="#2B372D"/>
</linearGradient>
<linearGradient id="paint21_linear_320_3575" x1="199.362" y1="38.8116" x2="199.362" y2="41.3194" gradientUnits="userSpaceOnUse">
<stop stop-color="#4C715F"/>
<stop offset="1" stop-color="#2B372D"/>
</linearGradient>
<linearGradient id="paint22_linear_320_3575" x1="179.814" y1="44.4889" x2="199.502" y2="10.779" gradientUnits="userSpaceOnUse">
<stop stop-color="#F9FBFC"/>
<stop offset="0.1256" stop-color="#EFEDEC"/>
<stop offset="0.3697" stop-color="#D6C7C3"/>
<stop offset="0.7047" stop-color="#AD8B82"/>
<stop offset="1" stop-color="#865143"/>
</linearGradient>
<clipPath id="clip0_320_3575">
<rect width="41" height="88" fill="white" transform="translate(236.533 0.114502) rotate(90)"/>
</clipPath>
</defs>
</svg>
