<svg width="80" height="101" viewBox="0 0 80 101" fill="none" xmlns="http://www.w3.org/2000/svg">
<path d="M73.9021 45.2462C73.9021 45.6445 73.5783 45.965 73.1832 45.965C72.785 45.965 72.4644 45.6412 72.4644 45.2462C72.4644 44.8479 72.7882 44.5274 73.1832 44.5274C73.5815 44.5241 73.9021 44.8479 73.9021 45.2462Z" fill="white"/>
<path d="M71.8363 31.4852C71.8363 31.8834 71.5125 32.204 71.1174 32.204C70.7192 32.204 70.3986 31.8802 70.3986 31.4852C70.3986 31.0869 70.7224 30.7664 71.1174 30.7664C71.5157 30.7664 71.8363 31.0902 71.8363 31.4852Z" fill="white"/>
<path d="M60.3675 75.0385C60.3675 75.5598 59.9433 75.984 59.422 75.984C58.9007 75.984 58.4766 75.5598 58.4766 75.0385C58.4766 74.5172 58.9007 74.093 59.422 74.093C59.9433 74.093 60.3675 74.5172 60.3675 75.0385Z" fill="white"/>
<path d="M11.4166 39.0068C11.4166 39.5281 10.9924 39.9522 10.4711 39.9522C9.9498 39.9522 9.52563 39.5281 9.52563 39.0068C9.52563 38.4854 9.9498 38.0613 10.4711 38.0613C10.9924 38.0613 11.4166 38.4854 11.4166 39.0068Z" fill="white"/>
<path d="M6.39135 54.7852C6.01575 54.7852 5.63368 54.6719 5.30665 54.4323C5.11885 54.2963 3.43513 53.0399 2.15291 50.9094C0.326725 47.8755 0.232825 44.6375 1.88093 41.5453C3.5776 38.3624 6.81552 36.4683 10.5586 36.4683C10.578 36.4683 10.5974 36.4683 10.6168 36.4683C14.784 36.4909 18.6857 38.8319 20.5573 42.4325C21.03 43.3391 20.6738 44.4562 19.7672 44.929C18.8606 45.3984 17.7403 45.0455 17.2708 44.1389C16.0274 41.7428 13.4079 40.1854 10.5974 40.1724C8.19164 40.1563 6.21327 41.296 5.15123 43.2873C4.12157 45.2204 4.17985 47.0886 5.32932 49.0023C6.23593 50.5079 7.47282 51.4275 7.48577 51.4372C8.31468 52.0362 8.496 53.1954 7.89699 54.0243C7.52786 54.5197 6.96447 54.7852 6.39135 54.7852Z" fill="#47EF92"/>
<g opacity="0.35">
<path d="M19.615 43.6046C17.9248 40.3472 14.3631 38.2296 10.5424 38.2102C7.27205 38.1875 4.58134 39.7353 3.13722 42.4454C1.7352 45.0746 1.81615 47.6131 3.37683 50.2132C4.60724 52.2596 6.29096 53.5126 6.30715 53.5223C6.70217 53.8105 6.98711 54.1926 7.15872 54.6135C7.40157 54.5034 7.62174 54.3351 7.80307 54.1181C7.77716 53.4738 7.46956 52.8489 6.9094 52.4409C6.89645 52.4312 5.44262 51.3497 4.38058 49.5818C3.03037 47.3379 2.96237 45.1458 4.17336 42.8761C5.41996 40.5383 7.74479 39.201 10.5683 39.2204C13.8677 39.2366 16.9405 41.0661 18.4008 43.8766C18.6825 44.4173 19.1585 44.7897 19.6992 44.9548C19.3625 45.1135 19.003 45.162 18.6566 45.1167C19.0225 45.1685 19.4078 45.1102 19.7607 44.9257C19.9906 44.8059 20.1849 44.644 20.3403 44.4562C20.0489 44.2392 19.7963 43.951 19.615 43.6046Z" fill="#371B45"/>
</g>
<g opacity="0.7">
<path d="M2.81345 51.7998C0.987261 48.7659 0.893361 45.528 2.54146 42.4358C4.23814 39.2529 7.47606 37.3587 11.2191 37.3587C11.2385 37.3587 11.258 37.3587 11.2774 37.3587C14.674 37.3781 17.8957 38.9356 19.9842 41.4611C17.9605 38.4175 14.3987 36.4877 10.6168 36.4683C10.5974 36.4683 10.578 36.4683 10.5586 36.4683C6.81876 36.4683 3.5776 38.3624 1.88093 41.5453C0.232825 44.6375 0.326725 47.8755 2.15291 50.9094C2.47671 51.4469 2.8264 51.9293 3.17286 52.3535C3.04982 52.1754 2.93001 51.9909 2.81345 51.7998Z" fill="white"/>
</g>
<g opacity="0.5">
<path d="M16.9988 43.6694C17.0927 43.8216 17.1833 43.977 17.2675 44.1389C17.3938 44.3785 17.5654 44.5793 17.7629 44.7379C17.5427 44.3591 17.287 43.9997 16.9988 43.6694Z" fill="white"/>
</g>
<path d="M6.39134 55.4263C5.86356 55.4263 5.35844 55.2612 4.93104 54.9503C4.73352 54.8046 2.95267 53.4771 1.60569 51.2397C-0.343539 48.0017 -0.440676 44.5469 1.31752 41.2442C3.12104 37.8541 6.5759 35.8271 10.5553 35.8271H10.6201C15.0204 35.8498 19.1455 38.3268 21.1239 42.1346C21.4315 42.7239 21.4898 43.4007 21.289 44.0353C21.0883 44.6699 20.6511 45.188 20.0618 45.4956C18.8412 46.1302 17.3355 45.651 16.7009 44.4335C15.5644 42.248 13.1683 40.8233 10.5909 40.8103C8.44094 40.7974 6.66009 41.8076 5.71138 43.5852C4.78209 45.3272 4.8339 46.9429 5.87327 48.6687C6.70218 50.0481 7.84841 50.9094 7.86136 50.9191C8.96873 51.7221 9.21805 53.2828 8.4118 54.3966C7.9423 55.041 7.18787 55.4263 6.39134 55.4263ZM10.5553 37.1094C7.05835 37.1094 4.02442 38.8805 2.44431 41.8464C0.909537 44.7282 0.996961 47.7492 2.70011 50.5791C3.91757 52.6028 5.50415 53.7879 5.68223 53.9142C5.88946 54.0664 6.13554 54.1441 6.39134 54.1441C6.77989 54.1441 7.14578 53.9563 7.37243 53.6454C7.76422 53.1047 7.64442 52.347 7.10368 51.952C7.09397 51.9455 5.75671 50.958 4.77562 49.3293C3.5193 47.2376 3.45131 45.1038 4.58134 42.983C5.75347 40.7844 7.92288 39.5281 10.5456 39.5281C10.565 39.5281 10.5812 39.5281 10.6006 39.5281C13.6443 39.5443 16.4872 41.2377 17.8374 43.841C18.145 44.4335 18.8768 44.6667 19.4725 44.3558C19.7607 44.2069 19.9712 43.9543 20.0683 43.6467C20.1655 43.3391 20.1363 43.0089 19.9874 42.7239C18.2259 39.3306 14.5444 37.1256 10.6104 37.1061L10.5553 37.1094Z" fill="#371B45"/>
<path d="M59.7685 46.3925V76.2041C59.7685 76.761 59.694 77.3017 59.5548 77.8166C58.8457 80.4652 56.4269 82.4176 53.5549 82.4176H20.4601C17.0311 82.4176 14.2465 79.6363 14.2465 76.2041V46.3925C14.2465 42.9603 17.0279 40.179 20.4601 40.179H53.5549C56.9871 40.179 59.7685 42.9603 59.7685 46.3925Z" fill="#47EF92"/>
<path d="M59.7685 46.3925H14.2465C14.2465 42.9603 17.0279 40.179 20.4601 40.179H53.5549C56.9871 40.179 59.7685 42.9603 59.7685 46.3925Z" fill="#8FA1B5"/>
<path d="M59.7685 76.2007L59.5548 77.8132C58.8457 80.4618 56.4269 82.4143 53.5549 82.4143H20.4601C17.0311 82.4143 14.2465 79.6329 14.2465 76.2007H59.7685Z" fill="#8FA1B5"/>
<path d="M59.7685 47.0303H14.2465C13.8936 47.0303 13.6054 46.7421 13.6054 46.3892C13.6054 46.0362 13.8903 45.748 14.2465 45.748H59.7685C60.1214 45.748 60.4096 46.0362 60.4096 46.3892C60.4096 46.7453 60.1214 47.0303 59.7685 47.0303Z" fill="#371B45"/>
<path d="M59.7685 76.842H14.2465C13.8936 76.842 13.6054 76.5571 13.6054 76.2009C13.6054 75.8447 13.8903 75.5598 14.2465 75.5598H59.7685C60.1214 75.5598 60.4096 75.8447 60.4096 76.2009C60.4096 76.5571 60.1214 76.842 59.7685 76.842Z" fill="#371B45"/>
<g opacity="0.35">
<path d="M58.3535 76.4274C58.483 75.9417 58.5543 75.4268 58.5543 74.9023V60.7493C57.5537 62.7147 55.5106 64.0585 53.1534 64.0585H20.8616C18.5044 64.0585 16.4613 62.7115 15.4608 60.7461V74.98C15.4608 78.1855 18.0576 80.7824 21.2631 80.7824H52.671C55.3941 80.7824 57.6833 78.9367 58.3535 76.4274Z" fill="#371B45"/>
</g>
<g opacity="0.7">
<path d="M53.5549 40.179H20.4601C17.0311 40.179 14.2465 42.9603 14.2465 46.3925V47.7395C14.2465 44.3073 17.0279 41.5259 20.4601 41.5259H53.5549C56.9839 41.5259 59.7685 44.3073 59.7685 47.7395V46.3925C59.7685 42.9603 56.9871 40.179 53.5549 40.179Z" fill="white"/>
</g>
<path d="M53.5581 83.0555H20.4569C16.6782 83.0555 13.6054 79.9827 13.6054 76.204V46.3925C13.6054 42.6138 16.6782 39.541 20.4569 39.541H53.5549C57.3336 39.541 60.4063 42.6138 60.4063 46.3925V76.204C60.4096 79.9794 57.3336 83.0555 53.5581 83.0555ZM20.4569 40.82C17.3841 40.82 14.8844 43.3197 14.8844 46.3925V76.204C14.8844 79.2768 17.3841 81.7765 20.4569 81.7765H53.5549C56.6277 81.7765 59.1274 79.2768 59.1274 76.204V46.3925C59.1274 43.3197 56.6277 40.82 53.5549 40.82H20.4569Z" fill="#371B45"/>
<path d="M78.9791 40.9982C78.9758 41.267 78.9532 41.5519 78.9046 41.8563C78.788 42.5751 78.6035 43.1968 78.3801 43.731C77.4508 45.9425 75.8642 46.6193 75.8642 46.6193C75.8642 46.6193 68.6598 67.8762 59.2116 64.6966C59.2116 64.6966 54.2414 63.2007 50.6343 58.3664V58.3632V58.36C50.2846 57.8905 49.9446 57.3918 49.6273 56.8543C49.6273 56.8543 44.5438 49.378 49.2323 44.3916C49.2323 44.3916 55.352 45.5443 60.2736 51.5441C60.2736 51.5441 61.7663 46.9528 64.5865 43.0737C64.5865 43.0737 63.2655 38.777 66.267 35.4581C66.267 35.4581 66.1893 26.2301 69.4272 26.3855C72.6684 26.5409 71.5481 35.1408 71.5481 35.1408C71.5481 35.1408 73.5653 27.6677 76.1168 27.4961C76.1783 27.4896 76.243 27.4896 76.3046 27.4961C78.9435 27.6968 78.3056 33.9363 76.3046 36.8569C76.3046 36.8569 79.0082 37.9384 78.9791 40.9982Z" fill="white"/>
<g opacity="0.35">
<path d="M78.9791 40.9982C78.7881 41.8595 78.5873 42.7726 78.3801 43.7278C77.4508 45.9393 75.8642 46.616 75.8642 46.616C75.8642 46.616 68.6599 67.873 59.2116 64.6933C59.2116 64.6933 54.2414 63.1974 50.6343 58.3632V58.3599V58.3567C50.6181 58.2175 49.8669 51.8776 49.2161 50.0644C49.2809 50.1356 51.0844 52.0881 52.1076 55.6336C52.5415 57.1392 53.3671 58.5024 54.5328 59.5483C56.291 61.1284 59.0173 62.9707 61.9444 62.6923C66.2152 62.2843 72.173 49.6564 73.8243 45.9749C74.0834 45.3985 74.5496 44.9485 75.126 44.6959C76.0747 44.2815 77.6839 42.4747 77.1011 40.4963C76.2204 37.5174 73.18 37.2422 73.18 37.2422C73.18 37.2422 73.3192 36.3583 72.6587 35.837C72.6587 35.837 75.3397 37.2552 76.12 33.6157C76.6251 31.2553 76.7449 28.788 76.1103 27.4961C76.1718 27.4896 76.2366 27.4896 76.2981 27.4961C78.937 27.6968 78.2991 33.9363 76.2981 36.8569C76.3046 36.8569 79.0083 37.9384 78.9791 40.9982Z" fill="#371B45"/>
</g>
<g opacity="0.35">
<path d="M60.1247 60.1666C60.1247 60.1666 56.7508 56.2811 59.0626 50.1841L60.2736 51.544C60.2736 51.544 58.9914 53.7523 60.1247 60.1666Z" fill="#371B45"/>
</g>
<g opacity="0.35">
<path d="M66.2929 34.2341C66.2929 34.2341 66.9632 33.8973 67.9799 33.7354C69.0516 33.567 69.8838 32.7155 69.9842 31.634C70.1817 29.4873 70.2335 26.4339 68.9513 26.4145C68.9513 26.4145 71.3052 25.8737 71.5869 29.6751C71.8654 33.4764 71.5481 35.1342 71.5481 35.1342C71.5481 35.1342 68.8088 34.8557 66.2703 35.4547L66.2929 34.2341Z" fill="#371B45"/>
</g>
<g opacity="0.35">
<path d="M72.1244 44.3169C72.1244 44.3169 75.5533 42.2576 72.5809 38.2976L71.1012 39.0197C71.1012 39.0164 74.106 40.3343 72.1244 44.3169Z" fill="#371B45"/>
</g>
<path d="M60.8888 51.7222C60.7981 52.0298 60.701 52.3762 60.6233 52.7097C60.5391 53.0465 60.4679 53.3897 60.3999 53.7297C60.2606 54.4161 60.1635 55.109 60.0923 55.8052C60.0113 56.5046 60.0048 57.204 60.0146 57.9098L60.0372 58.4376C60.0469 58.6125 60.0728 58.7873 60.0858 58.9654L60.1117 59.2309C60.1214 59.3183 60.1376 59.4058 60.1538 59.4932L60.238 60.021V60.0274C60.2477 60.0922 60.2056 60.1505 60.1408 60.1602C60.0858 60.1699 60.0307 60.1375 60.0146 60.0857C59.7652 59.4025 59.558 58.6966 59.4382 57.9714C59.3119 57.2493 59.2407 56.5143 59.2213 55.7793C59.2018 55.0443 59.231 54.306 59.2957 53.571C59.3346 53.2051 59.3799 52.8392 59.4382 52.4734C59.4673 52.2888 59.4997 52.1075 59.5353 51.9261C59.571 51.7416 59.6098 51.5667 59.6616 51.366C59.749 51.0228 60.0987 50.8188 60.442 50.9062C60.7852 50.9936 60.9892 51.3433 60.9018 51.6865C60.9018 51.693 60.8985 51.6995 60.8953 51.706L60.8888 51.7222Z" fill="#371B45"/>
<path d="M71.0203 55.0215C69.8967 55.0215 68.2551 54.7981 66.1083 53.9303C61.7177 52.156 60.7593 49.2224 60.7204 49.0994C60.6168 48.7626 60.8046 48.4032 61.1414 48.2964C61.4781 48.1928 61.8343 48.3773 61.9411 48.7141C61.9768 48.8241 62.8057 51.217 66.5876 52.7453C70.3986 54.2833 72.3316 53.5871 72.3478 53.5807C72.6749 53.4576 73.0472 53.6195 73.1735 53.9433C73.303 54.2703 73.1476 54.6362 72.8206 54.769C72.772 54.7852 72.1697 55.0215 71.0203 55.0215Z" fill="#371B45"/>
<path d="M66.0501 34.8559C66.1569 34.817 66.2282 34.7976 66.3124 34.7685L66.5584 34.7005C66.7203 34.6584 66.8855 34.6228 67.0474 34.5904C67.3744 34.5321 67.7014 34.4835 68.0317 34.4576C68.689 34.3961 69.3528 34.4058 70.0101 34.4803C70.3371 34.5191 70.6641 34.5677 70.9879 34.6422L71.2308 34.694L71.4704 34.7587C71.6323 34.8041 71.7812 34.8365 71.9625 34.9045C72.309 35.0243 72.6522 35.1991 72.9631 35.4517C73.2707 35.7042 73.5459 36.0507 73.6884 36.4748C73.8405 36.8958 73.8049 37.3847 73.643 37.7797C73.4844 38.1812 73.2124 38.4953 72.9177 38.7349C72.3219 39.2077 71.642 39.4278 70.9847 39.5444C69.6571 39.7549 68.362 39.5638 67.1575 39.1979C67.0603 39.1688 67.0053 39.0652 67.0344 38.968C67.0603 38.8871 67.138 38.8321 67.219 38.8353H67.2222C68.4494 38.8806 69.6733 38.8806 70.7807 38.5925C71.0527 38.5212 71.3214 38.4338 71.561 38.314C71.8006 38.1974 72.0273 38.0647 72.2054 37.8995C72.3835 37.7376 72.513 37.5531 72.568 37.375C72.6231 37.1937 72.6263 37.0253 72.5583 36.8634C72.4936 36.7015 72.3705 36.5428 72.1957 36.4133C72.0208 36.2806 71.8006 36.1802 71.561 36.1025C71.451 36.0636 71.2955 36.0313 71.1595 35.9956L70.9491 35.9438L70.7354 35.905C70.4537 35.8467 70.1655 35.8143 69.8773 35.7819C69.301 35.7236 68.7214 35.7236 68.145 35.7657C67.8569 35.7852 67.5719 35.8273 67.287 35.8758C67.1478 35.9017 67.0053 35.9309 66.8693 35.96L66.6653 36.0086C66.6038 36.0248 66.5261 36.0474 66.484 36.0604L66.4581 36.0701C66.1213 36.177 65.7619 35.9892 65.6551 35.6524C65.5514 35.3189 65.7295 34.9692 66.0501 34.8559Z" fill="#371B45"/>
<path d="M71.3052 38.6281C71.3927 38.6702 71.4477 38.6961 71.5157 38.7349C71.5772 38.7705 71.6387 38.8094 71.7003 38.8482C71.8168 38.9292 71.9334 39.0134 72.0402 39.1073C72.2572 39.2918 72.4515 39.5055 72.6166 39.7419C72.9501 40.2114 73.167 40.778 73.2189 41.3512C73.2771 41.9243 73.1832 42.4909 72.9987 42.996C72.8141 43.5044 72.5454 43.9674 72.2216 44.3721C72.1827 44.4207 72.1115 44.4304 72.0629 44.3916C72.0241 44.3592 72.0111 44.3074 72.0273 44.2653C72.1957 43.7893 72.3381 43.3166 72.4029 42.8471C72.445 42.614 72.4482 42.3776 72.4515 42.1509C72.445 41.9243 72.4158 41.7009 72.3673 41.4872C72.2669 41.0597 72.0726 40.6712 71.8136 40.3247C71.6841 40.1499 71.5384 39.9848 71.3797 39.8326C71.2988 39.7549 71.221 39.6804 71.1336 39.6092C71.0915 39.5735 71.0494 39.5379 71.0073 39.5055L70.894 39.4149L70.8422 39.376C70.6512 39.2238 70.622 38.9486 70.771 38.7608C70.9037 38.5892 71.1272 38.5439 71.3052 38.6281Z" fill="#371B45"/>
<path d="M61.1673 65.6614C60.4679 65.6614 59.7523 65.5481 59.0205 65.302C58.6449 65.1855 52.7325 63.2977 49.0898 57.1975C48.9506 56.9903 47.7364 55.1317 47.0564 52.6612C46.098 49.1739 46.6905 46.1627 48.7693 43.9512C48.9182 43.7925 49.1384 43.7213 49.3553 43.7601C49.6014 43.8054 55.1868 44.9128 60.047 50.291C60.6427 48.7336 61.9347 45.7093 63.8936 42.9409C63.6411 41.853 63.0582 38.2297 65.6291 35.212C65.6356 33.8359 65.7878 28.299 67.7435 26.4146C68.2421 25.9354 68.8153 25.7087 69.4596 25.7378C70.1169 25.7702 70.6997 26.0681 71.1466 26.6024C71.9625 27.577 72.2701 29.2866 72.3575 30.9315C73.3095 28.8139 74.6824 26.7286 76.3564 26.8549C76.9295 26.897 77.7163 27.1722 78.2247 28.231C79.2381 30.3422 78.529 34.2244 77.2112 36.6011C78.4643 37.3879 79.9926 39.1396 79.5393 41.9534C79.005 45.269 77.1043 46.6516 76.3888 47.0596C75.5696 49.3844 69.5406 65.6614 61.1673 65.6614ZM49.4557 45.1006C45.5929 49.6629 50.1098 56.4236 50.1551 56.4949C50.1616 56.5046 50.1681 56.5175 50.1745 56.5272C53.597 62.2681 59.3379 64.0651 59.3961 64.0813C59.4026 64.0846 59.4091 64.0846 59.4156 64.0878C60.0016 64.2853 60.5812 64.376 61.1511 64.376C69.0646 64.376 75.1907 46.603 75.2555 46.4087C75.3138 46.2371 75.4433 46.0979 75.6117 46.0267C75.6926 45.991 77.739 45.0456 78.27 41.7526C78.7816 38.5762 76.1751 37.4947 76.065 37.4494C75.8836 37.3782 75.7477 37.226 75.6894 37.0414C75.6343 36.8569 75.6635 36.6529 75.7736 36.4942C77.1982 34.4122 77.862 30.4523 77.0655 28.788C76.8 28.2375 76.4762 28.1501 76.2528 28.1339C76.2366 28.1339 76.2172 28.1307 76.1977 28.1307C74.7666 28.1307 72.9468 32.3821 72.1568 35.2994C72.0694 35.6232 71.7423 35.8272 71.4153 35.7592C71.085 35.6945 70.8616 35.3836 70.907 35.0501C71.1174 33.4279 71.3926 28.8981 70.159 27.4248C69.9388 27.1625 69.696 27.033 69.3916 27.0201C69.1099 27.0071 68.8638 27.1075 68.6242 27.3406C67.1672 28.7426 66.8855 33.6708 66.9016 35.4484C66.9016 35.6103 66.8434 35.7624 66.7365 35.8823C64.0264 38.8806 65.1823 42.8438 65.1953 42.8826C65.2535 43.0737 65.2179 43.2841 65.1014 43.446C62.3783 47.1923 60.8953 51.693 60.8791 51.7384C60.8079 51.9618 60.6201 52.1269 60.3902 52.169C60.1603 52.2111 59.9239 52.1269 59.7782 51.9456C55.7308 47.011 50.7865 45.4471 49.4557 45.1006Z" fill="#371B45"/>
<path d="M8.40533 58.9913C8.40533 58.9913 15.2309 45.46 28.6294 45.4989L27.1885 61.1736C27.1918 61.1736 14.3793 57.0874 8.40533 58.9913Z" fill="white"/>
<g opacity="0.35">
<path d="M23.3095 59.8041L24.7989 50.0676C24.7989 50.0676 21.5157 52.1852 20.7645 55.666C20.7645 55.666 11.7404 54.85 8.40857 58.9913C8.40533 58.9913 14.8812 57.735 23.3095 59.8041Z" fill="#371B45"/>
</g>
<path d="M27.1885 61.8146C27.1238 61.8146 27.059 61.8049 26.9942 61.7855C26.868 61.7466 14.3081 57.7834 8.5996 59.6031C8.35352 59.6808 8.08477 59.6031 7.91964 59.4088C7.75126 59.2113 7.71889 58.9361 7.83545 58.7062C7.90668 58.5637 9.62602 55.193 13.042 51.7803C17.5751 47.2537 22.9436 44.8608 28.5776 44.8608C28.597 44.8608 28.6132 44.8608 28.6326 44.8608C28.8107 44.8608 28.9823 44.9385 29.1054 45.0713C29.2252 45.2041 29.2867 45.3821 29.2705 45.5602L27.8296 61.235C27.8134 61.4293 27.7066 61.6041 27.5447 61.711C27.4378 61.7757 27.3148 61.8146 27.1885 61.8146ZM12.4074 57.8449C17.7532 57.8449 24.3877 59.6679 26.6251 60.3316L27.9268 46.1495C22.8303 46.3179 18.1385 48.5067 13.9713 52.6545C11.9185 54.7009 10.4841 56.7699 9.69402 58.0359C10.5359 57.9032 11.4522 57.8449 12.4074 57.8449Z" fill="#371B45"/>
<path d="M56.4075 95.6056C56.3622 97.3281 55.4588 98.2963 54.5684 98.8305C53.8495 99.2644 53.0174 99.4716 52.1755 99.4716H42.3711C40.7165 99.4716 39.3566 98.17 39.2854 96.5187L38.4176 77.049C38.4176 77.049 37.8186 77.0976 37.0091 77.0976C36.1964 77.0976 35.6006 77.049 35.6006 77.049L34.7328 96.5187C34.6584 98.17 33.2985 99.4716 31.6471 99.4716H21.8394C21.0008 99.4716 20.1687 99.2644 19.4466 98.8305C18.5562 98.293 17.6496 97.3281 17.6075 95.6056C17.5945 95.081 17.6722 94.6115 17.8179 94.1906C18.6209 91.8431 21.4315 90.998 21.4315 90.998C21.4282 81.2227 21.8718 73.1506 22.4385 66.8334C22.5259 65.8653 22.6133 64.9392 22.7072 64.0553C23.6592 54.7948 24.8021 50.0642 24.8021 50.0642C24.8021 49.2612 24.9317 48.4906 25.1745 47.7717C25.3493 47.2504 25.5825 46.755 25.8642 46.2952C26.1588 45.8096 26.5118 45.366 26.9133 44.9645C27.2338 44.6439 27.5868 44.3525 27.9656 44.0967C29.1183 43.3099 30.5138 42.8501 32.013 42.8501H42.0052C43.5076 42.8501 44.8999 43.3099 46.0526 44.0967C46.8977 44.6698 47.6165 45.421 48.154 46.2952C48.439 46.755 48.6689 47.2504 48.8437 47.7717C49.0833 48.4906 49.2161 49.2644 49.2161 50.0642C49.2161 50.0642 50.3494 54.7592 51.2981 63.9452C51.3984 64.9133 51.4988 65.9332 51.5927 67.0018C52.1496 73.293 52.5868 81.3069 52.5835 90.998C52.5835 91.0012 56.4949 92.1734 56.4075 95.6056Z" fill="white"/>
<g opacity="0.35">
<path d="M56.197 94.1908C56.197 94.1908 54.5943 97.3866 48.6268 97.1599C42.6625 96.9301 41.458 96.5383 41.0986 92.86C40.9238 91.05 40.7295 87.5725 40.5805 84.5094C40.4381 81.6017 41.7721 78.8042 44.1617 77.1366C44.942 76.5927 45.7256 75.8479 46.3861 74.8345C46.7455 74.2873 46.2437 73.5814 45.609 73.7433C43.6533 74.2387 40.192 74.9834 37.0059 74.9834C33.8165 74.9834 30.3584 74.2387 28.4027 73.7433C27.7681 73.5814 27.2662 74.2873 27.6256 74.8345C28.2894 75.8479 29.073 76.5894 29.8501 77.1366C32.2364 78.8042 33.5704 81.6017 33.428 84.5094C33.279 87.5725 33.0848 91.05 32.9099 92.86C32.5505 96.5415 31.346 96.9333 25.3817 97.1599C19.4175 97.3898 17.8115 94.1908 17.8115 94.1908C17.6658 94.6117 17.5881 95.0844 17.601 95.6057C17.6463 97.3283 18.5497 98.2965 19.4401 98.8307C20.1622 99.2646 20.9943 99.4718 21.833 99.4718H31.6374C33.292 99.4718 34.6519 98.1702 34.7231 96.5188L35.5909 77.0492C35.5909 77.0492 36.1899 77.0978 36.9994 77.0978C37.8121 77.0978 38.4079 77.0492 38.4079 77.0492L39.2757 96.5188C39.3501 98.1702 40.7101 99.4718 42.3614 99.4718H52.1658C53.0044 99.4718 53.8366 99.2646 54.5587 98.8307C55.4491 98.2965 56.3557 97.3283 56.3978 95.6057C56.4205 95.0844 56.3427 94.6149 56.197 94.1908Z" fill="#371B45"/>
</g>
<g opacity="0.35">
<path d="M51.5927 67.005C51.3661 67.1831 51.0811 67.2868 50.7735 67.2868H46.9593V68.9187C46.9593 70.6477 45.5572 72.0465 43.8314 72.0465H30.2743C28.5452 72.0465 27.1464 70.6445 27.1464 68.9187V67.2868H23.4358C23.0375 67.2868 22.6813 67.1119 22.4352 66.8367C22.5227 65.8685 22.6101 64.9425 22.704 64.0585C22.9145 63.9193 23.1638 63.8416 23.4358 63.8416H27.1432V62.2064C27.1432 60.4774 28.5452 59.0786 30.271 59.0786H43.8282C45.5572 59.0786 46.956 60.4806 46.956 62.2064V63.8416H50.7703C50.9581 63.8416 51.1329 63.8805 51.2948 63.9484C51.3985 64.9166 51.4988 65.9365 51.5927 67.005Z" fill="#371B45"/>
</g>
<g opacity="0.35">
<path d="M21.425 47.1858C21.425 47.1858 26.2981 48.5554 29.2964 57.5892L30.2742 57.4338C30.2742 57.4338 29.0212 49.3001 23.031 46.3601L21.425 47.1858Z" fill="#371B45"/>
</g>
<g opacity="0.35">
<path d="M53.7039 46.4281C53.7039 46.4281 47.717 48.5521 44.7186 57.5859L43.7408 57.4305C43.7408 57.4305 46.0073 48.4356 51.9943 45.4988L53.7039 46.4281Z" fill="#371B45"/>
</g>
<path d="M21.2243 90.3959C21.357 90.3506 21.4574 90.3214 21.574 90.289C21.6841 90.2567 21.7974 90.2308 21.9107 90.2016C22.1341 90.1466 22.3576 90.1045 22.5842 90.0624C23.0343 89.9814 23.4876 89.9361 23.9441 89.9102C24.4007 89.8875 24.8605 89.894 25.317 89.9296C25.7736 89.9717 26.2301 90.0397 26.6802 90.1433C27.1303 90.2469 27.5706 90.3959 27.9948 90.5772C28.4222 90.7553 28.8269 90.9819 29.1993 91.2507C29.3903 91.3802 29.5619 91.5324 29.7368 91.6781L29.9829 91.9177C30.0671 91.9954 30.1415 92.0796 30.216 92.167C30.5204 92.5005 30.7632 92.8858 30.9737 93.2776C30.9963 93.3165 30.9801 93.3683 30.9413 93.3877C30.9089 93.4039 30.8733 93.3974 30.8474 93.3748L30.8442 93.3715C30.1998 92.7855 29.536 92.2739 28.7945 91.9145C28.6132 91.8206 28.4254 91.7396 28.2376 91.6587C28.0466 91.5907 27.8588 91.513 27.6613 91.4547C27.276 91.3316 26.8777 91.241 26.473 91.1859C25.67 91.0661 24.8443 91.0629 24.0283 91.1438C23.6203 91.1795 23.2124 91.2442 22.8076 91.3155C22.6069 91.3543 22.4061 91.3964 22.2086 91.445L21.914 91.5194C21.8201 91.5453 21.7132 91.5745 21.6387 91.5971L21.6225 91.6036C21.2858 91.7105 20.9264 91.5227 20.8195 91.1859C20.7159 90.8621 20.894 90.506 21.2243 90.3959Z" fill="#371B45"/>
<path d="M52.3763 91.6067C52.3019 91.5841 52.195 91.5517 52.1011 91.529L51.8064 91.4546C51.6089 91.406 51.4082 91.3639 51.2074 91.325C50.8027 91.2506 50.398 91.189 49.9867 91.1534C49.1708 91.0725 48.3451 91.0757 47.5421 91.1955C47.1406 91.2506 46.7423 91.338 46.3538 91.4643C46.1595 91.5226 45.9717 91.597 45.7774 91.6683C45.5896 91.7492 45.4018 91.8302 45.2205 91.9241C44.4823 92.2835 43.8153 92.7951 43.1709 93.3811L43.1677 93.3844C43.1353 93.4135 43.0835 93.4135 43.0511 93.3779C43.0284 93.352 43.0252 93.3131 43.0382 93.284C43.2486 92.8954 43.4915 92.5101 43.7958 92.1734C43.8671 92.0859 43.9448 92.0018 44.029 91.9241L44.275 91.6844C44.4499 91.5387 44.6247 91.3866 44.8125 91.257C45.1849 90.9883 45.5929 90.7616 46.017 90.5836C46.4412 90.4022 46.8816 90.2533 47.3316 90.1497C47.7817 90.0461 48.2383 89.9748 48.6948 89.936C49.1514 89.9004 49.6111 89.8939 50.0677 89.9165C50.5242 89.9424 50.9775 89.9878 51.4276 90.0687C51.651 90.1108 51.8777 90.1529 52.1011 90.208C52.2144 90.2339 52.3245 90.263 52.4378 90.2954C52.5544 90.3278 52.6548 90.3569 52.7875 90.4022C53.121 90.5156 53.3024 90.8814 53.1858 91.215C53.0725 91.5452 52.7195 91.7233 52.386 91.6197L52.3763 91.6067Z" fill="#371B45"/>
<path d="M38.3658 76.4112C38.6151 76.395 38.8968 76.3691 39.1688 76.34C39.4408 76.3076 39.716 76.2752 39.988 76.2363C40.5352 76.1586 41.0824 76.0647 41.6264 75.9579C41.8984 75.9061 42.1704 75.8413 42.4391 75.7798C42.7079 75.7086 42.9799 75.647 43.2486 75.5726C43.7893 75.4366 44.3268 75.2747 44.8773 75.1322H44.8805C44.9615 75.1128 45.0424 75.1614 45.0619 75.2391C45.078 75.3038 45.0521 75.3686 45.0003 75.401C44.5179 75.7183 44.0128 76.0032 43.485 76.2363C42.9604 76.4792 42.4165 76.6767 41.8693 76.8645C41.3221 77.0555 40.7651 77.2174 40.2017 77.3534C39.92 77.4247 39.6351 77.4862 39.3502 77.5412C39.0587 77.5963 38.7835 77.6481 38.4694 77.6837C38.1197 77.7226 37.8024 77.47 37.7603 77.1203C37.7215 76.7706 37.9708 76.45 38.3237 76.4112C38.3334 76.4112 38.3432 76.408 38.3529 76.408L38.3658 76.4112Z" fill="#371B45"/>
<path d="M35.5456 77.6901C35.2315 77.6545 34.953 77.6027 34.6649 77.5477C34.3799 77.4926 34.095 77.4279 33.8133 77.3599C33.2499 77.2206 32.693 77.062 32.1458 76.871C31.5986 76.6799 31.0546 76.4824 30.53 76.2428C30.0023 76.0097 29.4971 75.7247 29.0147 75.4074C28.9467 75.3621 28.9273 75.2682 28.9726 75.2002C29.0082 75.1451 29.0762 75.1225 29.1345 75.1387H29.1377C29.6914 75.2811 30.2257 75.4398 30.7664 75.579C31.0352 75.6535 31.3071 75.715 31.5759 75.7862C31.8479 75.8478 32.1166 75.9125 32.3886 75.9643C32.9326 76.0712 33.4798 76.1683 34.027 76.2428C34.3022 76.2816 34.5742 76.3108 34.8462 76.3464C35.1149 76.3755 35.3999 76.4015 35.6492 76.4176H35.6589C36.0118 76.4403 36.2806 76.7447 36.2547 77.0976C36.232 77.4505 35.9277 77.7193 35.5747 77.6934C35.565 77.6901 35.5553 77.6901 35.5456 77.6901Z" fill="#371B45"/>
<path d="M35.2056 86.4326C35.1052 86.4326 35.0048 86.41 34.9109 86.3614C28.9337 83.2757 21.7553 85.5875 21.684 85.6102C21.3473 85.7203 20.9879 85.539 20.8745 85.2055C20.7645 84.8687 20.9458 84.5093 21.2793 84.396C21.5934 84.2924 29.0309 81.8834 35.497 85.2249C35.8111 85.3868 35.9341 85.7721 35.7722 86.0862C35.6621 86.3064 35.4387 86.4326 35.2056 86.4326Z" fill="#371B45"/>
<path d="M38.8062 86.4327C38.573 86.4327 38.3496 86.3064 38.2363 86.0863C38.0744 85.7722 38.1974 85.3869 38.5115 85.225C44.9776 81.8867 52.4151 84.2925 52.7292 84.3961C53.066 84.5062 53.2473 84.8688 53.134 85.2055C53.0239 85.5423 52.6612 85.7236 52.3245 85.6103C52.2435 85.5844 45.0715 83.2757 39.0976 86.3615C39.0069 86.4101 38.9065 86.4327 38.8062 86.4327Z" fill="#371B45"/>
<path d="M18.1191 97.9758C18.077 97.9758 18.0349 97.9693 17.9896 97.9564C17.7467 97.8851 17.6075 97.6326 17.6787 97.393C17.9637 96.4054 19.1455 94.5371 21.5707 94.5371C24.0024 94.5371 25.2166 96.1625 25.6084 96.8198H34.5807C34.8332 96.8198 35.0372 97.0238 35.0372 97.2764C35.0372 97.529 34.8332 97.7329 34.5807 97.7329H25.3364C25.1583 97.7329 24.9964 97.6293 24.922 97.4674C24.8831 97.3865 23.9538 95.4534 21.574 95.4534C19.2394 95.4534 18.5886 97.5613 18.5594 97.652C18.4979 97.8463 18.3166 97.9758 18.1191 97.9758Z" fill="#371B45"/>
<path d="M55.8959 97.9758C55.6984 97.9758 55.5171 97.8463 55.4588 97.6488C55.4329 97.5582 54.7788 95.4503 52.4443 95.4503C50.045 95.4503 49.106 97.4448 49.0963 97.4643C49.0218 97.6262 48.8599 97.7298 48.6818 97.7298H39.4376C39.185 97.7298 38.981 97.5258 38.981 97.2732C38.981 97.0207 39.185 96.8167 39.4376 96.8167H48.4066C48.7984 96.1594 50.0126 94.5339 52.4443 94.5339C54.8695 94.5339 56.0513 96.4022 56.3363 97.3898C56.4075 97.6326 56.2651 97.8852 56.0254 97.9564C55.9801 97.9694 55.938 97.9758 55.8959 97.9758Z" fill="#371B45"/>
<path d="M49.3651 50.0286C49.6597 50.8478 49.8896 51.68 50.1033 52.5153C50.3105 53.3507 50.5048 54.1926 50.6635 55.0377C50.8383 55.8795 50.9711 56.7311 51.1103 57.5794C51.2398 58.431 51.3531 59.2826 51.4729 60.1342L51.7967 62.6921C51.9036 63.5469 51.9878 64.4018 52.0849 65.2566C52.182 66.1114 52.2533 66.9662 52.331 67.8242C52.4087 68.679 52.4929 69.5371 52.5512 70.3951L52.7422 72.9661L52.8912 75.5402C53.0012 77.2563 53.0498 78.9724 53.1178 80.6917C53.1567 81.5498 53.1664 82.4078 53.1826 83.2691L53.2279 85.8465C53.2408 87.5659 53.2376 89.282 53.2247 91.0013L52.7681 90.3893C52.9235 90.4379 53.0369 90.48 53.1664 90.5318C53.2894 90.5804 53.4125 90.6354 53.5323 90.6904C53.7719 90.8005 54.0082 90.9236 54.2381 91.0596C54.6979 91.3283 55.1318 91.6489 55.5268 92.0277C55.7243 92.2187 55.9057 92.426 56.0773 92.6429C56.2456 92.8663 56.3978 93.1027 56.5306 93.352C56.7896 93.8539 56.9645 94.4108 57.0227 94.971C57.0778 95.5344 57.0486 96.0848 56.9256 96.6385C56.7961 97.189 56.563 97.7329 56.2197 98.1959C55.8798 98.6622 55.4426 99.0475 54.9699 99.3422C54.4939 99.6401 53.9661 99.8505 53.4286 99.9768C53.1599 100.038 52.8847 100.08 52.6095 100.1C52.4735 100.11 52.3342 100.116 52.1982 100.116H51.8291H50.3656H47.4353H44.5082H43.0446H42.2999C42.0053 100.11 41.7106 100.071 41.4257 99.9962C40.2794 99.7048 39.3081 98.8338 38.8904 97.7297C38.7835 97.4545 38.7091 97.1663 38.6734 96.8749C38.6637 96.8004 38.654 96.7292 38.6508 96.6547L38.6443 96.5479L38.6411 96.4572L38.6249 96.0913L38.5601 94.6278L38.3011 88.7801L37.7798 77.0847L38.4694 77.6934C38.2136 77.7129 37.9773 77.7226 37.7344 77.7323C37.4916 77.7388 37.2487 77.7452 37.0059 77.7452C36.7631 77.7452 36.5202 77.742 36.2774 77.7323C36.0313 77.7226 35.7982 77.7129 35.5424 77.6934L36.2353 77.0847L35.714 88.7801L35.4517 94.6278L35.3869 96.0913L35.3708 96.4572L35.3675 96.5479L35.361 96.6547C35.3578 96.7292 35.3481 96.8004 35.3384 96.8749C35.3028 97.1663 35.2283 97.4545 35.1214 97.7297C34.7037 98.8338 33.7324 99.7048 32.5861 99.9995C32.3012 100.074 32.0066 100.113 31.7119 100.119H30.9672H29.5036H26.5766H23.6495H22.1859H21.8168C21.6808 100.119 21.5416 100.113 21.4056 100.103C21.1304 100.084 20.8584 100.042 20.5864 99.98C20.0457 99.8538 19.5211 99.6465 19.0451 99.3454C18.5724 99.054 18.1353 98.6655 17.7953 98.1992C17.4521 97.7329 17.2157 97.1922 17.0894 96.6417C16.9696 96.0881 16.9373 95.5376 16.9923 94.9742C17.0506 94.4141 17.2222 93.8571 17.4812 93.3553C17.614 93.1059 17.7662 92.8696 17.9345 92.6462C18.1061 92.426 18.2907 92.2188 18.485 92.0309C18.88 91.6521 19.3139 91.3316 19.7737 91.0628C20.0036 90.9268 20.2367 90.807 20.4795 90.6937C20.5993 90.6386 20.7224 90.5868 20.8454 90.535C20.9749 90.4832 21.0883 90.4411 21.2437 90.3926L20.7871 91.0045C20.771 89.2884 20.7612 87.5691 20.7677 85.8498L20.8033 83.2724C20.8163 82.4143 20.826 81.553 20.8616 80.695C20.9264 78.9789 20.9685 77.2595 21.0786 75.5434L21.2243 72.9693L21.4121 70.3984C21.4703 69.5403 21.5545 68.6855 21.629 67.8275C21.7067 66.9727 21.778 66.1146 21.8751 65.2598C21.969 64.405 22.0564 63.5502 22.16 62.6954L22.4838 60.1342C22.6069 59.2826 22.7169 58.4278 22.8465 57.5794C22.9825 56.7279 23.1152 55.8795 23.2933 55.0344C23.6398 53.3475 24.0348 51.667 24.6435 50.0318C24.6727 49.9509 24.7666 49.9088 24.8475 49.938C24.9155 49.9639 24.9576 50.0319 24.9511 50.0998V50.1063C24.8054 51.8192 24.6111 53.5159 24.4201 55.2125L23.7919 60.2961L23.52 62.8443C23.4325 63.6926 23.3645 64.5442 23.2836 65.3958C23.1962 66.2441 23.1346 67.0989 23.0666 67.9505C22.9987 68.8021 22.9274 69.6537 22.8756 70.5052L22.7072 73.0632L22.568 75.6244C22.4676 77.3308 22.4126 79.0404 22.3381 80.7468C22.296 81.6016 22.2863 82.4564 22.2539 83.3112L22.173 85.8757L22.1276 88.4401L22.0694 91.0045V91.011C22.0629 91.2959 21.8719 91.5355 21.6128 91.6197C21.5351 91.6424 21.4185 91.6845 21.3214 91.7266C21.2178 91.7687 21.1174 91.8108 21.017 91.8593C20.8163 91.9532 20.6155 92.0569 20.4245 92.1669C20.0424 92.3904 19.6863 92.6526 19.3754 92.9505C19.22 93.0995 19.0808 93.2581 18.9512 93.4233C18.825 93.5916 18.7116 93.7665 18.6177 93.9478C18.4299 94.3137 18.3069 94.7055 18.2648 95.1134C18.2227 95.5182 18.2486 95.9553 18.336 96.3536C18.4299 96.7518 18.5918 97.121 18.8282 97.4415C19.0646 97.7621 19.3689 98.0373 19.7251 98.2575C20.0748 98.4777 20.4666 98.6331 20.8778 98.7302C21.0818 98.7788 21.2923 98.8079 21.506 98.8241C21.6128 98.8338 21.7197 98.8371 21.8265 98.8371H22.1892H23.6527H26.5798H29.5069H30.9704H31.6892C31.8835 98.8338 32.0778 98.8079 32.2623 98.7594C33.0135 98.5683 33.6547 97.992 33.9266 97.2699C33.9946 97.0886 34.0464 96.9008 34.0691 96.7097C34.0756 96.6612 34.0821 96.6126 34.0821 96.564L34.0885 96.4896L34.0918 96.3989L34.108 96.033L34.1727 94.5727L34.4318 88.725L34.9531 77.0296C34.9692 76.6767 35.2671 76.4015 35.6201 76.4177H35.6363H35.6427C35.8564 76.4339 36.0928 76.4436 36.3162 76.4533C36.5429 76.4598 36.7728 76.4663 36.9994 76.4663C37.2261 76.4663 37.456 76.463 37.6826 76.4533C37.9093 76.4468 38.1424 76.4339 38.3561 76.4177H38.3594C38.7123 76.3918 39.0199 76.6541 39.0458 77.007C39.0458 77.0135 39.0458 77.0199 39.0458 77.0264L39.5671 88.7218L39.8294 94.5695L39.8941 96.0298L39.9103 96.3957L39.9136 96.4863L39.92 96.5608C39.9233 96.6094 39.9298 96.6579 39.933 96.7065C39.9557 96.8975 40.0075 97.0853 40.0755 97.2667C40.3474 97.992 40.9918 98.5651 41.7397 98.7561C41.9275 98.8079 42.1186 98.8306 42.3129 98.8338H43.0317H44.4952H47.4223H50.3494H51.8129H52.1756C52.2824 98.8338 52.3893 98.8306 52.4961 98.8209C52.7066 98.8047 52.9171 98.7755 53.1243 98.727C53.5355 98.6298 53.9273 98.4744 54.277 98.2542C54.6332 98.0341 54.9375 97.7588 55.1739 97.4383C55.4103 97.1177 55.5722 96.7486 55.6661 96.3503C55.7535 95.9521 55.7794 95.5149 55.7373 95.1102C55.6952 94.7022 55.5722 94.3104 55.3844 93.9446C55.2872 93.7632 55.1771 93.5884 55.0508 93.42C54.9213 93.2549 54.7821 93.0962 54.6267 92.9473C54.3158 92.6494 53.9629 92.3871 53.5776 92.1637C53.3866 92.0504 53.189 91.9468 52.9851 91.8561C52.8847 91.8075 52.7811 91.7654 52.6807 91.7233C52.5835 91.6845 52.467 91.6424 52.3893 91.6165C52.1173 91.5388 51.9392 91.2927 51.9327 91.024V91.0045L51.8842 88.4401L51.8453 85.8757L51.7708 83.3112C51.7417 82.4564 51.732 81.6016 51.6931 80.7468C51.6219 79.0372 51.5701 77.3275 51.4729 75.6212L51.337 73.06L51.1718 70.502C51.1232 69.6472 51.052 68.7988 50.984 67.944C50.916 67.0925 50.8545 66.2409 50.7703 65.3893C50.6926 64.5377 50.6246 63.6862 50.5339 62.8378L50.262 60.2896L49.637 55.2028C49.4363 53.5061 49.2323 51.8095 49.0542 50.1031V50.0998C49.0445 50.0157 49.106 49.9412 49.1902 49.9315C49.2744 49.9218 49.3392 49.9639 49.3651 50.0286Z" fill="#371B45"/>
<path d="M50.7736 65.6387H23.4358C22.6943 65.6387 22.092 65.0364 22.092 64.2949V63.5405C22.092 62.799 22.6943 62.1968 23.4358 62.1968H50.7736C51.515 62.1968 52.1173 62.799 52.1173 63.5405V64.2949C52.1173 65.0364 51.5183 65.6387 50.7736 65.6387Z" fill="white"/>
<g opacity="0.35">
<path d="M50.7736 63.9939H23.4358C22.8497 63.9939 22.3511 63.6183 22.1665 63.0938C22.1179 63.233 22.0888 63.3819 22.0888 63.5406V64.295C22.0888 65.0365 22.6911 65.6388 23.4325 65.6388H50.7703C51.5118 65.6388 52.1141 65.0365 52.1141 64.295V63.5406C52.1141 63.3852 52.0849 63.2362 52.0364 63.0938C51.8583 63.6183 51.3596 63.9939 50.7736 63.9939Z" fill="#371B45"/>
</g>
<path d="M50.5922 66.2798H23.2544C22.16 66.2798 21.2696 65.3894 21.2696 64.2949V63.5405C21.2696 62.4461 22.16 61.5557 23.2544 61.5557H50.5922C51.6866 61.5557 52.5771 62.4461 52.5771 63.5405V64.2949C52.5771 65.3894 51.6866 66.2798 50.5922 66.2798ZM23.2544 62.8346C22.8659 62.8346 22.5486 63.152 22.5486 63.5405V64.2949C22.5486 64.6835 22.8659 65.0008 23.2544 65.0008H50.5922C50.9808 65.0008 51.2981 64.6835 51.2981 64.2949V63.5405C51.2981 63.152 50.9808 62.8346 50.5922 62.8346H23.2544Z" fill="#371B45"/>
<path d="M43.8314 70.4018H30.2743C28.5452 70.4018 27.1464 68.9998 27.1464 67.2739V60.5585C27.1464 58.8294 28.5484 57.4307 30.2743 57.4307H43.8314C45.5605 57.4307 46.9593 58.8327 46.9593 60.5585V67.2739C46.9593 68.9998 45.5605 70.4018 43.8314 70.4018Z" fill="white"/>
<g opacity="0.35">
<path d="M43.5012 65.1466H30.6045C29.6656 65.1466 28.8302 64.7127 28.2862 64.0327V66.976C28.2862 68.2517 29.3223 69.2879 30.5981 69.2879H43.5077C44.7834 69.2879 45.8195 68.2517 45.8195 66.976V64.0327C45.2756 64.7127 44.4402 65.1466 43.5012 65.1466Z" fill="#371B45"/>
</g>
<path d="M43.8314 71.0429H30.2743C28.1955 71.0429 26.5053 69.3527 26.5053 67.2739V60.5585C26.5053 58.4797 28.1955 56.7896 30.2743 56.7896H43.8314C45.9102 56.7896 47.6004 58.4797 47.6004 60.5585V67.2739C47.6004 69.3527 45.9102 71.0429 43.8314 71.0429ZM30.2743 58.0718C28.9014 58.0718 27.7843 59.1889 27.7843 60.5617V67.2772C27.7843 68.6501 28.9014 69.7671 30.2743 69.7671H43.8314C45.2043 69.7671 46.3214 68.6501 46.3214 67.2772V60.5617C46.3214 59.1889 45.2043 58.0718 43.8314 58.0718H30.2743Z" fill="#371B45"/>
<path d="M32.4696 57.4306H30.2742C30.2742 57.4306 28.9435 51.1361 25.1713 47.7719C24.5302 47.1988 23.8211 46.7099 23.031 46.3537C23.031 46.3537 22.908 45.4989 23.3095 44.657C23.7077 43.8346 24.6144 43.0316 26.651 43.0704C26.651 43.0704 27.1982 43.3651 27.9624 44.0936C28.8139 44.9031 29.9278 46.2501 30.8344 48.3191C31.7896 50.495 32.5149 53.4577 32.4696 57.4306Z" fill="white"/>
<g opacity="0.35">
<path d="M25.7379 43.4396C25.1778 43.4299 24.7083 43.4817 24.3035 43.5821C23.6495 43.9739 23.3192 44.5341 23.1573 45.0489L23.1735 45.0424C24.2129 44.6441 25.3915 44.8967 26.2139 45.6511C27.8102 47.1147 30.8862 50.5825 31.2003 57.4307H31.5532C31.5532 46.5804 25.7379 43.4396 25.7379 43.4396Z" fill="#371B45"/>
</g>
<path d="M32.4695 58.0718H30.2742C29.9731 58.0718 29.7108 57.8613 29.6493 57.5634C29.6331 57.4792 27.8296 49.2355 22.7687 46.9398C22.5712 46.8491 22.432 46.6646 22.3996 46.4476C22.3899 46.3829 22.1794 44.8351 23.2156 43.663C23.9603 42.8179 25.1227 42.4035 26.6672 42.4358C26.7676 42.4391 26.8679 42.465 26.9586 42.5136C27.2144 42.6528 33.2434 46.0364 33.1106 57.4404C33.1042 57.7901 32.8192 58.0718 32.4695 58.0718ZM30.7793 56.7896H31.8284C31.7766 51.6154 30.3455 48.3515 29.128 46.5027C27.998 44.7898 26.8453 43.9544 26.4729 43.7116C25.4076 43.7181 24.637 43.9836 24.174 44.5081C23.7563 44.9808 23.6689 45.5831 23.6559 45.9425C28.3315 48.3451 30.2969 54.8954 30.7793 56.7896Z" fill="#371B45"/>
<path d="M51.9975 45.4989C51.2107 45.8551 49.4849 47.202 48.847 47.7752C45.0716 51.1394 43.744 57.4339 43.744 57.4339H41.5487C41.5034 53.461 42.2287 50.4983 43.1806 48.3256C44.0872 46.2566 45.2043 44.9096 46.0527 44.1001C46.8168 43.3748 47.364 43.0769 47.364 43.0769C49.4007 43.0381 50.657 43.5108 51.201 44.2393C51.8097 45.0521 52.1659 45.4762 51.9975 45.4989Z" fill="white"/>
<g opacity="0.35">
<path d="M48.2771 43.4396C48.8373 43.4299 49.3068 43.4817 49.7115 43.5821C50.3656 43.9739 50.6958 44.5341 50.8577 45.0489C50.8545 45.0456 50.848 45.0456 50.8415 45.0424C49.8022 44.6441 48.6236 44.8967 47.8011 45.6511C46.2048 47.1147 43.1288 50.5825 42.8147 57.4307H42.4618C42.4618 46.5804 48.2771 43.4396 48.2771 43.4396Z" fill="#371B45"/>
</g>
<path d="M43.7408 58.0718H41.5455C41.1958 58.0718 40.9109 57.7901 40.9044 57.4404C40.7716 46.0397 46.8006 42.6528 47.0564 42.5136C47.1471 42.465 47.2475 42.4391 47.3478 42.4359C47.4191 42.4359 47.4871 42.4326 47.5551 42.4326C51.9554 42.4326 52.5933 45.2464 52.6192 45.3662C52.6807 45.6608 52.5285 45.9555 52.2565 46.0785C47.1633 48.3904 44.3787 57.5213 44.3495 57.612C44.2718 57.884 44.0225 58.0718 43.7408 58.0718ZM42.1866 56.7896H43.2745C43.9059 54.8889 46.5319 47.7493 51.1718 45.1946C50.8221 44.6279 49.8929 43.7116 47.5551 43.7116C47.5518 43.7116 47.5486 43.7116 47.5454 43.7116C47.1762 43.9512 46.0203 44.7866 44.887 46.5027C43.6696 48.3515 42.2384 51.6186 42.1866 56.7896Z" fill="#371B45"/>
<path d="M39.9524 59.5741L39.6092 61.763L39.5509 62.1418L38.6734 61.818L25.2717 56.8543L26.4567 54.8565L28.937 50.6763C29.196 50.2392 29.74 50.0611 30.2063 50.2651L35.2736 52.4475L35.3481 52.4798C35.7561 52.6547 36.0021 53.0724 35.9536 53.516L35.714 55.7987L38.7123 57.2234C39.5962 57.6443 40.1046 58.6027 39.9524 59.5741Z" fill="#8FA1B5"/>
<g opacity="0.35">
<path d="M38.7738 60.28C38.926 59.3087 38.4176 58.3502 37.5304 57.9293L34.9563 56.7086C34.7005 56.5888 34.5516 56.3201 34.5807 56.0384L34.7717 54.2219C34.7944 54.0082 34.7458 53.7977 34.6455 53.6196C32.4793 56.8122 28.4513 55.6887 26.4535 54.8598L25.2684 56.8543L38.5374 61.7695L38.7738 60.28Z" fill="#371B45"/>
</g>
<path d="M39.8811 60.2831C39.852 60.2831 39.8196 60.2767 39.7905 60.2669L26.3628 55.0992C26.2333 55.0506 26.1685 54.9017 26.2171 54.7722C26.2657 54.6427 26.4146 54.5779 26.5441 54.6265L39.9718 59.7942C40.1013 59.8428 40.1661 59.9917 40.1175 60.1212C40.0787 60.2216 39.9815 60.2831 39.8811 60.2831Z" fill="#371B45"/>
<g opacity="0.5">
<path d="M36.5526 56.4722L39.525 57.8839C39.3146 57.6087 39.0393 57.3788 38.7123 57.2234L36.5818 56.2131L36.5526 56.4722Z" fill="white"/>
</g>
<g opacity="0.5">
<path d="M27.2986 55.53L29.7789 51.3499C30.0379 50.9127 30.5819 50.7346 31.0481 50.9386L35.8759 53.0206C35.7755 52.7843 35.5909 52.5867 35.3416 52.4799L35.2671 52.4475L30.1998 50.2652C29.7335 50.0644 29.1896 50.2392 28.9305 50.6764L26.4503 54.8565L25.2652 56.8511L26.2819 57.2267L27.2986 55.53Z" fill="white"/>
</g>
<path d="M39.5509 62.7828C39.4764 62.7828 39.4019 62.7698 39.3275 62.7439L25.0482 57.4531C24.8701 57.3884 24.7309 57.2459 24.6662 57.0678C24.6014 56.8897 24.6208 56.6922 24.718 56.5271L28.3833 50.3524C28.8042 49.64 29.6979 49.3519 30.4556 49.6789L35.5974 51.8936C36.2644 52.1818 36.6627 52.8618 36.585 53.5838L36.3907 55.4165L38.981 56.6469C40.1175 57.1876 40.7781 58.431 40.5838 59.6744L40.1823 62.2453C40.1531 62.4363 40.0398 62.6014 39.8747 62.6986C39.7743 62.7536 39.6642 62.7828 39.5509 62.7828ZM26.2139 56.5206L39.0393 61.2707L39.321 59.4736C39.4278 58.7872 39.0652 58.0975 38.437 57.7996L35.4387 56.3749C35.1926 56.2583 35.0469 55.9993 35.0761 55.7306L35.3189 53.4478C35.3351 53.2859 35.2477 53.1338 35.0955 53.069L29.9504 50.8543C29.7788 50.7798 29.5781 50.8445 29.4842 51.0064L26.2139 56.5206Z" fill="#371B45"/>
<path d="M53.3865 66.8336L57.2008 65.2762C57.6703 65.0851 58.1851 65.4316 58.1851 65.9367V69.3042L53.3865 66.8336Z" fill="#8FA1B5"/>
<path d="M58.1884 69.9452C58.088 69.9452 57.9876 69.9225 57.8937 69.874L53.0951 67.4002C52.8717 67.2869 52.739 67.0537 52.7487 66.8044C52.7584 66.5551 52.9138 66.3349 53.1469 66.241L56.9612 64.6836C57.3789 64.512 57.8549 64.5605 58.2305 64.8131C58.6061 65.0656 58.8295 65.4866 58.8295 65.9366V69.3041C58.8295 69.5275 58.7129 69.7347 58.5219 69.8513C58.4183 69.9161 58.3017 69.9452 58.1884 69.9452ZM54.9148 66.9015L57.5473 68.2582V65.9399C57.5473 65.9302 57.5473 65.901 57.5149 65.8784C57.4825 65.8557 57.4534 65.8687 57.4437 65.8719L54.9148 66.9015Z" fill="#371B45"/>
<path d="M10.7431 53.189C10.7431 55.0832 9.20834 56.6179 7.31415 56.6179C5.41997 56.6179 3.88519 55.0832 3.88519 53.189C3.88519 51.2948 5.41997 49.76 7.31415 49.76C9.20834 49.7568 10.7431 51.2948 10.7431 53.189Z" fill="#8FA1B5"/>
<g opacity="0.35">
<path d="M4.82416 53.189C4.82416 54.5619 5.938 55.6757 7.31088 55.6757C7.74153 55.6757 8.14627 55.5657 8.4992 55.3746C6.92233 55.067 5.73078 53.678 5.73078 52.0104C5.73078 51.7255 5.76639 51.4535 5.83115 51.188C5.22566 51.6413 4.82416 52.3666 4.82416 53.189Z" fill="#371B45"/>
</g>
<path d="M7.31415 57.259C5.07027 57.259 3.24408 55.4328 3.24408 53.189C3.24408 50.9451 5.07027 49.1189 7.31415 49.1189C9.55803 49.1189 11.3842 50.9451 11.3842 53.189C11.3842 55.4328 9.55803 57.259 7.31415 57.259ZM7.31415 50.3979C5.77614 50.3979 4.52306 51.6477 4.52306 53.189C4.52306 54.727 5.77614 55.9801 7.31415 55.9801C8.85216 55.9801 10.1052 54.7302 10.1052 53.189C10.102 51.651 8.85216 50.3979 7.31415 50.3979Z" fill="#371B45"/>
<path d="M66.9761 77.823L56.5046 74.0832C55.9542 73.8857 55.666 73.2802 55.8635 72.7265L56.55 70.8064C56.7475 70.256 57.353 69.9678 57.9067 70.1653L68.3781 73.9051C68.9286 74.1026 69.2167 74.7081 69.0192 75.2618L68.3328 77.1819C68.1353 77.7323 67.5298 78.0205 66.9761 77.823Z" fill="#8FA1B5"/>
<g opacity="0.35">
<path d="M55.828 72.8624C55.8733 72.8851 55.9154 72.9078 55.964 72.924L67.0603 76.8872C67.2675 76.9616 67.4942 76.8548 67.5654 76.6476L68.4753 74.1026C68.4915 74.0572 68.5012 74.0151 68.5109 73.9698C68.7376 74.0896 68.9092 74.2839 68.9998 74.5138C68.8897 74.2418 68.6696 74.0151 68.3749 73.9083L67.1769 73.4809L66.8175 74.4911C66.62 75.0416 66.0145 75.3297 65.4608 75.1322L56.1874 71.8198L55.8636 72.7297C55.7794 72.9628 55.7859 73.2089 55.8571 73.4258C55.7988 73.2477 55.7859 73.0535 55.828 72.8624Z" fill="#371B45"/>
</g>
<path d="M66.8045 76.0162C66.7656 76.0162 66.73 76.0098 66.6912 75.9968L56.3946 72.3509C56.2197 72.2894 56.1291 72.0951 56.1906 71.9203C56.2521 71.7454 56.4464 71.6548 56.6212 71.7163L66.9178 75.3622C67.0927 75.4237 67.1833 75.618 67.1218 75.7928C67.0732 75.9288 66.9437 76.0162 66.8045 76.0162Z" fill="#371B45"/>
<path d="M66.1407 77.8619C66.1019 77.8619 66.0662 77.8554 66.0274 77.8425C65.8525 77.7809 65.7619 77.5867 65.8234 77.4118L67.2287 73.4972C67.2902 73.3223 67.4845 73.2317 67.6593 73.2932C67.8341 73.3547 67.9248 73.549 67.8633 73.7238L66.458 77.6385C66.4095 77.7777 66.2799 77.8619 66.1407 77.8619Z" fill="#371B45"/>
<g opacity="0.5">
<path d="M68.3749 73.9083L57.9035 70.1685C57.353 69.971 56.7443 70.2591 56.5468 70.8096L55.8604 72.7297C55.7859 72.9369 55.7794 73.1506 55.8312 73.3481L56.3784 71.8198C56.5759 71.2694 57.1814 70.9812 57.7351 71.1787L68.2066 74.9185C68.5498 75.0415 68.7926 75.3232 68.8768 75.6535L69.016 75.2617C69.2135 74.7113 68.9286 74.1025 68.3749 73.9083Z" fill="white"/>
</g>
<path d="M67.3323 78.5256C67.1445 78.5256 66.9502 78.4932 66.7624 78.4252L56.2909 74.6854C55.407 74.3713 54.9472 73.3967 55.2613 72.5127L55.9477 70.5926C56.0999 70.1652 56.4107 69.822 56.822 69.6277C57.2332 69.4335 57.693 69.4108 58.1204 69.563L68.5918 73.3028C69.0192 73.455 69.3624 73.7658 69.5567 74.177C69.751 74.5882 69.7737 75.048 69.6215 75.4754L68.935 77.3955C68.6857 78.0917 68.0317 78.5256 67.3323 78.5256ZM57.5473 70.7448C57.4857 70.7448 57.4242 70.7578 57.3692 70.7869C57.2688 70.8355 57.1911 70.9197 57.1522 71.0265L56.4658 72.9466C56.3881 73.1636 56.5014 73.4064 56.7216 73.4841L67.193 77.2239C67.4132 77.3016 67.6528 77.1883 67.7305 76.9681L68.417 75.048C68.4558 74.9412 68.4493 74.8279 68.4008 74.7275C68.3522 74.6271 68.268 74.5494 68.1612 74.5105L57.6897 70.7707C57.6444 70.7545 57.5958 70.7448 57.5473 70.7448Z" fill="#371B45"/>
<path d="M59.4415 71.0072L58.3147 74.2937C57.9164 75.4528 56.6374 76.0551 55.488 75.6244L26.3629 64.8001L22.05 65.4153L17.6464 72.9208C17.4877 73.196 17.5428 73.5425 17.7824 73.7529L18.2454 74.1577C18.3134 74.2192 18.3749 74.2872 18.4267 74.3584C18.6987 74.7372 18.7149 75.2553 18.4461 75.6601C17.6334 76.871 15.7554 78.545 12.511 75.5532C12.511 75.5532 11.9379 75.0319 11.4943 74.2645C10.9147 73.2769 10.5456 71.8782 11.8829 70.6639L17.0441 62.6145C17.4489 61.9863 17.1866 61.1444 16.4969 60.853L11.3519 58.6933C11.3519 58.6933 8.22402 59.8946 6.99361 58.0652C6.16794 56.838 6.087 54.0048 7.43721 52.0945C7.761 51.6379 8.17222 51.272 8.63848 51.0097C9.60338 50.4625 10.7982 50.3524 11.8926 50.7669L56.8188 67.7628L58.156 68.2679C59.2505 68.6823 59.8203 69.8966 59.4415 71.0072Z" fill="#8FA1B5"/>
<path d="M17.7856 74.0898C17.7241 74.0898 17.6658 74.0736 17.6107 74.0412L16.1472 73.1508C15.1952 72.5712 14.8909 71.3213 15.4705 70.3694L18.5497 65.3085C19.1164 64.376 20.3112 64.0587 21.2663 64.5929L22.2151 65.1207C22.2928 65.1661 22.351 65.2373 22.3769 65.3247C22.3996 65.4121 22.3899 65.506 22.3413 65.5837L17.9378 73.0893C17.9313 73.1022 17.9216 73.1119 17.9151 73.1249C17.86 73.2058 17.8244 73.3418 18.0058 73.5005C18.1385 73.6138 18.1579 73.8113 18.0576 73.9538C17.9896 74.0412 17.8892 74.0898 17.7856 74.0898ZM20.2788 65.0074C19.8222 65.0074 19.3786 65.2405 19.1261 65.6582L16.0468 70.7191C15.6583 71.3537 15.8622 72.1891 16.4969 72.5777L17.2319 73.0277C17.261 72.9176 17.3096 72.8173 17.3646 72.7396L21.5837 65.5449L20.9361 65.1822C20.7288 65.0624 20.5022 65.0074 20.2788 65.0074Z" fill="#371B45"/>
<path d="M58.904 72.9079C58.8651 72.9079 58.8262 72.9014 58.7874 72.8884L31.4917 62.8153C30.6078 62.4915 29.604 62.6501 28.869 63.2362L26.5765 65.0624C26.4308 65.179 26.2204 65.153 26.1038 65.0073C25.9872 64.8616 26.0131 64.6512 26.1588 64.5346L28.4513 62.7084C29.3709 61.9766 30.6272 61.7759 31.7281 62.1806L59.0238 72.2538C59.1986 72.3186 59.286 72.5128 59.2245 72.6845C59.1695 72.8237 59.0399 72.9079 58.904 72.9079Z" fill="#371B45"/>
<path d="M57.1296 67.8792L55.8377 68.624C55.3261 68.9186 54.7076 68.9704 54.154 68.76L15.1694 54.0792C14.5347 53.8396 14.0685 53.2924 13.9325 52.6286L13.6896 51.4468L57.1296 67.8792Z" fill="#47EF92"/>
<g opacity="0.35">
<path d="M55.3876 67.2222L54.9958 67.4488C54.4842 67.7435 53.8658 67.7953 53.3121 67.5848L14.3275 52.9008C14.1947 52.849 14.0685 52.7843 13.9519 52.7065C14.1073 53.3347 14.5606 53.8495 15.1694 54.0794L54.1507 68.7634C54.7044 68.9706 55.3228 68.9221 55.8344 68.6274L57.1264 67.8827L55.3876 67.2222Z" fill="#21217A"/>
</g>
<path d="M54.8501 69.2264C54.5748 69.2264 54.2996 69.1778 54.0341 69.0775L15.0495 54.3935C14.3048 54.1118 13.7608 53.4772 13.5989 52.6968L13.3561 51.515C13.3302 51.3952 13.3723 51.2721 13.4662 51.1912C13.5601 51.1102 13.6896 51.0876 13.8029 51.1329L57.2461 67.5686C57.3692 67.6139 57.4534 67.7273 57.4631 67.8568C57.4728 67.9863 57.408 68.1093 57.2947 68.1741L56.0028 68.9188C55.6466 69.1228 55.2516 69.2264 54.8501 69.2264ZM14.1397 51.978L14.2595 52.5608C14.3728 53.1145 14.7581 53.5646 15.2859 53.7621L54.2705 68.4461C54.7303 68.6209 55.2419 68.5788 55.666 68.3327L56.3428 67.941L14.1397 51.978Z" fill="#371B45"/>
<path d="M11.3518 58.6933C11.3518 58.6933 10.8305 57.288 11.4166 56.077C11.7986 55.2902 12.7312 54.9405 13.5471 55.2643L19.3657 57.5665C20.2464 57.9129 20.677 58.9232 20.2982 59.7909C19.7769 60.989 18.6889 62.174 16.4969 60.8562L11.3518 58.6933Z" fill="#47EF92"/>
<g opacity="0.7">
<path d="M19.3074 58.0943C19.2621 58.0716 19.2168 58.0522 19.1714 58.0327L13.3529 55.7306C13.3011 55.7111 13.2493 55.6917 13.1975 55.6788C12.7927 55.5622 12.3427 55.695 12.0804 56.0252L12.0771 56.0317C12.2488 56.0511 12.4204 56.0932 12.5823 56.158L19.5276 58.9037C19.6474 58.9523 19.7575 59.0106 19.8611 59.0786V59.0721C19.8838 58.6641 19.6701 58.2756 19.3074 58.0943Z" fill="white"/>
</g>
<path d="M18.2421 61.7695C17.6658 61.7695 17.0279 61.5655 16.3447 61.1543L11.2223 59.0043C11.1381 58.9687 11.0701 58.8975 11.0377 58.81C11.0151 58.7485 10.4743 57.2558 11.1155 55.9315C11.5688 54.9958 12.6923 54.5651 13.6702 54.9504L19.4887 57.2526C19.9971 57.4533 20.4115 57.8613 20.6188 58.3664C20.8292 58.8716 20.8227 59.4252 20.6058 59.9239C20.2011 60.8532 19.6344 61.4392 18.9188 61.6659C18.7019 61.7371 18.4785 61.7695 18.2421 61.7695ZM11.6238 58.4441L16.6232 60.5456C16.6394 60.552 16.6523 60.5585 16.6653 60.5682C17.4683 61.0507 18.1547 61.2061 18.7116 61.028C19.2329 60.8629 19.6603 60.3999 19.9841 59.6584C20.1266 59.3281 20.1298 58.9622 19.9906 58.6255C19.8481 58.2823 19.5794 58.0167 19.2362 57.8808L13.4241 55.5786C12.77 55.3196 12.0221 55.6045 11.7209 56.2262C11.3 57.0907 11.5234 58.088 11.6238 58.4441Z" fill="#371B45"/>
<path d="M52.0363 74.5074L34.9077 68.1902C34.8041 67.7628 34.762 67.3775 34.7685 67.0375C34.7749 66.5486 34.8753 66.1471 35.0275 65.8136C35.0307 65.8103 35.0307 65.8071 35.0307 65.8071C35.4938 64.7774 36.423 64.4407 36.423 64.4407L51.0617 69.8448L53.4189 70.7158C54.4065 73.1474 52.0363 74.5074 52.0363 74.5074Z" fill="#47EF92"/>
<g opacity="0.7">
<path d="M36.2547 64.9198L50.8934 70.3239L53.2506 71.1949C53.529 71.8814 53.542 72.4836 53.4125 72.9952C53.6877 72.3994 53.7913 71.6353 53.419 70.7189L51.0617 69.8479L36.4231 64.4438C36.4231 64.4438 35.4971 64.7806 35.0308 65.8102C35.0308 65.8102 35.0308 65.8135 35.0276 65.8167C34.966 65.9527 34.9142 66.1049 34.8721 66.2668C35.3416 65.2501 36.2547 64.9198 36.2547 64.9198Z" fill="white"/>
</g>
<path d="M52.0396 74.6757C52.0007 74.6757 51.9619 74.6692 51.923 74.6562L34.7944 68.3358C34.6908 68.297 34.6099 68.2095 34.584 68.0994C33.8069 64.9069 36.2839 63.9679 36.3098 63.9581C36.3842 63.9322 36.4652 63.9322 36.5397 63.9581L53.5355 70.23C53.6229 70.2624 53.6942 70.3304 53.7298 70.4178C54.5976 72.5581 53.1146 74.1058 52.2047 74.6271C52.1562 74.6595 52.0979 74.6757 52.0396 74.6757ZM35.1992 67.7659L51.9975 73.9633C52.4346 73.6654 53.7816 72.5678 53.1567 70.8096L36.4328 64.6381C36.0443 64.8291 34.7556 65.6289 35.1992 67.7659Z" fill="#371B45"/>
<g opacity="0.35">
<path d="M17.8147 71.9106L22.2183 64.4051L26.5312 63.7898L55.6563 74.6142C56.8058 75.0481 58.0848 74.4459 58.4831 73.2834L59.5548 70.1588C59.4998 69.3332 58.9752 68.5787 58.156 68.2679L56.8188 67.7628C57.0843 69.6084 56.6115 70.7352 55.951 71.4216C55.0897 72.3185 53.7524 72.5711 52.5868 72.134L11.7533 56.8154C11.4425 56.6988 11.122 56.6049 10.8014 56.5207C6.24888 55.3324 8.63199 51.0098 8.63199 51.0098C8.16897 51.2753 7.75451 51.6379 7.43072 52.0945C6.97741 52.7356 6.68924 53.4835 6.53058 54.238C6.54677 54.157 6.5662 54.0761 6.58562 53.9951C6.47553 55.2191 6.70219 56.3782 7.1555 57.055C8.38591 58.8844 11.5137 57.6831 11.5137 57.6831L16.6588 59.8428C17.3485 60.131 17.6108 60.9729 17.206 61.6042L17.1833 61.6399C17.2708 61.9572 17.2319 62.3101 17.0376 62.6145L11.8829 70.664C11.5202 70.9942 11.2838 71.3374 11.1446 71.6807C11.1738 72.2538 11.3972 72.7977 11.6659 73.2543C12.1095 74.0217 12.6826 74.543 12.6826 74.543L12.6859 74.5462C12.9708 74.8085 13.327 74.9833 13.7091 75.0578C15.4413 75.401 17.0247 75.0578 18.4299 74.3552C18.3781 74.284 18.3166 74.216 18.2486 74.1544L17.7856 73.7497C17.546 73.5392 17.4909 73.1895 17.6496 72.9176L22.0532 65.412L17.8374 72.6002C17.7014 72.3962 17.6885 72.1307 17.8147 71.9106Z" fill="#371B45"/>
</g>
<g opacity="0.5">
<path d="M58.1528 68.268L56.8155 67.7597L11.8893 50.7638C10.7981 50.3526 9.60335 50.4594 8.63521 51.0067C8.17219 51.2722 7.75773 51.6348 7.43394 52.0914C6.82521 52.9526 6.51113 53.9985 6.42047 55.0022C6.58561 54.332 6.86083 53.6747 7.26557 53.1016C7.58936 52.645 8.00058 52.2792 8.46684 52.0169C9.43174 51.4664 10.6265 51.3596 11.721 51.774L56.6471 68.7699L57.9844 69.2782C58.8068 69.5891 59.3314 70.3435 59.3832 71.1692L59.4382 71.0073C59.8203 69.8967 59.2504 68.6825 58.1528 68.268Z" fill="white"/>
</g>
<path d="M15.8688 77.8715C14.6837 77.8715 13.4112 77.2499 12.0772 76.0227C12.0092 75.9612 10.3287 74.4102 10.3287 72.5614C10.3287 71.6936 10.6848 70.9165 11.3842 70.2495L16.5002 62.268C16.6232 62.077 16.5941 61.8892 16.5649 61.7953C16.5358 61.7014 16.4548 61.5298 16.2444 61.4423L11.326 59.3765C10.4776 59.6453 7.74158 60.3285 6.45936 58.4181C5.47179 56.9481 5.41351 53.8364 6.90943 51.7221C8.06861 50.0837 10.2089 49.4426 12.1128 50.1646L58.3795 67.6688C59.8106 68.2096 60.5424 69.767 60.047 71.2144L58.9202 74.4976C58.6709 75.2229 58.1528 75.8058 57.4566 76.1328C56.7605 76.4598 55.9834 76.4922 55.2646 76.2202L26.2949 65.4541L22.4482 66.0046L18.2033 73.2446C18.1968 73.2543 18.2001 73.264 18.2065 73.2705L18.6696 73.6752C19.3463 74.2645 19.479 75.2715 18.9804 76.0162C18.2584 77.0912 17.3194 77.7258 16.2638 77.8521C16.131 77.8651 16.0015 77.8715 15.8688 77.8715ZM11.3519 58.0522C11.436 58.0522 11.5202 58.0684 11.6012 58.1008L16.743 60.2605C17.2449 60.471 17.627 60.8919 17.7889 61.4132C17.9507 61.9345 17.8763 62.4979 17.5816 62.9544L12.4204 71.0039C12.3912 71.0525 12.3524 71.0946 12.3135 71.1302C11.8408 71.5608 11.6109 72.0239 11.6109 72.5516C11.6077 73.8339 12.932 75.0643 12.9449 75.074C14.1397 76.1749 15.205 76.68 16.1116 76.5731C16.9632 76.4728 17.5622 75.8219 17.9151 75.2974C18.0576 75.0869 18.0187 74.802 17.8245 74.6336L17.3614 74.2289C16.8887 73.8177 16.7786 73.128 17.0959 72.5905L21.4995 65.085C21.5966 64.9166 21.7683 64.8033 21.9625 64.7742L26.2754 64.1589C26.3823 64.1428 26.4892 64.1557 26.5895 64.1913L55.7146 75.0157C56.1097 75.1646 56.5338 75.1485 56.9127 74.9704C57.2915 74.7923 57.5732 74.475 57.7092 74.0799L58.836 70.7967C59.108 70.0066 58.7065 69.1583 57.9261 68.8636L11.6627 51.3627C10.3028 50.8478 8.78095 51.3012 7.95852 52.4636C6.72163 54.2153 6.87381 56.7409 7.52464 57.709C8.44421 59.0786 11.0961 58.1073 11.1252 58.0976C11.1964 58.0684 11.2742 58.0522 11.3519 58.0522Z" fill="#371B45"/>
<path d="M31.4205 66.6748C31.4205 66.6748 27.4022 72.5484 20.2594 68.4719L19.1844 70.3045C28.2927 75.7021 33.7 67.5231 33.7 67.5231L31.4205 66.6748Z" fill="#8FA1B5"/>
<path d="M25.249 72.7815C23.3937 72.7815 21.2437 72.2699 18.8573 70.8549C18.553 70.6768 18.4526 70.2851 18.6307 69.9807L19.7057 68.148C19.8838 67.8469 20.2723 67.7433 20.5734 67.9149C22.309 68.9057 23.8373 69.2716 25.1551 69.2716C28.7913 69.2716 30.7826 66.474 30.8927 66.3121C31.0578 66.0725 31.3687 65.9721 31.6439 66.0758L33.9202 66.9209C34.1047 66.9889 34.244 67.1378 34.3055 67.3224C34.367 67.5069 34.3379 67.7109 34.231 67.8728C34.1727 67.9602 32.761 70.0649 30.1642 71.496C28.9079 72.189 27.25 72.7815 25.249 72.7815ZM20.0618 70.0681C23.4099 71.8749 26.583 71.9882 29.5036 70.3984C30.9963 69.5857 32.0713 68.501 32.6541 67.8178L31.6277 67.4357C30.5236 68.7179 26.5927 72.4609 20.4925 69.3266L20.0618 70.0681Z" fill="#371B45"/>
<path d="M27.726 67.0278C27.4767 67.8275 26.7352 68.3391 25.9419 68.3391C25.7379 68.3391 25.5307 68.3067 25.3267 68.2355L22.9695 67.4131C22.9695 67.4131 23.0699 73.6623 19.1714 74.1739C15.273 74.6855 5.89919 70.2884 8.40534 58.9913C8.40534 58.9913 10.0113 59.1434 11.3518 58.6934L16.4969 60.8531L26.379 64.6382L26.6122 64.7288C27.5317 65.0785 28.0207 66.0855 27.726 67.0278Z" fill="white"/>
<g opacity="0.35">
<path d="M27.726 67.0278C27.4767 67.8275 26.7352 68.3391 25.9419 68.3391C25.738 68.3391 25.5307 68.3067 25.3267 68.2355L22.9695 67.4131C22.9695 67.4131 23.0699 73.6623 19.1714 74.1739C17.5136 74.3908 14.8682 73.7206 12.5661 72.0109C8.29202 66.908 8.7939 61.7694 9.55481 59.0042C10.0955 58.9783 10.7528 58.8973 11.3551 58.6934C11.3551 58.6934 7.29798 64.3047 12.8478 69.5501C18.3976 74.7988 21.1142 71.2306 20.8357 68.6208C20.8357 68.6208 19.0775 66.2507 20.036 65.7909C20.9944 65.3311 22.8012 65.8168 24.9349 66.6716C26.5377 67.316 27.4476 66.1373 26.3823 64.6317L26.6154 64.7224C27.5318 65.0785 28.0207 66.0855 27.726 67.0278Z" fill="#371B45"/>
</g>
<path d="M8.63525 67.3159C8.63201 67.3159 8.63201 67.3159 8.63525 67.3159C8.27908 67.3159 7.99414 67.0277 7.99414 66.6748C7.99414 66.6165 8.07833 60.7461 13.3302 59.0041C13.667 58.894 14.0264 59.0754 14.1397 59.4089C14.2498 59.7456 14.0685 60.105 13.735 60.2183C9.34435 61.6722 9.27636 66.6294 9.27636 66.678C9.27312 67.0309 8.98818 67.3159 8.63525 67.3159Z" fill="#371B45"/>
<path d="M22.7623 68.0186C22.4093 67.8826 22.0693 67.7174 21.7294 67.5426C21.3926 67.3645 21.0526 67.1929 20.745 66.9209C20.6285 66.8173 20.6155 66.6392 20.7191 66.5194C20.7709 66.4611 20.8422 66.4287 20.9166 66.4223C21.3246 66.3996 21.697 66.4708 22.0726 66.5388C22.4482 66.6101 22.8173 66.691 23.1799 66.8011C23.5199 66.9047 23.7077 67.2609 23.6073 67.6009C23.5037 67.9376 23.1476 68.1286 22.8076 68.0283C22.7914 68.0283 22.7752 68.0218 22.7623 68.0186Z" fill="#371B45"/>
<path d="M18.5109 74.8537C16.1634 74.8537 12.8639 73.6007 10.4517 70.9682C8.48301 68.8183 6.42045 64.9716 7.78038 58.8552C7.85161 58.5411 8.14303 58.3274 8.46682 58.3565C8.47977 58.3565 9.9595 58.4893 11.1478 58.091C11.2968 58.0424 11.4554 58.0489 11.6011 58.1072L16.7332 60.2637L26.8388 64.1265C28.0724 64.5992 28.7297 65.9559 28.338 67.2187C28.134 67.8728 27.6839 68.4038 27.0687 68.7114C26.4567 69.019 25.7606 69.0643 25.113 68.8377L23.575 68.3002C23.4357 70.1782 22.7331 74.3486 19.2523 74.8052C19.0192 74.8376 18.7699 74.8537 18.5109 74.8537ZM8.92013 59.6549C7.90666 64.9263 9.69075 68.2354 11.3971 70.1005C13.7543 72.6779 17.1185 73.7949 19.0872 73.5359C22.3737 73.1053 22.3316 67.4778 22.3284 67.4195C22.3251 67.209 22.4255 67.0147 22.5939 66.8917C22.7622 66.7686 22.9824 66.7363 23.1799 66.8075L25.5339 67.6299C25.8512 67.74 26.1912 67.7174 26.4923 67.5684C26.7935 67.4162 27.0136 67.1572 27.114 66.8366C27.3083 66.2182 26.9845 65.5544 26.379 65.3213L16.2637 61.4487C16.2573 61.4455 16.2508 61.4423 16.2443 61.4423L11.3162 59.3732C10.4355 59.6258 9.50619 59.6647 8.92013 59.6549Z" fill="#371B45"/>
<g opacity="0.35">
<path d="M50.7056 44.6601C49.8929 45.2591 49.0413 45.8063 48.1541 46.2952C46.5966 47.1533 44.9291 47.8397 43.1806 48.3222C41.2152 48.8662 39.1462 49.1576 37.0092 49.1576C34.8721 49.1576 32.7999 48.8662 30.8377 48.3222C29.086 47.8397 27.4184 47.1533 25.8642 46.2952C24.977 45.8063 24.1255 45.2591 23.3127 44.6601C23.711 43.8377 24.6176 43.0347 26.6543 43.0735C26.6543 43.0735 27.2015 43.3682 27.9656 44.0967C29.1183 43.3099 30.5139 42.8501 32.013 42.8501H42.0053C43.5077 42.8501 44.9 43.3099 46.0527 44.0967C46.8168 43.3714 47.364 43.0735 47.364 43.0735C49.3975 43.0347 50.3073 43.8377 50.7056 44.6601Z" fill="#371B45"/>
</g>
<path d="M60.6233 26.7254C60.3643 26.7804 60.1053 26.6153 60.0502 26.3562L57.1037 12.7926C57.0487 12.5335 57.2138 12.2745 57.4728 12.2195C60.2024 11.6269 62.8931 13.3592 63.4857 16.0855L64.4894 20.7125C65.082 23.4389 63.3497 26.1328 60.6233 26.7254Z" fill="white"/>
<path d="M60.5197 26.8387C60.251 26.8387 60.0081 26.6509 59.9499 26.3789L57.0033 12.8153C56.9354 12.5012 57.1361 12.1903 57.4502 12.1224C58.7972 11.8309 60.1765 12.0803 61.3357 12.825C62.4949 13.5697 63.2946 14.7224 63.586 16.0661L64.5898 20.6899C64.8812 22.0369 64.6319 23.4162 63.8872 24.5754C63.1424 25.7346 61.9897 26.5343 60.646 26.8258C60.6007 26.8322 60.5618 26.8387 60.5197 26.8387ZM58.5543 12.2033C58.2014 12.2033 57.8452 12.2422 57.4923 12.3166C57.2883 12.362 57.1555 12.5627 57.2009 12.7699L60.1474 26.3336C60.1927 26.5376 60.3935 26.6703 60.6007 26.625C61.8926 26.3433 63 25.5759 63.7156 24.4621C64.4311 23.3482 64.6707 22.0239 64.389 20.732L63.3853 16.1082C63.1036 14.8163 62.3362 13.7089 61.2224 12.9934C60.4129 12.472 59.4933 12.2033 58.5543 12.2033Z" fill="#371B45"/>
<g opacity="0.35">
<path d="M64.0166 18.5432L64.4894 20.7126C65.0819 23.439 63.3496 26.1329 60.6233 26.7287C60.3643 26.787 60.1052 26.6186 60.0502 26.3596L59.2666 22.7525C59.3767 22.9015 59.5645 22.9792 59.7555 22.9403L60.0761 22.8691C62.2293 22.3996 63.7641 20.6187 64.0166 18.5432Z" fill="#371B45"/>
</g>
<path d="M60.5197 27.3018C60.0373 27.3018 59.6034 26.9683 59.4965 26.4761L56.55 12.9124C56.427 12.349 56.7864 11.7889 57.3498 11.6658C58.8166 11.3485 60.319 11.6173 61.5818 12.43C62.8445 13.2427 63.7155 14.4958 64.0329 15.9626L65.0366 20.5863C65.3539 22.0531 65.0852 23.5555 64.2725 24.8183C63.4598 26.0811 62.2067 26.9521 60.7399 27.2694C60.6687 27.2921 60.5942 27.3018 60.5197 27.3018ZM60.5035 26.175C60.5003 26.175 60.5003 26.175 60.5035 26.175V26.175ZM57.6703 12.7538L60.5812 26.1555C62.9546 25.5954 64.4538 23.2252 63.9357 20.8324L62.932 16.2086C62.6762 15.0365 61.98 14.0328 60.973 13.3852C59.9855 12.7473 58.8166 12.5271 57.6703 12.7538Z" fill="#371B45"/>
<path d="M12.6988 21.9493C12.9579 21.8943 13.2169 22.0594 13.2719 22.3184L16.2185 35.8821C16.2735 36.1411 16.1084 36.4002 15.8493 36.4552C13.1198 37.0477 10.4291 35.3154 9.83651 32.5891L8.83276 27.9621C8.23698 25.2326 9.96927 22.5418 12.6988 21.9493Z" fill="white"/>
<g opacity="0.3">
<path d="M16.2185 35.8822L15.5514 32.8192C15.5417 32.8224 15.5288 32.8289 15.5191 32.8289C12.7895 33.4214 10.0988 31.6891 9.50624 28.9628L8.82627 25.835C8.68057 26.5149 8.67409 27.237 8.82951 27.9623L9.83327 32.5893C10.4258 35.3188 13.1198 37.0479 15.8461 36.4553C16.1084 36.3971 16.2735 36.1413 16.2185 35.8822Z" fill="#371B45"/>
</g>
<path d="M14.7743 36.6722C12.4009 36.6722 10.2606 35.0209 9.73609 32.6086L8.73234 27.9816C8.44092 26.6346 8.69024 25.2553 9.43497 24.0961C10.1797 22.9369 11.3324 22.1372 12.6794 21.8458C12.9934 21.7778 13.3043 21.9785 13.3723 22.2926L16.3188 35.8562C16.3868 36.1703 16.186 36.4812 15.872 36.5492C15.5028 36.6334 15.1369 36.6722 14.7743 36.6722ZM12.7182 22.0465C11.4263 22.3282 10.3189 23.0956 9.60334 24.2094C8.88776 25.3233 8.64815 26.6476 8.92985 27.9395L9.93361 32.5665C10.5132 35.2346 13.1553 36.9377 15.8266 36.3549C16.0306 36.3096 16.1634 36.1088 16.118 35.9016L13.1715 22.3379C13.1262 22.1339 12.9254 22.0012 12.7182 22.0465Z" fill="#371B45"/>
<path d="M14.7743 37.1352C12.1872 37.1352 9.85269 35.3349 9.28281 32.709L8.27906 28.082C7.96174 26.6152 8.23049 25.1128 9.04321 23.85C9.85592 22.5872 11.109 21.7162 12.5758 21.3989C13.1392 21.2759 13.6993 21.6353 13.8224 22.1987L16.7689 35.7623C16.8919 36.3257 16.5325 36.8859 15.9691 37.0089C15.5709 37.0931 15.1694 37.1352 14.7743 37.1352ZM12.7377 22.5192C10.3643 23.0794 8.86512 25.4495 9.38319 27.8424L10.3869 32.4694C10.9082 34.8622 13.2557 36.3937 15.6486 35.921L12.7377 22.5192Z" fill="#371B45"/>
<path d="M60.0761 20.9652C61.9379 33.8942 52.9656 45.8875 40.0334 47.7493C27.1043 49.6111 15.1111 40.6388 13.2493 27.7065C11.3875 14.7775 20.363 2.78424 33.292 0.922437C46.221 -0.93613 58.2143 8.03615 60.0761 20.9652Z" fill="white"/>
<path d="M60.0858 21.5769C60.8144 26.1489 60.0081 30.6269 58.0298 34.5448C56.5468 37.4816 49.459 43.3325 39.8165 44.9612C30.8733 46.4701 21.9658 42.9926 19.6442 40.6645C16.5455 37.5593 14.3858 33.5508 13.6573 28.9788C11.7275 16.882 21.3214 10.2118 34.1436 8.1687C46.9658 6.12234 58.1593 9.4833 60.0858 21.5769Z" fill="#371B45"/>
<path d="M36.6465 48.0925C25.0321 48.0925 14.8521 39.5444 13.1489 27.7195C12.2455 21.4379 13.8418 15.1823 17.6431 10.102C21.4445 5.02165 26.9975 1.72869 33.2791 0.822067C39.5606 -0.0813134 45.8163 1.51498 50.8966 5.3163C55.9769 9.11762 59.2731 14.6707 60.1765 20.9522C61.0799 27.2338 59.4836 33.4895 55.6823 38.5698C51.8809 43.6501 46.3279 46.9463 40.0463 47.8497C38.9066 48.0148 37.7701 48.0925 36.6465 48.0925ZM36.7113 0.779974C35.5812 0.779974 34.4447 0.860922 33.305 1.02606C27.0785 1.91972 21.574 5.18679 17.805 10.225C14.0361 15.2632 12.4528 21.4638 13.3497 27.6936C15.2018 40.5481 27.1626 49.501 40.0172 47.6489C46.2437 46.752 51.7482 43.4849 55.5171 38.4467C59.2861 33.4085 60.8694 27.2079 59.9725 20.9781C59.0756 14.7516 55.8085 9.24714 50.7703 5.4782C46.6582 2.39894 41.7624 0.779974 36.7113 0.779974Z" fill="#371B45"/>
<g opacity="0.35">
<path d="M59.3832 17.7563C59.6843 18.7925 59.9142 19.8642 60.0761 20.9651C61.9347 33.8942 52.9624 45.8874 40.0334 47.7492C27.1043 49.6078 15.1111 40.6355 13.2493 27.7065C13.1942 27.3341 13.1521 26.9618 13.1165 26.5926C16.335 37.7635 27.3763 45.1297 39.2077 43.4266C51.7644 41.6166 60.5877 30.2547 59.3832 17.7563Z" fill="#371B45"/>
</g>
<path d="M36.6465 48.5554C24.8087 48.5554 14.4247 39.8389 12.6891 27.7842C11.7696 21.3828 13.395 15.0041 17.2708 9.82664C21.1466 4.64596 26.8097 1.285 33.2111 0.365428C39.6125 -0.55738 45.9912 1.0713 51.1718 4.94709C56.3525 8.82288 59.7102 14.4828 60.6331 20.8874C61.5559 27.292 59.9272 33.6707 56.0514 38.8481C52.1756 44.0288 46.5157 47.3865 40.1111 48.3094C38.9487 48.4745 37.7895 48.5554 36.6465 48.5554ZM36.7113 1.24291C35.6039 1.24291 34.4901 1.32385 33.373 1.48251C27.2695 2.35999 21.8719 5.56553 18.1774 10.5034C14.4829 15.4412 12.932 21.522 13.8095 27.6255C15.6227 40.2275 27.3504 49.0023 39.9524 47.189C46.0559 46.3116 51.4535 43.106 55.148 38.1682C58.8425 33.2303 60.3935 27.1495 59.516 21.046C58.6385 14.9426 55.433 9.54494 50.4951 5.85047C46.4607 2.82949 41.6621 1.24291 36.7113 1.24291Z" fill="#371B45"/>
<g opacity="0.35">
<path d="M53.7719 11.0117C57.0422 13.2686 59.3087 16.7169 60.0858 21.5771C60.8144 26.149 60.0049 30.6303 58.0297 34.5449C56.5468 37.4817 49.459 43.3327 39.8164 44.9613C36.4101 45.5377 33.0135 45.3887 29.9796 44.8545C41.7916 42.6009 50.4174 35.4289 52.2533 31.7895C54.7627 26.8193 55.7891 21.1335 54.8631 15.3311C54.617 13.7801 54.2478 12.3425 53.7719 11.0117Z" fill="#111A28"/>
</g>
<path d="M13.7641 18.9511C13.6669 18.9511 13.5698 18.9252 13.4791 18.8734C13.2169 18.7212 13.123 18.3877 13.2654 18.1222C16.3997 11.465 23.7887 6.75381 33.5381 5.1996C43.2292 3.65511 51.7061 5.72415 56.7896 10.8789C56.9742 11.0602 57.0195 11.3484 56.8803 11.5783C56.7184 11.8438 56.3719 11.9312 56.1064 11.7693C56.0675 11.7467 56.0254 11.7143 55.9931 11.6819C51.1686 6.78295 43.0511 4.82724 33.7162 6.31345C24.3294 7.81261 17.2448 12.2971 14.2789 18.6208C14.2692 18.6435 14.2562 18.6694 14.24 18.6888C14.1332 18.8572 13.9486 18.9511 13.7641 18.9511Z" fill="#371B45"/>
<g opacity="0.5">
<path d="M20.0198 35.3447C20.0198 35.3447 14.3696 24.0087 20.0457 18.229C25.7185 12.4493 34.9725 10.9923 34.8527 11.6204C34.8527 11.6204 25.0062 15.7326 22.2896 24.4685C20.1914 31.2066 20.0198 35.3447 20.0198 35.3447Z" fill="white"/>
</g>
<g opacity="0.5">
<path d="M50.1001 22.9466C50.0515 25.2585 51.3693 27.1591 53.0433 27.1948C54.7173 27.2304 56.1161 25.3848 56.1647 23.0729C56.2133 20.761 54.8954 18.8603 53.2214 18.8247C51.5442 18.7891 50.1486 20.6347 50.1001 22.9466Z" fill="white"/>
</g>
<g opacity="0.5">
<path d="M46.1466 28.1436C45.9782 29.1927 46.5707 30.1576 47.4676 30.3033C48.3678 30.449 49.2323 29.7172 49.4007 28.6681C49.5691 27.6191 48.9765 26.6542 48.0796 26.5085C47.1827 26.366 46.3149 27.0978 46.1466 28.1436Z" fill="white"/>
</g>
</svg>
