<svg width="99" height="101" viewBox="0 0 99 101" fill="none" xmlns="http://www.w3.org/2000/svg">
<path d="M74.3226 29.3647L74.424 30.5443C74.468 31.0512 74.1368 31.5142 73.6433 31.6359L71.6121 32.1395C71.095 32.2679 70.5644 31.9806 70.3887 31.477L70.1318 30.7403" fill="white"/>
<path d="M71.3585 32.6497C70.7265 32.6497 70.152 32.2543 69.9357 31.6324L69.6788 30.8957C69.5909 30.6456 69.7228 30.3718 69.9762 30.2839C70.2263 30.1961 70.5001 30.3279 70.5879 30.5813L70.8448 31.3181C70.9394 31.5885 71.22 31.7406 71.4971 31.673L73.5283 31.1694C73.7953 31.1052 73.971 30.8585 73.9474 30.5847L73.846 29.4052C73.8223 29.1416 74.0183 28.9084 74.2853 28.8847C74.5523 28.8611 74.7821 29.0571 74.8058 29.3241L74.9072 30.5036C74.9714 31.2505 74.4915 31.9231 73.7615 32.1022L71.7303 32.6058C71.6052 32.6328 71.4802 32.6497 71.3585 32.6497Z" fill="#371B45"/>
<path d="M1.65949 38.3648C1.81158 38.5507 2.04139 38.6758 2.32867 38.669C5.67455 38.6183 11.0584 38.8143 16.0096 40.2236C26.6455 43.2485 34.2532 35.8774 30.7924 27.3065C29.7447 24.7109 28.0987 22.7946 26.125 21.6793C21.7179 19.175 15.6953 20.6654 11.1699 27.4586C7.95246 32.2882 4.27536 35.3907 1.82509 37.1143C1.37222 37.432 1.36884 38.01 1.65949 38.3648Z" fill="#FF8138"/>
<path d="M20.785 41.5113C19.2067 41.5113 17.5472 41.2748 15.8473 40.7915C11.0583 39.4294 5.85692 39.2064 2.33867 39.2571C1.68977 39.2605 1.14226 38.8752 0.942861 38.2567C0.74346 37.6416 0.95638 36.9995 1.48699 36.6277C3.94402 34.9041 7.53324 31.8556 10.6797 27.1274C13.9986 22.1457 18.4057 19.5468 22.779 19.9963C26.5541 20.3816 29.6735 22.967 31.3363 27.0835C32.9349 31.0445 32.3739 34.9615 29.7952 37.8309C27.6288 40.2439 24.4317 41.5113 20.785 41.5113ZM3.26132 38.0776C6.80999 38.0776 11.6565 38.3784 16.1717 39.6626C21.3595 41.1396 26.1249 40.1595 28.9233 37.0501C31.191 34.5289 31.6743 31.058 30.2481 27.5296C28.7543 23.8322 25.9897 21.5137 22.6607 21.1724C18.7369 20.7702 14.7286 23.1799 11.6598 27.7864C8.40858 32.6633 4.70107 35.8132 2.16293 37.5977C2.02098 37.6957 2.03788 37.8309 2.06154 37.9018C2.08519 37.9728 2.14603 38.0877 2.31501 38.0877C2.31839 38.0877 2.31839 38.0877 2.32177 38.0877C2.62256 38.0776 2.93687 38.0776 3.26132 38.0776Z" fill="#090069"/>
<path d="M27.0476 28.7055C25.4017 24.3389 20.2984 23.5819 16.6585 28.5771C15.1511 30.6454 13.4951 32.0784 12.2142 32.9943C11.6599 33.3897 11.9607 34.2583 12.6637 34.2786C14.4177 34.336 16.797 34.549 18.9938 35.208C24.5669 36.8809 28.7273 33.1599 27.0476 28.7055Z" fill="#FFF647"/>
<path d="M25.9221 29.2464C25.1245 27.1341 22.6573 26.7691 20.8999 29.1855C20.1699 30.1859 19.3689 30.8788 18.7538 31.3215C18.4868 31.5141 18.6321 31.9332 18.9701 31.9434C19.8184 31.9704 20.9675 32.0752 22.0287 32.3928C24.7257 33.1972 26.7366 31.3992 25.9221 29.2464Z" fill="white"/>
<path d="M27.1827 25.0625L28.5819 29.7771L29.5586 33.0655C30.1872 35.1745 32.3131 36.4655 34.4727 36.0464L36.5072 35.651L38.5283 35.259L35.8482 27.3606L32.9687 18.8945L31.4614 19.3339L30.0858 19.7361C27.8079 20.4052 26.5068 22.7913 27.1827 25.0625Z" fill="white"/>
<path d="M33.648 36.6884C31.5425 36.6884 29.6431 35.3163 29.0212 33.2243L26.6419 25.2246C26.2735 23.9808 26.4087 22.6695 27.0306 21.5272C27.6524 20.3882 28.6799 19.5602 29.9236 19.1952L32.8098 18.3503C33.1005 18.2658 33.4047 18.4246 33.5027 18.7119L39.0656 35.0696C39.1197 35.225 39.1028 35.394 39.0183 35.536C38.9372 35.6779 38.7986 35.7759 38.6364 35.8063L34.5808 36.5938C34.2699 36.658 33.9556 36.6884 33.648 36.6884ZM32.6071 19.5906L30.2413 20.2835C29.2882 20.564 28.4974 21.196 28.0242 22.0713C27.5477 22.9433 27.4429 23.9504 27.7268 24.9035L30.1027 32.8998C30.6502 34.7384 32.482 35.8537 34.3679 35.4853L37.7881 34.8229L32.6071 19.5906Z" fill="#090069"/>
<path d="M22.2789 13.7236C23.6578 13.6324 25.1786 13.7033 26.5879 14.1359C30.3631 15.2918 33.1344 19.3812 33.1344 19.3812L40.7995 12.8415C40.7995 12.8415 39.1469 11.466 36.2978 10.5163C32.908 9.38748 27.8215 8.86025 21.7989 11.9628C21.5083 12.1115 21.3528 12.3515 21.3055 12.6083C21.2041 13.1524 21.5928 13.7675 22.2789 13.7236Z" fill="#FF4747"/>
<g opacity="0.6">
<path d="M21.2886 12.757C28.0648 10.4386 33.9556 10.8103 38.0721 11.7127C38.6939 11.8479 39.2719 11.9966 39.8126 12.1521C39.0454 11.6721 37.849 11.0334 36.3011 10.5163C32.9113 9.38748 27.8249 8.86025 21.8023 11.9628C21.5116 12.1115 21.3562 12.3515 21.3089 12.6083C21.292 12.659 21.2886 12.7063 21.2886 12.757Z" fill="white"/>
</g>
<g opacity="0.2">
<path d="M22.279 13.7234C23.6579 13.6322 25.1787 13.7032 26.5881 14.1358C30.3632 15.2916 33.1345 19.381 33.1345 19.381L40.7996 12.8413C40.7996 12.8413 39.147 11.4658 36.2979 10.5161C35.5003 10.8135 34.8311 11.2258 34.2397 11.7666C33.0906 12.8109 31.5292 13.2841 30.0151 12.9393C29.0113 12.7095 27.7878 12.5203 26.4765 12.5067C24.1614 12.4865 22.4513 12.7704 21.3022 12.6115C21.2042 13.1523 21.5929 13.7674 22.279 13.7234Z" fill="#090069"/>
</g>
<path d="M32.2523 47.8483C32.3875 48.2674 32.7897 48.5986 33.3305 48.5107C46.1462 46.4627 48.7215 36.0566 48.7215 36.0566L38.2614 35.2996C38.2614 35.2996 38.3358 37.2767 37.8119 39.5647C37.4875 40.9639 36.94 42.4848 36.0106 43.7352C35.0947 44.9655 33.8645 45.9625 32.6512 46.7364C32.2287 47.0102 32.1273 47.4664 32.2523 47.8483Z" fill="#FF4747"/>
<g opacity="0.2">
<path d="M32.2522 47.8481C32.3874 48.2672 32.7896 48.5984 33.3303 48.5105C46.1461 46.4624 48.7214 36.0564 48.7214 36.0564L38.2613 35.2993C38.2613 35.2993 38.3356 37.2764 37.8118 39.5645C38.1159 39.7132 38.4573 39.8551 38.8358 39.9836C40.11 40.4094 40.6203 41.9404 39.8497 43.0388C38.6939 44.6847 36.4768 46.7057 32.2522 47.8481Z" fill="#090069"/>
</g>
<path d="M33.1343 19.9454C33.1106 19.9454 33.0836 19.9454 33.0599 19.9386C32.9011 19.9184 32.7591 19.8305 32.6679 19.6953C32.6408 19.6547 29.9574 15.7546 26.4222 14.6731C25.2495 14.3149 23.8672 14.183 22.3159 14.2844C21.5927 14.3317 20.9742 13.8924 20.7815 13.1928C20.5855 12.4898 20.8931 11.7936 21.5386 11.459C27.4294 8.42406 32.4414 8.83638 35.6082 9.71172C39.0521 10.6648 41.0799 12.331 41.1644 12.402C41.2928 12.5101 41.3672 12.6656 41.3672 12.8345C41.3672 13.0002 41.2962 13.159 41.1678 13.2671L33.4993 19.8102C33.3979 19.8981 33.2661 19.9454 33.1343 19.9454ZM23.3028 13.1218C24.5702 13.1218 25.726 13.2807 26.7501 13.595C29.8965 14.5582 32.3299 17.387 33.2289 18.5564L39.8869 12.8751C39.0927 12.3445 37.4805 11.3982 35.2533 10.7898C30.9442 9.61033 26.5033 10.1747 22.0557 12.4662C21.809 12.5946 21.8495 12.8244 21.8698 12.8954C21.8934 12.9799 21.9813 13.1759 22.2416 13.159C22.6032 13.1353 22.958 13.1218 23.3028 13.1218Z" fill="#090069"/>
<path d="M33.1614 49.1122C32.5193 49.1122 31.9583 48.7303 31.7183 48.1051C31.4479 47.3987 31.698 46.6518 32.3334 46.2428C33.6954 45.3709 34.7735 44.4077 35.534 43.3836C37.8355 40.2878 37.6733 35.3704 37.6733 35.3231C37.6666 35.1575 37.7308 34.9953 37.8524 34.877C37.9741 34.7621 38.1363 34.7012 38.3019 34.7147L48.7621 35.4684C48.9344 35.4819 49.0933 35.5698 49.1947 35.7084C49.296 35.8503 49.3298 36.0261 49.2893 36.1951C49.2622 36.3066 48.5897 38.9529 46.2915 41.8763C44.1792 44.5665 40.2284 48.0003 33.4217 49.0885C33.3372 49.1054 33.2459 49.1122 33.1614 49.1122ZM38.8494 35.9348C38.8156 37.4692 38.5216 41.3389 36.4769 44.0866C35.6286 45.2256 34.4491 46.2834 32.9654 47.2331C32.7322 47.3818 32.7829 47.5981 32.8167 47.686C32.8437 47.7536 32.9519 47.9732 33.2358 47.9293C38.3797 47.108 42.4488 44.8403 45.3351 41.1936C46.8255 39.3111 47.5961 37.5233 47.934 36.5871L38.8494 35.9348Z" fill="#090069"/>
<path d="M31.6507 21.5237L33.763 28.0532L35.7401 34.1738C35.9159 34.7146 36.1761 35.2114 36.5141 35.6474C36.6087 35.7724 36.7101 35.8941 36.8182 36.009C37.6361 36.8877 38.7649 37.4555 40.012 37.5569C47.8326 38.1889 68.0567 38.466 84.0865 26.9312H84.0899C89.1864 23.2608 93.8605 18.4009 97.5748 11.9727C99.1599 9.23179 97.8553 5.73381 94.8778 4.66921C90.8323 3.22271 84.7422 1.49907 77.4995 0.897489C64.5823 -0.173871 48.0185 2.33385 32.9654 16.4305C32.1306 17.2146 31.6102 18.2454 31.4615 19.337C31.3601 20.0569 31.4175 20.8038 31.6507 21.5237Z" fill="white"/>
<path d="M84.0831 26.9312H84.0865C89.1831 23.2608 93.8572 18.4008 97.5715 11.9727C99.1565 9.23176 97.852 5.73379 94.8745 4.66919C90.8324 3.22268 84.7422 1.49904 77.4995 0.897461C77.4995 0.897461 87.2296 14.3554 84.0831 26.9312Z" fill="#FF4747"/>
<g opacity="0.4">
<path d="M77.4995 0.897461C77.4995 0.897461 78.0808 1.7052 78.919 3.10777C85.996 3.73639 91.951 5.42624 95.9222 6.8457C96.8245 7.17015 97.5782 7.71766 98.1392 8.40036C97.7878 6.74769 96.6184 5.29105 94.8745 4.66919C90.8324 3.22268 84.7422 1.49904 77.4995 0.897461Z" fill="white"/>
</g>
<g opacity="0.2">
<path d="M28.5819 29.7768L29.5586 33.0653C30.1873 35.1742 32.3131 36.4652 34.4727 36.0462L36.5073 35.6507C36.6019 35.7758 36.7033 35.8974 36.8114 36.0124C37.3758 35.8366 37.9335 35.6338 38.4709 35.4074C38.8122 35.6744 39.2279 35.867 39.7619 35.9684C47.7109 37.4453 81.2171 37.0499 97.3956 11.2765C98.2 9.99218 98.2203 8.5085 97.693 7.25464C94.1038 12.1315 89.9265 16.0351 85.4485 19.1613C85.4451 19.1613 85.4451 19.1613 85.4451 19.1613C83.1705 20.7497 80.8217 22.132 78.4322 23.3419C77.6921 23.7171 76.881 23.0006 77.1581 22.2199C77.4082 21.5135 77.5704 20.7632 77.6346 19.9825C78.0503 14.9637 74.2211 10.5701 69.1449 10.347C64.5113 10.1443 60.4456 13.6084 59.9149 18.2149C59.5736 21.1553 60.6957 23.903 62.6897 25.7618C63.8692 26.8602 63.2575 28.5061 61.7907 29.1719C57.4343 31.1422 51.6111 31.9567 46.6835 32.2677C44.8213 32.386 43.2734 30.7907 43.4998 28.9387C43.7905 26.5526 42.8915 25.0318 42.8915 25.0318L35.8482 27.3604L33.763 28.0532L28.5819 29.7768Z" fill="#090069"/>
</g>
<path d="M75.2662 23.0378C78.7439 19.56 78.7439 13.9214 75.2662 10.4437C71.7884 6.9659 66.1498 6.9659 62.6721 10.4437C59.1943 13.9214 59.1943 19.56 62.6721 23.0378C66.1498 26.5155 71.7884 26.5155 75.2662 23.0378Z" fill="#39A1FF"/>
<g opacity="0.2">
<path d="M60.0941 16.0047C59.6885 20.9087 63.3318 25.211 68.2323 25.6166C73.1363 26.0221 77.4386 22.3788 77.8442 17.4749C78.0774 14.6562 76.9722 12.037 75.0593 10.239C76.3605 11.8274 77.0736 13.9397 76.8843 16.194C76.5126 20.6755 72.7273 24.0213 68.4317 23.6665C64.1362 23.3116 60.9525 19.3878 61.3243 14.9063C61.5203 12.527 62.6795 10.4688 64.3626 9.11694C62.0036 10.5432 60.3374 13.0441 60.0941 16.0047Z" fill="#090069"/>
</g>
<path d="M46.2746 38.3681C43.7466 38.3681 41.5971 38.2532 39.9613 38.1214C37.751 37.9423 35.882 36.462 35.1993 34.3497L31.1099 21.6996C30.461 19.692 31.0356 17.4614 32.5767 16.0217C39.5186 9.52255 47.3561 4.95322 55.8729 2.43536C62.7133 0.414308 70.0033 -0.292046 77.5468 0.333195C84.9584 0.948298 91.1635 2.73953 95.0637 4.13534C96.6488 4.70313 97.8891 5.93333 98.467 7.50826C99.0416 9.07644 98.8929 10.8068 98.0581 12.2533C94.5669 18.2928 89.9773 23.3826 84.4143 27.3876C84.4042 27.3943 84.3974 27.4011 84.3873 27.4078C71.5512 36.631 56.0858 38.3681 46.2746 38.3681ZM32.188 21.3514L36.2775 34.0016C36.8182 35.6779 38.3019 36.8507 40.056 36.9926C47.9171 37.628 67.9113 37.8713 83.7519 26.4717C83.762 26.4649 83.7722 26.4581 83.7789 26.4514C89.1999 22.5445 93.6746 17.5763 97.078 11.6855C97.7471 10.5297 97.8654 9.15079 97.4058 7.89693C96.9428 6.63292 95.9492 5.64944 94.6818 5.19656C90.8458 3.82441 84.7421 2.06359 77.4521 1.45863C60.5841 0.0594411 45.7473 5.23712 33.3507 16.8429C32.1306 17.9887 31.6743 19.7562 32.188 21.3514Z" fill="#090069"/>
<path d="M84.0798 27.4957C84.0629 27.4957 84.046 27.4957 84.0291 27.4923C83.8635 27.4788 83.7148 27.391 83.6201 27.2558C83.5255 27.1206 83.4917 26.9516 83.5323 26.7927C86.5807 14.6124 77.1379 1.36064 77.0433 1.22883C76.9148 1.0497 76.9013 0.813127 77.0095 0.620485C77.1176 0.427843 77.3305 0.316314 77.5468 0.336592C84.9585 0.951694 91.1636 2.74293 95.0604 4.13874C96.6454 4.70652 97.8858 5.93673 98.4637 7.51166C99.0382 9.07983 98.8895 10.8102 98.0548 12.2567C94.5669 18.2928 89.9773 23.3826 84.4144 27.3876C84.3197 27.4585 84.2014 27.4957 84.0798 27.4957ZM78.6351 1.57018C79.5104 2.92881 81.0854 5.57172 82.4947 8.98182C84.2488 13.2233 86.013 19.4183 84.9416 25.5862C89.8421 21.8212 93.9214 17.1505 97.078 11.6889C97.7438 10.5331 97.8655 9.15418 97.4059 7.90032C96.9428 6.63632 95.9492 5.65283 94.6818 5.19996C91.0554 3.90216 85.4012 2.25625 78.6351 1.57018Z" fill="#090069"/>
<path d="M68.9759 26.2114C68.7157 26.2114 68.4521 26.2013 68.1851 26.1776C62.9804 25.745 59.0971 21.1621 59.5263 15.9541C59.7359 13.4328 60.912 11.1448 62.8452 9.509C64.775 7.87324 67.2286 7.08915 69.7499 7.29869C74.9546 7.73129 78.8378 12.3141 78.4086 17.5222C77.9997 22.4633 73.846 26.2114 68.9759 26.2114ZM68.9556 8.39709C66.9853 8.39709 65.0994 9.08654 63.5786 10.3742C61.8786 11.8139 60.841 13.8316 60.6551 16.0521C60.2766 20.6349 63.6968 24.6736 68.2797 25.0555C68.5129 25.0758 68.7461 25.086 68.9759 25.086C73.2647 25.086 76.9215 21.784 77.2832 17.4344C77.6617 12.8515 74.2415 8.81279 69.6586 8.43088C69.422 8.40723 69.1888 8.39709 68.9556 8.39709Z" fill="#090069"/>
<path d="M72.9218 20.6934C75.1048 18.5104 75.1048 14.971 72.9218 12.788C70.7388 10.605 67.1994 10.605 65.0164 12.788C62.8334 14.971 62.8334 18.5104 65.0164 20.6934C67.1994 22.8764 70.7388 22.8764 72.9218 20.6934Z" fill="#65DCFC"/>
<g opacity="0.2">
<path d="M63.9808 19.2661C63.9774 19.0667 63.9808 18.8639 63.9977 18.6611C64.2546 15.5822 66.9549 13.2942 70.0304 13.5511C72.038 13.7167 73.7075 14.9232 74.5558 16.5961C74.4882 13.7775 72.3016 11.405 69.4289 11.1684C66.3533 10.9149 63.653 13.1996 63.3961 16.2785C63.3083 17.3498 63.5279 18.3739 63.9808 19.2661Z" fill="#090069"/>
</g>
<path d="M68.9794 22.896C68.807 22.896 68.6347 22.8892 68.4623 22.8757C65.0792 22.5952 62.5546 19.6143 62.8351 16.2312C63.1156 12.8482 66.0931 10.3235 69.4796 10.6041C71.1187 10.7392 72.6058 11.5064 73.6704 12.7603C74.7316 14.0142 75.242 15.6094 75.1068 17.2485C74.9716 18.8877 74.2044 20.3747 72.9505 21.4393C71.8251 22.389 70.4327 22.896 68.9794 22.896ZM63.9606 16.3259C63.7307 19.0871 65.7924 21.5204 68.5536 21.7502C69.8919 21.8618 71.1931 21.4427 72.2171 20.5775C73.2412 19.7089 73.8664 18.4956 73.9779 17.1573C74.0895 15.8189 73.6738 14.5177 72.8052 13.4937C71.9366 12.4696 70.7233 11.8444 69.385 11.7329C66.6204 11.503 64.187 13.5647 63.9606 16.3259Z" fill="#090069"/>
<path d="M41.1341 23.6428C37.4942 23.2643 31.4209 23.7949 25.8951 29.7398C25.307 30.3718 25.7092 31.4094 26.5677 31.4803C29.9811 31.7744 37.1596 31.7135 42.2257 26.9516C43.4221 25.8295 42.7631 23.8152 41.1341 23.6428Z" fill="#FF4747"/>
<g opacity="0.6">
<path d="M26.5677 31.4804C26.6961 31.4906 26.8313 31.5007 26.9732 31.5109C26.8211 31.1594 26.8617 30.7234 27.1659 30.3956C32.6815 24.4608 38.7447 23.9201 42.3846 24.2986C42.0872 23.9471 41.6613 23.697 41.1307 23.6396C37.4942 23.2644 31.4209 23.795 25.8951 29.7399C25.307 30.3719 25.7092 31.4095 26.5677 31.4804Z" fill="white"/>
</g>
<g opacity="0.2">
<path d="M25.6212 30.3751C25.5874 30.9023 25.966 31.4296 26.5675 31.4802C29.9844 31.7743 37.1595 31.7134 42.2256 26.9515C43.422 25.8294 42.763 23.8151 41.1306 23.6428C40.6777 23.5954 40.1877 23.5617 39.6672 23.5515C42.3101 23.7374 42.2966 25.3427 40.6676 26.1505C35.0674 28.9252 29.6295 29.8208 25.6212 30.3751Z" fill="#090069"/>
</g>
<path d="M28.9402 32.1698C28.0412 32.1698 27.2199 32.1259 26.5169 32.065C25.8917 32.0109 25.3645 31.6121 25.138 31.0275C24.9116 30.4428 25.0366 29.7939 25.4625 29.3376C31.3059 23.0548 37.8253 22.7067 41.1915 23.0582C42.1716 23.1596 42.976 23.8051 43.2903 24.7412C43.608 25.6876 43.3545 26.6981 42.6279 27.3808C38.4303 31.3249 32.9012 32.1698 28.9402 32.1698ZM39.2786 24.1363C35.5779 24.1363 30.7855 25.3462 26.3243 30.142C26.1519 30.3245 26.206 30.5306 26.2364 30.6084C26.2668 30.6895 26.3648 30.8754 26.6183 30.8956C30.2278 31.2066 37.0041 31.0545 41.8235 26.5257C42.2189 26.1573 42.3507 25.6301 42.1784 25.1198C42.0094 24.6196 41.5971 24.2884 41.0698 24.2309C40.5122 24.1701 39.9106 24.1363 39.2786 24.1363Z" fill="#090069"/>
<path d="M72.5586 17.5174C72.6411 16.5222 72.1349 15.6679 71.428 15.6093C70.7211 15.5507 70.0812 16.31 69.9987 17.3052C69.9162 18.3004 70.4224 19.1547 71.1293 19.2133C71.8362 19.2719 72.4761 18.5126 72.5586 17.5174Z" fill="white"/>
<path d="M50.9183 40.8468C49.8131 40.7387 49.0121 40.0965 48.8296 39.1671C48.5897 37.9538 49.4718 36.6898 51.1886 35.7874C51.5841 35.5779 52.0741 35.73 52.2837 36.1288C52.4932 36.5242 52.3411 37.0143 51.9423 37.2238C50.6208 37.92 50.3674 38.5959 50.4214 38.8596C50.4688 39.0961 50.7898 39.211 51.0771 39.2381C51.824 39.3124 52.3918 37.7071 52.5337 36.9669C52.598 36.6222 52.8785 36.3586 53.2266 36.3147C53.2942 36.3045 53.3618 36.3045 53.4294 36.3147C53.3989 36.2166 53.3854 36.1085 53.3956 35.997C53.4361 35.5509 53.8282 35.223 54.2743 35.2602C54.4906 35.2805 56.4069 35.4866 57.2687 36.8385C57.5898 37.3455 57.877 38.2073 57.4242 39.4544C57.0186 40.5731 56.3663 40.8333 55.8932 40.857C54.9908 40.9043 54.1459 40.0154 53.5139 39.0826C53.0238 40.0391 52.2532 40.8671 51.1447 40.8671C51.067 40.857 50.9926 40.8536 50.9183 40.8468ZM54.1087 36.8655C54.6258 37.92 55.3727 38.9643 55.758 39.1908C55.7951 39.1333 55.8425 39.0421 55.8965 38.89C56.1703 38.1363 55.9641 37.8085 55.8965 37.7037C55.5315 37.1224 54.4669 36.8993 54.1222 36.8655C54.1154 36.8689 54.1121 36.8655 54.1087 36.8655Z" fill="#EF9D26"/>
<path d="M51.1378 41.3063C51.05 41.3063 50.9621 41.303 50.8742 41.2928C49.5629 41.1644 48.6098 40.3837 48.3868 39.2515C48.1063 37.832 49.0762 36.3855 50.9756 35.3851C51.5907 35.0607 52.3545 35.3007 52.679 35.9124C52.6959 35.9428 52.7094 35.9698 52.7229 36.0002C52.7939 35.9631 52.8682 35.9293 52.946 35.9056C52.9831 35.5845 53.142 35.2973 53.3887 35.0877C53.6456 34.8714 53.9734 34.77 54.308 34.8005C54.5445 34.8207 56.6636 35.0506 57.6403 36.5849C58.0155 37.1764 58.3568 38.1768 57.8397 39.5962C57.3226 41.0157 56.4068 41.2692 55.9066 41.2928C55.1225 41.3334 54.3316 40.8602 53.5475 39.8835C52.902 40.8197 52.0808 41.3063 51.1378 41.3063ZM50.9587 40.3972C51.0195 40.404 51.0804 40.4074 51.1378 40.4074C52.1112 40.4074 52.7432 39.5692 53.1048 38.8696C53.1792 38.7276 53.3177 38.6364 53.4766 38.6263C53.6388 38.6161 53.7875 38.6905 53.8754 38.8223C54.5851 39.87 55.2847 40.4276 55.8592 40.4006C56.3527 40.3769 56.7312 40.0052 56.9914 39.2954C57.3835 38.2241 57.1469 37.4974 56.8765 37.0784C56.1195 35.8853 54.3012 35.713 54.2235 35.7062C54.1288 35.6961 54.0342 35.7265 53.9599 35.7873C53.8855 35.8482 53.8416 35.936 53.8314 36.0307C53.8281 36.078 53.8314 36.1253 53.8483 36.1726C53.8855 36.2909 53.872 36.4159 53.8179 36.5207C53.9125 36.443 54.0342 36.4058 54.1593 36.4227C54.2843 36.4362 55.7342 36.612 56.2749 37.467C56.373 37.6225 56.667 38.0889 56.3155 39.0487C56.258 39.2042 56.1972 39.3326 56.133 39.434C56.0046 39.6402 55.7342 39.7044 55.5247 39.5793C54.9873 39.2616 54.1829 38.0483 53.6996 37.0615C53.6354 36.9297 53.6388 36.7776 53.7064 36.6525C53.6118 36.7303 53.4901 36.7674 53.3684 36.7505C53.338 36.7472 53.3076 36.7472 53.2772 36.7505C53.1217 36.7708 52.9967 36.8891 52.9696 37.0412C52.9629 37.0682 52.4491 39.6841 51.1277 39.6841C51.0939 39.6841 51.0601 39.6841 51.0263 39.6807C50.4484 39.6233 50.053 39.3495 49.9752 38.9406C49.8704 38.4167 50.2794 37.5853 51.7293 36.8215C51.905 36.7303 51.9726 36.5106 51.8814 36.3348C51.7901 36.1591 51.5704 36.0915 51.3947 36.1827C49.8671 36.9871 49.0728 38.0686 49.2689 39.0791C49.4142 39.8058 50.0597 40.3127 50.9587 40.3972ZM50.8776 38.731C50.9249 38.7513 51.006 38.775 51.1176 38.7885C51.2798 38.8054 51.5772 38.3863 51.8104 37.8151C51.104 38.2444 50.9215 38.5958 50.8776 38.731ZM55.0143 37.5752C55.2103 37.8929 55.403 38.1666 55.572 38.3762C55.599 38.1937 55.5821 38.0483 55.5179 37.9436C55.4233 37.7982 55.2306 37.6732 55.0143 37.5752Z" fill="#371B45"/>
<path d="M53.2198 45.6323C53.2231 45.6323 53.2231 45.6323 53.2265 45.6323C53.6726 45.629 54.0343 45.264 54.0309 44.8145C54.0174 42.9049 54.2303 37.3183 54.2337 37.2609C54.2506 36.8147 53.9025 36.4362 53.4563 36.4193C53.0068 36.4058 52.6317 36.7505 52.6148 37.1967C52.6047 37.4265 52.3985 42.8779 52.412 44.8246C52.4154 45.2741 52.777 45.6323 53.2198 45.6323Z" fill="#EF9D26"/>
<path d="M53.2199 46.082C52.5304 46.082 51.966 45.521 51.9593 44.8315C51.9457 42.8578 52.1519 37.4131 52.162 37.1833C52.1891 36.5074 52.7501 35.9734 53.426 35.9734C53.4396 35.9734 53.4531 35.9734 53.4666 35.9734C54.1628 36.0004 54.7069 36.5885 54.6799 37.2813C54.6698 37.5145 54.4636 42.9491 54.4771 44.8146C54.4839 45.5109 53.9229 46.0786 53.2266 46.0854C53.23 46.082 53.2233 46.082 53.2199 46.082ZM53.426 36.8724C53.23 36.8724 53.0712 37.0211 53.0644 37.2171C53.061 37.2746 52.8481 42.8713 52.8616 44.8248C52.8616 45.0208 53.0239 45.183 53.2199 45.183H53.2266C53.4227 45.183 53.5815 45.0174 53.5815 44.8214C53.568 42.9355 53.7741 37.4807 53.7843 37.2509C53.791 37.0515 53.6356 36.8825 53.4396 36.8758C53.4328 36.8724 53.4294 36.8724 53.426 36.8724Z" fill="#371B45"/>
<path d="M59.942 83.6641C59.942 83.6641 60.939 84.2893 62.3112 84.9551C64.704 86.1143 68.2459 87.3919 69.6451 85.6851C71.8486 83.0016 74.0556 73.0248 73.9643 71.2877C73.9576 71.1897 73.9373 71.0883 73.9001 70.9869C73.285 69.297 68.5196 67.2422 68.5196 67.2422H66.3161L64.4269 68.9895L59.942 83.6641Z" fill="white"/>
<path d="M67.5192 86.9659C64.4741 86.9659 60.307 84.421 59.7054 84.0425C59.533 83.9343 59.4553 83.7248 59.5127 83.5288L63.9976 68.8542C64.0212 68.7765 64.0652 68.7089 64.1226 68.6548L66.0119 66.9075L66.6236 67.5699L64.8222 69.2361L60.476 83.4612C62.6694 84.7792 67.7727 87.2599 69.3003 85.3977C71.4126 82.8258 73.6026 72.9537 73.5181 71.3078C73.4675 70.3007 70.4595 68.5635 68.3439 67.651L68.6987 66.823C69.6349 67.2286 74.3158 69.3409 74.4138 71.2605C74.5084 73.0619 72.3285 83.1198 69.9931 85.9655C69.4017 86.6888 68.523 86.9659 67.5192 86.9659Z" fill="#371B45"/>
<path d="M39.0995 85.3032C39.1265 85.435 39.1637 85.5702 39.2043 85.7155C39.8768 88.034 42.1277 91.9037 43.1653 92.6675C44.1994 93.4347 46.6768 92.7149 47.8225 91.701C48.4612 91.1366 49.6847 90.3051 50.6411 89.6799C50.6411 89.6765 50.6411 89.6765 50.6411 89.6765L50.6445 89.6731C51.4016 89.1797 51.9862 88.8147 51.9862 88.8147C51.9862 88.8147 52.0133 88.9093 52.064 89.0716C52.3174 89.8489 53.1421 92.2012 54.3453 93.6308C54.3453 93.6308 53.2773 94.4047 52.6825 95.5538C52.2465 96.3987 52.0673 97.4464 52.7534 98.5414C53.1455 99.1667 53.8214 99.5587 54.5582 99.6263C55.5383 99.7142 57.1031 99.6669 58.6882 98.8726C61.2973 97.5681 63.4366 95.3409 63.5481 94.4182C63.663 93.4956 60.7802 87.3986 60.7802 87.3986L60.7565 85.9352C60.7565 85.9352 60.7903 85.9183 60.8511 85.8879C60.8816 85.8744 60.9086 85.8575 60.939 85.844C60.9762 85.8237 61.0201 85.8 61.0674 85.773C61.3513 85.6142 61.8042 85.3336 62.3112 84.9281C63.3183 84.117 64.5316 82.8023 65.0251 80.9198C65.0386 80.8691 65.0555 80.8184 65.0656 80.7677C65.1231 80.521 65.1704 80.2641 65.2008 80.0005C65.2076 79.9329 65.2143 79.8653 65.2211 79.7977C65.2245 79.7842 65.2245 79.7707 65.2245 79.7572C65.2312 79.7031 65.2346 79.649 65.238 79.5916L65.3461 79.5645C65.3833 79.5544 65.4205 79.5409 65.4543 79.524C65.5692 79.4665 65.6604 79.3753 65.7145 79.2603C65.7382 79.2096 65.7551 79.1522 65.7618 79.0914L65.9916 77.1852C66.0085 77.0399 65.9714 76.9013 65.8869 76.7898L65.8801 76.7797C65.8159 76.6952 65.728 76.6276 65.6233 76.5904C65.6233 76.5904 65.6402 76.5498 65.6672 76.4755C65.6706 76.4721 65.6706 76.4687 65.6706 76.4653C65.6706 76.462 65.6706 76.462 65.674 76.4586C65.9038 75.8604 66.8129 73.2715 66.8129 70.2738C66.8129 69.1483 66.6845 67.9654 66.3431 66.8096L58.0325 54.538L49.8773 52.5879L47.1094 54.538C47.1094 54.538 47.5014 59.4858 48.6708 63.5989C45.5648 67.1239 43.5843 75.7218 46.9843 80.9874L45.0004 82.6299C45.0004 82.6299 43.0673 79.8619 39.6234 82.6299C39.6301 82.6333 38.6568 83.3058 39.0995 85.3032Z" fill="white"/>
<path d="M55.2815 100.113C55.0044 100.113 54.7475 100.099 54.5177 100.079C53.6322 100.001 52.8312 99.518 52.3716 98.7846C51.0535 96.6791 52.5135 94.5972 53.7133 93.563C52.7298 92.2314 52.0404 90.4199 51.7294 89.5108C50.8338 90.0785 48.948 91.3054 48.1166 92.0388C46.9134 93.1034 44.1894 93.9888 42.895 93.0324C41.7323 92.1739 39.4612 88.2096 38.7717 85.8438C38.0586 83.3969 39.1739 82.4202 39.353 82.2816C40.6306 81.2576 41.8709 80.8216 43.047 80.9906C44.0136 81.1291 44.6929 81.6496 45.0579 82.0112L46.4031 80.8959C44.9599 78.4457 44.4462 75.1606 44.9498 71.5849C45.3925 68.4418 46.6227 65.3731 48.1808 63.4973C47.0621 59.4383 46.6734 54.6324 46.6701 54.5817C46.6498 54.335 46.8357 54.1187 47.0824 54.0984C47.3291 54.0782 47.5454 54.264 47.5657 54.5108C47.5691 54.5615 47.9679 59.462 49.1102 63.4838C49.1507 63.6325 49.1169 63.788 49.0156 63.9029C46.1394 67.1677 44.017 75.5527 47.3697 80.7472C47.4947 80.9399 47.4541 81.1934 47.2784 81.3387L45.2979 82.9812C45.1999 83.0623 45.0748 83.0995 44.9498 83.0792C44.8248 83.0623 44.7132 82.9947 44.6422 82.89C44.6389 82.8832 44.0136 82.0281 42.9085 81.8761C41.9926 81.751 40.9854 82.1228 39.9175 82.9846C39.9107 82.9913 39.9006 82.9981 39.8904 83.0049C39.8634 83.0251 39.0759 83.6571 39.6369 85.5937C40.3095 87.9054 42.5063 91.6264 43.4323 92.3091C44.2502 92.9107 46.5011 92.2686 47.5251 91.3662C48.6877 90.3388 51.6247 88.5171 51.7497 88.4394C51.868 88.365 52.0167 88.3515 52.1485 88.4022C52.2803 88.4529 52.3783 88.5611 52.4189 88.6963C52.429 88.7267 53.3111 91.7109 54.6934 93.3467C54.7745 93.4413 54.8117 93.5664 54.7948 93.6914C54.7813 93.8165 54.7137 93.928 54.6123 94.0024C54.4974 94.0868 51.7666 96.1147 53.1388 98.3115C53.4463 98.8049 53.9938 99.1327 54.6022 99.1868C55.562 99.2713 57.0186 99.2172 58.4922 98.4804C61.0675 97.1928 63.0243 95.0467 63.1088 94.3741C63.146 93.8334 61.7536 90.5044 60.3814 87.6012C60.3544 87.5438 60.3409 87.4796 60.3375 87.4153L60.3138 85.9519C60.3105 85.7728 60.4152 85.6106 60.5774 85.5362C60.618 85.5194 64.5452 83.6504 64.7953 79.5711C64.8088 79.3751 64.944 79.2095 65.1366 79.1622L65.2448 79.1351C65.2887 79.125 65.3191 79.0878 65.3259 79.0439L65.5557 77.1377C65.5625 77.087 65.5321 77.0397 65.4848 77.0228C65.3698 76.9823 65.2752 76.8944 65.2245 76.7829C65.1738 76.6713 65.1738 76.5429 65.2178 76.428C65.238 76.3773 67.2388 71.4126 65.9207 66.9446C65.8498 66.7047 65.9883 66.4546 66.2249 66.387C66.4649 66.316 66.715 66.4546 66.7826 66.6911C68.0026 70.8245 66.6271 75.191 66.1776 76.4314C66.377 76.6443 66.4818 76.9383 66.4446 77.2459L66.2148 79.152C66.1742 79.49 65.9613 79.7806 65.6673 79.9327C65.282 83.7484 62.1659 85.7086 61.2196 86.2189L61.2365 87.3038C61.9699 88.8585 64.1194 93.5258 64.0011 94.4823C63.8524 95.7159 61.3683 98.0478 58.8944 99.2848C57.5831 99.9337 56.2954 100.113 55.2815 100.113Z" fill="#371B45"/>
<path d="M49.3365 68.2358L47.0992 67.7661C46.3185 67.6004 45.5479 68.0804 45.3451 68.8509L44.3109 72.7916C44.1149 73.5352 44.5171 74.3057 45.2404 74.5727L52.5945 77.2934C53.2772 77.5469 54.0444 77.2731 54.4061 76.6411C54.6866 76.1578 55.0516 75.465 55.5078 74.495" fill="white"/>
<path d="M54.7305 73.7008C56.5961 74.3903 58.6037 74.8533 60.6044 74.6911C60.9255 74.6843 61.3885 74.5965 61.7062 74.5525C61.8853 74.5086 62.3517 74.4072 62.5275 74.3599C62.7877 74.272 63.0784 74.1808 63.3454 74.103C63.1189 74.2585 62.8519 74.4309 62.6187 74.5796C60.0873 75.9585 56.853 75.8436 54.3216 74.5052C53.8349 74.2146 54.2067 73.4812 54.7305 73.7008Z" fill="#371B45"/>
<path d="M53.115 77.8408C52.8885 77.8408 52.6587 77.8003 52.4357 77.7192L45.0815 74.9985C44.1385 74.6504 43.6181 73.6534 43.8749 72.68L44.9091 68.7393C45.1727 67.7356 46.1765 67.1137 47.1904 67.33L49.4277 67.7998C49.6711 67.8505 49.8265 68.0904 49.7758 68.3338C49.7252 68.5771 49.4852 68.7326 49.2419 68.6819L47.0045 68.2121C46.4604 68.0972 45.9196 68.4318 45.7777 68.9692L44.7435 72.9099C44.6049 73.4337 44.8855 73.9677 45.3924 74.157L52.7466 76.8776C53.2265 77.0534 53.7605 76.8641 54.014 76.4247C54.3384 75.8603 54.7034 75.1506 55.0955 74.3124C55.2002 74.086 55.4672 73.9914 55.6937 74.0961C55.9201 74.2009 56.0147 74.4713 55.91 74.6943C55.5078 75.5528 55.1293 76.2862 54.7913 76.8742C54.4364 77.486 53.7909 77.8408 53.115 77.8408Z" fill="#371B45"/>
<path d="M47.3256 75.5798C47.2614 75.5798 47.1972 75.5663 47.1363 75.5359C46.9099 75.4311 46.8153 75.1641 46.92 74.9377L47.8495 72.9504C47.9069 72.8288 48.0117 72.7409 48.1401 72.7071L50.1003 72.1866L50.4755 71.1355C50.56 70.9023 50.8168 70.7807 51.05 70.8618C51.2832 70.9463 51.4083 71.2031 51.3238 71.4363L50.8709 72.7105C50.8202 72.849 50.7053 72.9572 50.5633 72.9944L48.5761 73.5216L47.7345 75.3196C47.6568 75.4852 47.4946 75.5798 47.3256 75.5798Z" fill="#371B45"/>
<path d="M48.2326 71.0714C48.4479 70.2886 48.0651 69.5006 47.3776 69.3115C46.6901 69.1224 45.9582 69.6038 45.7429 70.3867C45.5276 71.1695 45.9104 71.9575 46.5979 72.1466C47.2853 72.3357 48.0172 71.8543 48.2326 71.0714Z" fill="#3BA1DA"/>
<path d="M46.8997 72.4635C46.7747 72.4635 46.6496 72.4466 46.528 72.4128C45.7 72.183 45.2302 71.2468 45.4837 70.3208C45.7371 69.3948 46.6192 68.8304 47.4506 69.0568C48.2787 69.2866 48.7484 70.2228 48.4949 71.1488C48.2786 71.9363 47.6061 72.4635 46.8997 72.4635ZM47.0755 69.5469C46.6091 69.5469 46.1562 69.9186 46.0075 70.4661C45.8318 71.1049 46.1292 71.7436 46.6733 71.8924C47.2174 72.0411 47.7987 71.6423 47.9745 71.0069C48.1502 70.3681 47.8528 69.7294 47.3087 69.5807C47.2309 69.557 47.1532 69.5469 47.0755 69.5469Z" fill="#371B45"/>
<path d="M65.5657 77.0396C65.39 77.016 61.2465 76.4583 59.1714 75.539L59.5364 74.7178C61.4932 75.5864 65.6435 76.144 65.684 76.1474L65.5657 77.0396Z" fill="#371B45"/>
<path d="M65.238 80.0445C65.2244 80.0445 65.2075 80.0445 65.1906 80.0411C64.9068 80.0141 58.2251 79.3077 54.3892 76.5702C54.1864 76.4248 54.1391 76.1443 54.2844 75.9415C54.4297 75.7388 54.7102 75.6915 54.913 75.8368C58.5563 78.4358 65.2177 79.1387 65.2853 79.1455C65.532 79.1691 65.7111 79.3922 65.6875 79.6389C65.6604 79.8721 65.4644 80.0445 65.238 80.0445Z" fill="#371B45"/>
<path d="M51.9052 89.3148C51.7666 89.3148 51.6314 89.254 51.5435 89.1323C51.3982 88.9329 51.4354 88.6558 51.6314 88.5071C51.7193 88.4395 52.5608 87.8413 54.957 87.385C57.2451 86.949 60.547 85.5363 60.5774 85.5228C60.8073 85.4248 61.0709 85.5296 61.1689 85.7594C61.2669 85.9892 61.1621 86.2528 60.9323 86.3508C60.7937 86.4117 57.5087 87.8142 55.1226 88.2705C52.936 88.6862 52.1755 89.2235 52.1654 89.2303C52.0911 89.2878 51.9998 89.3148 51.9052 89.3148Z" fill="#371B45"/>
<path d="M53.9463 90.7173C53.4563 90.7173 52.9426 90.6869 52.4018 90.6227C52.1551 90.5923 51.9794 90.3692 52.0064 90.1225C52.0368 89.8758 52.2565 89.6967 52.5066 89.7271C57.9175 90.3659 60.3204 87.2633 60.4184 87.1315C60.5671 86.9321 60.8477 86.8915 61.0471 87.0403C61.2465 87.189 61.287 87.4695 61.1383 87.6689C61.0403 87.8074 58.8198 90.7173 53.9463 90.7173Z" fill="#371B45"/>
<path d="M54.5819 93.2522C55.1767 93.7017 55.9473 93.8808 56.6908 93.9383C56.9578 93.9585 57.2282 93.9484 57.4985 93.9383C57.3701 93.9788 57.2417 94.0261 57.1099 94.0633C56.0216 94.3709 54.7711 94.4215 53.7538 93.8436C53.4666 93.7017 53.3517 93.357 53.4936 93.0697C53.7403 92.556 54.5177 92.6945 54.5819 93.2522Z" fill="#371B45"/>
<path d="M51.3171 89.6899C51.2934 89.6899 51.2698 89.6865 51.2461 89.6831C50.9994 89.6459 50.8338 89.4161 50.871 89.1694C51.2292 86.8644 49.1473 82.9271 46.7444 81.3623C46.5348 81.2271 46.4774 80.9466 46.6126 80.7405C46.7477 80.5309 47.0249 80.4735 47.2344 80.6087C49.928 82.3627 52.1688 86.6684 51.7598 89.308C51.726 89.531 51.5334 89.6899 51.3171 89.6899Z" fill="#371B45"/>
<path d="M44.747 93.4178C44.5679 93.4178 44.3955 93.3097 44.328 93.1305C44.2367 92.9007 44.3516 92.6371 44.5848 92.5459C45.0242 92.3735 45.2945 92.0355 45.4128 91.5083C45.8454 89.5481 44.0103 85.8845 42.5638 84.3738C40.8334 82.569 39.7012 83.2078 39.6538 83.2348C39.4443 83.3599 39.1672 83.2957 39.0387 83.0861C38.9103 82.8766 38.9678 82.6062 39.1739 82.4744C39.2449 82.4271 40.9449 81.3794 43.2127 83.7519C44.8146 85.4249 46.812 89.3521 46.2915 91.7043C46.1124 92.5222 45.6359 93.1035 44.9126 93.3874C44.8586 93.4077 44.8011 93.4178 44.747 93.4178Z" fill="#371B45"/>
<path d="M39.5254 85.5804C39.353 85.5804 39.1874 85.479 39.1131 85.31C39.0151 85.0836 39.1164 84.8166 39.3463 84.7185L42.1379 83.5019C42.3643 83.4038 42.6313 83.5052 42.7293 83.7351C42.8273 83.9615 42.7259 84.2285 42.4961 84.3265L39.7045 85.5432C39.6471 85.5669 39.5862 85.5804 39.5254 85.5804Z" fill="#371B45"/>
<path d="M40.0965 87.6959C39.9208 87.6959 39.7518 87.5911 39.6808 87.4154C39.5862 87.1856 39.6977 86.9219 39.9275 86.8273L43.7364 85.2659C43.9663 85.1713 44.2299 85.2828 44.3245 85.5126C44.4191 85.7424 44.3076 86.0061 44.0778 86.1007L40.2689 87.6621C40.2081 87.6824 40.1506 87.6959 40.0965 87.6959Z" fill="#371B45"/>
<path d="M41.2051 89.8861C41.0361 89.8861 40.8739 89.7915 40.7995 89.6293C40.6947 89.4062 40.7894 89.1358 41.0124 89.031L44.9126 87.1857C45.1356 87.081 45.406 87.1756 45.5108 87.3987C45.6156 87.6217 45.5209 87.8921 45.2979 87.9969L41.3977 89.8422C41.3369 89.8726 41.2693 89.8861 41.2051 89.8861Z" fill="#371B45"/>
<path d="M42.5265 91.9544C42.3744 91.9544 42.2257 91.8767 42.1412 91.7347C42.0128 91.5218 42.0804 91.2446 42.2933 91.1162L45.3823 89.2574C45.5952 89.129 45.8724 89.1966 46.0008 89.4095C46.1292 89.6224 46.0616 89.8995 45.8487 90.028L42.7597 91.8868C42.6853 91.9341 42.6042 91.9544 42.5265 91.9544Z" fill="#371B45"/>
<path d="M45.4195 82.4505L45.9231 84.6946L44.5949 82.8155C44.213 82.1903 45.2134 81.7475 45.4195 82.4505Z" fill="#371B45"/>
<path d="M53.1149 85.6411C53.3954 85.6411 53.6658 85.4958 53.8179 85.2355C54.7473 83.6302 54.5783 75.7285 54.5039 73.3458C54.4904 72.8997 54.1153 72.5516 53.6692 72.5617C53.223 72.5753 52.8716 72.9504 52.8851 73.3965C53.0304 78.0605 52.8918 83.6032 52.4153 84.4244C52.1922 84.8131 52.3241 85.3065 52.7093 85.5296C52.8378 85.6073 52.9763 85.6411 53.1149 85.6411Z" fill="#EF9D26"/>
<path d="M53.115 86.0908C52.8953 86.0908 52.6756 86.0333 52.4864 85.9218C52.1957 85.7528 51.9862 85.4824 51.8983 85.1546C51.8104 84.8302 51.8577 84.4888 52.0267 84.1981C52.3579 83.6236 52.6046 78.8853 52.4357 73.4068C52.4154 72.7106 52.9629 72.1293 53.6557 72.109C54.3486 72.0989 54.9333 72.643 54.9535 73.3291C55.0482 76.4215 55.1698 83.796 54.2066 85.4588C53.9802 85.8508 53.5645 86.0908 53.115 86.0908ZM53.6828 73.0114C53.6794 73.0114 53.6794 73.0114 53.676 73.0114C53.4834 73.0182 53.3279 73.1838 53.3347 73.3832C53.4529 77.1819 53.4124 83.5999 52.804 84.651C52.7567 84.7355 52.7432 84.8301 52.7669 84.9248C52.7905 85.016 52.8514 85.0938 52.9359 85.1445C53.1048 85.2425 53.3313 85.1783 53.4293 85.0127C54.1187 83.8162 54.1999 77.9897 54.0545 73.3629C54.0478 73.1635 53.8855 73.0114 53.6828 73.0114Z" fill="#371B45"/>
<path d="M57.1368 67.7726C57.1368 67.7726 54.5851 69.8714 54.5277 74.1028C54.5277 74.1028 50.3436 72.3487 49.3061 68.1173C48.2685 63.886 51.3305 62.0643 52.6148 61.8379L53.169 62.1083C53.3853 62.213 53.6287 62.2266 53.8653 62.1725C54.1356 62.1116 54.5851 62.1792 55.136 62.8957C56.0587 64.0888 55.6768 65.3697 55.1597 65.8665L57.1368 67.7726Z" fill="white"/>
<path d="M54.5243 74.5524C54.4669 74.5524 54.406 74.5423 54.3486 74.5187C54.1694 74.4443 49.9415 72.626 48.8667 68.2257C48.4307 66.448 48.6437 64.8359 49.4784 63.5583C50.4248 62.1085 51.8442 61.517 52.5337 61.3987C52.6283 61.3818 52.7229 61.3953 52.8074 61.4359L53.3617 61.7063C53.5003 61.7739 53.6557 61.7603 53.7605 61.7367C54.1661 61.6454 54.7913 61.7265 55.4875 62.6222C56.4034 63.805 56.2344 65.0758 55.7613 65.8261L57.4477 67.4483C57.539 67.5362 57.5897 67.6613 57.5863 67.7897C57.5829 67.9181 57.5221 68.0364 57.4241 68.1175C57.4004 68.1378 55.0313 70.1555 54.9772 74.1063C54.9738 74.255 54.8995 74.3936 54.7744 74.4781C54.6967 74.5288 54.6122 74.5524 54.5243 74.5524ZM52.554 62.3146C51.9929 62.4566 50.9486 62.9534 50.2321 64.0518C49.5291 65.1299 49.3635 66.4615 49.7421 68.0128C50.4822 71.041 52.9629 72.7443 54.1086 73.3898C54.3486 70.3616 55.7951 68.4994 56.4879 67.7762L54.8454 66.1945C54.7575 66.11 54.7068 65.9917 54.7068 65.87C54.7068 65.7484 54.7575 65.6301 54.8454 65.5456C55.1631 65.2414 55.5889 64.2241 54.7778 63.1764C54.4702 62.781 54.1661 62.5715 53.9599 62.6188C53.605 62.6965 53.2637 62.6627 52.9697 62.5174L52.554 62.3146Z" fill="#371B45"/>
<path d="M55.1564 66.3194L53.693 65.8665L55.1564 65.417V66.3194Z" fill="#371B45"/>
<path d="M55.0786 63.3823C54.815 65.2547 52.3039 65.64 51.3575 64.0414C51.9253 64.0819 52.4289 64.1968 52.9899 64.1698C53.7639 64.1259 54.3756 63.7946 55.0786 63.3823Z" fill="#371B45"/>
<path d="M46.7747 80.6392C47.2174 80.2404 47.6974 79.9869 48.2043 79.7537C49.6947 79.071 51.3035 78.6418 52.9359 78.5303C51.415 78.9865 49.9415 79.6321 48.6166 80.5006C48.2415 80.7507 47.6838 81.1394 47.3087 81.3591C46.8389 81.6294 46.3793 81.0008 46.7747 80.6392Z" fill="#371B45"/>
<path d="M57.7453 68.2357C57.3803 68.2357 57.1471 68.2222 57.1099 68.2222C56.8632 68.2086 56.6705 67.9957 56.6874 67.749C56.701 67.5023 56.9139 67.313 57.1606 67.3232C57.1944 67.3265 60.7566 67.509 62.5579 66.316C62.7641 66.1774 63.0446 66.2349 63.1832 66.4444C63.3218 66.6506 63.2643 66.9311 63.0548 67.0697C61.4866 68.1072 58.9315 68.2357 57.7453 68.2357Z" fill="#371B45"/>
<path d="M52.5573 54.0782C52.5573 55.9843 52.9155 57.8094 53.5678 59.4823C55.7342 65.0419 61.1383 68.986 67.465 68.986C75.7013 68.986 82.3762 62.3111 82.3762 54.0782C82.3762 45.8453 75.7013 39.1704 67.465 39.1704C64.1394 39.1704 61.0639 40.262 58.5866 42.104C54.9264 44.8179 52.5573 49.1709 52.5573 54.0782Z" fill="white"/>
<g opacity="0.25">
<path d="M52.9359 57.4206C53.0948 58.1303 53.3077 58.8164 53.5679 59.4822C55.7343 65.0418 61.1384 68.9858 67.4652 68.9858C75.7015 68.9858 82.3763 62.311 82.3763 54.0781C82.3763 50.9958 81.4402 48.1332 79.8348 45.7539C80.0815 46.8253 80.21 47.9439 80.21 49.093C80.21 57.3259 73.5351 64.0008 65.2988 64.0008C60.1515 64.0008 55.616 61.3917 52.9359 57.4206Z" fill="#371B45"/>
</g>
<path d="M52.5574 54.0783C52.5574 55.9844 52.9156 57.8094 53.5679 59.4824C53.6524 59.5263 53.6963 59.55 53.6963 59.55C56.9273 66.6879 68.8069 67.9688 73.3559 64.4471L77.6177 59.1309C79.0676 45.5108 67.6375 39.4983 58.5867 42.1007C54.9265 44.8179 52.5574 49.171 52.5574 54.0783Z" fill="#371B45"/>
<path d="M52.5574 54.1118C52.5608 56.0044 52.919 57.8193 53.5679 59.4821C53.6524 59.5261 53.6963 59.5497 53.6963 59.5497C56.9273 66.6876 68.8069 67.9685 73.3559 64.4469L77.6177 59.1306C77.7461 57.914 77.7732 56.7615 77.709 55.6665C75.0019 59.4044 70.6015 61.8378 65.63 61.8378C59.9961 61.8412 55.0955 58.7183 52.5574 54.1118Z" fill="#121A27"/>
<path d="M67.4652 69.4389C64.3086 69.4389 61.277 68.4892 58.6983 66.6912C56.177 64.9371 54.2574 62.5004 53.1489 59.6479C52.4594 57.8736 52.1079 55.9978 52.1079 54.0782C52.1079 49.2419 54.4298 44.6286 58.3198 41.739C60.9796 39.7618 64.143 38.7175 67.4686 38.7175C75.9381 38.7175 82.8292 45.6087 82.8292 54.0748C82.8292 62.5409 75.9347 69.4389 67.4652 69.4389ZM67.4652 39.6199C64.3356 39.6199 61.3581 40.6034 58.8538 42.4622C55.1936 45.1795 53.0069 49.5224 53.0069 54.0782C53.0069 55.8863 53.3381 57.6505 53.987 59.3201C56.1669 64.9168 61.4595 68.5365 67.4652 68.5365C75.4379 68.5365 81.9269 62.0509 81.9269 54.0782C81.9269 46.1055 75.4379 39.6199 67.4652 39.6199Z" fill="#371B45"/>
<path d="M79.3685 59.3438C79.3414 59.3438 79.3178 59.3404 79.2907 59.3371C79.0474 59.2931 78.8818 59.0599 78.9257 58.8166C79.8856 53.3415 78.4458 48.3294 74.8769 44.6997C71.6121 41.3808 66.9853 39.7248 62.8013 40.3872C62.5546 40.4244 62.3247 40.2588 62.2876 40.012C62.2504 39.7653 62.416 39.5355 62.6627 39.4983C67.1306 38.7954 72.0582 40.546 75.5224 44.071C79.3009 47.9137 80.8251 53.2063 79.8146 58.9754C79.774 59.1884 79.5814 59.3438 79.3685 59.3438Z" fill="#371B45"/>
<path d="M73.3121 66.3496C73.4034 66.9782 73.7684 67.5392 74.3024 67.8839L74.8059 68.2084C75.2994 68.5261 75.9043 68.6545 76.4755 68.5159C77.4793 68.2692 78.6115 67.4615 79.5476 66.3867H79.551C80.9671 64.7645 81.9472 62.5305 81.4098 60.6785C81.2848 60.256 81.0009 59.8978 80.6291 59.6544L79.818 59.1272C79.3516 58.8264 78.7737 58.7284 78.2431 58.894C77.1852 59.2184 76.0666 59.9586 75.1574 60.959C73.8799 62.3717 73.008 64.3049 73.3121 66.3496Z" fill="white"/>
<path d="M76.009 69.0197C75.5088 69.0197 75.0052 68.871 74.5625 68.5871L74.0589 68.2627C73.4134 67.8436 72.9774 67.171 72.8659 66.4174C72.3387 62.8484 75.208 59.3606 78.1146 58.4616C78.7668 58.2588 79.4766 58.367 80.068 58.7489L80.8791 59.2761C81.3523 59.5837 81.697 60.0365 81.8457 60.5502C82.2344 61.892 81.9336 63.5176 81.0008 65.1365C79.899 67.0426 78.1247 68.5736 76.5869 68.9521C76.3977 68.9961 76.205 69.0197 76.009 69.0197ZM78.7803 59.2626C78.6452 59.2626 78.51 59.2829 78.3815 59.3234C76.1712 60.0061 73.2512 62.8788 73.7581 66.2856C73.8325 66.7858 74.1198 67.2285 74.549 67.5056L75.0526 67.8301C75.4581 68.0937 75.9414 68.1816 76.374 68.0768C77.6684 67.7591 79.2501 66.3667 80.2235 64.687C81.0346 63.2844 81.305 61.9055 80.9839 60.8037C80.896 60.4995 80.6831 60.2258 80.3925 60.0332L79.5813 59.5059C79.3346 59.3437 79.0541 59.2626 78.7803 59.2626Z" fill="#371B45"/>
<path d="M76.195 69.013C76.1206 69.013 76.0497 68.9961 75.9787 68.9589C75.0324 68.4418 74.6843 67.4549 74.9986 66.1774C75.634 63.5886 78.8041 60.2427 80.6528 60.2123C81.2949 60.1987 81.785 60.5806 81.9776 61.2532C82.0452 61.4932 81.9067 61.7399 81.6667 61.8075C81.4267 61.8751 81.18 61.7365 81.1124 61.4965C81.011 61.1349 80.8285 61.1079 80.6697 61.1113C79.3651 61.1349 76.4248 64.1394 75.8705 66.3937C75.5495 67.7016 76.195 68.0531 76.4079 68.1714C76.6276 68.2897 76.7053 68.5635 76.587 68.7831C76.5093 68.9251 76.3538 69.013 76.195 69.013Z" fill="#371B45"/>
<g opacity="0.25">
<path d="M73.3121 66.3499C73.4034 66.9785 73.7684 67.5395 74.3024 67.8842L74.8059 68.2087C75.2994 68.5264 75.9043 68.6548 76.4755 68.5162C77.4793 68.2695 78.6115 67.4618 79.5476 66.387C76.5262 67.6646 76.1578 66.1234 77.7125 62.5342L75.1574 60.9626C73.8799 62.372 73.008 64.3052 73.3121 66.3499Z" fill="#371B45"/>
</g>
<g opacity="0.5">
<path d="M55.2916 54.5412C56.2615 48.2989 61.3953 45.7845 70.1351 46.5043C63.6123 42.1209 53.551 42.9489 55.2916 54.5412Z" fill="white"/>
</g>
<g opacity="0.5">
<path d="M72.832 58.3433C73.4687 57.8638 73.6307 57.0049 73.1939 56.4249C72.7571 55.8449 71.8868 55.7634 71.2502 56.2429C70.6135 56.7224 70.4515 57.5813 70.8883 58.1613C71.3251 58.7413 72.1954 58.8227 72.832 58.3433Z" fill="white"/>
</g>
<g opacity="0.5">
<path d="M68.3098 62.6073C69.5629 62.3179 70.3895 61.2636 70.156 60.2524C69.9225 59.2411 68.7173 58.6559 67.4642 58.9453C66.2111 59.2347 65.3845 60.289 65.618 61.3002C65.8515 62.3115 67.0566 62.8967 68.3098 62.6073Z" fill="white"/>
</g>
<path d="M53.3889 64.5318C53.8316 64.4845 54.1527 64.0857 54.1087 63.643C53.6761 59.371 53.4396 54.8558 53.3652 50.4656L51.7463 50.4926C51.8207 54.9335 52.0606 59.4927 52.4966 63.8119C52.5439 64.2547 52.9461 64.5791 53.3889 64.5318Z" fill="#EF9D26"/>
<path d="M53.301 64.9846C53.0137 64.9846 52.7365 64.8866 52.5101 64.704C52.2465 64.4911 52.0843 64.1903 52.0505 63.8558C51.628 59.6954 51.3745 55.2038 51.2968 50.4992C51.2934 50.381 51.3407 50.266 51.4219 50.1782C51.5063 50.0937 51.6179 50.043 51.7395 50.0396L53.3584 50.0126C53.6119 50.0024 53.8113 50.2052 53.8147 50.4553C53.8924 55.0855 54.1391 59.5061 54.5548 63.5955C54.6258 64.285 54.1222 64.9035 53.4361 64.9778C53.3922 64.9846 53.3483 64.9846 53.301 64.9846ZM52.2059 50.9318C52.2904 55.4471 52.5405 59.7596 52.9461 63.7611C52.9562 63.8558 53.0035 63.9436 53.0779 64.0045C53.1522 64.0653 53.2469 64.0923 53.3449 64.0822C53.5409 64.0619 53.6829 63.8828 53.666 63.6868C53.2604 59.7055 53.0137 55.4133 52.9292 50.9217L52.2059 50.9318Z" fill="#371B45"/>
<path d="M51.6752 50.3772C51.6752 50.3772 54.8859 50.5833 55.4841 48.3933C56.0857 46.2033 55.5146 44.7331 54.3452 44.0132C53.1758 43.2934 50.2659 43.9828 49.2148 45.5442C48.1637 47.1057 46.9335 50.4651 47.116 54.5443C47.116 54.5443 49.2588 55.8793 51.7462 54.6795L51.6752 50.3772Z" fill="white"/>
<path d="M49.5798 55.6294C48.0353 55.6294 46.9436 54.9636 46.876 54.923C46.751 54.8453 46.6699 54.7101 46.6631 54.5614C46.4772 50.3773 47.721 46.9537 48.8396 45.2909C50.0327 43.5166 53.2298 42.7967 54.5783 43.6281C56.035 44.5237 56.5216 46.3048 55.9167 48.5118C55.3759 50.4889 53.1352 50.793 52.1314 50.8302L52.1956 54.6729C52.199 54.8487 52.0976 55.0109 51.9422 55.0852C51.0973 55.4908 50.2895 55.6294 49.5798 55.6294ZM47.5553 54.2674C48.0826 54.5242 49.5663 55.0954 51.2933 54.3856L51.2257 50.3807C51.2223 50.2557 51.273 50.134 51.3642 50.0461C51.4555 49.9583 51.5805 49.9143 51.7022 49.9211C51.7428 49.9245 54.5547 50.0698 55.0515 48.265C55.5517 46.4434 55.2171 45.0679 54.1086 44.3885C53.1318 43.787 50.4889 44.446 49.5865 45.7877C48.4881 47.4269 47.4506 50.6612 47.5553 54.2674Z" fill="#371B45"/>
<path d="M51.5974 50.82L49.7555 50.0427L51.7529 49.9346C52.5099 49.9481 52.3139 51.0634 51.5974 50.82Z" fill="#371B45"/>
<path d="M69.3004 83.478C68.158 83.478 66.9853 82.8765 65.9984 82.3729C65.5354 82.1363 65.0994 81.9132 64.7479 81.795L65.0352 80.9433C65.4475 81.0818 65.9139 81.3218 66.4073 81.5719C67.5801 82.1701 68.9083 82.8528 69.9594 82.4675C70.5508 82.2512 71.024 81.7105 71.4059 80.8115C72.2069 78.9155 72.261 77.7427 72.1629 77.0938C72.092 76.6207 71.7641 76.2151 71.3045 76.0326C70.5306 75.725 69.0841 75.1437 68.0871 74.6943C67.0427 74.2211 66.671 74.6773 66.6574 74.6976L65.9173 74.1839C65.9477 74.1366 66.6912 73.072 68.4588 73.873C69.4389 74.3157 70.8685 74.8903 71.6357 75.1944C72.3928 75.4952 72.9335 76.1712 73.0518 76.962C73.2174 78.0739 72.9403 79.4866 72.2305 81.163C71.754 82.2884 71.095 83.0117 70.2636 83.3124C69.9493 83.4307 69.6248 83.478 69.3004 83.478Z" fill="#371B45"/>
<path d="M72.6057 80.1321L71.7067 80.0848C71.7067 80.0645 71.7912 78.1482 70.5813 77.4993C69.5572 76.9484 65.9579 75.7148 65.9241 75.7047L66.2147 74.853C66.3668 74.9037 69.9189 76.1238 71.0071 76.7085C72.724 77.6277 72.6125 80.0307 72.6057 80.1321Z" fill="#371B45"/>
<g opacity="0.25">
<path d="M38.9508 85.3032C38.9778 85.435 39.015 85.5702 39.0556 85.7155C39.7281 88.034 41.979 91.9038 43.0166 92.6676C44.0507 93.4347 46.5281 92.7149 47.6738 91.701C48.3125 91.1366 49.536 90.3052 50.4924 89.6799C50.4924 89.6765 50.4924 89.6765 50.4924 89.6765L50.4958 89.6732L51.9186 89.075L54.1999 88.1117C54.1999 88.1117 58.2758 87.0945 60.7058 85.8879C60.7362 85.8744 60.7633 85.8575 60.7937 85.844C61.375 85.5499 61.8549 85.2458 62.1523 84.9416C62.1591 84.9348 62.1625 84.9315 62.1658 84.9281C63.4028 83.6573 64.4438 82.4913 64.8797 80.9198C64.8932 80.8691 64.9101 80.8184 64.9203 80.7677C64.9811 80.5244 65.0284 80.2675 65.0555 80.0005C65.0656 79.9228 65.0724 79.8383 65.0791 79.7605L65.3089 79.5274L65.5692 79.2637L65.7449 76.7932L65.7382 76.7831L65.5286 76.4789C65.532 76.4755 65.532 76.4721 65.532 76.4687C65.532 76.4654 65.532 76.4654 65.5354 76.462C65.6064 76.2186 66.4749 73.2411 66.4885 71.3147C66.502 69.3038 66.4885 69.0638 66.4885 69.0638C61.7637 69.1112 58.1542 67.3605 55.8154 63.5583C55.8154 63.5583 55.8289 65.0657 55.3592 65.353C55.3592 65.353 56.3021 67.7424 59.212 68.9861C60.1583 69.3917 61.0708 69.6688 61.8752 69.8615C63.9875 70.3684 65.1738 72.697 64.2038 74.6403C63.9233 75.2014 63.5177 75.6509 62.933 75.857L63.2034 76.1984C63.2034 76.1984 63.8962 78.7433 61.8549 78.8075C61.8144 78.8109 61.7772 78.8109 61.7332 78.8109C59.5432 78.7804 58.1609 78.0166 58.1609 78.0166C58.1609 78.0166 59.604 79.5916 61.5541 80.6122C61.5541 80.6122 60.4659 83.6776 53.6761 85.2356L48.2348 87.402C48.2348 87.402 45.9434 88.9837 44.4191 86.4625C44.4124 86.4658 41.4754 89.3183 38.9508 85.3032Z" fill="#371B45"/>
</g>
<g opacity="0.25">
<path d="M63.0039 74.2787C63.4061 73.8731 63.1357 73.1871 62.5679 73.16C55.0481 72.7984 49.6102 70.6591 49.9921 63.5583C49.9921 63.5583 47.7717 66.5122 49.9921 70.3819C52.2126 74.2517 57.4984 74.9952 57.4984 74.9952L61.6453 74.7924" fill="#371B45"/>
</g>
<g opacity="0.25">
<path d="M60.1009 75.4142C60.1009 75.4142 57.4986 75.6406 58.5767 77.6921L55.758 76.7897L55.1294 76.009C55.1294 76.009 55.535 74.7788 55.6093 74.7653C55.6837 74.7518 58.188 74.9005 58.188 74.9005" fill="#371B45"/>
</g>
<g opacity="0.25">
<path d="M49.9956 69.9255C49.9956 69.9255 51.5874 72.903 50.5363 74.1028C49.4852 75.3026 44.2603 72.5617 44.2603 72.5617C44.2603 72.5617 44.7064 74.1603 45.2201 74.7619C45.7338 75.3635 45.3384 76.2253 45.3384 76.2253L52.9021 78.27L52.7264 77.3845L52.6723 73.1295L51.361 71.808" fill="#371B45"/>
</g>
<g opacity="0.25">
<path d="M62.3112 84.9313C62.3112 84.9313 62.3112 84.9381 62.3145 84.9516C64.7074 86.1109 68.2493 87.3884 69.6484 85.6816C71.852 82.9982 74.0589 73.0213 73.9677 71.2842C73.9609 71.1862 73.9406 71.0848 73.9035 70.9834C73.9035 70.9834 72.6631 74.87 71.3146 75.2756L71.2065 77.3879C71.2065 77.3879 71.2403 82.1668 65.63 79.3954L64.8932 81.5719L62.3112 84.9313Z" fill="#371B45"/>
</g>
<g opacity="0.3">
<path d="M73.2815 70.7064C73.2815 70.7064 69.013 70.8855 66.9547 69.6925L66.8162 69.2768L71.3348 68.8611L72.7306 69.6722" fill="#371B45"/>
</g>
<g opacity="0.25">
<path d="M54.1155 43.8953C54.1155 43.8953 55.562 47.64 51.1075 48.7654C51.1075 48.7654 49.803 52.2262 49.9821 55.1766C50.1612 58.1271 50.8405 62.4125 50.7155 62.6728C50.5938 62.933 52.1519 61.9664 52.1519 61.9664L51.4151 50.6107C51.4151 50.6107 54.9029 50.4012 55.3524 48.7586C55.8019 47.1195 56.0858 45.8791 55.4403 45.264" fill="#371B45"/>
</g>
<g opacity="0.3">
<path d="M51.9152 52.4119C51.9896 52.4254 53.4225 52.8749 53.4225 52.8749L53.1184 50.3267L51.7462 50.5801" fill="#371B45"/>
</g>
<g opacity="0.25">
<path d="M52.723 77.1004L54.5649 77.898C54.5649 77.898 54.5514 74.1263 54.494 74.1026C54.4365 74.0789 52.8852 73.3962 52.8852 73.3962" fill="#371B45"/>
</g>
<g opacity="0.25">
<path d="M52.7534 98.5448C53.1454 99.1701 53.8214 99.5621 54.5581 99.6297C55.5382 99.7176 57.103 99.6702 58.6881 98.876C61.2972 97.5715 63.4366 95.3443 63.5481 94.4216C63.663 93.4989 60.7801 87.402 60.7801 87.402L60.7565 85.9386C60.7565 85.9386 60.7903 85.9217 60.8511 85.8913C60.8815 85.8778 60.9086 85.8609 60.939 85.8473C60.9762 85.8271 61.0201 85.8034 61.0674 85.7764L57.5458 86.8545L54.646 87.8143L53.2029 88.1151C53.2029 88.1151 56.1128 89.4636 58.3941 89.0445C58.3941 89.0445 60.2259 93.0359 59.506 94.9556C58.7861 96.8752 54.0951 97.6255 52.8987 95.8275C52.8311 95.7262 52.7568 95.6383 52.6824 95.5605C52.2498 96.4021 52.0673 97.4498 52.7534 98.5448Z" fill="#371B45"/>
</g>
<path d="M46.6733 23.4719C46.8017 24.3033 46.9538 25.1009 47.1228 25.8478C48.4104 31.5527 50.7999 35.6421 53.8551 37.3691C54.0545 37.4806 54.2641 37.5313 54.4736 37.5313C54.94 37.5313 55.3895 37.2677 55.6295 36.8081C55.9708 36.1389 55.7308 35.3075 55.0955 34.9459C52.777 33.6379 50.7492 29.998 49.6711 25.2158C49.5731 24.7697 49.4784 24.3134 49.3939 23.8436C48.2347 17.3749 48.718 8.91894 52.3985 3.42696C52.8142 2.80509 52.6722 1.94665 52.0774 1.51068C51.486 1.0747 50.6681 1.2234 50.2524 1.84526C46.0683 8.09768 45.6594 16.9051 46.6733 23.4719Z" fill="#EF9D26"/>
<path d="M54.4703 37.9808C54.1762 37.9808 53.8856 37.9031 53.6287 37.7578C50.462 35.9699 47.9948 31.7757 46.6801 25.9458C45.1559 19.1898 45.0815 8.75669 49.8773 1.59514C50.151 1.18958 50.56 0.919208 51.0298 0.838095C51.4928 0.756983 51.9592 0.868513 52.3411 1.14903C53.1218 1.72695 53.3144 2.85915 52.7669 3.67703C48.8938 9.45967 48.6403 18.6118 50.1037 25.1144C51.1548 29.7783 53.1015 33.3067 55.3084 34.5538C56.1534 35.0303 56.471 36.1321 56.0216 37.0142C55.7208 37.609 55.1259 37.9808 54.4703 37.9808ZM51.3272 1.71005C51.2799 1.71005 51.2359 1.71343 51.1886 1.72357C50.9622 1.76413 50.7628 1.89594 50.6276 2.09534C45.9907 9.02031 46.0751 19.1627 47.5588 25.7464C48.8161 31.3228 51.1278 35.3109 54.0715 36.9737C54.1965 37.0446 54.3317 37.0784 54.4703 37.0784C54.7846 37.0784 55.0719 36.8959 55.2239 36.5985C55.4571 36.1423 55.2983 35.5745 54.8691 35.3345C52.4425 33.9657 50.3335 30.2177 49.2284 25.3104C47.721 18.6186 47.9982 9.17915 52.02 3.17346C52.3039 2.751 52.2093 2.16631 51.8071 1.8689C51.6685 1.76751 51.4995 1.71005 51.3272 1.71005Z" fill="#371B45"/>
<g opacity="0.25">
<path d="M48.3226 28.8386C48.4004 29.3523 48.495 29.8458 48.5998 30.3088C49.394 33.8338 50.8743 36.3652 52.7602 37.4332C52.8818 37.5008 53.0136 37.5345 53.1421 37.5345C53.4293 37.5345 53.7098 37.3723 53.8552 37.0884C54.0647 36.6761 53.9194 36.159 53.5273 35.936C52.0944 35.1282 50.8405 32.8773 50.1747 29.9201C50.1139 29.6464 50.0564 29.3625 50.0023 29.0718C49.8671 29.2746 49.3501 29.91 48.5829 29.0144C48.5051 28.9164 48.4173 28.8623 48.3226 28.8386Z" fill="#371B45"/>
</g>
</svg>
