<svg width="230" height="217" viewBox="0 0 230 217" fill="none" xmlns="http://www.w3.org/2000/svg">
<g filter="url(#filter0_dddi_264_33066)">
<path fill-rule="evenodd" clip-rule="evenodd" d="M80.6943 93.1667C72.0384 90.1631 67.8387 94.4352 72.648 97.3943L99.4943 114.444C103.968 117.167 105.714 117.167 110.187 114.444L137.034 97.3943C141.843 94.4352 137.643 90.1631 128.987 93.1667L109.827 99.4503C106.588 100.512 103.094 100.512 99.855 99.4503L80.6943 93.1667Z" fill="#55128A"/>
<path fill-rule="evenodd" clip-rule="evenodd" d="M80.6943 93.1667C72.0384 90.1631 67.8387 94.4352 72.648 97.3943L99.4943 114.444C103.968 117.167 105.714 117.167 110.187 114.444L137.034 97.3943C141.843 94.4352 137.643 90.1631 128.987 93.1667L109.827 99.4503C106.588 100.512 103.094 100.512 99.855 99.4503L80.6943 93.1667Z" fill="url(#paint0_radial_264_33066)"/>
<path fill-rule="evenodd" clip-rule="evenodd" d="M80.6943 93.1667C72.0384 90.1631 67.8387 94.4352 72.648 97.3943L99.4943 114.444C103.968 117.167 105.714 117.167 110.187 114.444L137.034 97.3943C141.843 94.4352 137.643 90.1631 128.987 93.1667L109.827 99.4503C106.588 100.512 103.094 100.512 99.855 99.4503L80.6943 93.1667Z" fill="url(#paint1_radial_264_33066)"/>
<path fill-rule="evenodd" clip-rule="evenodd" d="M80.6943 93.1667C72.0384 90.1631 67.8387 94.4352 72.648 97.3943L99.4943 114.444C103.968 117.167 105.714 117.167 110.187 114.444L137.034 97.3943C141.843 94.4352 137.643 90.1631 128.987 93.1667L109.827 99.4503C106.588 100.512 103.094 100.512 99.855 99.4503L80.6943 93.1667Z" fill="url(#paint2_radial_264_33066)" fill-opacity="0.3"/>
</g>
<g filter="url(#filter1_dddi_264_33066)">
<path fill-rule="evenodd" clip-rule="evenodd" d="M86.2769 74.6532C79.6993 72.4005 76.508 75.6046 80.1625 77.8239L100.563 90.6112C103.962 92.6531 105.289 92.6531 108.689 90.6112L129.089 77.8239C132.744 75.6046 129.552 72.4005 122.975 74.6532L109.553 78.9974C106.35 80.0341 102.902 80.0341 99.6988 78.9974L86.2769 74.6532Z" fill="#55128A"/>
<path fill-rule="evenodd" clip-rule="evenodd" d="M86.2769 74.6532C79.6993 72.4005 76.508 75.6046 80.1625 77.8239L100.563 90.6112C103.962 92.6531 105.289 92.6531 108.689 90.6112L129.089 77.8239C132.744 75.6046 129.552 72.4005 122.975 74.6532L109.553 78.9974C106.35 80.0341 102.902 80.0341 99.6988 78.9974L86.2769 74.6532Z" fill="url(#paint3_radial_264_33066)"/>
<path fill-rule="evenodd" clip-rule="evenodd" d="M86.2769 74.6532C79.6993 72.4005 76.508 75.6046 80.1625 77.8239L100.563 90.6112C103.962 92.6531 105.289 92.6531 108.689 90.6112L129.089 77.8239C132.744 75.6046 129.552 72.4005 122.975 74.6532L109.553 78.9974C106.35 80.0341 102.902 80.0341 99.6988 78.9974L86.2769 74.6532Z" fill="url(#paint4_radial_264_33066)"/>
<path fill-rule="evenodd" clip-rule="evenodd" d="M86.2769 74.6532C79.6993 72.4005 76.508 75.6046 80.1625 77.8239L100.563 90.6112C103.962 92.6531 105.289 92.6531 108.689 90.6112L129.089 77.8239C132.744 75.6046 129.552 72.4005 122.975 74.6532L109.553 78.9974C106.35 80.0341 102.902 80.0341 99.6988 78.9974L86.2769 74.6532Z" fill="url(#paint5_radial_264_33066)" fill-opacity="0.3"/>
</g>
<g filter="url(#filter2_dddi_264_33066)">
<path fill-rule="evenodd" clip-rule="evenodd" d="M93.3342 60.9572C89.2864 59.6055 87.3226 61.528 89.5715 62.8596L102.126 70.5319C104.218 71.7571 105.034 71.7571 107.126 70.5319L119.68 62.8596C121.929 61.528 119.965 59.6055 115.917 60.9572L109.441 63.001C106.307 63.99 102.945 63.99 99.8107 63.001L93.3342 60.9572Z" fill="#55128A"/>
<path fill-rule="evenodd" clip-rule="evenodd" d="M93.3342 60.9572C89.2864 59.6055 87.3226 61.528 89.5715 62.8596L102.126 70.5319C104.218 71.7571 105.034 71.7571 107.126 70.5319L119.68 62.8596C121.929 61.528 119.965 59.6055 115.917 60.9572L109.441 63.001C106.307 63.99 102.945 63.99 99.8107 63.001L93.3342 60.9572Z" fill="url(#paint6_radial_264_33066)"/>
<path fill-rule="evenodd" clip-rule="evenodd" d="M93.3342 60.9572C89.2864 59.6055 87.3226 61.528 89.5715 62.8596L102.126 70.5319C104.218 71.7571 105.034 71.7571 107.126 70.5319L119.68 62.8596C121.929 61.528 119.965 59.6055 115.917 60.9572L109.441 63.001C106.307 63.99 102.945 63.99 99.8107 63.001L93.3342 60.9572Z" fill="url(#paint7_radial_264_33066)"/>
<path fill-rule="evenodd" clip-rule="evenodd" d="M93.3342 60.9572C89.2864 59.6055 87.3226 61.528 89.5715 62.8596L102.126 70.5319C104.218 71.7571 105.034 71.7571 107.126 70.5319L119.68 62.8596C121.929 61.528 119.965 59.6055 115.917 60.9572L109.441 63.001C106.307 63.99 102.945 63.99 99.8107 63.001L93.3342 60.9572Z" fill="url(#paint8_radial_264_33066)" fill-opacity="0.3"/>
</g>
<defs>
<filter id="filter0_dddi_264_33066" x="0.625732" y="32.1426" width="228.43" height="184.343" filterUnits="userSpaceOnUse" color-interpolation-filters="sRGB">
<feFlood flood-opacity="0" result="BackgroundImageFix"/>
<feColorMatrix in="SourceAlpha" type="matrix" values="0 0 0 0 0 0 0 0 0 0 0 0 0 0 0 0 0 0 127 0" result="hardAlpha"/>
<feOffset dy="10"/>
<feGaussianBlur stdDeviation="30"/>
<feComposite in2="hardAlpha" operator="out"/>
<feColorMatrix type="matrix" values="0 0 0 0 0.49177 0 0 0 0 0.0782639 0 0 0 0 0.816667 0 0 0 0.8 0"/>
<feBlend mode="normal" in2="BackgroundImageFix" result="effect1_dropShadow_264_33066"/>
<feColorMatrix in="SourceAlpha" type="matrix" values="0 0 0 0 0 0 0 0 0 0 0 0 0 0 0 0 0 0 127 0" result="hardAlpha"/>
<feOffset dx="10" dy="20"/>
<feGaussianBlur stdDeviation="40"/>
<feComposite in2="hardAlpha" operator="out"/>
<feColorMatrix type="matrix" values="0 0 0 0 0.854167 0 0 0 0 0.14592 0 0 0 0 0.613363 0 0 0 0.3 0"/>
<feBlend mode="normal" in2="effect1_dropShadow_264_33066" result="effect2_dropShadow_264_33066"/>
<feColorMatrix in="SourceAlpha" type="matrix" values="0 0 0 0 0 0 0 0 0 0 0 0 0 0 0 0 0 0 127 0" result="hardAlpha"/>
<feOffset dx="-20" dy="-10"/>
<feGaussianBlur stdDeviation="25"/>
<feComposite in2="hardAlpha" operator="out"/>
<feColorMatrix type="matrix" values="0 0 0 0 0.399 0 0 0 0 0.26125 0 0 0 0 0.95 0 0 0 0.5 0"/>
<feBlend mode="normal" in2="effect2_dropShadow_264_33066" result="effect3_dropShadow_264_33066"/>
<feBlend mode="normal" in="SourceGraphic" in2="effect3_dropShadow_264_33066" result="shape"/>
<feColorMatrix in="SourceAlpha" type="matrix" values="0 0 0 0 0 0 0 0 0 0 0 0 0 0 0 0 0 0 127 0" result="hardAlpha"/>
<feOffset/>
<feGaussianBlur stdDeviation="10"/>
<feComposite in2="hardAlpha" operator="arithmetic" k2="-1" k3="1"/>
<feColorMatrix type="matrix" values="0 0 0 0 1 0 0 0 0 1 0 0 0 0 1 0 0 0 0.5 0"/>
<feBlend mode="normal" in2="shape" result="effect4_innerShadow_264_33066"/>
</filter>
<filter id="filter1_dddi_264_33066" x="8.62585" y="13.8851" width="212" height="178.257" filterUnits="userSpaceOnUse" color-interpolation-filters="sRGB">
<feFlood flood-opacity="0" result="BackgroundImageFix"/>
<feColorMatrix in="SourceAlpha" type="matrix" values="0 0 0 0 0 0 0 0 0 0 0 0 0 0 0 0 0 0 127 0" result="hardAlpha"/>
<feOffset dy="10"/>
<feGaussianBlur stdDeviation="30"/>
<feComposite in2="hardAlpha" operator="out"/>
<feColorMatrix type="matrix" values="0 0 0 0 0.49177 0 0 0 0 0.0782639 0 0 0 0 0.816667 0 0 0 0.8 0"/>
<feBlend mode="normal" in2="BackgroundImageFix" result="effect1_dropShadow_264_33066"/>
<feColorMatrix in="SourceAlpha" type="matrix" values="0 0 0 0 0 0 0 0 0 0 0 0 0 0 0 0 0 0 127 0" result="hardAlpha"/>
<feOffset dx="10" dy="20"/>
<feGaussianBlur stdDeviation="40"/>
<feComposite in2="hardAlpha" operator="out"/>
<feColorMatrix type="matrix" values="0 0 0 0 0.854167 0 0 0 0 0.14592 0 0 0 0 0.613363 0 0 0 0.3 0"/>
<feBlend mode="normal" in2="effect1_dropShadow_264_33066" result="effect2_dropShadow_264_33066"/>
<feColorMatrix in="SourceAlpha" type="matrix" values="0 0 0 0 0 0 0 0 0 0 0 0 0 0 0 0 0 0 127 0" result="hardAlpha"/>
<feOffset dx="-20" dy="-10"/>
<feGaussianBlur stdDeviation="25"/>
<feComposite in2="hardAlpha" operator="out"/>
<feColorMatrix type="matrix" values="0 0 0 0 0.399 0 0 0 0 0.26125 0 0 0 0 0.95 0 0 0 0.5 0"/>
<feBlend mode="normal" in2="effect2_dropShadow_264_33066" result="effect3_dropShadow_264_33066"/>
<feBlend mode="normal" in="SourceGraphic" in2="effect3_dropShadow_264_33066" result="shape"/>
<feColorMatrix in="SourceAlpha" type="matrix" values="0 0 0 0 0 0 0 0 0 0 0 0 0 0 0 0 0 0 127 0" result="hardAlpha"/>
<feOffset/>
<feGaussianBlur stdDeviation="10"/>
<feComposite in2="hardAlpha" operator="arithmetic" k2="-1" k3="1"/>
<feColorMatrix type="matrix" values="0 0 0 0 1 0 0 0 0 1 0 0 0 0 1 0 0 0 0.5 0"/>
<feBlend mode="normal" in2="shape" result="effect4_innerShadow_264_33066"/>
</filter>
<filter id="filter2_dddi_264_33066" x="18.6259" y="0.4963" width="192" height="170.954" filterUnits="userSpaceOnUse" color-interpolation-filters="sRGB">
<feFlood flood-opacity="0" result="BackgroundImageFix"/>
<feColorMatrix in="SourceAlpha" type="matrix" values="0 0 0 0 0 0 0 0 0 0 0 0 0 0 0 0 0 0 127 0" result="hardAlpha"/>
<feOffset dy="10"/>
<feGaussianBlur stdDeviation="30"/>
<feComposite in2="hardAlpha" operator="out"/>
<feColorMatrix type="matrix" values="0 0 0 0 0.49177 0 0 0 0 0.0782639 0 0 0 0 0.816667 0 0 0 0.8 0"/>
<feBlend mode="normal" in2="BackgroundImageFix" result="effect1_dropShadow_264_33066"/>
<feColorMatrix in="SourceAlpha" type="matrix" values="0 0 0 0 0 0 0 0 0 0 0 0 0 0 0 0 0 0 127 0" result="hardAlpha"/>
<feOffset dx="10" dy="20"/>
<feGaussianBlur stdDeviation="40"/>
<feComposite in2="hardAlpha" operator="out"/>
<feColorMatrix type="matrix" values="0 0 0 0 0.854167 0 0 0 0 0.14592 0 0 0 0 0.613363 0 0 0 0.3 0"/>
<feBlend mode="normal" in2="effect1_dropShadow_264_33066" result="effect2_dropShadow_264_33066"/>
<feColorMatrix in="SourceAlpha" type="matrix" values="0 0 0 0 0 0 0 0 0 0 0 0 0 0 0 0 0 0 127 0" result="hardAlpha"/>
<feOffset dx="-20" dy="-10"/>
<feGaussianBlur stdDeviation="25"/>
<feComposite in2="hardAlpha" operator="out"/>
<feColorMatrix type="matrix" values="0 0 0 0 0.399 0 0 0 0 0.26125 0 0 0 0 0.95 0 0 0 0.5 0"/>
<feBlend mode="normal" in2="effect2_dropShadow_264_33066" result="effect3_dropShadow_264_33066"/>
<feBlend mode="normal" in="SourceGraphic" in2="effect3_dropShadow_264_33066" result="shape"/>
<feColorMatrix in="SourceAlpha" type="matrix" values="0 0 0 0 0 0 0 0 0 0 0 0 0 0 0 0 0 0 127 0" result="hardAlpha"/>
<feOffset/>
<feGaussianBlur stdDeviation="10"/>
<feComposite in2="hardAlpha" operator="arithmetic" k2="-1" k3="1"/>
<feColorMatrix type="matrix" values="0 0 0 0 1 0 0 0 0 1 0 0 0 0 1 0 0 0 0.5 0"/>
<feBlend mode="normal" in2="shape" result="effect4_innerShadow_264_33066"/>
</filter>
<radialGradient id="paint0_radial_264_33066" cx="0" cy="0" r="1" gradientUnits="userSpaceOnUse" gradientTransform="translate(100.564 119.909) rotate(-99.0746) scale(24.6518 47.611)">
<stop stop-color="#AD12F5"/>
<stop offset="0.809757" stop-color="#FDAC62"/>
</radialGradient>
<radialGradient id="paint1_radial_264_33066" cx="0" cy="0" r="1" gradientUnits="userSpaceOnUse" gradientTransform="translate(67.9041 95.1855) rotate(30.251) scale(46.8103 46.9284)">
<stop offset="0.196529" stop-color="#FF33BA"/>
<stop offset="1" stop-color="#ED42B3" stop-opacity="0"/>
</radialGradient>
<radialGradient id="paint2_radial_264_33066" cx="0" cy="0" r="1" gradientUnits="userSpaceOnUse" gradientTransform="translate(88.1221 100.511) rotate(21.6909) scale(38.0777 103.068)">
<stop stop-color="white"/>
<stop offset="1" stop-color="white" stop-opacity="0"/>
</radialGradient>
<radialGradient id="paint3_radial_264_33066" cx="0" cy="0" r="1" gradientUnits="userSpaceOnUse" gradientTransform="translate(101.376 94.71) rotate(-99.1923) scale(18.495 36.1676)">
<stop stop-color="#AD12F5"/>
<stop offset="0.809757" stop-color="#FDAC62"/>
</radialGradient>
<radialGradient id="paint4_radial_264_33066" cx="0" cy="0" r="1" gradientUnits="userSpaceOnUse" gradientTransform="translate(76.5577 76.1673) rotate(29.9252) scale(35.454 35.3125)">
<stop offset="0.196529" stop-color="#FF33BA"/>
<stop offset="1" stop-color="#ED42B3" stop-opacity="0"/>
</radialGradient>
<radialGradient id="paint5_radial_264_33066" cx="0" cy="0" r="1" gradientUnits="userSpaceOnUse" gradientTransform="translate(91.9213 80.1611) rotate(21.4341) scale(28.884 77.4378)">
<stop stop-color="white"/>
<stop offset="1" stop-color="white" stop-opacity="0"/>
</radialGradient>
<radialGradient id="paint6_radial_264_33066" cx="0" cy="0" r="1" gradientUnits="userSpaceOnUse" gradientTransform="translate(102.626 72.9912) rotate(-99.4238) scale(11.1043 22.2422)">
<stop stop-color="#AD12F5"/>
<stop offset="0.809757" stop-color="#FDAC62"/>
</radialGradient>
<radialGradient id="paint7_radial_264_33066" cx="0" cy="0" r="1" gradientUnits="userSpaceOnUse" gradientTransform="translate(87.3531 61.8656) rotate(29.302) scale(21.6834 21.3189)">
<stop offset="0.196529" stop-color="#FF33BA"/>
<stop offset="1" stop-color="#ED42B3" stop-opacity="0"/>
</radialGradient>
<radialGradient id="paint8_radial_264_33066" cx="0" cy="0" r="1" gradientUnits="userSpaceOnUse" gradientTransform="translate(96.8077 64.2619) rotate(20.9452) scale(17.7161 46.6166)">
<stop stop-color="white"/>
<stop offset="1" stop-color="white" stop-opacity="0"/>
</radialGradient>
</defs>
</svg>
