<svg width="52" height="101" viewBox="0 0 52 101" fill="none" xmlns="http://www.w3.org/2000/svg">
<path d="M12.1689 21.5588L12.0164 23.3139L11.6395 27.6583L11.5273 28.9674L11.3921 30.5354L11.3 31.5885L11.0727 34.221L10.6297 39.3394L8.83147 39.161L8.07766 39.0862C6.72254 38.951 5.67527 37.9642 5.37893 36.7299C5.37893 36.727 5.37893 36.7241 5.37893 36.7241C5.29261 36.3674 5.27247 35.9876 5.32426 35.6049C5.33289 35.5272 5.34728 35.4467 5.36454 35.369L7.85325 23.6764L7.9223 23.3455C8.15534 22.2493 9.13644 21.4754 10.2556 21.507L12.1689 21.5588Z" fill="white"/>
<path d="M10.6269 39.7133C10.6154 39.7133 10.601 39.7133 10.5895 39.7104L8.03749 39.4572C7.05927 39.3594 6.16736 38.8501 5.58618 38.0561C5.00788 37.262 4.7921 36.2579 4.99637 35.2969L7.55989 23.2706C7.83034 21.9989 8.97255 21.1012 10.2673 21.1357L12.1777 21.1846C12.3819 21.1904 12.5431 21.3601 12.5402 21.5644C12.5344 21.7687 12.3676 21.9269 12.1604 21.9269L10.25 21.878C9.30917 21.8579 8.48344 22.5052 8.2878 23.423L5.72428 35.4494C5.56317 36.2032 5.73292 36.9944 6.1875 37.6187C6.64209 38.2431 7.3441 38.643 8.11229 38.7178L10.6643 38.971C10.8686 38.9911 11.0182 39.1724 10.998 39.3767C10.9779 39.5694 10.8168 39.7133 10.6269 39.7133Z" fill="#371A45"/>
<path d="M20.9844 41.9346L20.596 43.0337L20.5931 43.0394C20.5931 43.0394 20.5931 43.0394 20.5903 43.0423L17.4945 51.8002C18.2166 52.0218 18.7 52.5569 18.9532 53.2158C19.2294 53.9293 19.2438 54.7838 19.0021 55.5347C18.7374 56.3634 17.9548 56.9129 17.0888 56.9129H10.9979C10.0571 56.9129 9.22564 56.2655 9.02999 55.3449C8.91491 54.8011 8.93793 54.0847 9.23715 53.1496C9.93629 50.9774 11.8956 45.9856 12.9314 43.3789C13.3313 42.3719 13.5931 41.7217 13.5931 41.7217L17.5952 40.9478L20.9844 41.9346Z" fill="white"/>
<path d="M17.0917 57.284H10.998C9.8759 57.284 8.8948 56.5014 8.66751 55.4225C8.52365 54.7348 8.59558 53.9321 8.88329 53.0345C9.84713 50.0451 13.2162 41.6641 13.2508 41.5807C13.2968 41.4627 13.4004 41.3793 13.5241 41.3534L17.5262 40.5794C17.7276 40.542 17.9232 40.6715 17.9606 40.8729C18.0009 41.0743 17.8685 41.2699 17.6671 41.3073L13.8636 42.041C13.3572 43.3012 10.4657 50.5429 9.59106 53.2589C9.34363 54.03 9.27458 54.7061 9.39254 55.2642C9.54791 56.0008 10.224 56.5359 10.998 56.5359H17.0917C17.811 56.5359 18.4382 56.0871 18.6511 55.4196C18.8985 54.6428 18.841 53.7538 18.4986 53.0978C18.2512 52.623 17.8657 52.2979 17.3909 52.1512C17.2931 52.1224 17.2126 52.0534 17.1665 51.9642C17.1205 51.875 17.1147 51.7685 17.1493 51.6736L20.6363 41.808C20.7054 41.6152 20.9154 41.5145 21.111 41.5807C21.3038 41.6497 21.4045 41.8597 21.3383 42.0554L17.9721 51.5815C18.4756 51.8232 18.8813 52.2202 19.1604 52.7525C19.5977 53.5898 19.6754 54.6687 19.3646 55.644C19.0482 56.6251 18.1361 57.284 17.0917 57.284Z" fill="#371A45"/>
<path d="M17.4744 52.1713C16.4328 52.0188 15.2964 52.0735 14.3268 52.5338C15.2331 51.826 16.381 51.5211 17.5175 51.429C18.0728 51.4232 18.0239 52.2432 17.4744 52.1713Z" fill="#371A45"/>
<path d="M17.1406 55.7216C16.9622 55.7216 16.8097 55.7159 16.7033 55.7101H10.5232C10.5088 55.7101 10.4973 55.7101 10.4829 55.7072C9.12782 55.5634 8.71639 54.2831 8.69913 54.2284C8.63871 54.0328 8.74804 53.8256 8.94368 53.7652C9.13933 53.7048 9.34648 53.8141 9.4069 54.0069C9.41841 54.0471 9.69749 54.8671 10.5434 54.9678H16.7148C16.7205 54.9678 16.7292 54.9678 16.7378 54.9678C17.6239 55.0196 18.7057 54.8671 18.8208 54.588C18.8985 54.3982 19.1143 54.309 19.3042 54.3866C19.4941 54.4643 19.5833 54.6801 19.5056 54.87C19.2006 55.6065 17.9203 55.7216 17.1406 55.7216Z" fill="#371A45"/>
<path d="M15.4691 48.4714C13.199 48.4714 11.4066 47.5075 11.2944 47.4442C11.1419 47.3608 11.0843 47.168 11.1706 47.0127C11.257 46.8573 11.4468 46.8026 11.6022 46.889C11.6425 46.912 15.5755 49.018 18.9935 46.8285C19.1403 46.7336 19.3359 46.7767 19.4309 46.9235C19.5258 47.0702 19.4826 47.2659 19.3359 47.3608C18.0297 48.1952 16.6803 48.4714 15.4691 48.4714Z" fill="#371A45"/>
<path d="M31.3162 50.1976H22.6791C22.6791 50.1976 21.6577 50.5141 21.6376 48.1577C21.6174 45.8013 21.1226 41.8597 21.1226 41.8597C15.6474 45.0073 10.2039 43.5514 8.82865 39.1638C8.46326 38.0015 8.3827 36.6377 8.66466 35.0956C8.6848 34.9834 8.70494 34.8712 8.73083 34.759V34.7532C8.81714 34.3475 8.92647 33.9304 9.06458 33.5017L10.1118 30.3541C10.1176 30.3368 10.1234 30.3224 10.1291 30.3081C10.1291 30.3052 10.132 30.3023 10.132 30.2994L10.2758 29.8707L10.2787 29.8679L10.3017 29.7931L7.97703 30.3052C7.43613 30.9123 6.9614 32.0343 6.49819 33.2629C7.62889 34.4856 6.9873 35.6653 5.71849 34.9776C5.71849 34.9776 5.5919 35.2768 5.33008 35.602C5.23225 35.7228 5.11429 35.8494 4.97619 35.9645C4.41515 36.4306 3.52612 36.7183 2.2717 35.8293C-0.1048 34.1461 0.766967 32.1638 1.57831 30.2822C2.22279 28.7889 3.90878 24.9624 7.86194 23.6706C8.89483 23.3311 10.086 23.1671 11.4497 23.262C11.4526 23.262 11.4526 23.262 11.4526 23.262C11.6425 23.2735 11.8324 23.2879 12.0223 23.3052C18.3979 23.7914 24.3334 24.8789 24.3334 24.8789C24.3334 24.8789 29.2907 26.8124 30.7178 28.6106L31.7708 31.6287C31.7219 32.1206 31.5895 32.5867 31.3853 32.9953C30.4991 34.7762 28.2377 35.5732 25.2858 33.4988C25.0556 33.3348 24.8197 33.1535 24.578 32.955C24.578 32.955 24.5205 33.7174 24.063 34.0052C24.063 34.0052 27.4666 35.1071 27.9155 38.856C28.3672 42.6077 28.0219 44.429 28.0219 44.429C30.9767 44.0578 33.6927 47.5535 31.3162 50.1976Z" fill="white"/>
<g opacity="0.2">
<path d="M31.3766 33.0039C30.4905 34.7848 28.229 35.5818 25.2771 33.5074C24.8628 33.1391 24.6442 33.0154 24.6096 32.5349C24.5722 32.0084 23.6774 31.1539 23.6774 31.1539L23.3811 29.465L23.9162 28.4062C25.8382 31.4042 30.8559 32.5349 30.8559 32.5349L31.3766 33.0039Z" fill="#371A45"/>
</g>
<path d="M22.5611 50.5804C22.4086 50.5804 22.1957 50.543 21.9857 50.3876C21.5196 50.0452 21.2779 49.2972 21.2664 48.1578C21.252 46.3654 20.9528 43.6062 20.8205 42.4468C17.0658 44.4176 13.0839 44.3974 10.552 42.3576C8.17553 40.4414 7.50516 37.173 8.71067 33.3925L9.73781 30.3024L8.17553 30.6477C7.71807 31.2145 7.28938 32.2272 6.92111 33.1939C7.57134 33.9995 7.55695 34.762 7.23184 35.1792C6.99303 35.4841 6.52694 35.6913 5.88247 35.464C5.64367 35.8581 5.15456 36.4854 4.38061 36.704C3.65845 36.9112 2.87588 36.7184 2.0559 36.1372C-0.553647 34.2872 0.430328 32.0057 1.22441 30.1701L1.2388 30.1413C1.63872 29.2149 2.4702 27.2901 4.08427 25.6386C6.06373 23.6131 8.55243 22.6925 11.4785 22.8967C18.0124 23.3571 24.3392 24.5079 24.4025 24.5194C24.4255 24.5223 24.4485 24.5309 24.4715 24.5396C24.6787 24.6201 29.5381 26.5334 31.0112 28.3863C31.0371 28.4179 31.0573 28.4553 31.0716 28.4956L32.1247 31.5137C32.1419 31.5655 32.1477 31.6202 32.1448 31.6719C31.9952 33.1594 31.1752 34.3477 29.9496 34.8512C29.0835 35.205 27.2997 35.487 24.8082 33.614C24.7765 33.6974 24.7362 33.7837 24.6902 33.8672C25.7087 34.3505 27.9212 35.7373 28.2923 38.8216C28.6203 41.5491 28.534 43.2696 28.4592 44.0407C28.465 44.0407 28.4678 44.0407 28.4736 44.0407C29.9841 44.0407 31.4629 44.9239 32.188 46.3078C32.913 47.6917 32.6972 49.2367 31.6125 50.4451C31.5435 50.5228 31.4428 50.5689 31.3363 50.5689H22.7194C22.6791 50.5746 22.6244 50.5804 22.5611 50.5804ZM21.1226 41.4858C21.1801 41.4858 21.2348 41.4973 21.2866 41.5261C21.3988 41.5807 21.4736 41.6901 21.4908 41.8109C21.511 41.972 21.9886 45.8015 22.0087 48.1521C22.0202 49.3633 22.3022 49.7 22.423 49.7892C22.5007 49.8467 22.5698 49.8409 22.5726 49.8409C22.6072 49.8294 22.6446 49.8237 22.682 49.8237H31.1493C31.9405 48.8656 32.0729 47.7176 31.5147 46.6502C30.853 45.3872 29.4317 44.6276 28.065 44.806C27.9471 44.8204 27.8291 44.7801 27.7486 44.6938C27.668 44.6075 27.6306 44.4866 27.6536 44.3715C27.6565 44.3543 27.9787 42.5446 27.5414 38.9108C27.1242 35.4352 23.9738 34.3764 23.9421 34.3678C23.804 34.3246 23.7062 34.2038 23.689 34.06C23.6717 33.9161 23.7379 33.778 23.8587 33.7003C24.0975 33.5478 24.1896 33.0846 24.2011 32.935C24.2126 32.7969 24.2989 32.6761 24.4284 32.6243C24.555 32.5696 24.7017 32.5926 24.8082 32.6818C26.615 34.1837 28.3355 34.7102 29.6561 34.1693C30.6027 33.7809 31.2443 32.8573 31.3852 31.6835L30.3811 28.8063C29.0433 27.1951 24.6499 25.42 24.2241 25.2502C23.7062 25.1581 17.6556 24.0821 11.418 23.6448C5.03947 23.1931 2.68599 28.6452 1.91204 30.4377L1.89766 30.4664C1.10645 32.2992 0.3584 34.0312 2.47884 35.533C3.10605 35.9761 3.67284 36.1315 4.1677 35.9934C4.96467 35.769 5.36746 34.8483 5.37034 34.8396C5.41062 34.7447 5.49118 34.6699 5.589 34.6354C5.68682 34.6008 5.79615 34.6095 5.88822 34.6584C6.2306 34.8454 6.52694 34.8684 6.63915 34.7217C6.75999 34.5663 6.75423 34.1002 6.21621 33.5191C6.12127 33.4155 6.0925 33.2687 6.14141 33.1364C6.59311 31.9366 7.09373 30.734 7.6893 30.0636C7.74109 30.0061 7.81014 29.9658 7.88782 29.9485L10.2125 29.4364C10.342 29.4076 10.4772 29.4508 10.5693 29.5515C10.6585 29.6493 10.6873 29.7903 10.647 29.9169L9.41557 33.6226C8.31075 37.0924 8.89481 40.0674 11.0181 41.7821C13.4176 43.7184 17.3104 43.6235 20.9384 41.5376C20.996 41.5031 21.0593 41.4858 21.1226 41.4858Z" fill="#371A45"/>
<path d="M34.3917 15.7412C34.1702 17.2315 33.7271 18.6413 32.9992 19.1276C32.4755 19.4757 28.8389 19.4814 28.8389 19.4814L31.6527 10.0876C31.6527 10.0876 31.8915 10.1567 32.231 10.2718C32.933 10.5135 34.058 10.9623 34.3169 11.4514C34.5989 11.9779 34.6593 13.92 34.3917 15.7412Z" fill="white"/>
<g opacity="0.2">
<path d="M34.3917 15.7412C34.1702 17.2315 33.7271 18.6413 32.9992 19.1276C32.4755 19.4757 28.8389 19.4814 28.8389 19.4814L31.6527 10.0876C31.6527 10.0876 31.8915 10.1567 32.231 10.2718C32.5475 11.4169 32.8812 13.1374 32.8179 15.1658C32.7748 16.564 33.7328 16.6619 34.3917 15.7412Z" fill="#371A45"/>
</g>
<path d="M28.8389 19.867C28.718 19.867 28.603 19.8095 28.531 19.7116C28.4591 19.6138 28.4361 19.4901 28.4706 19.3721L31.2844 9.97834C31.3449 9.77694 31.5549 9.66186 31.7563 9.7194C32.1648 9.83449 34.2162 10.4444 34.6535 11.2702C35.2433 12.3779 35.0391 18.2242 33.2121 19.4441C32.6539 19.8181 29.9696 19.8641 28.8389 19.867ZM31.9088 10.5682L29.3539 19.0959C30.8874 19.0729 32.513 18.9665 32.7892 18.8082C34.2047 17.8645 34.4262 12.4728 33.9774 11.6327C33.7962 11.2903 32.7431 10.8386 31.9088 10.5682Z" fill="#371A45"/>
<path d="M19.8163 26.5822C27.0192 26.5822 32.8582 20.7432 32.8582 13.5403C32.8582 6.33738 27.0192 0.498291 19.8163 0.498291C12.6134 0.498291 6.77429 6.33738 6.77429 13.5403C6.77429 20.7432 12.6134 26.5822 19.8163 26.5822Z" fill="white"/>
<g opacity="0.2">
<path d="M7.15405 16.6791C8.50054 22.1255 13.2881 26.28 19.1804 26.5677C26.3761 26.9187 32.4928 21.3688 32.841 14.1731C32.9791 11.3622 32.2166 8.71809 30.8068 6.51709C29.3798 12.9532 20.8952 17.5911 10.8972 17.1049C9.61399 17.0416 8.36244 16.8977 7.15405 16.6791Z" fill="#371A45"/>
</g>
<path d="M19.822 26.8555C19.6034 26.8555 19.3876 26.8497 19.1661 26.8382C15.6128 26.6656 12.3415 25.1206 9.95065 22.4851C7.56264 19.8526 6.34274 16.4432 6.51537 12.8928C6.688 9.33957 8.23301 6.06829 10.8685 3.6774C13.501 1.28652 16.9104 0.0666206 20.4636 0.239248C24.0169 0.411875 27.2882 1.95689 29.679 4.59233C32.0699 7.22777 33.2898 10.6343 33.1172 14.1875C32.7691 21.2998 26.871 26.8555 19.822 26.8555ZM19.8019 0.768637C16.6256 0.768637 13.6046 1.93099 11.2367 4.0802C8.71061 6.37326 7.2289 9.5122 7.06202 12.9187C6.89515 16.3252 8.06614 19.5936 10.3592 22.1197C12.6494 24.6458 15.7883 26.1276 19.1948 26.2944C19.4049 26.3059 19.6149 26.3088 19.822 26.3088C26.5804 26.3088 32.2368 20.9833 32.5677 14.1616C32.7345 10.7551 31.5636 7.48671 29.2705 4.9606C26.9803 2.43449 23.8414 0.949896 20.4349 0.7859C20.2248 0.774392 20.0119 0.768637 19.8019 0.768637Z" fill="#371A45"/>
<path d="M19.8306 26.9649C19.6091 26.9649 19.3876 26.9591 19.1631 26.9476C15.5811 26.7721 12.2811 25.2156 9.87293 22.5571C7.4619 19.9044 6.2305 16.4692 6.406 12.8871C6.58151 9.30513 8.13803 6.00508 10.7965 3.59693C13.4521 1.1859 16.8873 -0.0455034 20.4665 0.130001C23.7867 0.291119 26.9141 1.66926 29.2705 4.00836C31.9692 6.68408 33.4106 10.3984 33.2236 14.1905C33.2207 14.2624 33.215 14.3343 33.2121 14.4063C33.1488 15.3874 32.9791 16.3598 32.7057 17.2949C31.4945 21.461 28.321 24.7984 24.2125 26.2255C22.7998 26.7175 21.3296 26.9649 19.8306 26.9649ZM19.8019 0.878052C16.6543 0.878052 13.6592 2.03178 11.3115 4.16084C8.80552 6.43377 7.33819 9.54393 7.17132 12.9217C7.00732 16.2994 8.1668 19.539 10.4397 22.0421C12.7126 24.5481 15.8228 26.0154 19.2005 26.1823C20.8319 26.2629 22.4344 26.0327 23.9622 25.5033C27.8348 24.1597 30.8299 21.0092 31.9692 17.082C32.2253 16.2016 32.3864 15.2838 32.4468 14.3574C32.4526 14.2883 32.4554 14.2192 32.4583 14.1531C32.6309 10.5739 31.2729 7.07536 28.7296 4.55213C26.5084 2.34538 23.5623 1.0478 20.432 0.895314C20.219 0.883806 20.009 0.878052 19.8019 0.878052Z" fill="#371A45"/>
<path d="M21.0823 26.398C20.8492 26.398 20.6162 26.3923 20.3802 26.3808C16.827 26.2081 13.55 24.7523 11.1504 22.2838C8.74805 19.8094 7.51377 16.6158 7.67489 13.287C7.836 9.96106 9.37526 6.89981 12.0078 4.67004C14.6346 2.44315 18.0383 1.31532 21.5915 1.48795C24.3449 1.62317 26.9487 2.52947 29.1238 4.11476C29.1324 4.12051 29.1411 4.12627 29.1468 4.1349C31.8082 6.77609 33.2323 10.4387 33.0482 14.1847C33.0453 14.2566 33.0396 14.3285 33.0367 14.3976C33.0367 14.4292 33.0338 14.4724 33.0338 14.5155C32.9878 15.4506 32.8209 16.3684 32.5361 17.2517C31.3421 21.3573 28.2089 24.6516 24.155 26.0585C24.1464 26.0614 24.1406 26.0643 24.132 26.0643C23.1365 26.2858 22.1123 26.398 21.0823 26.398ZM20.8837 1.87924C17.6873 1.87924 14.6519 2.96679 12.2754 4.98077C9.72915 7.13861 8.24168 10.0934 8.08631 13.3043C7.93095 16.518 9.12208 19.6023 11.4468 21.9932C13.7744 24.3869 16.9536 25.7996 20.4004 25.9665C21.6289 26.0269 22.8488 25.9233 24.0342 25.6644C27.9557 24.2977 30.9882 21.1099 32.1448 17.128C32.421 16.2735 32.5792 15.3902 32.6253 14.4954C32.6281 14.4551 32.6281 14.4177 32.6281 14.3803C32.6339 14.2969 32.6368 14.2278 32.6396 14.1588C32.8151 10.5365 31.4428 6.99188 28.8706 4.43412C26.7617 2.90637 24.2385 2.02597 21.5714 1.8965C21.3412 1.88499 21.111 1.87924 20.8837 1.87924Z" fill="#371A45"/>
<path d="M9.14506 13.3562C8.84584 19.4643 13.9067 24.6777 20.4464 24.9941C25.9906 25.2646 30.8155 21.93 32.3375 17.1885C32.6108 16.3369 32.7806 15.4392 32.8237 14.507C32.8266 14.4639 32.8266 14.4236 32.8266 14.3804C33.051 8.32699 28.0132 3.18558 21.5195 2.86909C14.9856 2.55549 9.4414 7.24807 9.14506 13.3562Z" fill="#371A45"/>
<path d="M9.14506 13.3562C8.84584 19.4644 13.9067 24.6777 20.4464 24.9942C25.3634 25.233 29.7193 22.6378 31.7017 18.7364C29.236 21.1072 25.7259 22.5055 21.9022 22.3185C15.1295 21.9876 9.82118 16.8059 9.6687 10.5654C9.37235 11.4516 9.19109 12.3866 9.14506 13.3562Z" fill="#220F2D"/>
<g opacity="0.5">
<path d="M17.0715 6.87117C17.2355 7.80048 19.5401 7.15888 23.6112 8.31549C26.4538 9.12396 28.2002 11.9809 29.3338 11.2156C30.4674 10.4503 28.111 7.04668 25.303 5.72032C20.9787 3.67757 16.9104 5.94186 17.0715 6.87117Z" fill="white"/>
</g>
<g opacity="0.5">
<path d="M13.3115 17.5721C14.1255 17.4502 14.6542 16.4749 14.4923 15.3937C14.3304 14.3125 13.5392 13.5348 12.7252 13.6567C11.9111 13.7786 11.3825 14.7539 11.5444 15.8351C11.7063 16.9163 12.4974 17.694 13.3115 17.5721Z" fill="white"/>
</g>
<g opacity="0.5">
<path d="M14.25 19.826C14.6107 19.6378 14.7273 19.1484 14.5105 18.7328C14.2937 18.3172 13.8256 18.1328 13.4649 18.321C13.1043 18.5091 12.9876 18.9985 13.2044 19.4141C13.4212 19.8297 13.8893 20.0141 14.25 19.826Z" fill="white"/>
</g>
<path d="M6.33704 11.0918L6.68804 16.2188L6.90671 19.4124L8.68189 19.585L8.84876 19.6023C9.62846 19.5332 10.1233 17.4502 9.9507 14.9529C9.94782 14.8953 9.94207 14.8378 9.93631 14.7831C9.74354 12.3692 8.98686 10.4933 8.22443 10.5624L8.06043 10.6084L6.33704 11.0918Z" fill="white"/>
<g opacity="0.2">
<path d="M6.68799 16.2188L6.90665 19.4124L8.68183 19.585L8.8487 19.6023C9.6284 19.5332 10.1233 17.4502 9.95064 14.9529C9.94776 14.8953 9.94201 14.8378 9.93625 14.7831L9.83268 14.4839C9.83268 14.4839 9.59675 15.5484 9.0875 15.6923C8.54948 15.8448 8.20998 14.5501 8.20998 14.5501L6.68799 16.2188Z" fill="#371A45"/>
</g>
<path d="M8.85154 19.9821C8.84003 19.9821 8.82565 19.9821 8.81414 19.9792L6.87208 19.7922C6.68507 19.7749 6.53834 19.6253 6.52683 19.4383L5.95428 11.1177C5.94277 10.9364 6.05786 10.7724 6.23336 10.7235L8.12651 10.1884C8.14952 10.1826 8.17254 10.1769 8.19556 10.1769C8.36818 10.1596 8.63288 10.1941 8.91484 10.4329C9.63412 11.0458 10.1894 12.8066 10.3361 14.9213C10.4973 17.2805 10.1146 19.867 8.88607 19.9792C8.87456 19.9821 8.86305 19.9821 8.85154 19.9821ZM7.26913 19.0614L8.84003 19.2139C9.15939 19.119 9.75496 17.6459 9.57082 14.9759C9.42696 12.9015 8.88319 11.414 8.4171 11.017C8.36531 10.9738 8.31927 10.948 8.28475 10.9393L6.73974 11.3766L7.26913 19.0614Z" fill="#371A45"/>
<path d="M5.29264 14.7717C5.2984 14.9702 5.30703 15.1688 5.32141 15.3702C5.47966 17.6661 6.1903 19.4758 6.90958 19.4096C7.60585 19.3463 8.05755 17.5366 7.93672 15.3241C7.93384 15.2608 7.92808 15.1975 7.92521 15.1314C7.76697 12.8354 7.05632 11.0257 6.33704 11.089C5.68105 11.1523 5.24661 12.7491 5.29264 14.7717Z" fill="white"/>
<g opacity="0.2">
<path d="M5.29553 14.7744C5.29841 14.9701 5.30704 15.1686 5.32143 15.3729C5.47967 17.6688 6.19032 19.4785 6.9096 19.4123C7.60586 19.349 8.05757 17.5393 7.93673 15.3268C7.63751 16.1382 7.01029 17.571 6.38884 17.1711C6.02344 16.9323 5.59763 15.7584 5.29553 14.7744Z" fill="#371A45"/>
</g>
<path d="M6.87214 19.7951C6.71102 19.7951 6.48948 19.7462 6.25643 19.5476C5.58894 18.9808 5.07106 17.3495 4.93871 15.396C4.7891 13.2122 5.15162 10.8156 6.29959 10.7091C6.46359 10.6947 6.71677 10.7235 6.98434 10.9537C7.65184 11.5205 8.16972 13.1518 8.30206 15.1054C8.45167 17.2891 8.08916 19.6857 6.94119 19.7922C6.92105 19.7951 6.89803 19.7951 6.87214 19.7951ZM6.37439 11.4744C6.37152 11.4744 6.37152 11.4744 6.37439 11.4744C6.10107 11.5003 5.53428 12.8842 5.70403 15.3442C5.83637 17.2459 6.33124 18.6039 6.75417 18.9665C6.81172 19.0154 6.85775 19.0326 6.87501 19.0298C7.14546 19.0039 7.71225 17.62 7.5425 15.16C7.41016 13.2583 6.91529 11.9003 6.49236 11.5377C6.43481 11.4888 6.39166 11.4744 6.37439 11.4744Z" fill="#371A45"/>
<path d="M31.1061 32.4602C30.102 32.8429 29.6935 32.0114 29.6935 32.0114C29.6935 32.0114 28.5714 32.5609 28.275 31.6345C28.275 31.6345 27.4723 32.3653 26.6495 31.5136C26.6495 31.5136 25.3692 31.8445 25.3087 30.4031C25.303 30.2506 25.3116 30.0779 25.3346 29.8823C25.5878 27.8482 27.3544 26.939 28.5196 26.8987C28.8131 26.8901 29.1324 26.9361 29.4489 27.0282C30.3868 27.3015 31.3392 27.9748 31.7938 28.7717C32.1678 29.4421 32.1102 32.0804 31.1061 32.4602Z" fill="white"/>
<path d="M30.5997 32.9349C30.1221 32.9349 29.7711 32.7048 29.5553 32.4602C29.2878 32.5408 28.8907 32.6069 28.5282 32.4516C28.4074 32.3998 28.2635 32.3106 28.1369 32.161C27.6967 32.3595 27.0868 32.3911 26.5257 31.9107C26.2582 31.9366 25.7892 31.9222 25.4209 31.5971C25.0181 31.2432 24.8656 30.6534 24.9663 29.8391C25.2541 27.5058 27.2882 26.5707 28.5052 26.5305C29.8229 26.4844 31.4427 27.4109 32.116 28.5933C32.467 29.2119 32.467 30.7771 32.116 31.7553C31.9175 32.3077 31.6211 32.6616 31.2385 32.8083C31.0054 32.8975 30.7925 32.9349 30.5997 32.9349ZM29.6906 31.6431C29.8287 31.6431 29.961 31.7179 30.0243 31.8502C30.0675 31.9337 30.3322 32.3595 30.9709 32.1149C31.1378 32.0516 31.296 31.833 31.414 31.505C31.7218 30.6447 31.6672 29.3126 31.4686 28.9616C30.9392 28.0266 29.5669 27.2353 28.5282 27.2727C27.5586 27.3044 25.9331 28.0582 25.7029 29.9312C25.6367 30.475 25.7058 30.8576 25.9072 31.036C26.1488 31.2518 26.5545 31.1569 26.5574 31.154C26.684 31.1223 26.8221 31.1626 26.9141 31.2576C27.4694 31.833 27.9672 31.41 28.0218 31.3611C28.1139 31.2748 28.2463 31.2432 28.3671 31.2777C28.4879 31.3093 28.5858 31.4014 28.626 31.5223C28.6807 31.692 28.7613 31.7438 28.8159 31.7668C29.0403 31.8646 29.4144 31.7294 29.5295 31.6747C29.5841 31.6546 29.6388 31.6431 29.6906 31.6431Z" fill="#371A45"/>
<path d="M26.2783 31.4878C26.4912 30.7455 26.7646 29.9427 27.4004 29.468C26.9861 30.0636 26.9803 30.8548 27.0177 31.5482L26.2783 31.4878Z" fill="#371A45"/>
<path d="M27.9039 31.6172C28.0823 30.9353 28.347 30.239 28.839 29.7327C28.5772 30.3397 28.5772 31.0216 28.6462 31.6603C28.6433 31.6603 27.9039 31.6172 27.9039 31.6172Z" fill="#371A45"/>
<path d="M29.3223 31.9797C29.5352 31.2777 29.8085 30.4922 30.4501 30.0808C30.0214 30.6246 30.0272 31.3899 30.0617 32.043C30.0617 32.0459 29.3223 31.9797 29.3223 31.9797Z" fill="#371A45"/>
<g opacity="0.2">
<path d="M31.1061 32.4601C30.102 32.8427 29.6934 32.0112 29.6934 32.0112C29.6934 32.0112 28.5714 32.5608 28.275 31.6343C28.275 31.6343 27.4723 32.3651 26.6495 31.5135C26.6495 31.5135 25.3691 31.8444 25.3087 30.4029L25.3922 30.2735C25.3922 30.2735 26.753 30.7626 27.0983 29.8649L27.2335 29.652C27.2335 29.652 27.2047 31.2085 28.557 30.2763L28.6951 29.9656C28.6951 29.9656 28.557 31.384 30.0732 30.7309L30.2113 30.3396C30.2113 30.3396 30.2343 31.3438 30.9968 31.0445C31.7592 30.7424 31.4514 27.6121 29.4431 27.2554C28.721 27.1259 28.9051 27.0511 29.4489 27.0281C30.3868 27.3014 31.3392 27.9746 31.7937 28.7716C32.1678 29.442 32.1102 32.0803 31.1061 32.4601Z" fill="#371A45"/>
</g>
<path d="M7.66916 30.0952L9.29761 28.4495L8.27336 30.5267C7.98852 31.0302 7.28363 30.5267 7.66916 30.0952Z" fill="#371A45"/>
<path d="M9.96224 29.6349L11.3174 27.7158L10.6269 29.9628C10.4283 30.5037 9.65439 30.124 9.96224 29.6349Z" fill="#371A45"/>
<path d="M7.97129 30.6275C7.85045 30.6275 7.73249 30.5556 7.6807 30.4376C6.52122 27.8108 3.8081 26.6859 3.78221 26.6743C3.62109 26.6082 3.54053 26.424 3.6067 26.2629C3.67288 26.1018 3.85701 26.0212 4.01813 26.0874C4.13897 26.1363 6.99307 27.3159 8.259 30.1816C8.33093 30.3427 8.25612 30.5297 8.09788 30.5987C8.0576 30.6189 8.01445 30.6275 7.97129 30.6275Z" fill="#371A45"/>
<path d="M28.1198 44.7943C27.2192 44.9496 26.3158 45.2201 25.5217 45.6977C26.1921 45.0014 27.0322 44.4835 27.9155 44.0807C28.4362 43.8822 28.6693 44.6849 28.1198 44.7943Z" fill="#371A45"/>
<path d="M23.6948 49.1216C22.9295 49.1216 21.7585 48.7936 21.2694 47.496C21.1974 47.3032 21.2924 47.0903 21.4851 47.0184C21.6779 46.9465 21.8908 47.0414 21.9627 47.2342C22.4605 48.5519 23.8616 48.3735 23.9221 48.3649C23.9364 48.362 23.9566 48.362 23.971 48.362C24.017 48.362 28.5715 48.3217 30.3006 48.362C31.6845 48.3965 31.8428 47.6657 31.8428 47.66C31.8773 47.4586 32.0672 47.3205 32.2686 47.355C32.47 47.3895 32.6081 47.5794 32.5736 47.7808C32.5649 47.8355 32.3261 49.1503 30.2805 49.1043C28.629 49.0669 24.3565 49.1014 23.9969 49.1043C23.9106 49.1129 23.807 49.1216 23.6948 49.1216Z" fill="#371A45"/>
<path d="M20.7543 41.8944L20.8463 38.9856L21.4937 41.8224C21.5886 42.372 20.7629 42.4525 20.7543 41.8944Z" fill="#371A45"/>
<path d="M23.9537 34.3705C22.774 34.1403 21.5024 34.4396 20.5443 35.1646C20.4148 35.2595 20.1587 35.4638 20.0321 35.5645C18.4267 36.7815 16.5767 37.6044 14.6951 38.2834C14.6548 38.2978 14.6088 38.2748 14.5944 38.2345C14.5829 38.1971 14.5973 38.1597 14.6289 38.1395C16.1193 37.2332 17.6096 36.3068 19.0252 35.3056C19.2668 35.1301 19.5574 34.9172 19.7905 34.733C20.6162 34.0598 21.6405 33.6167 22.7107 33.5419C23.1941 33.5074 23.6775 33.5333 24.1522 33.6541C24.624 33.798 24.4341 34.4914 23.9537 34.3705Z" fill="#371A45"/>
<path d="M26.4107 35.9731C24.4313 35.6422 22.4691 36.5025 21.6549 38.3985C21.3815 38.9941 21.2089 39.6414 21.1111 40.3031C21.0967 40.3952 21.0104 40.4585 20.9183 40.447C20.8291 40.4326 20.7658 40.3521 20.7745 40.26C20.8522 39.5724 21.0046 38.8847 21.2751 38.2345C22.1123 36.091 24.2989 35.0466 26.5287 35.3516C26.9545 35.4293 26.8366 36.0536 26.4107 35.9731Z" fill="#371A45"/>
<path d="M18.3433 36.6637H15.7049C14.8389 36.6637 14.134 35.9588 14.134 35.0928V30.6649C14.134 29.609 14.9943 28.7488 16.0502 28.7488H21.9425C22.938 28.7488 23.7494 29.5601 23.7494 30.5556V33.919H23.0071V30.5556C23.0071 29.9687 22.5295 29.4911 21.9425 29.4911H16.0531C15.4057 29.4911 14.8792 30.0176 14.8792 30.6649V35.0928C14.8792 35.5503 15.2504 35.9214 15.7078 35.9214H18.3461V36.6637H18.3433Z" fill="#371A45"/>
<path d="M14.9885 34.2469C15.5611 33.6945 15.5927 32.6242 15.1583 32.0833C15.0029 31.8906 14.7526 31.7985 14.5081 31.8388C12.7588 32.1236 10.8081 31.4964 10.0083 31.1972C9.70903 31.085 9.36953 31.1655 9.16526 31.4101C8.81713 31.8273 8.75671 32.4315 8.90056 33.168C8.94372 33.3924 9.09045 33.5823 9.29185 33.6888C9.91331 34.0196 11.5015 34.6267 14.534 34.4426C14.7037 34.4339 14.8677 34.3649 14.9885 34.2469Z" fill="white"/>
<path d="M13.4407 34.8482C11.0728 34.8482 9.73784 34.3476 9.11638 34.0167C8.8114 33.8556 8.5985 33.5708 8.5352 33.2399C8.36257 32.348 8.47766 31.6546 8.88046 31.1741C9.18255 30.8116 9.68893 30.6821 10.1378 30.8519C10.8772 31.131 12.779 31.7467 14.4477 31.4762C14.8275 31.4158 15.2101 31.5597 15.446 31.8531C16.0215 32.5666 15.9236 33.8614 15.2446 34.5145C15.0605 34.6928 14.816 34.7993 14.557 34.8137C14.1628 34.8367 13.7917 34.8482 13.4407 34.8482ZM9.73496 31.5194C9.62563 31.5194 9.51918 31.5654 9.45012 31.6488C9.19982 31.9509 9.13652 32.4372 9.26599 33.0989C9.28901 33.2111 9.36093 33.3061 9.46739 33.3636C9.98527 33.6369 11.513 34.2555 14.5139 34.0743C14.5973 34.0685 14.675 34.034 14.7325 33.9822C15.1727 33.5564 15.1785 32.699 14.8706 32.3192C14.8016 32.2329 14.6836 32.1897 14.5685 32.207C12.7214 32.5062 10.6729 31.8445 9.87882 31.5453C9.8299 31.528 9.78099 31.5194 9.73496 31.5194Z" fill="#371A45"/>
<path d="M17.7937 36.6091C16.8443 36.6091 16.0703 35.8351 16.0703 34.8857V30.5269C16.0703 29.5774 16.8443 28.8035 17.7937 28.8035H18.2109C18.3864 28.8035 18.5274 28.9444 18.5274 29.1199C18.5274 29.2955 18.3864 29.4364 18.2109 29.4364H17.7937C17.1924 29.4364 16.7033 29.9255 16.7033 30.5269V34.8857C16.7033 35.487 17.1924 35.9761 17.7937 35.9761C17.9692 35.9761 18.1102 36.1171 18.1102 36.2926C18.1102 36.4681 17.9692 36.6091 17.7937 36.6091Z" fill="#371A45"/>
<path d="M20.9442 34.7273C20.7687 34.7273 20.6277 34.5863 20.6277 34.4108V33.1247L18.9216 32.1062C18.8267 32.0487 18.7662 31.9451 18.7662 31.8329V29.2982C18.7662 29.1227 18.9072 28.9817 19.0827 28.9817C19.2582 28.9817 19.3992 29.1227 19.3992 29.2982V31.6545L21.1053 32.673C21.2003 32.7306 21.2607 32.8341 21.2607 32.9464V34.4108C21.2607 34.5834 21.1197 34.7273 20.9442 34.7273Z" fill="#371A45"/>
<path d="M21.8447 32.0833C21.3872 32.0833 21.0132 31.669 21.0132 31.1569C21.0132 30.6476 21.3872 30.2305 21.8447 30.2305C22.3021 30.2305 22.6762 30.6448 22.6762 31.1569C22.6762 31.6661 22.305 32.0833 21.8447 32.0833ZM21.8447 30.8634C21.7497 30.8634 21.6461 30.9843 21.6461 31.1569C21.6461 31.3295 21.7497 31.4504 21.8447 31.4504C21.9396 31.4504 22.0432 31.3295 22.0432 31.1569C22.0432 30.9843 21.9396 30.8634 21.8447 30.8634Z" fill="#371A45"/>
<path d="M23.0157 30.6245L23.9163 27.4165L23.7465 30.7453C23.6948 31.292 22.892 31.1596 23.0157 30.6245Z" fill="#371A45"/>
<path d="M24.5693 33.3349C24.5434 33.3349 24.5146 33.332 24.4888 33.3263C24.2902 33.2802 24.1636 33.0846 24.2068 32.8832C24.2471 32.6991 24.296 32.1524 24.0514 31.8129C23.9133 31.623 23.6975 31.5137 23.3897 31.4792C23.1854 31.4561 23.0387 31.272 23.0617 31.0706C23.0847 30.8663 23.266 30.7196 23.4703 30.7426C23.9939 30.8002 24.3938 31.0159 24.6556 31.3842C25.1419 32.0632 24.9376 33.004 24.929 33.0443C24.8916 33.2169 24.7391 33.3349 24.5693 33.3349Z" fill="#371A45"/>
<g opacity="0.2">
<path d="M18.211 26.5852C18.211 26.5852 14.229 26.9305 10.9808 25.0028C10.9808 25.0028 6.901 25.1294 4.76042 29.7989C2.61985 34.4714 3.53189 35.6193 5.51423 34.9864C5.51423 34.9864 5.28694 35.4208 4.97045 35.9732C4.40942 36.4393 3.52039 36.727 2.26596 35.838C-0.110537 34.1549 0.76123 32.1726 1.57258 30.2909C2.3868 28.4093 4.85537 22.8075 11.444 23.2708C11.4468 23.2708 11.4468 23.2708 11.4468 23.2708C13.3688 25.0603 15.6474 26.1133 18.211 26.5852Z" fill="#371A45"/>
</g>
<g opacity="0.2">
<path d="M29.2303 50.1976H22.6791C22.6791 50.1976 21.6577 50.5141 21.6376 48.1578C21.6174 45.8014 21.1226 41.8597 21.1226 41.8597C15.6474 45.0073 10.2039 43.5515 8.82864 39.1639L8.07484 39.0891C6.71971 38.9539 5.67244 37.967 5.3761 36.7327C5.3761 36.7298 5.3761 36.727 5.3761 36.727C5.3761 36.727 8.16115 36.8334 8.66465 35.0956C8.69629 34.9921 8.71931 34.8799 8.73082 34.759V34.7533C8.9466 32.6587 8.87755 32.0114 8.87755 32.0114C8.87755 32.0114 9.94496 30.7569 10.1118 30.3541C10.1176 30.3369 10.1233 30.3225 10.1291 30.3081C10.1291 30.3052 10.132 30.3024 10.132 30.2995C10.155 30.2132 10.2068 30.0578 10.2758 29.8708L10.2787 29.8679C10.483 29.2954 10.8139 28.4437 10.8139 28.4437L11.1505 28.0668L11.6453 27.6525L12.1488 27.2354C12.1488 27.2354 11.7604 28.0208 11.5331 28.9645C11.4094 29.4737 11.3346 30.0319 11.3979 30.5325C11.4583 31.0274 11.6511 31.4705 12.0568 31.7611L11.3058 31.5856L10.9951 31.5136C10.9951 31.5136 9.64574 33.565 11.0785 34.221C11.1534 34.2555 11.2368 34.2872 11.326 34.3131L11.9187 34.3936C11.9187 34.3936 9.44434 38.2288 12.4941 39.7364C15.5438 41.2412 21.1312 38.4302 21.1312 38.4302C21.1312 38.4302 23.5998 36.304 24.0285 40.1824C24.4571 44.0579 23.033 47.5305 25.0124 48.5059C26.9919 49.4841 30.9825 48.5059 30.9825 48.5059C30.9825 48.5059 31.1407 49.6539 29.2303 50.1976Z" fill="#371A45"/>
</g>
<g opacity="0.2">
<path d="M20.8463 42.0122L20.596 43.0336L20.5931 43.0393C20.5931 43.0393 20.5931 43.0393 20.5903 43.0422C20.5298 43.1141 18.5015 45.482 14.836 45.0706C14.836 45.0706 11.8524 50.8651 12.2754 53.1006C12.6983 55.339 13.8923 55.9346 15.305 55.6354C16.7148 55.339 18.4554 54.8326 18.9589 53.2128C19.2351 53.9264 19.2495 54.7809 19.0078 55.5318C18.7431 56.3604 17.9606 56.9099 17.0946 56.9099H10.9979C10.0571 56.9099 9.22564 56.2626 9.02999 55.3419C8.91491 54.7981 8.93793 54.0817 9.23715 53.1467C9.93629 50.9744 11.8956 45.9826 12.9314 43.376C12.9342 43.376 17.529 44.7656 20.8463 42.0122Z" fill="#371A45"/>
</g>
<path d="M50.9525 36.4133H38.0371V74.282H50.9525V36.4133Z" fill="#2AEA33"/>
<g opacity="0.3">
<path d="M50.9525 71.8535H38.0371V74.2818H50.9525V71.8535Z" fill="#000070"/>
</g>
<g opacity="0.6">
<path d="M50.9525 36.4133H38.0371V37.7598H50.9525V36.4133Z" fill="white"/>
</g>
<path d="M50.9525 74.6529H38.0372C37.8329 74.6529 37.666 74.486 37.666 74.2818V36.4131C37.666 36.2089 37.8329 36.042 38.0372 36.042H50.9525C51.1568 36.042 51.3237 36.2089 51.3237 36.4131V74.2818C51.3237 74.4889 51.1597 74.6529 50.9525 74.6529ZM38.4083 73.9106H50.5814V36.7843H38.4083V73.9106Z" fill="#D7D1DA"/>
<path d="M45.4054 22.1917H43.5842V36.4132H45.4054V22.1917Z" fill="#D7D1DA"/>
<path d="M45.4054 74.282H43.5842V88.5036H45.4054V74.282Z" fill="#D7D1DA"/>
<path d="M34.8464 50.2119H21.931V78.986H34.8464V50.2119Z" fill="#2AEA33"/>
<g opacity="0.3">
<path d="M34.8464 76.5547H21.931V78.983H34.8464V76.5547Z" fill="#000070"/>
</g>
<g opacity="0.6">
<path d="M34.8464 50.2119H21.931V51.5584H34.8464V50.2119Z" fill="white"/>
</g>
<path d="M34.8465 79.3572H21.9311C21.7268 79.3572 21.5599 79.1903 21.5599 78.986V50.212C21.5599 50.0077 21.7268 49.8408 21.9311 49.8408H34.8465C35.0507 49.8408 35.2176 50.0077 35.2176 50.212V78.986C35.2176 79.1903 35.0507 79.3572 34.8465 79.3572ZM22.3022 78.6149H34.4753V50.5831H22.3022V78.6149Z" fill="#D7D1DA"/>
<path d="M29.2994 78.9858H27.4781V93.2074H29.2994V78.9858Z" fill="#D7D1DA"/>
<path d="M18.8294 56.9126H5.91406V88.1149H18.8294V56.9126Z" fill="#2AEA33"/>
<g opacity="0.3">
<path d="M18.8294 85.6838H5.91406V88.1121H18.8294V85.6838Z" fill="#000070"/>
</g>
<g opacity="0.6">
<path d="M18.8294 56.9126H5.91406V58.2591H18.8294V56.9126Z" fill="white"/>
</g>
<path d="M18.8295 88.4862H5.91412C5.70984 88.4862 5.54297 88.3193 5.54297 88.115V56.9126C5.54297 56.7084 5.70984 56.5415 5.91412 56.5415H18.8295C19.0338 56.5415 19.2007 56.7084 19.2007 56.9126V88.115C19.2007 88.3193 19.0338 88.4862 18.8295 88.4862ZM6.28527 87.7439H18.4584V57.2838H6.28527V87.7439Z" fill="#D7D1DA"/>
<path d="M13.2796 88.115H11.4584V100.113H13.2796V88.115Z" fill="#D7D1DA"/>
</svg>
