<svg width="621" height="621" viewBox="0 0 621 621" fill="none" xmlns="http://www.w3.org/2000/svg">
<path d="M582.341 310.458C582.341 353.338 572.193 395.609 552.726 433.815C533.259 472.021 505.026 505.078 470.335 530.282L310.624 310.458H582.341Z" fill="url(#paint0_linear_395_3480)"/>
<path d="M490.411 179.835C517.996 217.802 532.853 263.528 532.853 310.458L310.624 310.458L490.411 179.835Z" fill="url(#paint1_linear_395_3480)"/>
<path d="M390.838 63.5841C442.973 80.5236 488.406 113.533 520.627 157.881L310.624 310.458L390.838 63.5841Z" fill="url(#paint2_linear_395_3480)"/>
<path d="M233.251 72.3284C283.539 55.9889 337.709 55.9888 387.997 72.3284L310.624 310.458L233.251 72.3284Z" fill="url(#paint3_linear_395_3480)"/>
<path d="M130.837 179.835C158.422 141.868 197.319 113.608 241.952 99.1057L310.624 310.458L130.837 179.835Z" fill="url(#paint4_linear_395_3480)"/>
<path d="M51.0459 310.458C51.0459 255.64 68.3999 202.23 100.621 157.882L310.624 310.458L51.0459 310.458Z" fill="url(#paint5_linear_395_3480)"/>
<path d="M492.837 561.253C446.585 594.857 391.941 615.017 334.946 619.502C277.952 623.988 220.827 612.625 169.887 586.67C118.947 560.715 76.1773 521.179 46.3055 472.432C16.4338 423.686 0.624005 367.629 0.624023 310.458L310.624 310.458L492.837 561.253Z" fill="url(#paint6_linear_395_3480)"/>
<circle opacity="0.15" cx="310.624" cy="302.054" r="71.8976" fill="black"/>
<g filter="url(#filter0_dddi_395_3480)">
<circle cx="311.166" cy="313.168" r="124.108" fill="#030303"/>
<circle cx="311.166" cy="313.168" r="124.108" fill="url(#paint7_radial_395_3480)"/>
<circle cx="311.166" cy="313.168" r="124.108" fill="url(#paint8_radial_395_3480)"/>
<circle cx="311.166" cy="313.168" r="124.108" fill="url(#paint9_radial_395_3480)" fill-opacity="0.2"/>
<circle cx="311.166" cy="313.168" r="124.108" fill="url(#paint10_radial_395_3480)" fill-opacity="0.4"/>
</g>
<path d="M290.899 367.066V379.486H288.163V367.066H290.899ZM294.643 367.066V369.226H284.419V367.066H294.643ZM300.975 366.814C301.959 366.814 302.793 366.922 303.477 367.138C304.161 367.342 304.707 367.69 305.115 368.182C305.535 368.662 305.841 369.322 306.033 370.162C306.225 370.99 306.321 372.028 306.321 373.276C306.321 374.512 306.225 375.55 306.033 376.39C305.841 377.218 305.535 377.878 305.115 378.37C304.707 378.862 304.161 379.21 303.477 379.414C302.793 379.618 301.959 379.72 300.975 379.72C299.991 379.72 299.157 379.618 298.473 379.414C297.789 379.21 297.237 378.862 296.817 378.37C296.397 377.878 296.091 377.218 295.899 376.39C295.719 375.55 295.629 374.512 295.629 373.276C295.629 372.028 295.719 370.99 295.899 370.162C296.091 369.322 296.397 368.662 296.817 368.182C297.237 367.69 297.789 367.342 298.473 367.138C299.157 366.922 299.991 366.814 300.975 366.814ZM300.975 368.974C300.339 368.974 299.841 369.1 299.481 369.352C299.133 369.604 298.881 370.042 298.725 370.666C298.581 371.29 298.509 372.16 298.509 373.276C298.509 374.38 298.581 375.244 298.725 375.868C298.881 376.492 299.133 376.93 299.481 377.182C299.841 377.434 300.339 377.56 300.975 377.56C301.599 377.56 302.091 377.434 302.451 377.182C302.811 376.93 303.063 376.492 303.207 375.868C303.351 375.244 303.423 374.38 303.423 373.276C303.423 372.16 303.351 371.29 303.207 370.666C303.063 370.042 302.811 369.604 302.451 369.352C302.091 369.1 301.599 368.974 300.975 368.974ZM313.804 367.066V379.486H311.068V367.066H313.804ZM317.548 367.066V369.226H307.324V367.066H317.548ZM323.991 367.066C324.219 367.066 324.417 367.132 324.585 367.264C324.765 367.384 324.885 367.558 324.945 367.786L328.545 379.486H325.737L323.199 370.342C323.151 370.15 323.103 369.952 323.055 369.748C323.007 369.532 322.965 369.328 322.929 369.136H322.443C322.407 369.328 322.365 369.532 322.317 369.748C322.281 369.952 322.233 370.15 322.173 370.342L319.635 379.486H316.827L320.427 367.786C320.487 367.558 320.601 367.384 320.769 367.264C320.949 367.132 321.153 367.066 321.381 367.066H323.991ZM325.899 374.14V376.192H319.455V374.14H325.899ZM332.528 367.066V376.354C332.528 376.654 332.612 376.882 332.78 377.038C332.948 377.194 333.188 377.272 333.5 377.272H337.838L337.964 379.342C337.112 379.426 336.218 379.474 335.282 379.486C334.358 379.51 333.44 379.522 332.528 379.522C331.616 379.522 330.932 379.282 330.476 378.802C330.02 378.322 329.792 377.704 329.792 376.948V367.066H332.528ZM284.423 385.832C285.035 385.832 285.701 385.868 286.421 385.94C287.141 386 287.843 386.126 288.527 386.318L288.347 388.154C287.819 388.13 287.201 388.112 286.493 388.1C285.785 388.088 285.089 388.082 284.405 388.082C284.069 388.082 283.781 388.094 283.541 388.118C283.313 388.142 283.127 388.19 282.983 388.262C282.839 388.334 282.737 388.454 282.677 388.622C282.617 388.778 282.587 388.994 282.587 389.27C282.587 389.69 282.683 389.996 282.875 390.188C283.079 390.38 283.421 390.554 283.901 390.71L286.295 391.484C287.291 391.82 287.981 392.276 288.365 392.852C288.749 393.428 288.941 394.184 288.941 395.12C288.941 395.828 288.857 396.416 288.689 396.884C288.521 397.352 288.257 397.718 287.897 397.982C287.537 398.246 287.063 398.432 286.475 398.54C285.887 398.66 285.167 398.72 284.315 398.72C283.907 398.72 283.325 398.69 282.569 398.63C281.813 398.582 280.955 398.45 279.995 398.234L280.157 396.29C280.877 396.302 281.495 396.32 282.011 396.344C282.527 396.356 282.971 396.368 283.343 396.38C283.715 396.38 284.039 396.38 284.315 396.38C284.807 396.38 285.185 396.35 285.449 396.29C285.725 396.23 285.917 396.11 286.025 395.93C286.133 395.75 286.187 395.492 286.187 395.156C286.187 394.856 286.145 394.622 286.061 394.454C285.989 394.286 285.863 394.148 285.683 394.04C285.503 393.932 285.269 393.836 284.981 393.752L282.461 392.888C281.501 392.552 280.823 392.102 280.427 391.538C280.043 390.974 279.851 390.224 279.851 389.288C279.851 388.58 279.935 387.998 280.103 387.542C280.283 387.086 280.553 386.738 280.913 386.498C281.273 386.246 281.741 386.072 282.317 385.976C282.905 385.88 283.607 385.832 284.423 385.832ZM300.802 386.066V393.536C300.802 394.796 300.646 395.81 300.334 396.578C300.022 397.334 299.506 397.88 298.786 398.216C298.078 398.552 297.13 398.72 295.942 398.72C294.682 398.72 293.674 398.552 292.918 398.216C292.162 397.88 291.616 397.334 291.28 396.578C290.956 395.81 290.794 394.796 290.794 393.536V386.066H293.53V393.536C293.53 394.316 293.596 394.928 293.728 395.372C293.872 395.804 294.112 396.11 294.448 396.29C294.784 396.47 295.234 396.56 295.798 396.56C296.374 396.56 296.824 396.47 297.148 396.29C297.472 396.11 297.706 395.804 297.85 395.372C297.994 394.928 298.066 394.316 298.066 393.536V386.066H300.802ZM307.976 385.886C309.14 385.886 310.052 386.006 310.712 386.246C311.372 386.486 311.84 386.9 312.116 387.488C312.404 388.064 312.548 388.886 312.548 389.954C312.548 391.01 312.41 391.832 312.134 392.42C311.87 392.996 311.432 393.404 310.82 393.644C310.208 393.872 309.38 393.986 308.336 393.986C307.784 393.986 307.244 393.968 306.716 393.932C306.188 393.884 305.696 393.824 305.24 393.752C304.784 393.68 304.394 393.602 304.07 393.518C303.758 393.434 303.536 393.362 303.404 393.302L303.458 391.934C304.166 391.934 304.898 391.934 305.654 391.934C306.422 391.934 307.178 391.934 307.922 391.934C308.402 391.922 308.78 391.862 309.056 391.754C309.332 391.646 309.524 391.448 309.632 391.16C309.74 390.872 309.794 390.47 309.794 389.954C309.794 389.414 309.74 389 309.632 388.712C309.524 388.424 309.332 388.226 309.056 388.118C308.78 388.01 308.402 387.956 307.922 387.956C306.818 387.956 305.87 387.962 305.078 387.974C304.298 387.986 303.764 388.004 303.476 388.028L303.224 386.066C303.728 386.006 304.196 385.964 304.628 385.94C305.072 385.916 305.552 385.904 306.068 385.904C306.596 385.892 307.232 385.886 307.976 385.886ZM305.96 386.066V398.486H303.224V386.066H305.96ZM319.103 385.886C320.267 385.886 321.179 386.006 321.839 386.246C322.499 386.486 322.967 386.9 323.243 387.488C323.531 388.064 323.675 388.886 323.675 389.954C323.675 391.01 323.537 391.832 323.261 392.42C322.997 392.996 322.559 393.404 321.947 393.644C321.335 393.872 320.507 393.986 319.463 393.986C318.911 393.986 318.371 393.968 317.843 393.932C317.315 393.884 316.823 393.824 316.367 393.752C315.911 393.68 315.521 393.602 315.197 393.518C314.885 393.434 314.663 393.362 314.531 393.302L314.585 391.934C315.293 391.934 316.025 391.934 316.781 391.934C317.549 391.934 318.305 391.934 319.049 391.934C319.529 391.922 319.907 391.862 320.183 391.754C320.459 391.646 320.651 391.448 320.759 391.16C320.867 390.872 320.921 390.47 320.921 389.954C320.921 389.414 320.867 389 320.759 388.712C320.651 388.424 320.459 388.226 320.183 388.118C319.907 388.01 319.529 387.956 319.049 387.956C317.945 387.956 316.997 387.962 316.205 387.974C315.425 387.986 314.891 388.004 314.603 388.028L314.351 386.066C314.855 386.006 315.323 385.964 315.755 385.94C316.199 385.916 316.679 385.904 317.195 385.904C317.723 385.892 318.359 385.886 319.103 385.886ZM317.087 386.066V398.486H314.351V386.066H317.087ZM328.178 386.066V395.354C328.178 395.654 328.262 395.882 328.43 396.038C328.598 396.194 328.838 396.272 329.15 396.272H333.488L333.614 398.342C332.762 398.426 331.868 398.474 330.932 398.486C330.008 398.51 329.09 398.522 328.178 398.522C327.266 398.522 326.582 398.282 326.126 397.802C325.67 397.322 325.442 396.704 325.442 395.948V386.066H328.178ZM343.231 386.066L339.037 394.526H336.445L332.251 386.066H335.095L337.183 390.638C337.291 390.878 337.381 391.136 337.453 391.412C337.525 391.688 337.591 391.952 337.651 392.204H337.831C337.903 391.952 337.975 391.688 338.047 391.412C338.119 391.136 338.203 390.878 338.299 390.638L340.387 386.066H343.231ZM339.109 392.87V398.486H336.373V392.87H339.109Z" fill="#111111"/>
<path d="M297.779 229.367V277.667H287.139V243.367C287.139 242.481 287.162 241.617 287.209 240.777C287.302 239.891 287.442 239.027 287.629 238.187L276.149 241.127L274.819 234.197L287.139 229.367H297.779ZM326.243 228.387C330.863 228.387 334.527 229.204 337.233 230.837C339.987 232.471 341.947 235.131 343.113 238.817C344.327 242.457 344.933 247.357 344.933 253.517C344.933 259.631 344.327 264.531 343.113 268.217C341.947 271.904 339.987 274.564 337.233 276.197C334.527 277.784 330.863 278.577 326.243 278.577C321.623 278.577 317.96 277.784 315.253 276.197C312.547 274.564 310.587 271.904 309.373 268.217C308.207 264.531 307.623 259.631 307.623 253.517C307.623 247.357 308.207 242.457 309.373 238.817C310.587 235.131 312.547 232.471 315.253 230.837C317.96 229.204 321.623 228.387 326.243 228.387ZM326.173 236.717C324.633 236.717 323.35 236.974 322.323 237.487C321.297 238.001 320.48 238.887 319.873 240.147C319.267 241.361 318.823 243.064 318.543 245.257C318.31 247.404 318.193 250.157 318.193 253.517C318.193 256.831 318.31 259.584 318.543 261.777C318.823 263.971 319.267 265.674 319.873 266.887C320.48 268.101 321.297 268.964 322.323 269.477C323.35 269.991 324.633 270.247 326.173 270.247C327.76 270.247 329.09 269.991 330.163 269.477C331.237 268.964 332.077 268.101 332.683 266.887C333.29 265.674 333.71 263.971 333.943 261.777C334.223 259.584 334.363 256.831 334.363 253.517C334.363 250.157 334.223 247.404 333.943 245.257C333.71 243.064 333.29 241.361 332.683 240.147C332.077 238.887 331.237 238.001 330.163 237.487C329.09 236.974 327.76 236.717 326.173 236.717ZM265.505 285.727C267.305 285.727 268.735 285.887 269.795 286.207C270.875 286.507 271.655 287.047 272.135 287.827C272.615 288.607 272.855 289.707 272.855 291.127C272.855 292.607 272.565 293.737 271.985 294.517C271.425 295.277 270.495 295.717 269.195 295.837V295.987C270.795 296.127 271.915 296.667 272.555 297.607C273.195 298.547 273.515 299.847 273.515 301.507C273.515 302.927 273.265 304.027 272.765 304.807C272.285 305.587 271.525 306.137 270.485 306.457C269.465 306.757 268.125 306.907 266.465 306.907C265.125 306.907 263.955 306.897 262.955 306.877C261.975 306.877 261.065 306.857 260.225 306.817C259.405 306.777 258.555 306.727 257.675 306.667L258.125 303.487C258.605 303.507 259.525 303.527 260.885 303.547C262.245 303.567 263.835 303.577 265.655 303.577C266.515 303.577 267.175 303.497 267.635 303.337C268.115 303.177 268.445 302.887 268.625 302.467C268.825 302.027 268.925 301.407 268.925 300.607C268.925 299.747 268.825 299.087 268.625 298.627C268.425 298.167 268.085 297.847 267.605 297.667C267.125 297.487 266.445 297.397 265.565 297.397H258.095V294.487H265.505C266.265 294.467 266.855 294.387 267.275 294.247C267.715 294.107 268.025 293.837 268.205 293.437C268.385 293.037 268.475 292.467 268.475 291.727C268.475 290.987 268.375 290.427 268.175 290.047C267.995 289.667 267.665 289.407 267.185 289.267C266.725 289.127 266.085 289.057 265.265 289.057C264.145 289.057 263.155 289.057 262.295 289.057C261.435 289.037 260.665 289.037 259.985 289.057C259.325 289.057 258.705 289.087 258.125 289.147L257.675 285.967C258.475 285.887 259.245 285.837 259.985 285.817C260.725 285.777 261.535 285.757 262.415 285.757C263.295 285.737 264.325 285.727 265.505 285.727ZM262.145 285.967V306.667H257.675V285.967H262.145ZM281.425 285.967V306.667H276.865V285.967H281.425ZM290.124 285.967V301.447C290.124 301.947 290.264 302.327 290.544 302.587C290.824 302.847 291.224 302.977 291.744 302.977H298.974L299.184 306.427C297.764 306.567 296.274 306.647 294.714 306.667C293.174 306.707 291.644 306.727 290.124 306.727C288.604 306.727 287.464 306.327 286.704 305.527C285.944 304.727 285.564 303.697 285.564 302.437V285.967H290.124ZM306.208 285.967V301.447C306.208 301.947 306.348 302.327 306.628 302.587C306.908 302.847 307.308 302.977 307.828 302.977H315.058L315.268 306.427C313.848 306.567 312.358 306.647 310.798 306.667C309.258 306.707 307.728 306.727 306.208 306.727C304.688 306.727 303.548 306.327 302.788 305.527C302.028 304.727 301.648 303.697 301.648 302.437V285.967H306.208ZM322.352 285.967V306.667H317.792V285.967H322.352ZM334.772 285.547C336.412 285.547 337.802 285.727 338.942 286.087C340.082 286.427 340.992 287.007 341.672 287.827C342.372 288.627 342.882 289.727 343.202 291.127C343.522 292.507 343.682 294.237 343.682 296.317C343.682 298.377 343.522 300.107 343.202 301.507C342.882 302.887 342.372 303.987 341.672 304.807C340.992 305.627 340.082 306.207 338.942 306.547C337.802 306.887 336.412 307.057 334.772 307.057C333.132 307.057 331.742 306.887 330.602 306.547C329.462 306.207 328.542 305.627 327.842 304.807C327.142 303.987 326.632 302.887 326.312 301.507C326.012 300.107 325.862 298.377 325.862 296.317C325.862 294.237 326.012 292.507 326.312 291.127C326.632 289.727 327.142 288.627 327.842 287.827C328.542 287.007 329.462 286.427 330.602 286.087C331.742 285.727 333.132 285.547 334.772 285.547ZM334.772 289.147C333.712 289.147 332.882 289.357 332.282 289.777C331.702 290.197 331.282 290.927 331.022 291.967C330.782 293.007 330.662 294.457 330.662 296.317C330.662 298.157 330.782 299.597 331.022 300.637C331.282 301.677 331.702 302.407 332.282 302.827C332.882 303.247 333.712 303.457 334.772 303.457C335.812 303.457 336.632 303.247 337.232 302.827C337.832 302.407 338.252 301.677 338.492 300.637C338.732 299.597 338.852 298.157 338.852 296.317C338.852 294.457 338.732 293.007 338.492 291.967C338.252 290.927 337.832 290.197 337.232 289.777C336.632 289.357 335.812 289.147 334.772 289.147ZM364.696 285.967V305.017C364.696 306.117 364.146 306.667 363.046 306.667H360.526C360.026 306.667 359.646 306.557 359.386 306.337C359.146 306.097 358.906 305.747 358.666 305.287L352.936 294.397C352.696 293.937 352.456 293.437 352.216 292.897C351.996 292.337 351.806 291.797 351.646 291.277H351.316C351.376 291.797 351.426 292.337 351.466 292.897C351.506 293.457 351.526 293.997 351.526 294.517V306.667H347.206V287.617C347.206 286.517 347.756 285.967 348.856 285.967H351.346C351.826 285.967 352.186 286.087 352.426 286.327C352.686 286.547 352.936 286.877 353.176 287.317L358.726 297.877C358.986 298.337 359.246 298.847 359.506 299.407C359.766 299.967 360.006 300.547 360.226 301.147H360.586C360.546 300.547 360.506 299.967 360.466 299.407C360.426 298.827 360.406 298.257 360.406 297.697V285.967H364.696ZM263.693 314.577C264.713 314.577 265.813 314.637 266.993 314.757C268.173 314.857 269.323 315.067 270.443 315.387L270.143 318.447C269.283 318.407 268.263 318.377 267.083 318.357C265.923 318.337 264.783 318.327 263.663 318.327C263.123 318.327 262.663 318.347 262.283 318.387C261.903 318.427 261.593 318.507 261.353 318.627C261.113 318.747 260.943 318.947 260.843 319.227C260.743 319.487 260.693 319.847 260.693 320.307C260.693 321.007 260.853 321.517 261.173 321.837C261.513 322.157 262.093 322.447 262.913 322.707L266.783 323.997C268.403 324.557 269.533 325.317 270.173 326.277C270.813 327.237 271.133 328.497 271.133 330.057C271.133 331.237 270.993 332.217 270.713 332.997C270.453 333.777 270.023 334.387 269.423 334.827C268.823 335.267 268.043 335.577 267.083 335.757C266.123 335.957 264.943 336.057 263.543 336.057C262.863 336.057 261.903 336.007 260.663 335.907C259.423 335.827 258.003 335.607 256.403 335.247L256.703 331.977C257.863 331.997 258.863 332.027 259.703 332.067C260.563 332.087 261.303 332.097 261.923 332.097C262.543 332.097 263.073 332.097 263.513 332.097C264.313 332.097 264.933 332.047 265.373 331.947C265.813 331.847 266.123 331.657 266.303 331.377C266.483 331.097 266.573 330.677 266.573 330.117C266.573 329.617 266.503 329.227 266.363 328.947C266.243 328.667 266.033 328.437 265.733 328.257C265.453 328.077 265.063 327.917 264.563 327.777L260.483 326.337C258.923 325.777 257.813 325.027 257.153 324.087C256.513 323.147 256.193 321.897 256.193 320.337C256.193 319.157 256.333 318.187 256.613 317.427C256.893 316.667 257.333 316.087 257.933 315.687C258.533 315.267 259.313 314.977 260.273 314.817C261.233 314.657 262.373 314.577 263.693 314.577ZM264.443 334.527L264.023 339.237H260.693L261.143 334.527H264.443ZM266.843 311.847L266.273 316.917H262.973L263.513 311.847H266.843ZM284.215 314.967C284.595 314.967 284.925 315.077 285.205 315.297C285.505 315.497 285.705 315.787 285.805 316.167L291.805 335.667H287.125L282.895 320.427C282.815 320.107 282.735 319.777 282.655 319.437C282.575 319.077 282.505 318.737 282.445 318.417H281.635C281.575 318.737 281.505 319.077 281.425 319.437C281.365 319.777 281.285 320.107 281.185 320.427L276.955 335.667H272.275L278.275 316.167C278.375 315.787 278.565 315.497 278.845 315.297C279.145 315.077 279.485 314.967 279.865 314.967H284.215ZM287.395 326.757V330.177H276.655V326.757H287.395ZM300.755 314.577C301.775 314.577 302.885 314.637 304.085 314.757C305.285 314.857 306.455 315.067 307.595 315.387L307.295 318.447C306.415 318.407 305.385 318.377 304.205 318.357C303.025 318.337 301.865 318.327 300.725 318.327C300.165 318.327 299.685 318.347 299.285 318.387C298.905 318.427 298.595 318.507 298.355 318.627C298.115 318.747 297.945 318.947 297.845 319.227C297.745 319.487 297.695 319.847 297.695 320.307C297.695 321.007 297.855 321.517 298.175 321.837C298.515 322.157 299.085 322.447 299.885 322.707L303.875 323.997C305.535 324.557 306.685 325.317 307.325 326.277C307.965 327.237 308.285 328.497 308.285 330.057C308.285 331.237 308.145 332.217 307.865 332.997C307.585 333.777 307.145 334.387 306.545 334.827C305.945 335.267 305.155 335.577 304.175 335.757C303.195 335.957 301.995 336.057 300.575 336.057C299.895 336.057 298.925 336.007 297.665 335.907C296.405 335.827 294.975 335.607 293.375 335.247L293.645 332.007C294.845 332.027 295.875 332.057 296.735 332.097C297.595 332.117 298.335 332.137 298.955 332.157C299.575 332.157 300.115 332.157 300.575 332.157C301.395 332.157 302.025 332.107 302.465 332.007C302.925 331.907 303.245 331.707 303.425 331.407C303.605 331.107 303.695 330.677 303.695 330.117C303.695 329.617 303.625 329.227 303.485 328.947C303.365 328.667 303.155 328.437 302.855 328.257C302.555 328.077 302.165 327.917 301.685 327.777L297.485 326.337C295.885 325.777 294.755 325.027 294.095 324.087C293.455 323.147 293.135 321.897 293.135 320.337C293.135 319.157 293.275 318.187 293.555 317.427C293.855 316.667 294.305 316.087 294.905 315.687C295.505 315.267 296.285 314.977 297.245 314.817C298.225 314.657 299.395 314.577 300.755 314.577ZM320.733 314.967V335.667H316.173V314.967H320.733ZM326.973 314.967V318.567H309.933V314.967H326.973ZM337.52 314.667C339.34 314.667 340.81 314.857 341.93 315.237C343.07 315.597 343.9 316.217 344.42 317.097C344.96 317.977 345.23 319.217 345.23 320.817C345.23 321.777 345.1 322.627 344.84 323.367C344.6 324.087 344.19 324.667 343.61 325.107C343.03 325.547 342.24 325.827 341.24 325.947V326.097C341.6 326.157 341.97 326.297 342.35 326.517C342.75 326.737 343.12 327.067 343.46 327.507C343.8 327.927 344.05 328.497 344.21 329.217L346.01 335.667H341.21L339.62 329.337C339.42 328.657 339.15 328.197 338.81 327.957C338.47 327.697 337.98 327.567 337.34 327.567C335.98 327.547 334.84 327.537 333.92 327.537C333 327.537 332.22 327.527 331.58 327.507C330.96 327.487 330.39 327.467 329.87 327.447L329.96 324.117H337.43C338.25 324.117 338.89 324.037 339.35 323.877C339.81 323.697 340.14 323.387 340.34 322.947C340.54 322.507 340.64 321.887 340.64 321.087C340.64 320.287 340.54 319.677 340.34 319.257C340.14 318.837 339.81 318.547 339.35 318.387C338.89 318.207 338.25 318.117 337.43 318.117C335.57 318.117 333.98 318.127 332.66 318.147C331.36 318.167 330.48 318.187 330.02 318.207L329.57 314.967C330.41 314.867 331.19 314.797 331.91 314.757C332.65 314.717 333.46 314.697 334.34 314.697C335.22 314.677 336.28 314.667 337.52 314.667ZM334.07 314.967V335.667H329.57V314.967H334.07ZM357.155 314.547C358.795 314.547 360.185 314.727 361.325 315.087C362.465 315.427 363.375 316.007 364.055 316.827C364.755 317.627 365.265 318.727 365.585 320.127C365.905 321.507 366.065 323.237 366.065 325.317C366.065 327.377 365.905 329.107 365.585 330.507C365.265 331.887 364.755 332.987 364.055 333.807C363.375 334.627 362.465 335.207 361.325 335.547C360.185 335.887 358.795 336.057 357.155 336.057C355.515 336.057 354.125 335.887 352.985 335.547C351.845 335.207 350.925 334.627 350.225 333.807C349.525 332.987 349.015 331.887 348.695 330.507C348.395 329.107 348.245 327.377 348.245 325.317C348.245 323.237 348.395 321.507 348.695 320.127C349.015 318.727 349.525 317.627 350.225 316.827C350.925 316.007 351.845 315.427 352.985 315.087C354.125 314.727 355.515 314.547 357.155 314.547ZM357.155 318.147C356.095 318.147 355.265 318.357 354.665 318.777C354.085 319.197 353.665 319.927 353.405 320.967C353.165 322.007 353.045 323.457 353.045 325.317C353.045 327.157 353.165 328.597 353.405 329.637C353.665 330.677 354.085 331.407 354.665 331.827C355.265 332.247 356.095 332.457 357.155 332.457C358.195 332.457 359.015 332.247 359.615 331.827C360.215 331.407 360.635 330.677 360.875 329.637C361.115 328.597 361.235 327.157 361.235 325.317C361.235 323.457 361.115 322.007 360.875 320.967C360.635 319.927 360.215 319.197 359.615 318.777C359.015 318.357 358.195 318.147 357.155 318.147Z" fill="#301B47"/>
<path d="M109.434 248.708V269.408H104.874V254.708C104.874 254.328 104.884 253.958 104.904 253.598C104.944 253.218 105.004 252.848 105.084 252.488L100.164 253.748L99.5944 250.778L104.874 248.708H109.434ZM121.634 248.288C123.614 248.288 125.184 248.638 126.344 249.338C127.524 250.038 128.364 251.178 128.864 252.758C129.384 254.318 129.644 256.418 129.644 259.058C129.644 261.678 129.384 263.778 128.864 265.358C128.364 266.938 127.524 268.078 126.344 268.778C125.184 269.458 123.614 269.798 121.634 269.798C119.654 269.798 118.084 269.458 116.924 268.778C115.764 268.078 114.924 266.938 114.404 265.358C113.904 263.778 113.654 261.678 113.654 259.058C113.654 256.418 113.904 254.318 114.404 252.758C114.924 251.178 115.764 250.038 116.924 249.338C118.084 248.638 119.654 248.288 121.634 248.288ZM121.604 251.858C120.944 251.858 120.394 251.968 119.954 252.188C119.514 252.408 119.164 252.788 118.904 253.328C118.644 253.848 118.454 254.578 118.334 255.518C118.234 256.438 118.184 257.618 118.184 259.058C118.184 260.478 118.234 261.658 118.334 262.598C118.454 263.538 118.644 264.268 118.904 264.788C119.164 265.308 119.514 265.678 119.954 265.898C120.394 266.118 120.944 266.228 121.604 266.228C122.284 266.228 122.854 266.118 123.314 265.898C123.774 265.678 124.134 265.308 124.394 264.788C124.654 264.268 124.834 263.538 124.934 262.598C125.054 261.658 125.114 260.478 125.114 259.058C125.114 257.618 125.054 256.438 124.934 255.518C124.834 254.578 124.654 253.848 124.394 253.328C124.134 252.788 123.774 252.408 123.314 252.188C122.854 251.968 122.284 251.858 121.604 251.858ZM137.259 248.288C138.539 248.288 139.559 248.488 140.319 248.888C141.079 249.268 141.619 249.908 141.939 250.808C142.259 251.708 142.419 252.928 142.419 254.468C142.419 255.988 142.259 257.198 141.939 258.098C141.619 258.998 141.079 259.648 140.319 260.048C139.559 260.428 138.539 260.618 137.259 260.618C135.999 260.618 134.989 260.428 134.229 260.048C133.489 259.648 132.959 258.998 132.639 258.098C132.319 257.198 132.159 255.988 132.159 254.468C132.159 252.928 132.319 251.708 132.639 250.808C132.959 249.908 133.489 249.268 134.229 248.888C134.989 248.488 135.999 248.288 137.259 248.288ZM137.259 250.748C136.779 250.748 136.409 250.848 136.149 251.048C135.889 251.228 135.699 251.588 135.579 252.128C135.479 252.668 135.429 253.448 135.429 254.468C135.429 255.488 135.479 256.268 135.579 256.808C135.699 257.328 135.889 257.688 136.149 257.888C136.409 258.088 136.779 258.188 137.259 258.188C137.759 258.188 138.139 258.088 138.399 257.888C138.679 257.688 138.869 257.328 138.969 256.808C139.089 256.268 139.149 255.488 139.149 254.468C139.149 253.448 139.089 252.668 138.969 252.128C138.869 251.588 138.679 251.228 138.399 251.048C138.139 250.848 137.759 250.748 137.259 250.748ZM152.289 248.708L139.899 269.408H137.109L149.499 248.708H152.289ZM152.169 257.438C153.449 257.438 154.459 257.638 155.199 258.038C155.959 258.418 156.499 259.058 156.819 259.958C157.139 260.838 157.299 262.048 157.299 263.588C157.299 265.108 157.139 266.318 156.819 267.218C156.499 268.118 155.959 268.768 155.199 269.168C154.459 269.548 153.449 269.738 152.169 269.738C150.909 269.738 149.899 269.548 149.139 269.168C148.399 268.768 147.859 268.118 147.519 267.218C147.199 266.318 147.039 265.108 147.039 263.588C147.039 262.048 147.199 260.838 147.519 259.958C147.859 259.058 148.399 258.418 149.139 258.038C149.899 257.638 150.909 257.438 152.169 257.438ZM152.139 259.868C151.659 259.868 151.279 259.968 150.999 260.168C150.739 260.348 150.559 260.708 150.459 261.248C150.359 261.768 150.309 262.548 150.309 263.588C150.309 264.608 150.359 265.388 150.459 265.928C150.559 266.468 150.739 266.838 150.999 267.038C151.279 267.218 151.659 267.308 152.139 267.308C152.639 267.308 153.019 267.218 153.279 267.038C153.559 266.838 153.749 266.468 153.849 265.928C153.969 265.388 154.029 264.608 154.029 263.588C154.029 262.548 153.969 261.768 153.849 261.248C153.749 260.708 153.559 260.348 153.279 260.168C153.019 259.968 152.639 259.868 152.139 259.868Z" fill="white"/>
<path d="M187.117 157.407V178.107H182.557V163.407C182.557 163.027 182.567 162.657 182.587 162.297C182.627 161.917 182.687 161.547 182.767 161.187L177.847 162.447L177.277 159.477L182.557 157.407H187.117ZM199.316 156.987C201.296 156.987 202.866 157.337 204.026 158.037C205.206 158.737 206.046 159.877 206.546 161.457C207.066 163.017 207.326 165.117 207.326 167.757C207.326 170.377 207.066 172.477 206.546 174.057C206.046 175.637 205.206 176.777 204.026 177.477C202.866 178.157 201.296 178.497 199.316 178.497C197.336 178.497 195.766 178.157 194.606 177.477C193.446 176.777 192.606 175.637 192.086 174.057C191.586 172.477 191.336 170.377 191.336 167.757C191.336 165.117 191.586 163.017 192.086 161.457C192.606 159.877 193.446 158.737 194.606 158.037C195.766 157.337 197.336 156.987 199.316 156.987ZM199.286 160.557C198.626 160.557 198.076 160.667 197.636 160.887C197.196 161.107 196.846 161.487 196.586 162.027C196.326 162.547 196.136 163.277 196.016 164.217C195.916 165.137 195.866 166.317 195.866 167.757C195.866 169.177 195.916 170.357 196.016 171.297C196.136 172.237 196.326 172.967 196.586 173.487C196.846 174.007 197.196 174.377 197.636 174.597C198.076 174.817 198.626 174.927 199.286 174.927C199.966 174.927 200.536 174.817 200.996 174.597C201.456 174.377 201.816 174.007 202.076 173.487C202.336 172.967 202.516 172.237 202.616 171.297C202.736 170.357 202.796 169.177 202.796 167.757C202.796 166.317 202.736 165.137 202.616 164.217C202.516 163.277 202.336 162.547 202.076 162.027C201.816 161.487 201.456 161.107 200.996 160.887C200.536 160.667 199.966 160.557 199.286 160.557ZM214.942 156.987C216.222 156.987 217.242 157.187 218.002 157.587C218.762 157.967 219.302 158.607 219.622 159.507C219.942 160.407 220.102 161.627 220.102 163.167C220.102 164.687 219.942 165.897 219.622 166.797C219.302 167.697 218.762 168.347 218.002 168.747C217.242 169.127 216.222 169.317 214.942 169.317C213.682 169.317 212.672 169.127 211.912 168.747C211.172 168.347 210.642 167.697 210.322 166.797C210.002 165.897 209.842 164.687 209.842 163.167C209.842 161.627 210.002 160.407 210.322 159.507C210.642 158.607 211.172 157.967 211.912 157.587C212.672 157.187 213.682 156.987 214.942 156.987ZM214.942 159.447C214.462 159.447 214.092 159.547 213.832 159.747C213.572 159.927 213.382 160.287 213.262 160.827C213.162 161.367 213.112 162.147 213.112 163.167C213.112 164.187 213.162 164.967 213.262 165.507C213.382 166.027 213.572 166.387 213.832 166.587C214.092 166.787 214.462 166.887 214.942 166.887C215.442 166.887 215.822 166.787 216.082 166.587C216.362 166.387 216.552 166.027 216.652 165.507C216.772 164.967 216.832 164.187 216.832 163.167C216.832 162.147 216.772 161.367 216.652 160.827C216.552 160.287 216.362 159.927 216.082 159.747C215.822 159.547 215.442 159.447 214.942 159.447ZM229.972 157.407L217.582 178.107H214.792L227.182 157.407H229.972ZM229.852 166.137C231.132 166.137 232.142 166.337 232.882 166.737C233.642 167.117 234.182 167.757 234.502 168.657C234.822 169.537 234.982 170.747 234.982 172.287C234.982 173.807 234.822 175.017 234.502 175.917C234.182 176.817 233.642 177.467 232.882 177.867C232.142 178.247 231.132 178.437 229.852 178.437C228.592 178.437 227.582 178.247 226.822 177.867C226.082 177.467 225.542 176.817 225.202 175.917C224.882 175.017 224.722 173.807 224.722 172.287C224.722 170.747 224.882 169.537 225.202 168.657C225.542 167.757 226.082 167.117 226.822 166.737C227.582 166.337 228.592 166.137 229.852 166.137ZM229.822 168.567C229.342 168.567 228.962 168.667 228.682 168.867C228.422 169.047 228.242 169.407 228.142 169.947C228.042 170.467 227.992 171.247 227.992 172.287C227.992 173.307 228.042 174.087 228.142 174.627C228.242 175.167 228.422 175.537 228.682 175.737C228.962 175.917 229.342 176.007 229.822 176.007C230.322 176.007 230.702 175.917 230.962 175.737C231.242 175.537 231.432 175.167 231.532 174.627C231.652 174.087 231.712 173.307 231.712 172.287C231.712 171.247 231.652 170.467 231.532 169.947C231.432 169.407 231.242 169.047 230.962 168.867C230.702 168.667 230.322 168.567 229.822 168.567Z" fill="white"/>
<path d="M297.749 99.9338V120.634H293.189V105.934C293.189 105.554 293.199 105.184 293.219 104.824C293.259 104.444 293.319 104.074 293.399 103.714L288.479 104.974L287.909 102.004L293.189 99.9338H297.749ZM309.948 99.5138C311.928 99.5138 313.498 99.8638 314.658 100.564C315.838 101.264 316.678 102.404 317.178 103.984C317.698 105.544 317.958 107.644 317.958 110.284C317.958 112.904 317.698 115.004 317.178 116.584C316.678 118.164 315.838 119.304 314.658 120.004C313.498 120.684 311.928 121.024 309.948 121.024C307.968 121.024 306.398 120.684 305.238 120.004C304.078 119.304 303.238 118.164 302.718 116.584C302.218 115.004 301.968 112.904 301.968 110.284C301.968 107.644 302.218 105.544 302.718 103.984C303.238 102.404 304.078 101.264 305.238 100.564C306.398 99.8638 307.968 99.5138 309.948 99.5138ZM309.918 103.084C309.258 103.084 308.708 103.194 308.268 103.414C307.828 103.634 307.478 104.014 307.218 104.554C306.958 105.074 306.768 105.804 306.648 106.744C306.548 107.664 306.498 108.844 306.498 110.284C306.498 111.704 306.548 112.884 306.648 113.824C306.768 114.764 306.958 115.494 307.218 116.014C307.478 116.534 307.828 116.904 308.268 117.124C308.708 117.344 309.258 117.454 309.918 117.454C310.598 117.454 311.168 117.344 311.628 117.124C312.088 116.904 312.448 116.534 312.708 116.014C312.968 115.494 313.148 114.764 313.248 113.824C313.368 112.884 313.428 111.704 313.428 110.284C313.428 108.844 313.368 107.664 313.248 106.744C313.148 105.804 312.968 105.074 312.708 104.554C312.448 104.014 312.088 103.634 311.628 103.414C311.168 103.194 310.598 103.084 309.918 103.084ZM325.574 99.5138C326.854 99.5138 327.874 99.7138 328.634 100.114C329.394 100.494 329.934 101.134 330.254 102.034C330.574 102.934 330.734 104.154 330.734 105.694C330.734 107.214 330.574 108.424 330.254 109.324C329.934 110.224 329.394 110.874 328.634 111.274C327.874 111.654 326.854 111.844 325.574 111.844C324.314 111.844 323.304 111.654 322.544 111.274C321.804 110.874 321.274 110.224 320.954 109.324C320.634 108.424 320.474 107.214 320.474 105.694C320.474 104.154 320.634 102.934 320.954 102.034C321.274 101.134 321.804 100.494 322.544 100.114C323.304 99.7138 324.314 99.5138 325.574 99.5138ZM325.574 101.974C325.094 101.974 324.724 102.074 324.464 102.274C324.204 102.454 324.014 102.814 323.894 103.354C323.794 103.894 323.744 104.674 323.744 105.694C323.744 106.714 323.794 107.494 323.894 108.034C324.014 108.554 324.204 108.914 324.464 109.114C324.724 109.314 325.094 109.414 325.574 109.414C326.074 109.414 326.454 109.314 326.714 109.114C326.994 108.914 327.184 108.554 327.284 108.034C327.404 107.494 327.464 106.714 327.464 105.694C327.464 104.674 327.404 103.894 327.284 103.354C327.184 102.814 326.994 102.454 326.714 102.274C326.454 102.074 326.074 101.974 325.574 101.974ZM340.604 99.9338L328.214 120.634H325.424L337.814 99.9338H340.604ZM340.484 108.664C341.764 108.664 342.774 108.864 343.514 109.264C344.274 109.644 344.814 110.284 345.134 111.184C345.454 112.064 345.614 113.274 345.614 114.814C345.614 116.334 345.454 117.544 345.134 118.444C344.814 119.344 344.274 119.994 343.514 120.394C342.774 120.774 341.764 120.964 340.484 120.964C339.224 120.964 338.214 120.774 337.454 120.394C336.714 119.994 336.174 119.344 335.834 118.444C335.514 117.544 335.354 116.334 335.354 114.814C335.354 113.274 335.514 112.064 335.834 111.184C336.174 110.284 336.714 109.644 337.454 109.264C338.214 108.864 339.224 108.664 340.484 108.664ZM340.454 111.094C339.974 111.094 339.594 111.194 339.314 111.394C339.054 111.574 338.874 111.934 338.774 112.474C338.674 112.994 338.624 113.774 338.624 114.814C338.624 115.834 338.674 116.614 338.774 117.154C338.874 117.694 339.054 118.064 339.314 118.264C339.594 118.444 339.974 118.534 340.454 118.534C340.954 118.534 341.334 118.444 341.594 118.264C341.874 118.064 342.064 117.694 342.164 117.154C342.284 116.614 342.344 115.834 342.344 114.814C342.344 113.774 342.284 112.994 342.164 112.474C342.064 111.934 341.874 111.574 341.594 111.394C341.334 111.194 340.954 111.094 340.454 111.094Z" fill="white"/>
<path d="M409.228 133.764V154.464H404.668V139.764C404.668 139.384 404.678 139.014 404.698 138.654C404.738 138.274 404.798 137.904 404.878 137.544L399.958 138.804L399.388 135.834L404.668 133.764H409.228ZM421.428 133.344C423.408 133.344 424.978 133.694 426.138 134.394C427.318 135.094 428.158 136.234 428.658 137.814C429.178 139.374 429.438 141.474 429.438 144.114C429.438 146.734 429.178 148.834 428.658 150.414C428.158 151.994 427.318 153.134 426.138 153.834C424.978 154.514 423.408 154.854 421.428 154.854C419.448 154.854 417.878 154.514 416.718 153.834C415.558 153.134 414.718 151.994 414.198 150.414C413.698 148.834 413.448 146.734 413.448 144.114C413.448 141.474 413.698 139.374 414.198 137.814C414.718 136.234 415.558 135.094 416.718 134.394C417.878 133.694 419.448 133.344 421.428 133.344ZM421.398 136.914C420.738 136.914 420.188 137.024 419.748 137.244C419.308 137.464 418.958 137.844 418.698 138.384C418.438 138.904 418.248 139.634 418.128 140.574C418.028 141.494 417.978 142.674 417.978 144.114C417.978 145.534 418.028 146.714 418.128 147.654C418.248 148.594 418.438 149.324 418.698 149.844C418.958 150.364 419.308 150.734 419.748 150.954C420.188 151.174 420.738 151.284 421.398 151.284C422.078 151.284 422.648 151.174 423.108 150.954C423.568 150.734 423.928 150.364 424.188 149.844C424.448 149.324 424.628 148.594 424.728 147.654C424.848 146.714 424.908 145.534 424.908 144.114C424.908 142.674 424.848 141.494 424.728 140.574C424.628 139.634 424.448 138.904 424.188 138.384C423.928 137.844 423.568 137.464 423.108 137.244C422.648 137.024 422.078 136.914 421.398 136.914ZM437.053 133.344C438.333 133.344 439.353 133.544 440.113 133.944C440.873 134.324 441.413 134.964 441.733 135.864C442.053 136.764 442.213 137.984 442.213 139.524C442.213 141.044 442.053 142.254 441.733 143.154C441.413 144.054 440.873 144.704 440.113 145.104C439.353 145.484 438.333 145.674 437.053 145.674C435.793 145.674 434.783 145.484 434.023 145.104C433.283 144.704 432.753 144.054 432.433 143.154C432.113 142.254 431.953 141.044 431.953 139.524C431.953 137.984 432.113 136.764 432.433 135.864C432.753 134.964 433.283 134.324 434.023 133.944C434.783 133.544 435.793 133.344 437.053 133.344ZM437.053 135.804C436.573 135.804 436.203 135.904 435.943 136.104C435.683 136.284 435.493 136.644 435.373 137.184C435.273 137.724 435.223 138.504 435.223 139.524C435.223 140.544 435.273 141.324 435.373 141.864C435.493 142.384 435.683 142.744 435.943 142.944C436.203 143.144 436.573 143.244 437.053 143.244C437.553 143.244 437.933 143.144 438.193 142.944C438.473 142.744 438.663 142.384 438.763 141.864C438.883 141.324 438.943 140.544 438.943 139.524C438.943 138.504 438.883 137.724 438.763 137.184C438.663 136.644 438.473 136.284 438.193 136.104C437.933 135.904 437.553 135.804 437.053 135.804ZM452.083 133.764L439.693 154.464H436.903L449.293 133.764H452.083ZM451.963 142.494C453.243 142.494 454.253 142.694 454.993 143.094C455.753 143.474 456.293 144.114 456.613 145.014C456.933 145.894 457.093 147.104 457.093 148.644C457.093 150.164 456.933 151.374 456.613 152.274C456.293 153.174 455.753 153.824 454.993 154.224C454.253 154.604 453.243 154.794 451.963 154.794C450.703 154.794 449.693 154.604 448.933 154.224C448.193 153.824 447.653 153.174 447.313 152.274C446.993 151.374 446.833 150.164 446.833 148.644C446.833 147.104 446.993 145.894 447.313 145.014C447.653 144.114 448.193 143.474 448.933 143.094C449.693 142.694 450.703 142.494 451.963 142.494ZM451.933 144.924C451.453 144.924 451.073 145.024 450.793 145.224C450.533 145.404 450.353 145.764 450.253 146.304C450.153 146.824 450.103 147.604 450.103 148.644C450.103 149.664 450.153 150.444 450.253 150.984C450.353 151.524 450.533 151.894 450.793 152.094C451.073 152.274 451.453 152.364 451.933 152.364C452.433 152.364 452.813 152.274 453.073 152.094C453.353 151.894 453.543 151.524 453.643 150.984C453.763 150.444 453.823 149.664 453.823 148.644C453.823 147.604 453.763 146.824 453.643 146.304C453.543 145.764 453.353 145.404 453.073 145.224C452.813 145.024 452.433 144.924 451.933 144.924Z" fill="white"/>
<path d="M453.63 246.595V267.295H449.07V252.595C449.07 252.215 449.08 251.845 449.1 251.485C449.14 251.105 449.2 250.735 449.28 250.375L444.36 251.635L443.79 248.665L449.07 246.595H453.63ZM465.829 246.175C467.809 246.175 469.379 246.525 470.539 247.225C471.719 247.925 472.559 249.065 473.059 250.645C473.579 252.205 473.839 254.305 473.839 256.945C473.839 259.565 473.579 261.665 473.059 263.245C472.559 264.825 471.719 265.965 470.539 266.665C469.379 267.345 467.809 267.685 465.829 267.685C463.849 267.685 462.279 267.345 461.119 266.665C459.959 265.965 459.119 264.825 458.599 263.245C458.099 261.665 457.849 259.565 457.849 256.945C457.849 254.305 458.099 252.205 458.599 250.645C459.119 249.065 459.959 247.925 461.119 247.225C462.279 246.525 463.849 246.175 465.829 246.175ZM465.799 249.745C465.139 249.745 464.589 249.855 464.149 250.075C463.709 250.295 463.359 250.675 463.099 251.215C462.839 251.735 462.649 252.465 462.529 253.405C462.429 254.325 462.379 255.505 462.379 256.945C462.379 258.365 462.429 259.545 462.529 260.485C462.649 261.425 462.839 262.155 463.099 262.675C463.359 263.195 463.709 263.565 464.149 263.785C464.589 264.005 465.139 264.115 465.799 264.115C466.479 264.115 467.049 264.005 467.509 263.785C467.969 263.565 468.329 263.195 468.589 262.675C468.849 262.155 469.029 261.425 469.129 260.485C469.249 259.545 469.309 258.365 469.309 256.945C469.309 255.505 469.249 254.325 469.129 253.405C469.029 252.465 468.849 251.735 468.589 251.215C468.329 250.675 467.969 250.295 467.509 250.075C467.049 249.855 466.479 249.745 465.799 249.745ZM481.455 246.175C482.735 246.175 483.755 246.375 484.515 246.775C485.275 247.155 485.815 247.795 486.135 248.695C486.455 249.595 486.615 250.815 486.615 252.355C486.615 253.875 486.455 255.085 486.135 255.985C485.815 256.885 485.275 257.535 484.515 257.935C483.755 258.315 482.735 258.505 481.455 258.505C480.195 258.505 479.185 258.315 478.425 257.935C477.685 257.535 477.155 256.885 476.835 255.985C476.515 255.085 476.355 253.875 476.355 252.355C476.355 250.815 476.515 249.595 476.835 248.695C477.155 247.795 477.685 247.155 478.425 246.775C479.185 246.375 480.195 246.175 481.455 246.175ZM481.455 248.635C480.975 248.635 480.605 248.735 480.345 248.935C480.085 249.115 479.895 249.475 479.775 250.015C479.675 250.555 479.625 251.335 479.625 252.355C479.625 253.375 479.675 254.155 479.775 254.695C479.895 255.215 480.085 255.575 480.345 255.775C480.605 255.975 480.975 256.075 481.455 256.075C481.955 256.075 482.335 255.975 482.595 255.775C482.875 255.575 483.065 255.215 483.165 254.695C483.285 254.155 483.345 253.375 483.345 252.355C483.345 251.335 483.285 250.555 483.165 250.015C483.065 249.475 482.875 249.115 482.595 248.935C482.335 248.735 481.955 248.635 481.455 248.635ZM496.485 246.595L484.095 267.295H481.305L493.695 246.595H496.485ZM496.365 255.325C497.645 255.325 498.655 255.525 499.395 255.925C500.155 256.305 500.695 256.945 501.015 257.845C501.335 258.725 501.495 259.935 501.495 261.475C501.495 262.995 501.335 264.205 501.015 265.105C500.695 266.005 500.155 266.655 499.395 267.055C498.655 267.435 497.645 267.625 496.365 267.625C495.105 267.625 494.095 267.435 493.335 267.055C492.595 266.655 492.055 266.005 491.715 265.105C491.395 264.205 491.235 262.995 491.235 261.475C491.235 259.935 491.395 258.725 491.715 257.845C492.055 256.945 492.595 256.305 493.335 255.925C494.095 255.525 495.105 255.325 496.365 255.325ZM496.335 257.755C495.855 257.755 495.475 257.855 495.195 258.055C494.935 258.235 494.755 258.595 494.655 259.135C494.555 259.655 494.505 260.435 494.505 261.475C494.505 262.495 494.555 263.275 494.655 263.815C494.755 264.355 494.935 264.725 495.195 264.925C495.475 265.105 495.855 265.195 496.335 265.195C496.835 265.195 497.215 265.105 497.475 264.925C497.755 264.725 497.945 264.355 498.045 263.815C498.165 263.275 498.225 262.495 498.225 261.475C498.225 260.435 498.165 259.655 498.045 259.135C497.945 258.595 497.755 258.235 497.475 258.055C497.215 257.855 496.835 257.755 496.335 257.755Z" fill="white"/>
<path d="M460.993 375.08V406.82H454.001V384.28C454.001 383.697 454.016 383.13 454.047 382.578C454.108 381.995 454.2 381.428 454.323 380.876L446.779 382.808L445.905 378.254L454.001 375.08H460.993ZM487.748 375.08L487.518 380.37H474.316L473.948 386.35L478.594 386.856C480.526 387.04 482.136 387.408 483.424 387.96C484.743 388.512 485.785 389.232 486.552 390.122C487.319 391.011 487.871 392.038 488.208 393.204C488.545 394.369 488.714 395.672 488.714 397.114C488.714 398.494 488.545 399.797 488.208 401.024C487.871 402.25 487.288 403.339 486.46 404.29C485.663 405.24 484.543 405.992 483.102 406.544C481.661 407.096 479.821 407.372 477.582 407.372C476.11 407.372 474.454 407.28 472.614 407.096C470.774 406.942 468.888 406.697 466.956 406.36L467.6 401.024C469.103 401.177 470.575 401.315 472.016 401.438C473.457 401.53 474.715 401.576 475.788 401.576C477.413 401.576 478.64 401.407 479.468 401.07C480.327 400.732 480.909 400.226 481.216 399.552C481.553 398.846 481.737 397.972 481.768 396.93C481.829 395.918 481.722 395.105 481.446 394.492C481.17 393.878 480.741 393.418 480.158 393.112C479.575 392.774 478.793 392.529 477.812 392.376C476.831 392.222 475.635 392.1 474.224 392.008L470.268 391.594C469.624 391.502 469.103 391.226 468.704 390.766C468.305 390.306 468.121 389.754 468.152 389.11L468.98 375.08H487.748ZM500.019 374.436C501.982 374.436 503.546 374.742 504.711 375.356C505.876 375.938 506.704 376.92 507.195 378.3C507.686 379.68 507.931 381.55 507.931 383.912C507.931 386.242 507.686 388.098 507.195 389.478C506.704 390.858 505.876 391.854 504.711 392.468C503.546 393.05 501.982 393.342 500.019 393.342C498.087 393.342 496.538 393.05 495.373 392.468C494.238 391.854 493.426 390.858 492.935 389.478C492.444 388.098 492.199 386.242 492.199 383.912C492.199 381.55 492.444 379.68 492.935 378.3C493.426 376.92 494.238 375.938 495.373 375.356C496.538 374.742 498.087 374.436 500.019 374.436ZM500.019 378.208C499.283 378.208 498.716 378.361 498.317 378.668C497.918 378.944 497.627 379.496 497.443 380.324C497.29 381.152 497.213 382.348 497.213 383.912C497.213 385.476 497.29 386.672 497.443 387.5C497.627 388.297 497.918 388.849 498.317 389.156C498.716 389.462 499.283 389.616 500.019 389.616C500.786 389.616 501.368 389.462 501.767 389.156C502.196 388.849 502.488 388.297 502.641 387.5C502.825 386.672 502.917 385.476 502.917 383.912C502.917 382.348 502.825 381.152 502.641 380.324C502.488 379.496 502.196 378.944 501.767 378.668C501.368 378.361 500.786 378.208 500.019 378.208ZM523.065 375.08L504.067 406.82H499.789L518.787 375.08H523.065ZM522.881 388.466C524.844 388.466 526.392 388.772 527.527 389.386C528.692 389.968 529.52 390.95 530.011 392.33C530.502 393.679 530.747 395.534 530.747 397.896C530.747 400.226 530.502 402.082 530.011 403.462C529.52 404.842 528.692 405.838 527.527 406.452C526.392 407.034 524.844 407.326 522.881 407.326C520.949 407.326 519.4 407.034 518.235 406.452C517.1 405.838 516.272 404.842 515.751 403.462C515.26 402.082 515.015 400.226 515.015 397.896C515.015 395.534 515.26 393.679 515.751 392.33C516.272 390.95 517.1 389.968 518.235 389.386C519.4 388.772 520.949 388.466 522.881 388.466ZM522.835 392.192C522.099 392.192 521.516 392.345 521.087 392.652C520.688 392.928 520.412 393.48 520.259 394.308C520.106 395.105 520.029 396.301 520.029 397.896C520.029 399.46 520.106 400.656 520.259 401.484C520.412 402.312 520.688 402.879 521.087 403.186C521.516 403.462 522.099 403.6 522.835 403.6C523.602 403.6 524.184 403.462 524.583 403.186C525.012 402.879 525.304 402.312 525.457 401.484C525.641 400.656 525.733 399.46 525.733 397.896C525.733 396.301 525.641 395.105 525.457 394.308C525.304 393.48 525.012 392.928 524.583 392.652C524.184 392.345 523.602 392.192 522.835 392.192Z" fill="white"/>
<path d="M176.459 463.835C179.52 463.835 181.965 464.115 183.795 464.675C185.661 465.198 187.005 466.113 187.827 467.419C188.685 468.726 189.115 470.537 189.115 472.851C189.115 474.606 188.947 476.174 188.611 477.555C188.275 478.899 187.677 480.001 186.819 480.859C185.96 481.718 184.728 482.297 183.123 482.595V482.819C185.773 483.23 187.603 484.238 188.611 485.843C189.619 487.449 190.141 489.67 190.179 492.507C190.216 495.195 189.805 497.398 188.947 499.115C188.088 500.795 186.669 502.027 184.691 502.811C182.749 503.595 180.136 503.987 176.851 503.987C174.611 503.987 172.352 503.875 170.075 503.651C167.797 503.465 165.595 503.241 163.467 502.979L163.803 496.707C165.333 496.819 166.677 496.913 167.835 496.987C169.029 497.025 170.149 497.062 171.195 497.099C172.277 497.137 173.397 497.155 174.555 497.155C176.347 497.155 177.765 497.006 178.811 496.707C179.856 496.371 180.603 495.793 181.051 494.971C181.499 494.113 181.723 492.918 181.723 491.387C181.723 490.193 181.573 489.185 181.275 488.363C180.976 487.542 180.397 486.926 179.539 486.515C178.68 486.105 177.411 485.899 175.731 485.899L168.451 485.955V480.355H175.731C176.963 480.355 177.933 480.225 178.643 479.963C179.389 479.665 179.931 479.291 180.267 478.843C180.64 478.358 180.864 477.798 180.939 477.163C181.051 476.491 181.107 475.801 181.107 475.091C181.107 473.822 180.92 472.889 180.547 472.291C180.173 471.657 179.539 471.227 178.643 471.003C177.784 470.779 176.571 470.667 175.003 470.667C173.061 470.667 171.176 470.686 169.347 470.723C167.555 470.761 165.968 470.817 164.587 470.891L164.251 464.899C166.341 464.526 168.395 464.265 170.411 464.115C172.427 463.929 174.443 463.835 176.459 463.835ZM220.44 464.619L220.16 471.059H204.088L203.64 478.339L209.296 478.955C211.648 479.179 213.608 479.627 215.176 480.299C216.781 480.971 218.051 481.849 218.984 482.931C219.917 484.014 220.589 485.265 221 486.683C221.411 488.102 221.616 489.689 221.616 491.443C221.616 493.123 221.411 494.71 221 496.203C220.589 497.697 219.88 499.022 218.872 500.179C217.901 501.337 216.539 502.251 214.784 502.923C213.029 503.595 210.789 503.931 208.064 503.931C206.272 503.931 204.256 503.819 202.016 503.595C199.776 503.409 197.48 503.11 195.128 502.699L195.912 496.203C197.741 496.39 199.533 496.558 201.288 496.707C203.043 496.819 204.573 496.875 205.88 496.875C207.859 496.875 209.352 496.67 210.36 496.259C211.405 495.849 212.115 495.233 212.488 494.411C212.899 493.553 213.123 492.489 213.16 491.219C213.235 489.987 213.104 488.998 212.768 488.251C212.432 487.505 211.909 486.945 211.2 486.571C210.491 486.161 209.539 485.862 208.344 485.675C207.149 485.489 205.693 485.339 203.976 485.227L199.16 484.723C198.376 484.611 197.741 484.275 197.256 483.715C196.771 483.155 196.547 482.483 196.584 481.699L197.592 464.619H220.44ZM235.378 463.835C237.768 463.835 239.672 464.209 241.09 464.955C242.509 465.665 243.517 466.859 244.114 468.539C244.712 470.219 245.01 472.497 245.01 475.371C245.01 478.209 244.712 480.467 244.114 482.147C243.517 483.827 242.509 485.041 241.09 485.787C239.672 486.497 237.768 486.851 235.378 486.851C233.026 486.851 231.141 486.497 229.722 485.787C228.341 485.041 227.352 483.827 226.754 482.147C226.157 480.467 225.858 478.209 225.858 475.371C225.858 472.497 226.157 470.219 226.754 468.539C227.352 466.859 228.341 465.665 229.722 464.955C231.141 464.209 233.026 463.835 235.378 463.835ZM235.378 468.427C234.482 468.427 233.792 468.614 233.306 468.987C232.821 469.323 232.466 469.995 232.242 471.003C232.056 472.011 231.962 473.467 231.962 475.371C231.962 477.275 232.056 478.731 232.242 479.739C232.466 480.71 232.821 481.382 233.306 481.755C233.792 482.129 234.482 482.315 235.378 482.315C236.312 482.315 237.021 482.129 237.506 481.755C238.029 481.382 238.384 480.71 238.57 479.739C238.794 478.731 238.906 477.275 238.906 475.371C238.906 473.467 238.794 472.011 238.57 471.003C238.384 469.995 238.029 469.323 237.506 468.987C237.021 468.614 236.312 468.427 235.378 468.427ZM263.434 464.619L240.306 503.259H235.098L258.226 464.619H263.434ZM263.21 480.915C265.6 480.915 267.485 481.289 268.866 482.035C270.285 482.745 271.293 483.939 271.89 485.619C272.488 487.262 272.786 489.521 272.786 492.395C272.786 495.233 272.488 497.491 271.89 499.171C271.293 500.851 270.285 502.065 268.866 502.811C267.485 503.521 265.6 503.875 263.21 503.875C260.858 503.875 258.973 503.521 257.554 502.811C256.173 502.065 255.165 500.851 254.53 499.171C253.933 497.491 253.634 495.233 253.634 492.395C253.634 489.521 253.933 487.262 254.53 485.619C255.165 483.939 256.173 482.745 257.554 482.035C258.973 481.289 260.858 480.915 263.21 480.915ZM263.154 485.451C262.258 485.451 261.549 485.638 261.026 486.011C260.541 486.347 260.205 487.019 260.018 488.027C259.832 488.998 259.738 490.454 259.738 492.395C259.738 494.299 259.832 495.755 260.018 496.763C260.205 497.771 260.541 498.462 261.026 498.835C261.549 499.171 262.258 499.339 263.154 499.339C264.088 499.339 264.797 499.171 265.282 498.835C265.805 498.462 266.16 497.771 266.346 496.763C266.57 495.755 266.682 494.299 266.682 492.395C266.682 490.454 266.57 488.998 266.346 488.027C266.16 487.019 265.805 486.347 265.282 486.011C264.797 485.638 264.088 485.451 263.154 485.451Z" fill="white"/>
<defs>
<filter id="filter0_dddi_395_3480" x="117.058" y="119.06" width="408.217" height="418.217" filterUnits="userSpaceOnUse" color-interpolation-filters="sRGB">
<feFlood flood-opacity="0" result="BackgroundImageFix"/>
<feColorMatrix in="SourceAlpha" type="matrix" values="0 0 0 0 0 0 0 0 0 0 0 0 0 0 0 0 0 0 127 0" result="hardAlpha"/>
<feOffset dx="10" dy="20"/>
<feGaussianBlur stdDeviation="40"/>
<feComposite in2="hardAlpha" operator="out"/>
<feColorMatrix type="matrix" values="0 0 0 0 0.117865 0 0 0 0 0.9125 0 0 0 0 0.197328 0 0 0 0.3 0"/>
<feBlend mode="normal" in2="BackgroundImageFix" result="effect1_dropShadow_395_3480"/>
<feColorMatrix in="SourceAlpha" type="matrix" values="0 0 0 0 0 0 0 0 0 0 0 0 0 0 0 0 0 0 127 0" result="hardAlpha"/>
<feOffset dx="-20" dy="-20"/>
<feGaussianBlur stdDeviation="25"/>
<feComposite in2="hardAlpha" operator="out"/>
<feColorMatrix type="matrix" values="0 0 0 0 0.0552222 0 0 0 0 0.0544444 0 0 0 0 0.0583333 0 0 0 0.5 0"/>
<feBlend mode="normal" in2="effect1_dropShadow_395_3480" result="effect2_dropShadow_395_3480"/>
<feColorMatrix in="SourceAlpha" type="matrix" values="0 0 0 0 0 0 0 0 0 0 0 0 0 0 0 0 0 0 127 0" result="hardAlpha"/>
<feOffset dx="-10" dy="-20"/>
<feGaussianBlur stdDeviation="25"/>
<feComposite in2="hardAlpha" operator="out"/>
<feColorMatrix type="matrix" values="0 0 0 0 0.98 0 0 0 0 1 0 0 0 0 0 0 0 0 0.2 0"/>
<feBlend mode="normal" in2="effect2_dropShadow_395_3480" result="effect3_dropShadow_395_3480"/>
<feBlend mode="normal" in="SourceGraphic" in2="effect3_dropShadow_395_3480" result="shape"/>
<feColorMatrix in="SourceAlpha" type="matrix" values="0 0 0 0 0 0 0 0 0 0 0 0 0 0 0 0 0 0 127 0" result="hardAlpha"/>
<feOffset/>
<feGaussianBlur stdDeviation="5"/>
<feComposite in2="hardAlpha" operator="arithmetic" k2="-1" k3="1"/>
<feColorMatrix type="matrix" values="0 0 0 0 1 0 0 0 0 1 0 0 0 0 1 0 0 0 0.6 0"/>
<feBlend mode="normal" in2="shape" result="effect4_innerShadow_395_3480"/>
</filter>
<linearGradient id="paint0_linear_395_3480" x1="419.404" y1="357.145" x2="532.386" y2="470.127" gradientUnits="userSpaceOnUse">
<stop stop-color="#01D9F7"/>
<stop offset="1" stop-color="#06A1DB"/>
</linearGradient>
<linearGradient id="paint1_linear_395_3480" x1="399.592" y1="348.642" x2="532.853" y2="348.642" gradientUnits="userSpaceOnUse">
<stop stop-color="#2E78F6"/>
<stop offset="1" stop-color="#0026BF"/>
</linearGradient>
<linearGradient id="paint2_linear_395_3480" x1="448.817" y1="93.3643" x2="351.242" y2="251.632" gradientUnits="userSpaceOnUse">
<stop stop-color="#DC0F8D"/>
<stop offset="1" stop-color="#F06E95"/>
</linearGradient>
<linearGradient id="paint3_linear_395_3480" x1="310.624" y1="60.0737" x2="310.624" y2="249.628" gradientUnits="userSpaceOnUse">
<stop stop-color="#5643B8"/>
<stop offset="1" stop-color="#AB50E5"/>
</linearGradient>
<linearGradient id="paint4_linear_395_3480" x1="184.103" y1="126.045" x2="291.95" y2="285.247" gradientUnits="userSpaceOnUse">
<stop stop-color="#17A494"/>
<stop offset="1" stop-color="#5ED982"/>
</linearGradient>
<linearGradient id="paint5_linear_395_3480" x1="61.317" y1="225.488" x2="264.404" y2="310.458" gradientUnits="userSpaceOnUse">
<stop stop-color="#E2971E"/>
<stop offset="1" stop-color="#F4C271"/>
</linearGradient>
<linearGradient id="paint6_linear_395_3480" x1="293.817" y1="319.795" x2="163.094" y2="581.241" gradientUnits="userSpaceOnUse">
<stop stop-color="#5DA4EE"/>
<stop offset="1" stop-color="#006FCC"/>
</linearGradient>
<radialGradient id="paint7_radial_395_3480" cx="0" cy="0" r="1" gradientUnits="userSpaceOnUse" gradientTransform="translate(391.554 326.742) rotate(-143.422) scale(110.641 676.171)">
<stop stop-color="#41FF48"/>
<stop offset="1" stop-color="#00BCB1"/>
</radialGradient>
<radialGradient id="paint8_radial_395_3480" cx="0" cy="0" r="1" gradientUnits="userSpaceOnUse" gradientTransform="translate(270.267 150.276) rotate(77.7927) scale(313.481 304.041)">
<stop stop-color="#E0E342"/>
<stop offset="0.8515" stop-color="#23AD8C" stop-opacity="0.58"/>
</radialGradient>
<radialGradient id="paint9_radial_395_3480" cx="0" cy="0" r="1" gradientUnits="userSpaceOnUse" gradientTransform="translate(243.471 239.479) rotate(32.2894) scale(196.026 267.437)">
<stop offset="0.186254" stop-color="#E2F12D"/>
<stop offset="1" stop-color="#E2F12D" stop-opacity="0.93"/>
</radialGradient>
<radialGradient id="paint10_radial_395_3480" cx="0" cy="0" r="1" gradientUnits="userSpaceOnUse" gradientTransform="translate(324.564 223.965) rotate(90) scale(213.311 113.958)">
<stop stop-color="white"/>
<stop offset="1" stop-color="white" stop-opacity="0.08"/>
</radialGradient>
</defs>
</svg>
