<svg width="90" height="101" viewBox="0 0 90 101" fill="none" xmlns="http://www.w3.org/2000/svg">
<path d="M16.7022 68.0958C17.1345 71.3219 19.1217 74.7296 21.7338 77.6613C25.1015 81.4359 29.5046 84.4113 32.9559 85.1561C39.0847 86.4784 42.565 79.6304 42.565 79.6304L29.0178 65.2185C28.8253 64.8879 28.3203 64.4738 27.7136 64.0633C26.8344 63.4638 25.7409 62.8571 25.1051 62.4902C24.0225 61.8617 15.714 60.7137 16.7022 68.0958Z" fill="#FEFEFE"/>
<g opacity="0.25">
<path d="M16.7567 65.6543C16.6659 66.2865 16.6586 67.0131 16.7603 67.8377C17.7049 75.5323 26.7945 84.1932 32.9232 85.5374C39.0483 86.8815 42.5723 79.7138 42.5723 79.7138L41.6059 78.6421C40.1128 80.6656 37.181 83.5683 33.0867 82.671C30.2857 82.057 26.8671 79.9136 23.8881 77.029C21.6902 74.9038 21.7338 71.3326 24.0443 69.3309C25.7373 67.8632 27.6773 67.4744 27.6773 67.4744L27.7899 63.678C26.9107 63.0786 25.8172 62.4719 25.1814 62.105C24.2659 61.5782 18.159 60.67 16.9165 64.8987C16.9165 64.9023 16.9129 64.9096 16.9129 64.9132C16.8548 65.1203 16.8075 65.3383 16.7712 65.5672C16.7639 65.5999 16.7603 65.6289 16.7567 65.6543Z" fill="#371A45"/>
</g>
<path d="M34.5034 86.0789C33.9403 86.0789 33.37 86.0171 32.7959 85.8936C29.6244 85.2069 25.7263 82.7911 22.3658 79.4306C18.7656 75.8231 16.426 71.7288 15.9537 68.1939C15.5068 64.8589 16.8619 63.1878 18.079 62.374C20.6184 60.6738 24.5746 61.3023 25.4865 61.8291L25.8316 62.0252C27.5827 63.0279 29.1921 63.9943 29.6753 64.8371C29.8823 65.2004 29.7588 65.6618 29.3992 65.8725C29.0359 66.0832 28.5745 65.9561 28.3638 65.5964C28.0441 65.0406 25.8898 63.809 25.0796 63.344L24.7272 63.1442C24.2658 62.879 20.9526 62.2686 18.9145 63.6419C17.6721 64.4775 17.1816 65.9452 17.4541 67.9978C18.3805 74.9149 27.0632 83.1108 33.1156 84.4186C38.5941 85.6029 41.7584 79.5505 41.8892 79.2925C42.0781 78.922 42.5358 78.773 42.9064 78.9619C43.2769 79.1509 43.4259 79.605 43.237 79.9792C43.2007 80.0555 42.2888 81.8283 40.5777 83.445C38.7285 85.1852 36.6578 86.0789 34.5034 86.0789Z" fill="#371A45"/>
<path d="M53.609 16.7153C53.6381 16.9442 56.4318 20.3664 56.8678 20.6025C57.3037 20.8387 63.8721 23.4725 63.8721 23.4725C63.8721 23.4725 64.1191 27.0691 66.1063 26.7967C67.2797 26.6368 68.9473 24.2028 70.1171 22.2337C70.9345 20.8605 71.5085 19.7125 71.5085 19.7125C71.5085 19.7125 80.2093 20.6861 79.8206 18.1975C79.4355 15.709 75.0361 12.2032 75.0361 12.2032C75.0361 12.2032 77.8697 4.43599 76.5873 3.07001C75.3049 1.70403 68.148 5.72931 68.148 5.72931C68.148 5.72931 64.2717 1.87114 61.5252 0.879353C60.7768 0.610517 60.112 0.55239 59.6324 0.843024C58.0194 1.82391 60.5552 9.83452 60.5552 9.83452L54.3937 12.3049C54.3937 12.3049 53.58 16.4864 53.609 16.7153Z" fill="#FFCF02"/>
<g opacity="0.2">
<path d="M53.609 16.7153C53.6308 16.8897 55.262 18.9205 56.2284 19.9813C56.6316 15.5963 59.5997 17.1912 59.5997 17.1912L64.1191 18.2266C64.1191 18.2266 65.0891 24.2681 65.5904 25.5651C66.0373 26.7276 67.5885 25.6705 67.9046 25.4416C68.6821 24.5334 69.474 23.3127 70.1171 22.2337C61.5688 18.2266 61.507 2.37975 61.5216 0.879353C60.7732 0.610517 60.1083 0.55239 59.6288 0.843024C58.0158 1.82391 60.5516 9.83452 60.5516 9.83452L54.3901 12.3049C54.3937 12.3049 53.58 16.4864 53.609 16.7153Z" fill="#000072"/>
</g>
<g opacity="0.7">
<path d="M66.9056 6.73934C66.9056 6.73934 74.0624 2.71406 75.3449 4.08004C76.6273 5.44602 73.7936 13.2132 73.7936 13.2132C73.7936 13.2132 78.1931 16.719 78.5782 19.2076C78.5963 19.3202 78.5963 19.4219 78.5782 19.52C79.4065 19.262 79.9296 18.8479 79.8279 18.1976C79.4428 15.709 75.0433 12.2033 75.0433 12.2033C75.0433 12.2033 77.877 4.43606 76.5946 3.07008C75.3122 1.7041 68.1553 5.72939 68.1553 5.72939C68.1553 5.72939 61.8703 -0.515617 59.6324 0.846731C59.3999 0.988415 59.2546 1.27542 59.1747 1.66414C61.8231 1.68957 66.9056 6.73934 66.9056 6.73934Z" fill="#FEFEFE"/>
</g>
<path d="M65.8992 27.3561C65.4596 27.3561 65.0455 27.2108 64.6967 26.9238C63.7558 26.1609 63.4543 24.5733 63.3634 23.8576C61.794 23.2291 57.0203 21.3073 56.6098 21.0857C56.5117 21.0312 56.2066 20.8677 54.6662 19.0076C53.1113 17.133 53.0859 16.9332 53.0677 16.7879C53.0532 16.6862 53.0278 16.4719 53.8597 12.2032C53.896 12.0215 54.0195 11.8689 54.1903 11.7999L59.8867 9.51843C59.6724 8.79185 59.2655 7.34594 58.9531 5.82011C58.3028 2.6195 58.4227 0.944719 59.3454 0.381615C61.6487 -1.0207 66.6694 3.53863 68.2425 5.05719C68.8673 4.71933 70.2188 4.01091 71.6756 3.38605C75.4829 1.75123 76.5328 2.21261 76.9869 2.69579C78.3093 4.10537 76.471 9.79453 75.6791 12.0252C76.7145 12.8934 80.0023 15.8179 80.3583 18.1139C80.4309 18.5826 80.2929 19.0113 79.9623 19.36C78.5636 20.8205 73.5356 20.4644 71.8209 20.2973C70.949 21.9866 68.1771 27.0655 66.1753 27.3379C66.0881 27.3488 65.9937 27.3561 65.8992 27.3561ZM64.417 23.4362C64.457 23.9848 64.704 25.5251 65.387 26.081C65.5795 26.2372 65.783 26.2917 66.0336 26.259C67.2071 26.0991 69.6593 22.1937 71.0217 19.4727C71.1234 19.2692 71.345 19.1493 71.5702 19.1748C74.037 19.4509 78.2839 19.5417 79.1776 18.608C79.272 18.5063 79.3047 18.4155 79.2829 18.2847C78.9923 16.4174 75.8752 13.5728 74.6982 12.6319C74.5165 12.4865 74.4475 12.2395 74.5274 12.0179C74.5347 11.9997 75.2359 10.0706 75.7699 8.00713C76.7617 4.18892 76.2531 3.50957 76.1949 3.44417C76.1731 3.42238 75.6137 2.88834 72.1152 4.3851C70.2151 5.19888 68.4386 6.1943 68.4205 6.2052C68.2098 6.32509 67.9409 6.28876 67.7702 6.11801C65.2853 3.65125 61.2055 0.530565 59.9158 1.31164C59.8867 1.32981 59.2437 1.76939 60.0211 5.59487C60.4426 7.66927 61.0674 9.65648 61.0747 9.67465C61.1619 9.94712 61.0238 10.2378 60.7586 10.3431L54.8733 12.7009C54.5899 14.1577 54.2339 16.0759 54.1649 16.6026C54.5826 17.2348 56.7297 19.8323 57.1402 20.1338C57.5362 20.3337 61.5869 21.9721 64.0791 22.9712C64.2717 23.0438 64.4025 23.2255 64.417 23.4362Z" fill="#371A45"/>
<path d="M7.38722 87.9063C12.2045 89.6319 14.4496 87.6229 16.168 85.0399C16.4296 84.6439 16.6803 84.237 16.9273 83.8265C18.7765 80.7313 18.3587 77.7232 18.9654 73.0222C19.5684 68.3539 24.9125 66.3812 24.996 66.3485C24.996 66.3485 27.47 72.9895 33.1483 77.1347C38.8266 81.2798 44.672 81.4905 44.672 81.4905C44.672 81.4905 43.4804 84.6403 43.3205 87.3177C43.157 89.9952 42.9391 91.9897 46.1978 95.8878C49.4565 99.786 56.7587 101.119 59.1637 96.1312C59.3526 95.7425 59.4979 95.3647 59.6033 94.9941C60.8785 90.6455 56.9694 87.8264 56.9694 87.8264C65.1181 77.705 61.6777 71.3983 61.6777 71.3983C63.6213 70.955 64.6785 70.2612 65.238 69.7271C65.6739 69.3057 65.8047 68.9824 65.8083 68.9497C65.8083 68.9497 70.1134 71.5218 71.6138 73.3709C73.1142 75.2201 75.2903 76.0375 78.1966 74.8713C82.6833 72.8333 85.5715 69.7198 87.1736 66.4902C87.1736 66.4865 87.1772 66.4865 87.1772 66.4829C89.4297 61.9381 89.1426 57.1681 87.199 54.8394C82.9521 49.499 75.9406 51.2282 74.4329 55.9765C70.5566 51.2827 64.7439 51.141 56.9949 55.5333L51.3747 53.3172L49.0823 52.4126C50.1323 51.29 51.1168 50.0657 52.0323 48.7397C55.5308 43.6717 58.0557 37.0889 59.5234 28.8639C59.5997 28.4316 59.676 27.9957 59.745 27.5561C59.745 27.5561 60.7113 26.7968 61.754 25.7868C62.3425 25.2201 62.9529 24.5734 63.4324 23.9449C63.5487 23.7887 63.6576 23.6361 63.7557 23.4836L63.0873 19.0623L59.636 18.5755C59.636 18.5755 64.1917 17.0278 63.2617 14.3395C63.2544 14.3213 63.2471 14.3032 63.2399 14.2814C62.8802 13.3259 62.0047 12.9808 60.9584 12.988C59.1492 12.9989 56.835 14.0634 55.8214 14.8445C55.8214 14.8445 55.7778 14.8517 55.7088 14.8554C55.4327 14.8735 54.7461 14.8408 54.8878 14.0561C54.9495 13.7146 55.6507 13.0934 56.5335 12.4322C58.1683 11.2079 60.4352 9.84191 60.4352 9.84191C60.4352 9.84191 60.4171 7.21894 58.1211 7.96006C56.6643 8.42871 54.5608 10.7974 52.6717 14.0198C52.5155 14.2886 52.3592 14.5611 52.203 14.8408C51.9306 15.3313 51.6654 15.8399 51.411 16.363C50.808 17.5946 50.2521 18.8988 49.7799 20.2321C49.7799 20.2321 46.75 28.7368 44.6574 30.6877C44.6102 30.7313 44.563 30.7749 44.5157 30.8112C43.2406 31.832 33.4026 40.4239 25.9006 46.985C21.0834 51.1992 17.2325 54.5778 17.2325 54.5778C16.0808 55.1954 14.9982 55.9547 13.9919 56.8339C13.8102 56.9901 13.6359 57.1499 13.4578 57.317C7.99029 62.4613 5.04035 71.1294 6.72239 78.6205C5.10211 80.2771 1.83247 85.9155 7.38722 87.9063Z" fill="#FEFEFE"/>
<g opacity="0.25">
<path d="M37.9874 47.2827C46.3867 46.6796 49.0787 52.4088 49.0787 52.4088L51.1895 54.247L51.3711 53.3134L49.0787 52.4088C50.1287 51.2862 52.3411 48.3399 53.2566 47.0139C48.0761 51.4279 44.9227 47.8785 45.5294 39.2539L40.4287 37.3721C39.9892 37.4447 39.9056 37.8117 37.6496 38.9996C35.3935 40.1912 29.5917 47.8894 37.9874 47.2827Z" fill="#371A45"/>
</g>
<path d="M65.9246 69.698C65.6739 69.698 65.4305 69.5745 65.2889 69.3492C63.1309 65.9997 61.8158 60.1652 63.625 55.951C64.6059 53.6659 66.3896 52.22 68.7874 51.7659C69.1979 51.6896 69.5939 51.9584 69.6738 52.3689C69.7501 52.7795 69.4813 53.1754 69.0707 53.2554C67.1671 53.615 65.8047 54.7267 65.02 56.5504C63.476 60.147 64.5913 65.4656 66.564 68.5318C66.7893 68.8842 66.6875 69.3529 66.3388 69.5781C66.208 69.658 66.0663 69.698 65.9246 69.698Z" fill="#371A45"/>
<path d="M44.7882 82.2353C44.6865 82.2353 44.5811 82.2135 44.4831 82.1699C44.1016 81.9992 43.9272 81.5523 44.098 81.1709C47.0079 74.6134 53.0895 70.0032 57.9503 70.679C59.6069 70.9078 62.4879 71.9905 63.1599 76.6697C63.2181 77.0838 62.9311 77.4689 62.5169 77.527C62.1028 77.5852 61.7177 77.2982 61.6595 76.884C61.2599 74.1048 59.9085 72.4773 57.7432 72.1794C54.1212 71.678 48.403 75.2092 45.4821 81.7885C45.355 82.0682 45.0789 82.2353 44.7882 82.2353Z" fill="#371A45"/>
<path d="M19.4269 72.361C19.1399 72.361 18.8637 72.1975 18.7366 71.9177C18.6094 71.638 15.605 65.3203 8.1793 66.3085C7.76515 66.363 7.38369 66.0724 7.3292 65.6582C7.2747 65.2441 7.56534 64.8626 7.97949 64.8081C12.4516 64.2123 15.5142 66.007 17.298 67.6164C19.2161 69.3493 20.0771 71.213 20.1135 71.2929C20.2879 71.6743 20.1171 72.1212 19.7393 72.2956C19.6412 72.3355 19.5322 72.361 19.4269 72.361Z" fill="#371A45"/>
<path d="M55.8287 41.2157C54.1394 41.2157 49.6273 41.0123 45.3404 39.0651C44.959 38.8907 44.7919 38.4438 44.9626 38.0624C45.137 37.6809 45.5838 37.5138 45.9653 37.6845C50.917 39.9333 56.3809 39.6899 56.4354 39.6863C56.8496 39.6645 57.2092 39.9878 57.231 40.4056C57.2528 40.8234 56.9295 41.1794 56.5153 41.2012C56.4681 41.2048 56.2283 41.2157 55.8287 41.2157Z" fill="#371A45"/>
<g opacity="0.25">
<path d="M55.8868 22.4953C54.7243 20.2792 55.5744 17.0132 58.0303 15.1277C60.1664 13.4892 62.6332 14.0923 63.2435 14.2812C62.8839 13.3258 62.0083 12.9806 60.962 12.9879C59.1528 12.9988 56.8387 14.0633 55.8251 14.8443C55.8251 14.8443 55.7815 14.8516 55.7125 14.8552C55.2075 15.6181 54.7316 16.5445 54.3428 17.6163C53.1658 20.8496 55.8868 22.4953 55.8868 22.4953Z" fill="#371A45"/>
</g>
<g opacity="0.25">
<path d="M44.6611 30.6913C44.5994 36.177 44.6321 41.1832 44.6321 41.1832C44.6321 41.1832 47.335 32.3515 49.4711 28.2936C51.6073 24.2356 55.7743 26.706 57.6561 27.2945C59.538 27.883 58.9603 31.0183 58.9603 31.0183L59.5198 28.8603C59.5961 28.428 59.6724 27.992 59.7414 27.5524C59.7414 27.5524 60.7078 26.7932 61.7504 25.7832C58.9349 26.9639 59.36 24.3373 59.36 24.3373C57.3836 27.6905 49.4021 23.9631 52.3012 14.8663L52.2031 14.8408C51.9306 15.3313 51.6654 15.8399 51.4111 16.363C50.808 17.5946 50.2522 18.8988 49.7799 20.2321C49.7836 20.2357 46.7537 28.7404 44.6611 30.6913Z" fill="#371A45"/>
</g>
<g opacity="0.25">
<path d="M60.1665 18.6482L60.4099 22.1067C62.6151 20.8752 63.309 23.4001 63.4325 23.945C63.5488 23.7888 63.6577 23.6362 63.7558 23.4836L63.0874 19.0623L60.1665 18.6482Z" fill="#371A45"/>
</g>
<g opacity="0.25">
<path d="M7.50719 87.8952C12.3245 89.6209 14.5696 87.6118 16.288 85.0288L16.2408 84.8871C8.69516 91.3756 4.68441 81.6938 9.62882 77.9991C8.58617 71.2637 10.3445 64.7389 14.0283 60.5102C15.3797 58.9589 17.396 58.1633 19.445 58.3195C32.0803 59.275 37.9075 51.3153 37.9075 51.3153L26.0242 46.9775C21.207 51.1917 17.3561 54.5704 17.3561 54.5704C16.2044 55.188 15.1218 55.9472 14.1155 56.8264C14.1119 56.83 14.1119 56.83 14.1082 56.8337C14.0428 56.8882 13.9811 56.9463 13.9193 57.0008C13.883 57.0335 13.843 57.0662 13.8067 57.1025C13.7304 57.1715 13.6577 57.2406 13.5814 57.3096C8.11389 62.4538 5.16395 71.122 6.846 78.6131C5.22208 80.2661 1.95244 85.9044 7.50719 87.8952Z" fill="#371A45"/>
</g>
<g opacity="0.25">
<path d="M45.5475 63.5947L35.8694 64.4521L36.7595 65.5274C36.7595 65.5274 35.9529 68.5864 40.0981 67.4929C44.2433 66.3993 45.1878 70.1086 45.1878 70.1086C44.7119 72.4118 46.6447 72.2811 46.6447 72.2811C48.5301 64.6882 58.4408 67.4456 58.4408 67.4456C58.4408 67.4456 54.6807 64.354 50.8443 65.8726L45.5475 63.5947Z" fill="#371A45"/>
</g>
<g opacity="0.25">
<path d="M25.1123 66.3375C25.1123 66.3375 27.5863 72.9785 33.2646 77.1237C38.9429 81.2688 44.7882 81.4795 44.7882 81.4795C44.7882 81.4795 43.5966 84.6293 43.4368 87.3068C43.2733 89.9842 43.0553 91.9787 46.3141 95.8768C49.5728 99.775 56.875 101.108 59.28 96.1203C59.4689 95.7315 59.6142 95.3537 59.7196 94.9831L59.6796 94.9722C59.6796 94.9722 59.3817 97.9585 53.7325 96.796C48.0833 95.6334 43.5095 85.9263 48.9007 75.4162C48.9007 75.4162 42.3978 79.8847 35.5097 72.4299C35.5097 72.4299 31.0703 68.3465 29.4246 64.4956C29.4246 64.4956 26.5945 65.1241 25.1123 66.3375Z" fill="#371A45"/>
</g>
<g opacity="0.25">
<path d="M61.22 62.6974C62.2045 65.9053 62.1355 68.9824 61.9357 70.7844C62.041 70.9151 62.1464 71.0496 62.2517 71.1876C63.3271 70.9297 64.3625 70.4501 65.3542 69.7199C65.7902 69.2985 65.921 68.9752 65.9246 68.9425C65.9246 68.9425 70.2296 71.5146 71.73 73.3637C73.2304 75.2129 75.4066 76.0303 78.3129 74.8641C82.7996 72.8261 85.6877 69.7126 87.2899 66.483C87.1336 66.7482 83.8059 72.2666 78.807 72.2339C73.6845 72.1976 77.2666 67.2059 77.5137 63.6965C77.7571 60.1871 78.4727 56.0456 79.7806 55.061C79.7806 55.061 76.8343 56.3217 75.7662 61.702C75.7662 61.702 75.7008 63.8128 74.0442 65.4185C72.3912 67.0279 67.7483 67.0352 63.5705 61.4623C63.5705 61.455 62.2009 61.4695 61.22 62.6974Z" fill="#371A45"/>
</g>
<path d="M18.2752 80.615C18.2752 80.615 20.2733 82.9401 19.1398 85.1126C18.0063 87.285 14.9801 86.6965 14.9801 86.6965L18.2752 80.615Z" fill="#FEFEFE"/>
<path d="M53.7798 100.113C50.8371 100.113 47.651 98.6561 45.7292 96.3601C42.3651 92.3348 42.5032 90.0824 42.663 87.4703L42.6775 87.2559C42.7902 85.3704 43.3787 83.3069 43.7565 82.1408C41.7947 81.8937 37.279 80.9891 32.8178 77.734C28.0841 74.2791 25.541 69.2293 24.7091 67.3402C23.3322 68.0123 20.2515 69.8578 19.8337 73.1057C19.6629 74.4208 19.5757 75.5797 19.4922 76.7023C19.2778 79.5687 19.1071 81.832 17.6939 84.2043C15.6667 87.6011 13.1891 90.7399 7.24922 88.611C4.82969 87.7428 4.01955 86.2387 3.76524 85.1307C3.20577 82.6857 4.75703 79.8448 6.02492 78.3916C4.14307 69.1349 8.9676 58.2652 16.9201 53.9492C18.6312 52.4488 42.1108 31.8574 44.1634 30.2153C45.7437 28.9511 48.3267 22.3936 49.1877 19.9741C51.3239 13.9253 55.3637 8.09079 58.0049 7.23705C59.1093 6.88102 59.8322 7.16076 60.2428 7.45866C61.2672 8.19978 61.3072 9.66748 61.3108 9.83459C61.3145 10.1034 61.1728 10.3505 60.9439 10.4885C59.1383 11.5784 57.1148 12.9553 56.1993 13.7582C57.7288 12.8536 60.4135 11.8254 62.2917 12.3849C63.1782 12.6465 63.7994 13.235 64.0937 14.0851C64.3552 14.8371 64.308 15.611 63.9592 16.323C63.5887 17.0787 62.9275 17.689 62.2481 18.1576L63.3126 18.3066C63.6432 18.3538 63.9047 18.6117 63.9556 18.9423L64.6241 23.3636C64.6531 23.5453 64.6095 23.7342 64.5114 23.8904C63.4397 25.5397 61.2818 27.3707 60.5661 27.9556C58.8622 38.2586 55.4763 46.3746 50.4956 52.1001L57.0567 54.6904C64.4715 50.5779 70.2696 50.5452 74.3167 54.5886C75.3339 52.7032 77.2267 51.3372 79.4936 50.9194C82.5889 50.349 85.7314 51.6351 87.9002 54.3561C89.5387 56.3215 90.0618 59.7038 89.2699 63.1878C88.0528 68.5246 84.1765 73.033 78.629 75.5506C78.6181 75.5543 78.6072 75.5579 78.5963 75.5652C75.6536 76.7459 73.0052 76.1355 71.1415 73.8395C70.0735 72.5208 67.3815 70.7479 66.1608 69.9777C65.6231 70.6026 64.6023 71.3691 62.8149 71.9032C63.487 73.9921 64.3589 79.6631 58.1429 87.7028C59.854 89.2722 61.8521 92.5346 59.963 96.4509C58.9821 98.4817 57.1548 99.7605 54.8188 100.051C54.4773 100.091 54.1322 100.113 53.7798 100.113ZM25.1123 65.5783C25.4211 65.5783 25.7081 65.7672 25.8208 66.0723C25.8462 66.1377 28.2911 72.5571 33.7078 76.5134C39.1354 80.4769 44.7556 80.7203 44.8101 80.7239C45.0535 80.7312 45.2787 80.8584 45.4131 81.0618C45.5476 81.2652 45.5766 81.5195 45.4894 81.7484C45.4785 81.7775 44.3378 84.8255 44.1852 87.354L44.1707 87.5684C44.0181 90.0424 43.9091 91.8298 46.8845 95.3937C48.69 97.5553 51.9488 98.8813 54.6226 98.5507C55.9014 98.3909 57.627 97.7842 58.5898 95.797C60.6969 91.4302 56.8024 88.5529 56.6353 88.433C56.4681 88.3131 56.3555 88.1242 56.3265 87.9208C56.2974 87.7137 56.3555 87.5066 56.4863 87.3431C60.5189 82.3333 61.5615 78.348 61.7214 75.8885C61.8957 73.2546 61.1219 71.7651 61.1147 71.747C61.0057 71.5399 60.9948 71.2892 61.0929 71.0749C61.1909 70.8605 61.3835 70.7043 61.6124 70.6498C64.4606 69.9995 65.129 68.8261 65.1944 68.6989C65.2598 68.5064 65.3979 68.3465 65.5868 68.2557C65.8157 68.1467 66.0845 68.1576 66.3025 68.2884C66.4841 68.3974 70.7383 70.9514 72.3077 72.8804C73.7536 74.6642 75.6718 75.0929 78.0078 74.1592C83.112 71.8342 86.6759 67.7108 87.784 62.8427C88.4742 59.8055 88.071 56.9174 86.7232 55.3116C86.7195 55.308 86.7159 55.3007 86.7123 55.2971C84.8958 53.0156 82.2946 51.933 79.7589 52.4016C77.6009 52.7976 75.8752 54.2508 75.2613 56.1908C75.1777 56.456 74.9561 56.6521 74.6836 56.7066C74.4112 56.7611 74.1314 56.6594 73.9571 56.4451C70.3205 52.0383 64.9292 51.9511 57.4781 56.1762C57.2783 56.2889 57.0385 56.307 56.8278 56.2235L48.9189 53.0991C48.6864 53.0083 48.512 52.8049 48.4575 52.5615C48.403 52.3181 48.4721 52.0601 48.6428 51.8785C53.867 46.2874 57.3909 38.0588 59.1129 27.418C59.142 27.2291 59.2437 27.0619 59.3926 26.9457C59.4181 26.9239 61.8739 24.9803 63.0801 23.2873L62.5424 19.7162L59.6506 19.3093C59.3018 19.262 59.0366 18.9787 59.0039 18.6299C58.9712 18.2812 59.1819 17.9542 59.5125 17.8416C60.1846 17.6127 62.0556 16.7662 62.6005 15.6436C62.7749 15.2876 62.7967 14.9461 62.6659 14.5683C62.5315 14.1832 62.2772 13.9471 61.863 13.8235C60.3881 13.384 57.6016 14.4993 56.4064 15.4257C56.3083 15.502 56.192 15.5528 56.0722 15.5746C55.9159 15.6001 55.1203 15.7054 54.6008 15.1823C54.4228 15.0006 54.1394 14.5937 54.263 13.9071C54.3429 13.4603 54.6626 12.8281 57.42 10.9463C58.3391 10.3178 59.2401 9.75104 59.745 9.4386C59.6833 9.1516 59.5634 8.82464 59.3527 8.67569C59.1674 8.54127 58.8695 8.54127 58.4699 8.67206C56.5045 9.30782 52.7262 14.4884 50.6119 20.4754C50.2776 21.4091 47.3059 29.6341 45.1043 31.3924C43.0481 33.0381 18.1008 54.9192 17.8501 55.1372C17.8065 55.1735 17.7593 55.2062 17.7084 55.2353C10.1592 59.2824 5.6144 69.6944 7.58345 78.4425C7.64158 78.6931 7.56528 78.9547 7.38364 79.14C6.25743 80.2843 4.79699 82.871 5.23658 84.7855C5.48725 85.8791 6.31192 86.6601 7.75783 87.1796C12.6369 88.9271 14.4824 86.6202 16.3897 83.4232C17.6212 81.3597 17.7702 79.358 17.9773 76.586C18.0572 75.4961 18.1516 74.2646 18.326 72.9095C18.9836 67.8052 24.611 65.709 24.8471 65.6218C24.9416 65.5928 25.0288 65.5783 25.1123 65.5783Z" fill="#371A45"/>
<path d="M61.7941 72.1467C61.5325 72.1467 61.2782 72.0123 61.1401 71.7688C59.756 69.3856 56.6498 65.5347 51.4293 66.4793C51.0152 66.552 50.6228 66.2795 50.5502 65.869C50.4739 65.4584 50.75 65.0625 51.1605 64.9898C55.7053 64.1651 59.716 66.3049 62.4516 71.0096C62.6623 71.3729 62.5388 71.8342 62.1792 72.0449C62.0556 72.114 61.9249 72.1467 61.7941 72.1467Z" fill="#371A45"/>
<path d="M37.2064 62.3197L47.0371 67.7546C47.9017 66.8681 49.6128 66.2396 50.5828 65.9345C51.0115 65.8001 51.2912 65.731 51.2912 65.731C53.4964 64.1253 56.3228 61.5786 57.5762 60.427C57.9903 60.0455 58.2265 59.5042 58.2229 58.9411C58.2156 57.6478 58.1139 56.5906 57.1112 55.5189C55.7379 54.0512 49.0533 51.7043 47.4658 52.5035C46.2814 53.103 42.9791 54.934 40.6395 56.6196C39.8475 57.19 39.1681 57.7422 38.7177 58.2254C36.9375 60.14 37.2064 62.3197 37.2064 62.3197Z" fill="#FEFEFE"/>
<g opacity="0.25">
<path d="M37.2063 62.3197L47.037 67.7545C47.9017 66.8681 49.6128 66.2396 50.5828 65.9344C49.2676 65.0989 49.2567 62.9772 49.2567 62.9772L52.7189 60.1944C52.7189 60.1944 49.7 61.5858 47.9126 62.0617C46.1252 62.5376 43.9381 61.1535 41.4568 59.7185C38.9756 58.2835 40.6431 56.616 40.6431 56.616C39.8511 57.1863 39.1717 57.7385 38.7212 58.2217C36.9375 60.1399 37.2063 62.3197 37.2063 62.3197Z" fill="#371A45"/>
</g>
<path d="M47.1788 68.699L36.5052 62.7955L36.458 62.4141C36.4434 62.3123 36.1637 59.8601 38.1691 57.7131C40.1418 55.5987 45.8273 52.4889 47.1279 51.8313C49.1151 50.8287 56.1448 53.379 57.667 55.0065C58.8695 56.2926 58.9785 57.6004 58.9858 58.941C58.9894 59.7184 58.6624 60.4668 58.0921 60.9936C56.9368 62.0544 54.0087 64.6992 51.7417 66.3485L51.6218 66.4357L51.4765 66.4721C50.6954 66.6646 48.4757 67.3694 47.582 68.2849L47.1788 68.699ZM37.9511 61.8655L46.939 66.8353C48.2577 65.8072 50.3467 65.2005 50.9643 65.037C53.1513 63.4277 55.9486 60.8991 57.064 59.8747C57.3219 59.6385 57.4708 59.3007 57.4672 58.9446C57.4599 57.8039 57.3909 56.9283 56.559 56.0383C56.0867 55.5333 54.4155 54.6323 52.1341 53.8803C49.5946 53.0484 48.156 53.0048 47.8109 53.1792C46.1906 53.9966 40.9483 56.9501 39.2771 58.7412C38.1546 59.9437 37.9693 61.2443 37.9511 61.8655Z" fill="#371A45"/>
<path d="M47.4912 63.7763C45.2897 63.7763 39.5315 60.5975 38.4634 59.0026C38.1473 58.534 38.2236 58.1961 38.3399 57.9999C38.4634 57.7892 38.7359 57.7202 38.9466 57.8437C39.1391 57.9564 39.2118 58.1925 39.1318 58.3923C39.2408 58.7447 40.4361 59.8128 42.7793 61.0916C44.9009 62.2505 46.8881 62.9843 47.622 62.8826C49.3622 62.6319 53.9288 58.93 55.549 57.1753C56.4827 56.1653 56.3628 55.5296 56.1485 55.3152C55.9668 55.1517 55.9523 54.8756 56.1158 54.694C56.2793 54.5123 56.5626 54.4978 56.7443 54.6613C56.7842 54.6976 57.1512 55.0391 57.1839 55.6712C57.2166 56.3288 56.886 57.0372 56.203 57.7783C54.7316 59.3732 49.9434 63.4457 47.7492 63.7618C47.6656 63.7727 47.582 63.7763 47.4912 63.7763Z" fill="#371A45"/>
<path d="M53.3983 60.1325C53.3256 60.1325 53.253 60.1107 53.1876 60.0671L50.6881 58.3669C50.6155 58.3197 50.5646 58.247 50.5392 58.1635L49.7581 55.5477L45.2823 53.9747C45.0862 53.9057 44.9844 53.6913 45.0535 53.4988C45.1225 53.3026 45.3368 53.2009 45.5294 53.2699L50.1868 54.9047C50.2994 54.9447 50.3866 55.0355 50.4229 55.1518L51.2185 57.822L53.6054 59.4495C53.7761 59.5658 53.8197 59.7983 53.7035 59.969C53.6344 60.0744 53.5182 60.1325 53.3983 60.1325Z" fill="#371A45"/>
<path d="M43.8836 57.5278C43.8655 57.655 43.8836 57.7821 43.9381 57.9057C44.1706 58.4688 45.0607 58.981 46.176 59.1372C47.2913 59.2934 48.2904 59.0464 48.6682 58.5705C48.7518 58.4651 48.8063 58.3489 48.8244 58.2217C48.8353 58.1491 48.8317 58.08 48.8208 58.0074L48.8135 57.971C48.6718 57.3571 47.7345 56.7794 46.5357 56.6087C45.1661 56.4198 43.9817 56.8303 43.8836 57.5278Z" fill="#0EA6F1"/>
<path d="M46.8481 59.5622C46.6156 59.5622 46.3722 59.544 46.1215 59.5113C44.8754 59.337 43.8836 58.763 43.5894 58.0509C43.5095 57.862 43.484 57.6694 43.5131 57.4769C43.5821 56.9937 43.9708 56.605 44.6102 56.3834C45.1661 56.1908 45.8672 56.14 46.5829 56.2417C47.9307 56.4306 48.9952 57.11 49.1768 57.8911L49.1877 57.9383C49.2095 58.0582 49.2095 58.1672 49.195 58.2761C49.1696 58.4687 49.0896 58.6467 48.9625 58.8065C48.5738 59.2897 47.7854 59.5622 46.8481 59.5622ZM45.8709 56.9392C45.4967 56.9392 45.1406 56.9901 44.8536 57.0882C44.5049 57.2081 44.2796 57.3933 44.2542 57.5786C44.2469 57.6367 44.2542 57.6949 44.2833 57.7603C44.4431 58.1454 45.1588 58.614 46.2269 58.7666C47.295 58.9155 48.1124 58.6649 48.3703 58.3379C48.4139 58.2798 48.4393 58.2253 48.4502 58.1672C48.4539 58.1345 48.4539 58.1054 48.4466 58.0691L48.4393 58.04C48.3485 57.6476 47.5892 57.1354 46.4739 56.9756C46.2741 56.9538 46.067 56.9392 45.8709 56.9392Z" fill="#371A45"/>
<path d="M46.75 61.0808C46.4739 61.0808 46.1905 61.0627 45.9072 61.0191C45.0643 60.8992 44.2869 60.6158 43.7238 60.2198C43.088 59.773 42.7792 59.2208 42.8555 58.6722C42.8773 58.5124 42.9354 58.3598 43.0226 58.2145L43.5603 57.3317C43.6511 57.1791 43.84 57.1137 44.0071 57.1754C44.1743 57.2372 44.276 57.4043 44.2506 57.5787C44.2433 57.6368 44.2506 57.695 44.2796 57.7604C44.4395 58.1454 45.1552 58.6141 46.2232 58.7667C47.2913 58.9156 48.1087 58.665 48.3667 58.338C48.4103 58.2799 48.4357 58.2254 48.4466 58.1672C48.4502 58.1345 48.4502 58.1055 48.443 58.0692C48.4066 57.8657 48.541 57.6732 48.7445 57.6368C48.9479 57.5969 49.1405 57.7313 49.1804 57.9311L49.482 59.4751C49.4892 59.5151 49.4929 59.5587 49.4856 59.5986C49.4093 60.1472 48.9588 60.5904 48.225 60.8447C47.7963 61.0046 47.2913 61.0808 46.75 61.0808ZM43.7928 58.3925L43.6656 58.5996C43.6293 58.6613 43.6075 58.7158 43.6003 58.7739C43.5639 59.0282 43.7674 59.3298 44.1561 59.6022C44.6247 59.9328 45.2823 60.169 46.0125 60.2743C46.7427 60.3761 47.4403 60.3288 47.9816 60.1436C48.3994 59.9982 48.6718 59.7839 48.7372 59.5514L48.6464 59.0936C48.0797 59.4933 47.146 59.6531 46.1215 59.5078C45.0825 59.3661 44.2215 58.9411 43.7928 58.3925Z" fill="#371A45"/>
<path d="M29.4863 75.5434C30.1294 77.7885 33.2791 77.1455 33.2791 77.1455C34.0784 74.9766 35.0774 73.0076 36.3053 71.2638C36.4325 71.0821 36.5633 70.9041 36.6941 70.7261C36.6977 70.7225 36.6977 70.7189 36.6977 70.7189C37.7513 69.3202 38.9647 68.0777 40.3524 67.006C41.1117 66.4211 41.9219 65.8907 42.7865 65.4148C43.8437 62.2396 40.2289 61.6656 38.3035 62.9371C38.1145 63.0352 37.9293 63.1333 37.7513 63.235C34.8159 64.8844 33.0357 67.0714 31.6806 69.4546C30.9032 70.8206 30.2674 72.2556 29.628 73.687C29.3774 74.2755 29.312 74.9294 29.4863 75.5434Z" fill="#FEFEFE"/>
<g opacity="0.25">
<path d="M29.4864 75.5434C30.1294 77.7886 33.2792 77.1455 33.2792 77.1455C34.0784 74.9767 35.0775 73.0076 36.3054 71.2638C35.6224 72.1212 34.1656 73.6325 32.687 73.0803C30.9032 72.4155 31.5136 70.0214 31.6843 69.4583C30.9069 70.8242 30.2711 72.2592 29.6317 73.6906C29.3774 74.2755 29.312 74.9294 29.4864 75.5434Z" fill="#371A45"/>
</g>
<g opacity="0.25">
<path d="M37.7585 63.2387C41.3951 63.6383 40.2943 66.8062 40.2943 66.8062L40.3597 67.0097C41.119 66.4248 41.9291 65.8944 42.7938 65.4184C43.851 62.2433 40.2362 61.6693 38.3107 62.9408C38.1218 63.0389 37.9366 63.137 37.7585 63.2387Z" fill="#371A45"/>
</g>
<path d="M32.3164 77.9703C30.9541 77.9703 29.2502 77.5016 28.7416 75.7287C28.5236 74.9622 28.5854 74.123 28.9233 73.3637C30.7543 69.244 32.647 64.9826 37.9111 62.2651C39.3934 61.306 41.4896 61.2842 42.7066 62.2143C43.6839 62.9626 43.9709 64.2087 43.4949 65.6365L43.4005 65.9162L43.1425 66.0579C38.932 68.3793 35.9348 72.0813 33.9767 77.3817L33.8314 77.7777L33.4172 77.8613C33.1084 77.9267 32.7269 77.9703 32.3164 77.9703ZM40.476 63.0462C39.8693 63.0462 39.2154 63.2169 38.7104 63.5512L38.6377 63.5948C33.8205 66.0688 32.113 69.9124 30.3074 73.9813C30.1149 74.4173 30.0749 74.8895 30.1948 75.3146C30.5254 76.4735 31.9931 76.4953 32.7124 76.4372C34.7614 71.1222 37.8457 67.3403 42.1326 64.8917C42.2997 64.2196 42.1798 63.7256 41.7838 63.4204C41.4605 63.1661 40.9846 63.0462 40.476 63.0462Z" fill="#371A45"/>
<path d="M47.5203 68.3394C46.7319 69.1495 45.9218 69.9633 45.3442 70.9515C45.2061 71.1731 44.9155 71.2421 44.6939 71.1077C44.534 71.0096 44.4541 70.8279 44.4723 70.6536C44.5122 70.3048 44.603 69.9633 44.7266 69.64C45.1044 68.6736 45.7002 67.7726 46.5612 67.1732C47.3241 66.6755 48.1488 67.6891 47.5203 68.3394Z" fill="#371A45"/>
<path d="M73.6156 75.6668C73.4376 75.6668 73.2595 75.6051 73.1142 75.4779C70.1897 72.8985 72.453 69.2474 74.106 66.5772C74.7454 65.5455 75.3521 64.5682 75.5955 63.8126C75.8171 63.126 75.977 62.3303 76.1514 61.4875C76.6854 58.8645 77.3502 55.5985 80.3946 53.6077C83.7405 51.4207 86.7486 53.1136 87.8712 54.3161C88.1582 54.6213 88.14 55.1008 87.8348 55.3878C87.5297 55.6712 87.0538 55.6567 86.7668 55.3551C86.665 55.2461 84.3218 52.852 81.2266 54.8792C78.7126 56.5249 78.164 59.2024 77.6372 61.7963C77.4556 62.6827 77.2885 63.5183 77.0414 64.2849C76.7399 65.2149 76.0896 66.2684 75.3993 67.3837C73.4993 70.4463 72.2968 72.7423 74.1242 74.3481C74.4366 74.6242 74.4693 75.1037 74.1896 75.4162C74.0334 75.5833 73.8263 75.6668 73.6156 75.6668Z" fill="#371A45"/>
<path d="M88.7867 59.2751C88.1328 59.2751 80.6235 58.1779 78.3311 57.8401C77.917 57.7783 77.63 57.3932 77.6917 56.9791C77.7535 56.5649 78.1349 56.2779 78.5527 56.3397C82.2292 56.881 88.2599 57.7456 88.783 57.7565C88.7867 57.7565 88.7939 57.7565 88.7976 57.7565C89.2081 57.7565 89.5423 58.0871 89.5496 58.5013C89.5569 58.919 89.219 59.2642 88.8012 59.2714C88.7939 59.2751 88.7903 59.2751 88.7867 59.2751Z" fill="#371A45"/>
<path d="M88.5433 63.7182C88.507 63.7182 88.467 63.7146 88.4271 63.711L77.1069 61.989C76.6927 61.9272 76.4093 61.5385 76.4711 61.128C76.5329 60.7138 76.9216 60.4268 77.3321 60.4922L88.6523 62.2142C89.0665 62.276 89.3498 62.6647 89.2881 63.0752C89.2336 63.453 88.9102 63.7182 88.5433 63.7182Z" fill="#371A45"/>
<path d="M86.3236 68.9279C86.2654 68.9279 86.2073 68.9206 86.1455 68.9061L75.6427 66.3993C75.2359 66.3012 74.9852 65.8944 75.0833 65.4875C75.1814 65.0806 75.5883 64.8299 75.9951 64.928L86.4979 67.4347C86.9048 67.5328 87.1555 67.9397 87.0574 68.3466C86.9739 68.6917 86.6651 68.9279 86.3236 68.9279Z" fill="#371A45"/>
<path d="M82.0839 73.1493C81.9894 73.1493 81.895 73.1311 81.8042 73.0948L73.492 69.7743C73.1033 69.6181 72.9144 69.1785 73.0706 68.7897C73.2268 68.401 73.6664 68.2121 74.0551 68.3683L82.3673 71.6888C82.756 71.845 82.9449 72.2846 82.7887 72.6733C82.6688 72.9712 82.3854 73.1493 82.0839 73.1493Z" fill="#371A45"/>
<path d="M75.254 56.2379C74.6909 57.4004 74.3603 58.6974 74.1896 59.9834C74.1351 60.3722 73.5611 60.354 73.532 59.9616C73.423 58.523 73.4921 57.0771 73.8481 55.6675C74.2078 54.6031 75.7372 55.2207 75.254 56.2379Z" fill="#371A45"/>
<path d="M61.4126 71.1075C61.7867 69.6797 61.7214 68.1648 61.4707 66.7153C61.4017 66.2684 61.2491 65.6508 61.1437 65.204C61.0965 65.0005 61.22 64.8007 61.4235 64.7535C61.6087 64.7099 61.7904 64.808 61.8594 64.9787C62.2772 65.9851 62.5533 67.0459 62.6732 68.1285C62.7604 69.0912 62.7458 70.083 62.5061 71.0312C62.4661 71.1874 62.4334 71.3073 62.3717 71.4708C62.2736 71.7323 61.9757 71.8668 61.7141 71.765C61.4453 71.667 61.3181 71.3691 61.4126 71.1075Z" fill="#371A45"/>
<path d="M15.8956 87.5285C15.3071 87.5285 14.8857 87.4486 14.8348 87.4413C14.4243 87.3614 14.1555 86.9654 14.2354 86.5549C14.3153 86.1444 14.7149 85.8755 15.1218 85.9554C15.1436 85.9591 17.6104 86.4023 18.4641 84.7638C19.3433 83.0782 17.7121 81.1273 17.6939 81.1091C17.4251 80.7894 17.4614 80.3135 17.7775 80.041C18.0935 79.7686 18.5695 79.8049 18.8419 80.121C18.9364 80.23 21.1597 82.8638 19.8047 85.465C18.8928 87.2197 17.0618 87.5285 15.8956 87.5285Z" fill="#371A45"/>
<path d="M60.2609 18.4192C60.9766 19.5163 60.8894 20.9222 60.6496 22.1429C60.5624 22.5316 60.4534 22.9131 60.319 23.2873C60.2572 23.4689 60.0574 23.5634 59.8758 23.5016C59.4798 23.3454 59.7123 22.8695 59.7268 22.5607C59.7886 22.0376 59.8431 21.4454 59.8213 20.9295C59.7995 20.272 59.705 19.6035 59.4326 19.0186C59.0511 18.4628 59.8504 17.8815 60.2609 18.4192Z" fill="#371A45"/>
<path d="M56.2538 15.2404C55.0695 16.3557 54.4955 17.9724 54.3175 19.5636C54.2666 20.0977 53.4928 20.0577 53.5001 19.5237C53.5073 18.1213 53.8597 16.7081 54.6444 15.5311C54.9242 15.1205 55.2366 14.7427 55.6326 14.4303C56.1812 14.0307 56.7733 14.8117 56.2538 15.2404Z" fill="#371A45"/>
<path d="M47.6764 28.2207C48.4103 32.0644 48.1777 36.1151 46.8626 40.0059C46.5938 40.7979 46.2814 41.5863 45.9253 42.3601C45.7509 42.7379 45.5657 43.1157 45.3695 43.4899C44.7737 44.6198 44.1016 45.6806 43.3605 46.6724C42.7211 47.5297 42.0308 48.3326 41.297 49.0846C40.4105 49.9892 39.4587 50.8175 38.456 51.5623C38.0891 51.8311 37.7149 52.0927 37.3371 52.3434C30.3982 56.8954 21.2977 57.7237 13.4542 53.7311C1.90513 47.8458 -2.53794 33.7246 3.52905 22.1901C4.69885 19.9703 6.17382 18.0013 7.87767 16.3229C8.07385 16.1231 8.27729 15.9305 8.48437 15.7416C9.03657 15.233 9.60694 14.7534 10.1991 14.303C11.5687 13.2603 13.0401 12.3775 14.5804 11.6582C16.1208 10.9389 17.7338 10.383 19.3832 10.0016C19.9099 9.88169 20.4367 9.77633 20.9707 9.69278C21.77 9.56562 22.5765 9.4748 23.3903 9.4312C27.441 9.19506 31.5934 9.99068 35.4407 11.9525C42.089 15.3347 46.3831 21.4453 47.6764 28.2207Z" fill="white"/>
<path d="M24.1532 56.3723C20.4695 56.3723 16.7857 55.5222 13.4179 53.8075C7.8305 50.9629 3.71076 46.1202 1.82164 40.1695C-0.0856515 34.1715 0.495617 27.7703 3.45282 22.1501C4.60809 19.9595 6.0758 17.9759 7.81597 16.2612C8.00488 16.0722 8.20469 15.8797 8.4263 15.6799C8.97487 15.1713 9.55614 14.6881 10.1483 14.2376C11.507 13.2022 12.9856 12.3085 14.5442 11.5819C16.0845 10.859 17.7084 10.3032 19.365 9.9217C19.8991 9.79818 20.4331 9.69282 20.9599 9.60927C21.7773 9.47848 22.5947 9.39129 23.3903 9.3477C27.5755 9.10429 31.757 9.97982 35.488 11.8798C41.9364 15.1604 46.4122 21.1148 47.7673 28.2099C48.5193 32.1443 48.2359 36.235 46.9499 40.0423C46.6774 40.8488 46.3613 41.6444 46.0089 42.4073C45.8491 42.7561 45.6675 43.1267 45.4531 43.5408C44.8646 44.6598 44.1852 45.7351 43.4368 46.7378C42.8083 47.5806 42.1145 48.3944 41.3661 49.1573C40.4905 50.051 39.5314 50.8866 38.5142 51.6423C38.1509 51.9111 37.7731 52.1727 37.3916 52.4233C33.3882 55.039 28.7671 56.3723 24.1532 56.3723ZM24.7599 9.48211C24.3058 9.48211 23.8517 9.49665 23.3976 9.52208C22.6093 9.56567 21.7991 9.65286 20.9853 9.78365C20.4658 9.8672 19.9318 9.97256 19.405 10.0924C17.7593 10.4703 16.1499 11.0261 14.6204 11.7418C13.0765 12.4647 11.6051 13.3512 10.2573 14.3757C9.66876 14.8225 9.09476 15.3057 8.54982 15.8107C8.33184 16.0105 8.13203 16.1994 7.94312 16.3883C6.21385 18.0922 4.75704 20.0576 3.61267 22.2337C0.67363 27.8102 0.0996279 34.1642 1.98875 40.115C3.86698 46.0185 7.95402 50.8248 13.4979 53.6476C21.0289 57.484 30.1439 56.9536 37.2899 52.2635C37.6677 52.0164 38.0419 51.7549 38.4052 51.486C39.4152 50.7377 40.367 49.9057 41.2353 49.0193C41.9764 48.26 42.6667 47.4535 43.2915 46.6179C44.0363 45.6225 44.712 44.5544 45.2933 43.4464C45.5076 43.0358 45.6893 42.6689 45.8455 42.3202C46.1942 41.5645 46.5103 40.7725 46.7791 39.9733C48.0543 36.195 48.334 32.1371 47.5893 28.2317C46.2451 21.191 41.802 15.2839 35.4044 12.0288C32.1057 10.354 28.4546 9.48211 24.7599 9.48211Z" fill="#371A45"/>
<path d="M48.0289 34.2114C43.4006 50.3852 24.4403 57.1061 13.1274 45.0157C5.42919 36.7907 7.69614 22.8657 16.2226 15.9414C22.424 10.9025 30.6744 8.64644 41.0755 15.9668C41.0755 15.9668 45.1662 19.9194 46.365 23.7994C47.5639 27.6794 48.0689 31.661 48.0689 31.661L48.0289 34.2114Z" fill="#371A45"/>
<g opacity="0.25">
<path d="M13.4579 53.7275C21.3014 57.7238 30.4019 56.8918 37.3408 52.3398C37.7186 52.0891 38.0928 51.8311 38.4597 51.5623C39.4624 50.8176 40.4142 49.9929 41.3007 49.0883C42.0345 48.3363 42.7248 47.5334 43.3642 46.676C44.1089 45.6842 44.781 44.6234 45.3768 43.4936C45.5694 43.1157 45.7583 42.7416 45.9327 42.3637C46.2887 41.5863 46.6011 40.8016 46.87 40.0096C48.1851 36.1151 48.4176 32.0644 47.6837 28.2244C47.2805 26.1136 46.5866 24.0647 45.6202 22.1465C46.2378 25.8303 45.9654 29.6884 44.712 33.4013C44.4432 34.1969 44.1344 34.9816 43.7747 35.7554C43.6039 36.1333 43.415 36.5075 43.2189 36.8853C42.6231 38.0151 41.951 39.0759 41.2098 40.0677C40.5704 40.9251 39.8802 41.728 39.1463 42.48C38.2599 43.3846 37.3081 44.2129 36.3054 44.954C35.9385 45.2229 35.5643 45.4844 35.1865 45.7315C28.2476 50.2835 19.1471 51.1155 11.3036 47.1192C6.72609 44.7905 3.26754 41.1685 1.13501 36.9252C2.29391 43.9114 6.6389 50.2545 13.4579 53.7275Z" fill="#371A45"/>
</g>
<path d="M24.1532 56.968C20.375 56.968 16.6004 56.0961 13.1455 54.3377C7.41635 51.4205 3.19125 46.4507 1.24763 40.3473C-0.706882 34.1968 -0.114714 27.6321 2.91878 21.8666C4.10312 19.6178 5.60715 17.587 7.39092 15.8287C7.58346 15.6362 7.79054 15.4363 8.01941 15.2293C8.57888 14.7134 9.17468 14.212 9.78138 13.7507C11.1764 12.6899 12.6914 11.7744 14.2862 11.0296C15.8665 10.2921 17.5268 9.71812 19.227 9.32576C19.7719 9.19861 20.3241 9.09325 20.8618 9.00606C21.701 8.87164 22.5366 8.78082 23.3504 8.73722C27.6409 8.48655 31.9277 9.38389 35.7532 11.3311C42.3688 14.6989 46.9608 20.8022 48.3486 28.0826C49.1187 32.1188 48.8317 36.3148 47.513 40.2166C47.2332 41.0412 46.9099 41.8586 46.5503 42.6397C46.3868 42.9957 46.2015 43.3772 45.9799 43.7986C45.3768 44.9466 44.6793 46.0474 43.9091 47.0755C43.2661 47.9365 42.554 48.7721 41.7875 49.5568C40.8902 50.4723 39.9093 51.3297 38.8666 52.1035C38.4924 52.3796 38.1073 52.6484 37.7186 52.9064C33.617 55.6056 28.8833 56.968 24.1532 56.968ZM24.76 10.0778C24.3167 10.0778 23.8771 10.0923 23.4339 10.1177C22.6637 10.1613 21.8754 10.2449 21.0834 10.372C20.5748 10.452 20.0589 10.5537 19.5431 10.6736C17.9373 11.0441 16.3679 11.5854 14.8748 12.283C13.3671 12.9878 11.9357 13.8524 10.6206 14.8514C10.0502 15.2874 9.48712 15.756 8.95671 16.2501C8.746 16.4427 8.54619 16.6316 8.36817 16.8096C6.67886 18.4735 5.25839 20.3917 4.14308 22.5133C1.28396 27.9518 0.720859 34.1387 2.56639 39.9368C4.39375 45.6877 8.37544 50.367 13.774 53.1171C21.1125 56.8554 29.9986 56.3359 36.9666 51.7656C37.3335 51.5222 37.7004 51.2679 38.0528 51.0064C39.0374 50.2761 39.9638 49.4696 40.8102 48.6014C41.5332 47.8602 42.2089 47.0755 42.812 46.2617C43.5386 45.2918 44.1961 44.2491 44.7665 43.1701C44.9736 42.7705 45.1516 42.4108 45.3042 42.073C45.6457 41.3319 45.9508 40.5653 46.216 39.7842C47.4585 36.1041 47.731 32.1478 47.0044 28.3478C45.6929 21.4888 41.3697 15.7379 35.1356 12.5663C31.9205 10.9315 28.3602 10.0778 24.76 10.0778Z" fill="#371A45"/>
<path d="M24.1533 57.0371C20.3641 57.0371 16.5786 56.1652 13.1128 54.3996C7.3655 51.4751 3.12951 46.4907 1.18226 40.3692C-0.779524 34.2005 -0.183723 27.6177 2.85704 21.834C4.04501 19.5816 5.55267 17.5436 7.34371 15.7816C7.53625 15.589 7.74333 15.3892 7.97583 15.1822C8.53894 14.6626 9.13474 14.1649 9.74144 13.6999C11.1401 12.6355 12.6587 11.72 14.2608 10.9716C15.8448 10.2305 17.5123 9.65647 19.2161 9.26411C19.7647 9.13696 20.3133 9.0316 20.8546 8.94441C21.6938 8.80999 22.5366 8.71917 23.3504 8.67558C27.6518 8.4249 31.9532 9.32587 35.7859 11.2768C42.4196 14.6517 47.0226 20.7769 48.4176 28.0754C49.1914 32.1225 48.9008 36.3294 47.5784 40.2457C47.2987 41.074 46.9717 41.8914 46.612 42.6762C46.4486 43.0322 46.2633 43.4136 46.0417 43.8387C45.435 44.9903 44.7374 46.0947 43.9673 47.1265C43.3242 47.9911 42.6085 48.8267 41.8384 49.6114C40.941 50.5305 39.9529 51.3916 38.9102 52.1654C38.536 52.4415 38.1473 52.7139 37.7586 52.9682C33.6425 55.6711 28.8979 57.0371 24.1533 57.0371ZM24.76 10.1469C24.3204 10.1469 23.8772 10.1614 23.4376 10.1869C22.671 10.2305 21.8827 10.314 21.0943 10.4412C20.5894 10.5211 20.0735 10.6228 19.5576 10.7427C17.9555 11.1096 16.3933 11.6509 14.9038 12.3448C13.3998 13.046 11.9721 13.907 10.6606 14.906C10.0902 15.342 9.53073 15.8106 9.00032 16.2975C8.78961 16.49 8.59343 16.6753 8.41542 16.8533C6.73337 18.5135 5.31653 20.4245 4.20122 22.5388C1.34937 27.9592 0.789902 34.1279 2.62816 39.9079C4.45189 45.6406 8.41905 50.3089 13.8031 53.0482C21.1198 56.7756 29.9805 56.2597 36.9266 51.7004C37.2936 51.4606 37.6569 51.2026 38.0093 50.9447C38.9902 50.2181 39.9129 49.4116 40.7558 48.5506C41.4751 47.8131 42.1472 47.0284 42.7539 46.2183C43.4804 45.2483 44.1344 44.2129 44.7011 43.1339C44.9082 42.7379 45.0826 42.3783 45.2388 42.0404C45.5803 41.3029 45.8854 40.5364 46.147 39.7589C47.3858 36.0897 47.6583 32.1479 46.9317 28.3588C45.6239 21.5216 41.3116 15.7889 35.0993 12.6246C31.8987 10.997 28.3493 10.1469 24.76 10.1469Z" fill="#371A45"/>
<path d="M13.1273 45.0158C24.4403 57.1025 43.4005 50.3816 48.0289 34.2114L48.0362 33.6956C37.9403 45.4517 20.4077 48.1582 8.73877 36.1514C9.32367 39.3993 10.7514 42.48 13.1273 45.0158Z" fill="#220F2D"/>
<path d="M26.8453 54.4141C26.6782 54.4141 26.511 54.4105 26.3439 54.4069C20.4077 54.2688 15.0128 51.7875 10.7441 47.2246C6.82057 43.0322 4.89149 37.3103 5.31291 31.1125C5.77792 24.2354 9.13838 17.6307 14.2935 13.4383C17.1563 11.1096 20.1534 9.51475 23.1942 8.69734L23.2705 8.67555L23.3468 8.67191C27.6482 8.42124 31.9495 9.32221 35.7859 11.2731C42.4196 14.6481 47.0226 20.7732 48.4176 28.0718C49.1914 32.1188 48.9008 36.3258 47.5784 40.2421C47.2987 41.0704 46.9717 41.8878 46.612 42.6725C46.4486 43.0285 46.2633 43.41 46.0417 43.835C45.435 44.9867 44.7375 46.0911 43.9673 47.1228L43.9309 47.1701L43.8873 47.21C39.1754 51.8057 32.9886 54.4141 26.8453 54.4141ZM23.5139 10.1832C20.7056 10.9534 17.9264 12.4429 15.249 14.6154C10.4135 18.5462 7.26016 24.7513 6.82057 31.2179C6.42822 36.9906 8.21199 42.3092 11.8449 46.1928C15.8302 50.4506 20.8546 52.7684 26.3766 52.8956C32.2583 53.03 38.2381 50.5814 42.7866 46.1746C43.495 45.2228 44.138 44.202 44.6975 43.1411C44.9046 42.7452 45.0789 42.3855 45.2352 42.0476C45.5767 41.3101 45.8818 40.5436 46.1434 39.7661C47.3822 36.0969 47.6547 32.1552 46.9281 28.366C45.6203 21.5288 41.308 15.7961 35.0957 12.6318C31.5281 10.8081 27.521 9.9616 23.5139 10.1832Z" fill="#371A45"/>
<path d="M4.34296 50.8865C7.06039 54.6103 11.5725 56.1179 14.4243 54.247C17.2762 52.376 17.3852 47.8421 14.6677 44.1147C14.6496 44.0893 14.6314 44.0675 14.6133 44.0457C11.8922 40.3728 7.41642 38.9015 4.58274 40.7579C2.38118 42.2038 1.81444 45.2373 2.92249 48.2635C3.25308 49.15 3.72536 50.04 4.34296 50.8865Z" fill="white"/>
<g opacity="0.25">
<path d="M4.34296 50.8865C7.06039 54.6102 11.5725 56.1179 14.4243 54.2469C17.2762 52.376 17.3852 47.8421 14.6677 44.1147C14.6496 44.0892 14.6314 44.0675 14.6132 44.0457C14.5769 44.6342 14.3662 45.3317 13.6106 45.6369C12.2918 46.1745 8.46633 45.1392 8.46633 45.1392C8.46633 45.1392 6.05407 46.4761 2.92249 48.2599C3.25308 49.1499 3.72536 50.04 4.34296 50.8865Z" fill="#371A45"/>
</g>
<path d="M11.6123 55.7982C8.86584 55.7982 5.79602 54.1707 3.72888 51.337C2.03231 49.0083 1.30572 46.3163 1.73441 43.9549C2.03594 42.2983 2.87878 40.9723 4.16847 40.1258C7.34728 38.0405 12.3317 39.6317 15.278 43.6715C16.9745 46.0002 17.7011 48.6922 17.2724 51.0536C16.9709 52.7102 16.1281 54.0363 14.8384 54.8827C13.8902 55.504 12.7821 55.7982 11.6123 55.7982ZM7.43447 40.7034C6.54804 40.7034 5.71246 40.925 5.00041 41.39C4.06311 42.004 3.44915 42.9849 3.22391 44.2237C2.87151 46.1528 3.51817 48.4779 4.95318 50.4433C7.43084 53.8401 11.4925 55.2642 14.0101 53.6148C14.9474 53.0009 15.5613 52.02 15.7866 50.7812C16.139 48.8521 15.4923 46.527 14.0573 44.5616C12.2808 42.1239 9.68689 40.7034 7.43447 40.7034Z" fill="#371A45"/>
<path d="M12.7118 54.1954C14.7839 52.3558 14.4907 48.6423 12.0571 45.9011C9.62339 43.1599 5.97079 42.429 3.89874 44.2685C1.8267 46.1081 2.11985 49.8216 4.55352 52.5628C6.98718 55.304 10.6398 56.0349 12.7118 54.1954Z" fill="white"/>
<path d="M9.86495 55.3006C8.57163 55.3006 7.18748 54.8247 5.93049 53.9237C2.97328 51.8057 1.62547 47.9802 2.92606 45.3936C3.4601 44.3291 4.40103 43.5844 5.57446 43.2974C7.17295 42.905 9.03664 43.3555 10.686 44.5362C13.6432 46.6542 14.991 50.4797 13.6904 53.0663C13.1564 54.1308 12.2155 54.8755 11.042 55.1625C10.6642 55.2533 10.2682 55.3006 9.86495 55.3006ZM6.75153 43.3446C6.36281 43.3446 5.98498 43.3882 5.62169 43.479C4.48458 43.7588 3.61268 44.4527 3.09317 45.4808C1.83255 47.9875 3.15493 51.7112 6.03948 53.7747C7.64523 54.9227 9.4508 55.3623 10.9984 54.9809C12.1355 54.7011 13.0074 54.0072 13.5269 52.9791C14.7876 50.4724 13.4652 46.7487 10.577 44.6852C9.34907 43.806 8.00489 43.3446 6.75153 43.3446Z" fill="#371A45"/>
<g opacity="0.25">
<path d="M13.8067 48.7213C13.3417 47.5552 12.5497 46.5125 11.5833 45.6987C12.4189 48.4525 11.042 50.8175 8.32822 51.1082C6.57352 51.2971 4.66623 50.5741 3.1731 49.3099C3.22396 49.4842 3.28935 49.6586 3.35838 49.8366C4.54634 52.8084 7.85231 54.9663 10.7369 54.6575C13.6178 54.3487 14.9946 51.6894 13.8067 48.7213Z" fill="#371A45"/>
</g>
<path d="M10.1919 55.9108C7.97215 55.9108 5.44363 54.5121 3.65623 52.0817C2.20306 50.1054 1.5455 47.784 1.90153 45.8694C2.13403 44.6124 2.7698 43.6133 3.74342 42.9885C6.27557 41.3537 10.2173 42.7378 12.7168 46.131C14.1699 48.1073 14.8275 50.4287 14.4715 52.3433C14.239 53.6003 13.6032 54.5957 12.6296 55.2242C11.9066 55.6892 11.0747 55.9108 10.1919 55.9108ZM4.87689 51.1844C6.83504 53.8473 10.0066 55.1152 11.8085 53.9527C12.586 53.4513 12.8766 52.6521 12.982 52.0672C13.2617 50.5559 12.7059 48.6704 11.4961 47.0247C9.53794 44.3617 6.36276 43.0938 4.56446 44.2564C3.78702 44.7577 3.49638 45.557 3.39103 46.1419C3.11129 47.6532 3.66713 49.5387 4.87689 51.1844Z" fill="#371A45"/>
<g opacity="0.5">
<path d="M15.1327 23.3234C15.1327 23.3234 23.4121 17.4199 31.4046 18.3536C31.4118 18.3536 31.4227 18.3572 31.43 18.3572C33.1121 18.5534 34.7033 19.2037 36.0438 20.2173C37.8167 21.5614 38.8339 22.7458 39.6913 23.8248C42.2925 27.1053 42.8883 29.1325 42.8883 29.1325C43.4114 25.9064 42.921 23.0982 40.7812 20.3444C40.5705 20.0719 40.3416 19.8031 40.0982 19.5306C40.0437 19.4689 39.9856 19.4071 39.9274 19.3454C39.9274 19.3454 39.9274 19.3417 39.9238 19.3417C39.3898 18.8258 38.6668 18.1792 37.784 17.5144C35.1283 15.509 31.0631 13.3656 26.6345 14.3682C18.3515 16.2392 14.5841 23.1963 15.1327 23.3234Z" fill="white"/>
</g>
<g opacity="0.5">
<path d="M18.1698 39.1624C19.7832 38.486 20.4611 36.4347 19.6839 34.5807C18.9067 32.7266 16.9686 31.772 15.3552 32.4484C13.7417 33.1248 13.0638 35.1761 13.841 37.0301C14.6182 38.8841 16.5563 39.8387 18.1698 39.1624Z" fill="white"/>
</g>
<g opacity="0.5">
<path d="M19.8208 43.3215C20.51 43.1054 20.8673 42.2877 20.6188 41.4951C20.3702 40.7024 19.61 40.2351 18.9208 40.4512C18.2316 40.6673 17.8743 41.4851 18.1229 42.2777C18.3714 43.0703 19.1316 43.5376 19.8208 43.3215Z" fill="white"/>
</g>
<g opacity="0.2">
<path d="M16.6913 65.9523C16.7276 65.7234 16.7748 65.5054 16.833 65.2983C16.7748 65.5018 16.7276 65.7198 16.6913 65.9523Z" fill="#000072"/>
</g>
</svg>
