<svg width="81" height="101" viewBox="0 0 81 101" fill="none" xmlns="http://www.w3.org/2000/svg">
<path d="M12.7646 45.9238V40.2572C12.7646 39.2275 13.6004 38.3917 14.6301 38.3917H45.0861C46.1158 38.3917 46.9516 39.2275 46.9516 40.2572V44.4996" fill="white"/>
<path d="M12.7647 46.4955C12.4504 46.4955 12.193 46.2414 12.193 45.9238V40.2572C12.193 38.9132 13.2862 37.8234 14.6268 37.8234H45.0828C46.4267 37.8234 47.5166 38.9166 47.5166 40.2572V44.4996C47.5166 44.8139 47.2625 45.0713 46.9449 45.0713C46.6273 45.0713 46.3733 44.8172 46.3733 44.4996V40.2572C46.3733 39.5417 45.7915 38.9634 45.0795 38.9634H14.6235C13.9114 38.9634 13.3297 39.5451 13.3297 40.2572V45.9238C13.333 46.238 13.0789 46.4955 12.7647 46.4955Z" fill="#371A45"/>
<path d="M59.806 58.4272C59.806 58.4272 59.7158 58.6445 59.552 59.0089C58.6326 61.0716 55.3931 67.7679 53.2468 64.953C50.7261 61.6466 48.212 58.5709 48.212 58.5709C48.3491 59.5772 48.4661 60.5567 48.5698 61.5062C48.8539 64.2041 49.001 66.6847 48.9977 68.9413C51.3078 77.3326 52.0232 85.296 51.5385 92.9417C55.0053 92.3801 56.5431 97.124 54.6442 99.2135H40.7067C39.5098 99.2135 38.4969 98.3309 38.3364 97.1407L37.1563 88.4084C35.8892 86.0315 32.1516 79.5692 32.1516 79.5692L31.9778 79.977L28.8252 87.3152L26.9095 97.5319C26.6989 98.6618 25.7094 99.4809 24.5593 99.4809H11.9089C11.4609 99.3973 11.0664 99.2837 10.712 99.1433C6.35927 97.4316 8.9268 91.892 13.1458 92.6843L15.9909 61.8673L12.524 60.6905C7.77342 60.2993 2.6885 56.3143 8.38855 48.1403C14.0886 39.9663 27.0433 38.3917 27.0433 38.3917L39.8007 38.843C40.4259 38.8832 41.0276 38.9601 41.6194 39.0704C41.6194 39.0704 41.6261 39.0737 41.6428 39.0737C50.1109 40.6684 55.139 49.1834 59.806 58.4272Z" fill="white"/>
<path d="M40.2721 57.3741C41.4537 57.3741 42.4117 56.4161 42.4117 55.2345C42.4117 54.0528 41.4537 53.0948 40.2721 53.0948C39.0904 53.0948 38.1324 54.0528 38.1324 55.2345C38.1324 56.4161 39.0904 57.3741 40.2721 57.3741Z" fill="#00AAFF"/>
<g opacity="0.3">
<path d="M59.806 58.4272C59.806 58.4272 59.7158 58.6445 59.5519 59.0089L54.1394 58.1397L53.2769 54.7898C50.2179 49.3505 46.8714 45.0613 43.0469 42.6877C32.4658 44.9577 28.4139 42.6877 28.4139 42.6877C33.6627 42.7746 38.2093 41.7917 41.616 39.0737C41.616 39.0737 41.6227 39.0771 41.6394 39.0771C50.1109 40.6684 55.139 49.1834 59.806 58.4272Z" fill="#371A45"/>
</g>
<path d="M42.5221 64.0303H27.2105C26.8962 64.0303 26.6388 63.7762 26.6388 63.4586C26.6388 63.1443 26.8929 62.8869 27.2105 62.8869H42.5221C43.1171 62.8869 43.6453 62.469 43.7724 61.894C44.3675 59.2362 44.4243 55.8529 43.9462 51.8378C43.8693 51.1926 43.3211 50.7045 42.6692 50.7045H28.3605C28.0463 50.7045 27.7888 50.4504 27.7888 50.1328C27.7888 49.8186 28.0429 49.5612 28.3605 49.5612H42.6692C43.8961 49.5612 44.9325 50.4805 45.0796 51.7008C45.5743 55.8429 45.5108 59.3566 44.8857 62.1414C44.6416 63.2413 43.6487 64.0303 42.5221 64.0303Z" fill="#371A45"/>
<path d="M24.5593 100.053H11.9089C11.8754 100.053 11.8387 100.049 11.8052 100.043C9.88292 99.6848 8.55904 98.7354 8.07763 97.368C7.64636 96.1444 7.96062 94.7035 8.90004 93.6103C9.82943 92.5238 11.1901 91.9655 12.6343 92.0524L15.3857 62.2684L12.4137 61.2588C10.0434 61.0448 7.09809 59.8881 5.86447 57.2637C5.03202 55.4952 4.71777 52.4229 7.93053 47.8194C13.7108 39.5317 26.4415 37.8969 26.9831 37.8301C27.2973 37.7933 27.5782 38.0139 27.6183 38.3282C27.6551 38.6424 27.4344 38.9266 27.1201 38.9634C26.9931 38.9801 14.3527 40.6082 8.86661 48.4713C6.56987 51.7609 5.89121 54.6327 6.8975 56.779C7.93721 58.9888 10.5148 59.9583 12.5808 60.1288C12.6276 60.1321 12.6744 60.1422 12.7179 60.1555L16.1814 61.3323C16.4321 61.4159 16.5893 61.6633 16.5659 61.9241L13.7208 92.7411C13.7075 92.9016 13.6239 93.0487 13.4969 93.1423C13.3698 93.2359 13.206 93.276 13.0489 93.2493C11.7919 93.0119 10.5683 93.4265 9.7726 94.3525C9.09728 95.1382 8.86326 96.1511 9.1608 96.9903C9.49846 97.9464 10.4947 98.6284 11.9724 98.9159H24.5693C25.4452 98.9159 26.1974 98.2907 26.3579 97.4316L28.2735 87.2183C28.2802 87.1781 28.2936 87.138 28.3103 87.0979L31.6267 79.3452C31.7103 79.1479 31.9008 79.0142 32.1181 79.0008C32.3321 78.9874 32.536 79.0978 32.6464 79.285C32.6831 79.3485 36.404 85.7841 37.6611 88.141C37.6945 88.2011 37.7146 88.2647 37.7246 88.3315L38.9014 97.0638C39.0217 97.9631 39.7973 98.6418 40.7067 98.6418H54.3768C55.0487 97.7124 55.0822 96.1846 54.4202 94.9677C54.1327 94.4394 53.2869 93.2326 51.6321 93.5034C51.4616 93.5301 51.2877 93.48 51.1573 93.363C51.0303 93.2459 50.9601 93.0788 50.9701 92.9049C51.4783 84.8848 50.6525 77.0952 48.4494 69.0918C48.436 69.0416 48.4293 68.9915 48.4293 68.938C48.4327 65.9559 48.1719 62.4924 47.6504 58.6478C47.6169 58.3937 47.754 58.1497 47.988 58.0494C48.222 57.9491 48.4962 58.0126 48.6567 58.2132C48.6834 58.2433 51.2041 61.3357 53.7015 64.6119C54.0458 65.0633 54.3266 65.0833 54.5105 65.0599C55.9714 64.866 58.101 61.0047 59.1809 58.4539C54.2631 48.7421 49.0511 40.0265 39.7672 39.418C39.453 39.398 39.2156 39.1272 39.2357 38.8129C39.2557 38.4987 39.5265 38.2613 39.8408 38.2814C44.3708 38.5789 48.3357 40.7085 51.9563 44.7905C55.2159 48.4646 57.9004 53.3957 60.3142 58.1764C60.3877 58.3235 60.3944 58.4973 60.3342 58.6511C60.0334 59.3866 57.3087 65.8456 54.6576 66.1933C54.1662 66.2601 53.444 66.1565 52.7955 65.304C51.4014 63.4753 49.9973 61.7034 49.0311 60.4965C49.3888 63.5722 49.5693 66.3805 49.5693 68.8678C51.7323 76.7542 52.5782 84.4368 52.1469 92.3333C53.5109 92.3533 54.7011 93.1055 55.4198 94.4328C56.3592 96.1679 56.2122 98.3442 55.0655 99.6046C54.9585 99.7249 54.8047 99.7918 54.6442 99.7918H40.7033C39.2257 99.7918 37.9653 98.6886 37.768 97.2276L36.6046 88.599C35.6251 86.7703 33.3016 82.7251 32.2251 80.8529L29.3734 87.4957L27.4712 97.6489C27.2071 99.0363 25.9835 100.053 24.5593 100.053Z" fill="#371A45"/>
<path d="M30.1022 42.7545C41.3521 42.7545 50.4719 33.3368 50.4719 21.7195C50.4719 10.1022 41.3521 0.684448 30.1022 0.684448C18.8523 0.684448 9.73242 10.1022 9.73242 21.7195C9.73242 33.3368 18.8523 42.7545 30.1022 42.7545Z" fill="white"/>
<g opacity="0.3">
<path d="M50.4719 21.7196C50.4719 33.337 41.3519 42.7546 30.0988 42.7546C26.3144 42.7546 22.7707 41.6881 19.7351 39.8327C21.7142 40.498 23.8271 40.8557 26.0202 40.8557C37.2699 40.8557 46.3933 31.4381 46.3933 19.8207C46.3933 12.108 42.3749 5.36491 36.3839 1.70752C44.5613 4.43886 50.4719 12.3654 50.4719 21.7196Z" fill="#371A45"/>
</g>
<path d="M30.1022 43.3262C18.555 43.3262 9.16077 33.6345 9.16077 21.7195C9.16077 9.80456 18.555 0.112793 30.1022 0.112793C41.6494 0.112793 51.0436 9.80456 51.0436 21.7195C51.0436 33.6345 41.6494 43.3262 30.1022 43.3262ZM30.1022 1.2528C19.1835 1.2528 10.3008 10.4331 10.3008 21.7195C10.3008 33.0059 19.1835 42.1862 30.1022 42.1862C41.0209 42.1862 49.9036 33.0059 49.9036 21.7195C49.9036 10.4331 41.0209 1.2528 30.1022 1.2528Z" fill="#371A45"/>
<path d="M13.557 33.9955C19.7352 40.4043 36.7116 40.6016 42.4017 29.2449L42.0874 19.279C37.1864 4.10452 20.1096 4.041 13.557 9.44351C10.9929 14.4181 6.21217 21.4053 13.557 33.9955Z" fill="#371A45"/>
<g opacity="0.35">
<path d="M42.4016 29.2449C36.715 40.6016 19.7352 40.4043 13.557 33.9955C12.972 32.9926 12.4605 32.0231 12.0259 31.0903C14.9545 33.1865 18.4347 34.4067 22.1723 34.4067C31.7136 34.4067 39.5968 26.4701 40.8203 16.1799C41.3018 17.1327 41.7297 18.1658 42.0874 19.279L42.4016 29.2449Z" fill="#101928"/>
</g>
<path d="M26.9998 41.8318C23.67 41.8318 20.5341 40.9693 18.1104 39.3178L18.6453 38.5321C22.0252 40.8355 26.8995 41.4942 31.6902 40.294C36.9556 38.9734 41.2282 35.6503 43.7322 30.9265L44.1333 16.8117C38.4066 2.8976 27.3107 2.49977 18.9996 4.62266L18.7656 3.7033C24.2417 2.30586 29.1594 2.41953 33.3785 4.03761C38.547 6.02009 42.4752 10.2291 45.0527 16.5476L45.0895 16.6412L45.0861 16.7415L44.6783 31.1739L44.6281 31.2708C42.0038 36.2889 37.4939 39.8226 31.9242 41.2167C30.2727 41.6279 28.6145 41.8318 26.9998 41.8318Z" fill="#371A45"/>
<path d="M25.9132 38.9635C20.7915 38.9635 15.9306 37.2785 13.1458 34.39L13.9682 33.5977C17.1375 36.884 23.2688 38.4787 29.2296 37.5694C32.5895 37.0579 38.6706 35.276 41.8265 29.1112L41.5223 19.3727C39.025 11.7369 33.6827 8.72142 29.6341 7.5346C24.0444 5.8998 17.5821 6.86597 13.9214 9.88148L13.1959 9.00558C17.1308 5.76274 24.0243 4.7063 29.9551 6.44139C36.0697 8.22997 40.5729 12.7265 42.6322 19.1052L42.6556 19.1821L42.659 19.2623L42.9766 29.372L42.9131 29.5024C40.4157 34.487 35.6183 37.7566 29.4034 38.7027C28.24 38.8765 27.0699 38.9635 25.9132 38.9635Z" fill="#371A45"/>
<path d="M53.0629 23.9929C53.0629 28.1819 50.7963 31.5752 48.0014 31.5752H46.0524C45.9822 31.5752 45.9086 31.5718 45.8384 31.5685C43.1438 31.4047 40.9908 28.0749 40.9908 23.9963C40.9908 19.8106 43.2575 16.4174 46.0524 16.4174H48.0014C50.7963 16.414 53.0629 19.8073 53.0629 23.9929Z" fill="white"/>
<path d="M48.0014 32.1434H46.0523C45.9654 32.1434 45.8785 32.1401 45.7949 32.1334C42.7894 31.9495 40.4225 28.3724 40.4225 23.9929C40.4225 19.4997 42.9466 15.8423 46.0523 15.8423H48.0014C51.1072 15.8423 53.6312 19.4963 53.6312 23.9929C53.6312 28.486 51.1072 32.1434 48.0014 32.1434ZM46.0523 16.9823C43.5751 16.9823 41.5625 20.1248 41.5625 23.9895C41.5625 27.7071 43.4982 30.8463 45.8751 30.9934C45.942 31.0001 45.9988 31.0001 46.0523 31.0001H48.0014C50.4787 31.0001 52.4912 27.8542 52.4912 23.9895C52.4912 20.1248 50.4787 16.9823 48.0014 16.9823H46.0523Z" fill="#371A45"/>
<path d="M48.4761 31.5249C45.6845 31.5249 43.4146 28.1885 43.4146 24.0864C43.4146 19.9844 45.6845 16.6479 48.4761 16.6479C51.2676 16.6479 53.5376 19.9844 53.5376 24.0864C53.5376 28.1885 51.2676 31.5249 48.4761 31.5249ZM48.4761 17.6007C46.2094 17.6007 44.364 20.5093 44.364 24.0864C44.364 27.6636 46.2094 30.5721 48.4761 30.5721C50.7427 30.5721 52.5881 27.6636 52.5881 24.0864C52.5881 20.5093 50.7427 17.6007 48.4761 17.6007Z" fill="#371A45"/>
<g opacity="0.3">
<path d="M49.118 31.0503C51.2967 31.0503 53.0629 28.2273 53.0629 24.7451C53.0629 21.2629 51.2967 18.4399 49.118 18.4399C46.9393 18.4399 45.1731 21.2629 45.1731 24.7451C45.1731 28.2273 46.9393 31.0503 49.118 31.0503Z" fill="#371A45"/>
</g>
<g opacity="0.5">
<path d="M26.5585 9.82791C13.6138 7.82871 11.063 18.5301 13.6205 26.8813C13.7977 27.463 14.6368 27.4095 14.7338 26.8077C15.4124 22.5084 16.5759 18.7942 18.8458 16.4139C21.0022 14.3311 23.6967 12.5258 26.7423 10.8977C27.2271 10.6369 27.1001 9.91149 26.5585 9.82791Z" fill="white"/>
</g>
<g opacity="0.5">
<path d="M35.1837 32.9123C34.1942 34.3632 32.3588 34.8413 31.0884 33.9721C29.818 33.1062 30.0186 31.5985 31.0082 30.1442C31.9977 28.6933 33.4052 27.8441 34.6756 28.71C35.9493 29.5792 36.1767 31.4614 35.1837 32.9123Z" fill="white"/>
</g>
<g opacity="0.5">
<path d="M35.9927 26.3598C37.2741 26.3598 38.3129 25.321 38.3129 24.0396C38.3129 22.7582 37.2741 21.7195 35.9927 21.7195C34.7114 21.7195 33.6726 22.7582 33.6726 24.0396C33.6726 25.321 34.7114 26.3598 35.9927 26.3598Z" fill="white"/>
</g>
<path d="M36.2302 42.7546V58.932C36.2302 63.9133 33.9201 68.6572 29.8916 71.5892C28.2501 72.786 26.3379 73.7421 24.128 74.4342C24.0679 74.4141 24.011 74.3974 23.9542 74.3807C21.8146 73.692 19.9625 72.7526 18.3645 71.5892C14.336 68.6572 12.0259 63.9133 12.0259 58.932V42.7546C14.4797 46.8365 21.7611 46.305 24.128 41.8352C26.4983 46.305 33.7763 46.8399 36.2302 42.7546Z" fill="#FC3C53"/>
<g opacity="0.7">
<path d="M24.683 74.2537C24.4991 74.3172 24.3153 74.3774 24.128 74.4375C24.0679 74.4175 24.011 74.4008 23.9542 74.384C21.8146 73.6954 19.9625 72.7559 18.3645 71.5925C14.336 68.6606 12.0259 63.9167 12.0259 58.9354V42.7579C12.3301 43.2627 12.7079 43.6974 13.1425 44.0618V58.9354C13.1425 63.9167 15.4526 68.6606 19.4811 71.5925C20.9822 72.6857 22.7072 73.575 24.683 74.2537Z" fill="white"/>
</g>
<path d="M24.128 75.0092C24.0712 75.0092 24.0144 74.9992 23.9575 74.9825C21.7343 74.2837 19.7418 73.3009 18.0301 72.0539C13.9147 69.0584 11.4575 64.154 11.4575 58.932V42.7546C11.4575 42.4972 11.628 42.2732 11.8754 42.2063C12.1228 42.1395 12.3836 42.2431 12.5173 42.4604C13.4901 44.0818 15.4359 45.0079 17.7025 44.951C20.2901 44.8808 22.5601 43.587 23.6299 41.5678C23.7302 41.3806 23.9241 41.2635 24.1347 41.2635C24.3453 41.2635 24.5392 41.3806 24.6395 41.5678C25.7093 43.5837 27.9793 44.8808 30.5636 44.951C32.8369 45.0146 34.7759 44.0818 35.7488 42.4604C35.8792 42.2397 36.1433 42.1361 36.3907 42.2063C36.638 42.2765 36.8085 42.5005 36.8085 42.7546V58.932C36.8085 64.154 34.3513 69.0584 30.2359 72.0539C28.5242 73.2975 26.5284 74.2837 24.3085 74.9825C24.245 74.9992 24.1849 75.0092 24.128 75.0092ZM12.5942 44.3392V58.932C12.5942 63.7896 14.8776 68.3497 18.6988 71.1312C20.2667 72.2712 22.092 73.1805 24.128 73.8391C26.164 73.1839 27.9893 72.2712 29.5573 71.1312C33.3785 68.3497 35.6618 63.7896 35.6618 58.932V44.3392C34.3814 45.5093 32.5628 46.1445 30.5268 46.091C27.8857 46.0208 25.5154 44.824 24.128 42.9117C22.7406 44.824 20.3703 46.0208 17.7292 46.091C15.7 46.1445 13.878 45.5093 12.5942 44.3392Z" fill="#371A45"/>
<path d="M24.128 70.6163C22.7774 70.1015 21.5572 69.4496 20.4874 68.674C17.4485 66.4642 15.6365 62.8235 15.6365 58.9354V48.9896C16.2382 49.0899 16.8601 49.14 17.4953 49.14C19.9257 49.14 22.2559 48.3878 24.128 47.084C26.0036 48.3878 28.3304 49.14 30.7642 49.14C31.3994 49.14 32.0212 49.0899 32.6196 48.9896V58.9354C32.6196 62.8235 30.8043 66.4642 27.7654 68.674C26.7023 69.4496 25.482 70.0982 24.128 70.6163Z" fill="#FEDA24"/>
<g opacity="0.3">
<path d="M32.6196 48.9895V58.9353C32.6196 62.8234 30.8076 66.4641 27.7654 68.6739C26.6989 69.4495 25.4787 70.1014 24.128 70.6196C23.7737 70.4825 23.426 70.3388 23.0917 70.1817C24.0378 69.7504 24.9037 69.2456 25.6893 68.6739C28.7282 66.4641 30.5402 62.8234 30.5402 58.9353V49.1366C30.6137 49.1399 30.6873 49.1399 30.7642 49.1399C31.396 49.1366 32.0179 49.0865 32.6196 48.9895Z" fill="#371A45"/>
</g>
<g opacity="0.7">
<path d="M25.2446 47.7626V70.1349H24.0645V48.5649C22.3929 49.4809 20.4539 49.9958 18.4446 49.9958C17.8094 49.9958 17.191 49.9456 16.5859 49.8487V59.7878C16.5859 63.0407 17.8562 66.1231 20.056 68.3396C17.2779 66.1064 15.6331 62.6329 15.6331 58.9353V48.9895C16.2348 49.0898 16.8566 49.1366 17.4918 49.1366C19.9223 49.1366 22.2525 48.3844 24.1246 47.0806C24.3419 47.231 24.5659 47.3781 24.7966 47.5118C24.947 47.6021 25.0941 47.6857 25.2446 47.7626Z" fill="white"/>
</g>
<path d="M24.128 71.091C24.0712 71.091 24.0144 71.0809 23.9575 71.0609C22.5668 70.5293 21.3064 69.8574 20.2099 69.0584C17.0473 66.7583 15.1617 62.9738 15.1617 58.9353V48.9895C15.1617 48.8491 15.2219 48.7187 15.3289 48.6284C15.4359 48.5382 15.5763 48.498 15.7134 48.5214C16.2917 48.6151 16.8901 48.6652 17.4953 48.6652C19.7719 48.6652 22.0319 47.9665 23.8572 46.6961C24.0211 46.5824 24.2384 46.5824 24.3988 46.6961C26.2275 47.9665 28.4842 48.6652 30.7608 48.6652C31.3626 48.6652 31.961 48.6184 32.5427 48.5214C32.6798 48.498 32.8202 48.5382 32.9272 48.6284C33.0342 48.7187 33.0943 48.8524 33.0943 48.9895V58.9353C33.0943 62.9738 31.2055 66.7583 28.0462 69.0584C26.9497 69.8574 25.6859 70.5327 24.2985 71.0609C24.2451 71.0809 24.1849 71.091 24.128 71.091ZM16.1112 49.5344V58.9353C16.1112 62.673 17.853 66.1699 20.7682 68.2894C21.7544 69.0082 22.8844 69.6167 24.128 70.1081C25.3717 69.6167 26.5017 69.0082 27.4879 68.2894C30.4031 66.1665 32.1449 62.6696 32.1449 58.9353V49.5344C31.6902 49.5879 31.2255 49.6146 30.7642 49.6146C28.4073 49.6146 26.0637 48.9226 24.1314 47.6556C22.1957 48.9193 19.8555 49.6113 17.4986 49.6146C17.0306 49.6113 16.5692 49.5846 16.1112 49.5344Z" fill="#371A45"/>
<path d="M24.128 71.091C23.8639 71.091 23.6533 70.877 23.6533 70.6163V47.0806C23.6533 46.8165 23.8673 46.6058 24.128 46.6058C24.3922 46.6058 24.6028 46.8198 24.6028 47.0806V70.6163C24.6028 70.877 24.3922 71.091 24.128 71.091Z" fill="#371A45"/>
<path d="M32.6196 57.4878H15.6365C15.3724 57.4878 15.1617 57.2738 15.1617 57.0131C15.1617 56.7523 15.3757 56.5383 15.6365 56.5383H32.6196C32.8837 56.5383 33.0943 56.7523 33.0943 57.0131C33.0943 57.2738 32.8837 57.4878 32.6196 57.4878Z" fill="#371A45"/>
<g opacity="0.3">
<path d="M23.9542 42.1428V46.8767C23.9542 46.8767 24.5393 48.3042 27.6484 48.7221L28.6747 45.262C28.6781 45.2586 24.8502 43.9648 23.9542 42.1428Z" fill="#371A45"/>
</g>
<g opacity="0.3">
<path d="M36.2302 44.0618V58.9354C36.2302 63.9167 33.9201 68.6606 29.8916 71.5925C28.2502 72.7894 26.3379 73.7455 24.1281 74.4375C24.0679 74.4175 24.0111 74.4008 23.9542 74.384V70.7534C28.3003 69.0183 31.6902 66.1064 32.6196 60.179V48.9895L36.0029 43.7776C36.0029 43.7776 36.0865 43.8812 36.2302 44.0618Z" fill="#371A45"/>
</g>
<path d="M50.7159 57.9625L54.1393 62.2418L56.8941 59.7377L52.7452 55.7761" fill="#FC3C53"/>
<g opacity="0.3">
<path d="M56.8974 59.7377L55.7875 60.8778L51.993 56.5885L52.7452 55.7761L56.8974 59.7377Z" fill="#371A45"/>
</g>
<g opacity="0.7">
<path d="M54.7579 61.6801L54.1394 62.2384L50.7194 57.9625L52.7453 55.7761L52.9058 55.9299L51.4281 57.5212L54.7579 61.6801Z" fill="white"/>
</g>
<path d="M54.1393 62.8102C54.1259 62.8102 54.1092 62.8102 54.0925 62.8068C53.9354 62.7934 53.7916 62.7165 53.6913 62.5962L50.2713 58.3203C50.0741 58.0729 50.1142 57.7152 50.3616 57.518C50.609 57.3207 50.9667 57.3608 51.1639 57.6082L54.2062 61.4127L56.0583 59.7311L52.3507 56.1941C52.1234 55.9768 52.1134 55.6157 52.3307 55.3884C52.548 55.1611 52.909 55.151 53.1364 55.3683L57.2852 59.3299C57.3989 59.4403 57.4624 59.5907 57.4624 59.7478C57.4591 59.905 57.3922 60.0554 57.2752 60.1624L54.5204 62.6664C54.4168 62.7567 54.2797 62.8102 54.1393 62.8102Z" fill="#371A45"/>
<path d="M80.3395 78.5195V88.4085L70.5508 87.078L54.8815 68.6305L57.5292 63.9601L61.4307 61.5197L61.6012 61.6701L80.3395 78.5195Z" fill="#C1D4E8"/>
<g opacity="0.7">
<path d="M80.3395 87.1147V88.4085L70.5508 87.078L54.8815 68.6305L55.5568 67.437L60.3776 73.1137L61.5209 68.109L63.9514 70.7434L62.905 76.0891L64.035 77.4196L65.165 72.318L66.5825 73.5984L65.5026 79.148L71.2161 85.8744L80.3395 87.1147Z" fill="white"/>
</g>
<path d="M63.6439 60.0653C63.6004 60.1723 63.5236 60.2692 63.4166 60.3328L58.9334 63.0073L58.6526 63.1744C58.5623 63.2279 58.4788 63.2814 58.3952 63.3449C57.9071 63.6859 57.4992 64.1306 57.1983 64.6488L54.4336 69.406C54.2597 69.7036 53.8619 69.7738 53.5944 69.5531L51.5651 67.9451C51.3412 67.7579 51.2977 67.4269 51.4715 67.1895C53.0328 65.0432 54.8514 63.1109 56.7403 61.2889C58.1277 59.945 59.5552 58.6612 60.946 57.3908C61.1767 57.1802 61.5344 57.2036 61.7417 57.4343L63.5503 59.4869C63.6941 59.6541 63.7208 59.8781 63.6439 60.0653Z" fill="#FEDA24"/>
<g opacity="0.7">
<path d="M54.7544 68.8477L54.4301 69.406C54.2563 69.7036 53.8585 69.7738 53.591 69.5531L51.5617 67.9451C51.3377 67.7579 51.2943 67.4269 51.4681 67.1895C52.0799 66.3504 52.7285 65.5447 53.4071 64.7657C52.9759 65.2839 52.5647 65.8188 52.1668 66.3638C51.993 66.6011 52.0364 66.9321 52.2604 67.1193L54.2897 68.7274C54.4235 68.8444 54.5973 68.8812 54.7544 68.8477Z" fill="white"/>
</g>
<path d="M53.9488 70.2552C53.688 70.2552 53.4306 70.165 53.2266 69.9945L51.2107 68.3931C50.746 68.0053 50.6625 67.3333 51.0101 66.8553C53.5877 63.3182 56.8205 60.3763 59.9464 57.5313L60.5615 56.9696C60.7855 56.7657 61.0797 56.662 61.3806 56.6787C61.6848 56.6955 61.9656 56.8292 62.1662 57.0599L63.9782 59.1126C64.2022 59.3633 64.2991 59.701 64.2456 60.0319C64.1921 60.3629 63.9982 60.6537 63.7107 60.8276L58.9468 63.6693C58.4286 63.9768 57.994 64.4181 57.6931 64.9396L54.9283 69.6969C54.7611 69.9844 54.477 70.1817 54.1493 70.2419C54.0791 70.2486 54.0156 70.2552 53.9488 70.2552ZM51.9395 67.5139L53.9488 69.1052L56.7035 64.3613C57.1047 63.6726 57.6764 63.0942 58.3617 62.6864L63.1123 59.8514L61.3204 57.8221L60.7153 58.3737C57.6329 61.1786 54.4469 64.0771 51.9395 67.5139Z" fill="#371A45"/>
<path d="M80.3396 88.9801C80.3128 88.9801 80.2894 88.9801 80.2627 88.9734L70.4739 87.6429C70.3335 87.6228 70.2065 87.5526 70.1162 87.4456L54.4469 68.9982C54.243 68.7575 54.2731 68.3998 54.5138 68.1958C54.7545 67.9919 55.1122 68.022 55.3161 68.2627L70.8417 86.543L79.7679 87.7565V78.7735L61.0463 61.9408C60.8123 61.7302 60.7922 61.3691 61.0028 61.1351C61.2134 60.9011 61.5745 60.881 61.8085 61.0917L80.7173 78.0915C80.8377 78.1985 80.9045 78.3523 80.9045 78.5161V88.4051C80.9045 88.5689 80.8343 88.7261 80.7106 88.833C80.6103 88.93 80.4766 88.9801 80.3396 88.9801Z" fill="#371A45"/>
<path d="M80.3396 88.8833C80.2125 88.8833 80.0855 88.8331 79.9919 88.7328L73.0549 81.3211L57.3488 64.2844C57.1716 64.0905 57.1816 63.7896 57.3755 63.6125C57.5694 63.4353 57.8703 63.4453 58.0475 63.6392L73.7502 80.6725L80.6872 88.0842C80.8678 88.2748 80.8577 88.5757 80.6638 88.7562C80.5736 88.8431 80.4566 88.8833 80.3396 88.8833Z" fill="#371A45"/>
<path d="M70.5508 87.5527C70.4839 87.5527 70.4137 87.5393 70.3502 87.5092C70.1128 87.3989 70.0092 87.1147 70.1229 86.8773L72.9746 80.7962C73.0281 80.6825 73.125 80.5922 73.2454 80.5488L80.1824 78.0715C80.4298 77.9846 80.7006 78.1116 80.7908 78.359C80.8778 78.6064 80.7507 78.8772 80.5033 78.9675L73.7502 81.3779L70.9821 87.2819C70.8985 87.4524 70.728 87.5527 70.5508 87.5527Z" fill="#371A45"/>
<g opacity="0.3">
<path d="M63.6439 60.0653L58.93 63.0073L58.3918 63.3449C58.3918 63.3449 56.5297 61.4895 56.8005 61.5196L56.7369 61.2889C58.1243 59.945 59.5519 58.6612 60.9426 57.3908C61.1733 57.1802 61.531 57.2036 61.7383 57.4343L63.5469 59.4869C63.694 59.6541 63.7208 59.8781 63.6439 60.0653Z" fill="#371A45"/>
</g>
<g opacity="0.3">
<path d="M80.3395 78.5195V87.3153L74.3319 80.6624L59.0504 63.345L61.6012 61.67L80.3395 78.5195Z" fill="#371A45"/>
</g>
<path d="M54.7545 60.8711C54.7545 60.8711 53.4875 60.2761 52.3475 61.2589C51.2074 62.2418 50.4519 64.3547 52.762 65.3844L55.9246 62.0813" fill="white"/>
<path d="M59.806 58.4272L58.0342 60.0821L56.737 61.2923C56.396 61.5564 56.0483 61.65 55.7374 61.6166C55.7307 61.6166 55.7207 61.6132 55.714 61.6132C54.9618 61.5129 54.437 60.6303 54.7512 59.4736C55.353 58.0628 56.0417 57.3006 56.7237 56.9863C57.9573 56.4113 59.1642 57.2839 59.806 58.4272Z" fill="white"/>
<path d="M55.8611 62.1882C55.5401 62.1882 55.2292 62.098 54.9518 61.9141C54.2062 61.416 53.9154 60.3997 54.2062 59.3198C54.2129 59.2931 54.2229 59.2697 54.233 59.2463C55.256 56.8459 56.513 56.2843 57.3889 56.2375C58.4988 56.1773 59.6087 56.9094 60.3075 58.1497C60.4378 58.3804 60.391 58.6679 60.2005 58.8451L57.1315 61.7068C57.1181 61.7202 57.1047 61.7302 57.0914 61.7403C56.7002 62.0378 56.2723 62.1882 55.8611 62.1882ZM55.2961 59.6541C55.1289 60.3161 55.3162 60.7875 55.5836 60.9646C55.8711 61.1552 56.1921 60.9847 56.3692 60.851L59.0672 58.3336C58.6058 57.7118 57.9974 57.3373 57.4457 57.3741C56.6768 57.4176 55.9112 58.2266 55.2961 59.6541Z" fill="#371A45"/>
<path d="M52.7653 65.956C52.6885 65.956 52.6082 65.9393 52.5347 65.9059C51.2041 65.3142 50.8096 64.4249 50.716 63.783C50.5355 62.5561 51.2843 61.4227 51.9764 60.8243C53.3805 59.6141 54.9317 60.3229 54.9986 60.3529C55.2827 60.4867 55.4064 60.8277 55.2727 61.1118C55.139 61.396 54.8013 61.5197 54.5172 61.3893C54.4703 61.3693 53.551 60.9748 52.7219 61.6902C52.2271 62.1181 51.739 62.9038 51.8426 63.6158C51.9062 64.0404 52.1736 64.3981 52.645 64.6823L55.5134 61.6869C55.7307 61.4595 56.0918 61.4528 56.3191 61.6701C56.5464 61.8874 56.5531 62.2485 56.3358 62.4758L53.1732 65.7789C53.0662 65.8925 52.9158 65.956 52.7653 65.956Z" fill="#371A45"/>
<g opacity="0.3">
<path d="M59.806 58.4272L58.0342 60.0821L55.7408 61.6132L55.6505 61.6734C55.6739 61.6534 55.6973 61.63 55.7174 61.6099C58.6359 58.815 56.5465 57.2504 56.5465 57.2504L56.7303 56.983C57.9573 56.4113 59.1642 57.2839 59.806 58.4272Z" fill="#371A45"/>
</g>
<g opacity="0.3">
<path d="M52.7419 60.9814C53.6914 62.0713 53.6647 63.3249 52.4912 64.7692C52.4912 64.7692 52.6818 64.9831 52.762 64.9497C52.8422 64.9163 55.7875 61.767 55.7875 61.767L54.4871 60.8811" fill="#371A45"/>
</g>
<path d="M53.0361 54.4923L53.6813 55.2813C53.9387 55.5956 53.9086 56.0536 53.6111 56.3311L51.1171 58.6746C50.7962 58.9788 50.2847 58.9488 50.0005 58.6111L49.1848 57.6416C48.9775 57.3975 48.9374 57.0432 49.1012 56.7657C49.7866 55.5889 50.7862 54.7163 52.207 54.2416C52.5045 54.1447 52.8355 54.2483 53.0361 54.4923Z" fill="#FEDA24"/>
<g opacity="0.3">
<path d="M53.6145 56.3344L51.1205 58.6813C50.9801 58.8117 50.8062 58.8819 50.6324 58.8886L52.2471 57.3708C52.5413 57.0933 52.5714 56.6319 52.314 56.321L51.6688 55.532C51.4682 55.288 51.1372 55.1844 50.8397 55.2847C50.512 55.3916 50.2078 55.5254 49.9203 55.6758C50.5187 55.0473 51.2709 54.5625 52.2037 54.2516C52.5045 54.1513 52.8355 54.255 53.0361 54.499L53.6813 55.288C53.9387 55.5989 53.9087 56.0569 53.6145 56.3344Z" fill="#371A45"/>
</g>
<g opacity="0.7">
<path d="M51.4849 58.337L51.1205 58.678C50.7962 58.9789 50.2881 58.9521 50.0006 58.6145L49.1848 57.6483C48.9776 57.4009 48.9408 57.0499 49.1013 56.7724C49.5793 55.9533 50.2078 55.2814 51.0236 54.7899C50.5522 55.1978 50.1577 55.6859 49.8367 56.2375C49.6763 56.515 49.7131 56.866 49.9203 57.1134L50.7361 58.0829C50.93 58.3036 51.2175 58.3905 51.4849 58.337Z" fill="white"/>
</g>
<path d="M50.5923 59.4569C50.5656 59.4569 50.5421 59.4569 50.5154 59.4536C50.151 59.4335 49.8033 59.2597 49.566 58.9789L48.7469 58.0094C48.3825 57.5781 48.3256 56.963 48.6065 56.4782C49.3888 55.1309 50.5388 54.1948 52.0232 53.7C52.5413 53.5262 53.1264 53.6967 53.4774 54.128L54.1227 54.917C54.5673 55.4619 54.5138 56.2642 54.0023 56.7456L51.5083 59.0892C51.2609 59.3266 50.93 59.4569 50.5923 59.4569ZM52.4377 54.7799C52.421 54.7799 52.4009 54.7832 52.3842 54.7866C51.1539 55.1978 50.2413 55.94 49.5927 57.0566C49.5559 57.1234 49.5659 57.2137 49.6194 57.2772L50.4352 58.2467C50.4853 58.3036 50.5455 58.3169 50.5789 58.3169C50.6124 58.3169 50.6725 58.3136 50.7294 58.2634L53.2233 55.9199C53.3002 55.8463 53.3069 55.726 53.2401 55.6458L52.5948 54.8568C52.5547 54.8066 52.4979 54.7799 52.4377 54.7799Z" fill="#371A45"/>
<path d="M47.6571 58.6813C47.1122 56.652 46.721 54.5993 46.2831 52.5466C45.8451 50.4872 45.367 48.4479 44.8422 46.3986C45.3503 47.3313 45.7883 48.3008 46.1928 49.2837C47.3729 52.2357 48.3157 55.3047 48.7737 58.4539C48.8539 59.156 47.8543 59.3599 47.6571 58.6813Z" fill="#371A45"/>
<path d="M6.58655 51.9281C6.513 51.9281 6.43945 51.9147 6.36924 51.8846C6.07839 51.7643 5.94132 51.4366 6.05833 51.1458C6.11182 51.0121 7.44908 47.8795 12.0927 48.4211C12.407 48.4579 12.6309 48.7421 12.5942 49.053C12.5574 49.3672 12.2766 49.5912 11.9623 49.5545C8.20797 49.1165 7.15823 51.4801 7.11476 51.5804C7.02116 51.7977 6.81054 51.9281 6.58655 51.9281Z" fill="#371A45"/>
<path d="M12.0259 60.7707C11.959 60.7707 11.8922 60.7574 11.8286 60.7273C8.72621 59.3131 7.97066 56.1204 7.79682 54.3452C7.55946 51.9348 8.11442 49.4408 9.03044 48.7823C9.2444 48.6285 9.54194 48.6786 9.69238 48.8926C9.84617 49.1065 9.79602 49.4041 9.5854 49.5545C9.10065 49.9022 8.51894 51.9549 8.74293 54.2516C8.89671 55.8262 9.55531 58.6445 12.2231 59.8614C12.4605 59.9717 12.5675 60.2526 12.4572 60.4899C12.3769 60.6705 12.2064 60.7707 12.0259 60.7707Z" fill="#371A45"/>
<path d="M17.1575 69.8741C21.2863 77.7672 32.1381 81.0602 40.0881 77.2056C42.0205 76.43 43.7589 75.3735 45.4572 74.1199C44.5178 75.4103 43.3143 76.5269 41.9904 77.453L41.5324 77.7438C40.6264 78.3456 39.6067 78.7735 38.567 79.0711C35.8123 79.9536 32.8603 80.181 30.0019 79.7564C24.3085 78.9173 18.8325 75.5975 16.1412 70.3923C15.8203 69.7169 16.7931 69.2054 17.1575 69.8741Z" fill="#371A45"/>
<path d="M13.2361 92.1227C14.8977 92.6276 16.4656 93.3731 17.863 94.3961C17.0908 94.0618 16.2951 93.8043 15.476 93.6171C14.687 93.4333 13.8412 93.2962 13.0422 93.2494C12.2031 93.1591 12.4104 91.9288 13.2361 92.1227Z" fill="#371A45"/>
<path d="M51.5853 93.5067C50.1711 93.5067 48.7068 93.7073 47.3294 94.0583C46.8581 94.1753 46.3967 94.3291 45.932 94.4896C46.7778 93.9848 47.6704 93.5535 48.5965 93.2058C49.5493 92.8481 50.482 92.5639 51.495 92.37C52.3274 92.2597 52.4244 93.49 51.5853 93.5067Z" fill="#371A45"/>
<path d="M22.9445 90.0165C20.9754 90.0165 19.2571 89.6019 17.9232 89.1172C15.155 88.1142 13.4433 86.6466 13.3731 86.5864C13.1358 86.3792 13.109 86.0181 13.3163 85.7807C13.5236 85.5434 13.8813 85.5166 14.122 85.7239C14.1521 85.7506 15.7835 87.138 18.3511 88.0608C21.7745 89.2877 25.1644 89.1506 28.4273 87.6529C28.7148 87.5225 29.0525 87.6462 29.1828 87.9337C29.3132 88.2212 29.1895 88.5589 28.902 88.6893C26.7791 89.6655 24.7565 90.0165 22.9445 90.0165Z" fill="#371A45"/>
<path d="M43.4547 90.3976C40.0915 90.3976 37.2833 89.5886 37.0726 89.5284C36.7718 89.4382 36.5979 89.1239 36.6882 88.8197C36.7784 88.5188 37.0927 88.345 37.3969 88.4352C37.4872 88.462 46.3967 91.0161 51.1673 86.8874C51.4047 86.6801 51.7657 86.7068 51.973 86.9442C52.1803 87.1815 52.1535 87.5426 51.9162 87.7499C49.5158 89.8226 46.2897 90.3976 43.4547 90.3976Z" fill="#371A45"/>
<path d="M40.1818 57.9324C38.6874 57.9324 37.4739 56.7188 37.4739 55.2244C37.4739 53.73 38.6874 52.5165 40.1818 52.5165C41.6762 52.5165 42.8898 53.73 42.8898 55.2244C42.8931 56.7155 41.6762 57.9324 40.1818 57.9324ZM40.1818 53.6531C39.3159 53.6531 38.6139 54.3552 38.6139 55.2211C38.6139 56.087 39.3159 56.789 40.1818 56.789C41.0477 56.789 41.7498 56.087 41.7498 55.2211C41.7531 54.3586 41.0477 53.6531 40.1818 53.6531Z" fill="#371A45"/>
<path d="M44.8388 54.4789C44.5479 54.4789 44.2972 54.2549 44.2704 53.9607C44.2437 53.6464 44.4744 53.369 44.7886 53.3422L46.8948 53.1517C47.209 53.1216 47.4865 53.3556 47.5133 53.6698C47.54 53.9841 47.3093 54.2616 46.9951 54.2883L44.8889 54.4789C44.8755 54.4789 44.8555 54.4789 44.8388 54.4789Z" fill="#371A45"/>
<path d="M44.8388 60.1489C44.5512 60.1489 44.3039 59.9316 44.2738 59.6408C44.2403 59.3265 44.4677 59.0457 44.7786 59.0123L47.9613 58.6679C48.2722 58.6345 48.5563 58.8618 48.5898 59.1727C48.6232 59.487 48.3959 59.7678 48.085 59.8013L44.9023 60.1456C44.8822 60.1489 44.8588 60.1489 44.8388 60.1489Z" fill="#371A45"/>
<path d="M48.2154 57.7218C48.202 57.7218 48.1853 57.7218 48.1719 57.7184C47.9112 57.695 47.7173 57.4643 47.7407 57.2036C47.9847 54.4789 51.7825 51.2026 56.132 51.2026C56.142 51.2026 56.152 51.2026 56.1621 51.2026C56.4228 51.2026 56.6368 51.4166 56.6368 51.6807C56.6368 51.9415 56.4228 52.1554 56.1621 52.1554C56.1554 52.1554 56.142 52.1554 56.1353 52.1554C52.0834 52.1554 48.8774 55.2178 48.6901 57.2905C48.6667 57.5379 48.4595 57.7218 48.2154 57.7218Z" fill="#371A45"/>
<g opacity="0.3">
<path d="M54.6442 99.2101H45.9052C48.0716 98.8691 50.7428 98.1203 50.589 96.4855C50.3349 93.7608 47.1489 93.9714 47.1489 93.9714C47.1489 93.9714 46.848 88.8832 45.932 83.1162C45.0126 77.3493 43.0335 76.1826 43.0335 76.1826C31.1052 81.7957 25.2446 77.3493 25.2446 77.3493C33.7897 80.8563 45.4573 74.7651 43.4046 65.7553H37.6644C35.8925 71.3317 29.0491 72.1675 29.0491 72.1675C35.4546 68.948 36.2302 59.2094 36.2302 59.2094V43.1992L38.0422 42.7545V50.1395L38.2962 59.4067C43.9361 57.2403 43.3878 50.2866 43.3878 50.2866L44.4209 51.3898L44.8388 53.8103L47.5467 53.7167L48.3691 61.1318L48.5697 61.5028C48.8539 64.2008 49.001 66.6814 48.9976 68.938C51.3077 77.3293 52.0232 85.2926 51.5384 92.9384C55.0053 92.3767 56.5464 97.1207 54.6442 99.2101Z" fill="#371A45"/>
</g>
<g opacity="0.3">
<path d="M31.9777 79.9771L28.8252 87.3153L26.9095 97.5319C26.6989 98.6619 25.7094 99.481 24.5593 99.481H11.9089C11.4609 99.3974 11.0664 99.2837 10.712 99.1433C10.9962 99.15 11.3004 99.1734 11.6247 99.2102C19.8622 100.16 22.1422 95.0914 22.1422 95.0914C22.1422 95.0914 22.968 94.6468 24.3621 87.8C25.7562 80.9533 21.2095 75.4906 21.2095 75.4906C25.7227 79.5859 31.9677 79.7565 31.9677 79.7565C31.9677 79.7565 31.9677 79.8367 31.9777 79.9771Z" fill="#371A45"/>
</g>
<path d="M0.769531 99.4809C11.5244 98.6418 22.3094 98.8925 33.0843 98.9092C43.8593 98.9126 54.6476 98.5749 65.3991 99.4809C54.6476 100.387 43.8593 100.049 33.0843 100.053C22.3094 100.069 11.5244 100.323 0.769531 99.4809Z" fill="#371A45"/>
</svg>
