<svg width="106" height="64" viewBox="0 0 106 64" fill="none" xmlns="http://www.w3.org/2000/svg">
<path d="M23.9766 35.5055C25.7456 49.4299 38.4676 59.2838 52.3919 57.5148C66.3163 55.7459 76.1702 43.0239 74.4012 29.0995C72.6323 15.1751 59.9103 5.32124 45.9859 7.09021C32.0616 8.85919 22.2076 21.5812 23.9766 35.5055Z" fill="url(#paint0_radial_319_2734)"/>
<path d="M9.33254 39.9933C9.61676 40.0038 9.92996 39.964 10.2084 39.9287C10.771 39.9038 11.3453 39.9707 11.8789 39.9962C12.8012 40.0189 17.4937 39.9357 18.8974 39.8506C20.7245 39.7584 22.5342 39.8082 24.373 39.8077C25.1502 39.8022 28.7292 39.8605 28.6944 39.8649C27.4417 40.3038 26.0844 40.1965 24.7736 40.4562C24.9535 40.48 25.1333 40.5038 25.2725 40.4861C29.0023 40.6184 32.749 40.0492 36.4613 40.0438C36.5309 40.035 34.7446 40.4484 33.8456 40.6093C34.5533 40.6126 35.3016 40.6574 36.0324 40.5646C36.7342 40.5221 38.1901 40.5702 38.1205 40.5791C36.7923 40.7012 35.4293 40.8277 34.1069 40.9957C35.2786 41.0334 36.4155 41.0754 37.5814 41.0672C39.7392 41.0728 41.9144 41.2161 44.078 41.2676C45.8472 41.276 47.7207 41.2711 49.3793 40.6874C51.0785 40.1452 52.3481 39.0047 52.9271 37.4391C54.4965 33.3697 51.8771 28.0607 47.277 27.4794C45.7688 27.298 42.5903 27.6085 41.1172 27.9822C39.8529 28.3293 36.878 29.4066 35.6602 29.8411C35.1498 29.9992 34.6743 30.1529 34.2046 30.3524C32.6621 31.0147 31.0731 31.5895 29.6235 32.4265C31.2706 32.0307 34.6169 31.0927 34.5531 31.1474C33.8921 31.5112 33.1788 31.7417 32.4655 31.9722C31.6478 32.2159 30.8765 32.547 30.1053 32.8782C29.363 33.159 28.6555 33.4354 27.9132 33.7162C27.2347 33.9422 26.5562 34.1683 25.9183 34.4359C27.7279 34.206 32.536 33.362 32.4664 33.3709C32.0894 33.4654 31.7124 33.5599 31.3355 33.6544C30.0364 34.0059 28.7315 34.3116 27.4324 34.6631C25.7911 35.1048 24.2022 35.6797 22.5668 36.1672C20.1484 36.8941 17.6895 37.5795 15.277 38.3522C17.7303 37.9007 22.7588 37.122 22.6892 37.1308C19.743 37.8781 16.8143 38.7631 13.8042 39.2853C12.302 39.4296 10.8114 39.6655 9.33254 39.9933Z" fill="#ED1C24"/>
<path opacity="0.6" d="M52.4257 33.2128C52.5596 33.9884 52.8095 34.8425 52.6302 35.6579C52.4451 36.4274 52.2252 37.2014 51.7442 37.8686C51.2052 38.6364 50.3704 39.302 49.5065 39.7381C49.0426 39.9836 48.6019 40.1328 48.0915 40.2909C47.7146 40.3854 47.297 40.4385 46.9259 40.5789C46.8911 40.5833 46.9317 40.6247 46.9607 40.5744C47.4072 40.4711 47.8654 40.4595 48.312 40.3561C48.7933 40.2484 49.263 40.0488 49.6979 39.8537C50.6315 39.4087 51.3967 38.752 52.0053 37.9753C53.1354 36.5728 53.0067 34.7242 52.4894 33.158C52.4546 33.1624 52.4198 33.1669 52.4257 33.2128Z" fill="#F1E10A"/>
<path opacity="0.6" d="M49.3021 28.6677C48.9308 28.5284 48.5595 28.389 48.194 28.2956C46.7204 27.83 45.1079 27.6619 43.5419 27.8608C43.5071 27.8653 43.5129 27.9112 43.5477 27.9067C45.0905 27.804 46.6046 28.0313 48.0433 28.5012C48.7453 28.7384 49.4473 28.9756 50.0624 29.3637C50.4047 29.5534 50.7122 29.7474 51.0256 29.9874C50.4916 29.4025 49.9461 29.0055 49.3021 28.6677Z" fill="#F1E10A"/>
<path opacity="0.6" d="M42.9827 42.6654C43.5918 42.7279 44.1661 42.7948 44.7751 42.8573C45.3436 42.8784 45.9758 42.8447 46.5384 42.8198C47.6984 42.7657 48.8641 42.4777 49.9833 42.1024C51.0967 41.6812 52.0882 41.1356 52.8649 40.291C53.572 39.4551 54.1631 38.5408 54.4582 37.5242C54.4524 37.4783 54.3828 37.4871 54.3886 37.533C53.6822 39.4878 51.7634 41.0837 49.7047 41.8581C48.6958 42.266 47.5591 42.5037 46.4803 42.6407C45.3319 42.7866 44.1892 42.6986 43.0175 42.661C42.9073 42.6284 42.9131 42.6743 42.9827 42.6654Z" fill="#F1E10A"/>
<path opacity="0.6" d="M52.8354 30.3168C53.149 30.8365 53.364 31.4153 53.5789 31.9941C53.7475 32.4856 53.8812 32.9815 53.9859 33.5277C54.0151 33.7571 54.0384 33.9407 54.0675 34.1701C54.12 34.583 54.1666 34.9501 54.1147 35.3763C54.0742 35.6146 54.0396 35.8988 53.9644 36.1414C54.277 35.2625 54.4853 34.3968 54.4035 33.4746C54.3101 32.4608 53.9034 31.4867 53.4389 30.6132C52.9337 29.6982 52.0921 28.9193 51.1985 28.2868C51.0012 28.1254 50.7691 27.9683 50.5428 27.8572C51.5119 28.5267 52.2896 29.3604 52.8354 30.3168Z" fill="#F1E10A"/>
<path opacity="0.6" d="M41.0008 27.0641C41.3081 26.9785 41.5865 26.9431 41.8997 26.9033C42.2477 26.8591 42.5551 26.7734 42.903 26.7292C43.5642 26.6452 44.2312 26.6071 44.9041 26.6149C46.2033 26.5431 47.4852 26.6134 48.7498 26.8257C48.7846 26.8213 48.889 26.808 48.8135 26.771C48.2218 26.5664 47.5952 26.3662 46.9803 26.2579C46.2958 26.1583 45.594 26.2009 44.8922 26.2434C44.1556 26.2903 43.4597 26.3788 42.7695 26.5131C42.4215 26.5573 42.12 26.6888 41.7778 26.7789C41.5053 26.8602 41.2269 26.8955 40.9601 27.0227C40.8905 27.0315 40.966 27.0686 41.0008 27.0641Z" fill="#F1E10A"/>
<path opacity="0.6" d="M37.2746 41.4329C37.9126 41.4451 38.6029 41.5905 39.2468 41.6486C40.0009 41.7393 40.7898 41.8255 41.538 41.8704C43.0404 42.0059 44.6123 42.1325 46.1145 41.9883C46.2189 41.9751 46.1725 41.8877 46.1029 41.8966C45.3488 41.8059 44.6122 41.8528 43.8639 41.808C43.0808 41.7676 42.3326 41.7228 41.5495 41.6824C40.8012 41.6376 40.0124 41.5513 39.2641 41.5065C38.6202 41.4484 37.9357 41.3489 37.2687 41.387C37.2339 41.3914 37.2398 41.4373 37.2746 41.4329Z" fill="#F1E10A"/>
<path opacity="0.6" d="M33.8858 30.0679C36.2924 29.2493 38.7572 28.6098 41.0825 27.7082C41.1811 27.6491 41.0708 27.6165 41.0012 27.6253C39.7774 27.7342 38.5713 28.2604 37.4173 28.6401C36.1995 29.0746 34.9817 29.509 33.8163 30.0767C33.7815 30.0812 33.8511 30.0723 33.8858 30.0679Z" fill="#F1E10A"/>
<path opacity="0.6" d="M21.3367 35.3907C22.3515 35.0287 23.4069 34.7081 24.4218 34.346C25.4366 33.984 26.4049 33.5346 27.3733 33.0852C27.9416 32.8265 28.5446 32.5634 29.1071 32.2588C28.156 32.5661 27.2398 32.869 26.3293 33.2178C25.6625 33.5356 24.9957 33.8535 24.323 34.1254C23.314 34.5334 22.305 34.9413 21.3308 35.3448C21.2264 35.3581 21.3019 35.3951 21.3367 35.3907Z" fill="#F1E10A"/>
<path opacity="0.6" d="M9.30286 38.6442C11.4023 38.191 13.4727 37.7881 15.514 37.1557C16.4999 36.844 17.4915 36.5781 18.4774 36.2664C19.3936 35.9635 20.3737 35.6059 21.1912 35.0824C21.2897 35.0232 21.1447 34.995 21.0751 35.0039C17.2246 36.4255 13.2289 37.5393 9.30286 38.6442C9.26806 38.6486 9.22743 38.6071 9.30286 38.6442Z" fill="#F1E10A"/>
<path opacity="0.6" d="M16.1775 40.43C15.4756 40.4725 14.7332 40.4736 14.0372 40.562C13.5849 40.6195 13.1614 40.6267 12.7032 40.6382C11.9029 40.7399 11.0677 40.846 10.2673 40.9477C10.4819 40.9671 10.6617 40.9908 10.8705 40.9643C11.8276 40.9826 12.8195 40.9965 13.7997 40.9186C14.7509 40.891 15.6673 40.8678 16.6127 40.7943C17.3145 40.7518 17.9757 40.6678 18.6717 40.5794C17.8421 40.4516 17.0243 40.4157 16.1775 40.43Z" fill="#F1E10A"/>
<path opacity="0.6" d="M17.9064 41.2353C18.4342 41.2149 18.9389 41.2907 19.4725 41.3161C20.0758 41.3327 20.6849 41.3952 21.2881 41.4119C22.5294 41.4407 23.7708 41.4695 25.0121 41.4983C26.2534 41.5271 27.4541 41.5144 28.6896 41.4974C29.925 41.4803 31.143 41.3255 32.3669 41.2167C32.4017 41.2123 32.3958 41.1664 32.361 41.1708C31.1256 41.1879 29.9132 41.1088 28.6777 41.1258C27.4074 41.1473 26.172 41.1644 24.8958 41.14C23.6545 41.1112 22.4538 41.1239 21.2184 41.141C20.6209 41.1702 20.0177 41.1536 19.4202 41.1829C18.8924 41.2033 18.3877 41.1276 17.8309 41.1983C17.8309 41.1983 17.8716 41.2398 17.9064 41.2353Z" fill="#F1E10A"/>
<path opacity="0.6" d="M26.7062 41.7497C26.9846 41.7143 27.2747 41.7707 27.5647 41.8271C27.849 41.8376 28.139 41.894 28.3884 41.909C28.9975 41.9715 29.6066 42.034 30.2505 42.0921C31.5383 42.2082 32.855 42.2741 34.1776 42.3858C36.7067 42.5308 39.2822 42.7631 41.8228 42.7201C41.8924 42.7113 41.8807 42.6195 41.8111 42.6283C39.2356 42.396 36.6717 42.2555 34.0672 42.0735C32.7504 42.0076 31.4627 41.8914 30.1459 41.8256C29.502 41.7675 28.8234 41.7139 28.1853 41.7017C27.7212 41.6674 27.1528 41.6463 26.7062 41.7497C26.6714 41.7541 26.6308 41.7126 26.7062 41.7497Z" fill="#F1E10A"/>
<path opacity="0.6" d="M3.78147 39.9993C4.29764 39.8871 4.76152 39.6416 5.26603 39.4377C5.84014 39.2249 6.37945 39.0165 6.95939 38.8495C8.14824 38.4654 9.30229 38.0856 10.4911 37.7015C11.6452 37.3217 12.8399 36.9834 13.9998 36.6496C15.1944 36.3113 16.4066 36.1107 17.6129 35.8642C17.6477 35.8597 17.6536 35.9056 17.6188 35.91C16.4241 36.2483 15.3107 36.6695 14.116 37.0078C12.9213 37.3461 11.6977 37.7347 10.503 38.073C9.34892 38.4527 8.18905 38.7866 6.99437 39.1248C6.41443 39.2918 5.83449 39.4587 5.28935 39.6212C4.77901 39.7793 4.3093 39.9789 3.7873 40.0452C3.7177 40.054 3.74667 40.0037 3.78147 39.9993Z" fill="#F1E10A"/>
<path opacity="0.6" d="M20.6052 34.6441C20.8777 34.5629 21.1445 34.4357 21.4112 34.3086C21.6779 34.1815 21.9157 34.1046 22.1825 33.9775C22.7507 33.7188 23.319 33.4601 23.8873 33.2014C25.0935 32.6751 26.3055 32.1948 27.5174 31.7144C29.8718 30.7625 32.2262 29.8107 34.6735 29.0335C34.7431 29.0246 34.7489 29.0705 34.6852 29.1253C32.3018 30.1274 29.9068 31.0379 27.5176 31.9942C26.3056 32.4745 25.0936 32.9549 23.8816 33.4352C23.4119 33.6348 22.803 33.852 22.0666 34.1787C21.6317 34.3738 21.1272 34.5778 20.64 34.6397C20.5414 34.6989 20.5704 34.6486 20.6052 34.6441Z" fill="#F1E10A"/>
<path opacity="0.6" d="M53.5828 28.4038C52.6541 27.496 51.6269 26.6474 50.3563 26.1094C48.9696 25.4929 47.3801 25.2286 45.8197 25.1937C44.1956 25.2135 42.392 25.769 40.861 26.2433C39.1908 26.7352 37.5497 27.4566 35.8389 27.9071C35.8041 27.9115 35.8447 27.9529 35.8795 27.9485C37.2192 27.6385 38.495 27.1034 39.7882 26.7059C41.4178 26.1725 43.1461 25.8597 44.8978 25.7304C48.1865 25.4525 51.1802 26.471 53.5538 28.4541C53.5886 28.4497 53.6234 28.4453 53.5828 28.4038Z" fill="#F1E10A"/>
<path opacity="0.6" d="M52.2397 42.0494C53.9211 40.81 55.3179 39.0006 55.6763 37.09C55.8498 36.2287 55.9361 35.2386 55.8602 34.3623C55.7784 33.4402 55.4645 32.361 55.0057 31.5334C54.9999 31.4875 54.9303 31.4963 54.9361 31.5422C55.6796 33.2196 55.9711 35.5139 55.3168 37.3222C54.6104 39.277 53.4397 40.9178 51.6423 42.0787C49.8797 43.2351 47.7686 43.5966 45.6864 43.9077C43.4998 44.2321 41.3014 44.185 39.0972 44.092C39.0624 44.0965 39.103 44.1379 39.1378 44.1335C41.5567 44.2459 43.9987 44.262 46.3941 43.9111C48.4241 43.7464 50.5526 43.2429 52.2397 42.0494Z" fill="#F1E10A"/>
<path opacity="0.6" d="M42.1514 39.7414C41.844 39.8271 41.496 39.8713 41.1886 39.957C40.4289 40.1001 39.611 40.0642 38.8571 40.2532C39.3617 40.329 39.8723 40.4506 40.3769 40.5264C43.1728 40.5442 45.9513 40.7041 48.6945 40.0292C50.098 39.6644 51.4723 39.0702 52.3243 37.9828C53.1414 36.8998 53.3495 35.7543 53.2965 34.5021C53.237 32.0851 51.6579 29.9544 49.3892 28.7972C48.2578 28.2415 46.6625 27.9313 45.3574 27.9572C44.6497 27.9539 43.8783 28.0052 43.0837 28.1528C42.2833 28.2545 41.4946 28.448 40.8219 28.7199C40.6886 28.7835 40.8859 28.9449 40.9555 28.9361C41.6342 28.9897 42.336 28.9472 43.0495 28.9964C43.6238 29.0634 44.2387 29.1718 44.8188 29.2846C44.4243 29.2414 44.024 29.1524 43.6006 29.1596C42.9278 29.1518 42.2259 29.1943 41.5647 29.2783C40.2713 29.396 38.8155 29.6276 37.6094 30.1538C37.5108 30.213 37.7081 30.3744 37.7777 30.3656C38.323 30.4828 39.0422 30.2982 39.6106 30.3192C40.2139 30.3358 40.9216 30.3392 41.5713 30.4432C40.8288 30.4442 40.127 30.4868 39.3962 30.5796C38.387 30.7078 37.3953 30.9737 36.4036 31.2396C35.3771 31.5098 34.3912 31.8216 33.4053 32.1333C32.8254 32.3003 31.996 32.4523 31.5902 32.8768C31.4917 32.936 31.6483 33.056 31.7238 33.093C32.2691 33.2102 33.0578 33.0168 33.6205 32.9919C34.7051 32.9008 35.7724 32.9517 36.8455 33.0485C36.9499 33.0352 37.0254 33.0722 37.1298 33.059C36.9906 33.0767 36.8514 33.0944 36.718 33.1579C35.3087 33.4768 33.9517 33.929 32.5888 34.3353C31.023 34.814 29.4282 35.3429 27.903 35.8631C27.1607 36.1439 26.3778 36.3832 25.6414 36.7099C25.2354 36.8548 24.6555 37.0217 24.3366 37.2953C24.2439 37.4004 24.4354 37.5159 24.505 37.5071C24.9053 37.5961 25.2533 37.5519 25.6361 37.5033C26.2277 37.4281 26.8309 37.4447 27.3994 37.4658C28.7393 37.4354 30.056 37.5013 31.3901 37.425C31.9179 37.4046 32.4399 37.3383 32.9271 37.2764C32.5153 37.3753 32.1036 37.4743 31.686 37.5273C31.1002 37.6484 30.2881 37.6583 29.7953 37.954C29.7315 38.0088 29.7721 38.0502 29.8128 38.0917C30.0972 38.3819 30.7526 38.2521 31.1006 38.2079C31.7676 38.1697 32.4752 38.1731 33.1539 38.2267C31.9707 38.3771 30.7586 38.5777 29.587 38.8198C30.0859 38.8497 30.5906 38.9254 31.0953 39.0012C31.7971 38.9586 32.4989 38.9161 33.1718 38.9239C33.8098 38.9361 34.4131 38.9527 35.0163 38.9693C34.4943 39.0356 34.0071 39.0975 33.4851 39.1638C32.8935 39.239 32.2265 39.2771 31.6118 39.4485C32.8648 39.569 34.1409 39.5934 35.3938 39.714C36.3857 39.7279 37.3545 39.8379 38.3522 39.8977C39.5993 39.9724 40.7246 39.9227 41.9484 39.8138C42.0122 39.7591 42.0818 39.7503 42.1514 39.7414Z" fill="#F3E235"/>
<path d="M48.7575 39.1345C50.3409 38.7934 51.4597 37.8586 52.1782 36.5551C52.3462 36.2073 52.4794 35.864 52.5371 35.4837C52.5488 35.5754 52.5546 35.6213 52.5663 35.7131L52.6417 35.7502C52.624 35.3328 52.7572 34.9894 52.67 34.5809C52.5652 34.0347 52.4198 33.447 52.2455 32.9096C52.1292 32.5514 51.9782 32.1976 51.833 31.8896C51.6878 31.5817 51.5078 31.2782 51.2582 30.9835C50.1497 30.0519 48.8847 29.2801 47.4634 28.9477C46.9298 28.9223 46.3961 28.8968 45.8393 28.9676C46.7849 29.1738 47.8178 29.7886 48.5374 30.4432C47.8527 30.0639 47.0405 29.7941 46.2747 29.6116C46.1993 29.5746 46.1297 29.5834 46.0601 29.5923C44.9115 29.4584 43.6994 29.6591 42.5859 30.0803C43.3749 30.1666 44.129 30.2573 44.9354 30.4812C45.852 30.7378 47.0645 31.0966 47.8421 31.6506C47.5869 31.5898 47.3606 31.4786 47.1401 31.4134C46.6992 31.2829 46.2293 31.2027 45.7943 31.1181C44.6746 30.934 43.5958 31.071 42.4823 31.2125C42.4127 31.2213 42.3779 31.2258 42.3083 31.2346C40.6032 31.731 38.9447 32.3147 37.3907 33.1649C37.4255 33.1605 37.4661 33.2019 37.4661 33.2019C38.2027 33.155 38.8581 33.0251 39.5716 33.0743C40.1749 33.0909 40.9 33.2319 41.5322 33.1982C41.6714 33.1806 41.9267 33.2414 41.9963 33.2325C41.6483 33.2768 41.2249 33.2839 40.871 33.2822C40.1344 33.3292 39.3746 33.4724 38.6149 33.6155C37.2693 33.8797 35.9123 34.3319 34.6366 34.8669C34.3002 35.0029 32.659 35.4446 32.5722 35.8752C32.5781 35.9211 32.5839 35.967 32.6245 36.0085C33.0133 36.2854 33.8195 36.2297 34.2836 36.2639C35.5018 36.389 36.7258 36.5598 37.944 36.6848C38.6981 36.7755 39.4464 36.8204 40.2294 36.8608C40.1946 36.8652 40.125 36.874 40.0902 36.8784C39.603 36.9403 39.0927 37.0984 38.6113 37.2062C38.0952 37.3184 37.5384 37.3891 37.0339 37.5931C36.9643 37.602 36.9701 37.6478 36.9759 37.6937C37.3124 37.8375 37.6431 37.9354 38.0028 37.9829C38.5016 38.0128 38.9947 37.9968 39.4587 38.0311C40.6015 38.119 41.7442 38.207 42.9101 38.1988C43.8324 38.2215 44.7024 38.1109 45.6072 37.996C44.8707 38.3227 44.1632 38.5991 43.4674 38.9672C43.7633 39.0695 44.094 39.1674 44.3899 39.2697C44.7843 39.3128 45.2136 39.3515 45.6081 39.3947C46.6406 39.45 47.7252 39.3589 48.7575 39.1345Z" fill="#EAC076"/>
<path d="M51.4076 37.1673C51.9697 36.3032 52.2649 35.2866 52.1773 34.3186C52.1539 34.1351 52.1306 33.9515 52.0725 33.7724C52.055 33.6347 51.9969 33.4556 51.9446 33.3224C51.7644 32.7392 51.5205 32.2106 51.1721 31.6954C51.0444 31.5251 50.9167 31.3548 50.7948 31.2305C50.5452 30.9358 50.2319 30.6958 49.9533 30.4515C50.8355 31.2719 51.4684 32.3571 51.6025 33.4125C51.7424 34.5137 51.6387 35.6459 51.0941 36.6476C50.816 37.2424 50.4219 37.7587 49.877 38.201C49.8422 38.2054 49.9176 38.2424 49.9176 38.2424C50.3757 37.9511 50.8975 37.6051 51.309 37.2264C51.3728 37.1717 51.3728 37.1717 51.4076 37.1673Z" fill="#E7F6FD"/>
<path d="M53.6172 38.9192L53.3222 36.5972C53.3222 36.5972 49.7911 34.8042 44.9296 35.5398C44.9296 35.5398 44.5768 36.9414 44.8202 38.857C45.0635 40.7727 45.7556 42.0415 45.7556 42.0415C50.6466 41.5381 53.6172 38.9192 53.6172 38.9192Z" fill="#626467"/>
<path d="M51.4939 40.3107C52.8788 39.6039 53.6177 38.9201 53.6177 38.9201L53.3227 36.5981C53.3227 36.5981 52.4363 36.1208 50.8606 35.7901C50.8118 36.7991 50.8948 38.3812 51.4939 40.3107Z" fill="url(#paint1_linear_319_2734)"/>
<path d="M45.8586 35.4224C45.7425 35.4372 45.5683 35.4593 45.4522 35.474C45.3444 36.0186 45.245 37.093 45.4294 38.5443C45.5547 39.5311 45.8183 40.6774 46.3363 41.9683C46.4524 41.9536 46.6265 41.9314 46.7426 41.9167C45.4441 38.6604 45.7222 36.2066 45.8586 35.4224Z" fill="#3A3C3F"/>
<path d="M47.1504 35.3764C47.0343 35.3912 46.8528 35.3552 46.7367 35.37C46.6289 35.9146 46.5295 36.989 46.7065 38.3822C46.8319 39.369 47.0954 40.5153 47.5479 41.7555C47.664 41.7408 47.7801 41.726 47.9469 41.6459C46.7866 38.549 46.9634 36.226 47.1504 35.3764Z" fill="#3A3C3F"/>
<path d="M49.9852 40.9735C50.0939 40.9007 50.21 40.886 50.3187 40.8132C49.4865 38.4414 49.4827 36.5543 49.5822 35.4799C49.4587 35.4366 49.3426 35.4514 49.2191 35.4081C49.1768 36.0033 49.1132 36.8962 49.246 37.9411C49.364 38.8699 49.6128 39.9001 49.9852 40.9735Z" fill="#3A3C3F"/>
<path d="M48.3915 35.395C48.2754 35.4098 48.1519 35.3665 47.9777 35.3886C47.8773 35.9912 47.8212 36.9422 47.9834 38.2193C48.1014 39.1481 48.3576 40.2363 48.8028 41.4185C48.9189 41.4037 49.0276 41.3309 49.2017 41.3088C48.1364 38.4948 48.2192 36.3607 48.3915 35.395Z" fill="#3A3C3F"/>
<path d="M51.1601 40.4709C51.2688 40.3981 51.3776 40.3253 51.4937 40.3105C50.8946 38.3811 50.8116 36.799 50.8604 35.79C50.7369 35.7467 50.6134 35.7034 50.4973 35.7181C50.455 36.3134 50.4854 37.0174 50.596 37.8881C50.6339 38.6502 50.8606 39.5062 51.1601 40.4709Z" fill="#3A3C3F"/>
<path opacity="0.9" d="M53.6172 38.9192L53.3222 36.5972C53.3222 36.5972 49.7911 34.8042 44.9296 35.5398C44.9296 35.5398 44.8863 35.6633 44.8504 35.8448C45.946 35.6467 47.1439 35.7894 48.269 35.8234C49.0384 35.8437 50.7661 35.9781 50.8482 37.0884C50.945 38.3149 45.9158 38.6589 44.7621 38.8644C44.7621 38.8644 44.7621 38.8644 44.7695 38.9225C45.0129 40.8381 45.7049 42.1069 45.7049 42.1069C50.6466 41.5381 53.6172 38.9192 53.6172 38.9192Z" fill="#B3B5B8"/>
<path opacity="0.9" d="M53.6175 38.9193L53.4626 37.7002C51.0052 39.2511 48.111 40.1497 45.2233 40.6345C45.508 41.4832 45.7559 42.0416 45.7559 42.0416C50.6469 41.5382 53.6175 38.9193 53.6175 38.9193Z" fill="#B3B5B8"/>
<path d="M52.5921 30.8499L52.2971 28.5278C52.2971 28.5278 48.766 26.7349 43.9045 27.4705C43.9045 27.4705 43.5517 28.872 43.795 30.7877C44.0384 32.7034 44.7305 33.9722 44.7305 33.9722C49.6215 33.4688 52.5921 30.8499 52.5921 30.8499Z" fill="#626467"/>
<path d="M50.4685 32.2404C51.8534 31.5335 52.5923 30.8498 52.5923 30.8498L52.2973 28.5278C52.2973 28.5278 51.4109 28.0505 49.8352 27.7198C49.7864 28.7288 49.8694 30.3109 50.4685 32.2404Z" fill="url(#paint2_linear_319_2734)"/>
<path d="M44.8332 27.3521C44.7171 27.3669 44.5429 27.389 44.4268 27.4037C44.3191 27.9483 44.2196 29.0227 44.404 30.474C44.5293 31.4608 44.7929 32.6071 45.3109 33.898C45.427 33.8833 45.6011 33.8611 45.7172 33.8464C44.4187 30.5901 44.6969 28.1363 44.8332 27.3521Z" fill="#3A3C3F"/>
<path d="M46.1251 27.3061C46.0089 27.3208 45.8348 27.343 45.7113 27.2997C45.6109 27.9023 45.5041 28.9187 45.6811 30.3119C45.8065 31.2987 46.0701 32.445 46.5226 33.6852C46.6387 33.6705 46.7548 33.6557 46.9215 33.5756C45.7613 30.4786 45.938 28.1557 46.1251 27.3061Z" fill="#3A3C3F"/>
<path d="M48.9599 32.9042C49.0686 32.8314 49.1847 32.8167 49.2935 32.7439C48.4613 30.3721 48.4575 28.485 48.5569 27.4106C48.4334 27.3673 48.3173 27.382 48.1939 27.3387C48.1515 27.934 48.088 28.8269 48.2207 29.8718C48.3387 30.8006 48.5876 31.8307 48.9599 32.9042Z" fill="#3A3C3F"/>
<path d="M47.3662 27.3257C47.2501 27.3404 47.1266 27.2971 46.9525 27.3193C46.8521 27.9219 46.7959 28.8728 46.9582 30.1499C47.0762 31.0787 47.3324 32.1669 47.7775 33.3491C47.8936 33.3344 48.0023 33.2616 48.1765 33.2395C47.1111 30.4254 47.1939 28.2914 47.3662 27.3257Z" fill="#3A3C3F"/>
<path d="M50.1347 32.4006C50.2435 32.3278 50.3522 32.255 50.4683 32.2402C49.8692 30.3108 49.7862 28.7287 49.835 27.7197C49.7115 27.6764 49.5954 27.6911 49.4719 27.6478C49.4296 28.2431 49.46 28.9471 49.5707 29.8178C49.6085 30.5798 49.8352 31.4358 50.1347 32.4006Z" fill="#3A3C3F"/>
<path opacity="0.9" d="M52.5921 30.8499L52.2971 28.5278C52.2971 28.5278 48.766 26.7349 43.9045 27.4705C43.9045 27.4705 43.8612 27.594 43.8253 27.7755C44.9208 27.5773 46.1187 27.7201 47.2438 27.7541C48.0132 27.7743 49.7409 27.9088 49.823 29.0191C49.9198 30.2455 44.8906 30.5895 43.737 30.7951C43.737 30.7951 43.737 30.7951 43.7444 30.8531C43.9877 32.7688 44.6798 34.0376 44.6798 34.0376C49.6215 33.4688 52.5921 30.8499 52.5921 30.8499Z" fill="#B3B5B8"/>
<path opacity="0.9" d="M52.5921 30.8494L52.4373 29.6304C49.9799 31.1813 47.0857 32.0799 44.1979 32.5647C44.4826 33.4133 44.7305 33.9717 44.7305 33.9717C49.6215 33.4683 52.5921 30.8494 52.5921 30.8494Z" fill="#B3B5B8"/>
<path d="M63.3822 21.988C63.3822 21.988 61.7566 18.4782 57.7721 18.6894C53.7877 18.9007 42.559 26.1671 44.2361 26.367C45.9206 26.6249 54.3824 25.9038 54.3824 25.9038L63.3822 21.988Z" fill="#008ED0"/>
<path d="M61.8711 21.2363C61.9439 21.345 61.8426 21.4758 61.7265 21.4906C58.4008 20.8513 54.8606 21.7729 51.6834 22.7665C49.0213 23.6356 46.3961 24.7949 44.0547 26.3312C44.0621 26.3892 44.1202 26.3818 44.1782 26.3745C45.8627 26.6324 54.3245 25.9113 54.3245 25.9113L63.3824 21.9881C63.3824 21.9881 61.7567 18.4783 57.7723 18.6895C57.54 18.719 57.3078 18.7485 57.0756 18.778C58.9195 18.8977 60.7284 19.6707 61.8711 21.2363Z" fill="#008ED0"/>
<path d="M50.4273 22.6304C51.5947 22.0692 52.7696 21.566 53.9223 20.8886C54.7994 20.3643 55.6038 19.7312 56.4082 19.0981C53.2965 20.1423 48.6277 22.859 46.1998 24.6421C47.5847 23.9353 49.035 23.2792 50.4273 22.6304Z" fill="white"/>
<path d="M65.9709 42.3637C65.9709 42.3637 65.2745 46.1685 61.3638 46.9603C57.4531 47.752 44.7642 43.5241 46.338 42.9113C47.9045 42.2403 56.2778 40.8226 56.2778 40.8226L65.9709 42.3637Z" fill="#083879"/>
<path d="M46.186 43.1075C46.3021 43.0928 46.4256 43.1361 46.4836 43.1287C47.3692 43.1342 48.3128 43.1323 49.1909 43.0797C50.7805 43.0548 52.37 43.0298 53.9669 43.0629C57.1101 43.1945 60.4854 43.2966 63.5429 44.1469C63.601 44.1395 63.6738 44.2483 63.6231 44.3137C62.9726 45.6941 61.8346 46.4875 60.6017 46.9981C60.892 46.9612 61.1242 46.9317 61.3564 46.9022C65.2671 46.1105 65.9635 42.3057 65.9635 42.3057L56.2778 40.8226C56.2778 40.8226 47.8538 42.3058 46.338 42.9113C46.2219 42.926 46.1713 42.9914 46.186 43.1075Z" fill="#008ED0"/>
<path d="M78.8531 41.6122C83.9977 40.7817 86.0285 40.0517 86.4782 39.8766C90.9325 38.7209 101.845 29.43 102.511 28.6375C103.025 28.0412 102.952 27.4607 102.922 27.2285C102.893 26.9963 102.819 26.4158 102.172 25.9671C101.329 25.3663 88.4398 19.0992 83.8306 19.0358C83.3514 18.9787 81.2099 18.8379 76.0211 19.3201C70.0703 19.8401 55.0956 23.1583 50.4433 26.9347C50.4433 26.9347 50.0786 29.6356 50.733 33.8587C51.1627 38.1693 52.1838 40.6351 52.1838 40.6351C57.6253 43.0703 72.9539 42.5386 78.8531 41.6122Z" fill="#ECECED"/>
<path d="M65.1252 33.3871C65.2118 33.1402 65.2984 32.8932 65.327 32.6536L65.1795 31.4926C65.0919 31.2677 65.0117 31.1009 64.9315 30.9342C64.5169 30.4559 63.2378 29.6746 59.6533 30.248C55.7786 30.8582 44.5423 34.3503 45.109 34.6322C44.6308 35.0469 56.3981 35.7346 60.2876 35.2405C63.5311 34.7694 64.7198 33.9105 65.1252 33.3871Z" fill="#083879"/>
<path d="M64.2518 32.083C64.3531 31.9522 64.3964 31.8287 64.4397 31.7052L64.366 31.1247C64.3512 31.0086 64.2784 30.8998 64.213 30.8492C63.8859 30.5958 63.0141 30.2346 60.4672 30.6172C57.6881 31.0292 49.5193 33.1288 49.9478 33.2513C49.5636 33.4771 58.0052 33.5255 60.7917 33.1715C63.0484 32.8258 63.933 32.3595 64.2518 32.083Z" fill="#008ED0"/>
<path d="M57.4209 31.7107C59.5033 31.3872 61.5563 30.8315 63.6682 30.7401C63.1236 30.6323 62.1727 30.5762 60.6708 30.826C59.343 31.0537 56.7021 31.6251 54.417 32.2103C55.3965 32.0269 56.3833 31.9015 57.4209 31.7107Z" fill="white"/>
<path d="M102.922 27.2288C102.892 26.9966 102.819 26.416 102.172 25.9673C101.387 25.3592 89.1298 19.4247 84.1861 19.0499C83.6481 22.2447 83.6336 25.8449 84.1056 29.5602C84.585 33.3336 85.5573 36.8085 86.8116 39.7166C91.5193 38.2336 101.896 29.3648 102.511 28.6377C103.025 28.0415 102.951 27.461 102.922 27.2288Z" fill="url(#paint3_linear_319_2734)"/>
<path d="M102.922 27.2288C102.892 26.9966 102.819 26.416 102.172 25.9673C101.387 25.3592 89.1298 19.4247 84.1861 19.0499C83.6481 22.2447 83.6336 25.8449 84.1056 29.5602C84.585 33.3336 85.5573 36.8085 86.8116 39.7166C91.5193 38.2336 101.896 29.3648 102.511 28.6377C103.025 28.0415 102.951 27.461 102.922 27.2288Z" fill="#FF0026"/>
<path d="M83.2527 20.5249C83.0205 20.5544 82.7588 20.3517 82.7293 20.1195C82.6998 19.8873 82.9025 19.6256 83.1347 19.5961C83.3669 19.5666 83.6286 19.7693 83.6581 20.0015C83.695 20.2918 83.4849 20.4954 83.2527 20.5249Z" fill="white"/>
<path d="M83.0689 30.2217C82.8367 30.2512 82.575 30.0485 82.5455 29.8163C82.516 29.5841 82.7187 29.3224 82.9509 29.2929C83.1831 29.2634 83.4448 29.4661 83.4743 29.6983C83.5038 29.9305 83.3591 30.1848 83.0689 30.2217Z" fill="white"/>
<path d="M85.7805 39.4932C85.5483 39.5227 85.2866 39.32 85.2571 39.0878C85.2276 38.8556 85.3723 38.6012 85.6625 38.5644C85.8948 38.5349 86.1565 38.7376 86.186 38.9698C86.2228 39.26 86.0708 39.4563 85.7805 39.4932Z" fill="white"/>
<path d="M83.9641 34.9453C83.7319 34.9748 83.4702 34.7721 83.4407 34.5399C83.4112 34.3077 83.6139 34.046 83.8461 34.0165C84.0783 33.987 84.34 34.1897 84.3695 34.4219C84.399 34.6541 84.2544 34.9085 83.9641 34.9453Z" fill="white"/>
<path d="M82.7547 25.4238C82.5225 25.4533 82.2608 25.2506 82.2313 25.0184C82.2018 24.7862 82.4045 24.5245 82.6367 24.495C82.8689 24.4655 83.1306 24.6682 83.1601 24.9004C83.1969 25.1907 83.0449 25.387 82.7547 25.4238Z" fill="white"/>
<path d="M75.2414 35.9351C72.6291 36.267 70.2738 34.4427 69.942 31.8304C69.6101 29.2181 71.4344 26.8628 74.0467 26.531C76.659 26.1991 79.0143 28.0234 79.3461 30.6357C79.6706 33.1899 77.7956 35.6106 75.2414 35.9351Z" fill="#ECB020"/>
<path opacity="0.7" d="M74.9714 35.2027C72.7655 35.4829 70.7954 33.9046 70.5225 31.7567C70.2422 29.5508 71.8206 27.5807 73.9684 27.3078C76.1163 27.0349 78.1445 28.6059 78.4174 30.7538C78.7557 32.9523 77.1773 34.9224 74.9714 35.2027Z" fill="#C9E9EB"/>
<path d="M75.094 34.7747C73.1203 35.0255 71.3464 33.5992 71.1031 31.6835C70.8523 29.7098 72.2206 27.9433 74.1943 27.6925C76.168 27.4418 77.9418 28.8681 78.1852 30.7838C78.436 32.7575 77.0097 34.5313 75.094 34.7747Z" fill="url(#paint4_radial_319_2734)"/>
<path d="M73.7465 28.8111C73.7824 28.6295 73.7529 28.3973 73.7888 28.2158C72.8748 28.4499 72.1284 29.0756 71.7525 29.8312C72.274 29.2931 72.9338 28.9143 73.7465 28.8111Z" fill="url(#paint5_radial_319_2734)"/>
<path d="M77.8443 30.8866C77.6305 29.2032 76.1764 27.9722 74.4781 28.07C74.4496 28.3095 74.4791 28.5417 74.4505 28.7813C75.9387 28.8872 77.1458 30.0316 77.345 31.5989C77.4261 32.2375 77.275 32.9055 76.9931 33.4722C77.6159 32.8032 77.9697 31.8735 77.8443 30.8866Z" fill="url(#paint6_radial_319_2734)"/>
<path d="M60.5501 46.592C60.5501 46.592 53.4584 46.4902 47.6097 43.6349C47.6097 43.6349 54.437 45.8349 60.5501 46.592Z" fill="white"/>
<path opacity="0.7" d="M83.1442 24.3139C83.1147 24.0817 83.1507 23.9002 83.1212 23.668C83.1488 22.9566 83.2418 22.2959 83.2768 21.6426C80.7796 21.4879 78.2612 21.6309 75.7143 22.0134C67.4856 23.1768 59.6376 25.9435 51.7453 28.3619C51.7536 28.8917 51.7113 29.487 51.7491 30.2491C59.1493 28.601 66.498 26.5467 73.9572 25.3631C77.0699 24.7907 80.096 24.4652 83.1442 24.3139Z" fill="#BFC0C2"/>
<g style="mix-blend-mode:multiply" opacity="0.8">
<path d="M78.853 41.6122C83.9975 40.7816 86.0284 40.0517 86.478 39.8766C90.9324 38.7208 101.845 29.4299 102.511 28.6374C103.025 28.0412 102.951 27.4607 102.922 27.2285L102.915 27.1704C100.993 28.2993 98.992 29.2615 96.9251 30.1729C82.6749 36.4075 66.9132 38.1739 51.4675 38.2485C51.8408 39.7938 52.1836 40.6351 52.1836 40.6351C57.6251 43.0702 72.9537 42.5386 78.853 41.6122Z" fill="#D9D9D9"/>
</g>
<path opacity="0.6" d="M84.3255 23.3965C84.3043 23.6942 84.3412 23.9844 84.32 24.2821C85.3797 24.2654 86.4468 24.3068 87.5719 24.3409C91.1362 24.5369 94.7226 24.9072 98.2509 25.2848C94.9676 24.0502 91.6411 22.9391 88.25 22.2491C86.9793 21.9976 85.774 21.7968 84.5254 21.7194C84.425 22.3221 84.3172 22.8667 84.3255 23.3965Z" fill="#FFF2BB"/>
<defs>
<radialGradient id="paint0_radial_319_2734" cx="0" cy="0" r="1" gradientUnits="userSpaceOnUse" gradientTransform="translate(49.1907 32.2984) rotate(82.7598) scale(25.4111 25.4111)">
<stop stop-color="#FCA82A" stop-opacity="0.95"/>
<stop offset="0.1143" stop-color="#FEB225" stop-opacity="0.8414"/>
<stop offset="1" stop-color="#F9B332" stop-opacity="0"/>
</radialGradient>
<linearGradient id="paint1_linear_319_2734" x1="55.6907" y1="36.8988" x2="42.2235" y2="40.2754" gradientUnits="userSpaceOnUse">
<stop offset="0.4575" stop-color="#E5E0DF"/>
<stop offset="1" stop-color="#8CA99C"/>
</linearGradient>
<linearGradient id="paint2_linear_319_2734" x1="54.6643" y1="28.8227" x2="41.1973" y2="32.1993" gradientUnits="userSpaceOnUse">
<stop offset="0.4575" stop-color="#E5E0DF"/>
<stop offset="1" stop-color="#8CA99C"/>
</linearGradient>
<linearGradient id="paint3_linear_319_2734" x1="91.2974" y1="11.0258" x2="95.694" y2="45.6334" gradientUnits="userSpaceOnUse">
<stop offset="0.4575" stop-color="#E5E0DF"/>
<stop offset="1" stop-color="#8CA99C"/>
</linearGradient>
<radialGradient id="paint4_radial_319_2734" cx="0" cy="0" r="1" gradientUnits="userSpaceOnUse" gradientTransform="translate(76.1734 28.7968) rotate(82.7598) scale(6.03031 6.03031)">
<stop offset="0.1486" stop-color="#21687E"/>
<stop offset="0.491" stop-color="#023F5F"/>
<stop offset="0.9801"/>
</radialGradient>
<radialGradient id="paint5_radial_319_2734" cx="0" cy="0" r="1" gradientUnits="userSpaceOnUse" gradientTransform="translate(75.9521 27.0683) rotate(82.7598) scale(5.71788 5.71789)">
<stop offset="0.2851" stop-color="white"/>
<stop offset="0.6912" stop-color="#6C6C6C"/>
<stop offset="1"/>
</radialGradient>
<radialGradient id="paint6_radial_319_2734" cx="0" cy="0" r="1" gradientUnits="userSpaceOnUse" gradientTransform="translate(75.9526 27.07) rotate(82.7598) scale(5.71958 5.71958)">
<stop offset="0.2851" stop-color="white"/>
<stop offset="0.6912" stop-color="#6C6C6C"/>
<stop offset="1"/>
</radialGradient>
</defs>
</svg>
