<svg width="802" height="77" viewBox="0 0 802 77" fill="none" xmlns="http://www.w3.org/2000/svg">
<path d="M17.6338 41.6198C17.6338 56.806 188.818 69.1168 399.984 69.1168C611.149 69.1168 782.333 56.806 782.333 41.6198C782.333 26.4336 611.149 14.1228 399.984 14.1228C188.818 14.1228 17.6338 26.4336 17.6338 41.6198Z" fill="url(#paint0_radial_381_20334)"/>
<g filter="url(#filter0_d_381_20334)">
<path d="M771.538 35.3888C777.802 35.3888 782.878 40.4648 782.878 46.7288C782.878 52.9928 777.802 58.0688 771.538 58.0688H748.048C746.158 58.0688 744.592 56.5568 744.592 54.6128C744.592 52.7228 746.158 51.2108 748.048 51.2108H771.538C774.022 51.2108 776.02 49.2128 776.02 46.7288C776.02 44.2448 774.022 42.2468 771.538 42.2468H753.664C747.4 42.2468 742.324 37.1168 742.324 30.9068C742.324 24.6428 747.4 19.5128 753.664 19.5128H777.154C779.044 19.5128 780.61 21.0788 780.61 22.9688C780.61 24.8588 779.044 26.3708 777.154 26.3708H753.664C751.18 26.3708 749.182 28.4228 749.182 30.9068C749.182 33.3368 751.18 35.3888 753.664 35.3888H771.538Z" fill="url(#paint1_linear_381_20334)"/>
<path d="M771.538 35.3888C777.802 35.3888 782.878 40.4648 782.878 46.7288C782.878 52.9928 777.802 58.0688 771.538 58.0688H748.048C746.158 58.0688 744.592 56.5568 744.592 54.6128C744.592 52.7228 746.158 51.2108 748.048 51.2108H771.538C774.022 51.2108 776.02 49.2128 776.02 46.7288C776.02 44.2448 774.022 42.2468 771.538 42.2468H753.664C747.4 42.2468 742.324 37.1168 742.324 30.9068C742.324 24.6428 747.4 19.5128 753.664 19.5128H777.154C779.044 19.5128 780.61 21.0788 780.61 22.9688C780.61 24.8588 779.044 26.3708 777.154 26.3708H753.664C751.18 26.3708 749.182 28.4228 749.182 30.9068C749.182 33.3368 751.18 35.3888 753.664 35.3888H771.538Z" fill="white" fill-opacity="0.8"/>
</g>
<g filter="url(#filter1_d_381_20334)">
<path d="M710.785 19.5128C712.675 19.5128 714.241 21.0788 714.241 22.9688V54.6128C714.241 56.5568 712.675 58.0688 710.785 58.0688C708.895 58.0688 707.383 56.5568 707.383 54.6128V22.9688C707.383 21.0788 708.895 19.5128 710.785 19.5128Z" fill="url(#paint2_linear_381_20334)"/>
<path d="M710.785 19.5128C712.675 19.5128 714.241 21.0788 714.241 22.9688V54.6128C714.241 56.5568 712.675 58.0688 710.785 58.0688C708.895 58.0688 707.383 56.5568 707.383 54.6128V22.9688C707.383 21.0788 708.895 19.5128 710.785 19.5128Z" fill="white" fill-opacity="0.8"/>
</g>
<g filter="url(#filter2_d_381_20334)">
<path d="M667.958 35.3888C674.222 35.3888 679.297 40.4648 679.297 46.7288C679.297 52.9928 674.222 58.0688 667.958 58.0688H644.468C642.578 58.0688 641.011 56.5568 641.011 54.6128C641.011 52.7228 642.578 51.2108 644.468 51.2108H667.958C670.442 51.2108 672.44 49.2128 672.44 46.7288C672.44 44.2448 670.442 42.2468 667.958 42.2468H650.083C643.819 42.2468 638.744 37.1168 638.744 30.9068C638.744 24.6428 643.819 19.5128 650.083 19.5128H673.573C675.463 19.5128 677.029 21.0788 677.029 22.9688C677.029 24.8588 675.463 26.3708 673.573 26.3708H650.083C647.599 26.3708 645.602 28.4228 645.602 30.9068C645.602 33.3368 647.599 35.3888 650.083 35.3888H667.958Z" fill="url(#paint3_linear_381_20334)"/>
<path d="M667.958 35.3888C674.222 35.3888 679.297 40.4648 679.297 46.7288C679.297 52.9928 674.222 58.0688 667.958 58.0688H644.468C642.578 58.0688 641.011 56.5568 641.011 54.6128C641.011 52.7228 642.578 51.2108 644.468 51.2108H667.958C670.442 51.2108 672.44 49.2128 672.44 46.7288C672.44 44.2448 670.442 42.2468 667.958 42.2468H650.083C643.819 42.2468 638.744 37.1168 638.744 30.9068C638.744 24.6428 643.819 19.5128 650.083 19.5128H673.573C675.463 19.5128 677.029 21.0788 677.029 22.9688C677.029 24.8588 675.463 26.3708 673.573 26.3708H650.083C647.599 26.3708 645.602 28.4228 645.602 30.9068C645.602 33.3368 647.599 35.3888 650.083 35.3888H667.958Z" fill="white" fill-opacity="0.8"/>
</g>
<g filter="url(#filter3_d_381_20334)">
<path d="M607.783 19.5128C609.673 19.5128 611.239 21.0788 611.239 22.9688C611.239 24.8588 609.673 26.3708 607.783 26.3708H574.087C572.197 26.3708 570.685 24.8588 570.685 22.9688C570.685 21.0788 572.197 19.5128 574.087 19.5128H607.783ZM607.783 51.2108C609.673 51.2108 611.239 52.7228 611.239 54.6128C611.239 56.5568 609.673 58.0688 607.783 58.0688H574.087C572.197 58.0688 570.685 56.5568 570.685 54.6128C570.685 52.7228 572.197 51.2108 574.087 51.2108H607.783ZM607.783 35.3888C609.673 35.3888 611.239 36.9008 611.239 38.7908C611.239 40.6808 609.673 42.2468 607.783 42.2468H574.087C572.197 42.2468 570.685 40.6808 570.685 38.7908C570.685 36.9008 572.197 35.3888 574.087 35.3888H607.783Z" fill="url(#paint4_linear_381_20334)"/>
<path d="M607.783 19.5128C609.673 19.5128 611.239 21.0788 611.239 22.9688C611.239 24.8588 609.673 26.3708 607.783 26.3708H574.087C572.197 26.3708 570.685 24.8588 570.685 22.9688C570.685 21.0788 572.197 19.5128 574.087 19.5128H607.783ZM607.783 51.2108C609.673 51.2108 611.239 52.7228 611.239 54.6128C611.239 56.5568 609.673 58.0688 607.783 58.0688H574.087C572.197 58.0688 570.685 56.5568 570.685 54.6128C570.685 52.7228 572.197 51.2108 574.087 51.2108H607.783ZM607.783 35.3888C609.673 35.3888 611.239 36.9008 611.239 38.7908C611.239 40.6808 609.673 42.2468 607.783 42.2468H574.087C572.197 42.2468 570.685 40.6808 570.685 38.7908C570.685 36.9008 572.197 35.3888 574.087 35.3888H607.783Z" fill="white" fill-opacity="0.8"/>
</g>
<g filter="url(#filter4_d_381_20334)">
<path d="M538.143 19.5128C540.033 19.5128 541.545 21.0788 541.545 22.9688V54.6128C541.545 56.0168 540.735 57.2588 539.493 57.7988C539.061 57.9608 538.575 58.0688 538.143 58.0688C537.279 58.0688 536.415 57.7448 535.767 57.1508L507.849 30.9068V54.6128C507.849 56.5568 506.337 58.0688 504.447 58.0688C502.557 58.0688 500.991 56.5568 500.991 54.6128V22.9688C500.991 21.6188 501.801 20.3768 503.097 19.8368C504.339 19.2968 505.797 19.5128 506.769 20.4848L534.687 46.6748V22.9688C534.687 21.0788 536.199 19.5128 538.143 19.5128Z" fill="url(#paint5_linear_381_20334)"/>
<path d="M538.143 19.5128C540.033 19.5128 541.545 21.0788 541.545 22.9688V54.6128C541.545 56.0168 540.735 57.2588 539.493 57.7988C539.061 57.9608 538.575 58.0688 538.143 58.0688C537.279 58.0688 536.415 57.7448 535.767 57.1508L507.849 30.9068V54.6128C507.849 56.5568 506.337 58.0688 504.447 58.0688C502.557 58.0688 500.991 56.5568 500.991 54.6128V22.9688C500.991 21.6188 501.801 20.3768 503.097 19.8368C504.339 19.2968 505.797 19.5128 506.769 20.4848L534.687 46.6748V22.9688C534.687 21.0788 536.199 19.5128 538.143 19.5128Z" fill="white" fill-opacity="0.8"/>
</g>
<g filter="url(#filter5_d_381_20334)">
<path d="M468.395 19.5128C470.285 19.5128 471.851 21.0788 471.851 22.9688C471.851 24.8588 470.285 26.3708 468.395 26.3708H434.699C432.809 26.3708 431.297 24.8588 431.297 22.9688C431.297 21.0788 432.809 19.5128 434.699 19.5128H468.395ZM468.395 51.2108C470.285 51.2108 471.851 52.7228 471.851 54.6128C471.851 56.5568 470.285 58.0688 468.395 58.0688H434.699C432.809 58.0688 431.297 56.5568 431.297 54.6128C431.297 52.7228 432.809 51.2108 434.699 51.2108H468.395ZM468.395 35.3888C470.285 35.3888 471.851 36.9008 471.851 38.7908C471.851 40.6808 470.285 42.2468 468.395 42.2468H434.699C432.809 42.2468 431.297 40.6808 431.297 38.7908C431.297 36.9008 432.809 35.3888 434.699 35.3888H468.395Z" fill="url(#paint6_linear_381_20334)"/>
<path d="M468.395 19.5128C470.285 19.5128 471.851 21.0788 471.851 22.9688C471.851 24.8588 470.285 26.3708 468.395 26.3708H434.699C432.809 26.3708 431.297 24.8588 431.297 22.9688C431.297 21.0788 432.809 19.5128 434.699 19.5128H468.395ZM468.395 51.2108C470.285 51.2108 471.851 52.7228 471.851 54.6128C471.851 56.5568 470.285 58.0688 468.395 58.0688H434.699C432.809 58.0688 431.297 56.5568 431.297 54.6128C431.297 52.7228 432.809 51.2108 434.699 51.2108H468.395ZM468.395 35.3888C470.285 35.3888 471.851 36.9008 471.851 38.7908C471.851 40.6808 470.285 42.2468 468.395 42.2468H434.699C432.809 42.2468 431.297 40.6808 431.297 38.7908C431.297 36.9008 432.809 35.3888 434.699 35.3888H468.395Z" fill="white" fill-opacity="0.8"/>
</g>
<g filter="url(#filter6_d_381_20334)">
<path d="M399.8 36.8468C401.69 36.8468 403.202 38.4128 403.202 40.3028V50.0768C403.202 50.9948 402.824 51.9128 402.176 52.5608C398.396 56.1788 393.05 58.0688 386.786 58.0688H384.032C377.714 58.0688 372.368 56.1248 368.588 52.4528C366.752 50.7248 365.348 48.6188 364.43 46.2428C363.512 43.9208 363.08 41.4368 363.08 38.7908C363.08 36.1988 363.512 33.6608 364.43 31.3928C365.348 29.0168 366.752 26.9108 368.588 25.1288C372.368 21.4568 377.714 19.5128 384.032 19.5128H386.786C389.486 19.5128 392.078 19.8908 394.4 20.5928C396.668 21.2948 398.774 22.3208 400.556 23.7248C402.068 24.8588 402.338 27.0188 401.204 28.5308C400.07 30.0428 397.91 30.3128 396.398 29.1788C394.022 27.3428 390.674 26.3708 386.786 26.3708H384.032C375.338 26.3708 369.938 31.1768 369.938 38.7908C369.938 46.4588 375.338 51.2108 384.032 51.2108H386.786C390.674 51.2108 393.914 50.2388 396.344 48.4568V43.7588H383.168C381.278 43.7588 379.712 42.1928 379.712 40.3028C379.712 38.4128 381.278 36.8468 383.168 36.8468H399.8Z" fill="url(#paint7_linear_381_20334)"/>
<path d="M399.8 36.8468C401.69 36.8468 403.202 38.4128 403.202 40.3028V50.0768C403.202 50.9948 402.824 51.9128 402.176 52.5608C398.396 56.1788 393.05 58.0688 386.786 58.0688H384.032C377.714 58.0688 372.368 56.1248 368.588 52.4528C366.752 50.7248 365.348 48.6188 364.43 46.2428C363.512 43.9208 363.08 41.4368 363.08 38.7908C363.08 36.1988 363.512 33.6608 364.43 31.3928C365.348 29.0168 366.752 26.9108 368.588 25.1288C372.368 21.4568 377.714 19.5128 384.032 19.5128H386.786C389.486 19.5128 392.078 19.8908 394.4 20.5928C396.668 21.2948 398.774 22.3208 400.556 23.7248C402.068 24.8588 402.338 27.0188 401.204 28.5308C400.07 30.0428 397.91 30.3128 396.398 29.1788C394.022 27.3428 390.674 26.3708 386.786 26.3708H384.032C375.338 26.3708 369.938 31.1768 369.938 38.7908C369.938 46.4588 375.338 51.2108 384.032 51.2108H386.786C390.674 51.2108 393.914 50.2388 396.344 48.4568V43.7588H383.168C381.278 43.7588 379.712 42.1928 379.712 40.3028C379.712 38.4128 381.278 36.8468 383.168 36.8468H399.8Z" fill="white" fill-opacity="0.8"/>
</g>
<g filter="url(#filter7_d_381_20334)">
<path d="M330.586 25.1288C332.368 26.9108 333.772 29.0168 334.69 31.3928C335.608 33.6608 336.094 36.1988 336.094 38.7908C336.094 41.4368 335.608 43.9208 334.69 46.2428C333.772 48.6188 332.368 50.7248 330.586 52.4528C326.806 56.1248 321.46 58.0688 315.088 58.0688H312.388C306.016 58.0688 300.67 56.1248 296.89 52.4528C295.108 50.7248 293.704 48.6188 292.732 46.2428C291.868 43.9208 291.382 41.4368 291.382 38.7908C291.382 36.1988 291.868 33.6608 292.732 31.3928C293.704 29.0168 295.108 26.9108 296.89 25.1288C300.67 21.4568 306.016 19.5128 312.388 19.5128H315.088C321.46 19.5128 326.806 21.4568 330.586 25.1288ZM315.088 51.2108C323.782 51.2108 329.236 46.4588 329.236 38.7908C329.236 31.1768 323.782 26.3708 315.088 26.3708H312.388C303.64 26.3708 298.24 31.1768 298.24 38.7908C298.24 46.4588 303.64 51.2108 312.388 51.2108H315.088Z" fill="url(#paint8_linear_381_20334)"/>
<path d="M330.586 25.1288C332.368 26.9108 333.772 29.0168 334.69 31.3928C335.608 33.6608 336.094 36.1988 336.094 38.7908C336.094 41.4368 335.608 43.9208 334.69 46.2428C333.772 48.6188 332.368 50.7248 330.586 52.4528C326.806 56.1248 321.46 58.0688 315.088 58.0688H312.388C306.016 58.0688 300.67 56.1248 296.89 52.4528C295.108 50.7248 293.704 48.6188 292.732 46.2428C291.868 43.9208 291.382 41.4368 291.382 38.7908C291.382 36.1988 291.868 33.6608 292.732 31.3928C293.704 29.0168 295.108 26.9108 296.89 25.1288C300.67 21.4568 306.016 19.5128 312.388 19.5128H315.088C321.46 19.5128 326.806 21.4568 330.586 25.1288ZM315.088 51.2108C323.782 51.2108 329.236 46.4588 329.236 38.7908C329.236 31.1768 323.782 26.3708 315.088 26.3708H312.388C303.64 26.3708 298.24 31.1768 298.24 38.7908C298.24 46.4588 303.64 51.2108 312.388 51.2108H315.088Z" fill="white" fill-opacity="0.8"/>
</g>
<g filter="url(#filter8_d_381_20334)">
<path d="M261.97 51.2108C263.86 51.2108 265.426 52.7228 265.426 54.6128C265.426 56.5568 263.86 58.0688 261.97 58.0688H256.462C255.49 58.0688 254.572 57.6908 253.924 56.9888L243.448 45.6488H228.652V54.6128C228.652 56.5568 227.086 58.0688 225.196 58.0688C223.306 58.0688 221.794 56.5568 221.794 54.6128V42.1928C221.794 40.3028 223.306 38.7368 225.196 38.7368H249.28C252.682 38.7368 255.49 35.9828 255.49 32.5808C255.49 29.1788 252.682 26.3708 249.28 26.3708H225.196C223.306 26.3708 221.794 24.8588 221.794 22.9688C221.794 21.0788 223.306 19.5128 225.196 19.5128H249.28C252.79 19.5128 256.03 20.9168 258.514 23.3468C260.998 25.8308 262.348 29.0708 262.348 32.5808C262.348 36.0908 260.998 39.3308 258.514 41.8148C256.84 43.4888 254.734 44.6768 252.466 45.2168L257.974 51.2108H261.97Z" fill="url(#paint9_linear_381_20334)"/>
<path d="M261.97 51.2108C263.86 51.2108 265.426 52.7228 265.426 54.6128C265.426 56.5568 263.86 58.0688 261.97 58.0688H256.462C255.49 58.0688 254.572 57.6908 253.924 56.9888L243.448 45.6488H228.652V54.6128C228.652 56.5568 227.086 58.0688 225.196 58.0688C223.306 58.0688 221.794 56.5568 221.794 54.6128V42.1928C221.794 40.3028 223.306 38.7368 225.196 38.7368H249.28C252.682 38.7368 255.49 35.9828 255.49 32.5808C255.49 29.1788 252.682 26.3708 249.28 26.3708H225.196C223.306 26.3708 221.794 24.8588 221.794 22.9688C221.794 21.0788 223.306 19.5128 225.196 19.5128H249.28C252.79 19.5128 256.03 20.9168 258.514 23.3468C260.998 25.8308 262.348 29.0708 262.348 32.5808C262.348 36.0908 260.998 39.3308 258.514 41.8148C256.84 43.4888 254.734 44.6768 252.466 45.2168L257.974 51.2108H261.97Z" fill="white" fill-opacity="0.8"/>
</g>
<g filter="url(#filter9_d_381_20334)">
<path d="M191.944 19.5128C193.834 19.5128 195.346 21.0788 195.346 22.9688C195.346 24.8588 193.834 26.3708 191.944 26.3708H178.498V54.6128C178.498 56.5568 176.986 58.0688 175.096 58.0688C173.206 58.0688 171.64 56.5568 171.64 54.6128V26.3708H158.248C156.358 26.3708 154.792 24.8588 154.792 22.9688C154.792 21.0788 156.358 19.5128 158.248 19.5128H191.944Z" fill="url(#paint10_linear_381_20334)"/>
<path d="M191.944 19.5128C193.834 19.5128 195.346 21.0788 195.346 22.9688C195.346 24.8588 193.834 26.3708 191.944 26.3708H178.498V54.6128C178.498 56.5568 176.986 58.0688 175.096 58.0688C173.206 58.0688 171.64 56.5568 171.64 54.6128V26.3708H158.248C156.358 26.3708 154.792 24.8588 154.792 22.9688C154.792 21.0788 156.358 19.5128 158.248 19.5128H191.944Z" fill="white" fill-opacity="0.8"/>
</g>
<g filter="url(#filter10_d_381_20334)">
<path d="M120.796 35.3888C127.06 35.3888 132.136 40.4648 132.136 46.7288C132.136 52.9928 127.06 58.0688 120.796 58.0688H97.3062C95.4162 58.0688 93.8502 56.5568 93.8502 54.6128C93.8502 52.7228 95.4162 51.2108 97.3062 51.2108H120.796C123.28 51.2108 125.278 49.2128 125.278 46.7288C125.278 44.2448 123.28 42.2468 120.796 42.2468H102.922C96.6582 42.2468 91.5822 37.1168 91.5822 30.9068C91.5822 24.6428 96.6582 19.5128 102.922 19.5128H126.412C128.302 19.5128 129.868 21.0788 129.868 22.9688C129.868 24.8588 128.302 26.3708 126.412 26.3708H102.922C100.438 26.3708 98.4402 28.4228 98.4402 30.9068C98.4402 33.3368 100.438 35.3888 102.922 35.3888H120.796Z" fill="url(#paint11_linear_381_20334)"/>
<path d="M120.796 35.3888C127.06 35.3888 132.136 40.4648 132.136 46.7288C132.136 52.9928 127.06 58.0688 120.796 58.0688H97.3062C95.4162 58.0688 93.8502 56.5568 93.8502 54.6128C93.8502 52.7228 95.4162 51.2108 97.3062 51.2108H120.796C123.28 51.2108 125.278 49.2128 125.278 46.7288C125.278 44.2448 123.28 42.2468 120.796 42.2468H102.922C96.6582 42.2468 91.5822 37.1168 91.5822 30.9068C91.5822 24.6428 96.6582 19.5128 102.922 19.5128H126.412C128.302 19.5128 129.868 21.0788 129.868 22.9688C129.868 24.8588 128.302 26.3708 126.412 26.3708H102.922C100.438 26.3708 98.4402 28.4228 98.4402 30.9068C98.4402 33.3368 100.438 35.3888 102.922 35.3888H120.796Z" fill="white" fill-opacity="0.8"/>
</g>
<g filter="url(#filter11_d_381_20334)">
<path d="M54.3538 26.8568L66.3958 53.2088C67.1518 54.9368 66.3958 56.9888 64.6678 57.7448C64.2358 57.9608 63.7498 58.0688 63.2638 58.0688C61.9678 58.0688 60.7258 57.3128 60.1318 56.0708L48.1438 29.6648C47.2258 27.6668 45.1738 26.4248 43.0138 26.4248C40.7998 26.4248 38.8018 27.6668 37.8838 29.6648L25.8418 56.0708C25.0858 57.7988 23.0338 58.5548 21.3058 57.7448C19.5778 56.9888 18.8218 54.9368 19.6318 53.2088L31.6198 26.8568C33.6718 22.4288 38.0998 19.5128 43.0138 19.5128C47.8738 19.5128 52.3558 22.4288 54.3538 26.8568ZM43.0138 39.4928C46.4158 39.4928 49.1698 42.2468 49.1698 45.6488C49.1698 49.0508 46.4158 51.8048 43.0138 51.8048C39.6118 51.8048 36.8578 49.0508 36.8578 45.6488C36.8578 42.2468 39.6118 39.4928 43.0138 39.4928Z" fill="url(#paint12_linear_381_20334)"/>
<path d="M54.3538 26.8568L66.3958 53.2088C67.1518 54.9368 66.3958 56.9888 64.6678 57.7448C64.2358 57.9608 63.7498 58.0688 63.2638 58.0688C61.9678 58.0688 60.7258 57.3128 60.1318 56.0708L48.1438 29.6648C47.2258 27.6668 45.1738 26.4248 43.0138 26.4248C40.7998 26.4248 38.8018 27.6668 37.8838 29.6648L25.8418 56.0708C25.0858 57.7988 23.0338 58.5548 21.3058 57.7448C19.5778 56.9888 18.8218 54.9368 19.6318 53.2088L31.6198 26.8568C33.6718 22.4288 38.0998 19.5128 43.0138 19.5128C47.8738 19.5128 52.3558 22.4288 54.3538 26.8568ZM43.0138 39.4928C46.4158 39.4928 49.1698 42.2468 49.1698 45.6488C49.1698 49.0508 46.4158 51.8048 43.0138 51.8048C39.6118 51.8048 36.8578 49.0508 36.8578 45.6488C36.8578 42.2468 39.6118 39.4928 43.0138 39.4928Z" fill="white" fill-opacity="0.8"/>
</g>
<defs>
<filter id="filter0_d_381_20334" x="723.493" y="0.681091" width="78.2174" height="76.2194" filterUnits="userSpaceOnUse" color-interpolation-filters="sRGB">
<feFlood flood-opacity="0" result="BackgroundImageFix"/>
<feColorMatrix in="SourceAlpha" type="matrix" values="0 0 0 0 0 0 0 0 0 0 0 0 0 0 0 0 0 0 127 0" result="hardAlpha"/>
<feOffset/>
<feGaussianBlur stdDeviation="9.41586"/>
<feColorMatrix type="matrix" values="0 0 0 0 1 0 0 0 0 0.909804 0 0 0 0 0.941176 0 0 0 0.7 0"/>
<feBlend mode="normal" in2="BackgroundImageFix" result="effect1_dropShadow_381_20334"/>
<feBlend mode="normal" in="SourceGraphic" in2="effect1_dropShadow_381_20334" result="shape"/>
</filter>
<filter id="filter1_d_381_20334" x="688.551" y="0.681091" width="44.5213" height="76.2194" filterUnits="userSpaceOnUse" color-interpolation-filters="sRGB">
<feFlood flood-opacity="0" result="BackgroundImageFix"/>
<feColorMatrix in="SourceAlpha" type="matrix" values="0 0 0 0 0 0 0 0 0 0 0 0 0 0 0 0 0 0 127 0" result="hardAlpha"/>
<feOffset/>
<feGaussianBlur stdDeviation="9.41586"/>
<feColorMatrix type="matrix" values="0 0 0 0 1 0 0 0 0 0.909804 0 0 0 0 0.941176 0 0 0 0.7 0"/>
<feBlend mode="normal" in2="BackgroundImageFix" result="effect1_dropShadow_381_20334"/>
<feBlend mode="normal" in="SourceGraphic" in2="effect1_dropShadow_381_20334" result="shape"/>
</filter>
<filter id="filter2_d_381_20334" x="619.912" y="0.681091" width="78.2174" height="76.2194" filterUnits="userSpaceOnUse" color-interpolation-filters="sRGB">
<feFlood flood-opacity="0" result="BackgroundImageFix"/>
<feColorMatrix in="SourceAlpha" type="matrix" values="0 0 0 0 0 0 0 0 0 0 0 0 0 0 0 0 0 0 127 0" result="hardAlpha"/>
<feOffset/>
<feGaussianBlur stdDeviation="9.41586"/>
<feColorMatrix type="matrix" values="0 0 0 0 1 0 0 0 0 0.909804 0 0 0 0 0.941176 0 0 0 0.7 0"/>
<feBlend mode="normal" in2="BackgroundImageFix" result="effect1_dropShadow_381_20334"/>
<feBlend mode="normal" in="SourceGraphic" in2="effect1_dropShadow_381_20334" result="shape"/>
</filter>
<filter id="filter3_d_381_20334" x="551.853" y="0.681091" width="78.2174" height="76.2194" filterUnits="userSpaceOnUse" color-interpolation-filters="sRGB">
<feFlood flood-opacity="0" result="BackgroundImageFix"/>
<feColorMatrix in="SourceAlpha" type="matrix" values="0 0 0 0 0 0 0 0 0 0 0 0 0 0 0 0 0 0 127 0" result="hardAlpha"/>
<feOffset/>
<feGaussianBlur stdDeviation="9.41586"/>
<feColorMatrix type="matrix" values="0 0 0 0 1 0 0 0 0 0.909804 0 0 0 0 0.941176 0 0 0 0.7 0"/>
<feBlend mode="normal" in2="BackgroundImageFix" result="effect1_dropShadow_381_20334"/>
<feBlend mode="normal" in="SourceGraphic" in2="effect1_dropShadow_381_20334" result="shape"/>
</filter>
<filter id="filter4_d_381_20334" x="482.159" y="0.681091" width="78.2174" height="76.2194" filterUnits="userSpaceOnUse" color-interpolation-filters="sRGB">
<feFlood flood-opacity="0" result="BackgroundImageFix"/>
<feColorMatrix in="SourceAlpha" type="matrix" values="0 0 0 0 0 0 0 0 0 0 0 0 0 0 0 0 0 0 127 0" result="hardAlpha"/>
<feOffset/>
<feGaussianBlur stdDeviation="9.41586"/>
<feColorMatrix type="matrix" values="0 0 0 0 1 0 0 0 0 0.909804 0 0 0 0 0.941176 0 0 0 0.7 0"/>
<feBlend mode="normal" in2="BackgroundImageFix" result="effect1_dropShadow_381_20334"/>
<feBlend mode="normal" in="SourceGraphic" in2="effect1_dropShadow_381_20334" result="shape"/>
</filter>
<filter id="filter5_d_381_20334" x="412.465" y="0.681091" width="78.2175" height="76.2194" filterUnits="userSpaceOnUse" color-interpolation-filters="sRGB">
<feFlood flood-opacity="0" result="BackgroundImageFix"/>
<feColorMatrix in="SourceAlpha" type="matrix" values="0 0 0 0 0 0 0 0 0 0 0 0 0 0 0 0 0 0 127 0" result="hardAlpha"/>
<feOffset/>
<feGaussianBlur stdDeviation="9.41586"/>
<feColorMatrix type="matrix" values="0 0 0 0 1 0 0 0 0 0.909804 0 0 0 0 0.941176 0 0 0 0.7 0"/>
<feBlend mode="normal" in2="BackgroundImageFix" result="effect1_dropShadow_381_20334"/>
<feBlend mode="normal" in="SourceGraphic" in2="effect1_dropShadow_381_20334" result="shape"/>
</filter>
<filter id="filter6_d_381_20334" x="344.248" y="0.681091" width="77.7855" height="76.2194" filterUnits="userSpaceOnUse" color-interpolation-filters="sRGB">
<feFlood flood-opacity="0" result="BackgroundImageFix"/>
<feColorMatrix in="SourceAlpha" type="matrix" values="0 0 0 0 0 0 0 0 0 0 0 0 0 0 0 0 0 0 127 0" result="hardAlpha"/>
<feOffset/>
<feGaussianBlur stdDeviation="9.41586"/>
<feColorMatrix type="matrix" values="0 0 0 0 1 0 0 0 0 0.909804 0 0 0 0 0.941176 0 0 0 0.7 0"/>
<feBlend mode="normal" in2="BackgroundImageFix" result="effect1_dropShadow_381_20334"/>
<feBlend mode="normal" in="SourceGraphic" in2="effect1_dropShadow_381_20334" result="shape"/>
</filter>
<filter id="filter7_d_381_20334" x="272.55" y="0.681091" width="82.3755" height="76.2194" filterUnits="userSpaceOnUse" color-interpolation-filters="sRGB">
<feFlood flood-opacity="0" result="BackgroundImageFix"/>
<feColorMatrix in="SourceAlpha" type="matrix" values="0 0 0 0 0 0 0 0 0 0 0 0 0 0 0 0 0 0 127 0" result="hardAlpha"/>
<feOffset/>
<feGaussianBlur stdDeviation="9.41586"/>
<feColorMatrix type="matrix" values="0 0 0 0 1 0 0 0 0 0.909804 0 0 0 0 0.941176 0 0 0 0.7 0"/>
<feBlend mode="normal" in2="BackgroundImageFix" result="effect1_dropShadow_381_20334"/>
<feBlend mode="normal" in="SourceGraphic" in2="effect1_dropShadow_381_20334" result="shape"/>
</filter>
<filter id="filter8_d_381_20334" x="202.962" y="0.681091" width="81.2954" height="76.2194" filterUnits="userSpaceOnUse" color-interpolation-filters="sRGB">
<feFlood flood-opacity="0" result="BackgroundImageFix"/>
<feColorMatrix in="SourceAlpha" type="matrix" values="0 0 0 0 0 0 0 0 0 0 0 0 0 0 0 0 0 0 127 0" result="hardAlpha"/>
<feOffset/>
<feGaussianBlur stdDeviation="9.41586"/>
<feColorMatrix type="matrix" values="0 0 0 0 1 0 0 0 0 0.909804 0 0 0 0 0.941176 0 0 0 0.7 0"/>
<feBlend mode="normal" in2="BackgroundImageFix" result="effect1_dropShadow_381_20334"/>
<feBlend mode="normal" in="SourceGraphic" in2="effect1_dropShadow_381_20334" result="shape"/>
</filter>
<filter id="filter9_d_381_20334" x="135.96" y="0.681091" width="78.2174" height="76.2194" filterUnits="userSpaceOnUse" color-interpolation-filters="sRGB">
<feFlood flood-opacity="0" result="BackgroundImageFix"/>
<feColorMatrix in="SourceAlpha" type="matrix" values="0 0 0 0 0 0 0 0 0 0 0 0 0 0 0 0 0 0 127 0" result="hardAlpha"/>
<feOffset/>
<feGaussianBlur stdDeviation="9.41586"/>
<feColorMatrix type="matrix" values="0 0 0 0 1 0 0 0 0 0.909804 0 0 0 0 0.941176 0 0 0 0.7 0"/>
<feBlend mode="normal" in2="BackgroundImageFix" result="effect1_dropShadow_381_20334"/>
<feBlend mode="normal" in="SourceGraphic" in2="effect1_dropShadow_381_20334" result="shape"/>
</filter>
<filter id="filter10_d_381_20334" x="72.7504" y="0.681091" width="78.2174" height="76.2194" filterUnits="userSpaceOnUse" color-interpolation-filters="sRGB">
<feFlood flood-opacity="0" result="BackgroundImageFix"/>
<feColorMatrix in="SourceAlpha" type="matrix" values="0 0 0 0 0 0 0 0 0 0 0 0 0 0 0 0 0 0 127 0" result="hardAlpha"/>
<feOffset/>
<feGaussianBlur stdDeviation="9.41586"/>
<feColorMatrix type="matrix" values="0 0 0 0 1 0 0 0 0 0.909804 0 0 0 0 0.941176 0 0 0 0.7 0"/>
<feBlend mode="normal" in2="BackgroundImageFix" result="effect1_dropShadow_381_20334"/>
<feBlend mode="normal" in="SourceGraphic" in2="effect1_dropShadow_381_20334" result="shape"/>
</filter>
<filter id="filter11_d_381_20334" x="0.474747" y="0.681091" width="85.0453" height="76.2208" filterUnits="userSpaceOnUse" color-interpolation-filters="sRGB">
<feFlood flood-opacity="0" result="BackgroundImageFix"/>
<feColorMatrix in="SourceAlpha" type="matrix" values="0 0 0 0 0 0 0 0 0 0 0 0 0 0 0 0 0 0 127 0" result="hardAlpha"/>
<feOffset/>
<feGaussianBlur stdDeviation="9.41586"/>
<feColorMatrix type="matrix" values="0 0 0 0 1 0 0 0 0 0.909804 0 0 0 0 0.941176 0 0 0 0.7 0"/>
<feBlend mode="normal" in2="BackgroundImageFix" result="effect1_dropShadow_381_20334"/>
<feBlend mode="normal" in="SourceGraphic" in2="effect1_dropShadow_381_20334" result="shape"/>
</filter>
<radialGradient id="paint0_radial_381_20334" cx="0" cy="0" r="1" gradientUnits="userSpaceOnUse" gradientTransform="translate(400.018 41.6157) rotate(90) scale(23.5591 327.592)">
<stop stop-color="#4F93F1"/>
<stop offset="0.1143" stop-color="#1864DD" stop-opacity="0.84"/>
<stop offset="1" stop-color="#6043D2" stop-opacity="0"/>
</radialGradient>
<linearGradient id="paint1_linear_381_20334" x1="402.634" y1="17.1228" x2="402.634" y2="71.1228" gradientUnits="userSpaceOnUse">
<stop stop-color="#FFE8F0"/>
<stop offset="1" stop-color="#FFE8F0" stop-opacity="0"/>
</linearGradient>
<linearGradient id="paint2_linear_381_20334" x1="402.634" y1="17.1228" x2="402.634" y2="71.1228" gradientUnits="userSpaceOnUse">
<stop stop-color="#FFE8F0"/>
<stop offset="1" stop-color="#FFE8F0" stop-opacity="0"/>
</linearGradient>
<linearGradient id="paint3_linear_381_20334" x1="402.634" y1="17.1228" x2="402.634" y2="71.1228" gradientUnits="userSpaceOnUse">
<stop stop-color="#FFE8F0"/>
<stop offset="1" stop-color="#FFE8F0" stop-opacity="0"/>
</linearGradient>
<linearGradient id="paint4_linear_381_20334" x1="402.634" y1="17.1228" x2="402.634" y2="71.1228" gradientUnits="userSpaceOnUse">
<stop stop-color="#FFE8F0"/>
<stop offset="1" stop-color="#FFE8F0" stop-opacity="0"/>
</linearGradient>
<linearGradient id="paint5_linear_381_20334" x1="402.634" y1="17.1228" x2="402.634" y2="71.1228" gradientUnits="userSpaceOnUse">
<stop stop-color="#FFE8F0"/>
<stop offset="1" stop-color="#FFE8F0" stop-opacity="0"/>
</linearGradient>
<linearGradient id="paint6_linear_381_20334" x1="402.634" y1="17.1228" x2="402.634" y2="71.1228" gradientUnits="userSpaceOnUse">
<stop stop-color="#FFE8F0"/>
<stop offset="1" stop-color="#FFE8F0" stop-opacity="0"/>
</linearGradient>
<linearGradient id="paint7_linear_381_20334" x1="402.634" y1="17.1228" x2="402.634" y2="71.1228" gradientUnits="userSpaceOnUse">
<stop stop-color="#FFE8F0"/>
<stop offset="1" stop-color="#FFE8F0" stop-opacity="0"/>
</linearGradient>
<linearGradient id="paint8_linear_381_20334" x1="402.634" y1="17.1228" x2="402.634" y2="71.1228" gradientUnits="userSpaceOnUse">
<stop stop-color="#FFE8F0"/>
<stop offset="1" stop-color="#FFE8F0" stop-opacity="0"/>
</linearGradient>
<linearGradient id="paint9_linear_381_20334" x1="402.634" y1="17.1228" x2="402.634" y2="71.1228" gradientUnits="userSpaceOnUse">
<stop stop-color="#FFE8F0"/>
<stop offset="1" stop-color="#FFE8F0" stop-opacity="0"/>
</linearGradient>
<linearGradient id="paint10_linear_381_20334" x1="402.634" y1="17.1228" x2="402.634" y2="71.1228" gradientUnits="userSpaceOnUse">
<stop stop-color="#FFE8F0"/>
<stop offset="1" stop-color="#FFE8F0" stop-opacity="0"/>
</linearGradient>
<linearGradient id="paint11_linear_381_20334" x1="402.634" y1="17.1228" x2="402.634" y2="71.1228" gradientUnits="userSpaceOnUse">
<stop stop-color="#FFE8F0"/>
<stop offset="1" stop-color="#FFE8F0" stop-opacity="0"/>
</linearGradient>
<linearGradient id="paint12_linear_381_20334" x1="402.634" y1="17.1228" x2="402.634" y2="71.1228" gradientUnits="userSpaceOnUse">
<stop stop-color="#FFE8F0"/>
<stop offset="1" stop-color="#FFE8F0" stop-opacity="0"/>
</linearGradient>
</defs>
</svg>
