<svg width="392" height="56" viewBox="0 0 392 56" fill="none" xmlns="http://www.w3.org/2000/svg">
<path d="M21.578 26.9649C21.578 32.4169 85.9607 36.8367 165.381 36.8367C244.801 36.8367 309.184 32.4169 309.184 26.9649C309.184 21.5129 244.801 17.0932 165.381 17.0932C85.9607 17.0932 21.578 21.5129 21.578 26.9649Z" fill="url(#paint0_radial_418_105760)"/>
<g filter="url(#filter0_d_418_105760)">
<path d="M367.196 26.6114C370.091 26.6114 372.437 28.9572 372.437 31.852C372.437 34.7468 370.091 37.0926 367.196 37.0926H356.341C355.467 37.0926 354.743 36.3939 354.743 35.4955C354.743 34.622 355.467 33.9233 356.341 33.9233H367.196C368.344 33.9233 369.267 33 369.267 31.852C369.267 30.7041 368.344 29.7807 367.196 29.7807H358.936C356.041 29.7807 353.695 27.41 353.695 24.5402C353.695 21.6454 356.041 19.2746 358.936 19.2746H369.791C370.665 19.2746 371.389 19.9983 371.389 20.8717C371.389 21.7452 370.665 22.4439 369.791 22.4439H358.936C357.788 22.4439 356.865 23.3922 356.865 24.5402C356.865 25.6631 357.788 26.6114 358.936 26.6114H367.196Z" fill="url(#paint1_linear_418_105760)"/>
<path d="M367.196 26.6114C370.091 26.6114 372.437 28.9572 372.437 31.852C372.437 34.7468 370.091 37.0926 367.196 37.0926H356.341C355.467 37.0926 354.743 36.3939 354.743 35.4955C354.743 34.622 355.467 33.9233 356.341 33.9233H367.196C368.344 33.9233 369.267 33 369.267 31.852C369.267 30.7041 368.344 29.7807 367.196 29.7807H358.936C356.041 29.7807 353.695 27.41 353.695 24.5402C353.695 21.6454 356.041 19.2746 358.936 19.2746H369.791C370.665 19.2746 371.389 19.9983 371.389 20.8717C371.389 21.7452 370.665 22.4439 369.791 22.4439H358.936C357.788 22.4439 356.865 23.3922 356.865 24.5402C356.865 25.6631 357.788 26.6114 358.936 26.6114H367.196Z" fill="white" fill-opacity="0.8"/>
</g>
<g filter="url(#filter1_d_418_105760)">
<path d="M339.12 19.2746C339.993 19.2746 340.717 19.9983 340.717 20.8717V35.4955C340.717 36.3939 339.993 37.0926 339.12 37.0926C338.247 37.0926 337.548 36.3939 337.548 35.4955V20.8717C337.548 19.9983 338.247 19.2746 339.12 19.2746Z" fill="url(#paint2_linear_418_105760)"/>
<path d="M339.12 19.2746C339.993 19.2746 340.717 19.9983 340.717 20.8717V35.4955C340.717 36.3939 339.993 37.0926 339.12 37.0926C338.247 37.0926 337.548 36.3939 337.548 35.4955V20.8717C337.548 19.9983 338.247 19.2746 339.12 19.2746Z" fill="white" fill-opacity="0.8"/>
</g>
<g filter="url(#filter2_d_418_105760)">
<path d="M319.326 26.6114C322.221 26.6114 324.567 28.9572 324.567 31.852C324.567 34.7468 322.221 37.0926 319.326 37.0926H308.47C307.597 37.0926 306.873 36.3939 306.873 35.4955C306.873 34.622 307.597 33.9233 308.47 33.9233H319.326C320.474 33.9233 321.397 33 321.397 31.852C321.397 30.7041 320.474 29.7807 319.326 29.7807H311.066C308.171 29.7807 305.825 27.41 305.825 24.5402C305.825 21.6454 308.171 19.2746 311.066 19.2746H321.921C322.795 19.2746 323.518 19.9983 323.518 20.8717C323.518 21.7452 322.795 22.4439 321.921 22.4439H311.066C309.918 22.4439 308.994 23.3922 308.994 24.5402C308.994 25.6631 309.918 26.6114 311.066 26.6114H319.326Z" fill="url(#paint3_linear_418_105760)"/>
<path d="M319.326 26.6114C322.221 26.6114 324.567 28.9572 324.567 31.852C324.567 34.7468 322.221 37.0926 319.326 37.0926H308.47C307.597 37.0926 306.873 36.3939 306.873 35.4955C306.873 34.622 307.597 33.9233 308.47 33.9233H319.326C320.474 33.9233 321.397 33 321.397 31.852C321.397 30.7041 320.474 29.7807 319.326 29.7807H311.066C308.171 29.7807 305.825 27.41 305.825 24.5402C305.825 21.6454 308.171 19.2746 311.066 19.2746H321.921C322.795 19.2746 323.518 19.9983 323.518 20.8717C323.518 21.7452 322.795 22.4439 321.921 22.4439H311.066C309.918 22.4439 308.994 23.3922 308.994 24.5402C308.994 25.6631 309.918 26.6114 311.066 26.6114H319.326Z" fill="white" fill-opacity="0.8"/>
</g>
<g filter="url(#filter3_d_418_105760)">
<path d="M291.518 19.2746C292.392 19.2746 293.115 19.9983 293.115 20.8717C293.115 21.7452 292.392 22.4439 291.518 22.4439H275.946C275.073 22.4439 274.374 21.7452 274.374 20.8717C274.374 19.9983 275.073 19.2746 275.946 19.2746H291.518ZM291.518 33.9233C292.392 33.9233 293.115 34.622 293.115 35.4955C293.115 36.3939 292.392 37.0926 291.518 37.0926H275.946C275.073 37.0926 274.374 36.3939 274.374 35.4955C274.374 34.622 275.073 33.9233 275.946 33.9233H291.518ZM291.518 26.6114C292.392 26.6114 293.115 27.3102 293.115 28.1836C293.115 29.057 292.392 29.7807 291.518 29.7807H275.946C275.073 29.7807 274.374 29.057 274.374 28.1836C274.374 27.3102 275.073 26.6114 275.946 26.6114H291.518Z" fill="url(#paint4_linear_418_105760)"/>
<path d="M291.518 19.2746C292.392 19.2746 293.115 19.9983 293.115 20.8717C293.115 21.7452 292.392 22.4439 291.518 22.4439H275.946C275.073 22.4439 274.374 21.7452 274.374 20.8717C274.374 19.9983 275.073 19.2746 275.946 19.2746H291.518ZM291.518 33.9233C292.392 33.9233 293.115 34.622 293.115 35.4955C293.115 36.3939 292.392 37.0926 291.518 37.0926H275.946C275.073 37.0926 274.374 36.3939 274.374 35.4955C274.374 34.622 275.073 33.9233 275.946 33.9233H291.518ZM291.518 26.6114C292.392 26.6114 293.115 27.3102 293.115 28.1836C293.115 29.057 292.392 29.7807 291.518 29.7807H275.946C275.073 29.7807 274.374 29.057 274.374 28.1836C274.374 27.3102 275.073 26.6114 275.946 26.6114H291.518Z" fill="white" fill-opacity="0.8"/>
</g>
<g filter="url(#filter4_d_418_105760)">
<path d="M259.336 19.2746C260.21 19.2746 260.908 19.9983 260.908 20.8717V35.4955C260.908 36.1443 260.534 36.7183 259.96 36.9678C259.76 37.0427 259.536 37.0926 259.336 37.0926C258.937 37.0926 258.538 36.9429 258.238 36.6684L245.336 24.5402V35.4955C245.336 36.3939 244.638 37.0926 243.764 37.0926C242.891 37.0926 242.167 36.3939 242.167 35.4955V20.8717C242.167 20.2479 242.541 19.6739 243.14 19.4243C243.714 19.1748 244.388 19.2746 244.837 19.7238L257.739 31.8271V20.8717C257.739 19.9983 258.438 19.2746 259.336 19.2746Z" fill="url(#paint5_linear_418_105760)"/>
<path d="M259.336 19.2746C260.21 19.2746 260.908 19.9983 260.908 20.8717V35.4955C260.908 36.1443 260.534 36.7183 259.96 36.9678C259.76 37.0427 259.536 37.0926 259.336 37.0926C258.937 37.0926 258.538 36.9429 258.238 36.6684L245.336 24.5402V35.4955C245.336 36.3939 244.638 37.0926 243.764 37.0926C242.891 37.0926 242.167 36.3939 242.167 35.4955V20.8717C242.167 20.2479 242.541 19.6739 243.14 19.4243C243.714 19.1748 244.388 19.2746 244.837 19.7238L257.739 31.8271V20.8717C257.739 19.9983 258.438 19.2746 259.336 19.2746Z" fill="white" fill-opacity="0.8"/>
</g>
<g filter="url(#filter5_d_418_105760)">
<path d="M227.104 19.2746C227.978 19.2746 228.701 19.9983 228.701 20.8717C228.701 21.7452 227.978 22.4439 227.104 22.4439H211.532C210.659 22.4439 209.96 21.7452 209.96 20.8717C209.96 19.9983 210.659 19.2746 211.532 19.2746H227.104ZM227.104 33.9233C227.978 33.9233 228.701 34.622 228.701 35.4955C228.701 36.3939 227.978 37.0926 227.104 37.0926H211.532C210.659 37.0926 209.96 36.3939 209.96 35.4955C209.96 34.622 210.659 33.9233 211.532 33.9233H227.104ZM227.104 26.6114C227.978 26.6114 228.701 27.3102 228.701 28.1836C228.701 29.057 227.978 29.7807 227.104 29.7807H211.532C210.659 29.7807 209.96 29.057 209.96 28.1836C209.96 27.3102 210.659 26.6114 211.532 26.6114H227.104Z" fill="url(#paint6_linear_418_105760)"/>
<path d="M227.104 19.2746C227.978 19.2746 228.701 19.9983 228.701 20.8717C228.701 21.7452 227.978 22.4439 227.104 22.4439H211.532C210.659 22.4439 209.96 21.7452 209.96 20.8717C209.96 19.9983 210.659 19.2746 211.532 19.2746H227.104ZM227.104 33.9233C227.978 33.9233 228.701 34.622 228.701 35.4955C228.701 36.3939 227.978 37.0926 227.104 37.0926H211.532C210.659 37.0926 209.96 36.3939 209.96 35.4955C209.96 34.622 210.659 33.9233 211.532 33.9233H227.104ZM227.104 26.6114C227.978 26.6114 228.701 27.3102 228.701 28.1836C228.701 29.057 227.978 29.7807 227.104 29.7807H211.532C210.659 29.7807 209.96 29.057 209.96 28.1836C209.96 27.3102 210.659 26.6114 211.532 26.6114H227.104Z" fill="white" fill-opacity="0.8"/>
</g>
<g filter="url(#filter6_d_418_105760)">
<path d="M195.403 27.2852C196.277 27.2852 196.975 28.0089 196.975 28.8824V33.3992C196.975 33.8235 196.801 34.2477 196.501 34.5472C194.754 36.2192 192.284 37.0926 189.389 37.0926H188.116C185.196 37.0926 182.726 36.1942 180.979 34.4973C180.131 33.6987 179.482 32.7254 179.057 31.6274C178.633 30.5543 178.434 29.4064 178.434 28.1836C178.434 26.9858 178.633 25.8129 179.057 24.7647C179.482 23.6667 180.131 22.6935 180.979 21.87C182.726 20.173 185.196 19.2746 188.116 19.2746H189.389C190.637 19.2746 191.835 19.4493 192.908 19.7737C193.956 20.0981 194.929 20.5723 195.752 21.2211C196.451 21.7452 196.576 22.7434 196.052 23.4421C195.528 24.1409 194.53 24.2656 193.831 23.7416C192.733 22.8931 191.186 22.4439 189.389 22.4439H188.116C184.098 22.4439 181.603 24.6649 181.603 28.1836C181.603 31.7272 184.098 33.9233 188.116 33.9233H189.389C191.186 33.9233 192.683 33.4741 193.806 32.6506V30.4795H187.717C186.843 30.4795 186.12 29.7558 186.12 28.8824C186.12 28.0089 186.843 27.2852 187.717 27.2852H195.403Z" fill="url(#paint7_linear_418_105760)"/>
<path d="M195.403 27.2852C196.277 27.2852 196.975 28.0089 196.975 28.8824V33.3992C196.975 33.8235 196.801 34.2477 196.501 34.5472C194.754 36.2192 192.284 37.0926 189.389 37.0926H188.116C185.196 37.0926 182.726 36.1942 180.979 34.4973C180.131 33.6987 179.482 32.7254 179.057 31.6274C178.633 30.5543 178.434 29.4064 178.434 28.1836C178.434 26.9858 178.633 25.8129 179.057 24.7647C179.482 23.6667 180.131 22.6935 180.979 21.87C182.726 20.173 185.196 19.2746 188.116 19.2746H189.389C190.637 19.2746 191.835 19.4493 192.908 19.7737C193.956 20.0981 194.929 20.5723 195.752 21.2211C196.451 21.7452 196.576 22.7434 196.052 23.4421C195.528 24.1409 194.53 24.2656 193.831 23.7416C192.733 22.8931 191.186 22.4439 189.389 22.4439H188.116C184.098 22.4439 181.603 24.6649 181.603 28.1836C181.603 31.7272 184.098 33.9233 188.116 33.9233H189.389C191.186 33.9233 192.683 33.4741 193.806 32.6506V30.4795H187.717C186.843 30.4795 186.12 29.7558 186.12 28.8824C186.12 28.0089 186.843 27.2852 187.717 27.2852H195.403Z" fill="white" fill-opacity="0.8"/>
</g>
<g filter="url(#filter7_d_418_105760)">
<path d="M163.417 21.87C164.241 22.6935 164.89 23.6667 165.314 24.7647C165.738 25.8129 165.963 26.9858 165.963 28.1836C165.963 29.4064 165.738 30.5543 165.314 31.6274C164.89 32.7254 164.241 33.6987 163.417 34.4973C161.67 36.1942 159.2 37.0926 156.255 37.0926H155.007C152.063 37.0926 149.592 36.1942 147.845 34.4973C147.022 33.6987 146.373 32.7254 145.924 31.6274C145.524 30.5543 145.3 29.4064 145.3 28.1836C145.3 26.9858 145.524 25.8129 145.924 24.7647C146.373 23.6667 147.022 22.6935 147.845 21.87C149.592 20.173 152.063 19.2746 155.007 19.2746H156.255C159.2 19.2746 161.67 20.173 163.417 21.87ZM156.255 33.9233C160.273 33.9233 162.793 31.7272 162.793 28.1836C162.793 24.6649 160.273 22.4439 156.255 22.4439H155.007C150.965 22.4439 148.469 24.6649 148.469 28.1836C148.469 31.7272 150.965 33.9233 155.007 33.9233H156.255Z" fill="url(#paint8_linear_418_105760)"/>
<path d="M163.417 21.87C164.241 22.6935 164.89 23.6667 165.314 24.7647C165.738 25.8129 165.963 26.9858 165.963 28.1836C165.963 29.4064 165.738 30.5543 165.314 31.6274C164.89 32.7254 164.241 33.6987 163.417 34.4973C161.67 36.1942 159.2 37.0926 156.255 37.0926H155.007C152.063 37.0926 149.592 36.1942 147.845 34.4973C147.022 33.6987 146.373 32.7254 145.924 31.6274C145.524 30.5543 145.3 29.4064 145.3 28.1836C145.3 26.9858 145.524 25.8129 145.924 24.7647C146.373 23.6667 147.022 22.6935 147.845 21.87C149.592 20.173 152.063 19.2746 155.007 19.2746H156.255C159.2 19.2746 161.67 20.173 163.417 21.87ZM156.255 33.9233C160.273 33.9233 162.793 31.7272 162.793 28.1836C162.793 24.6649 160.273 22.4439 156.255 22.4439H155.007C150.965 22.4439 148.469 24.6649 148.469 28.1836C148.469 31.7272 150.965 33.9233 155.007 33.9233H156.255Z" fill="white" fill-opacity="0.8"/>
</g>
<g filter="url(#filter8_d_418_105760)">
<path d="M131.708 33.9233C132.582 33.9233 133.305 34.622 133.305 35.4955C133.305 36.3939 132.582 37.0926 131.708 37.0926H129.163C128.714 37.0926 128.289 36.9179 127.99 36.5935L123.149 31.3529H116.311V35.4955C116.311 36.3939 115.587 37.0926 114.714 37.0926C113.84 37.0926 113.142 36.3939 113.142 35.4955V29.7558C113.142 28.8824 113.84 28.1587 114.714 28.1587H125.844C127.416 28.1587 128.714 26.8859 128.714 25.3138C128.714 23.7416 127.416 22.4439 125.844 22.4439H114.714C113.84 22.4439 113.142 21.7452 113.142 20.8717C113.142 19.9983 113.84 19.2746 114.714 19.2746H125.844C127.466 19.2746 128.963 19.9234 130.111 21.0464C131.259 22.1944 131.883 23.6917 131.883 25.3138C131.883 26.9358 131.259 28.4332 130.111 29.5811C129.338 30.3547 128.364 30.9037 127.316 31.1533L129.862 33.9233H131.708Z" fill="url(#paint9_linear_418_105760)"/>
<path d="M131.708 33.9233C132.582 33.9233 133.305 34.622 133.305 35.4955C133.305 36.3939 132.582 37.0926 131.708 37.0926H129.163C128.714 37.0926 128.289 36.9179 127.99 36.5935L123.149 31.3529H116.311V35.4955C116.311 36.3939 115.587 37.0926 114.714 37.0926C113.84 37.0926 113.142 36.3939 113.142 35.4955V29.7558C113.142 28.8824 113.84 28.1587 114.714 28.1587H125.844C127.416 28.1587 128.714 26.8859 128.714 25.3138C128.714 23.7416 127.416 22.4439 125.844 22.4439H114.714C113.84 22.4439 113.142 21.7452 113.142 20.8717C113.142 19.9983 113.84 19.2746 114.714 19.2746H125.844C127.466 19.2746 128.963 19.9234 130.111 21.0464C131.259 22.1944 131.883 23.6917 131.883 25.3138C131.883 26.9358 131.259 28.4332 130.111 29.5811C129.338 30.3547 128.364 30.9037 127.316 31.1533L129.862 33.9233H131.708Z" fill="white" fill-opacity="0.8"/>
</g>
<g filter="url(#filter9_d_418_105760)">
<path d="M99.3449 19.2746C100.218 19.2746 100.917 19.9983 100.917 20.8717C100.917 21.7452 100.218 22.4439 99.3449 22.4439H93.1311V35.4955C93.1311 36.3939 92.4324 37.0926 91.5589 37.0926C90.6855 37.0926 89.9618 36.3939 89.9618 35.4955V22.4439H83.7729C82.8995 22.4439 82.1758 21.7452 82.1758 20.8717C82.1758 19.9983 82.8995 19.2746 83.7729 19.2746H99.3449Z" fill="url(#paint10_linear_418_105760)"/>
<path d="M99.3449 19.2746C100.218 19.2746 100.917 19.9983 100.917 20.8717C100.917 21.7452 100.218 22.4439 99.3449 22.4439H93.1311V35.4955C93.1311 36.3939 92.4324 37.0926 91.5589 37.0926C90.6855 37.0926 89.9618 36.3939 89.9618 35.4955V22.4439H83.7729C82.8995 22.4439 82.1758 21.7452 82.1758 20.8717C82.1758 19.9983 82.8995 19.2746 83.7729 19.2746H99.3449Z" fill="white" fill-opacity="0.8"/>
</g>
<g filter="url(#filter10_d_418_105760)">
<path d="M66.4666 26.6114C69.3614 26.6114 71.7071 28.9572 71.7071 31.852C71.7071 34.7468 69.3614 37.0926 66.4666 37.0926H55.6111C54.7376 37.0926 54.0139 36.3939 54.0139 35.4955C54.0139 34.622 54.7376 33.9233 55.6111 33.9233H66.4666C67.6145 33.9233 68.5378 33 68.5378 31.852C68.5378 30.7041 67.6145 29.7807 66.4666 29.7807H58.2064C55.3116 29.7807 52.9658 27.41 52.9658 24.5402C52.9658 21.6454 55.3116 19.2746 58.2064 19.2746H69.0619C69.9353 19.2746 70.659 19.9983 70.659 20.8717C70.659 21.7452 69.9353 22.4439 69.0619 22.4439H58.2064C57.0585 22.4439 56.1351 23.3922 56.1351 24.5402C56.1351 25.6631 57.0585 26.6114 58.2064 26.6114H66.4666Z" fill="url(#paint11_linear_418_105760)"/>
<path d="M66.4666 26.6114C69.3614 26.6114 71.7071 28.9572 71.7071 31.852C71.7071 34.7468 69.3614 37.0926 66.4666 37.0926H55.6111C54.7376 37.0926 54.0139 36.3939 54.0139 35.4955C54.0139 34.622 54.7376 33.9233 55.6111 33.9233H66.4666C67.6145 33.9233 68.5378 33 68.5378 31.852C68.5378 30.7041 67.6145 29.7807 66.4666 29.7807H58.2064C55.3116 29.7807 52.9658 27.41 52.9658 24.5402C52.9658 21.6454 55.3116 19.2746 58.2064 19.2746H69.0619C69.9353 19.2746 70.659 19.9983 70.659 20.8717C70.659 21.7452 69.9353 22.4439 69.0619 22.4439H58.2064C57.0585 22.4439 56.1351 23.3922 56.1351 24.5402C56.1351 25.6631 57.0585 26.6114 58.2064 26.6114H66.4666Z" fill="white" fill-opacity="0.8"/>
</g>
<g filter="url(#filter11_d_418_105760)">
<path d="M35.761 22.6685L41.326 34.8466C41.6753 35.6452 41.326 36.5935 40.5274 36.9429C40.3278 37.0427 40.1032 37.0926 39.8786 37.0926C39.2796 37.0926 38.7057 36.7432 38.4312 36.1693L32.8911 23.9662C32.4669 23.0428 31.5186 22.4689 30.5204 22.4689C29.4972 22.4689 28.5739 23.0428 28.1496 23.9662L22.5846 36.1693C22.2353 36.9678 21.287 37.3172 20.4884 36.9429C19.6898 36.5935 19.3405 35.6452 19.7148 34.8466L25.2548 22.6685C26.2031 20.6222 28.2495 19.2746 30.5204 19.2746C32.7663 19.2746 34.8376 20.6222 35.761 22.6685ZM30.5204 28.508C32.0926 28.508 33.3653 29.7807 33.3653 31.3529C33.3653 32.9251 32.0926 34.1978 30.5204 34.1978C28.9482 34.1978 27.6755 32.9251 27.6755 31.3529C27.6755 29.7807 28.9482 28.508 30.5204 28.508Z" fill="url(#paint12_linear_418_105760)"/>
<path d="M35.761 22.6685L41.326 34.8466C41.6753 35.6452 41.326 36.5935 40.5274 36.9429C40.3278 37.0427 40.1032 37.0926 39.8786 37.0926C39.2796 37.0926 38.7057 36.7432 38.4312 36.1693L32.8911 23.9662C32.4669 23.0428 31.5186 22.4689 30.5204 22.4689C29.4972 22.4689 28.5739 23.0428 28.1496 23.9662L22.5846 36.1693C22.2353 36.9678 21.287 37.3172 20.4884 36.9429C19.6898 36.5935 19.3405 35.6452 19.7148 34.8466L25.2548 22.6685C26.2031 20.6222 28.2495 19.2746 30.5204 19.2746C32.7663 19.2746 34.8376 20.6222 35.761 22.6685ZM30.5204 28.508C32.0926 28.508 33.3653 29.7807 33.3653 31.3529C33.3653 32.9251 32.0926 34.1978 30.5204 34.1978C28.9482 34.1978 27.6755 32.9251 27.6755 31.3529C27.6755 29.7807 28.9482 28.508 30.5204 28.508Z" fill="white" fill-opacity="0.8"/>
</g>
<defs>
<filter id="filter0_d_418_105760" x="334.864" y="0.442902" width="56.4046" height="55.4814" filterUnits="userSpaceOnUse" color-interpolation-filters="sRGB">
<feFlood flood-opacity="0" result="BackgroundImageFix"/>
<feColorMatrix in="SourceAlpha" type="matrix" values="0 0 0 0 0 0 0 0 0 0 0 0 0 0 0 0 0 0 127 0" result="hardAlpha"/>
<feOffset/>
<feGaussianBlur stdDeviation="9.41586"/>
<feColorMatrix type="matrix" values="0 0 0 0 1 0 0 0 0 0.909804 0 0 0 0 0.941176 0 0 0 0.7 0"/>
<feBlend mode="normal" in2="BackgroundImageFix" result="effect1_dropShadow_418_105760"/>
<feBlend mode="normal" in="SourceGraphic" in2="effect1_dropShadow_418_105760" result="shape"/>
</filter>
<filter id="filter1_d_418_105760" x="318.716" y="0.442902" width="40.8324" height="55.4814" filterUnits="userSpaceOnUse" color-interpolation-filters="sRGB">
<feFlood flood-opacity="0" result="BackgroundImageFix"/>
<feColorMatrix in="SourceAlpha" type="matrix" values="0 0 0 0 0 0 0 0 0 0 0 0 0 0 0 0 0 0 127 0" result="hardAlpha"/>
<feOffset/>
<feGaussianBlur stdDeviation="9.41586"/>
<feColorMatrix type="matrix" values="0 0 0 0 1 0 0 0 0 0.909804 0 0 0 0 0.941176 0 0 0 0.7 0"/>
<feBlend mode="normal" in2="BackgroundImageFix" result="effect1_dropShadow_418_105760"/>
<feBlend mode="normal" in="SourceGraphic" in2="effect1_dropShadow_418_105760" result="shape"/>
</filter>
<filter id="filter2_d_418_105760" x="286.993" y="0.442902" width="56.4046" height="55.4814" filterUnits="userSpaceOnUse" color-interpolation-filters="sRGB">
<feFlood flood-opacity="0" result="BackgroundImageFix"/>
<feColorMatrix in="SourceAlpha" type="matrix" values="0 0 0 0 0 0 0 0 0 0 0 0 0 0 0 0 0 0 127 0" result="hardAlpha"/>
<feOffset/>
<feGaussianBlur stdDeviation="9.41586"/>
<feColorMatrix type="matrix" values="0 0 0 0 1 0 0 0 0 0.909804 0 0 0 0 0.941176 0 0 0 0.7 0"/>
<feBlend mode="normal" in2="BackgroundImageFix" result="effect1_dropShadow_418_105760"/>
<feBlend mode="normal" in="SourceGraphic" in2="effect1_dropShadow_418_105760" result="shape"/>
</filter>
<filter id="filter3_d_418_105760" x="255.542" y="0.442902" width="56.4046" height="55.4814" filterUnits="userSpaceOnUse" color-interpolation-filters="sRGB">
<feFlood flood-opacity="0" result="BackgroundImageFix"/>
<feColorMatrix in="SourceAlpha" type="matrix" values="0 0 0 0 0 0 0 0 0 0 0 0 0 0 0 0 0 0 127 0" result="hardAlpha"/>
<feOffset/>
<feGaussianBlur stdDeviation="9.41586"/>
<feColorMatrix type="matrix" values="0 0 0 0 1 0 0 0 0 0.909804 0 0 0 0 0.941176 0 0 0 0.7 0"/>
<feBlend mode="normal" in2="BackgroundImageFix" result="effect1_dropShadow_418_105760"/>
<feBlend mode="normal" in="SourceGraphic" in2="effect1_dropShadow_418_105760" result="shape"/>
</filter>
<filter id="filter4_d_418_105760" x="223.335" y="0.442902" width="56.4046" height="55.4814" filterUnits="userSpaceOnUse" color-interpolation-filters="sRGB">
<feFlood flood-opacity="0" result="BackgroundImageFix"/>
<feColorMatrix in="SourceAlpha" type="matrix" values="0 0 0 0 0 0 0 0 0 0 0 0 0 0 0 0 0 0 127 0" result="hardAlpha"/>
<feOffset/>
<feGaussianBlur stdDeviation="9.41586"/>
<feColorMatrix type="matrix" values="0 0 0 0 1 0 0 0 0 0.909804 0 0 0 0 0.941176 0 0 0 0.7 0"/>
<feBlend mode="normal" in2="BackgroundImageFix" result="effect1_dropShadow_418_105760"/>
<feBlend mode="normal" in="SourceGraphic" in2="effect1_dropShadow_418_105760" result="shape"/>
</filter>
<filter id="filter5_d_418_105760" x="191.128" y="0.442902" width="56.4046" height="55.4814" filterUnits="userSpaceOnUse" color-interpolation-filters="sRGB">
<feFlood flood-opacity="0" result="BackgroundImageFix"/>
<feColorMatrix in="SourceAlpha" type="matrix" values="0 0 0 0 0 0 0 0 0 0 0 0 0 0 0 0 0 0 127 0" result="hardAlpha"/>
<feOffset/>
<feGaussianBlur stdDeviation="9.41586"/>
<feColorMatrix type="matrix" values="0 0 0 0 1 0 0 0 0 0.909804 0 0 0 0 0.941176 0 0 0 0.7 0"/>
<feBlend mode="normal" in2="BackgroundImageFix" result="effect1_dropShadow_418_105760"/>
<feBlend mode="normal" in="SourceGraphic" in2="effect1_dropShadow_418_105760" result="shape"/>
</filter>
<filter id="filter6_d_418_105760" x="159.602" y="0.442902" width="56.2054" height="55.4814" filterUnits="userSpaceOnUse" color-interpolation-filters="sRGB">
<feFlood flood-opacity="0" result="BackgroundImageFix"/>
<feColorMatrix in="SourceAlpha" type="matrix" values="0 0 0 0 0 0 0 0 0 0 0 0 0 0 0 0 0 0 127 0" result="hardAlpha"/>
<feOffset/>
<feGaussianBlur stdDeviation="9.41586"/>
<feColorMatrix type="matrix" values="0 0 0 0 1 0 0 0 0 0.909804 0 0 0 0 0.941176 0 0 0 0.7 0"/>
<feBlend mode="normal" in2="BackgroundImageFix" result="effect1_dropShadow_418_105760"/>
<feBlend mode="normal" in="SourceGraphic" in2="effect1_dropShadow_418_105760" result="shape"/>
</filter>
<filter id="filter7_d_418_105760" x="126.468" y="0.442902" width="58.3265" height="55.4814" filterUnits="userSpaceOnUse" color-interpolation-filters="sRGB">
<feFlood flood-opacity="0" result="BackgroundImageFix"/>
<feColorMatrix in="SourceAlpha" type="matrix" values="0 0 0 0 0 0 0 0 0 0 0 0 0 0 0 0 0 0 127 0" result="hardAlpha"/>
<feOffset/>
<feGaussianBlur stdDeviation="9.41586"/>
<feColorMatrix type="matrix" values="0 0 0 0 1 0 0 0 0 0.909804 0 0 0 0 0.941176 0 0 0 0.7 0"/>
<feBlend mode="normal" in2="BackgroundImageFix" result="effect1_dropShadow_418_105760"/>
<feBlend mode="normal" in="SourceGraphic" in2="effect1_dropShadow_418_105760" result="shape"/>
</filter>
<filter id="filter8_d_418_105760" x="94.3099" y="0.442902" width="57.8275" height="55.4814" filterUnits="userSpaceOnUse" color-interpolation-filters="sRGB">
<feFlood flood-opacity="0" result="BackgroundImageFix"/>
<feColorMatrix in="SourceAlpha" type="matrix" values="0 0 0 0 0 0 0 0 0 0 0 0 0 0 0 0 0 0 127 0" result="hardAlpha"/>
<feOffset/>
<feGaussianBlur stdDeviation="9.41586"/>
<feColorMatrix type="matrix" values="0 0 0 0 1 0 0 0 0 0.909804 0 0 0 0 0.941176 0 0 0 0.7 0"/>
<feBlend mode="normal" in2="BackgroundImageFix" result="effect1_dropShadow_418_105760"/>
<feBlend mode="normal" in="SourceGraphic" in2="effect1_dropShadow_418_105760" result="shape"/>
</filter>
<filter id="filter9_d_418_105760" x="63.3441" y="0.442902" width="56.4046" height="55.4814" filterUnits="userSpaceOnUse" color-interpolation-filters="sRGB">
<feFlood flood-opacity="0" result="BackgroundImageFix"/>
<feColorMatrix in="SourceAlpha" type="matrix" values="0 0 0 0 0 0 0 0 0 0 0 0 0 0 0 0 0 0 127 0" result="hardAlpha"/>
<feOffset/>
<feGaussianBlur stdDeviation="9.41586"/>
<feColorMatrix type="matrix" values="0 0 0 0 1 0 0 0 0 0.909804 0 0 0 0 0.941176 0 0 0 0.7 0"/>
<feBlend mode="normal" in2="BackgroundImageFix" result="effect1_dropShadow_418_105760"/>
<feBlend mode="normal" in="SourceGraphic" in2="effect1_dropShadow_418_105760" result="shape"/>
</filter>
<filter id="filter10_d_418_105760" x="34.1341" y="0.442902" width="56.4046" height="55.4814" filterUnits="userSpaceOnUse" color-interpolation-filters="sRGB">
<feFlood flood-opacity="0" result="BackgroundImageFix"/>
<feColorMatrix in="SourceAlpha" type="matrix" values="0 0 0 0 0 0 0 0 0 0 0 0 0 0 0 0 0 0 127 0" result="hardAlpha"/>
<feOffset/>
<feGaussianBlur stdDeviation="9.41586"/>
<feColorMatrix type="matrix" values="0 0 0 0 1 0 0 0 0 0.909804 0 0 0 0 0.941176 0 0 0 0.7 0"/>
<feBlend mode="normal" in2="BackgroundImageFix" result="effect1_dropShadow_418_105760"/>
<feBlend mode="normal" in="SourceGraphic" in2="effect1_dropShadow_418_105760" result="shape"/>
</filter>
<filter id="filter11_d_418_105760" x="0.732742" y="0.442902" width="59.5599" height="55.482" filterUnits="userSpaceOnUse" color-interpolation-filters="sRGB">
<feFlood flood-opacity="0" result="BackgroundImageFix"/>
<feColorMatrix in="SourceAlpha" type="matrix" values="0 0 0 0 0 0 0 0 0 0 0 0 0 0 0 0 0 0 127 0" result="hardAlpha"/>
<feOffset/>
<feGaussianBlur stdDeviation="9.41586"/>
<feColorMatrix type="matrix" values="0 0 0 0 1 0 0 0 0 0.909804 0 0 0 0 0.941176 0 0 0 0.7 0"/>
<feBlend mode="normal" in2="BackgroundImageFix" result="effect1_dropShadow_418_105760"/>
<feBlend mode="normal" in="SourceGraphic" in2="effect1_dropShadow_418_105760" result="shape"/>
</filter>
<radialGradient id="paint0_radial_418_105760" cx="0" cy="0" r="1" gradientUnits="userSpaceOnUse" gradientTransform="translate(165.394 26.9634) rotate(90) scale(8.45796 123.208)">
<stop stop-color="#4F93F1"/>
<stop offset="0.1143" stop-color="#1864DD" stop-opacity="0.84"/>
<stop offset="1" stop-color="#6043D2" stop-opacity="0"/>
</radialGradient>
<linearGradient id="paint1_linear_418_105760" x1="196.713" y1="18.1701" x2="196.713" y2="43.1253" gradientUnits="userSpaceOnUse">
<stop stop-color="#FFE8F0"/>
<stop offset="1" stop-color="#FFE8F0" stop-opacity="0"/>
</linearGradient>
<linearGradient id="paint2_linear_418_105760" x1="196.713" y1="18.1701" x2="196.713" y2="43.1253" gradientUnits="userSpaceOnUse">
<stop stop-color="#FFE8F0"/>
<stop offset="1" stop-color="#FFE8F0" stop-opacity="0"/>
</linearGradient>
<linearGradient id="paint3_linear_418_105760" x1="196.711" y1="18.1701" x2="196.711" y2="43.1253" gradientUnits="userSpaceOnUse">
<stop stop-color="#FFE8F0"/>
<stop offset="1" stop-color="#FFE8F0" stop-opacity="0"/>
</linearGradient>
<linearGradient id="paint4_linear_418_105760" x1="196.712" y1="18.1701" x2="196.712" y2="43.1253" gradientUnits="userSpaceOnUse">
<stop stop-color="#FFE8F0"/>
<stop offset="1" stop-color="#FFE8F0" stop-opacity="0"/>
</linearGradient>
<linearGradient id="paint5_linear_418_105760" x1="196.713" y1="18.1701" x2="196.713" y2="43.1253" gradientUnits="userSpaceOnUse">
<stop stop-color="#FFE8F0"/>
<stop offset="1" stop-color="#FFE8F0" stop-opacity="0"/>
</linearGradient>
<linearGradient id="paint6_linear_418_105760" x1="196.714" y1="18.1701" x2="196.714" y2="43.1253" gradientUnits="userSpaceOnUse">
<stop stop-color="#FFE8F0"/>
<stop offset="1" stop-color="#FFE8F0" stop-opacity="0"/>
</linearGradient>
<linearGradient id="paint7_linear_418_105760" x1="196.713" y1="18.1701" x2="196.713" y2="43.1253" gradientUnits="userSpaceOnUse">
<stop stop-color="#FFE8F0"/>
<stop offset="1" stop-color="#FFE8F0" stop-opacity="0"/>
</linearGradient>
<linearGradient id="paint8_linear_418_105760" x1="196.713" y1="18.1701" x2="196.713" y2="43.1253" gradientUnits="userSpaceOnUse">
<stop stop-color="#FFE8F0"/>
<stop offset="1" stop-color="#FFE8F0" stop-opacity="0"/>
</linearGradient>
<linearGradient id="paint9_linear_418_105760" x1="196.714" y1="18.1701" x2="196.714" y2="43.1253" gradientUnits="userSpaceOnUse">
<stop stop-color="#FFE8F0"/>
<stop offset="1" stop-color="#FFE8F0" stop-opacity="0"/>
</linearGradient>
<linearGradient id="paint10_linear_418_105760" x1="196.712" y1="18.1701" x2="196.712" y2="43.1253" gradientUnits="userSpaceOnUse">
<stop stop-color="#FFE8F0"/>
<stop offset="1" stop-color="#FFE8F0" stop-opacity="0"/>
</linearGradient>
<linearGradient id="paint11_linear_418_105760" x1="196.713" y1="18.1701" x2="196.713" y2="43.1253" gradientUnits="userSpaceOnUse">
<stop stop-color="#FFE8F0"/>
<stop offset="1" stop-color="#FFE8F0" stop-opacity="0"/>
</linearGradient>
<linearGradient id="paint12_linear_418_105760" x1="196.712" y1="18.1701" x2="196.712" y2="43.1253" gradientUnits="userSpaceOnUse">
<stop stop-color="#FFE8F0"/>
<stop offset="1" stop-color="#FFE8F0" stop-opacity="0"/>
</linearGradient>
</defs>
</svg>
