<svg width="80" height="97" viewBox="0 0 80 97" fill="none" xmlns="http://www.w3.org/2000/svg">
<mask id="mask0_376_829" style="mask-type:alpha" maskUnits="userSpaceOnUse" x="0" y="0" width="80" height="76">
<path d="M51.8748 7.3012L77.5177 56.0226C83.6131 67.5829 71.2961 80.1521 59.6097 74.3089L45.9896 67.4989C42.2062 65.6072 37.7502 65.6072 33.9668 67.4989L20.3467 74.3089C8.66027 80.1521 -3.61466 67.5829 2.43873 56.0226L28.0816 7.3012C33.1261 -2.28335 46.8303 -2.28335 51.8748 7.3012Z" fill="#FEB232"/>
</mask>
<g mask="url(#mask0_376_829)">
<path d="M51.8748 7.3012L77.5177 56.0226C83.6131 67.5829 71.2961 80.1521 59.6097 74.3089L45.9896 67.4989C42.2062 65.6072 37.7502 65.6072 33.9668 67.4989L20.3467 74.3089C8.66027 80.1521 -3.61466 67.5829 2.43873 56.0226L28.0816 7.3012C33.1261 -2.28335 46.8303 -2.28335 51.8748 7.3012Z" fill="url(#paint0_linear_376_829)"/>
<g opacity="0.5">
<path d="M50.3834 17.5563L73.5692 58.9823C79.0805 68.8116 67.9437 79.4988 57.3771 74.5305L45.0621 68.7402C41.6412 67.1317 37.6122 67.1317 34.1913 68.7402L21.8763 74.5305C11.3096 79.4988 0.210879 68.8116 5.68425 58.9823L28.87 17.5563C33.4312 9.40686 45.8222 9.40686 50.3834 17.5563Z" fill="url(#paint1_linear_376_829)"/>
<path d="M73.133 59.2269L73.1328 59.2265L49.9471 17.8005C45.5768 9.99213 33.6766 9.99213 29.3063 17.8005L6.12108 59.2256L73.133 59.2269ZM73.133 59.2269C75.7618 63.9152 74.432 68.8 71.1561 71.9448M73.133 59.2269L71.1561 71.9448M71.1561 71.9448C67.8763 75.0934 62.6699 76.4666 57.5899 74.078M71.1561 71.9448L57.5899 74.078M57.5899 74.078L45.2748 68.2877M57.5899 74.078L45.2748 68.2877M45.2748 68.2877C41.7192 66.6159 37.5342 66.6159 33.9786 68.2877M45.2748 68.2877L33.9786 68.2877M33.9786 68.2877L21.6635 74.078M33.9786 68.2877L21.6635 74.078M21.6635 74.078C16.5835 76.4666 11.3868 75.0934 8.11177 71.9451M21.6635 74.078L8.11177 71.9451M8.11177 71.9451C4.84056 68.8004 3.51033 63.915 6.12056 59.2265L8.11177 71.9451Z" stroke="black" stroke-opacity="0.14" stroke-linecap="round" stroke-linejoin="round"/>
</g>
<g opacity="0.5">
<path d="M47.9184 21.2219L64.9978 58.429C69.0577 67.2573 60.854 76.856 53.0702 72.3937L43.9985 67.1931C41.4786 65.7485 38.5107 65.7485 35.9908 67.1931L26.9191 72.3937C19.1354 76.856 10.9596 67.2573 14.9915 58.429L32.0709 21.2219C35.4308 13.9025 44.5585 13.9025 47.9184 21.2219Z" fill="url(#paint2_linear_376_829)"/>
<path d="M64.5434 58.6376L64.5435 58.6379C66.4871 62.8641 65.4929 67.2641 63.0952 70.0705C60.7045 72.8688 56.964 74.0497 53.3189 71.96L44.2472 66.7593C41.5733 65.2264 38.4161 65.2264 35.7421 66.7593L26.6704 71.9599C23.0253 74.0496 19.292 72.8688 16.9048 70.0708C14.5104 67.2642 13.5159 62.8635 15.4463 58.6367L32.5253 21.4305C34.1288 17.9375 37.0799 16.2324 39.9947 16.2324C42.9094 16.2324 45.8605 17.9375 47.464 21.4305L64.5434 58.6376Z" stroke="black" stroke-opacity="0.14" stroke-linecap="round" stroke-linejoin="round"/>
</g>
</g>
<path d="M41.485 96.1129C41.552 95.9607 41.552 95.7894 41.552 95.6372C41.6189 95.3327 41.8197 95.0283 41.9535 94.7428C42.1543 94.2481 42.8905 91.7172 43.0244 90.9561C43.2251 89.9666 43.6267 88.9961 43.9613 88.0066C44.0952 87.5879 44.8314 85.666 44.8314 85.685C45.2329 86.3891 44.8314 87.1122 44.9652 87.8353C45.0322 87.7402 45.0991 87.645 45.0991 87.5689C45.9691 85.5709 45.8353 83.5157 46.5046 81.5177C46.5046 81.4796 46.7723 82.4691 46.8392 82.9639C46.973 82.5833 47.1738 82.1837 47.1738 81.7841C47.2408 81.4035 47.5754 80.6233 47.5754 80.6614C47.5085 81.3845 47.4415 82.1266 47.4415 82.8497C47.7092 82.2218 47.977 81.6128 48.1777 80.9849C48.5793 79.8241 49.1816 78.6633 49.6501 77.5026C49.9848 76.5511 50.3194 75.5426 49.784 74.6102C49.3155 73.6587 47.91 72.8976 45.7684 72.4789C40.2134 71.3562 32.1153 72.4028 30.4421 74.8385C29.9067 75.6377 29.7728 77.3694 30.0405 78.1876C30.3082 78.8917 31.3121 80.5662 31.7137 81.2513C31.8476 81.5367 31.9814 81.8031 32.1822 82.0695C32.8515 82.9449 33.3869 83.8392 34.3239 84.6765C34.0561 83.7631 33.3199 81.8983 33.3869 81.9363C33.7884 82.3169 33.9892 82.7165 34.19 83.1161C34.3908 83.5728 34.7254 84.0105 35.06 84.4482C35.3278 84.8668 35.5955 85.2664 35.8632 85.685C36.064 86.0656 36.2647 86.4462 36.5324 86.8077C36.5324 85.8182 36.1978 83.1732 36.1978 83.2113C36.2647 83.4206 36.3317 83.6299 36.3986 83.8392C36.6663 84.5623 36.8671 85.2854 37.1348 86.0085C37.4694 86.9219 38.0048 87.8163 38.4064 88.7297C39.0087 90.0807 39.5442 91.4508 40.2134 92.8019C40.0126 91.4508 39.8119 88.6916 39.8119 88.7297C40.3473 90.3662 41.0835 92.0027 41.2843 93.6582C41.2173 94.4764 41.2842 95.2947 41.485 96.1129Z" fill="#ED1C24"/>
<path opacity="0.6" d="M47.1071 78.9388C47.174 79.1245 47.174 79.3309 47.241 79.5167C47.3079 79.9707 47.1071 80.4454 47.241 80.8994C47.4417 80.6105 47.7094 80.3216 47.9102 80.0326C48.4456 78.4022 49.1818 76.7924 48.7134 75.1413C48.4456 74.2951 47.8433 73.449 46.4378 72.8711C45.0324 72.3138 43.4261 72.1075 41.6191 72.0455C38.1389 71.9011 34.7925 72.6647 32.7178 73.903C31.7139 74.5222 30.9777 75.4302 30.7769 76.1939C30.6431 76.6066 30.5761 77.0607 30.6431 77.5354C30.6431 78.01 30.7769 78.4847 31.0446 78.8975C31.1116 78.9801 31.3793 78.8769 31.3793 78.8356C31.5801 78.4435 31.647 78.0307 31.8478 77.6179C32.0485 77.2877 32.3162 76.9368 32.584 76.6066C32.4501 76.8337 32.2493 77.0607 32.1824 77.3083C32.0485 77.7005 31.9816 78.1132 31.9816 78.5054C31.9147 79.269 31.9816 80.1358 32.517 80.8788C32.584 80.9407 32.8517 80.8375 32.8517 80.7962C33.1194 80.4867 32.9855 80.0533 33.1194 79.723C33.2532 79.3722 33.3871 78.9594 33.6548 78.5879C33.5209 79.0213 33.454 79.4341 33.454 79.8675C33.454 80.466 33.6548 81.0645 33.8556 81.6631C34.0563 82.2822 34.3241 82.8807 34.5918 83.4792C34.7256 83.8301 34.7925 84.3254 35.328 84.5937C35.3949 84.6556 35.5957 84.5731 35.6626 84.5318C35.9303 84.2222 35.7964 83.7475 35.8634 83.4173C35.9303 82.7775 36.198 82.1584 36.5326 81.5392C36.5326 81.4773 36.5996 81.436 36.5996 81.3741C36.5996 81.4567 36.5996 81.5392 36.6665 81.6218C36.8673 82.468 37.2688 83.2935 37.6035 84.119C38.005 85.0684 38.4735 86.0384 38.942 86.9671C39.2097 87.4212 39.4105 87.8959 39.7451 88.3499C39.879 88.5976 40.0128 88.9484 40.3475 89.1548C40.4813 89.2167 40.6821 89.1135 40.6821 89.0723C40.8829 88.8452 40.8829 88.6388 40.8829 88.4118C40.8829 88.061 41.0167 87.7101 41.1506 87.3799C41.3514 86.5956 41.686 85.832 41.8199 85.0478C41.8868 84.7382 41.8868 84.4286 41.8868 84.1397C41.9537 84.3873 42.0207 84.635 42.0207 84.8826C42.0876 85.2335 41.9537 85.7082 42.2884 86.0178C42.3553 86.059 42.4222 86.0384 42.4891 86.0178C42.9576 85.8733 42.8907 85.4812 42.8907 85.2748C42.9576 84.8826 43.0915 84.4699 43.2923 84.0777C43.2923 84.7795 43.3592 85.5018 43.493 86.2035C43.6269 85.9146 43.8277 85.6256 44.0285 85.3367C44.0954 84.9239 44.1623 84.5112 44.2962 84.119C44.43 83.7475 44.5639 83.3967 44.6977 83.0458C44.6977 83.3554 44.6977 83.6443 44.6977 83.9539C44.6977 84.3048 44.6308 84.6969 44.7647 85.0684C45.1662 84.346 45.4339 83.6031 45.8355 82.8807C46.0363 82.3028 46.3709 81.7456 46.6386 81.1677C46.9732 80.4454 47.1071 79.785 47.174 79.0626C47.1071 79.0213 47.1071 78.9801 47.1071 78.9388Z" fill="#F3E235"/>
<path d="M47.4415 76.2962C47.2407 75.4018 46.103 74.7213 44.3629 74.2352C43.8944 74.1185 43.4259 74.0213 42.8905 73.9629C43.0244 73.9629 43.0913 73.9629 43.2251 73.9629L43.2921 73.9241C42.6897 73.9046 42.2212 73.8074 41.6189 73.8268C40.8158 73.8463 39.9457 73.8852 39.1426 73.9435C38.6072 73.9824 38.0718 74.0407 37.6033 74.0991C37.1348 74.1574 36.6663 74.2352 36.1978 74.3518C34.6585 74.8962 33.3199 75.5379 32.5837 76.2962C32.4499 76.5879 32.316 76.8795 32.316 77.1906C32.7845 76.6851 33.8554 76.1601 34.9262 75.8101C34.2569 76.1601 33.7215 76.5879 33.3199 76.9962C33.253 77.0351 33.253 77.074 33.253 77.1129C32.8515 77.7351 32.9184 78.4156 33.3199 79.0572C33.5876 78.6295 33.8554 78.2212 34.3238 77.7934C34.8593 77.3073 35.5955 76.6656 36.5324 76.2768C36.3986 76.4129 36.1978 76.5295 36.0639 76.6462C35.7962 76.8795 35.5955 77.1323 35.3947 77.3656C34.9262 77.9684 34.9262 78.5711 34.9262 79.1933C34.9262 79.2322 34.9262 79.2517 34.9262 79.2906C35.3278 80.2628 35.8632 81.2155 36.8001 82.1294C36.8001 82.1099 36.8671 82.0905 36.8671 82.0905C36.934 81.6822 36.8671 81.3127 37.0679 80.9238C37.2017 80.5933 37.5363 80.2044 37.6033 79.8544C37.6033 79.7767 37.7371 79.6406 37.7371 79.6017C37.7371 79.7961 37.6702 80.0294 37.6033 80.2239C37.5363 80.6322 37.6033 81.06 37.6702 81.4877C37.804 82.246 38.2056 83.0238 38.741 83.7627C38.8749 83.9571 39.2095 84.8904 39.8119 84.9682C39.8788 84.9682 39.9457 84.9682 40.0126 84.9487C40.4811 84.7543 40.5481 84.3071 40.6819 84.0543C41.0835 83.3932 41.552 82.7321 41.9535 82.071C42.2212 81.6627 42.422 81.2544 42.6228 80.8266C42.6228 80.8461 42.6228 80.885 42.6228 80.9044C42.6228 81.1766 42.7566 81.4683 42.8236 81.7405C42.8905 82.0321 42.8905 82.3433 43.0913 82.6349C43.0913 82.6738 43.1582 82.6738 43.2251 82.6738C43.4928 82.4988 43.6936 82.3238 43.8275 82.1294C43.9613 81.8572 44.0283 81.5849 44.1621 81.3322C44.4967 80.71 44.8314 80.0878 45.0322 79.4461C45.2329 78.9406 45.2329 78.4545 45.2329 77.9489C45.5676 78.3767 45.8353 78.785 46.2368 79.1933C46.4376 79.0378 46.6384 78.8628 46.8392 78.7072C46.973 78.4934 47.1069 78.26 47.2407 78.0462C47.5085 77.4823 47.5754 76.8795 47.4415 76.2962Z" fill="#EAC076"/>
<path d="M44.8411 76.6697C44.7097 76.0592 43.9649 75.5948 42.8258 75.263C42.5191 75.1834 42.2124 75.117 41.8619 75.0772C41.9496 75.0772 41.9934 75.0772 42.081 75.0772L42.1248 75.0506C41.7305 75.0374 41.4238 74.971 41.0295 74.9843C40.5038 74.9976 39.9342 75.0241 39.4085 75.0639C39.058 75.0905 38.7075 75.1303 38.4008 75.1701C38.0941 75.2099 37.7875 75.263 37.4808 75.3426C36.4731 75.7142 35.5969 76.1521 35.1149 76.6697C35.0273 76.8688 34.9397 77.0678 34.9397 77.2802C35.2464 76.9351 35.9474 76.5768 36.6484 76.3379C36.2102 76.5768 35.8597 76.8688 35.5969 77.1474C35.5531 77.174 35.5531 77.2005 35.5531 77.2271C35.2902 77.6517 35.334 78.1162 35.5969 78.5542C35.7721 78.2622 35.9474 77.9835 36.254 77.6915C36.6045 77.3598 37.0865 76.9218 37.6998 76.6564C37.6122 76.7493 37.4808 76.8289 37.3931 76.9086C37.2179 77.0678 37.0865 77.2403 36.955 77.3996C36.6484 77.811 36.6484 78.2224 36.6484 78.6471C36.6484 78.6736 36.6484 78.6869 36.6484 78.7134C36.9112 79.377 37.2617 80.0272 37.8751 80.651C37.8751 80.6377 37.9189 80.6244 37.9189 80.6244C37.9627 80.3457 37.9189 80.0936 38.0503 79.8282C38.1379 79.6026 38.357 79.3371 38.4008 79.0983C38.4008 79.0452 38.4884 78.9523 38.4884 78.9257C38.4884 79.0584 38.4446 79.2177 38.4008 79.3504C38.357 79.6291 38.4008 79.9211 38.4446 80.213C38.5323 80.7306 38.7951 81.2614 39.1456 81.7657C39.2332 81.8984 39.4523 82.5354 39.8466 82.5885C39.8904 82.5885 39.9342 82.5885 39.978 82.5752C40.2847 82.4425 40.3285 82.1373 40.4162 81.9648C40.679 81.5136 40.9857 81.0624 41.2486 80.6111C41.4238 80.3325 41.5553 80.0538 41.6867 79.7618C41.6867 79.7751 41.6867 79.8016 41.6867 79.8149C41.6867 80.0007 41.7743 80.1997 41.8181 80.3855C41.8619 80.5846 41.8619 80.7969 41.9934 80.996C41.9934 81.0225 42.0372 81.0225 42.081 81.0225C42.2562 80.9031 42.3877 80.7837 42.4753 80.651C42.5629 80.4652 42.6067 80.2794 42.6944 80.1068C42.9134 79.6822 43.1325 79.2575 43.2639 78.8196C43.3953 78.4745 43.3953 78.1428 43.3953 77.7977C43.6144 78.0897 43.7897 78.3684 44.0525 78.6471C44.184 78.5409 44.3154 78.4214 44.4468 78.3153C44.5344 78.1693 44.6221 78.0101 44.7097 77.8641C44.8849 77.4792 44.9288 77.0678 44.8411 76.6697Z" fill="black"/>
<g clip-path="url(#clip0_376_829)">
<path d="M59.6824 66.3348V75.291L50.6567 68.513C51.9779 64.9951 52.8007 61.3098 53.1014 57.564L59.6824 66.3348Z" fill="#D65769"/>
<path d="M29.3149 68.513L20.2892 75.291V66.3348L26.8702 57.564C27.1739 61.3093 27.9966 64.9943 29.3149 68.513Z" fill="#D65769"/>
<path d="M28.9093 67.366L27.9824 68.0612C27.3762 68.5185 26.6544 68.7975 25.8982 68.8668C25.142 68.9361 24.3814 68.7929 23.7022 68.4533C23.023 68.1137 22.4521 67.5912 22.0538 66.9446C21.6555 66.2981 21.4456 65.5532 21.4478 64.7938C21.4478 64.678 20.799 65.6628 26.8702 57.564C27.1382 60.9036 27.8233 64.1966 28.9093 67.366Z" fill="#F27683"/>
<path d="M51.0623 67.366L51.9892 68.0612C52.5954 68.5185 53.3172 68.7975 54.0734 68.8668C54.8296 68.9361 55.5901 68.7929 56.2694 68.4533C56.9486 68.1137 57.5195 67.5912 57.9178 66.9446C58.3161 66.2981 58.526 65.5532 58.5238 64.7938C58.5238 64.678 59.1726 65.6628 53.1014 57.564C52.8334 60.9036 52.1483 64.1966 51.0623 67.366Z" fill="#F27683"/>
<path d="M49.892 38.215H30.0795C32.3643 32.9339 35.7403 28.1957 39.9857 24.3115C44.2314 28.1954 47.6074 32.9337 49.892 38.215Z" fill="#D65769"/>
<path d="M48.803 35.8978H45.5009C44.2289 35.8974 42.9842 35.5284 41.9176 34.8354C40.8509 34.1424 40.0079 33.1552 39.4906 31.9931C38.9733 30.831 38.8039 29.5439 39.0028 28.2876C39.2017 27.0312 39.7605 25.8594 40.6115 24.914C43.9559 28.0746 46.7274 31.7909 48.803 35.8978Z" fill="#F27683"/>
<path d="M49.2548 71.8152H30.7168C28.2151 66.5856 26.8637 60.8804 26.7538 55.0842C26.6438 49.2881 27.7779 43.5357 30.0796 38.215H49.8921C52.1937 43.5357 53.3278 49.2881 53.2179 55.0842C53.1079 60.8804 51.7565 66.5856 49.2548 71.8152Z" fill="#DAD7E5"/>
<path d="M50.2744 69.4979C50.1586 69.579 37.5296 69.4979 37.6222 69.4979C36.5764 69.5053 35.5533 69.193 34.6898 68.6029C33.8264 68.0127 33.1638 67.1729 32.7908 66.1958C29.4123 57.184 29.3589 47.2627 32.6402 38.215H49.8921C52.0286 43.1431 53.1627 48.4472 53.2283 53.818C53.294 59.1889 52.2898 64.5191 50.2744 69.4979Z" fill="url(#paint3_linear_376_829)"/>
<path d="M38.8272 71.8151V67.1806C38.8272 66.8733 38.9493 66.5786 39.1666 66.3613C39.3838 66.144 39.6785 66.022 39.9858 66.022C40.2931 66.022 40.5878 66.144 40.8051 66.3613C41.0224 66.5786 41.1445 66.8733 41.1445 67.1806V71.8151C41.1445 72.1224 41.0224 72.4171 40.8051 72.6344C40.5878 72.8517 40.2931 72.9737 39.9858 72.9737C39.6785 72.9737 39.3838 72.8517 39.1666 72.6344C38.9493 72.4171 38.8272 72.1224 38.8272 71.8151Z" fill="#425B72"/>
<path d="M45.7789 53.2771C45.7793 54.3003 45.5087 55.3053 44.9946 56.19C44.4805 57.0747 43.7412 57.8074 42.852 58.3136C41.9629 58.8198 40.9555 59.0815 39.9323 59.0721C38.9092 59.0626 37.9068 58.7824 37.0271 58.2598C36.1474 57.7372 35.4218 56.991 34.9242 56.097C34.4265 55.203 34.1745 54.1932 34.1937 53.1702C34.213 52.1471 34.5028 51.1475 35.0338 50.2729C35.5648 49.3982 36.318 48.6798 37.2167 48.1908C38.0989 47.7107 39.0907 47.4682 40.0949 47.4871C41.099 47.506 42.081 47.7857 42.9445 48.2986C43.808 48.8116 44.5233 49.5402 45.0202 50.413C45.5171 51.2858 45.7786 52.2728 45.7789 53.2771Z" fill="url(#paint4_radial_376_829)"/>
<path opacity="0.4" d="M45.0722 56.0463C43.9743 56.6425 42.713 56.8678 41.4766 56.6885C40.2401 56.5093 39.0947 55.9351 38.2113 55.0517C37.3279 54.1683 36.7537 53.0229 36.5745 51.7864C36.3952 50.55 36.6205 49.2887 37.2167 48.1908C38.3147 47.5946 39.5759 47.3693 40.8124 47.5485C42.0488 47.7278 43.1942 48.3019 44.0776 49.1854C44.9611 50.0688 45.5352 51.2142 45.7145 52.4506C45.8937 53.6871 45.6684 54.9483 45.0722 56.0463Z" fill="#8BBDEB"/>
<path d="M46.9376 71.8151C45.7789 75.8124 45.9875 74.9782 45.1996 77.6083H34.772L33.0341 71.8151H46.9376Z" fill="#008ED0"/>
<path d="M46.9376 71.8151L45.8948 75.291H41.8744C40.8314 75.2848 39.818 74.9437 38.9835 74.3178C38.1491 73.692 37.5379 72.8147 37.2399 71.8151H46.9376Z" fill="#07618B"/>
<path d="M39.9858 46.3254C38.6109 46.3254 37.2668 46.7331 36.1236 47.497C34.9804 48.2608 34.0894 49.3465 33.5632 50.6168C33.0371 51.8871 32.8994 53.2848 33.1676 54.6333C33.4359 55.9819 34.098 57.2205 35.0702 58.1928C36.0424 59.165 37.2811 59.8271 38.6296 60.0953C39.9781 60.3635 41.3759 60.2259 42.6461 59.6997C43.9164 59.1735 45.0021 58.2825 45.766 57.1393C46.5298 55.9961 46.9376 54.6521 46.9376 53.2771C46.9376 51.4334 46.2051 49.6652 44.9014 48.3615C43.5977 47.0578 41.8295 46.3254 39.9858 46.3254ZM39.9858 57.9116C39.0692 57.9116 38.1732 57.6398 37.411 57.1306C36.6489 56.6213 36.0549 55.8975 35.7041 55.0507C35.3533 54.2038 35.2615 53.272 35.4404 52.373C35.6192 51.474 36.0606 50.6482 36.7087 50C37.3569 49.3519 38.1827 48.9105 39.0817 48.7317C39.9807 48.5529 40.9125 48.6446 41.7594 48.9954C42.6062 49.3462 43.33 49.9402 43.8393 50.7023C44.3485 51.4645 44.6203 52.3605 44.6203 53.2771C44.6203 54.5063 44.132 55.6851 43.2629 56.5542C42.3938 57.4234 41.215 57.9116 39.9858 57.9116Z" fill="black"/>
<path d="M60.6094 65.6397L54.2833 57.2049C55.1175 45.0045 50.9117 33.1866 40.7853 23.4773C40.5698 23.2719 40.2835 23.1573 39.9858 23.1573C39.6881 23.1573 39.4019 23.2719 39.1864 23.4773C29.0716 33.1634 24.8542 45.0045 25.6884 57.2049C18.8525 66.3232 19.1306 65.7787 19.1306 66.3348C19.1306 75.8587 18.8988 75.8935 19.7678 76.3222C20.6368 76.7509 20.2892 76.7393 28.8051 70.3437C29.9637 73.2518 29.7436 72.9738 32.1767 72.9738C33.7061 78.0833 33.6366 78.7669 34.772 78.7669H45.1996C46.3583 78.7669 46.2887 78.0138 47.795 72.9738C50.2165 72.9738 49.9616 73.275 51.1666 70.3437C59.6825 76.6929 59.1379 76.4496 59.6825 76.4496C59.9897 76.4496 60.2844 76.3276 60.5017 76.1103C60.719 75.893 60.8411 75.5983 60.8411 75.291C60.8411 65.6281 60.9338 66.0799 60.6094 65.6397ZM39.9858 25.9104C43.3221 29.1213 46.0674 32.8941 48.0962 37.0564H31.8755C33.9043 32.8941 36.6496 29.1213 39.9858 25.9104ZM21.4478 66.7172L26.0823 60.5765C26.4747 63.1329 27.107 65.6466 27.9709 68.0844L21.4478 72.9738V66.7172ZM44.3423 76.4496H35.6294L34.5866 72.9738H45.385L44.3423 76.4496ZM48.5133 70.6565H41.1445V67.1806C41.1445 66.8733 41.0224 66.5786 40.8051 66.3614C40.5878 66.1441 40.2931 66.022 39.9858 66.022C39.6785 66.022 39.3838 66.1441 39.1666 66.3614C38.9493 66.5786 38.8272 66.8733 38.8272 67.1806V70.6565H31.4583C29.2247 65.7606 28.0178 60.459 27.9122 55.0786C27.8066 49.6983 28.8045 44.3534 30.8443 39.3736H49.1274C51.1672 44.3534 52.165 49.6983 52.0594 55.0786C51.9538 60.459 50.747 65.7606 48.5133 70.6565ZM58.5238 72.9738L52.0239 68.0844C52.88 65.6458 53.5045 63.1321 53.8893 60.5765L58.5238 66.7172V72.9738Z" fill="black"/>
<path opacity="0.75" d="M37.0566 53.9425C36.8504 53.8737 36.5753 53.8737 36.3691 53.805C36.5066 54.9051 37.1254 55.8676 37.9504 56.4177C37.4004 55.7301 37.0566 54.9051 37.0566 53.9425Z" fill="url(#paint5_radial_376_829)"/>
<path opacity="0.75" d="M40.0813 49.4742C38.0874 49.4742 36.4373 50.9868 36.2997 52.9807C36.5748 53.0494 36.8498 53.0494 37.1248 53.1182C37.4686 51.3993 38.9812 50.1617 40.8376 50.1617C41.5939 50.1617 42.3502 50.4368 42.969 50.8493C42.2814 50.0242 41.2501 49.4742 40.0813 49.4742Z" fill="url(#paint6_radial_376_829)"/>
</g>
<defs>
<linearGradient id="paint0_linear_376_829" x1="39.9859" y1="0.11279" x2="39.9859" y2="75.7891" gradientUnits="userSpaceOnUse">
<stop stop-color="#FEB232"/>
<stop offset="0.49" stop-color="#F88A26"/>
<stop offset="1" stop-color="#E63E18"/>
</linearGradient>
<linearGradient id="paint1_linear_376_829" x1="39.6337" y1="11.4442" x2="39.6336" y2="75.789" gradientUnits="userSpaceOnUse">
<stop stop-color="#D25507"/>
</linearGradient>
<linearGradient id="paint2_linear_376_829" x1="39.9998" y1="15.7324" x2="39.9998" y2="73.5241" gradientUnits="userSpaceOnUse">
<stop stop-color="#984009"/>
</linearGradient>
<linearGradient id="paint3_linear_376_829" x1="61.8588" y1="59.3026" x2="27.4096" y2="23.3998" gradientUnits="userSpaceOnUse">
<stop stop-color="#F9FBFC"/>
<stop offset="0.1256" stop-color="#EFEDEC"/>
<stop offset="0.3697" stop-color="#D6C7C3"/>
<stop offset="0.7047" stop-color="#AD8B82"/>
<stop offset="1" stop-color="#865143"/>
</linearGradient>
<radialGradient id="paint4_radial_376_829" cx="0" cy="0" r="1" gradientUnits="userSpaceOnUse" gradientTransform="translate(36.3754 50.3186) scale(9.78677)">
<stop offset="0.1486" stop-color="#21687E"/>
<stop offset="0.491" stop-color="#023F5F"/>
<stop offset="0.9801"/>
</radialGradient>
<radialGradient id="paint5_radial_376_829" cx="0" cy="0" r="1" gradientUnits="userSpaceOnUse" gradientTransform="translate(35.3519 51.1136) scale(6.71826 6.71826)">
<stop offset="0.2851" stop-color="white"/>
<stop offset="0.6912" stop-color="#6C6C6C"/>
<stop offset="1"/>
</radialGradient>
<radialGradient id="paint6_radial_376_829" cx="0" cy="0" r="1" gradientUnits="userSpaceOnUse" gradientTransform="translate(35.3525 51.1141) scale(6.72025 6.72025)">
<stop offset="0.2851" stop-color="white"/>
<stop offset="0.6912" stop-color="#6C6C6C"/>
<stop offset="1"/>
</radialGradient>
<clipPath id="clip0_376_829">
<rect width="55.614" height="55.614" fill="white" transform="translate(12.1788 23.1529)"/>
</clipPath>
</defs>
</svg>
